<svg width="194" height="193" viewBox="0 0 194 193" fill="none" xmlns="http://www.w3.org/2000/svg">
<path fill-rule="evenodd" clip-rule="evenodd" d="M122.366 188.645C114.165 190.895 105.527 192.097 96.6069 192.097C87.6857 192.097 79.047 190.895 70.8457 188.644L79.8105 163.393C85.1905 164.715 90.8162 165.416 96.6065 165.416C102.396 165.416 108.022 164.715 113.401 163.394L122.366 188.645ZM135.019 184.205L123.482 151.71L107.804 107.551C110.828 104.641 112.707 100.563 112.707 96.0481C112.707 87.2071 105.499 80.0401 96.6062 80.0401C87.7138 80.0401 80.5051 87.2071 80.5051 96.0481C80.5051 100.562 82.3843 104.64 85.4076 107.55L58.1932 184.204C23.9512 169.435 0 135.522 0 96.0484C0 43.0023 43.2524 0 96.6069 0C149.961 0 193.214 43.0023 193.214 96.0484C193.214 135.523 169.262 169.436 135.019 184.205ZM62.5157 143.976C47.4209 133.344 37.5686 115.84 37.5686 96.0482C37.5686 63.6311 64.0005 37.352 96.6061 37.352C129.212 37.352 155.644 63.6311 155.644 96.0482C155.644 115.84 145.791 133.344 130.697 143.976L134.389 154.375C153.636 142.026 166.378 120.517 166.378 96.0482C166.378 57.7372 135.14 26.6799 96.6061 26.6799C58.0723 26.6799 26.8345 57.7372 26.8345 96.0482C26.8345 120.517 39.5767 142.026 58.8234 154.375L62.5157 143.976ZM125.038 128.037C133.934 120.216 139.542 108.783 139.542 96.0482C139.542 72.4721 120.319 53.36 96.6061 53.36C72.8929 53.36 53.6697 72.4721 53.6697 96.0482C53.6697 108.783 59.2786 120.216 68.1744 128.037L72.1402 116.866C67.3173 111.269 64.4038 103.997 64.4038 96.0482C64.4038 78.3662 78.8213 64.0321 96.6061 64.0321C114.391 64.0321 128.808 78.3662 128.808 96.0482C128.808 103.997 125.895 111.269 121.072 116.866L125.038 128.037ZM84.3038 150.737C88.2639 151.614 92.381 152.076 96.6065 152.076C100.832 152.076 104.948 151.614 108.908 150.738L96.6057 116.087L84.3038 150.737Z" fill="url(#paint0_linear)"/>
<defs>
<linearGradient id="paint0_linear" x1="136.831" y1="0.467816" x2="72.2714" y2="60.544" gradientUnits="userSpaceOnUse">
<stop stop-color="#BDECF4"/>
<stop offset="1" stop-color="#98CCF9"/>
</linearGradient>
</defs>
</svg>
