<svg width="200" height="194" viewBox="0 0 200 194" fill="none" xmlns="http://www.w3.org/2000/svg">
<path d="M0.7323 161.493C3.0976 81.6952 64.1102 20.5841 94.3208 0.0032959V71.3325C68.6664 90.0492 61.5705 115.347 61.2294 125.657L0.7323 161.493Z" fill="url(#paint0_linear)"/>
<path d="M199.736 161.493C197.37 81.6952 137.95 20.6983 107.739 0.117423V71.4466C133.394 90.1634 138.556 115.005 138.898 125.314L199.736 161.493Z" fill="url(#paint1_linear)"/>
<path d="M193.481 173.328C125.024 209.654 41.0273 187.59 8.12385 173.328L68.0523 138.097C97.0579 149.557 125.212 143.23 134.235 138.097L193.481 173.328Z" fill="url(#paint2_linear)"/>
<defs>
<linearGradient id="paint0_linear" x1="100.234" y1="0.0032959" x2="100.234" y2="193.129" gradientUnits="userSpaceOnUse">
<stop stop-color="#FFA77B"/>
<stop offset="1" stop-color="#FFC57B"/>
</linearGradient>
<linearGradient id="paint1_linear" x1="100.234" y1="0.0032959" x2="100.234" y2="193.129" gradientUnits="userSpaceOnUse">
<stop stop-color="#FFA77B"/>
<stop offset="1" stop-color="#FFC57B"/>
</linearGradient>
<linearGradient id="paint2_linear" x1="100.234" y1="0.0032959" x2="100.234" y2="193.129" gradientUnits="userSpaceOnUse">
<stop stop-color="#FFA77B"/>
<stop offset="1" stop-color="#FFC57B"/>
</linearGradient>
</defs>
</svg>
