<svg width="192" height="192" viewBox="0 0 192 192" fill="none" xmlns="http://www.w3.org/2000/svg">
<rect width="192" height="192" rx="10" fill="url(#paint0_linear)"/>
<path d="M26.4827 68.4138L41.685 100.497C41.8373 100.818 41.8074 101.196 41.6065 101.49L26.4827 123.586" stroke="white" stroke-width="10" stroke-linecap="round"/>
<path d="M91.6152 66.3573C94.1752 66.3573 96.3885 66.4373 98.2552 66.5973C100.122 66.704 101.829 66.8907 103.375 67.1573C104.922 67.424 106.522 67.7707 108.175 68.1973L107.215 77.2373C105.455 77.1307 103.829 77.0507 102.335 76.9973C100.842 76.944 99.2419 76.8907 97.5352 76.8373C95.8819 76.784 93.9085 76.7573 91.6152 76.7573C88.8952 76.7573 86.7619 77.3173 85.2152 78.4373C83.6685 79.504 82.5752 81.344 81.9352 83.9573C81.3485 86.5707 81.0552 90.224 81.0552 94.9173C81.0552 99.5573 81.3485 103.211 81.9352 105.877C82.5752 108.491 83.6685 110.331 85.2152 111.397C86.7619 112.464 88.8952 112.997 91.6152 112.997C95.2952 112.997 98.3885 112.971 100.895 112.917C103.402 112.811 105.882 112.597 108.335 112.277L109.375 121.237C106.815 122.037 104.202 122.597 101.535 122.917C98.8685 123.291 95.5619 123.477 91.6152 123.477C85.9085 123.477 81.3219 122.571 77.8552 120.757C74.4419 118.891 71.9885 115.877 70.4952 111.717C69.0019 107.557 68.2552 101.957 68.2552 94.9173C68.2552 87.8773 69.0019 82.2773 70.4952 78.1173C71.9885 73.9573 74.4419 70.9707 77.8552 69.1573C81.3219 67.2907 85.9085 66.3573 91.6152 66.3573ZM135.286 66.2773C138.006 66.2773 140.966 66.4373 144.166 66.7573C147.366 67.024 150.486 67.584 153.526 68.4373L152.726 76.5973C150.38 76.4907 147.606 76.4107 144.406 76.3573C141.26 76.304 138.193 76.2773 135.206 76.2773C133.233 76.2773 131.633 76.384 130.406 76.5973C129.233 76.8107 128.38 77.2907 127.846 78.0373C127.366 78.7307 127.126 79.904 127.126 81.5573C127.126 83.4773 127.553 84.864 128.406 85.7173C129.313 86.5707 130.833 87.3173 132.966 87.9573L143.606 91.3973C147.98 92.944 151.02 94.9973 152.726 97.5573C154.486 100.064 155.366 103.397 155.366 107.557C155.366 111.771 154.7 115.051 153.366 117.397C152.033 119.691 149.846 121.291 146.806 122.197C143.82 123.104 139.82 123.557 134.806 123.557C132.993 123.557 130.406 123.424 127.046 123.157C123.686 122.944 119.873 122.357 115.606 121.397L116.326 112.757C121.073 112.917 124.86 113.024 127.686 113.077C130.566 113.131 132.94 113.157 134.806 113.157C138.006 113.157 140.193 112.837 141.366 112.197C142.54 111.504 143.126 110.011 143.126 107.717C143.126 105.744 142.7 104.357 141.846 103.557C141.046 102.757 139.686 102.064 137.766 101.477L126.566 97.6373C122.3 96.144 119.286 94.144 117.526 91.6373C115.82 89.1307 114.966 85.7973 114.966 81.6373C114.966 77.424 115.633 74.224 116.966 72.0373C118.353 69.7973 120.54 68.2773 123.526 67.4773C126.513 66.6773 130.433 66.2773 135.286 66.2773Z" fill="white"/>
<defs>
<linearGradient id="paint0_linear" x1="96" y1="0" x2="96" y2="192" gradientUnits="userSpaceOnUse">
<stop stop-color="#FFB996"/>
<stop offset="1" stop-color="#FFD39C"/>
</linearGradient>
</defs>
</svg>
