<svg width="192" height="192" viewBox="0 0 192 192" fill="none" xmlns="http://www.w3.org/2000/svg">
<rect width="192" height="192" rx="10" fill="url(#paint0_linear)"/>
<path d="M26.4827 68.4138L41.685 100.497C41.8373 100.818 41.8074 101.196 41.6065 101.49L26.4827 123.586" stroke="white" stroke-width="10" stroke-linecap="round"/>
<path d="M88.5058 67.3571C91.0658 67.3571 93.2792 67.4371 95.1458 67.5971C97.0125 67.7038 98.7192 67.8904 100.266 68.1571C101.813 68.4238 103.413 68.7704 105.066 69.1971L104.106 78.2371C102.346 78.1304 100.719 78.0504 99.2258 77.9971C97.7325 77.9438 96.1325 77.8904 94.4258 77.8371C92.7725 77.7838 90.7992 77.7571 88.5058 77.7571C85.7858 77.7571 83.6525 78.3171 82.1058 79.4371C80.5592 80.5038 79.4658 82.3438 78.8258 84.9571C78.2392 87.5704 77.9458 91.2238 77.9458 95.9171C77.9458 100.557 78.2392 104.21 78.8258 106.877C79.4658 109.49 80.5592 111.33 82.1058 112.397C83.6525 113.464 85.7858 113.997 88.5058 113.997C92.1858 113.997 95.2792 113.97 97.7858 113.917C100.293 113.81 102.773 113.597 105.226 113.277L106.266 122.237C103.706 123.037 101.093 123.597 98.4258 123.917C95.7592 124.29 92.4525 124.477 88.5058 124.477C82.7992 124.477 78.2125 123.57 74.7458 121.757C71.3325 119.89 68.8792 116.877 67.3858 112.717C65.8925 108.557 65.1458 102.957 65.1458 95.9171C65.1458 88.8771 65.8925 83.2771 67.3858 79.1171C68.8792 74.9571 71.3325 71.9704 74.7458 70.1571C78.2125 68.2904 82.7992 67.3571 88.5058 67.3571ZM158.977 68.3171L143.937 120.157C143.67 121.17 143.137 121.997 142.337 122.637C141.537 123.224 140.63 123.517 139.617 123.517H128.417C127.35 123.517 126.417 123.224 125.617 122.637C124.87 121.997 124.364 121.17 124.097 120.157L109.057 68.3171H121.617L131.697 108.157C131.91 109.17 132.124 110.21 132.337 111.277C132.55 112.29 132.764 113.304 132.977 114.317H135.057C135.43 112.237 135.884 110.157 136.417 108.077L146.417 68.3171H158.977Z" fill="white"/>
<defs>
<linearGradient id="paint0_linear" x1="96" y1="0" x2="96" y2="192" gradientUnits="userSpaceOnUse">
<stop stop-color="#F7BAC5"/>
<stop offset="1" stop-color="#EC98BC"/>
</linearGradient>
</defs>
</svg>
