<svg width="192" height="192" viewBox="0 0 192 192" fill="none" xmlns="http://www.w3.org/2000/svg">
<rect width="192" height="192" rx="10" fill="url(#paint0_linear)"/>
<path d="M26.4827 68.4138L41.685 100.497C41.8373 100.818 41.8074 101.196 41.6065 101.49L26.4827 123.586" stroke="white" stroke-width="10" stroke-linecap="round"/>
<path d="M73.7725 68.56C78.0925 68.56 82.5725 68.6133 87.2125 68.72C91.8525 68.7733 96.0925 68.9867 99.9325 69.36L99.3725 78.24H78.1725C75.5058 78.24 74.1725 79.6 74.1725 82.32V90.96H96.4125V99.6H74.1725V110.48C74.1725 113.2 75.5058 114.56 78.1725 114.56H99.3725L99.9325 123.44C96.0925 123.813 91.8525 124.027 87.2125 124.08C82.5725 124.133 78.0925 124.16 73.7725 124.16C70.2525 124.16 67.3992 123.173 65.2125 121.2C63.0258 119.173 61.9325 116.48 61.9325 113.12V79.68C61.9325 76.32 63.0258 73.6267 65.2125 71.6C67.3992 69.5733 70.2525 68.56 73.7725 68.56ZM165.143 68.8C168.023 68.8 169.516 70.2933 169.623 73.28L171.703 124H160.423L158.583 78.16H157.143L148.262 112.64C147.729 115.2 146.129 116.48 143.462 116.48H135.783C133.063 116.48 131.436 115.2 130.903 112.64L121.943 78.16H120.583L118.903 124H107.623L109.623 73.28C109.729 70.2933 111.249 68.8 114.183 68.8H125.623C128.236 68.8 129.836 70.08 130.423 72.64L137.543 100.48C137.863 101.76 138.129 103.067 138.343 104.4C138.556 105.68 138.796 106.987 139.063 108.32H140.103C140.369 106.987 140.609 105.68 140.823 104.4C141.036 103.067 141.303 101.733 141.623 100.4L148.663 72.64C149.196 70.08 150.823 68.8 153.543 68.8H165.143Z" fill="white"/>
<defs>
<linearGradient id="paint0_linear" x1="96" y1="0" x2="96" y2="192" gradientUnits="userSpaceOnUse">
<stop stop-color="#F7BAC5"/>
<stop offset="1" stop-color="#EC98BC"/>
</linearGradient>
</defs>
</svg>
