<svg width="192" height="192" viewBox="0 0 192 192" fill="none" xmlns="http://www.w3.org/2000/svg">
<rect width="192" height="192" rx="10" fill="url(#paint0_linear)"/>
<path d="M26.4827 68.4138L41.685 100.497C41.8373 100.818 41.8074 101.196 41.6065 101.49L26.4827 123.586" stroke="white" stroke-width="10" stroke-linecap="round"/>
<path d="M88.4284 68.56C92.6418 68.56 96.9884 68.6133 101.468 68.72C106.002 68.7733 110.108 69.0133 113.788 69.44L113.148 78.24H93.1484C90.2151 78.24 88.7484 79.6 88.7484 82.32V91.92H110.188V100.56H88.7484V124H76.5884V79.84C76.5884 76.3733 77.6818 73.6267 79.8684 71.6C82.0551 69.5733 84.9084 68.56 88.4284 68.56ZM132.562 68.56C136.882 68.56 141.362 68.6133 146.002 68.72C150.642 68.7733 154.882 68.9867 158.722 69.36L158.162 78.24H136.962C134.295 78.24 132.962 79.6 132.962 82.32V90.96H155.202V99.6H132.962V110.48C132.962 113.2 134.295 114.56 136.962 114.56H158.162L158.722 123.44C154.882 123.813 150.642 124.027 146.002 124.08C141.362 124.133 136.882 124.16 132.562 124.16C129.042 124.16 126.188 123.173 124.002 121.2C121.815 119.173 120.722 116.48 120.722 113.12V79.68C120.722 76.32 121.815 73.6267 124.002 71.6C126.188 69.5733 129.042 68.56 132.562 68.56Z" fill="white"/>
<defs>
<linearGradient id="paint0_linear" x1="96" y1="-1.61468e-08" x2="95.4582" y2="285.655" gradientUnits="userSpaceOnUse">
<stop stop-color="#A4DCA1"/>
<stop offset="1" stop-color="#D1EDAC"/>
</linearGradient>
</defs>
</svg>
