<svg width="211" height="191" viewBox="0 0 211 191" fill="none" xmlns="http://www.w3.org/2000/svg">
<path d="M105.635 121.273C125.709 121.273 142.04 104.942 142.04 84.8679C142.04 83.8472 141.133 82.9399 140.112 82.9399H126.389C125.369 82.9399 124.461 83.8472 124.461 84.8679C124.461 95.1883 116.069 103.694 105.635 103.694C95.3148 103.694 86.809 95.3018 86.809 84.8679C86.809 83.8472 85.9017 82.9399 84.881 82.9399H71.1582C70.1375 82.9399 69.2302 83.8472 69.2302 84.8679C69.2302 105.055 85.5614 121.273 105.635 121.273Z" fill="url(#paint0_linear)"/>
<path d="M105.637 155.64C144.537 155.64 176.292 123.885 176.292 84.9846C176.292 83.9639 175.385 83.0566 174.364 83.0566H160.642C159.621 83.0566 158.714 83.9639 158.714 84.9846C158.714 114.358 134.897 138.174 105.524 138.174C76.1504 138.174 52.3341 114.358 52.3341 84.9846C52.3341 83.9639 51.4268 83.0566 50.4061 83.0566H36.9102C35.8895 83.0566 34.9822 83.9639 34.9822 84.9846C34.7553 123.885 66.5105 155.64 105.637 155.64V155.64Z" fill="url(#paint1_linear)"/>
<path d="M208.838 83.0535H195.115C194.095 83.0535 193.187 83.9608 193.187 84.9815C193.187 133.295 153.72 172.648 105.52 172.648C57.2073 172.648 17.8536 133.408 17.8536 84.9815C17.8536 83.9608 16.9463 83.0535 15.9256 83.0535H2.4297C1.409 83.0535 0.501709 83.9608 0.501709 84.9815C0.501709 142.935 47.6807 190.114 105.634 190.114C163.587 190.114 210.766 142.935 210.766 84.9815C210.766 83.9608 209.859 83.0535 208.838 83.0535Z" fill="url(#paint2_linear)"/>
<path d="M58.345 37.5731C65.3765 41.2023 72.975 41.8827 79.7797 45.8521C84.2027 48.4606 87.038 51.2958 89.7599 55.6055C94.0695 62.0699 93.8427 70.2355 93.8427 70.2355L94.4097 79.195C94.4097 79.195 97.8121 88.1545 105.411 88.1545C113.463 88.1545 116.411 79.195 116.411 79.195L116.979 70.2355C116.979 70.2355 116.752 62.1833 121.061 55.6055C123.783 51.2958 126.505 48.2337 131.042 45.8521C137.846 41.8827 145.445 41.2023 152.476 37.5731C159.508 33.9439 166.312 29.2941 170.962 22.8296C175.612 16.3652 177.767 7.74596 175.272 0.147413C161.889 -0.533054 146.465 1.0547 134.671 7.40573C118.226 16.1384 108.246 13.0763 105.297 26.1186H105.07C102.122 12.9629 92.2549 16.1384 75.6969 7.40573C63.9021 1.0547 48.4782 -0.533054 35.0957 0.147413C32.4872 7.74596 34.7555 16.2518 39.4053 22.8296C44.3954 29.4075 51.3135 34.0574 58.345 37.5731V37.5731Z" fill="url(#paint3_linear)"/>
<defs>
<linearGradient id="paint0_linear" x1="105.635" y1="82.9399" x2="105.635" y2="121.273" gradientUnits="userSpaceOnUse">
<stop stop-color="#92C3EB"/>
<stop offset="1" stop-color="#B6E2D2"/>
</linearGradient>
<linearGradient id="paint1_linear" x1="105.637" y1="83.0566" x2="105.637" y2="155.64" gradientUnits="userSpaceOnUse">
<stop stop-color="#92C3EB"/>
<stop offset="1" stop-color="#B6E2D2"/>
</linearGradient>
<linearGradient id="paint2_linear" x1="105.634" y1="83.0535" x2="105.634" y2="190.114" gradientUnits="userSpaceOnUse">
<stop stop-color="#92C3EB"/>
<stop offset="1" stop-color="#B6E2D2"/>
</linearGradient>
<linearGradient id="paint3_linear" x1="105.159" y1="0.00183105" x2="105.159" y2="88.1545" gradientUnits="userSpaceOnUse">
<stop stop-color="#616892"/>
<stop offset="1" stop-color="#707FA6"/>
</linearGradient>
</defs>
</svg>
