<svg width="88" height="97" viewBox="0 0 88 97" fill="none" xmlns="http://www.w3.org/2000/svg">
<path d="M18.0543 0H78.5635C80.0025 0 80.9706 1.47415 80.3988 2.79472L73.7733 18.0957C73.4565 18.8274 72.7353 19.301 71.938 19.301H32.9841C31.5582 19.301 30.5903 20.7505 31.1368 22.0676L45.7005 57.1645C46.0103 57.9112 46.7393 58.398 47.5477 58.398H58.9693C60.3898 58.398 61.3575 56.9586 60.8214 55.6432L55.2009 41.8517C54.6648 40.5363 55.6325 39.0969 57.053 39.0969H78.2259C79.0746 39.0969 79.8309 39.6326 80.1126 40.4332L87.7403 62.1138C87.9073 62.5884 87.8892 63.1086 87.6897 63.5705L73.7727 95.793C73.4563 96.5256 72.7346 97 71.9366 97H71.6151C70.8178 97 70.0966 96.5264 69.7798 95.7947L62.466 78.9043C62.1492 78.1726 61.428 77.699 60.6307 77.699H15.1568C14.3204 77.699 13.5724 77.1786 13.2816 76.3944L0.272077 41.3153C0.0971478 40.8436 0.106404 40.3233 0.297999 39.8581L16.205 1.23831C16.5137 0.489006 17.2439 0 18.0543 0Z" fill="url(#paint0_linear)"/>
<defs>
<linearGradient id="paint0_linear" x1="44" y1="0" x2="44" y2="97" gradientUnits="userSpaceOnUse">
<stop stop-color="#6E7DA4"/>
<stop offset="1" stop-color="#F7BAC5"/>
</linearGradient>
</defs>
</svg>
