<svg width="82" height="95" viewBox="0 0 82 95" fill="none" xmlns="http://www.w3.org/2000/svg">
<path d="M79.838 31.1198C82.5279 24.602 82.5279 11.3593 79.0104 1.2204C78.0792 -0.641851 75.2859 -0.0211022 75.1824 1.9446V2.66881C74.5617 12.3939 71.0441 17.6703 65.7677 20.2567C64.94 20.6705 63.5951 20.6705 62.664 20.0498C56.4565 16.1184 49.0075 13.8423 41.0412 13.8423C33.0749 13.8423 25.7294 16.2218 19.4184 20.0498C18.5907 20.5671 17.5562 20.6705 16.7285 20.2567C11.3487 18.291 7.62417 12.3939 7.00342 2.56535V1.84115C7.00342 -0.12456 4.10659 -0.74531 3.27893 1.11694C-0.238655 11.4628 -0.135197 24.7054 2.45126 31.1198C3.79622 34.327 3.79622 37.9481 2.65818 41.2587C1.20976 45.3971 0.485552 50.0527 0.589011 54.7083C1.1063 76.0207 19.2115 94.2294 40.6274 94.5397C63.1813 94.9536 81.4934 76.8484 81.4934 54.191C81.4934 49.6389 80.7691 45.3971 79.4242 41.3622C78.3896 38.0515 78.4931 34.327 79.838 31.1198ZM40.5239 85.0216C24.1775 84.6077 10.6245 71.2616 10.4175 54.8118C10.0037 37.3273 24.281 23.0501 41.6619 23.4639C58.1118 23.6708 71.5614 37.2239 71.8717 53.6737C72.1821 71.0547 58.0083 85.2285 40.5239 85.0216Z" fill="url(#paint0_linear)"/>
<path d="M45.8003 50.8803L38.5582 39.7069C37.4202 37.8446 35.0406 37.3273 33.1784 38.4654C32.0403 39.1896 31.3161 40.4311 31.3161 41.776C31.3161 42.5002 31.523 43.2244 31.9369 43.8452L36.7994 51.5011C37.2132 52.1218 37.0063 52.8461 36.696 53.3633L29.04 61.7435C27.5916 63.2953 27.6951 65.7783 29.247 67.2267C29.9712 67.8475 31.0057 68.1579 31.9369 68.1579C33.0749 68.1579 34.006 67.6406 34.7302 66.9164L40.4204 60.295C40.9377 59.7778 41.6619 59.7778 41.9723 60.3985L46.0072 66.1922C46.2141 66.7095 46.6279 67.0198 47.1452 67.3302C48.4902 68.2613 50.249 68.2613 51.5939 67.4337C52.732 66.7095 53.4562 65.468 53.4562 64.123C53.4562 63.3988 53.2493 62.6746 52.8354 62.0538L45.8003 50.8803Z" fill="url(#paint1_linear)"/>
<defs>
<linearGradient id="paint0_linear" x1="41.1652" y1="0" x2="41.1652" y2="94.5467" gradientUnits="userSpaceOnUse">
<stop stop-color="#616892"/>
<stop offset="1" stop-color="#707FA6"/>
</linearGradient>
<linearGradient id="paint1_linear" x1="40.7358" y1="37.8653" x2="40.7358" y2="68.1579" gradientUnits="userSpaceOnUse">
<stop stop-color="#616892"/>
<stop offset="1" stop-color="#707FA6"/>
</linearGradient>
</defs>
</svg>
