<svg width="228" height="191" viewBox="0 0 228 191" fill="none" xmlns="http://www.w3.org/2000/svg">
<path d="M86.0908 92.2008C80.8084 81.656 70.9365 73.7624 59.3112 70.7874C20.1137 60.757 -13.479 108.49 6.18058 146.282C21.9616 176.62 70.425 181.962 89.8864 155.511C102.119 138.884 101.119 122.2 86.0908 92.2008Z" fill="url(#paint0_linear)"/>
<path fill-rule="evenodd" clip-rule="evenodd" d="M210.911 148.821C248.893 92.0399 217.585 15.748 150.713 2.12715C113.717 -5.40758 74.5204 10.9511 53.356 42.7603C49.7067 48.2451 43.8726 59.4287 43.8739 60.9382C43.8739 61.1987 47.7356 61.4124 52.4534 61.4124C71.5652 61.415 87.9899 71.356 96.2818 87.9402C100.554 96.4869 107.874 115.262 108.933 120.393C113.059 140.377 103.002 163.23 85.7288 173.118C83.6269 174.321 82.3854 174.963 82.3551 175.658C82.3138 176.603 84.5183 177.647 89.8547 180.339C132.259 201.733 184.641 188.094 210.911 148.821Z" fill="url(#paint1_linear)"/>
<defs>
<linearGradient id="paint0_linear" x1="49.3417" y1="69.433" x2="49.3417" y2="172.541" gradientUnits="userSpaceOnUse">
<stop stop-color="#8598EB"/>
<stop offset="1" stop-color="#A5C8FF"/>
</linearGradient>
<linearGradient id="paint1_linear" x1="173.774" y1="0.773532" x2="110.127" y2="57.5877" gradientUnits="userSpaceOnUse">
<stop stop-color="#BDECF4"/>
<stop offset="1" stop-color="#98CCF9"/>
</linearGradient>
</defs>
</svg>
