<svg width="153" height="180" viewBox="0 0 153 180" fill="none" xmlns="http://www.w3.org/2000/svg">
<path fill-rule="evenodd" clip-rule="evenodd" d="M12.8677 107.754V119.691L38.3398 157.49C40.3986 161.059 44.2442 163.458 48.6774 163.458H104.381C108.815 163.458 112.66 161.059 114.719 157.49H114.731L140.191 119.691V107.754H12.8677Z" fill="url(#paint0_linear)"/>
<path fill-rule="evenodd" clip-rule="evenodd" d="M60.6147 14.2506V6.29287C60.6147 2.99668 57.9426 0.324585 54.6464 0.324585H30.7732C27.477 0.324585 24.8049 2.99668 24.8049 6.29287V14.2506C24.8049 17.5468 27.477 20.2189 30.7732 20.2189H44.6993V36.1343H52.657V20.2189H54.6464C57.9426 20.2189 60.6147 17.5468 60.6147 14.2506ZM108.361 20.2189H122.287C125.583 20.2189 128.256 17.5468 128.256 14.2506V6.29287C128.256 2.99668 125.583 0.324585 122.287 0.324585H98.4141C95.1179 0.324585 92.4458 2.99668 92.4458 6.29287V14.2506C92.4458 17.5468 95.1179 20.2189 98.4141 20.2189H100.403V36.1343H108.361V20.2189Z" fill="url(#paint1_linear)"/>
<path d="M70.5623 147.542C67.2559 147.542 64.594 150.204 64.594 153.511V165.447C64.594 165.719 64.6194 165.984 64.6542 166.246C64.6545 166.248 64.654 166.25 64.6542 166.252C64.6145 166.645 64.5944 167.041 64.594 167.437C64.594 169.004 64.9027 170.556 65.5026 172.004C66.1025 173.453 66.9817 174.769 68.0901 175.877C69.1985 176.985 70.5144 177.865 71.9626 178.465C73.4109 179.064 74.963 179.373 76.5306 179.373C78.0981 179.373 79.6503 179.064 81.0985 178.465C82.5467 177.865 83.8626 176.985 84.971 175.877C86.0794 174.769 86.9587 173.453 87.5585 172.004C88.1584 170.556 88.4671 169.004 88.4671 167.437C88.4635 167.054 88.4415 166.671 88.4011 166.29C88.4399 166.014 88.4671 165.734 88.4671 165.447V153.511C88.4671 150.204 85.8053 147.542 82.4989 147.542H70.5623Z" fill="url(#paint2_linear)"/>
<path d="M152.128 107.754V40.1133C152.128 33.5209 146.784 28.1767 140.192 28.1767L12.8683 28.1767C6.27595 28.1767 0.931767 33.5209 0.931767 40.1133V107.754C0.931767 114.346 6.27595 119.69 12.8683 119.69L140.192 119.69C146.784 119.69 152.128 114.346 152.128 107.754Z" fill="url(#paint3_linear)"/>
<path fill-rule="evenodd" clip-rule="evenodd" d="M12.788 46.9008C13.9836 44.659 16.7702 43.8109 19.0119 45.0065L76.53 75.6828L134.048 45.0065C136.29 43.8109 139.076 44.659 140.272 46.9008C141.468 49.1426 140.619 51.9291 138.378 53.1248L76.53 86.1102L14.6822 53.1248C12.4404 51.9291 11.5924 49.1426 12.788 46.9008Z" fill="white"/>
<defs>
<linearGradient id="paint0_linear" x1="76.5294" y1="107.754" x2="76.5294" y2="163.458" gradientUnits="userSpaceOnUse">
<stop stop-color="#8598EB"/>
<stop offset="1" stop-color="#A5C8FF"/>
</linearGradient>
<linearGradient id="paint1_linear" x1="76.5302" y1="0.324585" x2="76.5302" y2="36.1343" gradientUnits="userSpaceOnUse">
<stop stop-color="#616892"/>
<stop offset="1" stop-color="#707FA6"/>
</linearGradient>
<linearGradient id="paint2_linear" x1="76.5306" y1="147.542" x2="76.5306" y2="179.373" gradientUnits="userSpaceOnUse">
<stop stop-color="#616892"/>
<stop offset="1" stop-color="#707FA6"/>
</linearGradient>
<linearGradient id="paint3_linear" x1="152.128" y1="73.9336" x2="0.931763" y2="73.9336" gradientUnits="userSpaceOnUse">
<stop stop-color="#F7BAC5"/>
<stop offset="1" stop-color="#EC98BC"/>
</linearGradient>
</defs>
</svg>
