<svg width="68" height="110" viewBox="0 0 68 110" fill="none" xmlns="http://www.w3.org/2000/svg">
<path d="M53.6074 60.9263C49.308 60.9263 45.4535 62.8241 42.814 65.8119L36.0504 61.0414C36.7683 59.0719 37.1806 56.9571 37.1806 54.7436C37.1806 52.5684 36.7827 50.4891 36.0883 48.5487L42.8368 43.8287C45.4761 46.8015 49.3204 48.6889 53.6074 48.6889C61.5429 48.6889 68 42.2567 68 34.3492C68 26.4418 61.5429 20.0095 53.6074 20.0095C45.6718 20.0095 39.2148 26.4418 39.2148 34.3492C39.2148 35.7646 39.4294 37.1294 39.8145 38.4219L33.0615 43.1443C30.2406 39.6575 26.1789 37.223 21.5512 36.4799V28.3711C28.0707 27.0068 32.9829 21.2356 32.9829 14.3397C32.9829 6.43228 26.5258 0 18.5903 0C10.6547 0 4.19767 6.43228 4.19767 14.3397C4.19767 21.1433 8.98264 26.8433 15.3717 28.3049V36.5191C6.65231 38.044 0 45.6256 0 54.7436C0 63.9059 6.71819 71.5154 15.5005 72.9884V81.662C9.04613 83.0755 4.19767 88.8104 4.19767 95.6603C4.19767 103.568 10.6547 110 18.5903 110C26.5258 110 32.9829 103.568 32.9829 95.6603C32.9829 88.8104 28.1345 83.0755 21.68 81.662V72.9881C26.1252 72.2421 30.1468 69.9118 32.9957 66.4312L39.8044 71.2327C39.4265 72.5136 39.2148 73.8649 39.2148 75.266C39.2148 83.1734 45.6718 89.6057 53.6074 89.6057C61.5429 89.6057 68 83.1734 68 75.266C68 67.3585 61.5429 60.9263 53.6074 60.9263ZM53.6074 27.3967C57.4555 27.3967 60.5853 30.5163 60.5853 34.3492C60.5853 38.1821 57.4555 41.3015 53.6074 41.3015C49.7593 41.3015 46.6294 38.1821 46.6294 34.3492C46.6294 30.5163 49.7593 27.3967 53.6074 27.3967ZM11.6121 14.3397C11.6121 10.5068 14.7422 7.38739 18.5903 7.38739C22.4384 7.38739 25.5683 10.5068 25.5683 14.3397C25.5683 18.1726 22.4384 21.292 18.5903 21.292C14.7422 21.292 11.6121 18.1726 11.6121 14.3397ZM25.5683 95.6603C25.5683 99.4932 22.4384 102.613 18.5903 102.613C14.7422 102.613 11.6121 99.4932 11.6121 95.6603C11.6121 91.8274 14.7422 88.708 18.5903 88.708C22.4384 88.708 25.5683 91.8274 25.5683 95.6603ZM18.5898 64.4397C13.2228 64.4397 8.85673 60.0905 8.85673 54.7436C8.85673 49.3963 13.2228 45.0463 18.5898 45.0463C23.9565 45.0463 28.3225 49.3963 28.3225 54.7436C28.3225 60.0905 23.9565 64.4397 18.5898 64.4397ZM53.6074 82.2185C49.7593 82.2185 46.6294 79.0989 46.6294 75.266C46.6294 71.4331 49.7593 68.3137 53.6074 68.3137C57.4555 68.3137 60.5853 71.4331 60.5853 75.266C60.5853 79.0989 57.4555 82.2185 53.6074 82.2185Z" fill="url(#paint0_linear)"/>
<defs>
<linearGradient id="paint0_linear" x1="34" y1="0" x2="34" y2="110" gradientUnits="userSpaceOnUse">
<stop stop-color="#616892"/>
<stop offset="1" stop-color="#707FA6"/>
</linearGradient>
</defs>
</svg>
