<svg width="58" height="48" viewBox="0 0 58 48" fill="none" xmlns="http://www.w3.org/2000/svg">
<path d="M57.398 12.1337C57.3006 12.0365 57.1789 11.9878 57.0329 11.9878H48.7085C48.5381 11.9878 48.4164 11.9149 48.3191 11.769L41.6498 0.218844C41.5768 0.0729478 41.4308 0 41.2604 0H14.048C13.8776 0 13.7315 0.0729478 13.6585 0.218844L6.74588 12.2067L6.50247 12.6444L0.0766439 23.7812C0.0279634 23.8541 0.0279636 23.9271 0.0279636 24C0.0279636 24.0486 0.0279633 24.1216 0.0523035 24.1702C0.0523035 24.1945 0.0766439 24.2188 0.0766439 24.2188L0.806852 25.4833L6.74588 35.769L6.77022 35.7933L13.6829 47.7812C13.7559 47.9271 13.9019 48 14.0723 48H41.3091C41.4794 48 41.6255 47.9271 41.6985 47.7812L48.3677 36.231C48.4408 36.0851 48.5868 36.0122 48.7572 36.0122H57.0572H57.0815H57.1059C57.2276 36.0122 57.3249 35.9392 57.398 35.8663C57.4223 35.8419 57.4467 35.8176 57.4467 35.7933C57.471 35.769 57.471 35.7447 57.4953 35.7204C57.5197 35.6717 57.544 35.5988 57.544 35.5258V12.4985C57.544 12.3526 57.4953 12.231 57.398 12.1337ZM25.2201 36.231L23.1269 39.8298C23.1025 39.8784 23.0539 39.9271 22.9808 39.9514C22.9322 39.9757 22.8591 40 22.7861 40H18.6239C18.4779 40 18.3562 39.9271 18.2832 39.8055L16.0682 35.9878L12.1007 29.0821L11.4922 28.0122L9.27726 24.1945C9.25292 24.1459 9.22858 24.073 9.22858 24C9.22858 23.9271 9.25292 23.8541 9.27726 23.8055L11.5166 19.9392L16.1169 11.9878L18.3075 8.19453C18.3805 8.07295 18.5022 8 18.6483 8H22.8105C22.8835 8 22.9565 8.02432 23.0052 8.04863C23.0539 8.07295 23.1025 8.12158 23.1512 8.17021L23.1756 8.19453L25.2688 11.8176C25.2932 11.8663 25.3175 11.9392 25.3175 11.9878C25.3175 12.0608 25.2932 12.1337 25.2688 12.1824L18.5509 23.8055C18.5266 23.8541 18.5022 23.9271 18.5022 24C18.5022 24.073 18.5022 24.1216 18.5509 24.1945C18.5509 24.1945 18.5509 24.1945 18.5509 24.2188L25.2445 35.8176C25.2688 35.8663 25.2932 35.9392 25.2932 35.9878C25.2932 36.0851 25.2688 36.1581 25.2201 36.231ZM37.0252 39.8298C36.9521 39.9514 36.8304 40.0243 36.6844 40.0243H32.5222C32.4492 40.0243 32.3762 40 32.3275 39.9757C32.2788 39.9514 32.2301 39.9027 32.1815 39.8541L30.0882 36.231C30.0638 36.1581 30.0395 36.1094 30.0395 36.0365C30.0395 35.9878 30.0638 35.9149 30.0882 35.8663L36.7818 24.2432C36.8304 24.1945 36.8304 24.1216 36.8304 24.0486C36.8304 23.9757 36.8061 23.9027 36.7818 23.8541L30.0882 12.2553C30.0395 12.1824 30.0395 12.1094 30.0395 12.0365C30.0395 11.9635 30.0638 11.9149 30.0882 11.8419L32.1815 8.21884C32.2058 8.17021 32.2545 8.12158 32.3275 8.09726C32.3762 8.07295 32.4492 8.04863 32.5222 8.04863H36.6844C36.8304 8.04863 36.9521 8.12158 37.0252 8.24316L39.2158 12.0365L43.8404 20.0608L46.0311 23.8541C46.0797 23.9027 46.0797 23.9757 46.0797 24.0486C46.0797 24.1216 46.0554 24.1945 46.0311 24.2432L39.2158 36.0365L37.0252 39.8298Z" fill="url(#paint0_linear)"/>
<path d="M11.4643 28.0122L9.2493 24.1946C9.22496 24.1459 9.20062 24.073 9.20062 24C9.20062 23.9271 9.22496 23.8541 9.2493 23.8055L11.4886 19.9392L16.0889 11.9879H7.10736C6.93697 11.9879 6.81527 12.0608 6.71791 12.2067L6.47451 12.6444L3.43198 17.9453L0.0486802 23.7812C-2.78966e-07 23.8541 0 23.9271 0 24C0 24.0487 9.24283e-08 24.1216 0.0243404 24.1702C0.0243404 24.1946 0.0486802 24.2189 0.0486802 24.2189L0.778888 25.4833L6.71791 35.769C6.71791 35.769 6.71791 35.7933 6.74225 35.7933C6.81527 35.9149 6.96131 35.9879 7.10736 35.9879H16.0889L12.0971 29.0821L11.4643 28.0122ZM57.3943 12.1338C57.297 12.0365 57.1753 11.9879 57.0292 11.9879H39.1878L43.8125 20.0122L46.0031 23.8055C46.0518 23.8541 46.0518 23.9271 46.0518 24C46.0518 24.073 46.0274 24.1459 46.0031 24.1946L39.1878 35.9879H57.0292H57.0536C57.1753 35.9879 57.2726 35.9149 57.3457 35.842C57.37 35.8177 57.3943 35.7933 57.3943 35.769C57.4187 35.7447 57.4187 35.7204 57.443 35.6961C57.4674 35.6474 57.4917 35.5745 57.4917 35.5015V12.4985C57.5404 12.3526 57.4917 12.231 57.3943 12.1338ZM30.0846 12.2067C30.0359 12.1338 30.0359 12.0608 30.0359 11.9879H25.2895C25.2895 12.0608 25.2652 12.1338 25.2409 12.1824L18.5229 23.8055C18.4986 23.8541 18.4743 23.9271 18.4743 24C18.4743 24.073 18.4743 24.1216 18.5229 24.1946C18.5229 24.1946 18.5229 24.1946 18.5229 24.2189L25.2165 35.8177C25.2409 35.8663 25.2652 35.9392 25.2652 35.9879H30.0359C30.0359 35.9392 30.0602 35.8663 30.0846 35.8177L36.7781 24.1946C36.8268 24.1459 36.8268 24.073 36.8268 24C36.8268 23.9271 36.8025 23.8541 36.7781 23.8055L30.0846 12.2067Z" fill="url(#paint1_linear)"/>
<defs>
<linearGradient id="paint0_linear" x1="28.786" y1="0" x2="28.786" y2="48" gradientUnits="userSpaceOnUse">
<stop stop-color="#616892"/>
<stop offset="1" stop-color="#707FA6"/>
</linearGradient>
<linearGradient id="paint1_linear" x1="28.7554" y1="11.9879" x2="28.7554" y2="35.9879" gradientUnits="userSpaceOnUse">
<stop stop-color="#92C3EB"/>
<stop offset="1" stop-color="#B6E2D2"/>
</linearGradient>
</defs>
</svg>
