<svg width="192" height="192" viewBox="0 0 192 192" fill="none" xmlns="http://www.w3.org/2000/svg">
<rect width="192" height="192" rx="10" fill="url(#paint0_linear)"/>
<path d="M26.4827 68.4138L41.685 100.497C41.8373 100.818 41.8074 101.196 41.6065 101.49L26.4827 123.586" stroke="white" stroke-width="10" stroke-linecap="round"/>
<path d="M82.4505 67.3173V82.9173C82.4505 85.2107 82.2372 87.424 81.8105 89.5573H86.7705L100.851 67.3173H114.051L99.6505 89.5573C99.0639 90.5173 98.4239 91.344 97.7305 92.0373C97.0372 92.6773 96.3439 93.2373 95.6505 93.7173V93.9573C96.3972 94.4373 97.1972 95.104 98.0505 95.9573C98.9039 96.8107 99.5972 97.6907 100.131 98.5973L115.011 122.517H101.411L86.8505 98.0373H81.8105C82.0239 98.9973 82.1839 99.9307 82.2905 100.837C82.3972 101.744 82.4505 102.624 82.4505 103.477V122.517H70.2905V67.3173H82.4505ZM132.994 67.3173V108.597C132.994 111.317 134.434 112.677 137.314 112.677H156.594L157.154 121.877C153.314 122.304 149.314 122.544 145.154 122.597C141.047 122.651 136.994 122.677 132.994 122.677C128.94 122.677 125.9 121.611 123.874 119.477C121.847 117.344 120.834 114.597 120.834 111.237V67.3173H132.994Z" fill="white"/>
<defs>
<linearGradient id="paint0_linear" x1="96" y1="-1.61468e-08" x2="95.4582" y2="285.655" gradientUnits="userSpaceOnUse">
<stop stop-color="#A4DCA1"/>
<stop offset="1" stop-color="#D1EDAC"/>
</linearGradient>
</defs>
</svg>
