<svg width="167" height="198" viewBox="0 0 167 198" fill="none" xmlns="http://www.w3.org/2000/svg">
<path fill-rule="evenodd" clip-rule="evenodd" d="M18.794 6.05394C18.4899 4.55358 19.4537 3.08958 20.9467 2.78401L30.4081 0.847514C31.901 0.541943 33.3578 1.51051 33.6619 3.01087L61.7404 141.56C62.0444 143.06 61.0806 144.524 59.5877 144.83L50.1263 146.766C48.6333 147.072 47.1765 146.103 46.8725 144.603L18.794 6.05394ZM3.17455 26.2268C1.68159 26.5324 0.717793 27.9964 1.02186 29.4967L25.2464 149.029C25.5505 150.529 27.0073 151.498 28.5002 151.192L37.9616 149.256C39.4546 148.95 40.4184 147.486 40.1143 145.986L15.8898 26.4536C15.5857 24.9533 14.1289 23.9847 12.6359 24.2903L3.17455 26.2268ZM95.3341 148.268C95.1807 147.518 95.6613 146.786 96.4075 146.631L157.782 133.954C158.528 133.8 159.257 134.283 159.411 135.033L161.91 147.253C162.064 148.003 161.583 148.736 160.837 148.89L99.4623 161.567C98.7161 161.722 97.9869 161.239 97.8335 160.489L95.3341 148.268ZM73.4383 151.376C72.6921 151.53 72.2115 152.263 72.3649 153.013L74.8643 165.233C75.0177 165.983 75.7469 166.466 76.4931 166.312L88.6533 163.8C89.3995 163.646 89.8801 162.913 89.7267 162.163L87.2273 149.943C87.0739 149.193 86.3447 148.71 85.5985 148.864L73.4383 151.376ZM50.0495 157.622C49.8961 156.872 50.3767 156.14 51.1229 155.985L63.283 153.474C64.0293 153.319 64.7585 153.802 64.9119 154.552L67.4113 166.773C67.5647 167.523 67.0841 168.255 66.3379 168.41L54.1777 170.921C53.4315 171.076 52.7023 170.593 52.5489 169.843L50.0495 157.622ZM28.851 160.586C28.1048 160.74 27.6242 161.473 27.7776 162.223L30.277 174.443C30.4304 175.193 31.1596 175.676 31.9059 175.522L44.46 172.929C45.2062 172.775 45.6868 172.042 45.5334 171.292L43.034 159.071C42.8806 158.321 42.1513 157.839 41.4051 157.993L28.851 160.586ZM99.7775 169.993C99.6241 169.244 100.105 168.511 100.851 168.357L162.225 155.679C162.972 155.525 163.701 156.008 163.854 156.758L166.354 168.978C166.507 169.728 166.026 170.461 165.28 170.615L103.906 183.293C103.16 183.447 102.43 182.964 102.277 182.214L99.7775 169.993ZM77.8817 173.101C77.1355 173.255 76.6549 173.988 76.8083 174.738L79.3077 186.958C79.4611 187.708 80.1903 188.191 80.9365 188.037L93.0967 185.525C93.8429 185.371 94.3235 184.638 94.1701 183.888L91.6707 171.668C91.5173 170.918 90.7881 170.435 90.0419 170.589L77.8817 173.101ZM54.4929 179.347C54.3395 178.598 54.8201 177.865 55.5663 177.711L67.7265 175.199C68.4727 175.045 69.2019 175.528 69.3553 176.277L71.8547 188.498C72.0081 189.248 71.5275 189.981 70.7813 190.135L58.6211 192.647C57.8749 192.801 57.1457 192.318 56.9923 191.568L54.4929 179.347ZM32.221 183.948C32.0676 183.198 32.5482 182.465 33.2944 182.311L45.8485 179.718C46.5947 179.564 47.324 180.047 47.4774 180.797L49.9768 193.017C50.1302 193.767 49.6496 194.5 48.9034 194.654L36.3493 197.247C35.603 197.401 34.8738 196.918 34.7204 196.168L32.221 183.948ZM50.2558 29.3225C48.7628 29.6281 47.799 31.0921 48.1031 32.5924L70.1254 141.258C70.4295 142.759 71.8862 143.727 73.3792 143.422L82.8406 141.485C84.3336 141.179 85.2974 139.715 84.9933 138.215L62.971 29.5494C62.6669 28.049 61.2101 27.0804 59.7172 27.386L50.2558 29.3225Z" fill="url(#paint0_linear)"/>
<defs>
<linearGradient id="paint0_linear" x1="83.674" y1="0.791199" x2="83.674" y2="197.276" gradientUnits="userSpaceOnUse">
<stop stop-color="#FFA77B"/>
<stop offset="1" stop-color="#FFC57B"/>
</linearGradient>
</defs>
</svg>
