<svg width="121" height="90" viewBox="0 0 121 90" fill="none" xmlns="http://www.w3.org/2000/svg">
<path d="M120.165 0.472117C119.84 0.154971 119.423 -0.0129408 118.996 0.000779019C117.827 0.000779019 116.321 0.905749 115.514 1.41479L115.189 1.60333C113.83 2.35798 112.349 2.78471 110.839 2.85709C109.292 2.91365 107.958 3.01734 106.222 3.22002C95.9328 4.43607 91.344 13.4669 86.9239 22.2008C84.5205 26.9519 82.0347 31.8633 78.627 35.667C77.9196 36.4488 77.1691 37.1777 76.38 37.8492C72.853 40.8611 68.4247 42.9868 64.9635 44.5045C61.6423 45.9563 58.0247 47.2619 54.5224 48.5251C51.3206 49.6798 48.2915 50.7686 45.5094 51.9564C44.2542 52.489 43.1883 52.8991 42.2458 53.2573C39.7148 54.2 37.8834 54.9211 35.2165 57.028C34.1753 57.8434 33.13 58.7248 32.418 59.3847C30.2979 61.3209 28.4226 63.5844 26.8455 66.1107C25.4877 68.4436 23.9192 70.6063 22.1662 72.5633C21.6065 73.1949 20.6023 73.506 19.1084 73.506C17.351 73.506 15.2274 73.0912 12.9721 72.6529C10.7168 72.2145 8.25574 71.7102 6.19798 71.7102C4.52296 71.7102 3.24715 72.0213 2.28823 72.6529C2.28823 72.6529 0.683177 73.7275 0 75.118L0.666714 75.462C1.7012 76.1052 2.65965 76.8972 3.51877 77.8187C4.40842 78.7683 5.40331 79.5797 6.47783 80.232C6.82381 80.3827 7.13799 80.6156 7.39971 80.9154C7.11574 81.3868 6.70418 81.9948 6.27205 82.6452C3.8974 86.2038 2.51458 88.4521 3.30888 89.6776C3.68912 89.9055 4.11466 90.016 4.54354 89.9981C9.72498 89.9981 12.503 88.4569 16.0258 86.5055C17.0424 85.9399 18.0836 85.3555 19.3183 84.7616C21.376 83.7388 23.5902 82.1079 25.936 80.3828C29.0432 78.0968 32.2575 75.7307 35.3688 74.5854C37.9325 73.69 40.603 73.2606 43.2829 73.3128C46.5754 73.3128 50.0406 73.8171 53.3824 74.3073C55.8764 74.6749 58.4527 75.052 60.9838 75.2499C61.9674 75.3159 62.8769 75.3489 63.7659 75.3489C64.9495 75.3526 66.1325 75.2818 67.3094 75.1368L67.5892 75.0237C69.3671 73.7747 70.1984 71.0928 71.001 68.5004C71.5195 66.8318 71.9558 65.333 72.6472 64.3809C72.6885 64.3332 72.734 64.2906 72.783 64.2536C72.8154 64.233 72.853 64.2255 72.8896 64.2323C72.9262 64.2392 72.9597 64.2599 72.9847 64.2913C72.9919 64.3158 72.9919 64.3423 72.9847 64.3668C72.5731 74.5052 69.0049 80.939 65.4039 86.661L62.9592 89.5975C62.9592 89.5975 66.3257 89.5975 68.2436 88.7491C75.24 86.3547 80.5243 81.0757 84.3682 72.6576C85.3156 70.497 86.1619 68.2802 86.9034 66.0164C86.9692 65.8279 87.5783 65.4791 87.5166 66.4548C87.5166 66.7423 87.4836 67.0628 87.4631 67.3974C87.4631 67.5954 87.4384 67.7981 87.4301 68.0008C87.3272 69.4148 87.0186 72.4031 87.0186 72.4031L89.1792 71.0786C94.3895 67.3079 98.4062 59.7005 101.452 47.8652C102.723 42.935 103.649 38.0378 104.468 33.725C105.448 28.5403 106.292 24.0956 107.259 22.3705C108.777 19.665 111.094 17.8362 113.337 16.0593C113.646 15.8189 113.951 15.5879 114.251 15.3334C117.074 13.0663 119.877 10.4504 120.49 5.572V5.46359C120.959 1.82486 120.577 0.919889 120.165 0.472117Z" fill="url(#paint0_linear)"/>
<defs>
<linearGradient id="paint0_linear" x1="60.3529" y1="0" x2="60.3529" y2="90" gradientUnits="userSpaceOnUse">
<stop stop-color="#616892"/>
<stop offset="1" stop-color="#707FA6"/>
</linearGradient>
</defs>
</svg>
