<svg width="89" height="93" viewBox="0 0 89 93" fill="none" xmlns="http://www.w3.org/2000/svg">
<path d="M5.63771 4.97927V87.4838H11.6178V89.4633H3.3429V3H11.6178V4.97927H5.63771Z" fill="url(#paint0_linear)"/>
<path fill-rule="evenodd" clip-rule="evenodd" d="M11.6178 3H3.3429V89.4633H11.6178V87.4838H5.63771V4.97927H11.6178V3ZM8.63771 7.97927H14.6178V0H0.342896V92.4633H14.6178V84.4838H8.63771V7.97927Z" fill="url(#paint1_linear)"/>
<path d="M28.6771 31.1346V35.3098H28.7968C29.9183 33.7205 31.2692 32.4865 32.8517 31.6116C34.4332 30.7382 36.2461 30.2998 38.2881 30.2998C40.2499 30.2998 42.0423 30.6784 43.6639 31.4332C45.286 32.1892 46.5177 33.5205 47.3587 35.4294C48.2791 34.0778 49.5305 32.8846 51.113 31.8508C52.6945 30.8176 54.5666 30.2998 56.7295 30.2998C58.3715 30.2998 59.8925 30.499 61.2954 30.8966C62.6961 31.2943 63.8976 31.9304 64.8989 32.8051C65.8992 33.6805 66.68 34.8236 67.2418 36.234C67.8021 37.6469 68.0829 39.3459 68.0829 41.3347V61.9709L59.5528 61.9707V44.4951C59.5528 43.4618 59.513 42.4876 59.4326 41.5724C59.3517 40.6585 59.1324 39.8637 58.772 39.1867C58.4113 38.5113 57.88 37.974 57.1802 37.5761C56.4793 37.18 55.5278 36.98 54.3267 36.98C53.1255 36.98 52.1541 37.21 51.4132 37.6657C50.6717 38.1237 50.0915 38.7205 49.6714 39.4552C49.251 40.1918 48.9705 41.0263 48.8306 41.9613C48.6897 42.8952 48.6201 43.8399 48.6201 44.7941V61.9709H40.0906V44.6748C40.0906 43.7603 40.0697 42.8554 40.0311 41.9613C39.9903 41.0661 39.8207 40.2413 39.5198 39.4853C39.2193 38.7305 38.7185 38.1237 38.0179 37.6657C37.317 37.21 36.2859 36.98 34.9244 36.98C34.5234 36.98 33.9929 37.0696 33.3329 37.249C32.672 37.428 32.0309 37.7666 31.4106 38.2628C30.7891 38.7603 30.2591 39.476 29.8185 40.4097C29.3777 41.3447 29.1577 42.5666 29.1577 44.0774V61.9707L20.6284 61.9709V31.1346H28.6771Z" fill="url(#paint2_linear)"/>
<path d="M76.1124 4.97927V6.47927H77.6124H82.0925V85.9838H77.6124H76.1124V87.4838V89.4633V90.9633H77.6124H85.8878H87.3878V89.4633V3V1.5H85.8878H77.6124H76.1124V3V4.97927Z" fill="url(#paint3_linear)" stroke="url(#paint4_linear)" stroke-width="3"/>
<defs>
<linearGradient id="paint0_linear" x1="7.48033" y1="3" x2="7.48033" y2="89.4633" gradientUnits="userSpaceOnUse">
<stop stop-color="#616892"/>
<stop offset="1" stop-color="#707FA6"/>
</linearGradient>
<linearGradient id="paint1_linear" x1="7.48033" y1="0" x2="7.48033" y2="92.4633" gradientUnits="userSpaceOnUse">
<stop stop-color="#616892"/>
<stop offset="1" stop-color="#707FA6"/>
</linearGradient>
<linearGradient id="paint2_linear" x1="44.3556" y1="30.2998" x2="44.3556" y2="61.9709" gradientUnits="userSpaceOnUse">
<stop stop-color="#616892"/>
<stop offset="1" stop-color="#707FA6"/>
</linearGradient>
<linearGradient id="paint3_linear" x1="81.7501" y1="3" x2="81.7501" y2="89.4633" gradientUnits="userSpaceOnUse">
<stop stop-color="#616892"/>
<stop offset="1" stop-color="#707FA6"/>
</linearGradient>
<linearGradient id="paint4_linear" x1="81.7501" y1="3" x2="81.7501" y2="89.4633" gradientUnits="userSpaceOnUse">
<stop stop-color="#616892"/>
<stop offset="1" stop-color="#707FA6"/>
</linearGradient>
</defs>
</svg>
