<svg width="192" height="192" viewBox="0 0 192 192" fill="none" xmlns="http://www.w3.org/2000/svg">
<rect width="192" height="192" rx="10" fill="url(#paint0_linear)"/>
<path d="M26.4827 68.4138L41.685 100.497C41.8373 100.818 41.8074 101.196 41.6065 101.49L26.4827 123.586" stroke="white" stroke-width="10" stroke-linecap="round"/>
<path d="M103.349 68.8V119.6C103.349 122.533 101.883 124 98.9494 124H92.2294C90.896 124 89.8827 123.707 89.1894 123.12C88.5494 122.48 87.9094 121.547 87.2694 120.32L71.9894 91.28C71.3494 90.1067 70.7094 88.7733 70.0694 87.28C69.4827 85.7867 68.976 84.3467 68.5494 82.96H67.6694C68.0427 85.9467 68.2294 88.8267 68.2294 91.6V124H56.7094V73.2C56.7094 70.2667 58.176 68.8 61.1094 68.8H67.7494C69.0294 68.8 69.9894 69.12 70.6294 69.76C71.3227 70.3467 71.9894 71.2267 72.6294 72.4L87.4294 100.56C88.0694 101.787 88.736 103.173 89.4294 104.72C90.1227 106.213 90.7894 107.733 91.4294 109.28H92.3894C92.2294 107.733 92.096 106.213 91.9894 104.72C91.936 103.173 91.9094 101.627 91.9094 100.08V68.8H103.349ZM170.846 68.8C173.726 68.8 175.219 70.2933 175.326 73.28L177.406 124H166.126L164.286 78.16H162.846L153.966 112.64C153.432 115.2 151.832 116.48 149.166 116.48H141.486C138.766 116.48 137.139 115.2 136.606 112.64L127.646 78.16H126.286L124.606 124H113.326L115.326 73.28C115.432 70.2933 116.952 68.8 119.886 68.8H131.326C133.939 68.8 135.539 70.08 136.126 72.64L143.246 100.48C143.566 101.76 143.832 103.067 144.046 104.4C144.259 105.68 144.499 106.987 144.766 108.32H145.806C146.072 106.987 146.312 105.68 146.526 104.4C146.739 103.067 147.006 101.733 147.326 100.4L154.366 72.64C154.899 70.08 156.526 68.8 159.246 68.8H170.846Z" fill="white"/>
<defs>
<linearGradient id="paint0_linear" x1="96" y1="0" x2="96" y2="192" gradientUnits="userSpaceOnUse">
<stop stop-color="#616892"/>
<stop offset="1" stop-color="#707FA6"/>
</linearGradient>
</defs>
</svg>
