<svg width="192" height="192" viewBox="0 0 192 192" fill="none" xmlns="http://www.w3.org/2000/svg">
<rect width="192" height="192" rx="10" fill="url(#paint0_linear)"/>
<path d="M26.4827 68.4138L41.685 100.497C41.8373 100.818 41.8074 101.196 41.6065 101.49L26.4827 123.586" stroke="white" stroke-width="10" stroke-linecap="round"/>
<path d="M109.274 67.3173V118.117C109.274 121.051 107.808 122.517 104.874 122.517H98.1543C96.8209 122.517 95.8076 122.224 95.1143 121.637C94.4743 120.997 93.8343 120.064 93.1943 118.837L77.9143 89.7973C77.2743 88.624 76.6343 87.2907 75.9943 85.7973C75.4076 84.304 74.9009 82.864 74.4743 81.4773H73.5943C73.9676 84.464 74.1543 87.344 74.1543 90.1173V122.517H62.6343V71.7173C62.6343 68.784 64.1009 67.3173 67.0343 67.3173H73.6743C74.9543 67.3173 75.9143 67.6373 76.5543 68.2773C77.2476 68.864 77.9143 69.744 78.5543 70.9173L93.3543 99.0773C93.9943 100.304 94.6609 101.691 95.3543 103.237C96.0476 104.731 96.7143 106.251 97.3543 107.797H98.3143C98.1543 106.251 98.0209 104.731 97.9143 103.237C97.8609 101.691 97.8343 100.144 97.8343 98.5973V67.3173H109.274ZM141.171 66.6773C145.971 66.6773 149.784 67.104 152.611 67.9573C155.491 68.7573 157.571 70.1973 158.851 72.2773C160.131 74.3573 160.771 77.2907 160.771 81.0773C160.771 85.024 159.997 88.0373 158.451 90.1173C156.957 92.144 154.477 93.3173 151.011 93.6373V94.0373C155.277 94.4107 158.264 95.8507 159.971 98.3573C161.677 100.864 162.531 104.331 162.531 108.757C162.531 112.544 161.864 115.477 160.531 117.557C159.251 119.637 157.224 121.104 154.451 121.957C151.677 122.757 148.104 123.157 143.731 123.157C140.157 123.157 137.037 123.131 134.371 123.077C131.757 123.077 129.331 123.024 127.091 122.917C124.904 122.811 122.637 122.677 120.291 122.517V67.3173C122.371 67.104 124.397 66.9707 126.371 66.9173C128.397 66.8107 130.584 66.7573 132.931 66.7573C135.277 66.704 138.024 66.6773 141.171 66.6773ZM140.531 75.5573C138.931 75.5573 137.437 75.5573 136.051 75.5573C134.664 75.5573 133.384 75.5573 132.211 75.5573V90.0373H141.171C144.157 90.0373 146.211 89.5573 147.331 88.5973C148.504 87.6373 149.091 85.664 149.091 82.6773C149.091 79.744 148.477 77.824 147.251 76.9173C146.024 76.0107 143.784 75.5573 140.531 75.5573ZM141.331 97.7973H132.211V114.277C134.984 114.277 138.104 114.277 141.571 114.277C143.811 114.277 145.571 114.064 146.851 113.637C148.131 113.211 149.011 112.437 149.491 111.317C150.024 110.197 150.291 108.544 150.291 106.357C150.291 104.117 150.024 102.384 149.491 101.157C148.957 99.9307 148.024 99.0773 146.691 98.5973C145.411 98.064 143.624 97.7973 141.331 97.7973Z" fill="white"/>
<defs>
<linearGradient id="paint0_linear" x1="96" y1="0" x2="96" y2="192" gradientUnits="userSpaceOnUse">
<stop stop-color="#FFB996"/>
<stop offset="1" stop-color="#FFD39C"/>
</linearGradient>
</defs>
</svg>
