<svg width="190" height="190" viewBox="0 0 190 190" fill="none" xmlns="http://www.w3.org/2000/svg">
<path d="M0.738281 28.1988C0.738281 12.9546 13.0961 0.596802 28.3402 0.596802H162.132C177.376 0.596802 189.734 12.9546 189.734 28.1988V161.991C189.734 177.235 177.376 189.593 162.132 189.593H28.3403C13.0961 189.593 0.738281 177.235 0.738281 161.991V28.1988Z" fill="url(#paint0_linear)"/>
<path fill-rule="evenodd" clip-rule="evenodd" d="M51.4133 59.8616C51.4133 55.9957 54.5473 52.8617 58.4132 52.8617L139.611 52.8617C143.477 52.8617 146.611 55.9957 146.611 59.8616C146.611 63.7275 143.477 66.8614 139.611 66.8614L58.4132 66.8614C54.5473 66.8614 51.4133 63.7275 51.4133 59.8616Z" fill="white"/>
<path fill-rule="evenodd" clip-rule="evenodd" d="M51.4084 131.261C51.4084 127.395 54.5424 124.261 58.4083 124.261L139.606 124.261C143.472 124.261 146.606 127.395 146.606 131.261C146.606 135.126 143.472 138.26 139.606 138.26L58.4083 138.26C54.5424 138.26 51.4084 135.126 51.4084 131.261Z" fill="white"/>
<path fill-rule="evenodd" clip-rule="evenodd" d="M78.0076 83.195C78.0076 79.3291 81.1415 76.1952 85.0074 76.1952L139.606 76.1952C143.472 76.1952 146.606 79.3291 146.606 83.195C146.606 87.0609 143.472 90.1949 139.606 90.1949L85.0074 90.1949C81.1415 90.1949 78.0076 87.0609 78.0076 83.195Z" fill="white"/>
<path fill-rule="evenodd" clip-rule="evenodd" d="M78.0076 106.528C78.0076 102.662 81.1415 99.5282 85.0074 99.5282L139.606 99.5282C143.472 99.5282 146.606 102.662 146.606 106.528C146.606 110.394 143.472 113.528 139.606 113.528L85.0074 113.528C81.1415 113.528 78.0076 110.394 78.0076 106.528Z" fill="white"/>
<defs>
<linearGradient id="paint0_linear" x1="95.2362" y1="0.596802" x2="95.2362" y2="189.593" gradientUnits="userSpaceOnUse">
<stop stop-color="#92C3EB"/>
<stop offset="1" stop-color="#B6E2D2"/>
</linearGradient>
</defs>
</svg>
