<svg width="193" height="193" viewBox="0 0 193 193" fill="none" xmlns="http://www.w3.org/2000/svg">
<path d="M41.6013 184.915C40.4661 180.437 38.1958 171.48 37.912 171.48C-10.0498 147.675 -4.37385 106.427 11.5188 82.8566C14.9244 112.555 78.2112 133.061 41.3175 169.359C41.0337 169.831 43.0203 175.487 44.7231 180.673C52.1018 170.302 63.1699 157.81 62.6023 156.631C17.1947 64.7076 159.093 57.6366 188.608 0.596802C201.947 55.751 181.797 141.075 67.7107 162.759C67.1431 162.995 46.9935 192.458 46.1421 192.694C46.1421 192.222 37.6282 192.458 38.7633 190.101C39.3309 188.687 40.4661 186.801 41.6013 184.915ZM69.6973 144.139C51.818 109.02 104.321 70.3645 130.43 60.7007C77.076 100.299 67.9945 129.761 69.6973 144.139ZM40.1823 162.759C54.656 148.853 37.6282 125.047 27.4115 117.269C44.7231 142.018 43.5879 156.396 40.1823 162.759Z" fill="url(#paint0_linear)"/>
<defs>
<linearGradient id="paint0_linear" x1="96.1629" y1="0.596802" x2="95.6208" y2="286.395" gradientUnits="userSpaceOnUse">
<stop stop-color="#A4DCA1"/>
<stop offset="1" stop-color="#D1EDAC"/>
</linearGradient>
</defs>
</svg>
