<svg width="194" height="194" viewBox="0 0 194 194" fill="none" xmlns="http://www.w3.org/2000/svg">
<path fill-rule="evenodd" clip-rule="evenodd" d="M96.9135 193.074C150.012 193.074 193.057 150.029 193.057 96.9306C193.057 43.8323 150.012 0.787598 96.9135 0.787598C43.8152 0.787598 0.770508 43.8323 0.770508 96.9306C0.770508 150.029 43.8152 193.074 96.9135 193.074ZM112.376 27.8057L94.055 15.1703L17.4728 130.598L34.5152 143.854L168.143 150.426L171.267 126.68L131.1 67.594L112.376 27.8057ZM109.86 35.0017L111.919 39.3783L109.405 35.6801L109.86 35.0017ZM126.447 70.2489L106.2 40.4655L48.3371 126.846L152.195 124.964L126.447 70.2489ZM106.582 30.2977L106.167 30.9168L105.009 29.2129L106.582 30.2977ZM102.962 35.7021L94.8041 23.7025L26.1052 127.249L41.8293 126.964L102.962 35.7021ZM34.8656 137.36L28.6746 132.544L38.2068 132.372L34.8656 137.36ZM40.3349 138.792L44.7147 132.254L154.688 130.261L161.507 144.751L40.3349 138.792ZM164.356 138.262L160.541 130.155L165.434 130.067L164.356 138.262ZM145.628 98.4647L163.503 124.76L158.048 124.858L145.628 98.4647Z" fill="url(#paint0_linear)"/>
<defs>
<linearGradient id="paint0_linear" x1="193.057" y1="0.787587" x2="-40.0739" y2="129.178" gradientUnits="userSpaceOnUse">
<stop stop-color="#D08CF0"/>
<stop offset="1" stop-color="#A5D7F7"/>
<stop offset="1" stop-color="#9BCFF8"/>
</linearGradient>
</defs>
</svg>
