<svg width="185" height="193" viewBox="0 0 185 193" fill="none" xmlns="http://www.w3.org/2000/svg">
<path d="M133.522 0.599096C130.19 1.14791 126.857 1.67712 123.545 2.22594C123.702 2.30434 123.859 2.38274 124.015 2.46115C127.739 5.30322 132.385 6.94967 136.089 9.65454C146.732 17.4555 158.042 31.4307 161.158 46.3467C162.53 52.8933 160.1 62.968 159.061 68.6325C157.375 77.884 162.354 85.685 160.688 95.5636C159.982 99.7385 155.964 109.617 157.199 110.656C157.199 110.499 157.199 110.342 157.199 110.186C160.12 107.285 161.55 102.698 163.706 99.0329C172.311 84.3325 178.466 67.1037 182.739 48.1892C184.346 41.035 185.816 28.8042 182.974 21.9441C181.523 18.4748 177.897 15.3387 175.075 13.1238C164.353 4.6564 153.455 0.481493 133.522 0.599096Z" fill="url(#paint0_linear)"/>
<path d="M95.6708 2.69604C93.8871 2.85285 92.1035 3.00965 90.3394 3.16646C87.0073 4.08768 83.6752 5.02851 80.3627 5.94973C65.3291 12.4375 56.4305 30.8032 55.5093 51.227C58.9394 49.5217 62.6439 47.6793 66.662 46.5816C86.9681 41.0543 89.7514 54.0298 92.4367 69.5731C93.4559 75.4728 93.6323 83.803 92.2015 89.546C90.9862 94.4069 89.1046 98.6994 87.3209 102.776C85.7725 107.186 84.224 111.597 82.6756 116.007C82.754 116.007 82.8324 116.007 82.9108 116.007C84.8317 115.497 86.8309 116.144 88.2422 116.712C96.6116 119.966 95.6708 128.139 95.6708 139.469C95.6708 159.892 93.1815 187.647 109.136 192.174C113.919 193.527 119.564 191.939 123.307 190.783C143.555 184.53 139.556 160.363 143.516 138.547C144.535 132.883 143.32 125.121 145.828 120.907C147.573 117.967 150.239 117.496 153.022 115.575C144.554 102.384 135.146 88.272 130.266 71.6899C124.386 51.717 134.774 43.72 154.414 44.994C145.476 21.7674 127.482 2.87245 95.6708 2.69604Z" fill="url(#paint1_linear)"/>
<path d="M35.9902 3.14722C32.5797 3.53923 29.1692 3.91164 25.7783 4.30365C16.1544 6.71451 8.31422 12.2419 4.64892 20.5721C-6.75859 46.4448 9.43145 94.6033 18.1145 114.851C21.0742 121.73 26.7387 135.157 34.1281 136.901C37.9502 137.803 40.2435 134.98 41.7919 133.412C47.5153 126.905 53.2386 120.417 58.9816 113.91C53.5914 107.579 46.3196 99.915 48.5345 86.273C48.9265 82.3333 49.2989 78.374 49.6909 74.4343C49.5341 67.2409 49.3773 60.0279 49.2205 52.8345C52.6702 30.4703 55.1791 22.8849 66.175 8.47856C66.175 8.40016 66.175 8.32175 66.175 8.24335C56.7079 6.63611 47.9073 3.28442 35.9902 3.14722Z" fill="url(#paint2_linear)"/>
<path d="M164.392 124.121C161.079 123.494 158.786 121.534 155.807 121.103C151.847 123.22 150.044 123.612 150.24 129.923C160.119 134.764 179.014 128.081 183.443 122.73C177.72 123.337 171.036 125.376 164.392 124.121Z" fill="url(#paint3_linear)"/>
<path d="M83.8359 121.809C80.6606 125.219 77.4853 128.63 74.31 132.02C70.2135 134.686 63.4709 135.568 58.2964 136.901C58.3748 137.058 58.4532 137.215 58.5316 137.371C69.4099 141.174 78.4849 140.311 86.1683 133.883C89.9708 130.688 91.7937 122.083 83.8359 121.809Z" fill="url(#paint4_linear)"/>
<path d="M153.026 69.5731C153.731 63.3793 154.417 57.1856 155.123 50.9918C147.44 50.6978 139.501 50.345 136.307 55.1667C134.033 58.6164 134.836 66.0058 136.071 70.0239C139.149 80.0202 144.01 88.6836 148.851 96.955C149.929 99.2091 151.026 101.444 152.105 103.698C152.261 103.619 152.418 103.541 152.575 103.462C153.516 98.5035 155.691 93.1329 154.672 86.5079C154.104 80.863 153.575 75.2181 153.026 69.5731ZM143.833 61.7721C141.128 61.0273 140.07 60.4785 138.502 58.7536C138.639 57.4208 138.874 57.4404 139.423 56.6564C140.677 56.1663 141.422 55.2647 144.754 55.0295C147.067 55.4215 147.832 55.7939 148.929 57.3424C147.518 59.9884 146.42 60.1061 143.833 61.7721Z" fill="url(#paint5_linear)"/>
<path d="M81.0539 53.3051C78.9959 51.8155 75.8206 51.6391 72.2337 51.6783C69.2936 52.4427 66.3535 53.2267 63.4135 53.9912C60.7086 55.4612 58.0037 56.9312 55.2793 58.4013C55.4361 64.203 55.5929 70.0048 55.7497 75.8066C54.9265 81.3927 53.5348 88.1941 54.5932 93.9174C56.5925 105.011 64.0015 114.478 76.8594 114.616C78.0159 110.97 79.1723 107.344 80.3483 103.698C82.3084 98.9352 84.7584 94.3486 86.1501 88.8409C88.5805 79.2562 86.6793 57.4017 81.0539 53.3051ZM80.9167 61.0866C78.7607 66.1631 70.2541 64.0462 69.9992 58.5385C70.0777 58.3817 70.1561 58.2249 70.2345 58.0681C70.9401 57.6761 71.6261 57.3037 72.3317 56.9116C76.7026 56.7744 78.8391 57.5193 81.1519 59.2245C81.0539 59.8517 80.9951 60.4593 80.9167 61.0866Z" fill="url(#paint6_linear)"/>
<defs>
<linearGradient id="paint0_linear" x1="166.771" y1="0.864709" x2="136.646" y2="16.3214" gradientUnits="userSpaceOnUse">
<stop stop-color="#BDECF4"/>
<stop offset="1" stop-color="#98CCF9"/>
</linearGradient>
<linearGradient id="paint1_linear" x1="125.552" y1="3.15875" x2="75.4974" y2="27.2651" gradientUnits="userSpaceOnUse">
<stop stop-color="#BDECF4"/>
<stop offset="1" stop-color="#98CCF9"/>
</linearGradient>
<linearGradient id="paint2_linear" x1="47.0737" y1="3.47337" x2="13.1906" y2="18.7945" gradientUnits="userSpaceOnUse">
<stop stop-color="#BDECF4"/>
<stop offset="1" stop-color="#98CCF9"/>
</linearGradient>
<linearGradient id="paint3_linear" x1="173.75" y1="121.128" x2="171.588" y2="127.461" gradientUnits="userSpaceOnUse">
<stop stop-color="#BDECF4"/>
<stop offset="1" stop-color="#98CCF9"/>
</linearGradient>
<linearGradient id="paint4_linear" x1="80.3337" y1="121.852" x2="74.9552" y2="130.537" gradientUnits="userSpaceOnUse">
<stop stop-color="#BDECF4"/>
<stop offset="1" stop-color="#98CCF9"/>
</linearGradient>
<linearGradient id="paint5_linear" x1="149.211" y1="50.9708" x2="137.992" y2="54.9492" gradientUnits="userSpaceOnUse">
<stop stop-color="#BDECF4"/>
<stop offset="1" stop-color="#98CCF9"/>
</linearGradient>
<linearGradient id="paint6_linear" x1="77.564" y1="51.8269" x2="60.916" y2="59.8961" gradientUnits="userSpaceOnUse">
<stop stop-color="#BDECF4"/>
<stop offset="1" stop-color="#98CCF9"/>
</linearGradient>
</defs>
</svg>
