<svg width="225" height="193" viewBox="0 0 225 193" fill="none" xmlns="http://www.w3.org/2000/svg">
<path d="M215.456 148.72C203.495 154.955 141.536 180.43 128.345 187.306C115.154 194.185 107.826 194.118 97.4057 189.136C86.9855 184.155 21.0495 157.521 9.17213 151.844C3.23544 149.006 0.114258 146.612 0.114258 144.35V121.695C0.114258 121.695 85.9539 103.008 99.8128 98.037C113.67 93.0647 118.478 92.8855 130.271 97.2056C142.065 101.526 212.581 114.249 224.237 118.518C224.237 118.518 224.232 138.751 224.232 140.851C224.233 143.09 221.544 145.548 215.456 148.72V148.72Z" fill="#DA87A2"/>
<path d="M215.455 126.059C203.495 132.291 141.535 157.769 128.344 164.645C115.153 171.524 107.825 171.456 97.4051 166.475C86.9836 161.496 21.0489 134.857 9.17154 129.183C-2.70581 123.506 -2.95483 119.598 8.71303 115.03C20.3796 110.46 85.9533 84.7327 99.8135 79.7604C113.671 74.7908 118.479 74.609 130.272 78.9304C142.066 83.2505 203.656 107.765 215.31 112.034C226.968 116.307 227.416 119.825 215.455 126.059V126.059Z" fill="url(#paint0_linear)"/>
<path d="M215.456 111.778C203.495 118.012 141.536 143.487 128.345 150.366C115.154 157.242 107.826 157.175 97.4057 152.193C86.9842 147.215 21.0495 120.579 9.17213 114.901C3.23544 112.063 0.114258 109.672 0.114258 107.41V84.7528C0.114258 84.7528 85.9539 66.0666 99.8128 61.0943C113.67 56.1234 118.478 55.9428 130.271 60.263C142.065 64.5831 212.581 77.3036 224.237 81.5737C224.237 81.5737 224.232 101.807 224.232 103.909C224.233 106.148 221.544 108.605 215.456 111.778V111.778Z" fill="#DA87A2"/>
<path d="M215.455 89.1161C203.495 95.3505 141.535 120.826 128.344 127.705C115.153 134.581 107.825 134.513 97.4051 129.532C86.9836 124.553 21.0489 97.9157 9.17154 92.2399C-2.70581 86.564 -2.95483 82.6563 8.71303 78.0859C20.3796 73.5181 85.9533 47.7898 99.8135 42.8188C113.671 37.8478 118.479 37.6673 130.272 41.9874C142.066 46.3076 203.656 70.8211 215.31 75.0912C226.968 79.3625 227.416 82.8816 215.455 89.1161V89.1161Z" fill="url(#paint1_linear)"/>
<path d="M215.456 73.4643C203.495 79.6987 141.536 105.175 128.345 112.054C115.154 118.93 107.826 118.863 97.4057 113.881C86.9842 108.903 21.0495 82.2652 9.17213 76.5894C3.23544 73.7515 0.114258 71.3589 0.114258 69.098V46.4409C0.114258 46.4409 85.9539 27.7546 99.8128 22.7837C113.67 17.8114 118.478 17.6322 130.271 21.9523C142.065 26.2724 212.581 38.993 224.237 43.263C224.237 43.263 224.232 63.496 224.232 65.5974C224.233 67.8346 221.544 70.2917 215.456 73.4643V73.4643Z" fill="#DA87A2"/>
<path d="M215.458 50.8032C203.498 57.0376 141.538 82.5143 128.347 89.3917C115.156 96.2678 107.828 96.2006 97.4081 91.2204C86.9879 86.2402 21.0518 59.6042 9.17447 53.9283C-2.70288 48.2525 -2.9519 44.3434 8.71596 39.7743C20.3825 35.2052 85.9563 9.47951 99.8164 4.50723C113.674 -0.465048 118.482 -0.644216 130.275 3.67721C142.069 7.99732 203.659 32.5109 215.313 36.7809C226.971 41.0497 227.418 44.5701 215.458 50.8032Z" fill="url(#paint2_linear)"/>
<path d="M141.546 28.9849L122.126 31.0006L117.778 41.4616L110.756 29.7885L88.332 27.7728L105.064 21.7386L100.045 12.4766L115.71 18.6029L130.479 13.7677L126.487 23.3459L141.546 28.9849Z" fill="white"/>
<path d="M116.613 79.7356L80.3687 64.7029L132.305 56.7321L116.613 79.7356Z" fill="white"/>
<path d="M66.3673 56.3194C81.6979 56.3194 94.1257 51.502 94.1257 45.5594C94.1257 39.6168 81.6979 34.7993 66.3673 34.7993C51.0368 34.7993 38.6089 39.6168 38.6089 45.5594C38.6089 51.502 51.0368 56.3194 66.3673 56.3194Z" fill="white"/>
<path d="M164.491 31.8443L195.229 43.9917L164.518 56.1259L164.491 31.8443Z" fill="#DA87A2"/>
<path d="M130.489 45.296L164.493 31.8443L164.52 56.1259L161.187 57.4302L130.489 45.296Z" fill="#E29EB5"/>
<defs>
<linearGradient id="paint0_linear" x1="112.176" y1="75.8509" x2="112.176" y2="170.032" gradientUnits="userSpaceOnUse">
<stop stop-color="#F7BAC5"/>
<stop offset="1" stop-color="#EC98BC"/>
</linearGradient>
<linearGradient id="paint1_linear" x1="112.176" y1="38.9086" x2="112.176" y2="133.089" gradientUnits="userSpaceOnUse">
<stop stop-color="#F7BAC5"/>
<stop offset="1" stop-color="#EC98BC"/>
</linearGradient>
<linearGradient id="paint2_linear" x1="112.179" y1="0.596802" x2="112.179" y2="94.7768" gradientUnits="userSpaceOnUse">
<stop stop-color="#F7BAC5"/>
<stop offset="1" stop-color="#EC98BC"/>
</linearGradient>
</defs>
</svg>
