<svg width="189" height="193" viewBox="0 0 189 193" fill="none" xmlns="http://www.w3.org/2000/svg">
<path d="M1.38456 78.6294L38.1876 5.02327C39.5435 2.31164 42.315 0.598755 45.3467 0.598755H140.676C143.655 0.598755 146.388 2.25377 147.769 4.89416L187.745 81.3519C188.344 82.4965 188.656 83.7689 188.656 85.0605V184.691C188.656 189.112 185.073 192.696 180.652 192.696H19.7627C15.6793 192.696 12.2506 189.622 11.8062 185.563L0.587091 83.0799C0.41967 81.5506 0.696544 80.0055 1.38456 78.6294Z" fill="url(#paint0_linear)"/>
<path fill-rule="evenodd" clip-rule="evenodd" d="M51.3924 25.5549C51.2123 25.6011 50.9469 25.9085 50.8022 26.238C50.2497 27.4985 49.7835 28.7449 49.6609 29.2889C49.5911 29.6 49.3361 30.4061 49.0947 31.0802C48.3603 33.1313 47.4774 35.9522 47.4774 36.2477C47.4774 36.4014 47.3109 36.8087 47.1078 37.1533C46.9046 37.4979 46.642 38.2451 46.5242 38.8141C46.4068 39.383 46.1169 40.2726 45.8807 40.7911C45.6441 41.3097 45.3904 42.0705 45.3164 42.4816C45.2429 42.8931 45.0619 43.4621 44.9148 43.7468C44.7673 44.0316 44.5136 44.84 44.3505 45.5433C44.1874 46.2462 43.9805 46.9104 43.8904 47.0188C43.8009 47.1268 43.5435 47.8914 43.3191 48.7173C43.0947 49.5432 42.7996 50.3465 42.6629 50.502C42.5262 50.6576 42.3108 51.2091 42.1844 51.7277C42.0576 52.2462 41.845 52.8888 41.7111 53.1551C41.5777 53.4219 41.2859 54.3553 41.063 55.2293C40.8395 56.1037 40.5906 56.9037 40.5091 57.0074C40.428 57.1111 40.254 57.6626 40.123 58.233C39.9915 58.8034 39.7652 59.5049 39.62 59.792C39.4748 60.0791 39.0143 61.3943 38.5966 62.7147C38.1794 64.0351 37.6675 65.5822 37.4596 66.1526C37.2517 66.723 36.9712 67.614 36.8359 68.1325C36.7006 68.6511 36.4112 69.4572 36.1924 69.9238C35.9737 70.3905 35.7936 70.9421 35.7917 71.1495C35.7889 71.5195 34.9611 74.1504 34.2366 76.0936C34.0348 76.6352 33.7562 77.5262 33.6176 78.0735C33.4795 78.6212 33.1472 79.6456 32.8794 80.3503C31.9135 82.8921 31.9852 82.9369 37.2008 83.0501C39.2749 83.0949 42.8812 83.1717 45.2146 83.2207C47.5481 83.2698 50.5066 83.3499 51.7888 83.3984C53.8601 83.4772 57.9085 83.5422 75.4787 83.7798C78.0714 83.8147 82.3565 83.8566 85.001 83.8731C87.6456 83.8896 93.5429 84.0197 98.106 84.1621C107.715 84.4614 113.949 84.5953 124.599 84.7316C128.799 84.7848 135.757 84.8739 140.061 84.9291C144.365 84.9842 149.185 85.0545 150.772 85.0851C153.353 85.1356 153.705 85.1044 154.104 84.79L154.55 84.4388L154.112 83.357C153.027 80.677 152.802 80.1491 152.404 79.3519C152.171 78.8852 151.919 78.2064 151.843 77.8434C151.767 77.4804 151.545 76.9572 151.35 76.6809C151.154 76.4042 150.94 75.8951 150.875 75.5496C150.809 75.2036 150.626 74.6662 150.469 74.355C150.311 74.0439 150.033 73.3227 149.851 72.7523C149.484 71.6072 148.755 69.79 148.057 68.2857C147.807 67.7474 147.603 67.1958 147.602 67.0601C147.601 66.9238 147.465 66.558 147.299 66.2469C147.133 65.9358 146.829 65.1721 146.623 64.5498C146.417 63.9276 146.137 63.2912 146 63.1356C145.863 62.9801 145.611 62.3663 145.44 61.7719C145.268 61.1774 145.049 60.6429 144.954 60.5839C144.858 60.525 144.642 59.9928 144.473 59.4021C144.305 58.811 144.007 58.0629 143.811 57.7395C143.615 57.4161 143.455 57.0296 143.455 56.8806C143.455 56.7316 143.251 56.1905 143.003 55.6776C142.754 55.1642 142.448 54.4053 142.322 53.9904C142.196 53.5756 141.933 52.9557 141.737 52.6125C141.541 52.2698 141.285 51.591 141.167 51.104C141.049 50.6175 140.807 49.9222 140.628 49.5592C140.175 48.64 139.501 46.9849 139.171 45.9766C139.018 45.5099 138.7 44.7462 138.464 44.2795C138.228 43.8128 137.975 43.1778 137.902 42.8681C137.829 42.5589 137.563 41.856 137.312 41.3068C137.061 40.7577 136.855 40.2382 136.855 40.1514C136.855 40.0652 136.601 39.4335 136.29 38.7471C135.979 38.0612 135.724 37.4008 135.724 37.2806C135.724 37.1599 135.561 36.7125 135.362 36.2864C135.163 35.8603 134.692 34.7053 134.316 33.7201C133.941 32.7348 133.435 31.4621 133.194 30.8917C132.478 29.2059 131.93 27.8233 131.708 27.1468C131.593 26.7985 131.271 26.2681 130.991 25.9683L130.481 25.4229L91.1005 25.447C69.4414 25.4602 51.5724 25.5087 51.3924 25.5549ZM35.7328 85.1379C35.3015 85.2082 35.1049 85.442 34.6288 86.4498L34.0494 87.6759L34.4624 88.1158C35.0554 88.7465 35.0328 88.7446 46.6288 89.059C52.4365 89.217 57.6125 89.3886 58.1311 89.4414C60.8958 89.7214 68.0824 90.007 76.6101 90.1753C80.1361 90.2446 83.997 90.3856 85.1896 90.4883C86.3822 90.5906 90.1582 90.7552 93.5806 90.8532C108.702 91.2878 119.586 91.6716 125.542 91.9808C127.46 92.0807 130.727 92.208 132.801 92.2646C134.875 92.3207 138.185 92.4154 140.155 92.4748C142.126 92.5347 144.035 92.5748 144.398 92.5644C144.761 92.554 146.931 92.67 149.219 92.8223C151.508 92.9745 153.551 93.0551 153.758 93.0009C154.253 92.8713 154.142 91.8724 153.569 91.2996C153.347 91.0781 152.53 90.0839 151.752 89.0906C150.641 87.6722 150.216 87.2649 149.772 87.1918C149.132 87.0867 140.38 86.9302 127.427 86.7916C122.605 86.7397 118.065 86.6181 117.339 86.521C116.613 86.4239 112.201 86.2985 107.534 86.2424C102.867 86.1863 96.97 86.0986 94.4291 86.0477C91.8882 85.9968 85.7364 85.9077 80.7584 85.8493C69.9119 85.7215 63.6432 85.6183 59.0739 85.4919C48.0421 85.186 36.5083 85.0111 35.7328 85.1379ZM36.0227 91.2968C35.8063 91.771 35.8441 91.8271 36.876 92.587C37.807 93.2729 38.8328 94.2091 41.5377 96.8419C41.8488 97.145 42.6549 97.9681 43.329 98.6714C45.1948 100.618 41.2124 100.363 77.3643 100.845C96.3378 101.097 102.304 101.227 103.574 101.415C104.275 101.518 105.029 101.511 105.554 101.396C106.549 101.177 106.254 101.177 108.854 101.396C111.054 101.58 130.754 101.879 140.966 101.883L147.057 101.885L147.745 101.036C148.124 100.57 149.349 99.2503 150.47 98.1039C153.549 94.9521 153.489 94.8705 147.972 94.7239C145.747 94.665 141.932 94.5306 139.495 94.4255C137.058 94.3208 132.518 94.1511 129.407 94.0489C122.578 93.8249 124.025 93.8768 118.753 93.6684C116.316 93.5723 112.71 93.4525 110.74 93.4021C104.442 93.2423 96.6866 92.9472 93.6748 92.7525C92.0674 92.6483 87.0186 92.472 82.4555 92.3598C77.8923 92.2481 73.0364 92.0831 71.6646 91.9935C70.2928 91.9035 69.0011 91.8743 68.7947 91.9285C68.5877 91.9822 67.5888 91.9341 66.5748 91.821C65.5604 91.7079 61.8881 91.5664 58.4139 91.507C54.9397 91.4472 50.1031 91.3152 47.6659 91.2134C45.2288 91.112 41.6626 90.9772 39.7416 90.915L36.2485 90.8009L36.0227 91.2968ZM48.8444 102.301C47.0818 102.363 46.5897 102.512 47.1002 102.828C47.2039 102.892 47.2888 103.074 47.2888 103.233C47.2888 103.522 48.7261 105.726 49.0787 105.978C49.3818 106.195 50.929 106.311 54.737 106.404C56.7074 106.452 59.789 106.577 61.585 106.683C66.012 106.943 68.1908 107.023 76.9872 107.253C86.4284 107.499 89.0235 107.598 96.409 107.997C98.3794 108.103 102.071 108.238 104.611 108.295C115.013 108.531 117.361 108.599 117.811 108.676C118.07 108.721 119.937 108.804 121.959 108.861C123.981 108.918 126.824 109.044 128.276 109.141C129.728 109.238 133.385 109.37 136.402 109.435L141.889 109.554L142.458 108.831C142.771 108.433 143.174 107.819 143.355 107.465C143.536 107.112 143.844 106.65 144.041 106.44C144.237 106.229 144.398 105.966 144.398 105.857C144.398 105.746 144.613 105.407 144.874 105.102C145.71 104.131 145.472 104.08 139.59 103.967C136.686 103.912 132.188 103.86 129.596 103.852C127.003 103.845 122.803 103.753 120.262 103.649C117.721 103.545 113.945 103.43 111.871 103.393C104.912 103.269 84.7224 102.958 84.3411 102.97C82.4479 103.025 52.6359 102.415 51.4371 102.297C51.0742 102.261 49.9074 102.263 48.8444 102.301ZM50.9572 108.627C50.8969 108.784 51.2571 109.661 51.7615 110.584C52.264 111.503 52.8424 112.579 53.046 112.973C53.8715 114.57 53.6409 114.514 59.5132 114.556C62.3826 114.577 69.6522 114.695 75.6673 114.819C81.6824 114.943 87.8342 115.062 89.3379 115.083C90.8417 115.104 93.4297 115.18 95.0891 115.251C96.7484 115.322 107.228 115.508 118.376 115.665L138.647 115.949L139.004 115.517C139.201 115.279 139.565 114.618 139.813 114.047C140.061 113.477 140.391 112.765 140.546 112.466C140.7 112.167 140.796 111.891 140.758 111.852C140.475 111.569 134.006 111.191 128.842 111.155C128.53 111.153 127.003 111.08 125.447 110.993C123.892 110.906 118.885 110.706 114.322 110.548C100.991 110.089 96.3222 109.92 91.4121 109.719C88.8712 109.616 84.9256 109.485 82.644 109.429C78.7139 109.332 75.0747 109.187 65.7678 108.756C57.3353 108.366 51.0784 108.312 50.9572 108.627ZM158.257 111.79C155.751 112.278 152.819 114.853 152.036 117.253C151.85 117.823 151.582 118.457 151.442 118.662C151.088 119.177 151.092 122.819 151.448 123.501C151.59 123.775 151.854 124.453 152.034 125.01C152.213 125.566 152.464 126.106 152.593 126.209C152.72 126.313 152.967 126.674 153.142 127.011C153.316 127.348 153.52 127.625 153.595 127.625C153.67 127.627 154.086 127.966 154.518 128.38C156.876 130.635 162.338 131.385 164.704 129.78C165.084 129.522 165.587 129.263 165.823 129.204C166.058 129.144 166.381 128.899 166.539 128.657C166.697 128.416 166.998 128.163 167.209 128.096C167.419 128.03 167.591 127.855 167.591 127.707C167.591 127.559 167.764 127.331 167.976 127.201C168.189 127.071 168.718 126.242 169.155 125.361L169.947 123.758L169.934 121.024L169.921 118.29L169.192 116.876C168.791 116.098 168.281 115.287 168.057 115.074C167.834 114.861 167.573 114.562 167.479 114.411C167.281 114.093 165.316 112.727 165.056 112.727C164.96 112.727 164.698 112.555 164.474 112.345C163.778 111.691 160.341 111.384 158.257 111.79ZM55.2508 116.873C54.9222 117.406 56.1125 119.955 56.8729 120.345C57.3745 120.603 58.8825 120.68 68.2191 120.933C74.765 121.11 77.658 121.205 82.2221 121.392C84.6861 121.493 86.8254 121.529 86.9753 121.471C87.1252 121.414 87.5273 121.454 87.8691 121.561C88.2103 121.668 90.6989 121.807 93.3986 121.871C96.0988 121.934 99.0262 122.018 99.904 122.057C100.782 122.096 103.537 122.177 106.026 122.238C111.614 122.375 114.387 122.501 116.585 122.721C117.518 122.814 120.658 122.936 123.562 122.994C126.466 123.051 130.301 123.152 132.085 123.219C136.231 123.373 136.334 123.338 136.858 121.582C137.068 120.876 137.365 120.059 137.518 119.766C138.518 117.848 138.721 117.884 126.107 117.743C120.04 117.675 112.361 117.539 109.043 117.44C105.724 117.341 100.675 117.217 97.8232 117.165C84.5471 116.92 81.7337 116.875 73.9702 116.779C69.407 116.724 63.3825 116.634 60.5824 116.58C55.5855 116.484 55.487 116.49 55.2508 116.873ZM57.6069 123.038C57.5536 123.317 57.6267 123.805 57.7686 124.122C57.9109 124.441 58.1202 125.071 58.2338 125.524C58.5534 126.8 59.1177 127.244 60.4324 127.257C62.6061 127.279 71.5741 127.431 83.4925 127.648C90.1818 127.77 96.97 127.885 98.5774 127.904C100.185 127.922 103.664 127.996 106.308 128.066C108.953 128.136 114.044 128.234 117.622 128.283C121.2 128.332 126.419 128.426 129.219 128.491L134.31 128.611L134.564 128.184C134.704 127.949 134.967 127.308 135.148 126.759L135.477 125.76L134.988 125.565C134.719 125.458 131.91 125.282 128.747 125.173C125.584 125.064 121.935 124.894 120.639 124.795C119.343 124.696 114.591 124.526 110.08 124.418C100.084 124.177 93.1907 123.93 89.4322 123.677C87.8766 123.572 83.0824 123.395 78.7785 123.284C64.519 122.915 63.605 122.882 62.8451 122.711C62.4303 122.618 61.1037 122.54 59.8974 122.537L57.7035 122.532L57.6069 123.038ZM60.0638 129.565C59.5344 129.996 60.135 132.701 60.8445 133.081C61.2574 133.302 67.1773 133.606 74.1588 133.765C77.1663 133.833 80.3059 133.917 81.1355 133.952C81.9652 133.987 84.8926 134.1 87.6409 134.203C90.3892 134.306 94.9712 134.482 97.8232 134.593C100.675 134.705 105.894 134.875 109.42 134.971C117.827 135.201 120.986 135.326 123.845 135.543C125.141 135.641 127.377 135.724 128.813 135.727C130.249 135.73 131.505 135.783 131.605 135.844C132.361 136.312 132.944 135.583 133.464 133.518C134.281 130.275 134.901 130.501 124.787 130.36C120.276 130.297 115.44 130.204 114.039 130.153C110.905 130.04 105.741 129.944 94.7119 129.797C86.2997 129.684 82.5035 129.629 67.9362 129.41C61.5685 129.314 60.3424 129.338 60.0638 129.565ZM61.4111 135.58C61.058 136.24 61.5435 139.067 62.1069 139.63C62.583 140.107 63.3486 140.153 70.9532 140.169C76.2301 140.179 96.5886 140.481 98.2003 140.572C100.466 140.7 106.572 140.863 109.325 140.868C110 140.87 111.018 140.888 111.588 140.911C117.954 141.157 131.072 141.231 131.459 141.023C132.003 140.732 132.444 139.441 132.352 138.414C132.31 137.957 131.401 137.826 127.395 137.701C125.183 137.631 123.317 137.541 123.247 137.5C123.068 137.394 119.355 137.247 114.322 137.148C111.937 137.101 109.01 137.018 107.817 136.964C106.624 136.911 103.188 136.779 100.18 136.673C97.1727 136.566 93.3967 136.392 91.7892 136.287C90.1818 136.181 84.9209 136.014 80.0984 135.915C72.2953 135.755 69.0855 135.632 63.2745 135.273C61.7274 135.177 61.6171 135.195 61.4111 135.58ZM62.7583 142.417C62.5967 142.611 62.5443 143.117 62.5981 143.959C62.7437 146.245 62.7484 146.246 72.6503 146.393C76.2801 146.448 80.1409 146.573 81.2298 146.672C82.3188 146.771 85.1439 146.893 87.508 146.943C89.8725 146.993 91.8788 147.078 91.9665 147.133C92.0546 147.187 95.6359 147.321 99.9247 147.431C108.926 147.661 111.119 147.734 113.851 147.894C117.359 148.101 130.154 148.506 130.388 148.418C130.704 148.298 131.137 147.014 131.407 145.396C131.759 143.296 131.662 143.233 128.184 143.268C126.679 143.283 124.217 143.252 122.713 143.199C115.751 142.956 103.134 142.72 81.3241 142.426C77.5906 142.376 71.9399 142.288 68.7669 142.231C63.7285 142.141 62.9677 142.164 62.7583 142.417ZM63.7144 148.515C63.4513 149.006 63.4447 150.874 63.7021 151.801C63.976 152.788 64.4592 152.873 69.8218 152.887C75.3104 152.901 91.3362 153.075 98.2003 153.195C100.949 153.243 103.664 153.276 104.234 153.267C104.805 153.259 106.374 153.339 107.723 153.444C110.802 153.685 129.895 153.899 130.194 153.696C130.564 153.446 130.725 151.313 130.398 150.986C130.066 150.654 117.363 149.937 108.948 149.774C106.096 149.719 102.023 149.593 99.8974 149.495C97.7713 149.397 94.5894 149.269 92.8263 149.209C91.0633 149.149 89.4086 149.062 89.1494 149.015C88.8901 148.968 85.1142 148.847 80.7584 148.746C72.9392 148.565 71.3996 148.512 66.4466 148.255C64.0184 148.129 63.9156 148.139 63.7144 148.515ZM64.3244 155.225C63.8011 155.675 63.9222 157.246 64.5601 158.291C64.8867 158.827 68.739 159.067 82.2669 159.395C92.6811 159.648 95.3361 159.749 102.349 160.164C103.126 160.21 107.369 160.331 111.777 160.434C120.676 160.64 127.848 160.928 128.392 161.1C129.466 161.441 130 160.578 130.178 158.215L130.307 156.51L129.763 156.231C129.383 156.036 128.536 155.945 126.956 155.927C120.911 155.856 114.923 155.705 114.782 155.618C114.697 155.565 110.824 155.479 106.177 155.427C101.531 155.375 96.3289 155.299 94.6177 155.258C92.9065 155.216 86.6274 155.13 80.6641 155.065C74.7009 155 68.6943 154.916 67.3159 154.877C64.9475 154.811 64.7835 154.83 64.3244 155.225ZM64.8066 160.927C64.4931 161.304 64.504 164.17 64.8207 164.763C65.0079 165.112 65.2111 165.148 67.0472 165.156C68.1583 165.161 69.7464 165.196 70.5761 165.234C74.3374 165.405 81.8181 165.527 94.8062 165.628C102.533 165.688 108.981 165.773 109.137 165.817C109.385 165.886 116.696 166.052 125.259 166.182C126.814 166.206 128.352 166.289 128.675 166.365C129.337 166.522 129.69 165.929 129.69 164.66C129.69 162.919 130.04 162.984 119.508 162.774C116.345 162.712 113.712 162.632 113.657 162.598C113.603 162.565 110.76 162.441 107.34 162.324C103.921 162.206 100.317 162.076 99.3317 162.034C98.3465 161.992 96.5221 161.915 95.2776 161.863C94.0331 161.81 91.0633 161.721 88.678 161.663C86.2927 161.606 82.6016 161.476 80.4756 161.376C78.3495 161.275 74.2766 161.103 71.4246 160.993C68.5726 160.883 65.9752 160.753 65.6523 160.704C65.2521 160.643 64.9834 160.714 64.8066 160.927ZM64.8778 167.521C64.6982 167.961 64.6826 170.216 64.8561 170.636C64.965 170.901 65.6603 170.956 70.2301 171.067C73.117 171.137 76.8788 171.275 78.5899 171.373C85.2678 171.754 90.3364 171.944 98.6717 172.125C103.442 172.23 109.637 172.438 112.437 172.588C124.067 173.214 129.174 173.324 129.444 172.953C129.932 172.286 129.677 168.404 129.141 168.339C129.08 168.332 126.357 168.292 123.09 168.252C119.824 168.211 112.866 168.096 107.628 167.997C99.1214 167.836 81.589 167.557 76.3272 167.498C75.2383 167.486 72.2496 167.405 69.6861 167.319C65.1969 167.167 65.0192 167.175 64.8778 167.521ZM65.0333 173.39C64.6326 173.715 64.6039 173.841 64.7274 174.739C64.9103 176.071 65.03 176.105 69.8218 176.182C71.9997 176.217 76.8787 176.295 80.6641 176.355C84.4495 176.416 92.0438 176.51 97.5404 176.566C103.037 176.621 110.716 176.732 114.605 176.812C118.494 176.892 121.973 176.957 122.336 176.955C122.699 176.955 124.356 177.023 126.017 177.109C129.261 177.275 129.32 177.262 129.552 176.316C129.712 175.663 129.237 175.331 128.121 175.317C125.595 175.286 116.645 174.946 113.945 174.78C112.286 174.678 107.195 174.5 102.632 174.386C98.0683 174.272 92.9347 174.097 91.2236 173.997C87.2001 173.764 80.7834 173.493 76.1387 173.361C74.1163 173.303 70.8901 173.205 68.9686 173.144C65.723 173.04 65.4444 173.057 65.0333 173.39ZM64.9598 178.84C64.7811 179.019 64.7863 180.186 64.9664 180.295C65.0442 180.341 68.2474 180.432 72.0846 180.497C83.5731 180.689 100.744 181.081 106.026 181.271C107.685 181.33 113.37 181.461 118.659 181.561C123.948 181.661 128.446 181.785 128.653 181.837C129.409 182.027 129.968 181.33 129.612 180.64L129.303 180.044L126.527 180.002C125 179.979 123.072 179.955 122.242 179.949C121.412 179.943 117.636 179.876 113.851 179.8C108.081 179.685 93.8026 179.439 79.3442 179.205C77.5293 179.175 75.9171 179.104 75.7615 179.047C75.3194 178.884 65.1111 178.689 64.9598 178.84Z" fill="url(#paint1_linear)"/>
<path fill-rule="evenodd" clip-rule="evenodd" d="M50.2645 24.4082C49.6427 25.252 49.4475 25.714 49.2411 26.8317C49.1326 27.4191 48.9266 28.0776 48.7833 28.2964C48.6405 28.5146 48.3892 29.2717 48.2252 29.9783C48.0616 30.6854 47.7609 31.574 47.5577 31.953C47.3545 32.3325 47.1881 32.8223 47.1881 33.0415C47.1881 33.586 46.8143 34.6565 46.4951 35.0275C46.3504 35.1949 46.1454 35.8718 46.0393 36.5313C45.9332 37.1908 45.6905 37.987 45.5 38.3009C45.3096 38.6144 45.0946 39.2527 45.0225 39.7194C44.9499 40.1861 44.6958 40.9922 44.4577 41.5107C44.2197 42.0293 43.9647 42.8354 43.8916 43.3021C43.818 43.7687 43.6059 44.415 43.4197 44.7389C43.234 45.0623 42.9903 45.7524 42.879 46.2719C42.7673 46.7919 42.5099 47.5032 42.3067 47.8525C42.1036 48.2018 41.8457 48.99 41.7344 49.6042C41.6232 50.2185 41.4087 50.9096 41.2574 51.1401C41.1065 51.3701 40.8539 52.1159 40.6959 52.7966C40.538 53.4778 40.2373 54.355 40.0275 54.7468C39.8173 55.138 39.6457 55.6637 39.6457 55.9145C39.6457 56.1657 39.4232 56.8408 39.1516 57.4154C38.8796 57.99 38.6133 58.8041 38.5595 59.2251C38.5058 59.6456 38.3163 60.2867 38.1386 60.6497C37.9609 61.0127 37.7143 61.724 37.5903 62.2308C37.4664 62.7371 37.209 63.4583 37.0185 63.8336C36.8281 64.2083 36.5698 65.0243 36.4439 65.6466C36.3185 66.2688 36.0668 67.1202 35.8853 67.5388C35.7033 67.9569 35.4921 68.632 35.4158 69.0383C35.3399 69.4447 35.1141 70.0966 34.9151 70.4874C34.7157 70.8777 34.4324 71.714 34.2849 72.3452C34.1378 72.9764 33.9332 73.5944 33.8309 73.7184C33.7281 73.8419 33.4731 74.5797 33.2638 75.3575C33.055 76.1353 32.7542 77.1111 32.5958 77.5259C32.4379 77.9408 32.3045 78.4848 32.3003 78.7351C32.2955 78.9854 32.091 79.5369 31.8458 79.9607C31.6007 80.3845 31.3381 81.0709 31.2627 81.4852C31.1873 81.9001 30.9162 82.7373 30.6598 83.3459C30.0389 84.8218 30.1233 84.9727 31.5785 84.9802C33.5448 84.9901 33.8993 85.8787 32.832 88.1235L32.4554 88.9155L32.874 89.4816C33.104 89.7928 33.606 90.1727 33.9893 90.3264C34.4517 90.5112 34.7676 90.8002 34.9264 91.1839C35.058 91.5021 35.2385 91.7623 35.3267 91.7623C35.4153 91.7623 35.6185 92.0154 35.7787 92.3252C35.939 92.6349 36.2775 92.9403 36.5311 93.004C36.7847 93.0676 37.0421 93.2764 37.1029 93.4683C37.1637 93.6602 37.3815 93.8704 37.5861 93.9355C37.7912 94.0005 38.0933 94.2593 38.2583 94.5106C38.4228 94.7623 38.6326 94.9678 38.7241 94.9678C38.9338 94.9678 43.6054 99.6046 43.6054 99.8125C43.6054 99.9949 44.9522 101.069 45.821 101.579C46.177 101.788 46.4339 102.092 46.4339 102.303C46.4339 102.787 47.1301 104.396 47.3399 104.396C47.4304 104.396 47.6095 104.625 47.7373 104.906C47.865 105.187 48.1333 105.531 48.3331 105.671C48.533 105.811 48.6966 106.011 48.6966 106.116C48.6966 106.22 49.1086 106.707 49.6121 107.198C50.3583 107.925 50.552 108.251 50.6586 108.961C50.7335 109.461 51.0267 110.161 51.3459 110.601C51.6518 111.024 51.9021 111.491 51.9021 111.639C51.9021 111.788 52.1209 112.169 52.3882 112.487C52.655 112.804 52.9505 113.342 53.0444 113.682C53.1382 114.021 53.5214 114.615 53.8962 115.001C54.4718 115.593 54.6334 115.958 54.938 117.356C55.136 118.265 55.4542 119.222 55.6446 119.481C55.8351 119.74 56.0995 120.282 56.232 120.684C56.4036 121.205 56.6298 121.475 57.0159 121.621C57.4468 121.784 57.5321 121.905 57.4308 122.209C57.1776 122.97 57.3685 124.397 57.8423 125.287C58.1011 125.774 58.3132 126.308 58.3132 126.475C58.3132 127.099 58.7243 127.924 59.1245 128.102C59.5063 128.272 59.5389 128.419 59.5389 129.965C59.5389 131.349 59.6096 131.759 59.9429 132.303C60.1649 132.666 60.4048 133.239 60.4765 133.576C60.5477 133.912 60.7702 134.303 60.971 134.444C61.3038 134.677 61.3123 134.746 61.0657 135.221C60.7688 135.793 60.8527 136.782 61.2656 137.573C61.4037 137.838 61.5173 138.351 61.5188 138.714C61.5221 139.709 61.8676 140.754 62.2315 140.87C62.5144 140.959 62.5587 141.282 62.5775 143.391C62.6011 145.985 62.8872 147.07 63.608 147.298C63.9517 147.408 63.9503 147.43 63.5684 147.946C63.271 148.349 63.196 148.662 63.2667 149.207C63.3186 149.607 63.4586 150.697 63.5783 151.631C63.6981 152.564 63.9092 153.441 64.0478 153.58C64.2586 153.791 64.2562 153.978 64.0328 154.712C63.6302 156.035 63.8715 158.692 64.4749 159.581C64.8968 160.203 64.9086 160.283 64.638 160.695C64.2359 161.309 64.2751 163.717 64.7144 165.395C64.9374 166.246 65.0005 166.828 64.8921 167.033C64.6116 167.564 64.6857 171.21 64.9855 171.62C65.2075 171.924 65.2075 172.087 64.9855 172.717C64.5867 173.847 64.6446 176.285 65.0906 177.159L65.4564 177.877L67.1935 178C68.149 178.068 70.2378 178.123 71.8354 178.123C73.598 178.123 74.6973 178.193 74.6308 178.301C74.5672 178.403 72.5774 178.474 69.8716 178.468C64.6121 178.457 64.7243 178.425 64.7243 179.937C64.7243 181.349 64.638 181.328 70.5362 181.332C73.4066 181.334 77.9189 181.417 80.5634 181.517C83.208 181.618 87.5779 181.784 90.2743 181.887C96.0349 182.107 101.709 182.223 114.599 182.384C119.784 182.449 125.3 182.563 126.855 182.637C130.72 182.821 131.61 182.372 130.792 180.648C130.236 179.476 130.074 179.437 125.801 179.452C115.654 179.486 106.91 179.433 107.004 179.338C107.258 179.084 120.125 178.902 126.188 179.066C129.541 179.157 129.677 179.146 129.865 178.78C129.973 178.57 130.252 178.132 130.485 177.808C131.007 177.08 131.027 176.116 130.532 175.484C130.096 174.926 130.058 174.337 130.412 173.636C130.942 172.589 130.987 169.054 130.48 168.31L130.036 167.658L130.411 167.142C131.185 166.081 131.195 163.591 130.43 162.765C130.017 162.319 130.014 162.295 130.36 162.185C131.125 161.942 131.567 158.273 131.097 156.059C130.904 155.148 130.905 154.88 131.101 154.644C131.451 154.222 131.645 151.803 131.422 150.634C131.248 149.723 131.268 149.601 131.652 149.192C132.169 148.641 132.44 146.79 132.391 144.132C132.362 142.518 132.405 142.238 132.74 141.869C133.263 141.294 133.395 140.614 133.385 138.579C133.379 137.465 133.457 136.753 133.604 136.598C134.182 135.984 134.292 135.677 134.5 134.091C134.623 133.159 134.811 132.288 134.919 132.154C135.027 132.021 135.101 131.459 135.083 130.905C135.055 130.073 135.173 129.656 135.76 128.508C136.334 127.388 136.476 126.897 136.493 125.986C136.522 124.446 136.508 124.502 137.031 123.937C137.286 123.661 137.59 123.076 137.705 122.636C137.819 122.197 138.073 121.498 138.268 121.084C138.735 120.09 139.059 118.589 138.909 118.115C138.843 117.907 138.864 117.684 138.956 117.619C139.313 117.367 140.549 115.469 140.848 114.714C141.021 114.276 141.316 113.664 141.504 113.353C141.691 113.041 141.845 112.441 141.845 112.019C141.846 111.464 141.963 111.147 142.27 110.869C143.064 110.153 143.933 109.017 144.05 108.544C144.114 108.285 144.328 107.903 144.526 107.696C145.242 106.945 146.15 105.337 146.274 104.601C146.37 104.034 146.597 103.678 147.188 103.17C147.62 102.798 148.059 102.404 148.163 102.295C148.266 102.187 148.585 101.875 148.87 101.602C149.155 101.329 149.388 101.028 149.388 100.932C149.388 100.836 150.319 99.8407 151.456 98.7202C152.593 97.5997 153.642 96.4019 153.785 96.0582C154.035 95.4595 154.565 94.9292 156.057 93.7813C156.922 93.1162 156.941 92.5717 156.129 91.6294C155.792 91.2376 155.456 90.8317 155.382 90.7271C155.308 90.6224 154.99 90.2284 154.675 89.8517C154.36 89.475 154.102 89.1069 154.102 89.0329C154.102 88.9593 153.935 88.6859 153.729 88.4248C153.023 87.5272 153.452 87.2368 155.485 87.2368C157.828 87.2368 158.094 86.7437 156.794 84.8063C156.558 84.4546 156.365 83.9874 156.365 83.7678C156.365 83.5481 156.163 82.9871 155.915 82.5214C155.668 82.0556 155.193 80.953 154.861 80.0715C154.528 79.19 154.056 78.0021 153.812 77.4317C153.568 76.8613 153.268 76.0551 153.146 75.6403C153.023 75.2255 152.818 74.7588 152.69 74.6032C152.472 74.3383 152.267 73.7976 151.173 70.6034C150.934 69.9071 150.605 69.1458 150.441 68.9115C150.277 68.6772 150.143 68.3256 150.143 68.1304C150.143 67.9352 149.921 67.3389 149.651 66.8053C149.38 66.2716 149.032 65.4109 148.877 64.8923C148.722 64.3738 148.518 63.8543 148.423 63.7379C148.329 63.6219 148.126 63.1128 147.974 62.6065C147.821 62.1007 147.483 61.2691 147.223 60.7591C146.962 60.249 146.748 59.6847 146.748 59.5056C146.748 59.3265 146.537 58.8103 146.279 58.3591C146.021 57.9075 145.809 57.3885 145.808 57.2047C145.807 57.0213 145.551 56.3943 145.24 55.8112C144.929 55.2281 144.674 54.52 144.674 54.2377C144.674 53.9548 144.513 53.5183 144.316 53.2675C144.118 53.0163 143.858 52.4322 143.738 51.9693C143.618 51.5064 143.361 50.9048 143.166 50.6328C142.972 50.3608 142.685 49.6476 142.528 49.0475C142.371 48.4474 142.149 47.8987 142.034 47.8275C141.919 47.7563 141.695 47.1973 141.537 46.5844C141.377 45.9716 141.135 45.3432 140.999 45.1877C140.863 45.0321 140.618 44.4518 140.455 43.8989C140.293 43.3454 139.997 42.6242 139.797 42.2961C139.598 41.9675 139.376 41.341 139.305 40.9036C139.233 40.4656 139.025 39.9141 138.843 39.6779C138.661 39.4413 138.408 38.8299 138.282 38.3184C138.156 37.8074 137.9 37.171 137.715 36.9042C137.53 36.6378 137.277 36.009 137.154 35.5069C137.03 35.0049 136.771 34.3685 136.577 34.0927C136.383 33.817 136.17 33.2706 136.103 32.8784C136.036 32.4867 135.823 31.8927 135.629 31.5585C135.435 31.2247 135.176 30.5695 135.053 30.1028C134.93 29.6361 134.773 29.2118 134.704 29.16C134.437 28.961 133.926 28.0281 133.926 27.7401C133.926 27.5742 133.766 27.041 133.569 26.555C133.372 26.069 133.114 25.4114 132.995 25.0936C132.629 24.1202 132.275 24.0787 124.31 24.0877C120.317 24.0919 113.529 24.09 109.225 24.083C78.511 24.0335 53.8971 24.0995 52.9468 24.2343C52.1331 24.3498 51.6598 24.3253 51.2309 24.1461C50.6741 23.9137 50.6171 23.9288 50.2645 24.4082ZM131.456 26.3108C131.736 26.6106 132.058 27.1409 132.173 27.4893C132.395 28.1658 132.943 29.5484 133.659 31.2341C133.9 31.8045 134.406 33.0773 134.781 34.0626C135.157 35.0478 135.628 36.2027 135.827 36.6289C136.026 37.055 136.189 37.5024 136.189 37.6231C136.189 37.7433 136.444 38.4037 136.755 39.0896C137.066 39.776 137.32 40.4076 137.32 40.4939C137.32 40.5806 137.526 41.1001 137.777 41.6493C138.028 42.1985 138.294 42.9014 138.367 43.2106C138.44 43.5203 138.693 44.1553 138.929 44.622C139.165 45.0887 139.483 45.8523 139.636 46.319C139.966 47.3274 140.64 48.9825 141.093 49.9017C141.272 50.2647 141.514 50.96 141.632 51.4465C141.75 51.9334 142.006 52.6123 142.202 52.955C142.398 53.2982 142.661 53.9181 142.787 54.3329C142.913 54.7477 143.219 55.5067 143.468 56.02C143.716 56.5329 143.92 57.0741 143.92 57.2231C143.92 57.372 144.08 57.7586 144.276 58.082C144.472 58.4053 144.77 59.1535 144.938 59.7446C145.107 60.3353 145.323 60.8675 145.419 60.9264C145.514 60.9853 145.733 61.5199 145.905 62.1143C146.076 62.7088 146.328 63.3225 146.465 63.4781C146.602 63.6337 146.882 64.2701 147.088 64.8923C147.294 65.5146 147.598 66.2782 147.764 66.5894C147.93 66.9005 148.066 67.2663 148.067 67.4025C148.068 67.5383 148.272 68.0898 148.522 68.6282C149.22 70.1324 149.949 71.9497 150.316 73.0947C150.498 73.6651 150.776 74.3864 150.934 74.6975C151.091 75.0086 151.274 75.546 151.34 75.892C151.405 76.2376 151.619 76.7467 151.815 77.0234C152.01 77.2997 152.232 77.8229 152.308 78.1859C152.384 78.5489 152.636 79.2277 152.869 79.6944C153.267 80.4915 153.492 81.0195 154.577 83.6994L155.015 84.7813L154.569 85.1325C154.17 85.4469 153.818 85.478 151.237 85.4276C149.65 85.3969 144.83 85.3267 140.526 85.2715C136.222 85.2164 129.264 85.1273 125.064 85.074C114.414 84.9378 108.18 84.8039 98.571 84.5046C94.0079 84.3622 88.1106 84.2321 85.466 84.2156C82.8215 84.1991 78.5364 84.1572 75.9437 84.1223C58.3736 83.8847 54.3252 83.8196 52.2538 83.7409C50.9716 83.6924 48.0131 83.6122 45.6796 83.5632C31.0925 83.2577 32.2663 83.5307 33.3444 80.6928C33.6122 79.9881 33.9445 78.9637 34.0826 78.4159C34.2212 77.8686 34.4998 76.9777 34.7016 76.436C35.4261 74.4929 36.2539 71.862 36.2567 71.492C36.2586 71.2846 36.4387 70.733 36.6574 70.2663C36.8762 69.7996 37.1656 68.9935 37.3009 68.475C37.4362 67.9564 37.7167 67.0655 37.9246 66.4951C38.1325 65.9247 38.6444 64.3776 39.0616 63.0572C39.4793 61.7368 39.9398 60.4215 40.085 60.1345C40.2302 59.8474 40.4565 59.1459 40.588 58.5755C40.719 58.0051 40.893 57.4536 40.9741 57.3499C41.0556 57.2462 41.3045 56.4462 41.528 55.5717C41.7509 54.6978 42.0427 53.7644 42.1762 53.4976C42.31 53.2312 42.5226 52.5887 42.6494 52.0702C42.7758 51.5516 42.9912 51.0001 43.1279 50.8445C43.2646 50.6889 43.5597 49.8857 43.7841 49.0598C44.0085 48.2339 44.2659 47.4693 44.3554 47.3613C44.4455 47.2529 44.6524 46.5887 44.8155 45.8858C44.9786 45.1825 45.2323 44.374 45.3798 44.0893C45.5269 43.8046 45.7079 43.2356 45.7814 42.8241C45.8555 42.413 46.1091 41.6521 46.3457 41.1336C46.5819 40.6151 46.8718 39.7255 46.9892 39.1565C47.107 38.5876 47.3696 37.8404 47.5728 37.4958C47.776 37.1512 47.9424 36.7439 47.9424 36.5902C47.9424 36.2946 48.8253 33.4738 49.5597 31.4227C49.8011 30.7486 50.0561 29.9425 50.1259 29.6314C50.2485 29.0874 50.7147 27.841 51.2672 26.5804C51.6316 25.7498 48.2629 25.8158 91.5655 25.7894L130.946 25.7654L131.456 26.3108ZM51.8079 85.6402C54.1932 85.6949 57.6721 85.7825 59.5389 85.8344C64.1082 85.9607 70.3769 86.064 81.2234 86.1917C86.2014 86.2502 92.3532 86.3393 94.8941 86.3902C97.435 86.4411 103.332 86.5288 107.999 86.5849C112.666 86.641 117.078 86.7664 117.804 86.8635C118.53 86.9606 123.07 87.0822 127.892 87.1341C140.845 87.2727 149.597 87.4292 150.237 87.5343C150.681 87.6074 151.106 88.0146 152.217 89.4331C152.995 90.4263 153.812 91.4205 154.034 91.6421C154.607 92.2148 154.718 93.2138 154.223 93.3434C154.016 93.3976 151.973 93.317 149.684 93.1647C147.396 93.0125 145.226 92.8965 144.863 92.9069C144.5 92.9172 142.591 92.8772 140.62 92.8173C138.65 92.7579 135.34 92.6631 133.266 92.607C131.192 92.5505 127.925 92.4232 126.007 92.3233C120.051 92.014 109.167 91.6303 94.0456 91.1957C90.6232 91.0976 86.8472 90.9331 85.6546 90.8308C84.4619 90.728 80.6012 90.5871 77.0751 90.5178C68.5474 90.3495 61.3608 90.0638 58.5961 89.7838C58.0775 89.731 52.9015 89.5594 47.0938 89.4015C35.4978 89.0871 35.5204 89.089 34.9274 88.4582L34.5144 88.0184L35.0938 86.7923C35.8391 85.214 35.2112 85.2574 51.8079 85.6402ZM48.1309 91.5558C50.5681 91.6577 55.4047 91.7896 58.8789 91.8495C62.3531 91.9089 66.0254 92.0503 67.0398 92.1635C68.0538 92.2766 69.0527 92.3247 69.2597 92.2709C69.4661 92.2167 70.7578 92.246 72.1296 92.336C73.5014 92.4256 78.3573 92.5906 82.9205 92.7023C87.4836 92.8145 92.5324 92.9908 94.1399 93.095C97.1517 93.2896 104.907 93.5847 111.205 93.7445C113.175 93.795 116.781 93.9147 119.218 94.0109C124.49 94.2192 123.043 94.1674 129.872 94.3913C132.983 94.4936 137.523 94.6633 139.96 94.768C142.397 94.8731 146.212 95.0074 148.437 95.0664C153.954 95.213 154.014 95.2945 150.935 98.4463C149.814 99.5928 148.589 100.912 148.21 101.379L147.522 102.227L141.431 102.226C131.219 102.222 111.519 101.923 109.319 101.738C106.719 101.52 107.014 101.52 106.019 101.738C105.494 101.853 104.74 101.861 104.039 101.757C102.769 101.57 96.8028 101.44 77.8293 101.187C41.6774 100.706 45.6598 100.96 43.794 99.0139C43.1199 98.3106 42.3138 97.4875 42.0027 97.1844C39.2978 94.5516 38.272 93.6154 37.341 92.9295C36.3091 92.1696 36.2714 92.1135 36.4877 91.6393L36.7135 91.1434L40.2066 91.2574C42.1276 91.3196 45.6938 91.4545 48.1309 91.5558ZM60.3874 102.884C67.6956 103.051 83.9623 103.337 84.8061 103.312C85.1874 103.301 105.377 103.611 112.336 103.735C114.41 103.772 118.186 103.888 120.727 103.992C123.268 104.096 127.468 104.187 130.061 104.195C132.653 104.202 137.151 104.254 140.055 104.31C145.937 104.423 146.175 104.474 145.339 105.445C145.078 105.749 144.863 106.089 144.863 106.199C144.863 106.309 144.702 106.571 144.506 106.782C144.309 106.993 144.001 107.454 143.82 107.808C143.639 108.161 143.236 108.775 142.923 109.173L142.354 109.896L136.867 109.778C133.85 109.713 130.193 109.58 128.741 109.483C127.289 109.386 124.446 109.26 122.424 109.204C120.402 109.147 118.535 109.064 118.276 109.019C117.826 108.941 115.478 108.873 105.076 108.638C102.536 108.58 98.8445 108.446 96.874 108.34C89.4885 107.941 86.8934 107.841 77.4522 107.595C68.6558 107.366 66.477 107.285 62.05 107.025C60.254 106.92 57.1724 106.794 55.202 106.746C51.394 106.654 49.8468 106.537 49.5437 106.321C49.1911 106.069 47.7538 103.865 47.7538 103.576C47.7538 103.417 47.6689 103.234 47.5652 103.17C47.0547 102.855 47.5468 102.706 49.3094 102.643C50.3724 102.605 51.5392 102.604 51.9021 102.639C52.2651 102.675 56.0835 102.785 60.3874 102.884ZM66.2328 109.099C75.5397 109.529 79.1789 109.674 83.109 109.771C85.3906 109.827 89.3363 109.958 91.8771 110.062C96.7873 110.262 101.456 110.431 114.787 110.891C119.35 111.048 124.357 111.248 125.912 111.335C127.468 111.422 128.995 111.495 129.307 111.497C134.471 111.533 140.94 111.912 141.223 112.195C141.261 112.233 141.165 112.509 141.011 112.809C140.856 113.108 140.526 113.819 140.278 114.39C140.03 114.96 139.666 115.621 139.469 115.859L139.112 116.292L118.841 116.007C107.693 115.851 97.2134 115.664 95.5541 115.593C93.8947 115.522 91.3067 115.447 89.8029 115.425C88.2992 115.405 82.1474 115.286 76.1323 115.162C70.1172 115.038 62.8476 114.919 59.9782 114.899C54.1059 114.856 54.3365 114.913 53.511 113.316C53.3074 112.921 52.729 111.846 52.2265 110.927C51.7221 110.004 51.3619 109.127 51.4223 108.969C51.5434 108.654 57.8003 108.709 66.2328 109.099ZM159.665 111.499C156.567 111.878 153.515 114.158 152.075 117.168L151.374 118.632L151.372 121.461C151.366 130.5 161.613 134.939 168.056 128.688C175.043 121.909 169.38 110.307 159.665 111.499ZM163.419 112.123C164.073 112.23 164.7 112.463 164.939 112.687C165.163 112.898 165.424 113.07 165.521 113.07C165.781 113.07 167.746 114.435 167.944 114.754C168.038 114.905 168.299 115.203 168.522 115.416C168.746 115.629 169.256 116.44 169.657 117.218L170.386 118.632L170.399 121.366L170.412 124.101L169.62 125.703C169.183 126.585 168.654 127.413 168.441 127.543C168.229 127.674 168.056 127.901 168.056 128.049C168.056 128.197 167.884 128.372 167.674 128.439C167.463 128.506 167.162 128.758 167.004 128.999C166.846 129.241 166.523 129.487 166.288 129.546C166.052 129.605 165.549 129.864 165.169 130.122C162.803 131.728 157.341 130.977 154.983 128.723C154.551 128.309 154.135 127.969 154.06 127.968C153.985 127.967 153.781 127.69 153.607 127.353C153.432 127.016 153.185 126.656 153.058 126.552C152.929 126.448 152.678 125.908 152.499 125.352C152.319 124.796 152.055 124.117 151.913 123.844C151.557 123.162 151.553 119.52 151.907 119.004C152.047 118.8 152.315 118.166 152.501 117.595C153.284 115.195 156.216 112.62 158.722 112.133C159.823 111.918 162.138 111.913 163.419 112.123ZM74.4352 117.122C82.1987 117.218 85.0121 117.263 98.2882 117.508C101.14 117.56 106.189 117.684 109.508 117.783C112.826 117.881 120.505 118.018 126.572 118.085C139.186 118.226 138.983 118.191 137.983 120.108C137.83 120.401 137.533 121.218 137.323 121.924C136.799 123.681 136.696 123.716 132.55 123.561C130.766 123.495 126.931 123.393 124.027 123.336C121.123 123.279 117.983 123.156 117.05 123.063C114.852 122.844 112.079 122.717 106.491 122.581C104.002 122.52 101.247 122.438 100.369 122.399C99.4912 122.361 96.5638 122.277 93.8636 122.213C91.1639 122.15 88.6754 122.01 88.3341 121.903C87.9923 121.797 87.5902 121.756 87.4403 121.814C87.2904 121.871 85.1511 121.836 82.6871 121.735C78.123 121.547 75.23 121.453 68.6841 121.275C56.1386 120.936 57.1668 121.121 56.1547 119.017C55.0525 116.726 54.8706 116.804 61.0474 116.922C63.8475 116.976 69.872 117.066 74.4352 117.122ZM63.3101 123.054C64.07 123.224 64.984 123.257 79.2435 123.626C83.5474 123.738 88.3416 123.915 89.8972 124.019C93.6557 124.273 100.549 124.52 110.545 124.76C115.056 124.868 119.808 125.039 121.104 125.138C122.4 125.237 126.049 125.407 129.212 125.516C132.375 125.625 135.184 125.801 135.453 125.908L135.942 126.102L135.613 127.101C135.432 127.65 135.169 128.292 135.029 128.527L134.775 128.953L129.684 128.834C126.884 128.768 121.665 128.675 118.087 128.626C114.509 128.576 109.418 128.478 106.773 128.408C104.129 128.338 100.65 128.265 99.0424 128.247C97.435 128.228 90.6468 128.113 83.9575 127.991C72.0391 127.773 63.0711 127.621 60.8974 127.6C59.5827 127.587 59.0184 127.142 58.6988 125.866C58.5852 125.414 58.3759 124.783 58.2336 124.465C58.0917 124.147 58.0186 123.659 58.0719 123.381L58.1685 122.875L60.3624 122.88C61.5687 122.882 62.8953 122.96 63.3101 123.054ZM81.3177 129.946C84.2734 129.99 90.51 130.077 95.1769 130.139C106.206 130.287 111.37 130.382 114.504 130.496C115.905 130.547 120.741 130.639 125.252 130.703C135.366 130.844 134.746 130.618 133.929 133.861C133.409 135.926 132.826 136.654 132.07 136.186C131.97 136.125 130.714 136.072 129.278 136.069C127.842 136.066 125.606 135.983 124.31 135.885C121.451 135.669 118.292 135.544 109.885 135.314C106.359 135.218 101.14 135.047 98.2882 134.936C95.4362 134.824 90.8542 134.649 88.1059 134.545C85.3576 134.443 82.4302 134.33 81.6005 134.295C80.7709 134.26 77.6313 134.175 74.6238 134.107C67.6423 133.948 61.7224 133.644 61.3095 133.424C61.1322 133.328 60.8098 132.702 60.5929 132.031C59.768 129.476 59.2918 129.615 68.4012 129.753C72.5496 129.815 78.362 129.902 81.3177 129.946ZM68.5898 135.897C70.3529 135.996 75.741 136.159 80.5634 136.258C85.3859 136.357 90.6468 136.524 92.2542 136.629C93.8617 136.735 97.6377 136.909 100.645 137.015C103.653 137.122 107.089 137.253 108.282 137.307C109.475 137.361 112.402 137.443 114.787 137.49C119.82 137.59 123.533 137.736 123.712 137.843C123.782 137.884 125.648 137.974 127.86 138.043C131.866 138.169 132.775 138.3 132.817 138.756C132.909 139.783 132.468 141.075 131.924 141.366C131.537 141.573 118.419 141.499 112.053 141.253C111.483 141.231 110.465 141.212 109.79 141.211C107.037 141.205 100.931 141.043 98.6653 140.914C97.0536 140.823 76.6951 140.522 71.4182 140.511C61.7856 140.492 62.2961 140.63 61.8949 137.933C61.5466 135.591 61.6314 135.484 63.7395 135.615C64.6442 135.671 66.8268 135.798 68.5898 135.897ZM81.7891 142.768C103.6 143.062 116.216 143.298 123.178 143.542C124.682 143.594 127.144 143.626 128.649 143.611C132.127 143.576 132.224 143.639 131.872 145.739C131.602 147.356 131.169 148.641 130.853 148.76C130.619 148.849 117.824 148.444 114.316 148.237C111.584 148.076 109.391 148.003 100.39 147.773C96.1009 147.664 92.5197 147.53 92.4315 147.475C92.3438 147.421 90.3375 147.336 87.973 147.286C85.6089 147.236 82.7838 147.114 81.6948 147.015C80.6059 146.916 76.7451 146.79 73.1153 146.736C63.2135 146.589 63.2087 146.588 63.0631 144.302C62.9382 142.34 62.5337 142.453 69.2319 142.573C72.4049 142.63 78.0556 142.718 81.7891 142.768ZM71.3692 148.817C72.4332 148.865 76.8676 148.987 81.2234 149.088C85.5792 149.19 89.3551 149.31 89.6144 149.357C89.8737 149.405 91.5283 149.492 93.2913 149.551C95.0544 149.611 98.2363 149.74 100.362 149.838C102.488 149.936 106.561 150.061 109.413 150.116C117.828 150.279 130.531 150.997 130.863 151.328C131.19 151.655 131.03 153.788 130.659 154.039C130.36 154.242 111.267 154.027 108.188 153.787C106.839 153.682 105.27 153.602 104.699 153.61C104.129 153.618 101.414 153.585 98.6653 153.537C91.8012 153.418 75.7754 153.244 70.2869 153.229C64.02 153.213 63.9738 153.192 63.971 150.345C63.9691 148.446 63.971 148.445 66.9116 148.597C68.2994 148.669 70.3052 148.768 71.3692 148.817ZM81.1291 155.407C87.0924 155.472 93.3715 155.559 95.0827 155.6C96.7939 155.641 101.996 155.718 106.642 155.769C111.289 155.821 115.162 155.907 115.247 155.96C115.388 156.047 121.376 156.199 127.421 156.269C129.001 156.287 129.848 156.379 130.228 156.574L130.772 156.852L130.643 158.557C130.465 160.921 129.931 161.784 128.857 161.442C128.313 161.27 121.141 160.982 112.242 160.776C107.834 160.674 103.591 160.553 102.814 160.507C95.8011 160.092 93.1461 159.99 82.7319 159.738C77.2056 159.603 68.9896 159.3 66.9305 159.155C65.0147 159.019 64.9308 158.947 64.5409 157.108C64.1643 155.33 64.5098 155.128 67.7809 155.22C69.1593 155.258 75.1659 155.343 81.1291 155.407ZM71.8896 161.335C74.7416 161.445 78.8145 161.618 80.9406 161.719C83.0666 161.819 86.7577 161.949 89.143 162.006C91.5283 162.063 94.4981 162.153 95.7426 162.205C96.9871 162.258 98.8115 162.335 99.7967 162.377C100.782 162.419 104.386 162.549 107.805 162.666C111.225 162.783 114.068 162.907 114.122 162.941C114.177 162.975 116.81 163.054 119.973 163.117C130.505 163.326 130.155 163.262 130.155 165.002C130.155 166.272 129.802 166.864 129.14 166.707C128.817 166.631 127.279 166.549 125.724 166.525C117.161 166.394 109.85 166.228 109.602 166.159C109.446 166.116 102.998 166.031 95.2712 165.971C82.2831 165.87 74.8024 165.748 71.0411 165.576C70.2114 165.538 68.6233 165.503 67.5122 165.498C65.0925 165.488 65.0967 165.492 65.0463 163.151C65.0062 161.307 65.2094 160.908 66.1173 161.046C66.4402 161.095 69.0376 161.225 71.8896 161.335ZM76.7922 167.841C82.054 167.899 99.5865 168.179 108.093 168.34C113.331 168.439 120.289 168.553 123.555 168.594C126.822 168.635 129.545 168.675 129.606 168.682C130.142 168.747 130.397 172.629 129.909 173.296C129.639 173.666 124.532 173.556 112.902 172.931C110.102 172.78 103.907 172.572 99.1367 172.468C90.8014 172.286 85.7329 172.096 79.055 171.715C77.3438 171.618 73.582 171.48 70.6951 171.41C64.7191 171.264 65.1957 171.435 65.1957 169.45C65.1957 167.33 64.779 167.48 70.1511 167.661C72.7146 167.748 75.7033 167.828 76.7922 167.841ZM76.6037 173.703C81.2484 173.835 87.6651 174.107 91.6886 174.34C93.3997 174.439 98.5333 174.614 103.097 174.729C107.66 174.843 112.751 175.02 114.41 175.122C117.11 175.289 126.06 175.628 128.586 175.66C129.702 175.674 130.177 176.005 130.017 176.659C129.785 177.604 129.726 177.618 126.482 177.451C124.821 177.366 123.164 177.297 122.801 177.298C122.438 177.299 118.959 177.235 115.07 177.154C111.181 177.074 103.502 176.963 98.0054 176.908C92.5088 176.853 84.9145 176.759 81.1291 176.698C63.5943 176.418 65.4012 176.601 65.1924 175.082C64.9642 173.424 65.1641 173.349 69.4336 173.487C71.3551 173.548 74.5813 173.645 76.6037 173.703ZM77.6407 178.312C77.5766 178.416 77.1524 178.5 76.6979 178.5C76.2435 178.5 75.8192 178.416 75.7551 178.312C75.6825 178.195 76.0399 178.123 76.6979 178.123C77.356 178.123 77.7133 178.195 77.6407 178.312ZM81.3177 178.312C81.5228 178.444 81.3568 178.495 80.7162 178.498C80.2297 178.499 79.779 178.416 79.7149 178.312C79.5636 178.067 80.9387 178.067 81.3177 178.312ZM76.2265 179.389C76.3821 179.447 77.9943 179.517 79.8092 179.547C94.2676 179.781 108.546 180.028 114.316 180.143C118.101 180.219 121.877 180.286 122.707 180.292C123.537 180.298 125.465 180.322 126.992 180.345L129.768 180.386L130.077 180.982C130.433 181.672 129.874 182.37 129.118 182.18C128.911 182.127 124.413 182.003 119.124 181.903C113.835 181.803 108.15 181.673 106.491 181.613C101.209 181.424 84.0382 181.032 72.5496 180.839C68.7124 180.775 65.5092 180.684 65.4314 180.637C65.2513 180.529 65.2461 179.362 65.4248 179.183C65.5761 179.031 75.7844 179.226 76.2265 179.389Z" fill="url(#paint2_linear)"/>
<path fill-rule="evenodd" clip-rule="evenodd" d="M160.5 105.226C160.457 105.268 159.625 105.398 158.65 105.516C157.563 105.647 156.508 105.904 155.916 106.182C155.387 106.43 154.723 106.69 154.442 106.759C154.161 106.828 153.829 107.008 153.703 107.159C153.577 107.31 153.213 107.548 152.894 107.687C152.171 108.002 150.717 109.164 149.7 110.239C149.582 110.365 149.251 110.705 148.966 110.995C148.681 111.286 148.448 111.581 148.448 111.652C148.448 111.722 148.151 112.228 147.788 112.774C147.425 113.321 147.128 113.831 147.128 113.909C147.128 113.986 146.961 114.283 146.758 114.568C146.554 114.854 146.295 115.503 146.182 116.012C146.068 116.519 145.801 117.514 145.587 118.221C145.067 119.938 145.167 123.503 145.784 125.214C146.004 125.827 146.185 126.553 146.185 126.827C146.185 127.102 146.395 127.612 146.652 127.96C146.908 128.308 147.212 128.876 147.326 129.222C147.441 129.568 147.605 129.852 147.691 129.852C147.778 129.852 148.033 130.233 148.259 130.7C148.485 131.167 148.75 131.549 148.848 131.549C148.946 131.549 149.201 131.846 149.415 132.209C149.629 132.572 149.925 132.869 150.073 132.869C150.221 132.869 150.438 133.081 150.556 133.34C150.674 133.599 150.855 133.811 150.957 133.811C151.06 133.811 151.577 134.266 152.106 134.821C152.635 135.376 153.257 135.89 153.487 135.963C153.718 136.036 154.06 136.292 154.248 136.531C154.436 136.77 154.862 137.106 155.196 137.279C155.529 137.451 155.801 137.679 155.801 137.786C155.801 137.892 156.053 138.067 156.36 138.174C156.666 138.281 156.969 138.531 157.032 138.729C157.095 138.928 157.248 139.091 157.373 139.091C157.497 139.091 158.123 139.347 158.763 139.659C159.403 139.972 160.19 140.28 160.511 140.344C160.832 140.408 161.199 140.609 161.325 140.79C161.461 140.984 161.907 141.164 162.403 141.226C163.987 141.425 165.889 141.829 166.274 142.049C166.943 142.429 170.501 141.468 171.024 140.765C171.151 140.594 171.463 140.402 171.718 140.338C171.972 140.274 172.233 140.06 172.295 139.862C172.358 139.664 172.618 139.365 172.874 139.198C173.129 139.031 173.338 138.782 173.338 138.646C173.338 138.509 173.534 138.308 173.773 138.199C174.04 138.077 174.295 137.713 174.431 137.256C174.554 136.847 174.825 136.358 175.033 136.17C175.241 135.981 175.412 135.726 175.412 135.602C175.412 135.477 175.629 134.967 175.895 134.467C176.201 133.891 176.441 133.033 176.548 132.129C176.641 131.343 176.934 129.936 177.198 129.003C177.856 126.685 177.736 120.796 176.989 118.704C176.744 118.017 176.543 117.259 176.543 117.019C176.543 116.779 176.386 116.238 176.193 115.816C176.001 115.395 175.727 114.668 175.586 114.201C174.927 112.023 171.074 107.601 169.837 107.601C169.72 107.601 169.471 107.431 169.282 107.223C169.094 107.014 168.592 106.745 168.169 106.625C167.745 106.503 167.264 106.292 167.101 106.155C166.543 105.686 160.852 104.886 160.5 105.226ZM163.721 111.366C164.806 111.606 166.917 112.675 167.62 113.341C168.056 113.754 168.261 113.957 168.978 114.683C169.716 115.431 170.652 117.006 170.787 117.728C170.857 118.1 171.056 118.622 171.23 118.887C171.744 119.672 171.666 123.288 171.113 124.282C170.884 124.693 170.698 125.186 170.698 125.378C170.698 125.813 170.405 126.374 169.929 126.849C169.73 127.049 169.566 127.31 169.566 127.43C169.566 127.712 166.988 130.229 166.699 130.229C166.578 130.229 166.293 130.404 166.064 130.619C165.669 130.99 163.754 131.607 162.118 131.891C160.63 132.15 157.278 131.43 156.267 130.635C155.983 130.412 155.668 130.229 155.568 130.229C154.872 130.229 152.66 127.622 151.659 125.623C150.516 123.341 150.628 118.436 151.858 116.871C152.057 116.619 152.22 116.318 152.222 116.203C152.231 115.671 154.691 113.093 155.723 112.535C157.062 111.811 157.652 111.571 158.724 111.309C160 110.998 162.167 111.023 163.721 111.366ZM36.1494 111.738C35.7398 112.042 35.1081 112.681 34.7451 113.158C32.9628 115.496 28.8253 120.45 28.516 120.616C28.1705 120.801 26.9495 120.431 25.7013 119.765C22.7559 118.193 15.6354 114.89 15.0405 114.82C14.2928 114.733 14.2697 114.749 12.4548 116.682C9.39638 119.938 9.41571 119.759 11.9665 121.206C12.2682 121.377 12.7014 121.656 12.9291 121.827C13.3651 122.153 14.2867 122.72 15.7005 123.531C16.1671 123.799 16.9308 124.267 17.3975 124.571C17.8642 124.876 18.5854 125.31 19.0003 125.536C23.0162 127.724 23.1053 128.018 20.603 130.802C20.4475 130.975 20.1316 131.363 19.9016 131.663C19.4146 132.298 18.6896 133.257 18.4916 133.528C18.4157 133.632 17.9684 134.166 17.497 134.715C16.1634 136.268 16.4627 136.968 18.6307 137.368C19.3218 137.495 20.0694 137.715 20.2924 137.856C20.5149 137.998 21.2064 138.215 21.8287 138.34C22.4509 138.464 23.316 138.726 23.7511 138.923C24.9871 139.48 26.637 138.746 26.637 137.639C26.637 137.552 26.8685 137.144 27.1518 136.731C27.4346 136.318 27.7952 135.751 27.9532 135.47C29.7299 132.313 30.0872 132.16 32.1807 133.661C32.5852 133.951 32.9972 134.188 33.0962 134.188C33.1956 134.188 33.5167 134.379 33.8108 134.613C35.5281 135.977 37.7857 136.972 38.1548 136.527C38.2755 136.381 38.4787 136.263 38.6064 136.263C38.7342 136.263 39.0674 136.05 39.347 135.791C39.627 135.532 39.8999 135.32 39.9537 135.32C40.0074 135.32 40.4482 135.044 40.9337 134.707C41.4193 134.37 41.9538 134.009 42.1217 133.906C44.9996 132.129 47.0398 130.626 46.9479 130.35C46.9121 130.242 45.8684 129.641 44.629 129.013C41.9689 127.666 41.8874 127.625 40.6773 127.049C40.163 126.803 39.1273 126.294 38.3754 125.917C37.624 125.54 36.6242 125.04 36.1537 124.806C34.8781 124.172 34.8861 124.044 36.3456 121.723C36.4507 121.555 36.7741 121.004 37.064 120.497C37.3544 119.99 37.8804 119.108 38.2335 118.538C38.5866 117.967 39.0943 117.119 39.3616 116.652C39.6293 116.186 40.0951 115.422 40.3958 114.955C42.6129 111.52 42.487 111.184 38.9831 111.184C36.9659 111.184 36.8679 111.203 36.1494 111.738Z" fill="url(#paint3_linear)"/>
<path fill-rule="evenodd" clip-rule="evenodd" d="M111.783 32.898C111.472 33.0894 110.866 33.5778 110.437 33.9837C107.32 36.9318 103.761 40.3339 101.873 42.17C100.646 43.3627 98.699 45.2295 97.5455 46.3184C96.392 47.4073 94.4988 49.2175 93.3387 50.3404C92.179 51.4638 90.0054 53.5426 88.5092 54.9602C87.0129 56.3781 85.1221 58.1954 84.3076 58.9991C82.5058 60.7768 81.7785 60.9361 80.4684 59.8411C80.0607 59.5002 79.4823 59.0548 79.1825 58.8511C78.8826 58.6475 78.3735 58.2892 78.0511 58.0559C77.7286 57.822 77.1318 57.4086 76.725 57.1371C76.3187 56.8656 75.8147 56.4842 75.6054 56.2895C75.3961 56.0943 75.1185 55.935 74.9884 55.935C74.8583 55.935 74.641 55.779 74.5057 55.5876C74.3699 55.3967 74.0574 55.1336 73.8113 55.0031C73.314 54.7391 71.7762 53.6294 71.3364 53.2174C71.1809 53.0717 70.8202 52.8464 70.535 52.7163C70.2498 52.5866 70.0165 52.4113 70.0165 52.3269C70.0165 52.2425 69.7407 52.0323 69.4037 51.8597C69.0666 51.6872 68.5226 51.3242 68.195 51.0536C67.8669 50.7826 67.3154 50.3668 66.9693 50.1292C66.6229 49.8916 65.4486 49.0615 64.3597 48.2846C63.2707 47.5073 62.047 46.6521 61.6401 46.3834C60.8039 45.8314 60.7515 45.7923 59.8092 45.0051C59.3765 44.6435 58.9135 44.4328 58.5515 44.4328C57.925 44.4328 57.9896 44.2866 57.5512 46.6955C57.4286 47.3696 57.2198 48.138 57.0868 48.4029C56.9544 48.6674 56.7121 49.588 56.549 50.4484C56.1841 52.3717 55.9343 51.963 60.0543 56.1754C61.7481 57.9074 65.0008 61.243 67.2824 63.5887C69.5639 65.9344 72.6611 69.1084 74.1648 70.6423C75.6686 72.1763 78.1553 74.7129 79.6906 76.2794C81.226 77.8463 82.5497 79.128 82.6317 79.128C82.8825 79.128 84.5829 77.2896 86.9917 74.414C90.3627 70.3901 90.3142 70.4462 92.0626 68.4743C92.2465 68.2669 93.1101 67.251 93.9817 66.2163C95.3351 64.6102 100.1 58.9982 101.91 56.8778C104.385 53.9782 105.36 52.8638 105.796 52.4396C106.029 52.2123 106.22 51.979 106.22 51.921C106.22 51.863 106.454 51.5722 106.739 51.2743C107.024 50.9763 108.02 49.8039 108.952 48.6693C109.884 47.5346 110.833 46.3929 111.061 46.1322C111.289 45.8715 111.757 45.3289 112.101 44.9259C112.445 44.5233 112.895 44.0184 113.103 43.8049C113.31 43.5909 113.607 43.2307 113.763 43.0044C114.012 42.6429 114.815 41.6939 116.403 39.887C116.662 39.5919 117.171 38.9975 117.534 38.5662C117.897 38.1348 118.369 37.6026 118.582 37.3834C118.795 37.1637 119.191 36.6876 119.461 36.3246C119.73 35.9617 120.298 35.2861 120.722 34.8237C121.147 34.3612 121.494 33.9219 121.494 33.8474C121.494 33.5594 120.881 33.1191 120.481 33.1191C120.109 33.1191 117.811 32.9607 113.668 32.6496C112.596 32.5694 112.242 32.6161 111.783 32.898Z" fill="url(#paint4_linear)"/>
<defs>
<linearGradient id="paint0_linear" x1="94.5979" y1="0.598755" x2="94.5979" y2="192.696" gradientUnits="userSpaceOnUse">
<stop stop-color="#92C3EB"/>
<stop offset="1" stop-color="#B6E2D2"/>
</linearGradient>
<linearGradient id="paint1_linear" x1="101.643" y1="25.7673" x2="93.1272" y2="150.908" gradientUnits="userSpaceOnUse">
<stop stop-color="#E3D7BD"/>
<stop offset="0.0001" stop-color="#FFFEFD"/>
<stop offset="1" stop-color="#EBDEC2"/>
</linearGradient>
<linearGradient id="paint2_linear" x1="161.976" y1="32.4004" x2="43.9633" y2="187.477" gradientUnits="userSpaceOnUse">
<stop stop-color="#B58765"/>
<stop offset="1" stop-color="#D6C6BA"/>
</linearGradient>
<linearGradient id="paint3_linear" x1="93.8656" y1="105.144" x2="93.8656" y2="142.135" gradientUnits="userSpaceOnUse">
<stop stop-color="#616892"/>
<stop offset="1" stop-color="#707FA6"/>
</linearGradient>
<linearGradient id="paint4_linear" x1="88.928" y1="32.6145" x2="88.928" y2="79.128" gradientUnits="userSpaceOnUse">
<stop stop-color="#F7BAC5"/>
<stop offset="1" stop-color="#EC98BC"/>
</linearGradient>
</defs>
</svg>
