<svg width="95" height="85" viewBox="0 0 95 85" fill="none" xmlns="http://www.w3.org/2000/svg">
<path d="M55.1066 4.40488C54.3359 3.06553 53.2279 1.95341 51.8938 1.18022C50.5598 0.407034 49.0466 0 47.5064 0C45.9661 0 44.453 0.407034 43.1189 1.18022C41.7849 1.95341 40.6769 3.06553 39.9062 4.40488L27.3935 26.1726L30.5855 28.0128C39.3594 33.1093 46.7401 40.3089 52.0683 48.9686C57.3965 57.6282 60.5065 67.4784 61.1204 77.6394H52.3359C51.7277 69.0191 49.0234 60.6803 44.46 53.354C39.8966 46.0276 33.6135 39.9373 26.1613 35.6171L22.9693 33.7833L11.3121 54.1405L14.5041 55.9806C18.3726 58.2628 21.6737 61.3987 24.1578 65.1509C26.6419 68.9032 28.2439 73.1737 28.8426 77.6394H8.77759C8.5209 77.6436 8.26769 77.5793 8.04388 77.4529C7.82007 77.3266 7.63369 77.1428 7.50381 76.9204C7.37392 76.698 7.3052 76.445 7.30467 76.1871C7.30414 75.9293 7.37182 75.6759 7.50078 75.453L13.0932 65.7264C11.2042 64.1269 9.04086 62.8863 6.70916 62.0653L1.17419 71.7727C0.404495 73.1129 -0.000464101 74.633 3.99146e-07 76.1802C0.000464899 77.7273 0.406338 79.2472 1.17684 80.5869C1.94735 81.9267 3.05534 83.0392 4.38952 83.8127C5.7237 84.5863 7.23707 84.9935 8.77759 84.9936H36.3886V81.3197C36.3904 75.5103 35.0171 69.7837 32.382 64.6122C29.7469 59.4407 25.9255 54.9724 21.2329 51.5758L25.6251 43.933C31.6391 48.114 36.5552 53.6959 39.9528 60.2012C43.3504 66.7066 45.1284 73.9417 45.1347 81.2876V84.9679H68.5322V81.294C68.5216 69.8259 65.6653 58.5413 60.2213 48.4604C54.7774 38.3795 46.9176 29.8203 37.3526 23.5566L46.2328 8.0852C46.36 7.86421 46.5429 7.68072 46.7631 7.55316C46.9833 7.4256 47.233 7.35845 47.4872 7.35845C47.7414 7.35845 47.9911 7.4256 48.2113 7.55316C48.4315 7.68072 48.6144 7.86421 48.7417 8.0852L87.4673 75.453C87.5963 75.6759 87.6639 75.9293 87.6634 76.1871C87.6629 76.445 87.5942 76.698 87.4643 76.9204C87.3344 77.1428 87.148 77.3266 86.9242 77.4529C86.7004 77.5793 86.4472 77.6436 86.1905 77.6394H77.1315C77.2464 80.095 77.2592 82.5507 77.1315 85H86.2224C87.7629 84.9999 89.2763 84.5927 90.6105 83.8192C91.9446 83.0456 93.0527 81.9331 93.8232 80.5934C94.5937 79.2536 94.9995 77.7338 95 76.1866C95.0005 74.6394 94.5955 73.1193 93.8258 71.7791L55.1066 4.40488Z" fill="url(#paint0_linear)"/>
<defs>
<linearGradient id="paint0_linear" x1="47.5" y1="0" x2="47.5" y2="85" gradientUnits="userSpaceOnUse">
<stop stop-color="#616892"/>
<stop offset="1" stop-color="#707FA6"/>
</linearGradient>
</defs>
</svg>
