<svg width="192" height="192" viewBox="0 0 192 192" fill="none" xmlns="http://www.w3.org/2000/svg">
<path d="M0.209717 28.5053C0.209717 13.2612 12.5675 0.90332 27.8117 0.90332H163.593C178.837 0.90332 191.195 13.2611 191.195 28.5053V164.287C191.195 179.531 178.837 191.889 163.593 191.889H27.8117C12.5676 191.889 0.209717 179.531 0.209717 164.287V28.5053Z" fill="url(#paint0_linear)"/>
<path fill-rule="evenodd" clip-rule="evenodd" d="M110.593 92.1024C124.463 79.9247 119.418 55.3253 101.98 50.1004C83.1489 44.4588 65.607 60.003 69.5221 78.8619C73.3471 97.2856 96.2716 104.676 110.593 92.1024ZM144.282 141.969C144.282 126.187 133.438 117.218 108.911 112.717C90.3976 109.319 71.7846 111.996 56.8641 120.202C46.3415 125.989 44.2318 129.434 44.2318 140.826V148.978H144.282V141.969Z" fill="white"/>
<defs>
<linearGradient id="paint0_linear" x1="95.7023" y1="0.90332" x2="95.7023" y2="191.889" gradientUnits="userSpaceOnUse">
<stop stop-color="#FFA77B"/>
<stop offset="1" stop-color="#FFC57B"/>
</linearGradient>
</defs>
</svg>
