<svg width="197" height="192" viewBox="0 0 197 192" fill="none" xmlns="http://www.w3.org/2000/svg">
<path d="M2.02155 28.5053C2.02155 13.2611 14.3794 0.903275 29.6235 0.903275H165.405C180.649 0.903275 193.007 13.2611 193.007 28.5052V164.287C193.007 179.531 180.649 191.889 165.405 191.889H29.6235C14.3794 191.889 2.02155 179.531 2.02155 164.287V28.5053Z" fill="url(#paint0_linear)"/>
<path fill-rule="evenodd" clip-rule="evenodd" d="M68.9388 41.2163C68.5203 41.4631 67.9578 41.7777 67.6893 41.9152C67.4203 42.0533 66.9312 42.6152 66.6024 43.1642L66.004 44.162L66.0094 53.7273C66.0143 63.0415 66.0268 63.3176 66.4779 64.2491C68.0594 67.5116 72.8627 67.81 75.2595 64.7942L75.8953 63.9936V53.8409V43.6886L75.3155 42.944C73.7426 40.9266 70.7883 40.1261 68.9388 41.2163ZM124.461 41.4152C122.152 43.1109 122.199 42.856 122.205 53.6169C122.211 64.0398 122.193 63.8996 123.73 65.3654C125.075 66.6486 125.333 66.7306 127.685 66.6301C129.716 66.5437 130.561 66.0714 131.715 64.3795L132.309 63.5099V53.6186C132.309 42.5348 132.464 43.65 130.678 41.9228C129.233 40.525 126.029 40.2636 124.461 41.4152ZM47.5506 50.5615C46.2299 51.2191 44.156 53.0153 44.156 53.5017C44.156 53.6534 43.9359 54.0572 43.6669 54.399L43.1777 55.0208L43.1234 100.787L43.0691 146.554L43.8082 147.967C44.8294 149.918 46.5365 151.397 48.2234 151.795C49.6131 152.121 138.474 152.225 146.113 151.908L149.918 151.751L150.903 151C151.446 150.587 152.359 149.686 152.934 148.996L153.979 147.743L154.169 144.975C154.409 141.454 154.413 59.9534 154.172 56.8349C153.925 53.6305 153.039 52.3169 149.975 50.6153L148.728 49.9229H142.897C138.285 49.9229 136.98 49.9854 136.656 50.2224C136.273 50.5023 136.237 51.011 136.109 57.8855C135.966 65.5469 135.956 65.6393 135.042 66.8763C133.114 69.4888 132.021 69.9758 127.828 70.0915C123.615 70.2078 122.395 69.7056 120.053 66.8909C118.661 65.2181 118.504 64.1518 118.504 56.3349C118.504 50.6631 118.484 50.362 118.084 50.1479C117.423 49.7941 80.8671 49.8392 80.415 50.1946C80.1188 50.4278 80.053 51.336 79.9557 56.5534C79.8008 64.8534 79.416 66.3225 76.8394 68.4518C74.8432 70.1013 74.4019 70.2393 71.1127 70.2448C66.8795 70.2513 64.5317 68.923 63.0518 65.6844L62.4556 64.3795L62.355 57.3441C62.2741 51.6919 62.1953 50.2713 61.955 50.1191C61.7909 50.0148 58.7702 49.9283 55.243 49.9272L48.83 49.9245L47.5506 50.5615ZM193.07 64.8143C193.07 64.9937 193.229 65.1404 193.423 65.1404C193.711 65.1404 193.727 65.0812 193.505 64.8143C193.356 64.635 193.197 64.4882 193.152 64.4882C193.107 64.4882 193.07 64.635 193.07 64.8143ZM0.267682 78.1367C-0.0437328 78.8747 0.0763768 79.3068 0.480727 78.9024C0.607359 78.7758 0.679098 78.391 0.639967 78.0475L0.568771 77.4231L0.267682 78.1367ZM196.555 78.184C196.555 78.4829 196.65 78.8742 196.766 79.0535C196.933 79.3117 196.977 79.2666 196.977 78.8361C196.977 78.5372 196.881 78.1459 196.766 77.9666C196.599 77.7084 196.555 77.7535 196.555 78.184ZM146.355 78.9883C147.258 79.3845 147.236 78.5421 147.228 111.929C147.22 146.333 147.289 144.563 145.958 144.783C144.413 145.038 51.8892 144.944 51.1501 144.687C50.0283 144.296 50.0522 145.008 50.0321 111.328L50.0131 79.7236L50.6061 79.3345C51.0756 79.0258 51.836 78.9182 54.2539 78.8171C60.3393 78.5628 145.748 78.7215 146.355 78.9883ZM102.119 88.4628C101.611 88.834 101.66 99.8173 102.172 100.434C102.492 100.819 114.591 100.994 115.176 100.622C116.095 100.037 116.308 89.1498 115.412 88.5226C114.76 88.0655 102.736 88.0117 102.119 88.4628ZM122.678 88.4449C122.239 88.884 122.314 100.006 122.759 100.451C123.332 101.024 135.644 100.957 136.361 100.378L136.874 99.9624V94.352V88.7416L136.331 88.4661C135.573 88.0818 123.06 88.0628 122.678 88.4449ZM61.0534 106.369C59.8474 106.581 59.7806 106.948 59.8518 112.937C59.9105 117.824 59.9572 118.427 60.305 118.774C60.9061 119.376 73.022 119.49 73.5529 118.9C74.3437 118.021 74.335 107.107 73.5437 106.684C73.1426 106.469 62.0697 106.19 61.0534 106.369ZM81.3845 106.641L80.678 107.091V112.175C80.678 118.115 80.7313 118.523 81.566 118.954C82.4568 119.415 93.1699 119.417 94.2721 118.956L95.0259 118.641V112.755V106.869L94.4504 106.65C93.1417 106.153 82.1628 106.144 81.3845 106.641ZM126.113 106.445C124.379 106.505 122.839 106.633 122.689 106.73C122.223 107.031 122.305 118.473 122.777 118.864C123.336 119.329 135.197 119.418 136.076 118.965C137.326 118.318 137.48 107.136 136.245 106.674C135.621 106.441 129.958 106.312 126.113 106.445ZM102.146 106.68C101.6 106.998 101.562 118.015 102.104 118.788C102.44 119.268 102.48 119.271 108.696 119.271H114.951L115.423 118.768C116.087 118.061 116.17 107.244 115.515 106.748C115.038 106.385 102.758 106.323 102.146 106.68ZM196.711 113.527C196.622 113.617 196.551 113.944 196.555 114.253C196.561 114.746 196.589 114.767 196.787 114.427C197.035 114.002 196.973 113.264 196.711 113.527ZM0.0328975 113.764C0.0372454 113.864 0.185616 114.19 0.362248 114.489L0.683989 115.032L0.62638 114.397C0.577467 113.855 0.0111582 113.251 0.0328975 113.764ZM61.0404 124.864C59.948 125.027 59.8083 125.784 59.8083 131.535C59.8083 136.615 59.8105 136.641 60.3327 137.248L60.8572 137.858L65.7132 137.932C72.0203 138.027 73.1959 137.908 73.5861 137.134C74.3236 135.671 74.1644 125.567 73.3948 125.005C73.0008 124.717 62.7985 124.6 61.0404 124.864ZM81.7079 124.85C80.8068 125.099 80.678 125.926 80.678 131.447V136.687L81.3845 137.342L82.091 137.997L87.8905 137.928C93.3917 137.862 93.7216 137.835 94.3036 137.4L94.9172 136.942L94.9754 131.396C95.0297 126.196 95.0069 125.818 94.6145 125.333L94.1955 124.815L88.1433 124.779C84.8144 124.76 81.9188 124.792 81.7079 124.85ZM102.815 124.851C101.882 125.008 101.765 125.761 101.77 131.532C101.774 136.362 101.807 136.814 102.192 137.315L102.61 137.858H108.728H114.846L115.381 137.237L115.916 136.614L115.852 131.102C115.793 126.154 115.747 125.551 115.399 125.203C115.021 124.824 104.687 124.535 102.815 124.851ZM123.341 124.859C122.522 125.017 122.448 125.508 122.377 131.287C122.287 138.634 121.433 137.858 129.616 137.858H135.933L136.458 137.248C136.981 136.64 136.983 136.621 136.97 131.596C136.957 126.064 136.811 125.152 135.896 124.899C135.312 124.738 124.155 124.703 123.341 124.859Z" fill="white"/>
<defs>
<linearGradient id="paint0_linear" x1="97.5142" y1="0.903275" x2="97.5142" y2="191.889" gradientUnits="userSpaceOnUse">
<stop stop-color="#FFA77B"/>
<stop offset="1" stop-color="#FFC57B"/>
</linearGradient>
</defs>
</svg>
