<svg width="91" height="87" viewBox="0 0 91 87" fill="none" xmlns="http://www.w3.org/2000/svg">
<path d="M20.3836 62.9091L17.6849 67.1182L17.7603 67.1666L17.8374 67.2122L20.3836 62.9091ZM52.6471 82L50.1008 86.3031C51.6464 87.2177 53.5638 87.2331 55.1238 86.3435C56.6839 85.4538 57.6471 83.7959 57.6471 82H52.6471ZM52.6471 60.3437V55.3437H47.6471V60.3437H52.6471ZM32.3971 10H58.6029V0H32.3971V10ZM81 32.6719C81 45.2404 70.9256 55.3437 58.6029 55.3437V65.3437C76.5423 65.3437 91 50.6689 91 32.6719H81ZM58.6029 10C70.9256 10 81 20.1034 81 32.6719H91C91 14.6749 76.5423 0 58.6029 0V10ZM32.3971 0C14.4577 0 0 14.6749 0 32.6719H10C10 20.1034 20.0744 10 32.3971 10V0ZM23.0824 58.7C16.2895 54.3445 13.1668 49.6073 11.6284 45.3262C10.0334 40.8879 10 36.6017 10 32.6719H0C0 36.5434 -0.0334318 42.444 2.21755 48.708C4.52504 55.1293 9.09416 61.61 17.6849 67.1182L23.0824 58.7ZM17.8374 67.2122L50.1008 86.3031L55.1933 77.6969L22.9299 58.606L17.8374 67.2122ZM58.6029 55.3437H52.6471V65.3437H58.6029V55.3437ZM57.6471 82V60.3437H47.6471V82H57.6471Z" fill="url(#paint0_linear)"/>
<defs>
<linearGradient id="paint0_linear" x1="45.5" y1="5" x2="45.5" y2="82" gradientUnits="userSpaceOnUse">
<stop stop-color="#616892"/>
<stop offset="1" stop-color="#707FA6"/>
</linearGradient>
</defs>
</svg>
