<svg width="194" height="193" viewBox="0 0 194 193" fill="none" xmlns="http://www.w3.org/2000/svg">
<path d="M192.996 96.9517C192.996 149.998 149.994 193 96.9478 193C43.9017 193 0.899414 149.998 0.899414 96.9517C0.899414 43.9056 43.9017 0.90332 96.9478 0.90332C149.994 0.90332 192.996 43.9056 192.996 96.9517Z" fill="url(#paint0_linear)"/>
<path fill-rule="evenodd" clip-rule="evenodd" d="M22.8869 57.5057C21.817 57.7352 20.0305 58.2757 18.9169 58.7079L16.8929 59.4934L14.5184 58.6855C11.241 57.5708 11.4016 57.5132 9.88672 60.3482C8.50416 62.9367 8.51163 63.1587 9.9865 63.1587C10.8403 63.1587 10.6065 63.4815 8.57939 65.1042L6.66963 66.6325L5.00319 70.8015C3.35596 74.9209 1.22315 81.4687 1.4526 81.6982C1.5177 81.7633 2.01395 81.1518 2.55449 80.3391C5.79826 75.4625 11.1482 69.7775 14.9159 67.2034L16.9031 65.8454L17.8609 66.3614C26.0463 70.7695 31.6694 80.996 40.4733 107.487C50.2905 137.026 56.0615 146.962 67.6315 154.244C75.2514 159.038 86.9138 160.59 96.3511 158.065C98.6786 157.442 98.9614 157.421 100.2 157.783C109.07 160.376 120.266 159.446 127.523 155.513C137.709 149.994 143.445 140.636 151.935 115.685C160.776 89.7022 167.45 79.5051 178.761 74.6979L180.522 73.9492L182.717 75.0596C185.553 76.4934 188.461 78.5553 190.937 80.8898C192.102 81.9874 192.842 82.5237 192.739 82.196C192.643 81.8903 192.252 80.5771 191.869 79.2778C190.844 75.8056 189.724 72.7748 189.382 72.5469C189.217 72.437 189.082 72.1195 189.082 71.841C189.082 71.5629 188.651 70.2578 188.124 68.9408L187.167 66.546L186.179 66.7024C185.636 66.7883 184.187 67.1244 182.96 67.4499L180.729 68.0412L178.677 67.3987C167.836 64.0034 153.518 66.2728 144.384 72.8335C134.959 79.6038 129.868 88.6926 121.426 113.824C113.161 138.428 109.312 145.22 100.759 150.301C98.4834 151.652 96.9551 151.174 92.2829 147.654C83.765 141.235 79.1301 132.484 70.275 106.097C62.6818 83.4687 59.6211 76.661 53.7707 69.388C46.0959 59.8466 33.8908 55.1509 22.8869 57.5057ZM35.9489 63.5578C48.6657 67.3662 54.5716 76.3189 64.9299 107.487C73.9996 134.777 79.477 144.939 88.9591 152.067C91.0209 153.617 90.8662 153.761 87.139 153.754C75.7871 153.734 67.2703 149.329 60.5522 140.003C55.4756 132.955 52.6485 126.45 45.8184 106.097C37.0188 79.8738 32.7057 71.381 24.7651 64.6405C23.0469 63.1817 23.0379 63.1662 23.7924 62.9997C24.2113 62.9074 24.6792 62.7825 24.8324 62.7228C25.946 62.2836 33.6203 62.8604 35.9489 63.5578ZM172.546 71.6248C172.546 71.6953 171.803 72.2572 170.896 72.8735C160.893 79.6662 154.977 89.643 146.828 113.462C140.101 133.124 136.898 139.79 131.419 145.527C125.502 151.723 116.766 154.737 107.924 153.632L106.273 153.426L108.3 151.604C115.594 145.049 119.1 138.176 126.692 115.546C136.503 86.3042 142.766 77.2607 156.131 73.0458C159.956 71.8394 172.546 70.7492 172.546 71.6248Z" fill="white"/>
<path fill-rule="evenodd" clip-rule="evenodd" d="M22.6892 56.5991C34.071 54.1635 46.618 59.0225 54.4878 68.8063C60.4546 76.224 63.5583 83.1818 71.1483 105.8C80.0127 132.215 84.5771 140.69 92.8358 146.913C95.1873 148.685 96.6164 149.583 97.6915 149.919C98.1983 150.077 98.6008 150.101 98.9739 150.038C99.3579 149.973 99.7698 149.808 100.282 149.503C108.501 144.622 112.266 138.17 120.545 113.527C128.987 88.396 134.152 79.0399 143.84 72.0802C153.213 65.3478 167.834 63.0327 178.949 66.5139L180.746 67.0765L182.718 66.5538C183.947 66.2278 185.436 65.8806 186.03 65.7866L187.748 65.5148L188.979 68.5955C188.979 68.5956 188.979 68.5955 188.979 68.5955C189.249 69.2692 189.495 69.9428 189.675 70.4888C189.765 70.7609 189.841 71.0097 189.896 71.2153C189.94 71.3788 190.003 71.6287 190.003 71.8393C190.003 71.8358 190.003 71.8422 190.006 71.8565C190.006 71.8594 190.007 71.8622 190.008 71.865C190.092 71.9389 190.151 72.0123 190.185 72.0571C190.244 72.1334 190.295 72.2143 190.339 72.2891C190.427 72.4393 190.518 72.6219 190.609 72.8204C190.792 73.2207 191.005 73.7535 191.234 74.3734C191.693 75.6169 192.235 77.2628 192.752 79.0142C193.136 80.317 193.525 81.6209 193.618 81.917L193.619 81.9182C193.64 81.9869 193.671 82.1052 193.67 82.2506C193.669 82.3966 193.635 82.654 193.432 82.8857C193.221 83.1283 192.952 83.1997 192.773 83.2125C192.608 83.2245 192.474 83.1923 192.401 83.1711C192.154 83.0989 191.915 82.9326 191.766 82.8249C191.4 82.5592 190.89 82.1183 190.299 81.5616C187.883 79.2839 185.047 77.2748 182.296 75.8838L180.484 74.9675L179.119 75.5478C168.22 80.18 161.65 89.9921 152.807 115.981L151.931 115.683C160.772 89.7005 167.446 79.5034 178.757 74.6962L180.518 73.9475L182.713 75.058C185.549 76.4917 188.457 78.5536 190.933 80.8881C191.152 81.0945 191.356 81.2811 191.543 81.4458C191.689 81.5752 191.824 81.691 191.947 81.7924C192.223 82.0196 192.436 82.1742 192.573 82.2452C192.573 82.2452 192.573 82.2453 192.573 82.2452C192.71 82.3166 192.769 82.3035 192.735 82.1943C192.696 82.07 192.608 81.7792 192.492 81.3905C192.449 81.2473 192.402 81.0908 192.353 80.9244C192.206 80.4317 192.034 79.8525 191.865 79.2761C190.84 75.8039 189.721 72.7731 189.378 72.5452C189.213 72.4353 189.078 72.1178 189.078 71.8393C189.078 71.5613 188.647 70.2561 188.12 68.9391L187.163 66.5443L186.175 66.7007C185.632 66.7866 184.183 67.1228 182.956 67.4483L180.725 68.0395L178.673 67.397C167.832 64.0017 153.514 66.2711 144.38 72.8318C134.955 79.6021 129.864 88.691 121.422 113.822C113.157 138.426 109.308 145.219 100.755 150.299C98.4793 151.65 96.9511 151.173 92.2789 147.652C83.761 141.234 79.1261 132.482 70.271 106.095C62.6778 83.467 59.6171 76.6593 53.7667 69.3863C46.0919 59.845 33.8868 55.1493 22.8829 57.504C21.813 57.7335 20.0265 58.274 18.9129 58.7062L16.8889 59.4917L14.5144 58.6838C12.8357 58.1129 12.059 57.8193 11.4971 58.0496C10.9619 58.269 10.6217 58.9636 9.8827 60.3465C8.68805 62.5832 8.53126 63.053 9.46226 63.1393C9.48852 63.1418 9.51562 63.1439 9.54361 63.1458C9.67171 63.1543 9.81797 63.157 9.98249 63.157C10.5664 63.157 10.6416 63.308 9.98249 63.9225C9.95485 63.9482 9.92593 63.9748 9.89569 64.0022C9.86738 64.0279 9.83791 64.0543 9.80729 64.0815C9.51011 64.3451 9.10364 64.6797 8.57538 65.1025L6.66562 66.6308L4.99918 70.7998C3.91258 73.5172 2.61468 77.2913 1.92294 79.6114C1.89666 79.6995 1.87126 79.7855 1.84678 79.8693C1.84678 79.8693 1.84678 79.8693 1.84678 79.8693C1.74535 80.2165 1.6597 80.5253 1.59302 80.7859C1.45719 81.3169 1.40007 81.648 1.44859 81.6965C1.48566 81.7336 1.66254 81.5512 1.90779 81.2373C1.96083 81.1694 2.01708 81.0953 2.0758 81.016C2.22235 80.818 2.38432 80.5872 2.55048 80.3374C2.62246 80.2292 2.69547 80.1206 2.76949 80.0116C6.03089 75.2101 11.2277 69.7187 14.9119 67.2017L16.899 65.8437L17.8569 66.3597C26.0423 70.7678 31.6654 80.9943 40.4693 107.485C50.2865 137.025 56.0574 146.96 67.6275 154.242L67.1346 155.025C55.2594 147.551 49.4077 137.315 39.5911 107.777C35.1918 94.5394 31.6066 85.4279 28.1202 79.0872C24.6426 72.7624 21.3013 69.2657 17.4181 67.1745L16.9561 66.9256L15.4341 67.9658C11.788 70.4567 6.51675 76.0455 3.32101 80.8499C3.04002 81.2724 2.76341 81.6536 2.54 81.929C2.43216 82.062 2.31733 82.1945 2.20934 82.2971C2.16273 82.3413 2.07289 82.4234 1.95623 82.4909C1.90256 82.522 1.77661 82.59 1.60301 82.6161C1.40698 82.6455 1.06913 82.6258 0.794218 82.3509C0.563289 82.1199 0.525779 81.846 0.517365 81.7846L0.517101 81.7827C0.503006 81.6801 0.505312 81.5887 0.508559 81.5302C0.515331 81.4083 0.536014 81.2777 0.558446 81.1592C0.60483 80.9142 0.683283 80.5959 0.782006 80.2333C0.981133 79.5018 1.28292 78.5169 1.64023 77.4202C2.35518 75.2257 3.30696 72.5393 4.13986 70.4563C4.13988 70.4563 4.13985 70.4564 4.13986 70.4563L5.89688 66.0607L7.99707 64.3801C7.9971 64.38 7.99703 64.3801 7.99707 64.3801C8.23576 64.189 8.44683 64.0181 8.63217 63.8654C8.49268 63.7932 8.34801 63.6894 8.22368 63.5383C8.01954 63.2903 7.94511 63.0065 7.93622 62.7552C7.92116 62.3295 8.09356 61.8815 8.26168 61.5025C8.44802 61.0824 8.72231 60.5548 9.06642 59.9106C9.11446 59.8207 9.1615 59.7323 9.20748 59.646C9.50981 59.0782 9.76982 58.5899 10.0133 58.2226C10.2973 57.7942 10.6609 57.3655 11.2249 57.163C11.7737 56.9661 12.3349 57.0487 12.8464 57.1771C13.2954 57.2898 13.8487 57.4788 14.5062 57.7033C14.6058 57.7373 14.7079 57.7722 14.8124 57.8077L16.8681 58.5071L18.578 57.8435C18.578 57.8435 18.578 57.8435 18.578 57.8435C19.7336 57.395 21.5675 56.8397 22.6892 56.5991ZM96.5863 158.957C97.7767 158.638 98.3365 158.506 98.7474 158.476C99.0925 158.451 99.3418 158.496 99.9367 158.67C109.01 161.322 120.461 160.389 127.96 156.325C138.492 150.618 144.318 140.927 152.807 115.981L151.931 115.683C143.441 140.634 137.705 149.992 127.519 155.512C120.262 159.444 109.066 160.375 100.196 157.782C98.9574 157.419 98.6746 157.44 96.3471 158.063C86.9098 160.589 75.2474 159.037 67.6275 154.242L67.1346 155.025C74.9923 159.97 86.9238 161.543 96.5863 158.957ZM0.935078 80.9547C0.928875 80.9606 0.929409 80.9596 0.936019 80.9538C0.935698 80.9541 0.935384 80.9544 0.935078 80.9547ZM189.89 71.7745C189.891 71.7749 189.891 71.7754 189.892 71.7758ZM35.9449 63.5562L35.6794 64.4427C34.6229 64.1263 32.2153 63.8121 29.8617 63.6352C28.7014 63.548 27.5882 63.4967 26.7044 63.4936C26.2615 63.4921 25.8885 63.5027 25.6018 63.5249C25.3077 63.5477 25.1853 63.5777 25.1696 63.5816C25.1682 63.5819 25.1676 63.5821 25.1679 63.582L25.1648 63.5832C25.1229 63.5995 25.0708 63.6175 25.011 63.6365C25.1173 63.7272 25.2334 63.8258 25.3601 63.9334C33.5237 70.8633 37.901 79.6042 46.6917 105.801C53.5231 126.157 56.3135 132.539 61.2991 139.46C67.8462 148.549 76.0861 152.807 87.1365 152.827C87.6348 152.828 88.0591 152.826 88.4175 152.819M88.399 152.805C78.6609 145.485 73.1133 135.055 64.0477 107.777C58.8676 92.1899 54.8335 82.2672 50.5474 75.7704C46.306 69.3413 41.8297 66.2845 35.6794 64.4427L35.9449 63.5562C48.6617 67.3645 54.5676 76.3173 64.9259 107.485C73.9955 134.775 79.473 144.937 88.9551 152.065C91.0169 153.615 90.8622 153.759 87.135 153.753C75.7831 153.732 67.2663 149.327 60.5482 140.001C55.4715 132.953 52.6445 126.448 45.8144 106.095C37.0148 79.8721 32.7017 71.3793 24.7611 64.6388C24.4132 64.3434 24.1353 64.1071 23.9197 63.9168C23.9099 63.9082 23.9002 63.8996 23.8906 63.8911C23.0733 63.1667 23.1936 63.1292 23.7884 62.998C23.9139 62.9704 24.0437 62.9398 24.1683 62.9089C24.175 62.9072 24.1817 62.9056 24.1884 62.9039C24.4714 62.8333 24.7236 62.762 24.8284 62.7211C25.942 62.2819 33.6163 62.8587 35.9449 63.5562M107.92 153.63C116.762 154.735 125.498 151.722 131.415 145.525C136.894 139.788 140.097 133.122 146.824 113.46C154.973 89.6413 160.889 79.6645 170.892 72.8718C171.199 72.6636 171.486 72.4617 171.733 72.2828C171.772 72.254 171.811 72.2259 171.848 72.1984C172.267 71.8905 172.542 71.666 172.542 71.6232C172.542 71.4828 172.218 71.393 171.659 71.346C171.597 71.3407 171.531 71.336 171.463 71.3318C168.333 71.1398 159.271 72.0527 156.127 73.0441C142.762 77.2591 136.498 86.3025 126.688 115.544C119.096 138.175 115.59 145.047 108.296 151.603L106.269 153.424L107.92 153.63ZM108.398 152.755L108.915 152.291C116.41 145.555 119.976 138.461 127.566 115.839C132.47 101.221 136.454 91.7613 140.836 85.4361C145.175 79.1709 149.908 75.9758 156.405 73.9267C158.21 73.3576 162.221 72.789 165.849 72.4748C167.491 72.3327 169.019 72.2457 170.187 72.2331C160.028 79.2062 154.056 89.4645 145.949 113.161C139.216 132.839 136.066 139.315 130.746 144.886C125.121 150.776 116.838 153.699 108.398 152.755Z" fill="white"/>
<defs>
<linearGradient id="paint0_linear" x1="136.94" y1="1.37114" x2="72.4077" y2="61.0741" gradientUnits="userSpaceOnUse">
<stop stop-color="#BDECF4"/>
<stop offset="1" stop-color="#98CCF9"/>
</linearGradient>
</defs>
</svg>
