<svg width="300" height="193" viewBox="0 0 300 193" fill="none" xmlns="http://www.w3.org/2000/svg">
<path fill-rule="evenodd" clip-rule="evenodd" d="M101.849 0.90332C106.481 31.4474 111.675 93.7501 95.3974 98.6077L72.0721 13.5994H14.9998C14.8343 22.7994 11.625 44.5115 0.111328 57.7595C3.75073 58.6795 12.9154 57.5387 20.4589 45.6155L19.4663 72.6636L34.851 54.4475V84.8076L43.2878 76.5276C52.2209 96.2157 68.5982 146.632 62.6428 190.792L125.174 193C127.49 176.624 135.695 142.989 149.988 139.456V6.9632C134.899 7.25653 118.042 5.79771 101.849 0.90332ZM198.128 0.90332C193.496 31.4474 188.302 93.7501 204.58 98.6077L227.905 13.5994H284.977C285.143 22.7994 288.352 44.5115 299.866 57.7595C296.226 58.6795 287.062 57.5387 279.518 45.6155L280.511 72.6636L265.126 54.4475V84.8076L256.689 76.5276C247.756 96.2157 231.379 146.632 237.334 190.792L174.803 193C172.487 176.624 164.282 142.989 149.989 139.456V6.9632C165.078 7.25653 181.935 5.79771 198.128 0.90332Z" fill="url(#paint0_linear)"/>
<path fill-rule="evenodd" clip-rule="evenodd" d="M134.04 24.1743C129.611 26.2455 129.346 45.3611 133.672 50.7834L134.821 52.2243L135.853 51.6227C136.929 50.9952 137.594 50.0683 137.861 48.8231C137.948 48.4199 138.089 47.9802 138.176 47.8461C138.583 47.215 139.238 42.0993 139.333 38.8098C139.373 37.4181 138.834 32.2121 138.524 30.9946C137.588 27.3208 137.353 26.5163 137.126 26.2061C135.357 23.7998 135.143 23.6586 134.04 24.1743ZM171.236 30.1633C170.32 30.6585 169.357 31.5489 169.357 31.8993C169.357 32.0146 168.956 32.8968 168.465 33.8595C167.974 34.8231 167.384 36.4402 167.152 37.4547C166.311 41.1447 166.048 42.2477 165.784 43.206C164.832 46.6563 165.596 55.0007 167.016 56.6454C167.994 57.7807 169.952 57.2533 170.672 55.6613C170.855 55.259 171.078 54.8925 171.168 54.8479C171.259 54.8032 171.333 54.6691 171.333 54.5511C171.333 54.4322 171.624 53.8252 171.98 53.2013C172.335 52.5774 172.687 51.7219 172.761 51.3C172.835 50.8781 172.984 50.3132 173.09 50.0441C175.07 45.0697 175.474 33.7657 173.765 31.1931C172.893 29.8818 172.244 29.6181 171.236 30.1633ZM140.022 67.6902C138.542 68.6306 138.693 68.1381 137.747 75.1041C137.517 76.798 137.182 78.7207 137.003 79.3777C136.823 80.0356 136.365 82.441 135.984 84.7249C135.197 89.4401 134.957 90.0578 134.234 89.2533C133.416 88.3442 133.104 87.024 132.479 81.8278C132.071 78.4481 131.346 74.9539 130.963 74.5275C130.69 74.2236 130.295 76.1499 130.053 78.9746C129.815 81.7662 129.185 86.6262 129.042 86.7853C128.773 87.0839 128.252 85.8852 127.353 82.8933C126.515 80.1027 126.066 77.943 125.302 73.0017C125.049 71.3596 124.975 71.2711 124.612 72.1677C124.332 72.8604 124.245 75.012 124.104 84.8474C123.907 98.4862 123.865 99.0225 122.337 107.627C122.045 109.267 122.228 112.18 122.683 113.139L122.991 113.789L123.222 113.117C123.35 112.749 123.651 111.568 123.891 110.495C124.131 109.42 124.518 108.238 124.751 107.867C124.983 107.497 125.45 106.315 125.788 105.24C126.88 101.768 127.339 101.718 128.092 104.996C128.921 108.604 129.217 108.133 130.155 101.712C130.223 101.249 130.376 100.464 130.497 99.9682L130.716 99.0654L131.851 99.3461C133.15 99.667 133.174 99.7189 133.575 103.042C133.867 105.464 134.44 107.573 134.853 107.75C135.407 107.986 136.599 106.212 136.754 104.923C136.83 104.291 136.982 103.5 137.092 103.164C137.203 102.829 137.447 101.125 137.636 99.3783C138.058 95.4792 138.448 94.318 139.26 94.5361C140.359 94.8311 140.776 95.0823 140.892 95.5185C141.042 96.0825 141.826 99.8467 142.026 100.966C142.655 104.486 144.1 107.42 144.813 106.628C144.969 106.453 146.302 101.273 146.302 100.84C146.302 100.775 146.743 100.722 147.282 100.722C148.561 100.722 148.717 101.068 148.717 103.893C148.717 108.11 150.525 109.283 151.356 105.607C152.417 100.91 153.801 102.247 154.642 108.782C155.114 112.448 155.892 114.726 156.485 114.178C156.96 113.741 158.506 109.535 159.009 107.316C159.207 106.443 159.433 105.618 159.512 105.483C159.591 105.348 159.724 104.833 159.807 104.339C159.965 103.401 160.719 102.328 161.706 101.637C162.566 101.036 162.98 102.159 163.198 105.691C163.322 107.702 163.477 108.617 163.789 109.187L164.213 109.959L164.655 109.432C165.665 108.226 166.326 106.485 167.08 103.043C167.986 98.9045 169.782 100.261 170.553 105.669C171.109 109.564 171.666 111.957 172.018 111.957C173.152 111.957 174.221 109.937 174.728 106.833C175.308 103.287 175.81 102.58 177.028 103.592C178.01 104.406 178.576 105.189 178.779 106.01C178.893 106.464 179.269 107.355 179.617 107.992C180.245 109.14 181.214 111.333 181.214 111.605C181.214 111.683 181.59 112.261 182.049 112.889C182.508 113.519 183.049 114.445 183.253 114.948C183.891 116.528 184.727 115.913 184.727 113.865C184.726 112.873 184.349 110.276 183.845 107.805C182.97 103.513 182.46 94.782 182.497 84.7249C182.527 76.5021 182.243 70.1931 181.843 70.1931C181.738 70.1931 181.653 70.2387 181.653 70.2941C181.653 71.0941 180.89 74.3863 180.465 75.4196C179.879 76.8445 179.693 77.825 179.012 83.0748C178.231 89.0951 176.873 88.9923 175.845 82.8352C175.19 78.9156 174.352 76.5236 173.835 77.0992C173.714 77.2333 173.368 79.2195 172.664 83.8337C172.167 87.0883 172.199 87.0266 171.458 86.1453C170.525 85.036 170.35 84.1001 169.472 75.5662C169.162 72.5511 168.24 68.6029 168.075 69.5826C168.029 69.8516 167.914 70.1815 167.819 70.3155C167.608 70.6141 167.241 73.2958 167.051 75.9327C166.922 77.7142 166.664 79.8211 166.377 81.4444C166.268 82.0576 166.241 82.0665 165.199 81.8287L164.131 81.5856L163.796 80.1026C163.612 79.2865 163.309 77.7079 163.123 76.5951C162.345 71.9576 160.723 73.8508 159.925 80.3288C159.672 82.3829 159.525 83.1955 158.92 85.8852C158.073 89.6484 156.811 86.9131 155.849 79.2293C155.012 72.5422 154.336 71.5321 153.424 75.6082C153.235 76.4583 152.99 77.5488 152.88 78.0324C152.673 78.9495 152.195 81.7054 151.691 84.8822C151.427 86.5422 150.808 88.5105 150.547 88.5105C150.176 88.5105 149.339 86.9846 148.839 85.3962C148.512 84.3548 148.103 83.0641 147.932 82.5269C146.813 79.0211 146.312 79.3849 145.412 84.3584C144.806 87.7051 144.698 87.8714 143.804 86.8327C143.006 85.9066 142.495 83.5629 142.038 78.7413C141.841 76.6594 141.589 74.1315 141.478 73.1241C141.366 72.1167 141.208 70.5784 141.126 69.705C140.897 67.2799 140.838 67.1718 140.022 67.6902Z" fill="url(#paint1_linear)"/>
<defs>
<linearGradient id="paint0_linear" x1="212.393" y1="1.37114" x2="151.797" y2="88.8518" gradientUnits="userSpaceOnUse">
<stop stop-color="#BDECF4"/>
<stop offset="1" stop-color="#98CCF9"/>
</linearGradient>
<linearGradient id="paint1_linear" x1="153.462" y1="23.9306" x2="153.462" y2="115.841" gradientUnits="userSpaceOnUse">
<stop stop-color="#616892"/>
<stop offset="1" stop-color="#707FA6"/>
</linearGradient>
</defs>
</svg>
