<svg width="44" height="47" viewBox="0 0 44 47" fill="none" xmlns="http://www.w3.org/2000/svg">
<path fill-rule="evenodd" clip-rule="evenodd" d="M3.25 21.9831C3.25 11.6345 11.6233 3.25 21.9466 3.25C32.2699 3.25 40.6432 11.6345 40.6432 21.9831C40.6432 27.0223 38.6594 31.5938 35.4291 34.9617C34.8556 35.5596 34.8754 36.5091 35.4733 37.0825C36.0712 37.656 37.0207 37.6362 37.5941 37.0383C41.3392 33.1337 43.6432 27.8261 43.6432 21.9831C43.6432 9.9828 33.9319 0.25 21.9466 0.25C9.96136 0.25 0.25 9.9828 0.25 21.9831C0.25 27.8261 2.554 33.1337 6.29909 37.0383C6.87254 37.6362 7.82208 37.656 8.41995 37.0825C9.01782 36.5091 9.03763 35.5596 8.46418 34.9617C5.23385 31.5938 3.25 27.0223 3.25 21.9831ZM11.0179 21.9831C11.0179 15.9324 15.9134 11.032 21.9466 11.032C27.9799 11.032 32.8753 15.9324 32.8753 21.9831C32.8753 24.0874 32.2845 26.0487 31.2609 27.7148C30.8273 28.4207 31.048 29.3444 31.7538 29.7781C32.4597 30.2117 33.3835 29.991 33.8171 29.2852C35.1227 27.16 35.8753 24.6572 35.8753 21.9831C35.8753 14.2806 29.6418 8.03196 21.9466 8.03196C14.2514 8.03196 8.01793 14.2806 8.01793 21.9831C8.01793 24.6572 8.77054 27.16 10.0761 29.2852C10.5098 29.991 11.4335 30.2117 12.1394 29.7781C12.8453 29.3444 13.0659 28.4207 12.6323 27.7148C11.6087 26.0487 11.0179 24.0874 11.0179 21.9831ZM25.591 27.4353C25.4862 27.1912 25.3605 26.9682 25.2175 26.7662C27.1686 25.7234 28.504 23.6043 28.504 21.1597C28.504 17.6831 25.803 14.8647 22.4712 14.8647C19.1394 14.8647 16.4385 17.6831 16.4385 21.1597C16.4385 23.5467 17.7116 25.6233 19.5879 26.6906C19.43 26.9013 19.2913 27.1364 19.1761 27.3957L11.6291 44.3912C11.2929 45.1484 11.6341 46.0347 12.3912 46.3709C13.1484 46.7071 14.0347 46.3659 14.3709 45.6088L17.3318 38.941C17.6068 39.2819 18.0279 39.5 18.5 39.5H26.5C26.83 39.5 27.1352 39.3934 27.3829 39.2128L30.1217 45.5918C30.4485 46.353 31.3306 46.7052 32.0918 46.3783C32.853 46.0515 33.2052 45.1694 32.8783 44.4082L25.591 27.4353ZM26.2181 36.5L22.8344 28.6189C22.6623 28.2179 22.0951 28.2144 21.918 28.6132L18.4147 36.5024C18.4429 36.5008 18.4714 36.5 18.5 36.5H26.2181ZM22.4712 24.4548C24.0271 24.4548 25.504 23.1012 25.504 21.1597C25.504 19.2183 24.0271 17.8647 22.4712 17.8647C20.9153 17.8647 19.4385 19.2183 19.4385 21.1597C19.4385 23.1012 20.9153 24.4548 22.4712 24.4548Z" fill="url(#paint0_linear)"/>
<defs>
<linearGradient id="paint0_linear" x1="37.3257" y1="8.87822" x2="-1.66332" y2="40.6601" gradientUnits="userSpaceOnUse">
<stop stop-color="#00DDFD"/>
<stop offset="1" stop-color="#00AAFE"/>
</linearGradient>
</defs>
</svg>
