<svg width="193" height="192" viewBox="0 0 193 192" fill="none" xmlns="http://www.w3.org/2000/svg">
<path d="M82.7473 21.4395C90.3542 13.872 102.646 13.872 110.253 21.4395L171.305 82.1756C178.968 89.799 178.968 102.201 171.305 109.824L110.253 170.56C102.646 178.128 90.3542 178.128 82.7473 170.56L21.6948 109.824C14.0318 102.201 14.0318 89.799 21.6948 82.1757L82.7473 21.4395Z" stroke="url(#paint0_linear)" stroke-width="11"/>
<path d="M112.418 100.035L108.906 96.4768L112.418 100.035ZM112.441 92.9413L108.906 96.4768L112.441 92.9413ZM81.1542 138.058L77.6661 141.64L81.1542 138.058ZM92.9651 149.558L96.4532 145.976L92.9651 149.558ZM149.964 99.5355L153.5 103.071L149.964 99.5355ZM100.036 73.4644L103.571 77L100.036 73.4644ZM111.964 61.5355L108.429 58L111.964 61.5355ZM92.4644 73.4644L88.9289 77L92.4644 73.4644ZM77 65.071L88.9289 77L96 69.9289L84.071 58L77 65.071ZM65.071 77L77 65.071L69.9289 58L58 69.9289L65.071 77ZM77 88.9289L65.071 77L58 84.071L69.9289 96L77 88.9289ZM88.9289 77L77 88.9289L84.071 96L96 84.071L88.9289 77ZM108.429 58L96.5 69.9289L103.571 77L115.5 65.071L108.429 58ZM153.5 88.9289L122.571 58L115.5 65.071L146.429 96L153.5 88.9289ZM103.524 153.047L153.5 103.071L146.429 96L96.4531 145.976L103.524 153.047ZM77.6661 141.64L89.477 153.14L96.4532 145.976L84.6423 134.476L77.6661 141.64ZM108.906 96.4768L77.6176 127.359L84.6423 134.476L115.93 103.594L108.906 96.4768ZM96.5 84.071L108.906 96.4768L115.977 89.4057L103.571 77L96.5 84.071ZM115.93 103.594C119.879 99.6963 119.9 93.329 115.977 89.4057L108.906 96.4768L108.906 96.4768L115.93 103.594ZM84.6423 134.476L84.6423 134.476L77.6176 127.359C73.6316 131.293 73.6535 137.733 77.6661 141.64L84.6423 134.476ZM96.4531 145.976L96.4532 145.976L89.477 153.14C93.3967 156.957 99.6557 156.915 103.524 153.047L96.4531 145.976ZM146.429 96L146.429 96L153.5 103.071C157.405 99.1658 157.405 92.8342 153.5 88.9289L146.429 96ZM96.5 69.9289C92.5947 73.8342 92.5947 80.1658 96.5 84.071L103.571 77L103.571 77L96.5 69.9289ZM115.5 65.071L115.5 65.071L122.571 58C118.666 54.0947 112.334 54.0947 108.429 58L115.5 65.071ZM69.9289 96C73.8342 99.9052 80.1658 99.9052 84.071 96L77 88.9289L77 88.9289L69.9289 96ZM58 69.9289C54.0947 73.8342 54.0947 80.1658 58 84.071L65.071 77L65.071 77L58 69.9289ZM88.9289 77L88.9289 77L96 84.071C99.9052 80.1658 99.9052 73.8342 96 69.9289L88.9289 77ZM84.071 58C80.1658 54.0947 73.8342 54.0947 69.9289 58L77 65.071L77 65.071L84.071 58Z" fill="url(#paint1_linear)"/>
<defs>
<linearGradient id="paint0_linear" x1="96.5" y1="11.1403" x2="96.5" y2="181.255" gradientUnits="userSpaceOnUse">
<stop stop-color="#FF4B8A"/>
<stop offset="1" stop-color="#FF7B3C"/>
</linearGradient>
<linearGradient id="paint1_linear" x1="105.75" y1="65.3456" x2="105.75" y2="145.889" gradientUnits="userSpaceOnUse">
<stop stop-color="#FF4B8A"/>
<stop offset="1" stop-color="#FF7B3C"/>
</linearGradient>
</defs>
</svg>
