<svg width="50" height="48" viewBox="0 0 50 48" fill="none" xmlns="http://www.w3.org/2000/svg">
<path d="M13.6346 30.3335L1.68228 37.3999C2.53828 28.9897 6.04474 21.4979 10.2838 15.4061C14.0605 9.97875 18.3795 5.72035 21.8058 2.98039V16.9801C16.0653 21.4437 14.0237 27.1675 13.6346 30.3335ZM28.1474 17.0091V3.01676C31.5386 5.75102 35.7703 9.99579 39.4633 15.4088C43.6131 21.4915 47.0359 28.9794 47.8768 37.3956L35.8476 30.2562C35.5312 27.1582 33.9026 21.498 28.1474 17.0091ZM33.1748 36.0245L44.8328 42.9435C37.296 46.2495 29.1148 46.9029 21.722 46.2985C15.2062 45.7658 9.37633 44.2614 5.26827 42.8065L16.906 35.9782C20.518 37.2752 24.0397 37.5615 26.9711 37.3653C29.5219 37.1946 31.7129 36.6516 33.1748 36.0245Z" stroke="url(#paint0_linear)" stroke-width="3"/>
<defs>
<linearGradient id="paint0_linear" x1="24.7784" y1="2.78507" x2="24.7784" y2="45.3138" gradientUnits="userSpaceOnUse">
<stop stop-color="#FF4B8A"/>
<stop offset="1" stop-color="#FF7B3C"/>
</linearGradient>
</defs>
</svg>
