<svg width="37" height="48" viewBox="0 0 37 48" fill="none" xmlns="http://www.w3.org/2000/svg">
<path d="M30.1716 22.5376C29.9507 21.0713 29.6326 19.6809 28.9751 20.8399C27.3183 23.3285 27.1119 24.3352 24.2074 27.029C21.3028 29.7229 17.7178 31.9273 14.445 32.2587C9.19578 32.7902 6.1632 31.018 5.543 25.6334C5.14219 22.1547 5.80586 18.0802 7.34526 14.5121C8.88481 10.9439 11.1298 8.19962 14.0289 5.76387C16.9281 3.32827 19.6384 2.40723 22.9436 2.07268C25.4385 1.81993 26.6817 3.03628 26.6817 4.66154C26.6817 6.19489 25.2858 9.25538 20.8985 8.75605C20.4997 9.25538 20.0492 10.9282 21.5965 11.5523C21.7959 11.6522 22.5936 11.9518 23.8898 11.6522C25.2858 11.5523 29.3586 9.48552 29.8725 5.9598C30.2082 3.65649 28.4993 1.7587 27.1119 1.10059C25.7246 0.442491 23.9259 -0.132422 20.8637 0.117048C17.8016 0.366518 14.9164 1.26724 12.0285 3.08971C9.14063 4.91232 6.8111 7.09906 5.03977 9.65005C3.26843 12.2012 1.94092 14.9062 1.05739 17.7652C0.173868 20.6242 -0.123294 23.3091 0.165907 25.8199C0.928945 32.4447 5.11784 35.3716 12.7326 34.6007C16.0052 34.2695 20.0011 32.7239 21.2973 32.0249C27.5855 28.8364 30.2808 23.262 30.1716 22.5376Z" fill="url(#paint0_linear)"/>
<path fill-rule="evenodd" clip-rule="evenodd" d="M20.8574 0.0596787C23.9303 -0.190674 25.739 0.386506 27.1347 1.04856C27.8382 1.38222 28.6201 2.02831 29.1844 2.88134C29.7491 3.73502 30.0977 4.79927 29.9274 5.96771C29.6675 7.75072 28.5086 9.16072 27.2452 10.1356C26.613 10.6235 25.953 11.0036 25.363 11.2683C24.7764 11.5313 24.2551 11.682 23.8967 11.7086C22.5935 12.0087 21.7848 11.7104 21.5712 11.6042C21.176 11.4443 20.9052 11.2162 20.7293 10.9538C20.5535 10.6914 20.4748 10.3977 20.4589 10.1102C20.4272 9.53803 20.6436 8.98103 20.8521 8.72L20.8718 8.69528L20.9033 8.69886C23.0817 8.94679 24.5096 8.31089 25.3932 7.43018C26.2793 6.54714 26.6228 5.41353 26.6228 4.6612C26.6228 3.86389 26.3184 3.17137 25.7118 2.70798C25.1042 2.24379 24.1857 2.00385 22.9477 2.12926L22.9419 2.07233L22.9477 2.12926C19.6521 2.46284 16.9531 3.38022 14.0639 5.80734C11.1704 8.23845 8.93148 10.9759 7.39608 14.5344C5.86018 18.0944 5.19859 22.1589 5.59812 25.6265C5.90714 28.3095 6.8156 30.0805 8.28933 31.1175C9.76475 32.1556 11.8187 32.4666 14.4376 32.2015C17.6921 31.8719 21.2657 29.6773 24.1667 26.9867C26.3508 24.9612 27.0028 23.8958 27.9022 22.4263C28.1959 21.9463 28.5161 21.4233 28.9246 20.8095C29.0078 20.6631 29.0875 20.5535 29.1646 20.4785C29.2419 20.4035 29.321 20.3589 29.4023 20.3526C29.4853 20.3462 29.5588 20.3806 29.6216 20.4388C29.6835 20.4962 29.7379 20.5792 29.7868 20.6787C29.8845 20.878 29.9667 21.1584 30.0381 21.4779C30.1097 21.7983 30.1712 22.1617 30.2265 22.5287C30.2347 22.5834 30.2292 22.6551 30.2135 22.7387C30.1976 22.8234 30.1704 22.9245 30.1321 23.0401C30.0555 23.2713 29.9335 23.5635 29.7648 23.9024C29.4275 24.5802 28.9023 25.4476 28.1771 26.3917C26.7269 28.2797 24.4749 30.4764 21.3221 32.0752C20.02 32.7773 16.0176 34.3252 12.7367 34.6573C8.92221 35.0434 5.95549 34.5046 3.84538 33.0302C1.73369 31.5547 0.490141 29.1495 0.107355 25.8261C-0.182905 23.3061 0.115573 20.6132 1.00102 17.748C1.88634 14.8831 3.2165 12.1729 4.99106 9.61708C6.76719 7.05918 9.10255 4.86728 11.9963 3.04098L12.0268 3.08937L11.9963 3.04098C14.8921 1.21346 17.7863 0.30988 20.8574 0.0596787ZM27.0857 1.15194C25.7066 0.497788 23.918 -0.0748572 20.8667 0.173731C17.8135 0.42247 14.9372 1.32033 12.0573 3.13775C9.17529 4.95668 6.85159 7.13825 5.08505 9.68234C3.31693 12.2288 1.99207 14.9286 1.11034 17.7817C0.228736 20.6345 -0.0671095 23.3114 0.221033 25.813L0.164194 25.8196L0.221033 25.813C0.601284 29.1144 1.83371 31.485 3.91092 32.9364C5.98971 34.389 8.92481 34.9282 12.7251 34.5434C15.9888 34.2131 19.9775 32.6704 21.2685 31.9742L21.2698 31.9735C24.4048 30.3838 26.6444 28.1993 28.0864 26.322C28.8074 25.3834 29.3286 24.5221 29.6624 23.8514C29.8293 23.5159 29.9491 23.2288 30.0235 23.0041C30.0608 22.8917 30.0864 22.7957 30.1011 22.7176C30.116 22.6384 30.1187 22.5816 30.1133 22.5458C30.0582 22.1797 29.9971 21.8194 29.9264 21.5029C29.8555 21.1855 29.7756 20.9159 29.684 20.7291C29.6382 20.6356 29.5911 20.5666 29.5438 20.5227C29.4973 20.4796 29.4538 20.4634 29.4111 20.4667C29.3666 20.4701 29.3113 20.4956 29.2444 20.5606C29.1777 20.6254 29.104 20.7253 29.0231 20.8677L29.0221 20.8695L29.021 20.8712C28.615 21.4811 28.2959 22.0025 28.0024 22.4821C27.1008 23.9552 26.4407 25.0338 24.2446 27.0706C21.3364 29.7678 17.7401 31.9821 14.4491 32.3153C11.8187 32.5816 9.73171 32.2723 8.22348 31.211C6.71356 30.1486 5.79562 28.3413 5.48445 25.6396C5.08236 22.1498 5.74812 18.0653 7.29101 14.4891L7.34354 14.5117L7.29101 14.4891C8.8347 10.9113 11.0858 8.1601 13.9903 5.71972L14.0271 5.76353L13.9903 5.71972C16.8996 3.27563 19.6213 2.35094 22.9362 2.01541C24.1931 1.88808 25.1436 2.12994 25.7813 2.61705C26.42 3.10496 26.7372 3.83325 26.7372 4.6612C26.7372 5.44221 26.3828 6.60552 25.474 7.51123C24.5673 8.41487 23.1134 9.05769 20.9224 8.81616C20.7376 9.06494 20.5439 9.57695 20.5731 10.1039C20.5881 10.375 20.6621 10.6478 20.8244 10.8901C20.9865 11.1321 21.2389 11.3467 21.6162 11.4989L21.6183 11.4998L21.6204 11.5008C21.8086 11.5951 22.5927 11.8925 23.8752 11.5961L23.8796 11.5951L23.884 11.5948C24.2235 11.5705 24.7328 11.4255 25.3161 11.1639C25.8984 10.9027 26.5505 10.5271 27.1752 10.045C28.4257 9.08017 29.5601 7.69391 29.8142 5.9512C29.9796 4.81633 29.6416 3.78003 29.089 2.94447C28.5358 2.10825 27.7697 1.47638 27.0857 1.15194Z" fill="url(#paint1_linear)"/>
<path d="M36.1029 34.8094C25.1773 36.7127 14.7065 39.3037 7.33218 42.215C4.25773 43.4287 3.51786 45.7572 4.53058 47.9254C17.0439 42.448 23.2628 40.8571 32.4297 38.6051C34.0547 38.2059 35.3341 37.0628 35.8355 35.5918C35.9256 35.3275 36.0155 35.0645 36.1029 34.8094Z" fill="url(#paint2_linear)"/>
<path fill-rule="evenodd" clip-rule="evenodd" d="M36.1889 34.7363L36.1575 34.8278C36.0701 35.0828 35.9802 35.3458 35.8901 35.6101C35.3819 37.1008 34.0863 38.2569 32.4437 38.6605C23.2787 40.912 17.0632 42.502 4.55395 47.9776L4.50279 48L4.47916 47.9494C3.96712 46.8531 3.89628 45.7115 4.34676 44.689C4.79707 43.6668 5.76441 42.7724 7.3116 42.1616C14.6911 39.2482 25.1662 36.6564 36.0935 34.7529L36.1889 34.7363ZM36.0179 34.8822C25.1284 36.7836 14.7014 39.3672 7.35362 42.268C5.82636 42.871 4.88654 43.7476 4.45148 44.7351C4.02344 45.7067 4.08023 46.7942 4.55949 47.8503C17.0426 42.3892 23.2604 40.7987 32.4164 38.5493C34.0239 38.1545 35.2871 37.0244 35.7818 35.5731C35.8612 35.3403 35.9404 35.1085 36.0179 34.8822Z" fill="url(#paint3_linear)"/>
<defs>
<linearGradient id="paint0_linear" x1="15.1169" y1="0.0575562" x2="15.1169" y2="34.7212" gradientUnits="userSpaceOnUse">
<stop stop-color="#1E8CFF"/>
<stop offset="1" stop-color="#6566FF"/>
</linearGradient>
<linearGradient id="paint1_linear" x1="15.1151" y1="0" x2="15.1151" y2="34.7781" gradientUnits="userSpaceOnUse">
<stop stop-color="#1E8CFF"/>
<stop offset="1" stop-color="#6566FF"/>
</linearGradient>
<linearGradient id="paint2_linear" x1="20.1039" y1="34.8094" x2="20.1039" y2="47.9254" gradientUnits="userSpaceOnUse">
<stop stop-color="#1E8CFF"/>
<stop offset="1" stop-color="#6566FF"/>
</linearGradient>
<linearGradient id="paint3_linear" x1="20.1184" y1="34.7363" x2="20.1184" y2="48" gradientUnits="userSpaceOnUse">
<stop stop-color="#1E8CFF"/>
<stop offset="1" stop-color="#6566FF"/>
</linearGradient>
</defs>
</svg>
