<svg width="45" height="52" viewBox="0 0 45 52" fill="none" xmlns="http://www.w3.org/2000/svg">
<path d="M20.7832 39.0633C20.7832 40.0988 21.6227 40.9383 22.6582 40.9383C23.6938 40.9383 24.5332 40.0988 24.5332 39.0633H20.7832ZM37.2405 3.875C38.276 3.875 39.1155 3.03553 39.1155 2C39.1155 0.964466 38.276 0.125 37.2405 0.125V3.875ZM21.1631 49.7321L21.7308 47.9451L21.1631 49.7321ZM24.5332 39.0633V16.7595H20.7832V39.0633H24.5332ZM24.6582 16.6345H40.7089V12.8845H24.6582V16.6345ZM40.8339 29.3418C40.8339 35.8785 34.5856 43.5856 22.3053 47.9301L23.556 51.4654C36.4362 46.9086 44.5839 38.246 44.5839 29.3418H40.8339ZM21.7308 47.9451C17.7399 46.6773 13.2044 44.3417 9.70189 41.1172C6.20602 37.8988 3.875 33.9333 3.875 29.3418H0.125C0.125 35.311 3.17606 40.2065 7.16199 43.8761C11.1413 47.5396 16.1874 50.1188 20.5954 51.5191L21.7308 47.9451ZM3.875 29.3418V5H0.125V29.3418H3.875ZM5 3.875H37.2405V0.125H5V3.875ZM40.8339 16.7595V23.8734H44.5839V16.7595H40.8339ZM40.8339 23.8734V29.3418H44.5839V23.8734H40.8339ZM22.3053 47.9301C22.1083 47.9998 21.9059 48.0008 21.7308 47.9451L20.5954 51.5191C21.5728 51.8296 22.613 51.799 23.556 51.4654L22.3053 47.9301ZM40.7089 16.6345C40.7779 16.6345 40.8339 16.6905 40.8339 16.7595H44.5839C44.5839 14.6194 42.849 12.8845 40.7089 12.8845V16.6345ZM3.875 5C3.875 4.37868 4.37868 3.875 5 3.875V0.125C2.30761 0.125 0.125 2.30761 0.125 5H3.875ZM24.5332 16.7595C24.5332 16.6905 24.5892 16.6345 24.6582 16.6345V12.8845C22.5181 12.8845 20.7832 14.6194 20.7832 16.7595H24.5332Z" fill="url(#paint0_linear)"/>
<defs>
<linearGradient id="paint0_linear" x1="22.3544" y1="2" x2="22.3544" y2="50" gradientUnits="userSpaceOnUse">
<stop stop-color="#1E8CFF"/>
<stop offset="1" stop-color="#6566FF"/>
</linearGradient>
</defs>
</svg>
