<svg width="28" height="47" viewBox="0 0 28 47" fill="none" xmlns="http://www.w3.org/2000/svg">
<path fill-rule="evenodd" clip-rule="evenodd" d="M21.1549 12.699L21.7166 13.1167L21.7176 13.1154C21.1049 13.9467 20.3856 14.7196 19.5621 15.4347L19.561 15.4357C18.7603 16.1282 17.9047 16.7348 16.9944 17.2549L16.9896 17.2577C16.1037 17.7547 15.2031 18.1565 14.2882 18.4615L14.281 18.4639L14.2738 18.4661C13.3466 18.7531 12.4475 18.9016 11.5798 18.9016C11.0823 18.9016 10.6483 18.87 10.3032 18.7904C10.0035 18.7212 9.7278 18.6333 9.49472 18.5168L9.47734 18.5081L9.46047 18.4984C9.40898 18.469 9.35978 18.4407 9.31292 18.4136C9.30762 18.4299 9.30228 18.447 9.2969 18.4649L9.29386 18.475L9.2905 18.4851C9.24444 18.6233 9.2019 18.7956 9.16578 19.0061C9.14852 19.2044 9.1399 19.4025 9.1399 19.6005C9.1399 20.5407 9.37682 21.0919 9.7132 21.4086C10.1345 21.7633 10.6404 21.9471 11.2689 21.9471C12.3761 21.9471 13.5434 21.7724 14.7732 21.4153C16.0087 21.0566 17.2275 20.5576 18.4299 19.9165C19.6521 19.2551 20.8047 18.4734 21.8881 17.5705L21.893 17.5665C22.9935 16.6661 23.9501 15.689 24.7652 14.6358C25.5779 13.565 26.2189 12.4391 26.6915 11.2576L26.6952 11.2484C27.179 10.0874 27.4187 8.90411 27.4187 7.69378C27.4187 6.37324 27.2214 5.25255 26.847 4.31645L26.8452 4.31204C26.4626 3.33654 25.9448 2.54312 25.2993 1.91609L25.292 1.90902C24.6654 1.28241 23.9066 0.80796 23.0041 0.488337C22.0902 0.164636 21.1024 0 20.0357 0C18.0136 0 16.1305 0.386026 14.3789 1.15358L14.3728 1.15624C12.5998 1.91324 10.9749 2.94942 9.4965 4.268C8.01219 5.59185 6.68407 7.15006 5.5134 8.94643L5.51142 8.94947C4.33517 10.7341 3.33045 12.6416 2.49756 14.6727C1.68525 16.6835 1.06585 18.7551 0.639256 20.8881C0.21243 23.0222 0 25.1005 0 27.1238C0 30.1416 0.326319 32.8568 0.971183 35.2751C1.61659 37.6954 2.53789 39.7394 3.72409 41.421C4.9285 43.0784 6.38107 44.3512 8.08315 45.2511C9.77404 46.1452 11.7009 46.6 13.8803 46.6C15.1204 46.6 16.2597 46.48 17.3009 46.2442L17.3036 46.2436C18.3861 46.003 19.3588 45.6944 20.2246 45.3206L20.237 45.3152C21.117 44.9552 21.8989 44.5586 22.5855 44.127L22.5917 44.1232L22.5979 44.1194C23.3054 43.695 23.8903 43.2974 24.3577 42.9273C24.8459 42.5409 25.2056 42.2283 25.4475 41.9864L25.4491 41.9848L25.4585 41.9754L25.4632 41.9707L25.4678 41.9661L25.474 41.9599L25.4755 41.9584L25.477 41.9568L25.4801 41.9538L25.4831 41.9508L25.4877 41.9462L25.4892 41.9447L25.4907 41.9432L25.4922 41.9417L25.4937 41.9402L25.4952 41.9387L25.4967 41.9372L25.4982 41.9357L25.5012 41.9327L25.5159 41.918L25.5203 41.9136L25.5246 41.9093L25.5318 41.9021L25.5347 41.8992L25.5361 41.8978L25.5375 41.8963L25.5474 41.8865L25.5516 41.8823L25.5613 41.8725L25.5627 41.8712L25.5641 41.8698L25.587 41.8468L25.5884 41.8455L25.5897 41.8442L25.5989 41.835L25.6028 41.8311L25.6118 41.8221L25.6131 41.8208L25.6144 41.8195L25.6169 41.817L25.6232 41.8107L25.627 41.8069L25.6307 41.8032L25.643 41.7909L25.6454 41.7885L25.6466 41.7873L25.6478 41.7861L25.649 41.7849L25.6502 41.7837L25.6514 41.7825L25.6526 41.7813L25.6538 41.7801L25.6573 41.7766L25.6597 41.7742L25.662 41.7718L25.6632 41.7707L25.6644 41.7695L25.669 41.7649L25.6725 41.7614L25.6759 41.758L25.6827 41.7512L25.6905 41.7434L25.6938 41.7401L25.6971 41.7368L25.7047 41.7292L25.7111 41.7228L25.7142 41.7197L25.7174 41.7165L25.7215 41.7124L25.7225 41.7113L25.7236 41.7103L25.7256 41.7083L25.7276 41.7062L25.7307 41.7032L25.7317 41.7022L25.7327 41.7012L25.7337 41.7002L25.7347 41.6992L25.7357 41.6982L25.7367 41.6972L25.7377 41.6962L25.7396 41.6942L25.7493 41.6845L25.7513 41.6826L25.7522 41.6817L25.7532 41.6807L25.7541 41.6798L25.755 41.6788L25.756 41.6779L25.7588 41.6751L25.7597 41.6742L25.7616 41.6723L25.7625 41.6714L25.7634 41.6705L25.7653 41.6686L25.7662 41.6677L25.7671 41.6668L25.7689 41.665L25.7698 41.6641L25.7707 41.6632L25.7716 41.6623L25.7725 41.6614L25.7734 41.6605L25.7751 41.6587L25.776 41.6579L25.7769 41.657L25.7787 41.6552L25.7795 41.6544L25.7804 41.6535L25.7821 41.6517L25.783 41.6509L25.7839 41.65L25.7915 41.6424L25.7923 41.6416L25.7931 41.6407L25.7948 41.6391L25.7956 41.6383L25.7964 41.6374L25.7981 41.6358L25.7989 41.635L25.7997 41.6342L25.8013 41.6326L25.8021 41.6318L25.8029 41.631L25.8037 41.6302L25.8045 41.6294L25.8053 41.6286L25.8069 41.627L25.8077 41.6262L25.8084 41.6254L25.81 41.6239L25.8108 41.6231L25.8115 41.6223L25.8131 41.6208L25.8138 41.62L25.8161 41.6178L25.8169 41.617L25.8176 41.6163L25.8184 41.6155L25.8191 41.6148L25.8199 41.614L25.8206 41.6133L25.8213 41.6126L25.8221 41.6118L25.8235 41.6104L25.8243 41.6096L25.8257 41.6082L25.8264 41.6075L25.8278 41.606L25.8286 41.6053L25.83 41.6039L25.8314 41.6025L25.8328 41.6011L25.8342 41.5997L25.8355 41.5984L25.8369 41.597L25.8382 41.5956L25.8396 41.5943L25.8409 41.593L25.8422 41.5916L25.8435 41.5903L25.8448 41.589L25.8461 41.5877L25.8474 41.5865L25.8487 41.5852L25.8499 41.5839L25.8512 41.5827L25.8524 41.5815L25.8537 41.5802L25.8549 41.579L25.8561 41.5778L25.8573 41.5766L25.8585 41.5754L25.8596 41.5743L25.8608 41.5731L25.8619 41.5719L25.8631 41.5708L25.8642 41.5697L25.8653 41.5685L25.8665 41.5674L25.8676 41.5663L25.8686 41.5652L25.8697 41.5642L25.8708 41.5631L25.8719 41.562L25.8729 41.561L25.8739 41.5599L25.875 41.5589L25.876 41.5579L25.877 41.5569L25.878 41.5559L25.879 41.5549L25.88 41.5539L25.8809 41.553L25.8819 41.552L25.8828 41.5511L25.8838 41.5501L25.8847 41.5492L25.8856 41.5483L25.8865 41.5474L25.8874 41.5465L25.8883 41.5456L25.89 41.5439L25.8909 41.543L25.8917 41.5422L25.8925 41.5413L25.8934 41.5405L25.8942 41.5397L25.895 41.5389L25.8958 41.5381L25.8965 41.5374L25.8973 41.5366L25.8981 41.5358L25.8988 41.5351L25.8995 41.5343L25.9003 41.5336L25.901 41.5329L25.9041 41.5298L25.9051 41.5288L25.906 41.5279L25.9069 41.5269L25.9079 41.526L25.9087 41.5251L25.9096 41.5243L25.9105 41.5234L25.9113 41.5226L25.9121 41.5218L25.9128 41.521L25.9136 41.5203C26.025 41.4089 26.1011 41.2581 26.1139 41.0145C26.1286 40.7349 26.0785 40.4462 25.9502 40.1416L25.944 40.1269L25.9385 40.1119C25.8205 39.7917 25.6521 39.4962 25.4303 39.2233L25.4238 39.2153L25.4175 39.2071C25.2002 38.9229 24.9784 38.7405 24.759 38.6308L24.7507 38.6266L24.7426 38.6223C24.5878 38.5398 24.4325 38.5171 24.2434 38.5603C24.17 38.5801 23.9999 38.6696 23.7783 39.0447L23.6733 39.2224L23.5558 39.2812C23.5322 39.3026 23.4996 39.3329 23.4569 39.3737C23.3488 39.4769 23.1928 39.6304 22.9867 39.8364L22.9803 39.8428L22.9738 39.8489C22.511 40.2886 21.8761 40.7525 21.0892 41.2416L21.0775 41.2489C20.2645 41.7324 19.3007 42.1745 18.1931 42.5792C17.0263 43.0056 15.7307 43.2124 14.3155 43.2124C12.3616 43.2124 10.664 42.7612 9.26185 41.8188L9.25534 41.8144C7.89576 40.8783 6.7981 39.6439 5.96145 38.1247L5.95767 38.1179C5.15251 36.6164 4.57188 34.91 4.20829 33.0065L4.20802 33.0051C3.8473 31.0954 3.66736 29.1347 3.66736 27.1238C3.66736 25.3585 3.83751 23.5445 4.17606 21.6826L4.17743 21.675C4.53656 19.816 5.03326 18.0087 5.66759 16.2538L5.67012 16.2468C6.32624 14.4901 7.11045 12.8364 8.02328 11.2867L8.02474 11.2842C8.96076 9.71002 9.99774 8.32908 11.1379 7.14588C12.2828 5.9578 13.5233 5.00869 14.8608 4.30706L14.865 4.30489C16.2465 3.59183 17.7034 3.23212 19.2275 3.23212C20.025 3.23212 20.7467 3.3677 21.3639 3.6737C21.9301 3.93475 22.4093 4.27976 22.7756 4.72132C23.1399 5.13642 23.4062 5.59961 23.5617 6.1093C23.725 6.58031 23.8135 7.04765 23.8135 7.50725C23.8135 8.493 23.6182 9.47128 23.2359 10.4382L23.2339 10.4435C22.8578 11.3725 22.3511 12.2632 21.7176 13.1154L21.7185 13.1142L21.1549 12.699Z" fill="url(#paint0_linear)"/>
<defs>
<linearGradient id="paint0_linear" x1="4.32079" y1="405.591" x2="86.6905" y2="395.919" gradientUnits="userSpaceOnUse">
<stop stop-color="#33D9EB"/>
<stop offset="1" stop-color="#2CD9CB"/>
</linearGradient>
</defs>
</svg>
