<svg width="202" height="202" viewBox="0 0 202 202" fill="none" xmlns="http://www.w3.org/2000/svg">
<path fill-rule="evenodd" clip-rule="evenodd" d="M0 15C0 6.71572 6.71573 0 15 0H187C195.284 0 202 6.71573 202 15V187C202 195.284 195.284 202 187 202H15C6.71572 202 0 195.284 0 187V15ZM15 10C12.2386 10 10 12.2386 10 15V187C10 189.761 12.2386 192 15 192H187C189.761 192 192 189.761 192 187V15C192 12.2386 189.761 10 187 10H15ZM29.3417 68.8954C31.8372 67.713 34.8187 68.7773 36.0012 71.2728L51.2035 103.356C52.1173 105.284 51.938 107.553 50.7327 109.314L35.6088 131.41C34.0491 133.689 30.9375 134.272 28.6587 132.712C26.3799 131.153 25.797 128.041 27.3567 125.762L41.1829 105.562L26.9644 75.5548C25.7819 73.0594 26.8463 70.0779 29.3417 68.8954ZM103.255 71.5973C101.388 71.4373 99.1751 71.3573 96.6152 71.3573C90.9085 71.3573 86.3218 72.2907 82.8551 74.1573C79.4418 75.9707 76.9885 78.9573 75.4951 83.1173C74.0018 87.2773 73.2551 92.8773 73.2551 99.9173C73.2551 106.957 74.0018 112.557 75.4951 116.717C76.9885 120.877 79.4418 123.891 82.8551 125.757C86.3218 127.571 90.9085 128.477 96.6152 128.477C100.562 128.477 103.868 128.291 106.535 127.917C109.202 127.597 111.815 127.037 114.375 126.237L113.335 117.277C110.882 117.597 108.402 117.811 105.895 117.917C103.388 117.971 100.295 117.997 96.6152 117.997C93.8951 117.997 91.7618 117.464 90.2151 116.397C88.6685 115.331 87.5751 113.491 86.9352 110.877C86.3485 108.211 86.0551 104.557 86.0551 99.9173C86.0551 95.224 86.3485 91.5707 86.9352 88.9573C87.5751 86.344 88.6685 84.504 90.2151 83.4373C91.7618 82.3173 93.8951 81.7573 96.6152 81.7573C98.9085 81.7573 100.882 81.784 102.535 81.8373C104.242 81.8907 105.842 81.944 107.335 81.9973C108.828 82.0507 110.455 82.1307 112.215 82.2373L113.175 73.1973C111.522 72.7707 109.922 72.424 108.375 72.1573C106.828 71.8907 105.122 71.704 103.255 71.5973ZM149.166 71.7573C145.966 71.4373 143.006 71.2773 140.286 71.2773C135.433 71.2773 131.513 71.6773 128.526 72.4773C125.54 73.2773 123.353 74.7973 121.966 77.0373C120.633 79.224 119.966 82.424 119.966 86.6373C119.966 90.7973 120.82 94.1307 122.526 96.6373C124.286 99.144 127.3 101.144 131.566 102.637L142.766 106.477C144.686 107.064 146.046 107.757 146.846 108.557C147.7 109.357 148.126 110.744 148.126 112.717C148.126 115.011 147.54 116.504 146.366 117.197C145.193 117.837 143.006 118.157 139.806 118.157C137.94 118.157 135.566 118.131 132.686 118.077C129.86 118.024 126.073 117.917 121.326 117.757L120.606 126.397C124.873 127.357 128.686 127.944 132.046 128.157C135.406 128.424 137.993 128.557 139.806 128.557C144.82 128.557 148.82 128.104 151.806 127.197C154.846 126.291 157.033 124.691 158.366 122.397C159.7 120.051 160.366 116.771 160.366 112.557C160.366 108.397 159.486 105.064 157.726 102.557C156.02 99.9973 152.98 97.944 148.606 96.3973L137.966 92.9573C135.833 92.3173 134.313 91.5707 133.406 90.7173C132.553 89.864 132.126 88.4773 132.126 86.5573C132.126 84.904 132.366 83.7307 132.846 83.0373C133.38 82.2907 134.233 81.8107 135.406 81.5973C136.633 81.384 138.233 81.2773 140.206 81.2773C143.193 81.2773 146.26 81.304 149.406 81.3573C152.606 81.4107 155.38 81.4907 157.726 81.5973L158.526 73.4373C155.486 72.584 152.366 72.024 149.166 71.7573Z" fill="url(#paint0_linear)"/>
<defs>
<linearGradient id="paint0_linear" x1="101" y1="12.6045" x2="101" y2="189.808" gradientUnits="userSpaceOnUse">
<stop stop-color="#FF4B8A"/>
<stop offset="1" stop-color="#FF7B3C"/>
</linearGradient>
</defs>
</svg>
