<svg width="202" height="202" viewBox="0 0 202 202" fill="none" xmlns="http://www.w3.org/2000/svg">
<rect x="5" y="5" width="192" height="192" rx="10" stroke="url(#paint0_linear)" stroke-width="10"/>
<path d="M31.4827 73.4138L46.685 105.497C46.8373 105.818 46.8074 106.196 46.6065 106.49L31.4827 128.586" stroke="url(#paint1_linear)" stroke-width="10" stroke-linecap="round"/>
<path d="M93.5058 72.3571C96.0658 72.3571 98.2792 72.4371 100.146 72.5971C102.013 72.7038 103.719 72.8904 105.266 73.1571C106.813 73.4238 108.413 73.7704 110.066 74.1971L109.106 83.2371C107.346 83.1304 105.719 83.0504 104.226 82.9971C102.733 82.9438 101.133 82.8904 99.4258 82.8371C97.7725 82.7838 95.7992 82.7571 93.5058 82.7571C90.7858 82.7571 88.6525 83.3171 87.1058 84.4371C85.5592 85.5038 84.4658 87.3438 83.8258 89.9571C83.2392 92.5704 82.9458 96.2238 82.9458 100.917C82.9458 105.557 83.2392 109.21 83.8258 111.877C84.4658 114.49 85.5592 116.33 87.1058 117.397C88.6525 118.464 90.7858 118.997 93.5058 118.997C97.1858 118.997 100.279 118.97 102.786 118.917C105.293 118.81 107.773 118.597 110.226 118.277L111.266 127.237C108.706 128.037 106.093 128.597 103.426 128.917C100.759 129.29 97.4525 129.477 93.5058 129.477C87.7992 129.477 83.2125 128.57 79.7458 126.757C76.3325 124.89 73.8792 121.877 72.3858 117.717C70.8925 113.557 70.1458 107.957 70.1458 100.917C70.1458 93.8771 70.8925 88.2771 72.3858 84.1171C73.8792 79.9571 76.3325 76.9704 79.7458 75.1571C83.2125 73.2904 87.7992 72.3571 93.5058 72.3571ZM163.977 73.3171L148.937 125.157C148.67 126.17 148.137 126.997 147.337 127.637C146.537 128.224 145.63 128.517 144.617 128.517H133.417C132.35 128.517 131.417 128.224 130.617 127.637C129.87 126.997 129.364 126.17 129.097 125.157L114.057 73.3171H126.617L136.697 113.157C136.91 114.17 137.124 115.21 137.337 116.277C137.55 117.29 137.764 118.304 137.977 119.317H140.057C140.43 117.237 140.884 115.157 141.417 113.077L151.417 73.3171H163.977Z" fill="url(#paint2_linear)"/>
<path d="M100.146 72.5971L100.06 73.5934L100.075 73.5946L100.089 73.5955L100.146 72.5971ZM105.266 73.1571L105.436 72.1716L105.266 73.1571ZM110.066 74.1971L111.06 74.3027L111.151 73.4445L110.316 73.2288L110.066 74.1971ZM109.106 83.2371L109.045 84.2353L109.999 84.2931L110.1 83.3427L109.106 83.2371ZM104.226 82.9971L104.19 83.9965L104.226 82.9971ZM99.4258 82.8371L99.3936 83.8366L99.3946 83.8366L99.4258 82.8371ZM87.1058 84.4371L87.6736 85.2603L87.683 85.2538L87.6923 85.247L87.1058 84.4371ZM83.8258 89.9571L82.8545 89.7192L82.8522 89.7286L82.8501 89.738L83.8258 89.9571ZM83.8258 111.877L82.8492 112.092L82.8517 112.103L82.8545 112.115L83.8258 111.877ZM87.1058 117.397L87.6736 116.574L87.1058 117.397ZM102.786 118.917L102.807 119.917L102.818 119.917L102.828 119.916L102.786 118.917ZM110.226 118.277L111.219 118.162L111.102 117.154L110.096 117.285L110.226 118.277ZM111.266 127.237L111.564 128.192L112.355 127.945L112.259 127.122L111.266 127.237ZM103.426 128.917L103.307 127.924L103.297 127.925L103.287 127.927L103.426 128.917ZM79.7458 126.757L79.266 127.634L79.2741 127.639L79.2823 127.643L79.7458 126.757ZM72.3858 117.717L71.4446 118.055L72.3858 117.717ZM72.3858 84.1171L73.327 84.455L72.3858 84.1171ZM79.7458 75.1571L80.215 76.0402L80.2199 76.0376L79.7458 75.1571ZM93.5058 73.3571C96.0469 73.3571 98.2303 73.4366 100.06 73.5934L100.231 71.6007C98.328 71.4376 96.0848 71.3571 93.5058 71.3571V73.3571ZM100.089 73.5955C101.925 73.7004 103.593 73.8834 105.096 74.1425L105.436 72.1716C103.845 71.8974 102.1 71.7071 100.203 71.5987L100.089 73.5955ZM105.096 74.1425C106.613 74.4042 108.187 74.7449 109.816 75.1654L110.316 73.2288C108.638 72.7959 107.012 72.4433 105.436 72.1716L105.096 74.1425ZM109.071 74.0915L108.111 83.1315L110.1 83.3427L111.06 74.3027L109.071 74.0915ZM109.166 82.2389C107.399 82.1318 105.764 82.0514 104.262 81.9977L104.19 83.9965C105.674 84.0494 107.292 84.129 109.045 84.2353L109.166 82.2389ZM104.262 81.9977C102.767 81.9443 101.165 81.8909 99.4571 81.8376L99.3946 83.8366C101.1 83.8899 102.698 83.9432 104.19 83.9965L104.262 81.9977ZM99.4581 81.8376C97.7908 81.7838 95.8062 81.7571 93.5058 81.7571V83.7571C95.7922 83.7571 97.7542 83.7837 99.3936 83.8366L99.4581 81.8376ZM93.5058 81.7571C90.6615 81.7571 88.2953 82.3411 86.5193 83.6271L87.6923 85.247C89.0097 84.2931 90.9102 83.7571 93.5058 83.7571V81.7571ZM86.5381 83.6139C84.7176 84.8694 83.5279 86.9696 82.8545 89.7192L84.7971 90.195C85.4038 87.7179 86.4007 86.1381 87.6736 85.2603L86.5381 83.6139ZM82.8501 89.738C82.2396 92.4575 81.9458 96.1963 81.9458 100.917H83.9458C83.9458 96.2513 84.2387 92.6833 84.8015 90.1761L82.8501 89.738ZM81.9458 100.917C81.9458 105.587 82.2399 109.323 82.8492 112.092L84.8025 111.662C84.2384 109.098 83.9458 105.527 83.9458 100.917H81.9458ZM82.8545 112.115C83.5279 114.865 84.7176 116.965 86.5381 118.22L87.6736 116.574C86.4007 115.696 85.4038 114.116 84.7971 111.639L82.8545 112.115ZM86.5381 118.22C88.3111 119.443 90.6697 119.997 93.5058 119.997V117.997C90.902 117.997 88.9939 117.484 87.6736 116.574L86.5381 118.22ZM93.5058 119.997C97.19 119.997 100.291 119.97 102.807 119.917L102.765 117.917C100.267 117.97 97.1817 117.997 93.5058 117.997V119.997ZM102.828 119.916C105.364 119.808 107.873 119.592 110.355 119.269L110.096 117.285C107.672 117.602 105.221 117.813 102.743 117.918L102.828 119.916ZM109.233 118.392L110.273 127.352L112.259 127.122L111.219 118.162L109.233 118.392ZM110.968 126.283C108.466 127.064 105.913 127.611 103.307 127.924L103.545 129.91C106.272 129.583 108.946 129.01 111.564 128.192L110.968 126.283ZM103.287 127.927C100.682 128.291 97.4254 128.477 93.5058 128.477V130.477C97.4796 130.477 100.836 130.289 103.564 129.907L103.287 127.927ZM93.5058 128.477C87.8919 128.477 83.4824 127.583 80.2093 125.871L79.2823 127.643C82.9426 129.558 87.7065 130.477 93.5058 130.477V128.477ZM80.2256 125.88C77.0562 124.146 74.7497 121.343 73.327 117.379L71.4446 118.055C73.0086 122.412 75.6088 125.634 79.266 127.634L80.2256 125.88ZM73.327 117.379C71.8887 113.372 71.1458 107.902 71.1458 100.917H69.1458C69.1458 108.012 69.8963 113.742 71.4446 118.055L73.327 117.379ZM71.1458 100.917C71.1458 93.9323 71.8887 88.4617 73.327 84.455L71.4446 83.7792C69.8963 88.0925 69.1458 93.8219 69.1458 100.917H71.1458ZM73.327 84.455C74.7492 80.4931 77.0529 77.7201 80.215 76.0402L79.2767 74.274C75.6121 76.2208 73.0091 79.4211 71.4446 83.7792L73.327 84.455ZM80.2199 76.0376C83.4901 74.2767 87.8953 73.3571 93.5058 73.3571V71.3571C87.703 71.3571 82.9349 72.3041 79.2717 74.2766L80.2199 76.0376ZM163.977 73.3171L164.937 73.5957L165.308 72.3171H163.977V73.3171ZM148.937 125.157L147.977 124.878L147.973 124.89L147.97 124.903L148.937 125.157ZM147.337 127.637L147.928 128.443L147.945 128.431L147.962 128.418L147.337 127.637ZM130.617 127.637L129.966 128.396L129.995 128.421L130.026 128.443L130.617 127.637ZM129.097 125.157L130.064 124.903L130.061 124.89L130.057 124.878L129.097 125.157ZM114.057 73.3171V72.3171H112.726L113.097 73.5957L114.057 73.3171ZM126.617 73.3171L127.587 73.0718L127.396 72.3171H126.617V73.3171ZM136.697 113.157L137.676 112.951L137.671 112.931L137.667 112.912L136.697 113.157ZM137.337 116.277L136.356 116.473L136.359 116.483L137.337 116.277ZM137.977 119.317L136.999 119.523L137.166 120.317H137.977V119.317ZM140.057 119.317V120.317H140.894L141.041 119.494L140.057 119.317ZM141.417 113.077L142.386 113.325L142.387 113.321L141.417 113.077ZM151.417 73.3171V72.3171H150.637L150.447 73.0732L151.417 73.3171ZM163.017 73.0385L147.977 124.878L149.897 125.436L164.937 73.5957L163.017 73.0385ZM147.97 124.903C147.757 125.713 147.341 126.354 146.712 126.856L147.962 128.418C148.934 127.641 149.584 126.628 149.904 125.412L147.97 124.903ZM146.746 126.831C146.121 127.289 145.423 127.517 144.617 127.517V129.517C145.838 129.517 146.953 129.159 147.928 128.443L146.746 126.831ZM144.617 127.517H133.417V129.517H144.617V127.517ZM133.417 127.517C132.546 127.517 131.824 127.282 131.208 126.831L130.026 128.443C131.01 129.166 132.155 129.517 133.417 129.517V127.517ZM131.268 126.878C130.686 126.379 130.283 125.733 130.064 124.903L128.13 125.412C128.445 126.608 129.055 127.615 129.966 128.396L131.268 126.878ZM130.057 124.878L115.017 73.0385L113.097 73.5957L128.137 125.436L130.057 124.878ZM114.057 74.3171H126.617V72.3171H114.057V74.3171ZM125.648 73.5624L135.728 113.402L137.667 112.912L127.587 73.0718L125.648 73.5624ZM135.719 113.363C135.931 114.373 136.144 115.41 136.357 116.473L138.318 116.081C138.104 115.011 137.89 113.968 137.676 112.951L135.719 113.363ZM136.359 116.483C136.572 117.496 136.785 118.51 136.999 119.523L138.956 119.111C138.742 118.098 138.529 117.084 138.316 116.071L136.359 116.483ZM137.977 120.317H140.057V118.317H137.977V120.317ZM141.041 119.494C141.41 117.438 141.858 115.382 142.386 113.325L140.448 112.829C139.909 114.932 139.451 117.036 139.073 119.14L141.041 119.494ZM142.387 113.321L152.387 73.561L150.447 73.0732L140.447 112.833L142.387 113.321ZM151.417 74.3171H163.977V72.3171H151.417V74.3171Z" fill="url(#paint3_linear)"/>
<defs>
<linearGradient id="paint0_linear" x1="101" y1="5" x2="101" y2="197" gradientUnits="userSpaceOnUse">
<stop stop-color="#FF4B8B"/>
<stop offset="1" stop-color="#FF4972"/>
</linearGradient>
<linearGradient id="paint1_linear" x1="39.2068" y1="73.4138" x2="39.2068" y2="128.586" gradientUnits="userSpaceOnUse">
<stop stop-color="#FF4B8B"/>
<stop offset="1" stop-color="#FF4972"/>
</linearGradient>
<linearGradient id="paint2_linear" x1="115.448" y1="43.5171" x2="115.448" y2="149.448" gradientUnits="userSpaceOnUse">
<stop stop-color="#FF4B8B"/>
<stop offset="1" stop-color="#FF4972"/>
</linearGradient>
<linearGradient id="paint3_linear" x1="115.448" y1="43.5171" x2="115.448" y2="149.448" gradientUnits="userSpaceOnUse">
<stop stop-color="#FF4B8B"/>
<stop offset="1" stop-color="#FF4972"/>
</linearGradient>
</defs>
</svg>
