<svg width="157" height="192" viewBox="0 0 157 192" fill="none" xmlns="http://www.w3.org/2000/svg">
<path d="M98.7461 128.398C130.732 128.405 156.666 102.472 156.666 70.4793C156.66 31.5578 125.108 0.00635704 86.1854 1.27213e-09C38.5869 -0.000255831 0 38.5867 0 86.1854C3.87624e-06 144.623 47.3772 192 105.815 192C110.047 192 113.479 188.569 113.479 184.336C113.479 180.103 110.047 176.672 105.815 176.672C55.8426 176.672 15.3284 136.157 15.3284 86.1854C15.3284 47.0526 47.0526 15.3284 86.1844 15.3284C116.642 15.3332 141.333 40.024 141.337 70.4803C141.337 94.0053 122.268 113.075 98.7456 113.07C80.7765 113.074 66.2062 98.504 66.2108 80.5332C66.2108 67.0018 77.1779 56.0347 90.7052 56.0388C98.7456 56.0388 100.241 43.3328 90.7077 40.7104C68.714 40.7038 50.8826 58.5351 50.8827 80.5314C50.876 106.969 72.3121 128.405 98.7461 128.398Z" fill="url(#paint0_linear)"/>
<defs>
<linearGradient id="paint0_linear" x1="78.3329" y1="0" x2="78.3329" y2="192" gradientUnits="userSpaceOnUse">
<stop stop-color="#FF4B8B"/>
<stop offset="1" stop-color="#FF4972"/>
</linearGradient>
</defs>
</svg>
