<svg width="202" height="202" viewBox="0 0 202 202" fill="none" xmlns="http://www.w3.org/2000/svg">
<rect x="5" y="5" width="192" height="192" rx="10" stroke="url(#paint0_linear)" stroke-width="10"/>
<path d="M31.4827 73.4138L46.685 105.497C46.8373 105.818 46.8074 106.196 46.6065 106.49L31.4827 128.586" stroke="url(#paint1_linear)" stroke-width="10" stroke-linecap="round"/>
<path d="M78.7725 73.56C83.0925 73.56 87.5725 73.6133 92.2125 73.72C96.8525 73.7733 101.093 73.9867 104.933 74.36L104.373 83.24H83.1725C80.5058 83.24 79.1725 84.6 79.1725 87.32V95.96H101.413V104.6H79.1725V115.48C79.1725 118.2 80.5058 119.56 83.1725 119.56H104.373L104.933 128.44C101.093 128.813 96.8525 129.027 92.2125 129.08C87.5725 129.133 83.0925 129.16 78.7725 129.16C75.2525 129.16 72.3992 128.173 70.2125 126.2C68.0258 124.173 66.9325 121.48 66.9325 118.12V84.68C66.9325 81.32 68.0258 78.6267 70.2125 76.6C72.3992 74.5733 75.2525 73.56 78.7725 73.56ZM170.143 73.8C173.023 73.8 174.516 75.2933 174.623 78.28L176.703 129H165.423L163.583 83.16H162.143L153.262 117.64C152.729 120.2 151.129 121.48 148.462 121.48H140.783C138.063 121.48 136.436 120.2 135.903 117.64L126.943 83.16H125.583L123.903 129H112.623L114.623 78.28C114.729 75.2933 116.249 73.8 119.183 73.8H130.623C133.236 73.8 134.836 75.08 135.423 77.64L142.543 105.48C142.863 106.76 143.129 108.067 143.343 109.4C143.556 110.68 143.796 111.987 144.063 113.32H145.103C145.369 111.987 145.609 110.68 145.823 109.4C146.036 108.067 146.303 106.733 146.623 105.4L153.663 77.64C154.196 75.08 155.823 73.8 158.543 73.8H170.143Z" fill="url(#paint2_linear)"/>
<path d="M92.2125 73.72L92.1895 74.7198L92.201 74.7199L92.2125 73.72ZM104.933 74.36L105.931 74.4229L105.991 73.4582L105.029 73.3647L104.933 74.36ZM104.373 83.24V84.24H105.311L105.371 83.3029L104.373 83.24ZM79.1725 95.96H78.1725V96.96H79.1725V95.96ZM101.413 95.96H102.413V94.96H101.413V95.96ZM101.413 104.6V105.6H102.413V104.6H101.413ZM79.1725 104.6V103.6H78.1725V104.6H79.1725ZM104.373 119.56L105.371 119.497L105.311 118.56H104.373V119.56ZM104.933 128.44L105.029 129.435L105.991 129.342L105.931 128.377L104.933 128.44ZM92.2125 129.08L92.224 130.08L92.2125 129.08ZM70.2125 126.2L69.5327 126.933L69.5425 126.942L70.2125 126.2ZM70.2125 76.6L69.5327 75.8666L70.2125 76.6ZM78.7725 74.56C83.0843 74.56 87.5566 74.6132 92.1895 74.7197L92.2355 72.7203C87.5884 72.6134 83.1007 72.56 78.7725 72.56V74.56ZM92.201 74.7199C96.818 74.773 101.029 74.9852 104.836 75.3553L105.029 73.3647C101.156 72.9881 96.887 72.7737 92.224 72.7201L92.201 74.7199ZM103.934 74.2971L103.374 83.1771L105.371 83.3029L105.931 74.4229L103.934 74.2971ZM104.373 82.24H83.1725V84.24H104.373V82.24ZM83.1725 82.24C81.68 82.24 80.378 82.622 79.4584 83.5599C78.5424 84.4942 78.1725 85.8108 78.1725 87.32H80.1725C80.1725 86.1092 80.4692 85.3858 80.8866 84.9601C81.3003 84.538 81.9984 84.24 83.1725 84.24V82.24ZM78.1725 87.32V95.96H80.1725V87.32H78.1725ZM79.1725 96.96H101.413V94.96H79.1725V96.96ZM100.413 95.96V104.6H102.413V95.96H100.413ZM101.413 103.6H79.1725V105.6H101.413V103.6ZM78.1725 104.6V115.48H80.1725V104.6H78.1725ZM78.1725 115.48C78.1725 116.989 78.5424 118.306 79.4584 119.24C80.378 120.178 81.68 120.56 83.1725 120.56V118.56C81.9984 118.56 81.3003 118.262 80.8866 117.84C80.4692 117.414 80.1725 116.691 80.1725 115.48H78.1725ZM83.1725 120.56H104.373V118.56H83.1725V120.56ZM103.374 119.623L103.934 128.503L105.931 128.377L105.371 119.497L103.374 119.623ZM104.836 127.445C101.029 127.815 96.818 128.027 92.201 128.08L92.224 130.08C96.887 130.026 101.156 129.812 105.029 129.435L104.836 127.445ZM92.201 128.08C87.5646 128.133 83.0884 128.16 78.7725 128.16V130.16C83.0966 130.16 87.5804 130.133 92.224 130.08L92.201 128.08ZM78.7725 128.16C75.4491 128.16 72.8508 127.234 70.8825 125.458L69.5425 126.942C71.9476 129.113 75.0559 130.16 78.7725 130.16V128.16ZM70.8923 125.467C68.9368 123.654 67.9325 121.241 67.9325 118.12H65.9325C65.9325 121.719 67.1149 124.693 69.5327 126.933L70.8923 125.467ZM67.9325 118.12V84.68H65.9325V118.12H67.9325ZM67.9325 84.68C67.9325 81.5593 68.9368 79.1459 70.8923 77.3334L69.5327 75.8666C67.1149 78.1075 65.9325 81.0806 65.9325 84.68H67.9325ZM70.8923 77.3334C72.8613 75.5084 75.4562 74.56 78.7725 74.56V72.56C75.0488 72.56 71.937 73.6382 69.5327 75.8666L70.8923 77.3334ZM174.622 78.28L173.623 78.3157L173.623 78.321L174.622 78.28ZM176.702 129V130H177.744L177.702 128.959L176.702 129ZM165.423 129L164.423 129.04L164.462 130H165.423V129ZM163.583 83.16L164.582 83.1199L164.543 82.16H163.583V83.16ZM162.143 83.16V82.16H161.367L161.174 82.9106L162.143 83.16ZM153.262 117.64L152.294 117.391L152.288 117.413L152.284 117.436L153.262 117.64ZM135.903 117.64L136.881 117.436L136.877 117.412L136.87 117.388L135.903 117.64ZM126.943 83.16L127.91 82.9085L127.716 82.16H126.943V83.16ZM125.583 83.16V82.16H124.618L124.583 83.1234L125.583 83.16ZM123.903 129V130H124.867L124.902 129.037L123.903 129ZM112.623 129L111.623 128.961L111.582 130H112.623V129ZM114.623 78.28L115.622 78.3194L115.622 78.3157L114.623 78.28ZM135.423 77.64L134.448 77.8634L134.451 77.8756L134.454 77.8878L135.423 77.64ZM142.543 105.48L143.513 105.237L143.511 105.232L142.543 105.48ZM143.342 109.4L142.355 109.558L142.356 109.564L143.342 109.4ZM144.062 113.32L143.082 113.516L143.243 114.32H144.062V113.32ZM145.103 113.32V114.32H145.922L146.083 113.516L145.103 113.32ZM145.823 109.4L146.809 109.564L146.81 109.558L145.823 109.4ZM146.623 105.4L145.653 105.154L145.65 105.167L146.623 105.4ZM153.663 77.64L154.632 77.8858L154.637 77.865L154.641 77.844L153.663 77.64ZM170.143 74.8C171.416 74.8 172.216 75.1279 172.715 75.6271C173.221 76.1325 173.575 76.9702 173.623 78.3157L175.622 78.2443C175.563 76.6032 175.118 75.2009 174.13 74.2129C173.135 73.2188 171.749 72.8 170.143 72.8V74.8ZM173.623 78.321L175.703 129.041L177.702 128.959L175.622 78.239L173.623 78.321ZM176.702 128H165.423V130H176.702V128ZM166.422 128.96L164.582 83.1199L162.583 83.2001L164.423 129.04L166.422 128.96ZM163.583 82.16H162.143V84.16H163.583V82.16ZM161.174 82.9106L152.294 117.391L154.231 117.889L163.111 83.4094L161.174 82.9106ZM152.284 117.436C152.051 118.553 151.611 119.281 151.038 119.739C150.462 120.199 149.638 120.48 148.463 120.48V122.48C149.954 122.48 151.263 122.121 152.287 121.301C153.314 120.479 153.941 119.287 154.241 117.844L152.284 117.436ZM148.463 120.48H140.783V122.48H148.463V120.48ZM140.783 120.48C139.576 120.48 138.729 120.197 138.141 119.734C137.557 119.275 137.113 118.548 136.881 117.436L134.924 117.844C135.225 119.292 135.861 120.485 136.904 121.306C137.942 122.123 139.269 122.48 140.783 122.48V120.48ZM136.87 117.388L127.91 82.9085L125.975 83.4115L134.935 117.892L136.87 117.388ZM126.943 82.16H125.583V84.16H126.943V82.16ZM124.583 83.1234L122.903 128.963L124.902 129.037L126.582 83.1966L124.583 83.1234ZM123.903 128H112.623V130H123.903V128ZM113.622 129.039L115.622 78.3194L113.623 78.2406L111.623 128.961L113.622 129.039ZM115.622 78.3157C115.67 76.9745 116.028 76.1392 116.543 75.6333C117.055 75.1305 117.877 74.8 119.183 74.8V72.8C117.554 72.8 116.15 73.2161 115.142 74.2067C114.137 75.1941 113.682 76.5988 113.623 78.2443L115.622 78.3157ZM119.183 74.8H130.622V72.8H119.183V74.8ZM130.622 74.8C131.766 74.8 132.579 75.0779 133.158 75.5409C133.737 76.0043 134.19 76.7405 134.448 77.8634L136.397 77.4166C136.068 75.9795 135.428 74.7957 134.407 73.9791C133.386 73.1621 132.093 72.8 130.622 72.8V74.8ZM134.454 77.8878L141.574 105.728L143.511 105.232L136.391 77.3922L134.454 77.8878ZM141.572 105.723C141.885 106.974 142.146 108.252 142.355 109.558L144.33 109.242C144.112 107.881 143.84 106.546 143.513 105.237L141.572 105.723ZM142.356 109.564C142.571 110.855 142.813 112.173 143.082 113.516L145.043 113.124C144.778 111.801 144.54 110.505 144.329 109.236L142.356 109.564ZM144.062 114.32H145.103V112.32H144.062V114.32ZM146.083 113.516C146.352 112.173 146.594 110.855 146.809 109.564L144.836 109.236C144.625 110.505 144.387 111.801 144.122 113.124L146.083 113.516ZM146.81 109.558C147.019 108.25 147.281 106.942 147.595 105.633L145.65 105.167C145.324 106.524 145.053 107.883 144.835 109.242L146.81 109.558ZM147.592 105.646L154.632 77.8858L152.693 77.3942L145.653 105.154L147.592 105.646ZM154.641 77.844C154.873 76.7321 155.317 76.0054 155.901 75.5459C156.489 75.0828 157.336 74.8 158.543 74.8V72.8C157.029 72.8 155.702 73.1572 154.664 73.9741C153.621 74.7946 152.985 75.9879 152.684 77.436L154.641 77.844ZM158.543 74.8H170.143V72.8H158.543V74.8Z" fill="url(#paint3_linear)"/>
<defs>
<linearGradient id="paint0_linear" x1="101" y1="5" x2="101" y2="197" gradientUnits="userSpaceOnUse">
<stop stop-color="#FF4B8B"/>
<stop offset="1" stop-color="#FF4972"/>
</linearGradient>
<linearGradient id="paint1_linear" x1="39.2068" y1="73.4138" x2="39.2068" y2="128.586" gradientUnits="userSpaceOnUse">
<stop stop-color="#FF4B8B"/>
<stop offset="1" stop-color="#FF4972"/>
</linearGradient>
<linearGradient id="paint2_linear" x1="121.5" y1="45" x2="121.5" y2="150" gradientUnits="userSpaceOnUse">
<stop stop-color="#FF4B8B"/>
<stop offset="1" stop-color="#FF4972"/>
</linearGradient>
<linearGradient id="paint3_linear" x1="121.5" y1="45" x2="121.5" y2="150" gradientUnits="userSpaceOnUse">
<stop stop-color="#FF4B8B"/>
<stop offset="1" stop-color="#FF4972"/>
</linearGradient>
</defs>
</svg>
