<svg width="204" height="204" viewBox="0 0 204 204" fill="none" xmlns="http://www.w3.org/2000/svg">
<mask id="path-1-outside-1" maskUnits="userSpaceOnUse" x="0" y="0" width="204" height="204" fill="black">
<rect fill="white" width="204" height="204"/>
<path fill-rule="evenodd" clip-rule="evenodd" d="M1 16C1 7.71572 7.71573 1 16 1H188C196.284 1 203 7.71573 203 16V188C203 196.284 196.284 203 188 203H16C7.71572 203 1 196.284 1 188V16ZM16 11C13.2386 11 11 13.2386 11 16V188C11 190.761 13.2386 193 16 193H188C190.761 193 193 190.761 193 188V16C193 13.2386 190.761 11 188 11H16ZM30.3418 69.8954C32.8372 68.713 35.8187 69.7773 37.0012 72.2728L52.2035 104.356C53.1173 106.284 52.938 108.553 51.7327 110.314L36.6089 132.41C35.0492 134.689 31.9375 135.272 29.6587 133.712C27.3799 132.153 26.797 129.041 28.3567 126.762L42.1829 106.562L27.9644 76.5548C26.7819 74.0594 27.8463 71.0779 30.3418 69.8954ZM99.9968 73.2373C95.3568 73.1307 90.8768 73.0773 86.5568 73.0773C83.0368 73.0773 80.1834 74.0907 77.9968 76.1173C75.8101 78.144 74.7168 80.8373 74.7168 84.1973V117.637C74.7168 120.997 75.8101 123.691 77.9968 125.717C80.1834 127.691 83.0368 128.677 86.5568 128.677C90.8768 128.677 95.3568 128.651 99.9968 128.597C104.637 128.544 108.877 128.331 112.717 127.957L112.157 119.077H90.9568C88.2901 119.077 86.9568 117.717 86.9568 114.997V104.117H109.197V95.4773H86.9568V86.8373C86.9568 84.1173 88.2901 82.7573 90.9568 82.7573H112.157L112.717 73.8773C108.877 73.504 104.637 73.2907 99.9968 73.2373ZM154.647 74.1173C151.713 73.0507 147.687 72.5173 142.567 72.5173C139.26 72.5173 136.433 72.544 134.087 72.5973C131.793 72.6507 129.66 72.7307 127.687 72.8373C125.713 72.944 123.633 73.104 121.447 73.3173V128.517H133.607V107.957C135.26 108.117 136.967 108.251 138.727 108.357C140.54 108.464 142.353 108.544 144.167 108.597C148.753 108.544 152.407 108.011 155.127 106.997C157.9 105.984 159.873 104.171 161.047 101.557C162.273 98.944 162.887 95.2907 162.887 90.5973C162.887 85.904 162.247 82.2507 160.967 79.6373C159.74 77.024 157.633 75.184 154.647 74.1173ZM137.687 81.7173H142.327C145.527 81.7173 147.713 82.3307 148.887 83.5573C150.06 84.7307 150.647 87.0773 150.647 90.5973C150.647 94.1173 150.06 96.464 148.887 97.6373C147.713 98.8107 145.527 99.3973 142.327 99.3973H133.607V81.7173H137.687Z"/>
</mask>
<path fill-rule="evenodd" clip-rule="evenodd" d="M1 16C1 7.71572 7.71573 1 16 1H188C196.284 1 203 7.71573 203 16V188C203 196.284 196.284 203 188 203H16C7.71572 203 1 196.284 1 188V16ZM16 11C13.2386 11 11 13.2386 11 16V188C11 190.761 13.2386 193 16 193H188C190.761 193 193 190.761 193 188V16C193 13.2386 190.761 11 188 11H16ZM30.3418 69.8954C32.8372 68.713 35.8187 69.7773 37.0012 72.2728L52.2035 104.356C53.1173 106.284 52.938 108.553 51.7327 110.314L36.6089 132.41C35.0492 134.689 31.9375 135.272 29.6587 133.712C27.3799 132.153 26.797 129.041 28.3567 126.762L42.1829 106.562L27.9644 76.5548C26.7819 74.0594 27.8463 71.0779 30.3418 69.8954ZM99.9968 73.2373C95.3568 73.1307 90.8768 73.0773 86.5568 73.0773C83.0368 73.0773 80.1834 74.0907 77.9968 76.1173C75.8101 78.144 74.7168 80.8373 74.7168 84.1973V117.637C74.7168 120.997 75.8101 123.691 77.9968 125.717C80.1834 127.691 83.0368 128.677 86.5568 128.677C90.8768 128.677 95.3568 128.651 99.9968 128.597C104.637 128.544 108.877 128.331 112.717 127.957L112.157 119.077H90.9568C88.2901 119.077 86.9568 117.717 86.9568 114.997V104.117H109.197V95.4773H86.9568V86.8373C86.9568 84.1173 88.2901 82.7573 90.9568 82.7573H112.157L112.717 73.8773C108.877 73.504 104.637 73.2907 99.9968 73.2373ZM154.647 74.1173C151.713 73.0507 147.687 72.5173 142.567 72.5173C139.26 72.5173 136.433 72.544 134.087 72.5973C131.793 72.6507 129.66 72.7307 127.687 72.8373C125.713 72.944 123.633 73.104 121.447 73.3173V128.517H133.607V107.957C135.26 108.117 136.967 108.251 138.727 108.357C140.54 108.464 142.353 108.544 144.167 108.597C148.753 108.544 152.407 108.011 155.127 106.997C157.9 105.984 159.873 104.171 161.047 101.557C162.273 98.944 162.887 95.2907 162.887 90.5973C162.887 85.904 162.247 82.2507 160.967 79.6373C159.74 77.024 157.633 75.184 154.647 74.1173ZM137.687 81.7173H142.327C145.527 81.7173 147.713 82.3307 148.887 83.5573C150.06 84.7307 150.647 87.0773 150.647 90.5973C150.647 94.1173 150.06 96.464 148.887 97.6373C147.713 98.8107 145.527 99.3973 142.327 99.3973H133.607V81.7173H137.687Z" fill="url(#paint0_linear)"/>
<path d="M37.0012 72.2728L37.9049 71.8446L37.0012 72.2728ZM30.3418 69.8954L30.77 70.7991L30.77 70.7991L30.3418 69.8954ZM52.2035 104.356L51.2998 104.784L51.2998 104.784L52.2035 104.356ZM51.7327 110.314L50.9075 109.749L50.9075 109.749L51.7327 110.314ZM36.6089 132.41L35.7837 131.845L35.7837 131.845L36.6089 132.41ZM29.6587 133.712L29.0939 134.538L29.0939 134.538L29.6587 133.712ZM28.3567 126.762L29.1819 127.327L29.1819 127.327L28.3567 126.762ZM42.1829 106.562L43.0081 107.126L43.3326 106.652L43.0866 106.133L42.1829 106.562ZM27.9644 76.5548L27.0607 76.9831L27.0607 76.9831L27.9644 76.5548ZM99.9968 73.2373L99.9738 74.2371L99.9853 74.2373L99.9968 73.2373ZM77.9968 125.717L77.3169 126.451L77.3268 126.46L77.9968 125.717ZM99.9968 128.597L100.008 129.597L100.008 129.597L99.9968 128.597ZM112.717 127.957L112.814 128.953L113.776 128.859L113.715 127.894L112.717 127.957ZM112.157 119.077L113.155 119.014L113.096 118.077H112.157V119.077ZM86.9568 104.117V103.117H85.9568V104.117H86.9568ZM109.197 104.117V105.117H110.197V104.117H109.197ZM109.197 95.4773H110.197V94.4773H109.197V95.4773ZM86.9568 95.4773H85.9568V96.4773H86.9568V95.4773ZM112.157 82.7573V83.7573H113.096L113.155 82.8203L112.157 82.7573ZM112.717 73.8773L113.715 73.9403L113.776 72.9756L112.814 72.882L112.717 73.8773ZM154.647 74.1173L154.305 75.0571L154.31 75.0591L154.647 74.1173ZM134.087 72.5973L134.064 71.5976L134.064 71.5976L134.087 72.5973ZM127.687 72.8373L127.633 71.8388L127.633 71.8388L127.687 72.8373ZM121.447 73.3173L121.35 72.3221L120.447 72.4101V73.3173H121.447ZM121.447 128.517H120.447V129.517H121.447V128.517ZM133.607 128.517V129.517H134.607V128.517H133.607ZM133.607 107.957L133.703 106.962L132.607 106.856V107.957H133.607ZM138.727 108.357L138.666 109.356L138.668 109.356L138.727 108.357ZM144.167 108.597L144.137 109.597L144.158 109.598L144.178 109.597L144.167 108.597ZM155.127 106.997L154.784 106.058L154.778 106.06L155.127 106.997ZM161.047 101.557L160.142 101.132L160.138 101.14L160.134 101.148L161.047 101.557ZM160.967 79.6373L160.062 80.0622L160.065 80.0698L160.069 80.0772L160.967 79.6373ZM148.887 83.5573L148.164 84.2486L148.172 84.2566L148.18 84.2644L148.887 83.5573ZM148.887 97.6373L149.594 98.3444L149.594 98.3444L148.887 97.6373ZM133.607 99.3973H132.607V100.397H133.607V99.3973ZM133.607 81.7173V80.7173H132.607V81.7173H133.607ZM16 0C7.16345 0 0 7.16344 0 16H2C2 8.26801 8.26802 2 16 2V0ZM188 0H16V2H188V0ZM204 16C204 7.16345 196.837 0 188 0V2C195.732 2 202 8.26802 202 16H204ZM204 188V16H202V188H204ZM188 204C196.837 204 204 196.837 204 188H202C202 195.732 195.732 202 188 202V204ZM16 204H188V202H16V204ZM0 188C0 196.837 7.16344 204 16 204V202C8.26801 202 2 195.732 2 188H0ZM0 16V188H2V16H0ZM12 16C12 13.7909 13.7909 12 16 12V10C12.6863 10 10 12.6863 10 16H12ZM12 188V16H10V188H12ZM16 192C13.7909 192 12 190.209 12 188H10C10 191.314 12.6863 194 16 194V192ZM188 192H16V194H188V192ZM192 188C192 190.209 190.209 192 188 192V194C191.314 194 194 191.314 194 188H192ZM192 16V188H194V16H192ZM188 12C190.209 12 192 13.7909 192 16H194C194 12.6863 191.314 10 188 10V12ZM16 12H188V10H16V12ZM37.9049 71.8446C36.4859 68.85 32.9081 67.5728 29.9136 68.9917L30.77 70.7991C32.7663 69.8531 35.1515 70.7046 36.0975 72.701L37.9049 71.8446ZM53.1072 103.927L37.9049 71.8446L36.0975 72.701L51.2998 104.784L53.1072 103.927ZM52.558 110.879C53.9642 108.824 54.1733 106.177 53.1072 103.927L51.2998 104.784C52.0613 106.391 51.9119 108.281 50.9075 109.749L52.558 110.879ZM37.4341 132.975L52.558 110.879L50.9075 109.749L35.7837 131.845L37.4341 132.975ZM29.0939 134.538C31.8284 136.409 35.5625 135.71 37.4341 132.975L35.7837 131.845C34.5359 133.669 32.0465 134.135 30.2235 132.887L29.0939 134.538ZM27.5315 126.197C25.6598 128.932 26.3594 132.666 29.0939 134.538L30.2235 132.887C28.4005 131.639 27.9342 129.15 29.1819 127.327L27.5315 126.197ZM41.3577 105.997L27.5315 126.197L29.1819 127.327L43.0081 107.126L41.3577 105.997ZM27.0607 76.9831L41.2792 106.99L43.0866 106.133L28.8681 76.1266L27.0607 76.9831ZM29.9136 68.9917C26.919 70.4107 25.6418 73.9885 27.0607 76.9831L28.8681 76.1266C27.9221 74.1303 28.7736 71.7451 30.77 70.7991L29.9136 68.9917ZM86.5568 74.0773C90.8686 74.0773 95.3409 74.1306 99.9738 74.2371L100.02 72.2376C95.3727 72.1308 90.885 72.0773 86.5568 72.0773V74.0773ZM78.6765 76.8508C80.6456 75.0258 83.2404 74.0773 86.5568 74.0773V72.0773C82.8331 72.0773 79.7213 73.1556 77.317 75.3839L78.6765 76.8508ZM75.7168 84.1973C75.7168 81.0767 76.721 78.6632 78.6765 76.8508L77.317 75.3839C74.8992 77.6248 73.7168 80.598 73.7168 84.1973H75.7168ZM75.7168 117.637V84.1973H73.7168V117.637H75.7168ZM78.6765 124.984C76.721 123.171 75.7168 120.758 75.7168 117.637H73.7168C73.7168 121.237 74.8992 124.21 77.317 126.451L78.6765 124.984ZM86.5568 127.677C83.2333 127.677 80.6351 126.751 78.6667 124.975L77.3268 126.46C79.7318 128.63 82.8402 129.677 86.5568 129.677V127.677ZM99.9853 127.597C95.3488 127.651 90.8727 127.677 86.5568 127.677V129.677C90.8809 129.677 95.3647 129.651 100.008 129.597L99.9853 127.597ZM112.62 126.962C108.813 127.332 104.602 127.544 99.9853 127.597L100.008 129.597C104.671 129.544 108.94 129.329 112.814 128.953L112.62 126.962ZM111.159 119.14L111.719 128.02L113.715 127.894L113.155 119.014L111.159 119.14ZM90.9568 120.077H112.157V118.077H90.9568V120.077ZM85.9568 114.997C85.9568 116.507 86.3267 117.823 87.2427 118.757C88.1623 119.695 89.4642 120.077 90.9568 120.077V118.077C89.7827 118.077 89.0846 117.779 88.6708 117.357C88.2535 116.932 87.9568 116.208 87.9568 114.997H85.9568ZM85.9568 104.117V114.997H87.9568V104.117H85.9568ZM109.197 103.117H86.9568V105.117H109.197V103.117ZM108.197 95.4773V104.117H110.197V95.4773H108.197ZM86.9568 96.4773H109.197V94.4773H86.9568V96.4773ZM85.9568 86.8373V95.4773H87.9568V86.8373H85.9568ZM90.9568 81.7573C89.4642 81.7573 88.1623 82.1393 87.2427 83.0773C86.3267 84.0116 85.9568 85.3281 85.9568 86.8373H87.9568C87.9568 85.6266 88.2535 84.9031 88.6708 84.4774C89.0846 84.0554 89.7827 83.7573 90.9568 83.7573V81.7573ZM112.157 81.7573H90.9568V83.7573H112.157V81.7573ZM111.719 73.8144L111.159 82.6944L113.155 82.8203L113.715 73.9403L111.719 73.8144ZM99.9853 74.2373C104.602 74.2903 108.813 74.5025 112.62 74.8726L112.814 72.882C108.94 72.5055 104.671 72.291 100.008 72.2374L99.9853 74.2373ZM142.567 73.5173C147.635 73.5173 151.529 74.0476 154.305 75.0571L154.989 73.1775C151.898 72.0537 147.739 71.5173 142.567 71.5173V73.5173ZM134.109 73.5971C136.446 73.544 139.265 73.5173 142.567 73.5173V71.5173C139.255 71.5173 136.421 71.544 134.064 71.5976L134.109 73.5971ZM127.741 73.8359C129.702 73.7298 131.825 73.6502 134.11 73.5971L134.064 71.5976C131.762 71.6511 129.618 71.7315 127.633 71.8388L127.741 73.8359ZM121.544 74.3126C123.718 74.1005 125.783 73.9417 127.741 73.8359L127.633 71.8388C125.644 71.9463 123.549 72.1075 121.35 72.3221L121.544 74.3126ZM122.447 128.517V73.3173H120.447V128.517H122.447ZM133.607 127.517H121.447V129.517H133.607V127.517ZM132.607 107.957V128.517H134.607V107.957H132.607ZM138.787 107.359C137.038 107.253 135.344 107.121 133.703 106.962L133.51 108.953C135.176 109.114 136.895 109.248 138.666 109.355L138.787 107.359ZM144.196 107.598C142.393 107.545 140.589 107.465 138.785 107.359L138.668 109.356C140.491 109.463 142.314 109.543 144.137 109.597L144.196 107.598ZM154.778 106.06C152.21 107.017 148.685 107.545 144.155 107.597L144.178 109.597C148.821 109.543 152.604 109.004 155.476 107.934L154.778 106.06ZM160.134 101.148C159.075 103.507 157.312 105.134 154.784 106.058L155.47 107.937C158.488 106.834 160.671 104.835 161.959 101.967L160.134 101.148ZM161.887 90.5973C161.887 95.2249 161.279 98.7099 160.142 101.132L161.952 101.982C163.268 99.1781 163.887 95.3564 163.887 90.5973H161.887ZM160.069 80.0772C161.253 82.4947 161.887 85.9735 161.887 90.5973H163.887C163.887 85.8345 163.241 82.0066 161.865 79.1975L160.069 80.0772ZM154.31 75.0591C157.073 76.0458 158.96 77.715 160.062 80.0622L161.872 79.2124C160.52 76.333 158.193 74.3222 154.983 73.1756L154.31 75.0591ZM142.327 80.7173H137.687V82.7173H142.327V80.7173ZM149.609 82.8661C148.137 81.3268 145.582 80.7173 142.327 80.7173V82.7173C145.471 82.7173 147.29 83.3345 148.164 84.2486L149.609 82.8661ZM151.647 90.5973C151.647 88.7891 151.497 87.2344 151.177 85.9548C150.859 84.6812 150.354 83.6108 149.594 82.8502L148.18 84.2644C148.592 84.6772 148.968 85.3668 149.237 86.4399C149.503 87.5069 149.647 88.8856 149.647 90.5973H151.647ZM149.594 98.3444C150.354 97.5839 150.859 96.5134 151.177 95.2399C151.497 93.9602 151.647 92.4056 151.647 90.5973H149.647C149.647 92.3091 149.503 93.6878 149.237 94.7548C148.968 95.8279 148.592 96.5174 148.18 96.9302L149.594 98.3444ZM142.327 100.397C145.574 100.397 148.121 99.8172 149.594 98.3444L148.18 96.9302C147.306 97.8041 145.479 98.3973 142.327 98.3973V100.397ZM133.607 100.397H142.327V98.3973H133.607V100.397ZM132.607 81.7173V99.3973H134.607V81.7173H132.607ZM137.687 80.7173H133.607V82.7173H137.687V80.7173Z" fill="url(#paint1_linear)" mask="url(#path-1-outside-1)"/>
<defs>
<linearGradient id="paint0_linear" x1="172.075" y1="39.9813" x2="3.46914" y2="186.367" gradientUnits="userSpaceOnUse">
<stop stop-color="#00DDFD"/>
<stop offset="1" stop-color="#00AAFE"/>
</linearGradient>
<linearGradient id="paint1_linear" x1="172.075" y1="39.9813" x2="3.46914" y2="186.367" gradientUnits="userSpaceOnUse">
<stop stop-color="#00DDFD"/>
<stop offset="1" stop-color="#00AAFE"/>
</linearGradient>
</defs>
</svg>
