<svg width="556" height="501" viewBox="0 0 556 501" fill="none" xmlns="http://www.w3.org/2000/svg">
<path d="M366.997 222.459C366.997 271.53 327.074 311.452 278.003 311.452C228.932 311.452 189.01 271.807 189.01 222.459" stroke="url(#paint0_linear)" stroke-width="30" stroke-linecap="round"/>
<path d="M450.728 222.743C450.728 317.836 373.101 395.462 278.009 395.462C182.361 395.462 104.735 317.836 105.289 222.743" stroke="url(#paint1_linear)" stroke-width="30" stroke-linecap="round"/>
<path d="M21 222.733C21 364.402 136.331 479.733 278 479.733C419.669 479.733 535 364.402 535 222.733" stroke="url(#paint2_linear)" stroke-width="30" stroke-linecap="round"/>
<path d="M162.401 106.845C179.59 115.716 198.165 117.38 214.799 127.083C225.611 133.459 232.542 140.39 239.196 150.925C249.394 166.222 249.201 185.415 249.178 186.629C249.177 186.67 249.178 186.71 249.181 186.751L250.55 208.386C250.559 208.522 250.583 208.644 250.634 208.77C251.476 210.858 259.868 230.493 277.455 230.493C296.181 230.493 303.616 210.671 304.295 208.742C304.334 208.632 304.351 208.533 304.358 208.417L305.729 186.751C305.732 186.71 305.733 186.67 305.732 186.629C305.709 185.424 305.519 166.487 315.714 150.925C322.368 140.39 329.021 132.905 340.111 127.083C356.745 117.38 375.32 115.716 392.509 106.845C409.698 97.9729 426.332 86.6061 437.699 70.8036C448.884 55.2533 454.163 34.6025 448.517 16.2477C448.352 15.7092 447.866 15.3368 447.303 15.3101C414.806 13.767 377.542 17.7209 348.983 33.0991C308.9 54.3842 284.529 47.0045 277.241 78.5653C277.205 78.7231 277.063 78.8434 276.901 78.8434C276.739 78.8434 276.596 78.7227 276.56 78.5646C269.275 46.7286 245.178 54.3846 204.819 33.0991C176.255 17.7187 138.985 13.7659 106.485 15.3107C105.929 15.3371 105.447 15.7016 105.276 16.2316C99.3662 34.582 104.914 54.976 116.102 70.8036C128.301 86.8834 145.212 98.2501 162.401 106.845ZM162.401 106.845L-nan -nanC-nan -nan -nan -nan -nan -nanL-nan -nanC-nan -nan -nan -nan -nan -nanL162.401 106.845Z" stroke="url(#paint3_linear)" stroke-width="30"/>
<defs>
<linearGradient id="paint0_linear" x1="217.058" y1="997.03" x2="684.639" y2="810.402" gradientUnits="userSpaceOnUse">
<stop stop-color="#33D9EB"/>
<stop offset="1" stop-color="#2CD9CB"/>
</linearGradient>
<linearGradient id="paint1_linear" x1="159.723" y1="1726.04" x2="1067.22" y2="1363.82" gradientUnits="userSpaceOnUse">
<stop stop-color="#33D9EB"/>
<stop offset="1" stop-color="#2CD9CB"/>
</linearGradient>
<linearGradient id="paint2_linear" x1="101.999" y1="2459.58" x2="1452.3" y2="1920.62" gradientUnits="userSpaceOnUse">
<stop stop-color="#33D9EB"/>
<stop offset="1" stop-color="#2CD9CB"/>
</linearGradient>
<linearGradient id="paint3_linear" x1="276.84" y1="15" x2="276.84" y2="230.493" gradientUnits="userSpaceOnUse">
<stop stop-color="#1E8CFF"/>
<stop offset="1" stop-color="#6566FF"/>
</linearGradient>
</defs>
</svg>
