<svg width="54" height="48" viewBox="0 0 54 48" fill="none" xmlns="http://www.w3.org/2000/svg">
<path fill-rule="evenodd" clip-rule="evenodd" d="M33.6511 0.104324C33.3531 0.18146 33.1347 0.33926 32.7237 0.774975C32.4933 1.01905 32.076 1.45028 31.7965 1.73332C31.5168 2.01637 30.8571 2.69247 30.3306 3.23579C29.8041 3.77895 29.2376 4.35659 29.0716 4.5192C28.9056 4.68181 28.6656 4.92605 28.538 5.06188C27.9764 5.66037 26.9236 6.69954 26.8791 6.69954C26.8301 6.69954 26.197 6.08534 25.6938 5.54955C25.5458 5.39191 25.2632 5.10406 25.0658 4.91001C24.8682 4.71581 24.5746 4.41962 24.413 4.25171C24.0812 3.90692 23.0418 2.84915 22.4761 2.28065C22.2694 2.07282 21.9733 1.76652 21.818 1.5999C20.5877 0.279122 20.2415 0.0544499 19.6591 0.198298C19.2739 0.293395 18.9942 0.407255 18.9935 0.469477C18.9934 0.492891 18.9643 0.511975 18.929 0.511975C18.729 0.511975 18.6939 0.669614 18.6939 1.56542V2.45657L18.9464 2.41825C19.0853 2.39724 19.2131 2.36196 19.2307 2.33999C19.3966 2.13055 19.7604 2.13328 19.9067 2.34496C19.9546 2.41408 20.1126 2.58551 20.2581 2.72599C20.4035 2.86647 20.5644 3.03854 20.6156 3.10862C20.6668 3.17854 20.9756 3.50104 21.3018 3.8253C21.6278 4.14956 22.0429 4.57325 22.2238 4.76697C22.4048 4.96085 22.7009 5.26811 22.8819 5.44981C23.9082 6.48064 24.5609 7.14857 24.7135 7.32401C24.8085 7.43322 24.9468 7.58123 25.0208 7.65292C25.2045 7.83092 25.1971 7.84471 24.8403 7.99594C24.6681 8.06891 24.4558 8.16464 24.3684 8.20875C24.281 8.25301 24.1666 8.28909 24.1142 8.28909C24.0616 8.28909 24.0187 8.30946 24.0187 8.33447C24.0187 8.35933 23.9176 8.41434 23.7943 8.45651C23.5571 8.53782 23.0286 8.7596 22.4332 9.02806C22.2358 9.11706 21.6165 9.38583 21.0572 9.62542C20.4978 9.86501 19.9189 10.1187 19.7708 10.1893C19.6228 10.2598 19.3671 10.3785 19.2024 10.4529C19.038 10.5273 18.8943 10.6073 18.8833 10.6308C18.8724 10.6542 18.8254 10.6733 18.7787 10.6733C18.7089 10.6733 18.6939 10.8436 18.6939 11.6383C18.6939 12.2439 18.7162 12.6034 18.7537 12.6034C18.7867 12.6034 18.8135 12.5806 18.8135 12.5531C18.8135 12.5253 18.9347 12.4855 19.0828 12.4644C19.2308 12.4434 19.352 12.4022 19.352 12.3728C19.352 12.3435 19.3924 12.3196 19.4418 12.3196C19.4911 12.3196 19.5315 12.3003 19.5315 12.2769C19.5315 12.2535 19.6931 12.1853 19.8905 12.1255C20.0879 12.0657 20.2495 11.9955 20.2495 11.9695C20.2495 11.9434 20.2868 11.9222 20.3323 11.9222C20.3779 11.9222 20.4924 11.884 20.5867 11.8373C20.681 11.7907 20.8052 11.7524 20.8627 11.7522C20.9203 11.752 20.9675 11.7264 20.9675 11.6951C20.9675 11.6638 21.0011 11.638 21.0422 11.6379C21.0834 11.6375 21.2516 11.5745 21.4162 11.4977C21.5807 11.4209 21.7624 11.3572 21.82 11.3563C21.8776 11.3553 21.9248 11.3354 21.9249 11.312C21.9249 11.2884 22.0529 11.2219 22.2091 11.164C22.3652 11.1059 22.6411 10.9953 22.8221 10.918C23.0031 10.8407 23.2051 10.7566 23.2708 10.7311C23.5015 10.642 23.8713 10.4871 24.1047 10.382C24.2342 10.3237 24.3757 10.2759 24.4188 10.2759C24.462 10.2759 24.4974 10.2515 24.4974 10.2217C24.4974 10.192 24.5915 10.1508 24.7068 10.1303C24.8219 10.1097 24.9162 10.0703 24.9162 10.0425C24.9162 10.0148 24.9515 9.99202 24.9946 9.99202C25.0379 9.99202 25.1792 9.94439 25.3086 9.88601C25.5236 9.78931 25.8326 9.65926 26.1426 9.53529C26.2085 9.50899 26.3886 9.4349 26.5431 9.37076C26.9221 9.21344 26.894 9.20831 27.758 9.59479C27.8895 9.65364 28.1251 9.75435 28.2815 9.8185C28.5962 9.94776 28.9379 10.0929 29.5229 10.3451C29.7368 10.4374 29.9993 10.549 30.1063 10.5931C30.2131 10.6372 30.3882 10.7093 30.4951 10.7536C30.602 10.7977 30.8512 10.9021 31.0486 10.9856C31.58 11.2105 31.8615 11.3291 32.0955 11.4271C32.2107 11.4754 32.4874 11.5938 32.7103 11.6901C32.9333 11.7865 33.1265 11.8654 33.1396 11.8654C33.1652 11.8654 33.8522 12.1619 34.4673 12.4382C34.6694 12.529 34.8506 12.6034 34.8697 12.6034C34.902 12.6034 35.23 12.741 36.0442 13.0962C36.2252 13.1751 36.4272 13.2608 36.4929 13.2866C36.5588 13.3122 36.7875 13.4097 37.0015 13.5031C37.2153 13.5966 37.6461 13.7794 37.9588 13.9096C38.2713 14.0397 38.6348 14.1928 38.7663 14.2496C38.898 14.3065 39.2616 14.4597 39.5741 14.5902C40.143 14.8277 40.3544 14.9178 41.0563 15.2222C41.2629 15.3117 41.4425 15.385 41.4559 15.385C41.4691 15.385 41.6905 15.4767 41.9479 15.5888C42.2053 15.701 42.4967 15.8258 42.5954 15.8661C42.6941 15.9065 42.9087 15.9961 43.0722 16.0656C43.2356 16.1352 43.4356 16.2157 43.5164 16.2449C43.7104 16.3149 43.6232 16.3909 43.104 16.6039C42.8902 16.6918 42.518 16.8493 42.277 16.9542C42.0359 17.0589 41.8281 17.1447 41.8149 17.1447C41.8015 17.1447 41.6219 17.218 41.4153 17.3073C40.7333 17.6028 40.3243 17.778 40.1425 17.8525C39.7037 18.0321 39.5152 18.1118 39.0761 18.3032C38.8187 18.4152 38.596 18.5071 38.5811 18.5071C38.5661 18.5071 38.2982 18.6221 37.9855 18.7626C37.6728 18.9031 37.4061 19.0181 37.3931 19.0181C37.3799 19.0181 37.1585 19.1085 36.9011 19.219C36.6437 19.3297 36.3793 19.4426 36.3134 19.4701C36.2477 19.4976 35.9556 19.6242 35.6644 19.7516C35.3734 19.8789 35.1251 19.983 35.1127 19.983C35.0906 19.983 34.7968 20.1079 33.9609 20.4729C33.7199 20.5781 33.512 20.6642 33.499 20.6642C33.4753 20.6642 33.1915 20.7848 32.3454 21.1541C32.1044 21.2593 31.8965 21.3455 31.8833 21.3455C31.8561 21.3455 31.2328 21.6128 30.681 21.8612C30.4788 21.9521 30.2978 22.0267 30.2787 22.0267C30.2461 22.0267 29.9875 22.1356 29.0442 22.5464C28.8304 22.6396 28.6016 22.7368 28.5357 22.7626C28.3017 22.8542 27.6965 23.1133 27.5942 23.1656C27.5371 23.1948 27.4496 23.2187 27.3999 23.2187C27.35 23.2187 27.3093 23.2402 27.3093 23.2665C27.3093 23.4296 26.8529 23.4539 26.5183 23.3087C26.332 23.2278 26.104 23.135 26.0116 23.1023C25.6759 22.9836 25.5143 22.9063 25.5143 22.8643C25.5143 22.8407 25.4728 22.8213 25.4219 22.8213C25.371 22.8213 25.1281 22.732 24.882 22.6226C24.6361 22.5134 24.4152 22.4234 24.3912 22.4228C24.3674 22.422 24.1862 22.346 23.9888 22.2538C23.7914 22.1614 23.6088 22.0854 23.5832 22.0847C23.5576 22.0839 23.3421 21.997 23.1047 21.8913C22.867 21.7857 22.5716 21.6655 22.4482 21.6245C22.3248 21.5833 22.2238 21.5292 22.2238 21.5044C22.2238 21.4794 22.182 21.459 22.1308 21.459C22.0796 21.459 21.918 21.4078 21.7718 21.3455C21.6256 21.2829 21.378 21.179 21.2217 21.1142C21.0653 21.0496 20.8568 20.9622 20.7581 20.92C20.6594 20.8778 20.4305 20.7896 20.2495 20.7239C19.9061 20.5991 19.8677 20.5839 19.3857 20.3807C19.2232 20.3122 19.0011 20.2426 18.8921 20.2258L18.6939 20.1953V21.1394C18.6939 21.7265 18.7164 22.0835 18.7534 22.0835C18.8554 22.0835 19.2922 22.2783 19.2922 22.3238C19.2922 22.3477 19.3255 22.3673 19.3662 22.3673C19.4068 22.3673 19.5751 22.429 19.7401 22.5046C19.905 22.58 20.1276 22.6757 20.2344 22.7171C20.3414 22.7584 20.429 22.8088 20.429 22.8288C20.429 22.849 20.5231 22.8822 20.6384 22.9028C20.7535 22.9233 20.8478 22.9645 20.8478 22.9942C20.8478 23.024 20.9151 23.0484 20.9974 23.0484C21.0795 23.0484 21.147 23.074 21.147 23.1052C21.147 23.1364 21.1875 23.1619 21.2371 23.1619C21.2867 23.1619 21.4549 23.2235 21.6111 23.2987C22.035 23.503 22.5784 23.7296 22.6443 23.7296C22.6762 23.7296 22.7024 23.7551 22.7024 23.7864C22.7024 23.8177 22.7431 23.8432 22.793 23.8432C22.8429 23.8432 22.9303 23.8674 22.9874 23.897C23.1789 23.9963 23.8666 24.2837 24.0934 24.3591C24.2168 24.4001 24.3179 24.454 24.3179 24.479C24.3179 24.504 24.3701 24.5244 24.434 24.5244C24.4979 24.5244 24.5655 24.548 24.5842 24.5768C24.603 24.6055 24.696 24.6453 24.7909 24.6652C25.2091 24.7523 25.2087 24.8812 24.7893 25.2925C24.5793 25.4985 24.2864 25.7963 24.1384 25.9544C23.9903 26.1125 23.6376 26.4749 23.3546 26.7597C23.0717 27.0445 22.7352 27.3924 22.6068 27.5325C22.4785 27.6729 22.3061 27.8541 22.2238 27.9354C22.0402 28.1169 21.5651 28.607 20.9587 29.2406C20.707 29.5034 20.3031 29.9157 20.0612 30.1566L19.6213 30.5947L19.3819 30.485C19.2503 30.4246 19.0955 30.3744 19.038 30.3733C18.9804 30.3721 18.9332 30.3458 18.9332 30.3146C18.9332 30.2833 18.8795 30.2578 18.8135 30.2578C18.7478 30.2578 18.6939 30.2942 18.6939 30.3388C18.6939 30.3834 18.6469 30.4315 18.5893 30.4457C18.4895 30.4704 18.4895 30.4721 18.5893 30.4783C18.6837 30.4842 18.6939 30.5638 18.6939 31.2942V32.1036L18.9657 32.2593C19.1151 32.345 19.2743 32.4149 19.3196 32.4149C19.3649 32.4149 19.4125 32.4454 19.4257 32.4826C19.4409 32.5259 19.5991 32.5514 19.8645 32.5534C20.325 32.557 20.3862 32.5263 20.816 32.0783C20.9487 31.9399 21.2457 31.6442 21.476 31.4211C21.7062 31.198 21.9861 30.9151 22.0978 30.7928C22.2096 30.6703 22.5461 30.3239 22.8457 30.0232C23.5482 29.3179 24.6179 28.2301 25.07 27.7612C25.4783 27.3377 25.764 27.0811 25.8285 27.0798C25.8532 27.0793 25.8733 31.2171 25.8733 36.2751C25.8733 42.4501 25.8534 45.4712 25.8126 45.4712C25.7793 45.4712 25.7053 45.4478 25.6482 45.4193C25.5911 45.3908 25.4366 45.3256 25.3049 45.2746C25.1734 45.2236 25.0189 45.1577 24.9618 45.1279C24.9047 45.0982 24.8171 45.0739 24.7673 45.0739C24.7176 45.0739 24.6769 45.0511 24.6769 45.0233C24.6769 44.9954 24.6072 44.9562 24.5224 44.9359C24.4374 44.9157 24.1663 44.8107 23.9197 44.7028C23.6732 44.5947 23.4608 44.5063 23.4478 44.5063C23.4346 44.5063 23.2683 44.4409 23.0781 44.3612C22.888 44.2813 22.6786 44.1952 22.6127 44.1697C22.5469 44.1444 22.3316 44.0536 22.134 43.9683C21.9366 43.8828 21.7213 43.7924 21.6555 43.7674C21.5896 43.7423 21.4147 43.6708 21.2666 43.6088C20.7934 43.4099 19.8329 43.0303 19.8031 43.0303C19.7872 43.0303 19.6272 42.9665 19.4473 42.8884C19.2675 42.8103 19.0782 42.7465 19.0268 42.7465C18.9753 42.7465 18.9332 42.721 18.9332 42.6897C18.9332 42.6586 18.8795 42.6329 18.8135 42.6329C18.6989 42.6329 18.6939 42.6708 18.6939 43.5453C18.6939 44.4598 18.7285 44.6199 18.9261 44.6199C18.9597 44.6199 19.1703 44.7063 19.3939 44.812C20.1611 45.1746 20.6984 45.406 20.8627 45.4448C20.9533 45.4661 21.0273 45.5064 21.0273 45.5343C21.0273 45.562 21.081 45.5848 21.147 45.5848C21.2127 45.5848 21.2666 45.6076 21.2666 45.6355C21.2666 45.6634 21.3407 45.7028 21.4311 45.7232C21.5731 45.7553 22.2804 46.0527 22.597 46.2133C22.6541 46.2423 22.7416 46.266 22.7913 46.266C22.8412 46.266 22.8819 46.2915 22.8819 46.3228C22.8819 46.3541 22.9201 46.3796 22.9668 46.3796C23.0136 46.3796 23.128 46.4164 23.2211 46.4615C23.3879 46.5422 23.9393 46.781 24.4076 46.9753C24.5391 47.0299 24.7815 47.1328 24.9461 47.204C25.1106 47.275 25.3394 47.3717 25.4545 47.4189C25.5698 47.4659 25.8794 47.5985 26.1426 47.7137C26.7165 47.9645 27.0642 47.9657 27.6383 47.7191C27.8358 47.6343 28.105 47.518 28.2367 47.4607C28.3682 47.4033 28.5701 47.3177 28.6852 47.2702C28.8005 47.2229 29.0562 47.1161 29.2536 47.0331C29.451 46.95 29.6934 46.8486 29.7921 46.8079C30.0434 46.704 30.3333 46.5824 30.7362 46.4121C30.9264 46.3318 31.0927 46.266 31.1057 46.266C31.1189 46.266 31.3268 46.1799 31.5676 46.0747C32.419 45.7031 32.6977 45.5848 32.722 45.5848C32.7355 45.5848 32.9786 45.4826 33.2622 45.3577C33.5458 45.2329 33.7888 45.1306 33.8024 45.1306C33.8159 45.1306 33.9827 45.0634 34.1728 44.9812C34.363 44.8989 34.6875 44.7584 34.894 44.6689C35.1006 44.5795 35.2802 44.5063 35.2934 44.5063C35.3068 44.5063 35.5282 44.4144 35.7856 44.3023C36.043 44.1901 36.3344 44.0655 36.4331 44.0254C36.5318 43.9851 36.7681 43.8854 36.9582 43.8034C37.1483 43.7217 37.3147 43.6548 37.328 43.6548C37.3412 43.6548 37.5222 43.5809 37.7303 43.4906C37.9382 43.4003 38.2294 43.275 38.3776 43.2123C38.5257 43.1496 38.9228 42.9809 39.2604 42.8372C39.5979 42.6937 39.8854 42.5762 39.8991 42.5762C39.9129 42.5762 40.1225 42.4892 40.3649 42.3831C40.793 42.1954 41.1508 42.045 43.3433 41.1298C43.9191 40.8894 44.5604 40.6184 44.7684 40.5275C44.9763 40.4367 45.1583 40.3623 45.1729 40.3623C45.2019 40.3623 45.466 40.2496 46.369 39.8509C46.8115 39.6556 47.0102 39.5335 47.1169 39.3918L47.2621 39.1985L47.292 33.0867C47.3084 29.7251 47.3354 26.9624 47.3518 26.9475C47.3836 26.9183 48.3041 26.5112 48.3379 26.5112C48.3489 26.5112 48.6171 26.3962 48.934 26.2557C49.2509 26.1152 49.5196 26.0002 49.5311 26.0002C49.5426 26.0002 49.8445 25.8697 50.2019 25.7101C50.5594 25.5504 51.121 25.3052 51.4501 25.1652C51.7792 25.0251 52.1695 24.8588 52.3175 24.7956C53.4984 24.292 53.6793 24.1445 53.7396 23.6361C53.8025 23.1074 53.7514 23.0372 51.5799 20.6642C50.4715 19.4531 47.82 16.5027 47.7656 16.4203C47.7012 16.3225 47.7931 16.2008 48.6169 15.2942C49.1248 14.7353 50.0475 13.716 50.6672 13.029C51.2872 12.3422 51.8649 11.7033 51.9513 11.6093C52.0376 11.5153 52.2563 11.273 52.4372 11.0706C52.6182 10.8684 52.8374 10.6259 52.9244 10.532C53.6999 9.69406 53.7861 9.53994 53.7391 9.07488C53.6913 8.60325 53.4636 8.39493 52.5868 8.02128C52.3566 7.92313 51.9795 7.7618 51.7493 7.6627C51.5189 7.56359 50.9265 7.30877 50.433 7.09645C49.9395 6.88396 49.3337 6.62176 49.0868 6.51368C48.84 6.40559 48.49 6.2526 48.3091 6.17386C48.1281 6.09512 47.7428 5.92577 47.4529 5.79748C47.163 5.66919 46.9171 5.56431 46.9063 5.56431C46.8955 5.56431 46.6077 5.44035 46.2668 5.2888C45.9257 5.13725 45.4178 4.91643 45.1382 4.79792C44.8585 4.67941 44.4546 4.50637 44.2408 4.4132C44.0268 4.32019 43.6903 4.17393 43.4929 4.0883C42.5732 3.68915 42.3799 3.60464 41.8558 3.37194C41.5477 3.23515 41.2867 3.12338 41.2761 3.12338C41.2652 3.12338 40.9989 3.00839 40.6842 2.86791C40.3693 2.72743 40.0992 2.61245 40.084 2.61245C40.0686 2.61245 39.8063 2.50051 39.5011 2.36388C39.1956 2.22725 38.8113 2.0579 38.6467 1.98734C38.4822 1.91694 38.1861 1.78961 37.9887 1.70414C37.7913 1.61866 37.495 1.49101 37.3306 1.42029C37.1659 1.34957 36.8565 1.21598 36.6425 1.12345C35.8312 0.772569 35.5892 0.668652 35.386 0.583979C35.2709 0.535869 34.9836 0.410463 34.7477 0.305263C34.3064 0.108333 33.9137 0.0363285 33.6511 0.104324ZM34.5698 2.3804C34.9557 2.55408 35.5108 2.79511 36.0143 3.00727C36.1789 3.07671 36.475 3.20436 36.6724 3.29096C36.8698 3.37756 37.1255 3.48789 37.2408 3.536C37.3559 3.58427 37.6655 3.71817 37.9289 3.83364C38.192 3.9491 38.5556 4.10802 38.7364 4.18692C38.9174 4.26566 39.2675 4.41897 39.5142 4.52738C40.1991 4.82823 40.6507 5.02532 40.9801 5.16692C41.5821 5.42559 42.0113 5.61386 42.6471 5.89819C43.0046 6.05792 43.308 6.18877 43.3213 6.18877C43.3347 6.18877 43.5672 6.28836 43.8382 6.41024C44.1089 6.53212 44.465 6.6888 44.6297 6.75839C45.1605 6.98323 45.5763 7.16348 46.0654 7.38094C46.3288 7.498 46.6788 7.65147 46.8433 7.72187C47.163 7.85883 47.5879 8.04405 48.3091 8.36093C48.992 8.66098 49.4081 8.84187 50.1937 9.17992C50.5885 9.34975 50.935 9.5106 50.9635 9.53706C50.9926 9.564 50.5303 10.1201 49.9165 10.7966C49.3121 11.4627 48.59 12.2631 48.3118 12.5752C48.0336 12.8873 47.7461 13.2066 47.6728 13.2845C47.5996 13.3626 47.199 13.8033 46.7828 14.2638C45.9427 15.1933 46.0129 15.152 45.5929 14.9659C45.4251 14.8917 45.1935 14.7916 45.0784 14.7438C44.9631 14.696 44.6805 14.5758 44.4502 14.4767C44.0386 14.2996 43.7295 14.1705 43.4929 14.0773C43.4271 14.0514 43.1712 13.9425 42.9245 13.8354C42.5051 13.6533 42.3197 13.5751 41.8326 13.3749C41.7256 13.331 41.4275 13.2033 41.1701 13.0911C40.9127 12.979 40.6913 12.8873 40.6781 12.8873C40.6649 12.8873 40.4851 12.8141 40.2785 12.725C40.0722 12.6357 39.607 12.4411 39.245 12.2928C38.8831 12.1445 38.4119 11.9467 38.1981 11.8535C37.9841 11.7602 37.7553 11.6624 37.6895 11.6359C37.5352 11.5742 36.9361 11.3229 36.5527 11.1593C36.3883 11.0891 36.1324 10.9839 35.9843 10.9255C35.8363 10.8671 35.6269 10.7736 35.5189 10.718C35.4109 10.6622 35.2985 10.6165 35.2691 10.6165C35.2395 10.6165 35.0182 10.5304 34.7772 10.4253C33.9311 10.0558 33.6474 9.93525 33.6237 9.93525C33.6107 9.93525 33.3894 9.84352 33.1319 9.73142C32.8745 9.61916 32.5765 9.49151 32.4695 9.44757C31.9814 9.24696 31.8612 9.19644 31.4808 9.03207C31.2578 8.93569 31.0646 8.85678 31.0515 8.85678C31.0381 8.85678 30.8167 8.7649 30.5593 8.6528C30.069 8.43919 29.7926 8.32309 29.493 8.20474C28.5438 7.83012 28.5586 7.85626 29.0294 7.39505C29.2185 7.2095 29.4906 6.93255 29.6339 6.7794C29.7772 6.62625 30.1406 6.25725 30.4416 5.95945C30.7425 5.66165 31.1201 5.27854 31.2805 5.10807C31.441 4.93744 31.764 4.60532 31.9984 4.37006C33.1259 3.23804 33.9276 2.41648 33.9984 2.32074C34.1012 2.18187 34.1372 2.18571 34.5698 2.3804ZM47.0937 18.7514C48.6876 20.5286 49.0182 20.8958 49.3264 21.2319C50.9897 23.0453 51.0648 23.1417 50.8692 23.2129C50.7938 23.2403 50.5572 23.3396 50.3432 23.4336C50.1294 23.5276 49.7524 23.6931 49.5056 23.8015C49.2588 23.9099 48.9088 24.0632 48.728 24.1421C48.5469 24.2208 48.1969 24.3743 47.9501 24.4827C47.7034 24.5913 47.3667 24.7378 47.2022 24.8084C47.0378 24.879 46.7415 25.0071 46.5441 25.0931C45.0267 25.7533 44.5465 25.9618 44.3903 26.028C44.1699 26.1212 43.5824 26.3769 42.9843 26.6399C42.7375 26.7485 42.401 26.8948 42.2364 26.9652C42.0719 27.0354 41.7219 27.1887 41.4588 27.3059C41.1954 27.4232 40.8454 27.5763 40.681 27.6466C40.5163 27.7168 40.1665 27.87 39.9031 27.987C39.4728 28.1783 39.1387 28.3235 38.4973 28.5972C38.382 28.6464 38.0419 28.7975 37.7416 28.9329C37.4411 29.0684 37.1816 29.1792 37.1651 29.1792C37.1484 29.1792 36.8691 29.2969 36.5446 29.4407C36.22 29.5846 35.766 29.7858 35.5356 29.888C35.3054 29.9901 34.9822 30.1287 34.8178 30.1961C34.6532 30.2634 34.4718 30.3433 34.4147 30.3733C34.1512 30.5123 34.1615 30.5205 32.5143 28.8439C32.1359 28.4587 31.8129 28.1235 31.7965 28.0991C31.7689 28.0584 30.9926 27.2716 29.7857 26.061C28.5564 24.8281 28.5892 24.8722 28.8199 24.7646C29.0554 24.6549 29.7696 24.3541 29.7948 24.3541C29.8082 24.3541 29.988 24.281 30.1945 24.1915C30.4009 24.102 30.7256 23.9615 30.9157 23.8792C31.1059 23.797 31.2725 23.7296 31.286 23.7296C31.2996 23.7296 31.5428 23.6275 31.8264 23.5025C32.1098 23.3776 32.353 23.2755 32.3666 23.2755C32.3801 23.2755 32.5467 23.2083 32.7369 23.126C32.927 23.0437 33.2517 22.9033 33.4581 22.8138C33.6646 22.7243 33.8444 22.651 33.8578 22.651C33.8711 22.651 34.0657 22.5724 34.2901 22.4762C34.5144 22.38 34.7789 22.2677 34.8776 22.2268C34.9763 22.1859 35.2052 22.0891 35.386 22.0118C35.567 21.9345 36.0114 21.7494 36.3732 21.6004C36.7353 21.4516 37.2285 21.2439 37.4695 21.1389C37.7105 21.034 37.9184 20.9481 37.9314 20.9481C37.9444 20.9481 38.1107 20.8807 38.301 20.7984C38.4912 20.7162 38.8157 20.5757 39.0222 20.4862C39.2286 20.3969 39.41 20.3236 39.4248 20.3236C39.4399 20.3236 39.6882 20.2197 39.9768 20.0927C40.2653 19.9657 40.5554 19.8406 40.6211 19.8146C40.9421 19.6882 41.2965 19.5381 42.253 19.1239C42.4593 19.0344 42.6392 18.9613 42.6523 18.9613C42.6657 18.9613 42.8871 18.8694 43.1445 18.7573C43.59 18.5631 43.806 18.472 44.2108 18.307C44.3095 18.2667 44.5921 18.1468 44.8391 18.0405C45.0858 17.9341 45.3819 17.8127 45.497 17.7707C45.6123 17.7286 45.7322 17.6728 45.7634 17.6465C45.9341 17.5032 46.0925 17.6347 47.0937 18.7514ZM28.5757 27.6573C28.8828 27.9755 29.3515 28.4545 29.6174 28.7218C29.883 28.989 30.2196 29.3354 30.3651 29.4914C30.5106 29.6476 30.7104 29.853 30.8093 29.9481C30.908 30.0432 31.1503 30.2873 31.3477 30.4905C33.7555 32.9685 33.5929 32.8891 34.9973 32.2739C35.2604 32.1586 35.5566 32.031 35.6553 31.9902C36.1023 31.8055 36.5747 31.6017 37.5998 31.1509C37.8466 31.0423 38.1831 30.8959 38.3477 30.8252C38.5121 30.7546 38.8083 30.6271 39.0057 30.5416C39.2032 30.4563 39.4926 30.3319 39.6489 30.2653C39.8051 30.1988 40.061 30.0897 40.2173 30.0232C40.3735 29.9566 40.663 29.8323 40.8604 29.7469C41.0579 29.6616 41.354 29.5339 41.5186 29.4633C41.683 29.3928 42.0196 29.2462 42.2663 29.1376C42.8258 28.8918 43.3519 28.6618 43.7023 28.5101C43.8503 28.446 44.2098 28.2893 44.501 28.162C44.7921 28.0346 45.0681 27.9304 45.1142 27.9304C45.1854 27.9304 45.1981 28.7016 45.1981 33.069V38.2076L45.0334 38.2711C44.8419 38.3452 44.4879 38.4934 43.9416 38.7283C43.7276 38.8204 43.4719 38.9291 43.3732 38.9702C43.2745 39.0111 43.0725 39.0959 42.9245 39.1586C42.7764 39.2211 42.3726 39.391 42.027 39.5358C41.1909 39.8863 41.2262 39.8713 40.6906 40.1028C40.4327 40.2143 40.2124 40.3055 40.2013 40.3055C40.1903 40.3055 39.9839 40.3917 39.7431 40.4969C38.8968 40.8662 38.613 40.9868 38.5895 40.9868C38.5765 40.9868 38.3686 41.0727 38.1276 41.1779C37.2815 41.5474 36.9978 41.668 36.9741 41.668C36.9611 41.668 36.7398 41.7597 36.4823 41.8718C36.2249 41.9841 35.9269 42.1117 35.8199 42.1557C35.7129 42.1996 35.538 42.2716 35.431 42.3156C35.324 42.3593 35.0259 42.4872 34.7684 42.5993C34.511 42.7115 34.2891 42.8032 34.2751 42.8032C34.2612 42.8032 34.0545 42.8892 33.8159 42.9942C32.7779 43.451 32.1629 43.7116 32.123 43.7116C32.1071 43.7116 31.8992 43.7985 31.6611 43.9048C30.8826 44.2523 30.2905 44.5063 30.2591 44.5063C30.225 44.5063 29.4955 44.8203 29.3293 44.9066C29.2721 44.9361 29.1847 44.9605 29.1348 44.9605C29.085 44.9605 29.0442 44.9808 29.0442 45.0057C29.0442 45.0307 28.9433 45.0844 28.8199 45.1252C28.6966 45.1659 28.4533 45.2639 28.2794 45.343C28.1057 45.4219 27.9475 45.4712 27.9279 45.4528C27.9018 45.4281 27.8792 28.2673 27.9039 27.2351C27.9096 26.9943 27.9759 27.036 28.5757 27.6573Z" fill="url(#paint0_linear)"/>
<path fill-rule="evenodd" clip-rule="evenodd" d="M19.382 0.109932C19.2175 0.167664 18.8539 0.316804 18.5742 0.441409C18.2947 0.566174 17.9042 0.738086 17.7068 0.823722C17.5094 0.909357 16.4056 1.38853 15.2537 1.88871C14.1021 2.3889 12.9849 2.87384 12.7709 2.96637C12.5571 3.0589 12.2071 3.21141 11.9931 3.30523C11.7793 3.39904 11.4561 3.54 11.2753 3.61842C11.0943 3.69684 10.6366 3.89618 10.2582 4.06135C9.87972 4.22653 8.92394 4.64204 8.1343 4.98474C7.34449 5.32728 6.50989 5.69051 6.27952 5.79186C6.04915 5.89305 5.55106 6.11003 5.17264 6.27392C4.37793 6.61807 4.05849 6.75663 2.98896 7.22041C2.56118 7.40595 2.02269 7.63896 1.79233 7.73823C0.206452 8.42171 0.0250984 8.57758 0.0294928 9.25192C0.0323661 9.67481 -0.105213 9.49953 2.42056 12.2995C3.65454 13.6676 4.91759 15.0684 5.2274 15.4124C5.53704 15.7564 5.85546 16.1052 5.93507 16.1874L6.07958 16.3371L4.98503 17.5497C3.65589 19.0222 3.2364 19.4862 1.55266 21.345C-0.0727622 23.1395 -0.180425 23.3431 0.152198 23.9952C0.333383 24.3501 0.266114 24.3151 3.19837 25.5743C3.51105 25.7085 4.0039 25.9233 4.29376 26.0512C4.58362 26.1794 4.83055 26.2841 4.84255 26.2841C4.85455 26.2841 5.15591 26.4145 5.51202 26.5737C5.86831 26.733 6.22054 26.8856 6.29456 26.9129L6.4291 26.9626V39.0912L6.60893 39.3603C6.81547 39.6694 6.65829 39.5919 9.51026 40.7879C10.5304 41.2158 11.5111 41.6287 11.6895 41.7057C11.868 41.7828 12.9583 42.2423 14.1126 42.7271C15.2668 43.2117 16.3187 43.6545 16.4504 43.7107C16.6508 43.7965 17.4237 44.1234 18.6041 44.621C18.7358 44.6765 19.0858 44.8242 19.382 44.9489C19.6781 45.0739 20.5397 45.4368 21.2966 45.7554C22.0532 46.0739 22.7802 46.3802 22.9118 46.4358C23.0435 46.4915 23.4877 46.6778 23.8991 46.8499C24.3103 47.0218 24.795 47.2268 24.976 47.305C26.8325 48.1088 26.904 48.1226 27.6085 47.812C28.0743 47.6067 28.3523 47.4882 29.1041 47.1743C29.4167 47.0438 29.7801 46.8908 29.9118 46.8344C30.3529 46.645 31.2152 46.2819 33.0827 45.499C35.5071 44.4829 35.7494 44.3779 35.7246 44.3543C35.7008 44.3317 35.2644 44.5078 34.2029 44.9679C33.9966 45.0575 33.816 45.1306 33.8024 45.1306C33.7888 45.1306 33.5458 45.2329 33.2622 45.3577C32.9786 45.4826 32.7355 45.5848 32.722 45.5848C32.6977 45.5848 32.419 45.7031 31.5676 46.0747C31.3268 46.1799 31.1189 46.266 31.1057 46.266C31.0927 46.266 30.9264 46.3318 30.7362 46.4121C30.5461 46.4926 30.3029 46.5948 30.1959 46.6392C30.0891 46.6838 29.914 46.7566 29.8072 46.8012C29.7002 46.8456 29.451 46.95 29.2536 47.0331C29.0562 47.1161 28.8005 47.2229 28.6852 47.2702C28.5701 47.3177 28.3682 47.4033 28.2367 47.4607C28.105 47.518 27.8358 47.6343 27.6383 47.7191C27.0642 47.9657 26.7165 47.9645 26.1426 47.7137C25.8794 47.5985 25.5698 47.4659 25.4545 47.4189C25.3394 47.3717 25.1106 47.275 24.9461 47.204C24.7815 47.1328 24.5391 47.0299 24.4076 46.9753C23.9393 46.781 23.3879 46.5422 23.2211 46.4615C23.128 46.4164 23.0136 46.3796 22.9668 46.3796C22.9201 46.3796 22.8819 46.3541 22.8819 46.3228C22.8819 46.2915 22.8412 46.266 22.7913 46.266C22.7416 46.266 22.6541 46.2423 22.597 46.2133C22.2804 46.0527 21.5731 45.7553 21.4311 45.7232C21.3407 45.7028 21.2666 45.6634 21.2666 45.6355C21.2666 45.6076 21.2127 45.5848 21.147 45.5848C21.081 45.5848 21.0273 45.562 21.0273 45.5343C21.0273 45.5064 20.9533 45.4661 20.8627 45.4448C20.6984 45.406 20.1611 45.1746 19.3939 44.812C19.1703 44.7063 18.9597 44.6199 18.9261 44.6199C18.7285 44.6199 18.6939 44.4598 18.6939 43.5453C18.6939 42.6708 18.6989 42.6329 18.8135 42.6329C18.8795 42.6329 18.9332 42.6586 18.9332 42.6897C18.9332 42.721 18.9753 42.7465 19.0268 42.7465C19.0782 42.7465 19.2675 42.8103 19.4473 42.8884C19.6272 42.9665 19.7872 43.0303 19.8031 43.0303C19.8329 43.0303 20.7934 43.4099 21.2666 43.6088C21.4147 43.6708 21.5896 43.7423 21.6555 43.7674C21.7213 43.7924 21.9366 43.8828 22.134 43.9683C22.3316 44.0536 22.5469 44.1444 22.6127 44.1697C22.6786 44.1952 22.888 44.2813 23.0781 44.3612C23.2683 44.4409 23.4346 44.5063 23.4478 44.5063C23.4608 44.5063 23.6732 44.5947 23.9197 44.7028C24.1663 44.8107 24.4374 44.9157 24.5224 44.9359C24.6072 44.9562 24.6769 44.9954 24.6769 45.0233C24.6769 45.0511 24.7176 45.0739 24.7673 45.0739C24.8171 45.0739 24.9047 45.0982 24.9618 45.1279C25.0189 45.1577 25.1734 45.2236 25.3049 45.2746C25.4366 45.3256 25.5911 45.3908 25.6482 45.4193C25.7053 45.4478 25.7793 45.4712 25.8126 45.4712C25.8534 45.4712 25.8733 42.4501 25.8733 36.2751C25.8733 31.2171 25.8532 27.0793 25.8285 27.0798C25.764 27.0811 25.4783 27.3377 25.07 27.7612C24.6179 28.2301 23.5482 29.3179 22.8457 30.0232C22.5461 30.3239 22.2096 30.6703 22.0978 30.7928C21.9861 30.9151 21.7062 31.198 21.476 31.4211C21.2457 31.6442 20.9487 31.9399 20.816 32.0783C20.3862 32.5263 20.325 32.557 19.8645 32.5534C19.5991 32.5514 19.4409 32.5259 19.4257 32.4826C19.4125 32.4454 19.3649 32.4149 19.3196 32.4149C19.2743 32.4149 19.1151 32.345 18.9657 32.2593L18.6939 32.1036L18.6939 31.2984C18.6939 30.5793 18.6827 30.4905 18.5893 30.4672C18.4896 30.4425 18.4896 30.4409 18.5893 30.4347C18.6469 30.4312 18.6939 30.3898 18.6939 30.343C18.6939 30.2956 18.7471 30.2578 18.8135 30.2578C18.8795 30.2578 18.9332 30.2833 18.9332 30.3146C18.9332 30.3458 18.9804 30.3721 19.038 30.3733C19.0955 30.3744 19.2503 30.4246 19.3819 30.485L19.6213 30.5947L20.0612 30.1566C20.3031 29.9157 20.707 29.5034 20.9587 29.2406C21.5651 28.607 22.0402 28.1169 22.2238 27.9354C22.3061 27.8541 22.4785 27.6729 22.6068 27.5325C22.7352 27.3924 23.0717 27.0445 23.3546 26.7597C23.6376 26.4749 23.9903 26.1125 24.1384 25.9544C24.2864 25.7963 24.5793 25.4985 24.7893 25.2925C25.2087 24.8812 25.2091 24.7523 24.7909 24.6652C24.696 24.6453 24.603 24.6055 24.5842 24.5768C24.5655 24.548 24.4979 24.5244 24.434 24.5244C24.3701 24.5244 24.3179 24.504 24.3179 24.479C24.3179 24.454 24.2168 24.4001 24.0934 24.3591C23.8666 24.2837 23.1789 23.9963 22.9874 23.897C22.9303 23.8674 22.8429 23.8432 22.793 23.8432C22.7431 23.8432 22.7024 23.8177 22.7024 23.7864C22.7024 23.7551 22.6762 23.7296 22.6443 23.7296C22.5784 23.7296 22.035 23.503 21.6111 23.2987C21.4549 23.2235 21.2867 23.1619 21.2371 23.1619C21.1875 23.1619 21.147 23.1364 21.147 23.1052C21.147 23.074 21.0795 23.0484 20.9974 23.0484C20.9151 23.0484 20.8478 23.024 20.8478 22.9942C20.8478 22.9645 20.7535 22.9233 20.6384 22.9028C20.5231 22.8822 20.429 22.849 20.429 22.8288C20.429 22.8088 20.3414 22.7584 20.2344 22.7171C20.1276 22.6757 19.905 22.58 19.7401 22.5046C19.5751 22.429 19.4068 22.3673 19.3662 22.3673C19.3255 22.3673 19.2922 22.3477 19.2922 22.3238C19.2922 22.2783 18.8554 22.0835 18.7534 22.0835C18.7164 22.0835 18.6939 21.7265 18.6939 21.1394V20.1953L18.8921 20.2258C19.0011 20.2426 19.2232 20.3122 19.3857 20.3807C19.8665 20.5834 19.9061 20.5991 20.2446 20.7224C20.4231 20.7874 20.6922 20.8921 20.8429 20.9551C20.9937 21.0181 21.1979 21.1036 21.2966 21.1448C21.3953 21.1862 21.6023 21.2738 21.757 21.3395C21.9114 21.4051 22.0796 21.459 22.1308 21.459C22.182 21.459 22.2238 21.4794 22.2238 21.5044C22.2238 21.5292 22.3248 21.5833 22.4482 21.6245C22.5716 21.6655 22.867 21.7857 23.1047 21.8913C23.3421 21.997 23.5576 22.0839 23.5832 22.0847C23.6088 22.0854 23.7914 22.1614 23.9888 22.2538C24.1862 22.346 24.3674 22.422 24.3912 22.4228C24.4152 22.4234 24.6395 22.5148 24.8895 22.626C25.1395 22.7371 25.3725 22.8189 25.4074 22.8078C25.4422 22.7969 25.0834 22.6252 24.6101 22.4262C23.6809 22.0355 23.1268 21.8006 22.7024 21.617C22.5544 21.553 22.2314 21.4181 21.9845 21.3175C21.7377 21.2168 21.4147 21.0821 21.2666 21.0183C21.1186 20.9543 20.5024 20.6932 19.8974 20.4383C18.8041 19.9774 18.2893 19.7601 17.9462 19.6148C17.1667 19.2847 14.0532 17.975 12.4119 17.2866C11.3096 16.8243 10.3721 16.4196 10.3285 16.3876C10.2292 16.3143 10.2392 16.3093 11.649 15.7187C12.2497 15.4671 12.8218 15.2268 12.9205 15.1847C14.5099 14.507 14.9879 14.3063 15.0127 14.3063C15.0291 14.3063 15.3288 14.1787 15.6785 14.0225C16.0282 13.8665 16.3231 13.7386 16.3338 13.7386C16.3567 13.7386 19.9782 12.2177 20.5487 11.9685C20.7625 11.875 21.0932 11.7363 21.2835 11.6601C21.4739 11.5841 21.8104 11.4432 22.0313 11.3471C22.2523 11.251 22.7697 11.0323 23.1811 10.8612C24.6088 10.267 24.7668 10.1981 24.8265 10.1447C24.8643 10.1107 24.8204 10.1056 24.7068 10.1309C24.6081 10.1529 24.5183 10.1944 24.5074 10.2234C24.4964 10.2523 24.4543 10.2759 24.4139 10.2759C24.3733 10.2759 24.2342 10.3237 24.1047 10.382C23.8713 10.4871 23.5015 10.642 23.2708 10.7311C23.2051 10.7566 23.0031 10.8407 22.8221 10.918C22.6411 10.9953 22.3652 11.1059 22.2091 11.164C22.0529 11.2219 21.9249 11.2884 21.9249 11.312C21.9248 11.3354 21.8776 11.3553 21.82 11.3563C21.7624 11.3572 21.5807 11.4209 21.4162 11.4977C21.2516 11.5745 21.0834 11.6375 21.0422 11.6379C21.0011 11.638 20.9675 11.6638 20.9675 11.6951C20.9675 11.7264 20.9203 11.752 20.8627 11.7522C20.8052 11.7524 20.681 11.7907 20.5867 11.8373C20.4924 11.884 20.3779 11.9222 20.3323 11.9222C20.2868 11.9222 20.2495 11.9434 20.2495 11.9695C20.2495 11.9955 20.0879 12.0657 19.8905 12.1255C19.6931 12.1853 19.5315 12.2535 19.5315 12.2769C19.5315 12.3003 19.4911 12.3196 19.4418 12.3196C19.3924 12.3196 19.352 12.3435 19.352 12.3728C19.352 12.4022 19.2308 12.4434 19.0828 12.4644C18.9347 12.4855 18.8135 12.5253 18.8135 12.5531C18.8135 12.5806 18.7867 12.6034 18.7537 12.6034C18.7162 12.6034 18.6939 12.2439 18.6939 11.6383C18.6939 10.8436 18.7089 10.6733 18.7787 10.6733C18.8254 10.6733 18.8724 10.6542 18.8833 10.6308C18.8943 10.6073 19.038 10.5273 19.2024 10.4529C19.3671 10.3785 19.6228 10.2598 19.7708 10.1893C19.9189 10.1187 20.4978 9.86501 21.0572 9.62542C21.6165 9.38583 22.2358 9.11706 22.4332 9.02806C23.0286 8.7596 23.5571 8.53782 23.7943 8.45651C23.9176 8.41434 24.0187 8.35933 24.0187 8.33447C24.0187 8.30946 24.0616 8.28909 24.1142 8.28909C24.1666 8.28909 24.281 8.25301 24.3684 8.20875C24.4558 8.16464 24.6681 8.06891 24.8403 7.99594C25.1971 7.84471 25.2045 7.83092 25.0208 7.65292C24.9468 7.58123 24.8085 7.43322 24.7135 7.32401C24.5609 7.14857 23.9082 6.48064 22.8819 5.44981C22.7009 5.26811 22.4048 4.96085 22.2238 4.76697C22.0429 4.57325 21.6278 4.14956 21.3018 3.8253C20.9756 3.50104 20.6668 3.17854 20.6156 3.10862C20.5644 3.03854 20.4035 2.86647 20.2581 2.72599C20.1126 2.58551 19.9546 2.41408 19.9067 2.34496C19.7604 2.13328 19.3966 2.13055 19.2307 2.33999C19.2131 2.36196 19.0853 2.39724 18.9464 2.41825L18.6939 2.45657V1.56542C18.6939 0.669614 18.729 0.511975 18.929 0.511975C18.9643 0.511975 18.9934 0.492891 18.9935 0.469477C18.9942 0.407255 19.2739 0.293395 19.6591 0.198298C20.2415 0.0544499 20.5877 0.279122 21.818 1.5999C21.9733 1.76652 22.2694 2.07282 22.4761 2.28065C23.0418 2.84915 24.0812 3.90692 24.413 4.25171C24.5746 4.41962 24.8682 4.71581 25.0658 4.91001C25.2632 5.10406 25.5458 5.39191 25.6938 5.54955C26.197 6.08534 26.8301 6.69954 26.8791 6.69954C26.9236 6.69954 27.9764 5.66037 28.538 5.06188C28.6656 4.92605 28.9056 4.68181 29.0716 4.5192C29.2376 4.35659 29.8041 3.77895 30.3306 3.23579C30.8571 2.69247 31.5168 2.01637 31.7965 1.73332C32.076 1.45028 32.492 1.02097 32.7207 0.77914C33.5706 -0.119392 33.8073 -0.134947 35.4102 0.602417C35.5059 0.646357 35.6135 0.680836 35.6495 0.679072C35.79 0.672337 34.3253 0.0502761 34.0992 0.0207688C33.4981 -0.0578106 33.3337 0.0597374 31.7035 1.73252C31.2774 2.16967 30.7391 2.71877 30.5072 2.95306C30.2752 3.1872 29.9251 3.54385 29.7294 3.74575C29.5335 3.94765 29.1445 4.34408 28.8647 4.6268C28.5852 4.90937 28.0364 5.46712 27.6453 5.86611C27.2542 6.2651 26.9032 6.58391 26.8651 6.57461C26.7957 6.55761 26.304 6.07202 25.0359 4.76777C24.6574 4.37856 24.1458 3.85544 23.8991 3.60527C23.5325 3.2337 22.3727 2.04331 22.134 1.79346C20.391 -0.0307088 20.1697 -0.165897 19.382 0.109932ZM35.745 0.711947C35.745 0.729106 35.8595 0.790045 35.9994 0.847296C36.1392 0.904707 36.4661 1.04503 36.7255 1.15921C36.9851 1.27339 37.2075 1.35726 37.22 1.34539C37.2325 1.33353 36.9934 1.21453 36.6883 1.08111C35.9168 0.743218 35.745 0.676025 35.745 0.711947ZM37.3007 1.38933C37.3007 1.4182 37.8337 1.64881 37.8915 1.6448C37.9389 1.64159 37.406 1.36961 37.3454 1.36608C37.3208 1.36464 37.3007 1.37506 37.3007 1.38933ZM37.9588 1.67302C37.9588 1.70205 38.4919 1.93265 38.5497 1.92864C38.597 1.92544 38.0641 1.65346 38.0036 1.64993C37.9789 1.64848 37.9588 1.65891 37.9588 1.67302ZM38.6168 1.95687C38.6168 1.9859 39.15 2.2165 39.2078 2.21249C39.2551 2.20929 38.7222 1.93714 38.6617 1.93378C38.6371 1.93233 38.6168 1.94276 38.6168 1.95687ZM33.9984 2.32074C33.9276 2.41648 33.1259 3.23804 31.9984 4.37006C31.764 4.60532 31.441 4.93744 31.2805 5.10807C31.1201 5.27854 30.743 5.66165 30.4428 5.95945C29.7183 6.67805 29.3495 7.06485 29.3703 7.08458C29.3914 7.10462 30.1425 6.35844 31.386 5.08176C32.3373 4.10497 33.3694 3.05345 33.7446 2.67852L34.1673 2.25643L34.4027 2.35875C34.5323 2.4152 34.6584 2.47116 34.6831 2.48335C34.7078 2.49554 34.7281 2.49185 34.7281 2.47517C34.7281 2.32491 34.0946 2.19085 33.9984 2.32074ZM39.2749 2.24104C39.2749 2.28033 40.0652 2.6195 40.0938 2.5924C40.1151 2.57219 39.362 2.21506 39.2983 2.21506C39.2854 2.21506 39.2749 2.22676 39.2749 2.24104ZM19.7529 2.35281C19.7793 2.39739 19.976 2.60812 20.19 2.82108C20.4042 3.03421 20.9158 3.55299 21.3268 3.97395C22.2204 4.88916 21.9212 4.5835 23.6063 6.30391C25.1618 7.89202 25.0984 7.81504 24.9061 7.88496C24.8293 7.91287 24.2685 8.14636 23.6597 8.40407C23.0509 8.66178 22.3511 8.95557 22.1041 9.05708C21.8574 9.15859 21.4536 9.33034 21.2068 9.43907C20.9599 9.54764 20.5561 9.72003 20.3093 9.82202C20.0626 9.92402 19.699 10.0772 19.5016 10.1623C19.3042 10.2475 18.9408 10.4008 18.6939 10.5029C18.4471 10.6051 18.0837 10.7584 17.8863 10.8436C17.6888 10.9287 17.3254 11.082 17.0786 11.1842C16.8318 11.2863 16.4683 11.4396 16.2709 11.5248C16.0735 11.6099 15.7101 11.7631 15.4632 11.8651C15.2164 11.9672 14.8173 12.1367 14.5763 12.2418C14.3355 12.347 14.1276 12.4331 14.1144 12.4331C14.1014 12.4331 13.9351 12.5003 13.7449 12.5826C13.5548 12.6648 13.2301 12.8053 13.0238 12.8948C12.8172 12.9843 12.6365 13.0574 12.6222 13.0574C12.6078 13.0574 12.3325 13.1748 12.0103 13.3183C11.6884 13.4617 11.3037 13.6253 11.1556 13.6819C11.0076 13.7385 10.6709 13.8783 10.4077 13.9928C9.86688 14.2279 9.90981 14.2096 9.06152 14.5652C8.71605 14.71 8.29875 14.8886 8.1343 14.9621L7.83514 15.0958L7.54612 14.8004C6.93243 14.1731 2.86929 9.64354 2.86929 9.58693C2.86929 9.55405 3.32699 9.32922 3.88643 9.08739C4.44587 8.84556 5.0381 8.58929 5.20256 8.51761C5.55512 8.3643 5.96921 8.18485 6.90775 7.77848C7.28618 7.61458 7.79289 7.39424 8.0339 7.28872C8.27492 7.1832 8.48112 7.09692 8.49228 7.09692C8.50343 7.09692 8.8538 6.94377 9.27093 6.75631C9.68806 6.569 10.0374 6.41585 10.0472 6.41585C10.057 6.41585 10.3171 6.30375 10.6253 6.16696C10.9334 6.03017 11.3201 5.86066 11.4847 5.79042C11.6491 5.72018 11.9588 5.58676 12.1726 5.49374C12.3866 5.40089 12.8172 5.21519 13.1299 5.08112C13.4426 4.94722 13.9003 4.74884 14.147 4.64044C14.3938 4.53219 14.7303 4.38577 14.8949 4.31521C15.2526 4.16174 16.3589 3.6784 17.0487 3.37418C19.5723 2.2614 19.6759 2.22227 19.7529 2.35281ZM34.8631 2.56049C35.0296 2.65238 35.386 2.78692 35.386 2.75774C35.386 2.72871 34.8553 2.49778 34.7952 2.50067C34.7747 2.50147 34.8053 2.52841 34.8631 2.56049ZM41.01 3.00983C41.1251 3.06965 41.2463 3.11856 41.2793 3.11856C41.3121 3.11856 41.2448 3.06965 41.1297 3.00983C41.0144 2.95002 40.8934 2.90094 40.8605 2.90094C40.8275 2.90094 40.8948 2.95002 41.01 3.00983ZM36.3041 3.18672C36.4307 3.25006 36.548 3.28871 36.5649 3.27267C36.5942 3.24493 36.1909 3.06372 36.1118 3.06901C36.091 3.07045 36.1777 3.12337 36.3041 3.18672ZM41.6682 3.29368C41.7833 3.3535 41.9045 3.40241 41.9374 3.40241C41.9702 3.40241 41.903 3.3535 41.7879 3.29368C41.6726 3.2337 41.5514 3.18479 41.5186 3.18479C41.4856 3.18479 41.5529 3.2337 41.6682 3.29368ZM36.668 3.34355C36.6858 3.37098 36.7615 3.40802 36.836 3.42582C36.9669 3.45709 36.9675 3.45533 36.8555 3.37595C36.7268 3.2847 36.6173 3.26578 36.668 3.34355ZM37.3171 3.61201C37.3894 3.68048 38.7569 4.25828 38.7846 4.23198C38.8002 4.21723 38.7486 4.18131 38.67 4.15228C38.5914 4.12309 38.2635 3.98197 37.9416 3.83844C37.3806 3.58843 37.2376 3.53664 37.3171 3.61201ZM42.6852 3.7132C42.6852 3.74158 43.4596 4.08942 43.5145 4.08589C43.5627 4.08268 43.138 3.86907 42.8797 3.7666C42.7727 3.7241 42.6852 3.70021 42.6852 3.7132ZM43.822 4.23022C43.97 4.30543 44.1181 4.36701 44.151 4.36701C44.184 4.36701 44.0897 4.30543 43.9416 4.23022C43.7936 4.15501 43.6455 4.09343 43.6125 4.09343C43.5796 4.09343 43.6739 4.15501 43.822 4.23022ZM38.9315 4.32018C39.098 4.41223 39.4544 4.54662 39.4544 4.51743C39.4544 4.48857 38.9237 4.25764 38.8635 4.26037C38.8431 4.26133 38.8737 4.28827 38.9315 4.32018ZM44.2408 4.39796C44.2408 4.42683 44.7739 4.65743 44.8317 4.65342C44.879 4.65022 44.3461 4.37824 44.2856 4.37471C44.2609 4.37327 44.2408 4.38369 44.2408 4.39796ZM39.7536 4.68438C39.9016 4.75959 40.0497 4.82117 40.0826 4.82117C40.1156 4.82117 40.0213 4.75959 39.8732 4.68438C39.7252 4.60916 39.5771 4.54758 39.5442 4.54758C39.5114 4.54758 39.6055 4.60916 39.7536 4.68438ZM45.1382 4.79792C45.2863 4.87313 45.4344 4.93471 45.4672 4.93471C45.5001 4.93471 45.406 4.87313 45.2579 4.79791C45.1097 4.7227 44.9616 4.66112 44.9288 4.66112C44.8959 4.66112 44.99 4.72271 45.1382 4.79792ZM41.1453 5.28527C41.3116 5.37732 41.6682 5.5117 41.6682 5.48252C41.6682 5.45349 41.1375 5.22256 41.0771 5.22545C41.0567 5.22641 41.0873 5.25335 41.1453 5.28527ZM46.6339 5.45076C46.7491 5.51058 46.8702 5.55949 46.9031 5.55949C46.9361 5.55949 46.8688 5.51058 46.7535 5.45076C46.6384 5.39095 46.5172 5.34204 46.4843 5.34204C46.4513 5.34204 46.5188 5.39095 46.6339 5.45076ZM41.9075 5.62107C42.0226 5.68089 42.1438 5.7298 42.1766 5.7298C42.2095 5.7298 42.1423 5.68089 42.027 5.62107C41.9119 5.56126 41.7907 5.51219 41.7579 5.51219C41.725 5.51219 41.7922 5.56126 41.9075 5.62107ZM47.9502 6.01846C48.0653 6.07828 48.1864 6.12719 48.2194 6.12719C48.2522 6.12719 48.1849 6.07828 48.0698 6.01846C47.9546 5.95864 47.8334 5.90957 47.8006 5.90957C47.7676 5.90957 47.8349 5.95864 47.9502 6.01846ZM49.5056 6.69954C49.6209 6.75951 49.7421 6.80842 49.7749 6.80842C49.8078 6.80842 49.7405 6.75951 49.6253 6.69954C49.5102 6.63972 49.389 6.59081 49.356 6.59081C49.3232 6.59081 49.3905 6.63972 49.5056 6.69954ZM44.7948 6.87482C44.9611 6.9667 45.3177 7.10125 45.3177 7.07207C45.3177 7.04304 44.787 6.81211 44.7267 6.81484C44.7062 6.8158 44.7368 6.84274 44.7948 6.87482ZM50.1638 6.98338C50.2789 7.0432 50.4 7.09227 50.433 7.09227C50.466 7.09227 50.3985 7.0432 50.2834 6.98338C50.1683 6.92357 50.0471 6.87465 50.0142 6.87465C49.9812 6.87465 50.0487 6.92357 50.1638 6.98338ZM45.4528 7.15866C45.6193 7.25055 45.9757 7.3851 45.9757 7.35591C45.9757 7.32689 45.445 7.09596 45.3848 7.09869C45.3644 7.09965 45.395 7.12659 45.4528 7.15866ZM28.9695 7.44732C28.6133 7.81007 28.6149 7.84214 28.9995 8.00267C29.1722 8.07484 29.402 8.17218 29.51 8.219C29.6182 8.26567 29.7228 8.2886 29.7428 8.26968C29.7626 8.25092 29.7146 8.21147 29.636 8.18212C28.7162 7.83894 28.692 7.80574 29.087 7.42535C29.242 7.27589 29.3429 7.15466 29.3113 7.15578C29.2797 7.15706 29.1259 7.28824 28.9695 7.44732ZM50.8817 7.29562C50.9641 7.3402 51.0582 7.37676 51.0911 7.37676C51.1239 7.37676 51.0837 7.3402 51.0014 7.29562C50.9191 7.25103 50.8249 7.21447 50.792 7.21447C50.759 7.21447 50.7994 7.25103 50.8817 7.29562ZM29.852 8.34585C29.8722 8.37713 29.9126 8.40262 29.9417 8.40262C29.9708 8.40262 30.2265 8.50478 30.5101 8.6297C30.7937 8.75463 31.0369 8.85678 31.0506 8.85678C31.0736 8.85678 31.6216 9.08931 32.0828 9.2949C32.1908 9.34301 32.2917 9.37075 32.3068 9.35648C32.3372 9.32762 32.0649 9.20542 30.7549 8.66033C29.793 8.26006 29.797 8.26134 29.852 8.34585ZM53.4239 8.45955C53.7077 8.77403 53.7116 8.77756 53.6467 8.65809C53.6127 8.59554 53.5084 8.48072 53.4149 8.40278L53.2449 8.26118L53.4239 8.45955ZM53.764 9.17848C53.7582 9.30869 53.7379 9.46184 53.719 9.51909C53.6867 9.61676 53.6888 9.61708 53.7523 9.5231C53.7897 9.46794 53.8098 9.31479 53.7973 9.18248L53.7744 8.94194L53.764 9.17848ZM26.6574 9.31575C26.5786 9.34558 26.5278 9.3831 26.5445 9.39882C26.5611 9.41469 26.6457 9.40203 26.7326 9.37059C26.9084 9.30725 26.9466 9.31767 27.6277 9.61643C27.8851 9.72933 28.1065 9.8217 28.1196 9.8217C28.1326 9.8217 28.2855 9.88312 28.4593 9.95802C29.7326 10.5071 30.1422 10.6724 30.168 10.6479C30.1843 10.6324 30.1334 10.5963 30.0548 10.5677C29.9762 10.539 29.7369 10.4396 29.5229 10.3466C29.0049 10.1213 28.6257 9.9601 28.2815 9.8185C28.1251 9.75435 27.8895 9.65364 27.758 9.59479C26.9581 9.23685 26.9023 9.22274 26.6574 9.31575ZM50.6723 9.4341C50.804 9.49905 50.923 9.56191 50.9368 9.57362C50.9507 9.58548 50.8968 9.66535 50.8172 9.75098L50.6723 9.90686L50.8368 9.76926C50.9274 9.69357 51.0014 9.61114 51.0014 9.58597C51.0014 9.53834 50.563 9.30901 50.4803 9.31334C50.4543 9.31479 50.5407 9.36899 50.6723 9.4341ZM32.4198 9.4171C32.4428 9.45238 32.4854 9.48125 32.5143 9.48125C32.5434 9.48125 32.7991 9.5834 33.0827 9.70832C33.3663 9.83309 33.6094 9.93524 33.6229 9.93524C33.6474 9.93524 33.9263 10.0538 34.7816 10.4272C35.025 10.5334 35.2478 10.613 35.2767 10.6038C35.3056 10.5947 34.6936 10.3192 33.9166 9.99169C32.2779 9.30067 32.3661 9.33451 32.4198 9.4171ZM26.2024 9.50434C26.1037 9.54684 25.9153 9.62622 25.7836 9.68074C25.6521 9.73527 25.4383 9.82764 25.3086 9.88601C25.1792 9.94439 25.0379 9.99202 24.9946 9.99202C24.9515 9.99202 24.9162 10.0177 24.9162 10.0488C24.9162 10.129 24.84 10.1562 26.2773 9.56031C26.3841 9.51588 26.4717 9.46729 26.4717 9.45206C26.4717 9.407 26.3929 9.42223 26.2024 9.50434ZM53.301 10.1198L53.1253 10.3042L53.3198 10.1376C53.4266 10.0459 53.5142 9.96283 53.5142 9.95304C53.5142 9.90926 53.4648 9.94791 53.301 10.1198ZM50.4293 10.1766L50.2535 10.361L50.4479 10.1944C50.5549 10.1027 50.6424 10.0196 50.6424 10.0098C50.6424 9.96603 50.5931 10.0045 50.4293 10.1766ZM35.386 10.6418C35.386 10.6846 36.1772 11.0201 36.2085 10.9906C36.224 10.9759 36.1395 10.9239 36.0209 10.8753C35.9021 10.8266 35.7107 10.7481 35.5955 10.7008C35.4804 10.6537 35.386 10.6271 35.386 10.6418ZM30.54 10.8344C30.721 10.9194 31.0172 11.0485 31.1982 11.1213C31.379 11.1941 31.6349 11.2995 31.7666 11.3556C32.5248 11.6783 32.7151 11.7506 32.7413 11.7257C32.7572 11.7107 32.7051 11.6747 32.6255 11.646C32.5457 11.6173 32.347 11.5367 32.1834 11.4667C31.7956 11.3011 31.4771 11.1662 31.1084 11.0121C30.9438 10.9431 30.7033 10.8389 30.5737 10.7801C30.444 10.7214 30.3095 10.6749 30.2745 10.6766C30.2395 10.6784 30.359 10.7494 30.54 10.8344ZM49.7113 10.9714L49.5355 11.1558L49.7301 10.989C49.8369 10.8974 49.9244 10.8144 49.9244 10.8046C49.9244 10.7606 49.8751 10.7993 49.7113 10.9714ZM52.3997 11.1109C52.2393 11.2892 52.1394 11.4169 52.1776 11.3946C52.2611 11.3458 52.7595 10.7868 52.7193 10.7868C52.7037 10.7868 52.5599 10.9327 52.3997 11.1109ZM36.4296 11.1019C36.5582 11.193 36.6677 11.2119 36.617 11.1343C36.5992 11.1069 36.5235 11.0698 36.449 11.0519C36.3182 11.0206 36.3175 11.0224 36.4296 11.1019ZM36.9025 11.3043C37.0289 11.3676 37.1463 11.4063 37.1632 11.3902C37.1923 11.3627 36.789 11.1814 36.7099 11.1867C36.6893 11.188 36.7759 11.2409 36.9025 11.3043ZM37.2738 11.4616C37.305 11.4894 37.3978 11.5288 37.4802 11.5492L37.6297 11.5862L37.4802 11.5007C37.3135 11.4055 37.1823 11.3806 37.2738 11.4616ZM51.8732 11.6896L51.6981 11.8938L51.9001 11.7111C52.0111 11.6106 52.09 11.5189 52.0752 11.507C52.0605 11.4953 51.9695 11.5776 51.8732 11.6896ZM48.9933 11.766L48.8175 11.9506L49.0121 11.7838C49.1191 11.6921 49.2065 11.6091 49.2065 11.5994C49.2065 11.5554 49.1571 11.5941 48.9933 11.766ZM37.9588 11.7179C37.9588 11.7641 38.7493 12.0994 38.7829 12.0675C38.7995 12.0518 38.7356 12.011 38.6409 11.9769C38.4861 11.9211 38.1187 11.7674 38.0036 11.7105C37.9789 11.6983 37.9588 11.7017 37.9588 11.7179ZM33.1126 11.9127C33.4048 12.0498 33.8057 12.2211 34.4139 12.4689C34.7198 12.5935 34.6409 12.5067 34.3241 12.3702C34.1678 12.3029 33.873 12.1754 33.669 12.0869C32.8697 11.7403 32.4942 11.6228 33.1126 11.9127ZM48.2209 12.6081C47.9348 12.9229 47.7098 13.1891 47.721 13.1997C47.7321 13.2101 47.978 12.9525 48.2676 12.6273C48.5571 12.3019 48.7821 12.0357 48.7677 12.0357C48.7532 12.0357 48.5071 12.2933 48.2209 12.6081ZM39.2682 12.2976C39.5112 12.4052 39.7199 12.4839 39.7319 12.4726C39.7585 12.4474 38.9428 12.0904 38.8742 12.0971C38.8478 12.0997 39.0251 12.1898 39.2682 12.2976ZM51.1473 12.504L50.9715 12.6886L51.1659 12.5218C51.2728 12.4301 51.3604 12.347 51.3604 12.3372C51.3604 12.2934 51.311 12.3321 51.1473 12.504ZM34.6682 12.5601C34.6846 12.5754 34.927 12.6838 35.2067 12.8011C35.4863 12.9184 35.8094 13.0539 35.9245 13.1023C36.0398 13.1506 36.1542 13.2001 36.1789 13.2123C36.2036 13.2245 36.2237 13.2208 36.2237 13.2041C36.2237 13.1875 36.0959 13.1187 35.9396 13.0513C35.7832 12.984 35.4939 12.8592 35.2963 12.7739C34.9371 12.6188 34.612 12.5082 34.6682 12.5601ZM40.2652 12.7083C40.3365 12.7689 40.8305 12.9519 40.8305 12.9177C40.8305 12.8914 40.3027 12.6602 40.2425 12.6602C40.2238 12.6602 40.2339 12.6818 40.2652 12.7083ZM50.7883 12.9014L50.6125 13.0858L50.8069 12.9192C50.9138 12.8274 51.0014 12.7444 51.0014 12.7346C51.0014 12.6908 50.952 12.7295 50.7883 12.9014ZM50.4293 13.2988L50.2535 13.4832L50.4479 13.3166C50.5549 13.2248 50.6424 13.1418 50.6424 13.132C50.6424 13.0882 50.5931 13.1269 50.4293 13.2988ZM36.8428 13.4898C37.0023 13.5685 37.1463 13.6201 37.1627 13.6046C37.1938 13.5751 36.6856 13.3393 36.6009 13.344C36.5744 13.3454 36.6832 13.411 36.8428 13.4898ZM47.2263 13.7245C46.8854 14.0708 46.3222 14.7037 46.3552 14.7037C46.3719 14.7037 46.6307 14.4354 46.9303 14.1076C47.4767 13.5095 47.6179 13.327 47.2263 13.7245ZM37.54 13.7637C37.54 13.7927 38.0707 14.0236 38.1309 14.0207C38.1853 14.0183 37.9894 13.9154 37.7487 13.82C37.634 13.7744 37.54 13.7491 37.54 13.7637ZM43.0441 13.8849C43.0441 13.9232 43.355 14.0304 43.3845 14.0023C43.3982 13.9895 43.3271 13.9518 43.2267 13.9186C43.1263 13.8852 43.0441 13.8701 43.0441 13.8849ZM49.7113 14.0935L49.5355 14.278L49.7301 14.1112C49.8369 14.0196 49.9244 13.9365 49.9244 13.9268C49.9244 13.8828 49.8751 13.9215 49.7113 14.0935ZM38.1981 14.0483C38.1981 14.0878 38.7515 14.3112 38.7807 14.2834C38.7948 14.2701 38.6795 14.2058 38.5245 14.1408C38.2257 14.0154 38.1981 14.0076 38.1981 14.0483ZM49.2925 14.5475L49.1167 14.7321L49.3112 14.5653C49.4182 14.4736 49.5056 14.3907 49.5056 14.3809C49.5056 14.337 49.4563 14.3756 49.2925 14.5475ZM39.4544 14.5902C39.5697 14.65 39.6907 14.6989 39.7237 14.6989C39.7566 14.6989 39.6893 14.65 39.5741 14.5902C39.459 14.5304 39.3378 14.4815 39.3048 14.4815C39.2721 14.4815 39.3393 14.5304 39.4544 14.5902ZM39.8134 14.7294C39.8134 14.7688 40.3669 14.9922 40.396 14.9646C40.4102 14.9512 40.2949 14.887 40.1398 14.8219C39.8411 14.6965 39.8134 14.6888 39.8134 14.7294ZM46.1447 14.9098C46.0009 15.0463 45.97 15.0535 45.7884 14.9935C45.6791 14.9573 45.6159 14.9521 45.648 14.982C45.8032 15.1261 46.0067 15.1077 46.1823 14.9335C46.3961 14.722 46.3639 14.7018 46.1447 14.9098ZM48.6049 15.3139L48.3989 15.5269L48.6232 15.3312C48.8321 15.1491 48.875 15.1011 48.8294 15.1011C48.8194 15.1011 48.7183 15.1969 48.6049 15.3139ZM41.5041 15.4465C41.6706 15.5384 42.027 15.673 42.027 15.6438C42.027 15.6148 41.4965 15.3838 41.4361 15.3866C41.4157 15.3875 41.4463 15.4145 41.5041 15.4465ZM48.0448 15.926C47.855 16.13 47.7132 16.3306 47.7298 16.3719C47.7656 16.4602 48.8994 17.7124 48.9435 17.7124C48.9602 17.7124 48.7381 17.4505 48.4501 17.1306C48.1621 16.8105 47.8876 16.5045 47.8403 16.4504C47.7413 16.3375 47.7519 16.3188 48.18 15.8436C48.323 15.685 48.4286 15.5553 48.415 15.5553C48.4014 15.5553 48.2348 15.7221 48.0448 15.926ZM43.2698 16.1982C43.4707 16.2979 43.5096 16.3398 43.4521 16.3943C43.4053 16.4387 43.4023 16.4634 43.4437 16.4634C43.6791 16.4634 43.6343 16.295 43.3693 16.1839C43.0019 16.0296 42.9466 16.0377 43.2698 16.1982ZM43.0441 16.577C42.929 16.6368 42.8618 16.6859 42.8946 16.6859C42.9275 16.6859 43.0487 16.6368 43.1638 16.577C43.2791 16.5171 43.3463 16.4682 43.3134 16.4682C43.2804 16.4682 43.1594 16.5171 43.0441 16.577ZM42.0569 16.9991C41.8925 17.0743 41.7747 17.1378 41.7951 17.1402C41.8501 17.1467 42.386 16.9168 42.386 16.8866C42.386 16.8489 42.383 16.8501 42.0569 16.9991ZM40.4416 17.6803C40.2772 17.7555 40.1592 17.819 40.1798 17.8214C40.2346 17.828 40.7707 17.5979 40.7707 17.5677C40.7707 17.5302 40.7677 17.5313 40.4416 17.6803ZM8.49312 17.8825C8.72349 17.9831 9.03312 18.1112 9.18118 18.1673C9.32924 18.2234 9.66575 18.3633 9.92908 18.4783C10.1924 18.5933 10.4885 18.7207 10.5872 18.7616C10.9077 18.8939 11.3556 19.0853 11.8031 19.2807C12.0441 19.3859 12.2519 19.4721 12.265 19.4721C12.2781 19.4721 12.4308 19.5338 12.6046 19.609C12.7783 19.6844 13.1762 19.8528 13.4889 19.9831C14.0573 20.2203 14.2675 20.31 14.9712 20.615C15.1777 20.7045 15.3574 20.7778 15.3705 20.7778C15.3839 20.7778 15.5918 20.8639 15.8328 20.9691C16.6789 21.3384 16.9627 21.459 16.9863 21.459C16.9993 21.459 17.2072 21.5449 17.4481 21.6501C17.6891 21.7553 18.0881 21.9249 18.3349 22.0268C18.5818 22.129 18.9183 22.2704 19.0828 22.3413C19.2474 22.4122 19.7859 22.6412 20.2794 22.8503C20.773 23.0594 21.2846 23.2766 21.4162 23.333C21.5477 23.3895 21.9113 23.5425 22.2238 23.6728C22.5365 23.8034 22.8998 23.9567 23.0315 24.0135C23.1632 24.0704 23.5132 24.2189 23.8093 24.3437C25.2517 24.9514 25.154 24.8203 24.5848 25.3859C24.386 25.5833 23.6739 26.3069 23.0026 26.9937C22.3313 27.6806 21.3011 28.7329 20.7135 29.3322L19.6451 30.4215L19.394 30.3176C19.2557 30.2604 18.8196 30.0739 18.4246 29.9032C18.0298 29.7326 17.5721 29.5349 17.4077 29.464C17.2431 29.3931 16.9065 29.246 16.6598 29.1372C16.413 29.0284 16.1034 28.894 15.9717 28.8387C15.8401 28.7832 15.5306 28.649 15.2837 28.5403C15.0369 28.4315 14.6869 28.2781 14.506 28.1993C14.325 28.1206 13.9396 27.9513 13.6498 27.823C13.3599 27.6947 13.114 27.5898 13.1032 27.5898C13.0925 27.5898 12.8316 27.4782 12.5235 27.3419C12.2154 27.2055 11.5447 26.9135 11.0333 26.693C10.5218 26.4724 9.86215 26.1853 9.56755 26.0551C9.27279 25.925 8.77588 25.709 8.4632 25.5753C8.15069 25.4415 7.39688 25.1157 6.78809 24.8512C6.1793 24.5866 5.41197 24.254 5.08289 24.1119C4.75399 23.97 4.2559 23.7535 3.97618 23.631C3.69646 23.5085 3.32631 23.3483 3.15341 23.275C2.98067 23.2017 2.83938 23.1241 2.83938 23.1024C2.83938 23.0633 7.12714 18.2996 7.57418 17.8419C7.83632 17.5735 7.77971 17.5711 8.49312 17.8825ZM45.7731 17.6453C45.7563 17.6708 45.8221 17.6808 45.9191 17.6673C46.0161 17.6538 46.0954 17.6328 46.0954 17.6208C46.0954 17.5775 45.8026 17.5998 45.7731 17.6453ZM46.2451 17.8823C46.3438 17.9916 46.4312 18.0916 46.4395 18.1048C46.4476 18.1179 46.4674 18.1163 46.4834 18.1011C46.4993 18.086 46.4119 17.9859 46.2891 17.8788L46.0658 17.684L46.2451 17.8823ZM49.5937 18.4645C49.7874 18.6752 49.9569 18.8478 49.9706 18.8478C50.0101 18.8478 49.5332 18.32 49.3804 18.1949C49.3041 18.1324 49.4001 18.2538 49.5937 18.4645ZM46.7414 18.4361C46.8723 18.5844 47.0419 18.7568 47.1181 18.8194C47.1943 18.8817 47.0983 18.7604 46.9048 18.5496C46.5042 18.1136 46.3803 18.0275 46.7414 18.4361ZM38.8262 18.3614C38.6617 18.4366 38.5439 18.5001 38.5644 18.5026C38.6193 18.5092 39.1553 18.2791 39.1553 18.2489C39.1553 18.2114 39.1522 18.2124 38.8262 18.3614ZM37.9289 18.7291C37.7972 18.7863 37.5207 18.904 37.3143 18.9906C37.108 19.0772 36.9491 19.1574 36.9611 19.169C36.9941 19.2001 38.1981 18.6927 38.1981 18.6476C38.1981 18.6114 38.2012 18.6104 37.9289 18.7291ZM42.6552 18.9594C42.5895 18.9855 42.4578 19.0357 42.3628 19.0708C42.2677 19.1059 42.203 19.147 42.219 19.1622C42.2504 19.1921 42.8048 18.9725 42.8048 18.9302C42.8048 18.8994 42.8063 18.8992 42.6552 18.9594ZM50.1638 19.1032C50.2755 19.2124 50.3803 19.3019 50.3967 19.3019C50.4131 19.3019 50.3353 19.2124 50.2236 19.1032C50.112 18.9938 50.0073 18.9045 49.9907 18.9045C49.9743 18.9045 50.0522 18.9938 50.1638 19.1032ZM36.5827 19.3019C36.4676 19.3617 36.3902 19.4116 36.4108 19.413C36.4728 19.4169 36.8818 19.2458 36.8818 19.216C36.8818 19.1664 36.7958 19.1911 36.5827 19.3019ZM47.8217 19.6315C47.9978 19.825 48.1728 20.0013 48.2106 20.0229C48.2483 20.0447 48.1351 19.9039 47.959 19.7102C47.7828 19.5165 47.6077 19.3404 47.57 19.3186C47.5324 19.2969 47.6456 19.4377 47.8217 19.6315ZM36.104 19.5049L35.9544 19.5904L36.104 19.5532C36.1863 19.5328 36.2793 19.4934 36.3104 19.4658C36.4018 19.3847 36.2708 19.4097 36.104 19.5049ZM35.2963 19.8404C35.0002 19.9766 34.7791 20.0899 34.8051 20.0922C34.8646 20.0976 35.815 19.6954 35.8917 19.6324C36.0131 19.5325 35.817 19.601 35.2963 19.8404ZM50.8817 19.8978C50.9933 20.0072 51.0981 20.0965 51.1146 20.0965C51.131 20.0965 51.0531 20.0072 50.9416 19.8978C50.8298 19.7886 50.7251 19.6991 50.7087 19.6991C50.6923 19.6991 50.77 19.7886 50.8817 19.8978ZM40.1874 19.9868C40.0475 20.0489 39.9331 20.1111 39.9331 20.1247C39.9331 20.156 40.0744 20.1052 40.3487 19.975C40.6404 19.8364 40.5025 19.8465 40.1874 19.9868ZM33.8605 20.4407C33.4327 20.6248 32.9522 20.8289 32.7927 20.8942C32.6333 20.9593 32.5151 21.0246 32.5302 21.0388C32.5454 21.0533 32.7634 20.9748 33.0149 20.8645C33.2664 20.7543 33.4839 20.6642 33.4983 20.6642C33.5127 20.6642 33.7564 20.5621 34.04 20.4371C34.3236 20.3122 34.5793 20.2101 34.6084 20.2101C34.6373 20.2101 34.6777 20.1846 34.6982 20.1533C34.7582 20.0611 34.6769 20.089 33.8605 20.4407ZM39.1634 20.4163C39.0525 20.4622 38.9759 20.513 38.9932 20.5294C39.0103 20.5455 39.1279 20.5071 39.2543 20.4437C39.5195 20.3111 39.4605 20.2933 39.1634 20.4163ZM48.728 20.6358C48.8395 20.7452 48.9443 20.8345 48.9607 20.8345C48.9773 20.8345 48.8994 20.7452 48.7876 20.6358C48.6761 20.5266 48.5713 20.4371 48.5549 20.4371C48.5383 20.4371 48.6163 20.5266 48.728 20.6358ZM51.7718 20.883C51.9055 21.0343 52.0621 21.1941 52.1201 21.2377C52.1781 21.2813 52.0807 21.1573 51.9036 20.9622C51.7266 20.7672 51.5698 20.6074 51.5553 20.6074C51.5406 20.6074 51.6381 20.7314 51.7718 20.883ZM37.6094 21.0707C37.4666 21.133 37.3615 21.195 37.3757 21.2085C37.4053 21.2366 37.9588 21.0137 37.9588 20.9737C37.9588 20.9309 37.8809 20.9524 37.6094 21.0707ZM31.4973 21.4362C31.0202 21.6373 30.5487 21.8381 30.4494 21.8822C30.3502 21.9265 30.1917 21.9904 30.097 22.0246C30.0026 22.0586 29.9382 22.099 29.9542 22.1141C29.9868 22.145 30.2779 22.0389 30.8093 21.8022C31.2798 21.5926 31.6324 21.4441 32.0356 21.2858C32.3586 21.1589 32.5376 21.0571 32.4217 21.0659C32.3904 21.0683 31.9745 21.235 31.4973 21.4362ZM37.0613 21.3171C36.979 21.3616 36.9386 21.3982 36.9716 21.3982C37.0045 21.3982 37.0987 21.3616 37.181 21.3171C37.2633 21.2725 37.3037 21.2359 37.2707 21.2359C37.2378 21.2359 37.1436 21.2725 37.0613 21.3171ZM49.3261 21.2686C49.3261 21.2991 49.4137 21.3992 49.5207 21.4909L49.715 21.6577L49.5355 21.4593C49.4368 21.3501 49.3493 21.25 49.3412 21.2369C49.3329 21.2237 49.3261 21.238 49.3261 21.2686ZM52.1979 21.3633C52.1979 21.373 52.2854 21.4559 52.3924 21.5477L52.5868 21.7145L52.4112 21.5299C52.2474 21.358 52.1979 21.3193 52.1979 21.3633ZM36.2835 21.6303C35.5008 21.9677 35.2561 22.0708 35.0058 22.1694C34.8788 22.2194 34.7876 22.2724 34.8031 22.2871C34.8187 22.3017 35.0301 22.2286 35.2731 22.1244C35.5164 22.0201 35.8363 21.8856 35.9844 21.8254C36.4049 21.6545 36.918 21.4086 36.8519 21.4099C36.819 21.4106 36.5632 21.5097 36.2835 21.6303ZM49.8646 21.8848C49.9763 21.994 50.0811 22.0835 50.0975 22.0835C50.1139 22.0835 50.0362 21.994 49.9244 21.8848C49.8129 21.7754 49.7081 21.6861 49.6915 21.6861C49.6751 21.6861 49.753 21.7754 49.8646 21.8848ZM52.8563 22.0836C53.0274 22.2711 53.1984 22.4424 53.2361 22.4642C53.2738 22.4861 53.1467 22.3327 52.9535 22.1234C52.7602 21.9141 52.5893 21.7428 52.5736 21.7428C52.5579 21.7428 52.6851 21.8961 52.8563 22.0836ZM28.5795 22.663C27.9125 22.9467 27.3808 23.1919 27.3979 23.2083C27.4151 23.2245 27.4896 23.21 27.5637 23.1762C27.7293 23.1003 28.3727 22.8266 28.5357 22.7626C28.6016 22.7368 28.8915 22.6117 29.1801 22.4847C29.4686 22.3577 29.7296 22.2538 29.7599 22.2538C29.7903 22.2538 29.8317 22.2281 29.852 22.197C29.9148 22.1005 29.8285 22.132 28.5795 22.663ZM34.495 22.3721C34.4162 22.4019 34.3667 22.4406 34.385 22.4581C34.4032 22.4754 34.4947 22.4504 34.5881 22.4023C34.7761 22.3057 34.7188 22.2871 34.495 22.3721ZM34.04 22.5684C33.9413 22.6125 33.6856 22.7225 33.4716 22.8125C33.2578 22.9026 32.927 23.0437 32.7369 23.126C32.5467 23.2083 32.3801 23.2755 32.3666 23.2755C32.353 23.2755 32.1098 23.3776 31.8264 23.5025C31.5428 23.6275 31.2996 23.7296 31.286 23.7296C31.2724 23.7296 31.092 23.8029 30.8855 23.8922C30.679 23.9817 30.3545 24.1222 30.1643 24.2045C29.9742 24.2867 29.808 24.3541 29.7948 24.3541C29.7698 24.3541 29.054 24.6554 28.8199 24.7646C28.5892 24.8722 28.5647 24.8395 29.7857 26.0591C30.0524 26.3256 30.4985 26.778 30.7768 27.0644C31.0552 27.3507 31.2942 27.5744 31.308 27.5612C31.3217 27.5481 31.1749 27.3778 30.9815 27.1826C29.0473 25.2311 28.7388 24.9048 28.7887 24.862C28.814 24.8401 29.0503 24.7322 29.3135 24.6222C31.0097 23.9128 33.5512 22.8454 33.8174 22.7305C33.9912 22.6556 34.1578 22.5942 34.1877 22.5942C34.2178 22.5942 34.2589 22.5687 34.2793 22.5376C34.3285 22.4619 34.2572 22.4711 34.04 22.5684ZM50.4031 22.4985C50.4031 22.5083 50.4906 22.5913 50.5975 22.6831L50.792 22.8497L50.6162 22.6653C50.4524 22.4934 50.4031 22.4547 50.4031 22.4985ZM25.5143 22.8643C25.5143 22.9063 25.6759 22.9836 26.0116 23.1023C26.104 23.135 26.332 23.2278 26.5183 23.3087C26.8529 23.4539 27.3093 23.4296 27.3093 23.2665C27.3093 23.1998 27.2691 23.2062 27.0683 23.3046C26.8998 23.3874 26.868 23.3799 26.2284 23.106C25.5127 22.7997 25.5143 22.8001 25.5143 22.8643ZM53.7706 23.4741C53.7711 23.6303 53.7827 23.6874 53.7964 23.6012C53.8101 23.5149 53.8098 23.3871 53.7956 23.3173C53.7814 23.2476 53.7702 23.3181 53.7706 23.4741ZM48.1297 24.3541C48.0144 24.4139 47.9471 24.4628 47.9801 24.4628C48.0129 24.4628 48.1341 24.4139 48.2493 24.3541C48.3644 24.2943 48.4317 24.2454 48.3989 24.2454C48.3659 24.2454 48.2448 24.2943 48.1297 24.3541ZM47.5613 24.6057C47.3966 24.6809 47.2788 24.7446 47.2993 24.747C47.3542 24.7535 47.8903 24.5234 47.8903 24.4933C47.8903 24.4558 47.8873 24.4567 47.5613 24.6057ZM46.7535 24.9502C46.6712 24.9947 46.6308 25.0313 46.6638 25.0313C46.6967 25.0313 46.7909 24.9947 46.8732 24.9502C46.9555 24.9056 46.9959 24.869 46.9629 24.869C46.93 24.869 46.8358 24.9056 46.7535 24.9502ZM51.5399 25.1205C51.4576 25.1651 51.4172 25.2016 51.4501 25.2016C51.4829 25.2016 51.5772 25.1651 51.6595 25.1205C51.7417 25.0757 51.7821 25.0393 51.7493 25.0393C51.7163 25.0393 51.622 25.0757 51.5399 25.1205ZM45.9757 25.2908C45.8277 25.366 45.7335 25.4276 45.7663 25.4276C45.7993 25.4276 45.9473 25.366 46.0954 25.2908C46.2434 25.2156 46.3378 25.154 46.3048 25.154C46.272 25.154 46.1238 25.2156 45.9757 25.2908ZM45.0784 25.6882C44.9302 25.7634 44.836 25.8248 44.869 25.8248C44.9018 25.8248 45.0499 25.7634 45.1981 25.6882C45.3461 25.6128 45.4403 25.5514 45.4073 25.5514C45.3745 25.5514 45.2265 25.6128 45.0784 25.6882ZM48.1297 26.5963C48.0473 26.6409 48.007 26.6775 48.0399 26.6775C48.0727 26.6775 48.167 26.6409 48.2493 26.5963C48.3315 26.5517 48.3719 26.5152 48.3391 26.5152C48.3061 26.5152 48.2118 26.5517 48.1297 26.5963ZM47.4852 26.8649C47.2817 26.9579 47.288 26.7434 47.3057 33.1245L47.3224 39.085L47.3518 27.0205L47.5462 26.9079C47.7528 26.7886 47.713 26.7607 47.4852 26.8649ZM27.9039 27.2351C27.8792 28.2635 27.902 45.4281 27.9279 45.4528C27.9473 45.4712 28.0604 45.4424 28.1796 45.3887C28.2985 45.3351 28.3825 45.2787 28.3663 45.2631C28.3499 45.2477 28.28 45.2639 28.2107 45.299C28.1412 45.3343 28.0582 45.3476 28.0259 45.3287C27.9492 45.2836 27.9451 27.2492 28.0219 27.2492C28.0518 27.2492 28.4201 27.6004 28.8404 28.0297C29.2607 28.459 29.8084 29.0148 30.0573 29.2648C30.3063 29.515 31.0956 30.3195 31.8114 31.0531C33.2514 32.5287 33.3974 32.6471 33.815 32.6747L34.0998 32.6934L33.8605 32.6477C33.371 32.5542 33.2617 32.4603 31.3477 30.4905C31.1503 30.2873 30.908 30.0432 30.8093 29.9481C30.7104 29.853 30.5106 29.6476 30.3651 29.4914C30.2196 29.3354 29.883 28.989 29.6174 28.7218C29.3515 28.4545 28.8828 27.9755 28.5757 27.6573C27.9759 27.036 27.9096 26.9943 27.9039 27.2351ZM25.7988 36.2768C25.8071 41.2212 25.791 45.2883 25.763 45.3149C25.7182 45.3574 25.2985 45.2009 24.288 44.7645C24.1234 44.6935 23.7868 44.5519 23.5401 44.4499C23.2933 44.3477 22.8943 44.1782 22.6533 44.073C22.4122 43.9678 22.2043 43.8819 22.1913 43.8819C22.1783 43.8819 22.0254 43.8203 21.8516 43.7449C21.678 43.6695 21.28 43.5013 20.9675 43.3708C20.6548 43.2404 20.2914 43.0874 20.1598 43.0308C20.0281 42.974 19.4492 42.7311 18.8734 42.4908C17.6828 41.9939 16.361 41.4371 15.8955 41.2366C15.7219 41.1617 15.4258 41.0389 15.2374 40.9637C15.0491 40.8883 14.6576 40.7222 14.3678 40.5945C14.0779 40.4669 13.8296 40.3623 13.8161 40.3623C13.8026 40.3623 13.6359 40.2948 13.4458 40.2122C13.2556 40.1296 12.898 39.9798 12.6512 39.8791C12.4045 39.7786 12.0813 39.644 11.9333 39.5802C11.1093 39.225 10.6618 39.0362 9.67623 38.6283L8.58591 38.1768L8.58439 33.0915C8.58354 30.2945 8.59791 27.9918 8.61633 27.9743C8.64912 27.9432 9.76767 28.4102 11.8734 29.3341C12.1204 29.4425 12.5781 29.6409 12.8906 29.7751C13.2032 29.9093 13.6961 30.1239 13.986 30.252C14.2758 30.3802 14.5224 30.4849 14.5339 30.4849C14.5454 30.4849 14.8197 30.6026 15.1435 30.7464C15.4674 30.8903 15.9883 31.1177 16.3008 31.2517C16.6135 31.3858 17.0712 31.5842 17.3179 31.6924C17.5647 31.8008 17.8877 31.9416 18.0359 32.0055C18.184 32.0691 18.5648 32.2358 18.8823 32.3758C20.1395 32.9297 20.1765 32.9138 21.9802 31.0495C22.3561 30.661 22.8542 30.1505 23.0869 29.9151C23.5996 29.3968 24.6732 28.2925 25.2451 27.6951C25.4755 27.4544 25.691 27.2642 25.7238 27.2724C25.7633 27.282 25.7888 30.3433 25.7988 36.2768ZM41.04 27.4442C40.8753 27.5192 40.7575 27.5829 40.778 27.5853C40.8329 27.5919 41.369 27.3617 41.369 27.3316C41.369 27.2941 41.366 27.2952 41.04 27.4442ZM40.3818 27.728C40.2174 27.8031 40.0994 27.8667 40.12 27.8691C40.1748 27.8757 40.7109 27.6456 40.7109 27.6154C40.7109 27.5779 40.7078 27.5789 40.3818 27.728ZM31.6202 27.902C32.0313 28.357 32.7538 29.0738 32.7523 29.0252C32.7514 29.0007 32.4388 28.674 32.0573 28.2994C31.6758 27.9246 31.4792 27.7458 31.6202 27.902ZM39.5859 28.055C39.3785 28.1496 39.22 28.2377 39.2337 28.2508C39.2624 28.2779 40.0527 27.9392 40.0527 27.8996C40.0527 27.8525 39.9674 27.8809 39.5859 28.055ZM44.7793 28.0439C44.664 28.1038 44.5967 28.1527 44.6297 28.1527C44.6625 28.1527 44.7837 28.1038 44.8989 28.0439C45.014 27.9841 45.0813 27.9351 45.0485 27.9351C45.0155 27.9351 44.8944 27.9841 44.7793 28.0439ZM44.1809 28.2994C44.0329 28.3746 43.9386 28.4362 43.9715 28.4362C44.0045 28.4362 44.1525 28.3746 44.3006 28.2994C44.4487 28.2242 44.5428 28.1626 44.51 28.1626C44.4771 28.1626 44.329 28.2242 44.1809 28.2994ZM38.7963 28.4129C38.6482 28.4882 38.5439 28.5509 38.5644 28.5523C38.6222 28.5562 39.1553 28.3257 39.1553 28.2967C39.1553 28.2474 39.0638 28.277 38.7963 28.4129ZM37.614 28.9189C37.0972 29.1453 36.8239 29.2937 37.0931 29.2018C37.3505 29.1139 38.1981 28.7285 38.1981 28.6994C38.1981 28.6596 38.2524 28.6392 37.614 28.9189ZM42.6852 28.9523C42.5701 29.0121 42.5028 29.061 42.5356 29.061C42.5685 29.061 42.6897 29.0121 42.8048 28.9523C42.9201 28.8923 42.9874 28.8434 42.9544 28.8434C42.9216 28.8434 42.8004 28.8923 42.6852 28.9523ZM32.8135 29.098C32.8135 29.3848 34.2758 30.5604 34.3983 30.3721C34.4206 30.338 34.3694 30.3287 34.2661 30.3482C34.0941 30.381 34.0302 30.3244 32.9182 29.1545C32.8606 29.0939 32.8135 29.0685 32.8135 29.098ZM36.3134 29.4908C36.0173 29.6269 35.802 29.7387 35.8348 29.739C35.8677 29.7393 36.137 29.6284 36.4331 29.4922C36.7292 29.3561 36.9447 29.2443 36.9118 29.244C36.8788 29.2435 36.6096 29.3546 36.3134 29.4908ZM35.1006 30.0116C34.7624 30.156 34.4974 30.2851 34.5116 30.2984C34.5258 30.3118 34.6811 30.2605 34.857 30.1844C35.0328 30.1082 35.3046 29.9908 35.4609 29.9234C35.6173 29.8559 35.745 29.7887 35.745 29.7738C35.745 29.735 35.7697 29.7259 35.1006 30.0116ZM40.4567 29.9122C40.3335 29.9669 40.2123 30.0314 40.1874 30.0556C40.1379 30.1038 40.5278 29.9579 40.6953 29.8652C40.8645 29.7717 40.7011 29.804 40.4567 29.9122ZM39.2247 30.4373C39.0819 30.4995 38.9783 30.563 38.9945 30.5784C39.0108 30.5936 39.1544 30.5418 39.314 30.4631C39.6576 30.2934 39.5959 30.2756 39.2247 30.4373ZM38.5666 30.7211C38.4238 30.7833 38.3202 30.8468 38.3364 30.8622C38.3526 30.8775 38.4964 30.8257 38.6558 30.7469C38.9996 30.5772 38.9377 30.5594 38.5666 30.7211ZM37.8092 31.0537C37.6118 31.1438 37.2934 31.2849 37.1016 31.3672C36.9099 31.4496 36.7637 31.5271 36.7769 31.5396C36.8009 31.5624 38.1806 30.9746 38.2438 30.9147C38.3178 30.8444 38.1513 30.8977 37.8092 31.0537ZM36.3883 31.6721C36.2651 31.7266 36.1439 31.7911 36.1191 31.8153C36.0695 31.8637 36.4595 31.7176 36.627 31.6251C36.7963 31.5316 36.6329 31.5637 36.3883 31.6721ZM35.7532 31.9399C35.6423 31.9857 35.5657 32.0366 35.583 32.0529C35.6 32.0693 35.7177 32.0308 35.8441 31.9675C36.1093 31.8347 36.0503 31.8169 35.7532 31.9399ZM35.0272 32.2544C34.8133 32.3515 34.5171 32.4773 34.3691 32.5339C34.221 32.5905 34.1536 32.6363 34.2195 32.636C34.3415 32.6354 35.5846 32.0858 35.4758 32.0805C35.443 32.0791 35.241 32.1572 35.0272 32.2544ZM43.6724 38.8032C43.5221 38.8719 43.5172 38.8797 43.6425 38.851C43.7248 38.8323 43.8176 38.7941 43.8488 38.7665C43.9264 38.6977 43.8838 38.7065 43.6724 38.8032ZM42.5954 39.2516C42.431 39.3268 42.3132 39.3903 42.3336 39.3927C42.3884 39.3993 42.9245 39.1693 42.9245 39.1392C42.9245 39.1015 42.9214 39.1026 42.5954 39.2516ZM41.917 39.5199C41.7742 39.5821 41.6706 39.6456 41.6868 39.661C41.703 39.6764 41.8468 39.6245 42.0062 39.5457C42.35 39.3761 42.2881 39.3583 41.917 39.5199ZM47.0005 39.5305C46.9638 39.5723 46.8255 39.653 46.6935 39.7096C46.5614 39.7661 46.4643 39.823 46.4779 39.8358C46.5159 39.8719 46.9611 39.644 47.0491 39.5433C47.0921 39.4942 47.1137 39.454 47.0973 39.454C47.0807 39.454 47.0373 39.4885 47.0005 39.5305ZM45.9159 40.0501C45.8337 40.0947 45.7934 40.1312 45.8261 40.1312C45.8591 40.1312 45.9534 40.0947 46.0355 40.0501C46.1179 40.0055 46.1583 39.9689 46.1253 39.9689C46.0925 39.9689 45.9982 40.0055 45.9159 40.0501ZM40.337 40.187C40.2138 40.2417 40.0926 40.3062 40.0678 40.3302C40.0183 40.3787 40.4082 40.2326 40.5757 40.14C40.7449 40.0465 40.5814 40.0788 40.337 40.187ZM44.9588 40.4475C44.8764 40.492 44.836 40.5286 44.869 40.5286C44.9018 40.5286 44.9961 40.492 45.0784 40.4475C45.1606 40.4029 45.201 40.3663 45.1682 40.3663C45.1352 40.3663 45.0409 40.4029 44.9588 40.4475ZM39.3647 40.6141C39.2002 40.6891 39.0824 40.7528 39.1029 40.7552C39.1576 40.7618 39.6937 40.5317 39.6937 40.5015C39.6937 40.464 39.6907 40.4649 39.3647 40.6141ZM38.7217 40.8683C38.5984 40.9228 38.4772 40.9869 38.4525 41.0105C38.3927 41.0678 38.9296 40.8699 39.0028 40.808C39.0926 40.7318 38.9707 40.7579 38.7217 40.8683ZM43.9117 40.8978C43.7471 40.973 43.6293 41.0365 43.6499 41.0391C43.7047 41.0456 44.2408 40.8155 44.2408 40.7854C44.2408 40.7478 44.2377 40.7488 43.9117 40.8978ZM43.3433 41.1287C43.261 41.1733 43.2206 41.2098 43.2536 41.2098C43.2865 41.2098 43.3807 41.1733 43.463 41.1287C43.5453 41.084 43.5857 41.0476 43.5527 41.0476C43.5198 41.0476 43.4256 41.084 43.3433 41.1287ZM37.5699 41.3588C37.3066 41.469 36.9625 41.6127 36.8053 41.6781C36.6479 41.7434 36.5293 41.8066 36.5418 41.8183C36.5644 41.8398 36.8387 41.7331 37.5292 41.4342C37.7371 41.3442 37.9307 41.2706 37.9593 41.2706C37.988 41.2706 38.0281 41.245 38.0486 41.2139C38.0991 41.1362 38.1082 41.1333 37.5699 41.3588ZM42.8647 41.3274C42.7496 41.3872 42.6823 41.4361 42.7151 41.4361C42.748 41.4361 42.8692 41.3872 42.9843 41.3274C43.0996 41.2676 43.1669 41.2185 43.1339 41.2185C43.1009 41.2185 42.9799 41.2676 42.8647 41.3274ZM41.6981 41.812C41.3031 41.981 40.8496 42.173 40.6901 42.2383C40.5305 42.3035 40.4109 42.3672 40.4241 42.3797C40.4465 42.401 42.4416 41.5774 42.4989 41.523C42.5736 41.4522 42.3495 41.533 41.6981 41.812ZM36.1137 41.961C35.9708 42.0231 35.8657 42.0851 35.8801 42.0988C35.9095 42.1267 36.463 41.9037 36.463 41.864C36.463 41.821 36.3853 41.8426 36.1137 41.961ZM35.1768 42.3738C35.0122 42.449 34.8944 42.5125 34.9148 42.5149C34.9698 42.5215 35.5057 42.2915 35.5057 42.2614C35.5057 42.2237 35.5027 42.2248 35.1768 42.3738ZM40.1126 42.491C40.0303 42.5357 39.9899 42.5722 40.0228 42.5722C40.0558 42.5722 40.1499 42.5357 40.2322 42.491C40.3145 42.4464 40.3549 42.4099 40.322 42.4099C40.289 42.4099 40.1949 42.4464 40.1126 42.491ZM34.4982 42.6421C34.3556 42.7043 34.2504 42.7664 34.2646 42.78C34.294 42.8079 34.8477 42.585 34.8477 42.5452C34.8477 42.5022 34.7698 42.5239 34.4982 42.6421ZM39.3348 42.8044C39.055 42.9269 38.7219 43.0672 38.5945 43.1163C38.4669 43.1652 38.3749 43.217 38.39 43.2313C38.4145 43.2547 39.8651 42.6595 39.9273 42.6007C39.9985 42.533 39.794 42.6034 39.3348 42.8044ZM33.7708 42.9581C33.7214 42.9758 33.5463 43.048 33.3819 43.1182C32.4663 43.5095 29.3855 44.7993 29.2486 44.8487C29.16 44.8806 29.1048 44.9231 29.1259 44.9432C29.1468 44.9632 29.2248 44.9515 29.2986 44.9172C29.6355 44.7612 30.2311 44.5063 30.2591 44.5063C30.2905 44.5063 30.8826 44.2523 31.6611 43.9048C31.8992 43.7985 32.1082 43.7115 32.1254 43.7115C32.159 43.7115 32.432 43.5966 33.2232 43.2495C33.498 43.1289 33.7454 43.0303 33.7731 43.0303C33.8008 43.0303 33.8402 43.0048 33.8605 42.9735C33.9009 42.9115 33.9006 42.9113 33.7708 42.9581ZM38.0266 43.3501C37.9159 43.396 37.8393 43.4468 37.8564 43.463C37.8736 43.4793 37.9911 43.4409 38.1177 43.3775C38.3829 43.2449 38.3239 43.2269 38.0266 43.3501ZM37.54 43.5696C37.4577 43.6142 37.4173 43.6508 37.4502 43.6508C37.4832 43.6508 37.5773 43.6142 37.6596 43.5696C37.742 43.525 37.7822 43.4885 37.7494 43.4885C37.7164 43.4885 37.6223 43.525 37.54 43.5696ZM37.0111 43.7775C36.8683 43.8397 36.7632 43.9017 36.7776 43.9152C36.807 43.9433 37.3605 43.7202 37.3605 43.6804C37.3605 43.6376 37.2826 43.6591 37.0111 43.7775ZM36.463 43.9993C36.4137 44.0291 36.2431 44.1064 36.0841 44.171C35.925 44.2358 35.8071 44.3001 35.8218 44.314C35.8365 44.328 36.0474 44.2513 36.2905 44.1437C36.5335 44.036 36.6919 43.9473 36.6425 43.9466C36.5932 43.9458 36.5124 43.9696 36.463 43.9993ZM28.6949 45.0832C28.5521 45.1454 28.4469 45.2073 28.4611 45.2208C28.5002 45.2578 29.0442 45.0564 29.0442 45.0049C29.0442 44.9422 28.9905 44.9544 28.6949 45.0832Z" fill="url(#paint1_linear)"/>
<defs>
<linearGradient id="paint0_linear" x1="26.9032" y1="0" x2="26.9032" y2="48" gradientUnits="userSpaceOnUse">
<stop stop-color="#A952ED"/>
<stop offset="1" stop-color="#D65FF2"/>
<stop offset="1" stop-color="#D65FF2"/>
</linearGradient>
<linearGradient id="paint1_linear" x1="26.9032" y1="0" x2="26.9032" y2="48" gradientUnits="userSpaceOnUse">
<stop stop-color="#A952ED"/>
<stop offset="1" stop-color="#D65FF2"/>
<stop offset="1" stop-color="#D65FF2"/>
</linearGradient>
</defs>
</svg>
