<svg width="52" height="48" viewBox="0 0 52 48" fill="none" xmlns="http://www.w3.org/2000/svg">
<path d="M51.5705 26.8854L48.8575 18.5203C48.8426 18.4427 48.8201 18.3668 48.7904 18.2936L43.3492 1.48074C43.2029 1.04748 42.9245 0.671366 42.5535 0.405633C42.1824 0.139899 41.7375 -0.00199362 41.2816 3.63991e-05C40.8268 -0.00262822 40.3831 0.14107 40.0157 0.410044C39.6483 0.679018 39.3764 1.0591 39.24 1.49452L34.0521 17.5158H17.6781L12.4826 1.49299C12.3468 1.05911 12.0764 0.680171 11.7107 0.411563C11.345 0.142954 10.9033 -0.00124633 10.4501 3.63991e-05H10.4379C9.9816 0.00011607 9.5369 0.14458 9.16708 0.412885C8.79727 0.68119 8.52116 1.05968 8.37803 1.49452L2.93225 18.3289C2.93225 18.3426 2.92004 18.3564 2.91546 18.3702L0.15366 26.8854C-0.0501635 27.5097 -0.0512403 28.1828 0.150584 28.8077C0.352408 29.4326 0.746715 29.9772 1.27669 30.3628L25.1381 47.7668C25.3482 47.9197 25.6015 48.0014 25.861 48C26.1206 47.9986 26.373 47.9142 26.5815 47.7591L50.4474 30.3628C50.9774 29.9772 51.3717 29.4326 51.5736 28.8077C51.7754 28.1828 51.7743 27.5097 51.5705 26.8854ZM15.902 19.9749L22.5548 40.5164L6.5882 19.9749H15.902ZM29.177 40.521L35.5551 20.8278L35.8313 19.9749H45.1527L30.7074 38.5457L29.177 40.521ZM41.303 3.07168L45.9782 17.5158H36.6217L41.303 3.07168ZM33.2602 19.9657L28.6262 34.2766L25.8613 42.7979L18.4731 19.9657H33.2602ZM10.4273 3.07168L15.1116 17.5158H5.76119L10.4273 3.07168ZM2.71252 28.3814C2.6001 28.2995 2.51647 28.1839 2.4737 28.0513C2.43092 27.9186 2.4312 27.7758 2.47449 27.6433L4.52524 21.3209L19.5656 40.671L2.71252 28.3814ZM49.0116 28.3814L32.157 40.6634L32.215 40.5899L47.1989 21.3209L49.2481 27.6418C49.2917 27.7743 49.2923 27.9173 49.2498 28.0502C49.2073 28.1831 49.1239 28.299 49.0116 28.3814Z" fill="url(#paint0_linear)"/>
<defs>
<linearGradient id="paint0_linear" x1="25.8621" y1="2.78507" x2="25.8621" y2="45.3138" gradientUnits="userSpaceOnUse">
<stop stop-color="#FF4B8A"/>
<stop offset="1" stop-color="#FF7B3C"/>
</linearGradient>
</defs>
</svg>
