<svg width="54" height="48" viewBox="0 0 54 48" fill="none" xmlns="http://www.w3.org/2000/svg">
<path fill-rule="evenodd" clip-rule="evenodd" d="M12.1586 1.81833C12.8051 0.693483 14.0036 0 15.301 0H36.3875C39.1469 0 40.8942 2.96088 39.5603 5.37651L28.7635 24.9282C28.2166 25.9187 26.9703 26.2782 25.9799 25.7313C24.9894 25.1843 24.6299 23.9381 25.1768 22.9476L35.5864 4.09718H15.5746L4.16932 23.9408L15.5779 43.9028H37.9012L48.7094 25.9865H39.0578C37.9264 25.9865 37.0092 25.0693 37.0092 23.9379C37.0092 22.8065 37.9264 21.8893 39.0578 21.8893H49.5468C52.3679 21.8893 54.1075 24.9704 52.6502 27.386L41.2715 46.2478C40.6155 47.3352 39.4381 48 38.1681 48H15.3036C14.003 48 12.8021 47.3032 12.1568 46.174L0.477661 25.7386C-0.160785 24.6215 -0.159114 23.2496 0.482057 22.1341L12.1586 1.81833Z" fill="url(#paint0_linear)"/>
<defs>
<linearGradient id="paint0_linear" x1="26.5884" y1="2.78507" x2="26.5884" y2="45.3138" gradientUnits="userSpaceOnUse">
<stop stop-color="#FF4B8A"/>
<stop offset="1" stop-color="#FF7B3C"/>
</linearGradient>
</defs>
</svg>
