<svg width="57" height="54" viewBox="0 0 57 54" fill="none" xmlns="http://www.w3.org/2000/svg">
<mask id="path-1-outside-1" maskUnits="userSpaceOnUse" x="0" y="0" width="57" height="54" fill="black">
<rect fill="white" width="57" height="54"/>
<path d="M50.2485 22.3109C52.1375 20.26 53.2912 17.5213 53.2912 14.5131C53.2912 8.1546 48.1366 3 41.778 3C38.7699 3 36.0312 4.15367 33.9803 6.0427C32.1177 5.55234 30.1621 5.29117 28.1456 5.29117C26.129 5.29117 24.1735 5.55234 22.3109 6.0427C20.26 4.15367 17.5213 3 14.5131 3C8.1546 3 3 8.1546 3 14.5131C3 17.5213 4.15367 20.26 6.0427 22.3109C5.55234 24.1735 5.29117 26.129 5.29117 28.1456C5.29117 40.7677 15.5234 51 28.1456 51C40.7677 51 51 40.7677 51 28.1456C51 26.129 50.7388 24.1735 50.2485 22.3109ZM49.3755 19.6666C50.3999 18.1871 51 16.3916 51 14.4558C51 9.39434 46.8968 5.29117 41.8353 5.29117C39.8996 5.29117 38.104 5.8913 36.6246 6.91566C42.4268 9.2351 47.0561 13.8643 49.3755 19.6666ZM19.6324 6.92937C18.182 5.96658 16.4417 5.40573 14.5704 5.40573C9.50889 5.40573 5.40573 9.50889 5.40573 14.5704C5.40573 16.4417 5.96658 18.182 6.92937 19.6324C9.24873 13.8575 13.8575 9.24873 19.6324 6.92937Z"/>
</mask>
<path d="M50.2485 22.3109L48.0418 20.2785L46.9292 21.4865L47.3473 23.0747L50.2485 22.3109ZM33.9803 6.0427L33.2165 8.94384L34.8047 9.36198L36.0127 8.24933L33.9803 6.0427ZM22.3109 6.0427L20.2785 8.24933L21.4865 9.36198L23.0747 8.94384L22.3109 6.0427ZM6.0427 22.3109L8.94384 23.0747L9.36198 21.4865L8.24933 20.2785L6.0427 22.3109ZM49.3755 19.6666L46.5898 20.7802L48.6629 25.966L51.842 21.3744L49.3755 19.6666ZM36.6246 6.91566L34.9168 4.44917L30.3251 7.62832L35.511 9.70134L36.6246 6.91566ZM19.6324 6.92937L20.7505 9.71323L26.0464 7.58623L21.2916 4.42992L19.6324 6.92937ZM6.92937 19.6324L4.42992 21.2916L7.58623 26.0464L9.71323 20.7505L6.92937 19.6324ZM52.4551 24.3433C54.8342 21.7603 56.2912 18.3035 56.2912 14.5131H50.2912C50.2912 16.7391 49.4408 18.7596 48.0418 20.2785L52.4551 24.3433ZM56.2912 14.5131C56.2912 6.49775 49.7934 0 41.778 0V6C46.4797 6 50.2912 9.81146 50.2912 14.5131H56.2912ZM41.778 0C37.9877 0 34.5308 1.45698 31.9478 3.83607L36.0127 8.24933C37.5316 6.85037 39.5521 6 41.778 6V0ZM34.7441 3.14156C32.6344 2.58614 30.4222 2.29117 28.1456 2.29117V8.29117C29.9021 8.29117 31.601 8.51854 33.2165 8.94384L34.7441 3.14156ZM28.1456 2.29117C25.869 2.29117 23.6568 2.58614 21.5471 3.14156L23.0747 8.94384C24.6902 8.51854 26.3891 8.29117 28.1456 8.29117V2.29117ZM24.3433 3.83607C21.7603 1.45698 18.3035 0 14.5131 0V6C16.7391 6 18.7596 6.85037 20.2785 8.24933L24.3433 3.83607ZM14.5131 0C6.49775 0 0 6.49775 0 14.5131H6C6 9.81146 9.81146 6 14.5131 6V0ZM0 14.5131C0 18.3035 1.45698 21.7603 3.83608 24.3433L8.24933 20.2785C6.85037 18.7596 6 16.7391 6 14.5131H0ZM3.14156 21.5471C2.58614 23.6568 2.29117 25.869 2.29117 28.1456H8.29117C8.29117 26.3891 8.51854 24.6902 8.94384 23.0747L3.14156 21.5471ZM2.29117 28.1456C2.29117 42.4246 13.8666 54 28.1456 54V48C17.1803 48 8.29117 39.1109 8.29117 28.1456H2.29117ZM28.1456 54C42.4246 54 54 42.4246 54 28.1456H48C48 39.1109 39.1109 48 28.1456 48V54ZM54 28.1456C54 25.869 53.705 23.6568 53.1496 21.5471L47.3473 23.0747C47.7726 24.6902 48 26.3891 48 28.1456H54ZM51.842 21.3744C53.2026 19.4093 54 17.0212 54 14.4558H48C48 15.762 47.5972 16.965 46.909 17.9589L51.842 21.3744ZM54 14.4558C54 7.73748 48.5537 2.29117 41.8353 2.29117V8.29117C45.24 8.29117 48 11.0512 48 14.4558H54ZM41.8353 2.29117C39.27 2.29117 36.8819 3.0886 34.9168 4.44917L38.3323 9.38216C39.3262 8.69401 40.5292 8.29117 41.8353 8.29117V2.29117ZM35.511 9.70134C40.5505 11.7159 44.5753 15.7407 46.5898 20.7802L52.1612 18.5531C49.5368 11.988 44.3032 6.75435 37.7381 4.12999L35.511 9.70134ZM21.2916 4.42992C19.3646 3.15081 17.05 2.40573 14.5704 2.40573V8.40573C15.8335 8.40573 16.9994 8.78236 17.9733 9.42881L21.2916 4.42992ZM14.5704 2.40573C7.85204 2.40573 2.40573 7.85204 2.40573 14.5704H8.40573C8.40573 11.1657 11.1657 8.40573 14.5704 8.40573V2.40573ZM2.40573 14.5704C2.40573 17.05 3.15081 19.3646 4.42992 21.2916L9.42881 17.9733C8.78236 16.9994 8.40573 15.8335 8.40573 14.5704H2.40573ZM9.71323 20.7505C11.7277 15.7348 15.7348 11.7277 20.7505 9.71323L18.5143 4.1455C11.9803 6.76977 6.76977 11.9803 4.1455 18.5143L9.71323 20.7505Z" fill="url(#paint0_linear)" mask="url(#path-1-outside-1)"/>
<path fill-rule="evenodd" clip-rule="evenodd" d="M28.2029 40.5752C25.9117 40.5752 21.3294 35.9928 23.6205 33.7017C25.9117 31.4105 30.494 31.4105 32.7852 33.7017C35.0764 35.9928 30.494 40.5752 28.2029 40.5752Z" fill="url(#paint1_linear)"/>
<path fill-rule="evenodd" clip-rule="evenodd" d="M16.902 27.1107C20.8132 28.1587 24.5813 26.7789 25.3182 24.0289C26.0551 21.2788 23.4817 18.1998 19.5705 17.1518C15.6593 16.1038 11.8912 17.4836 11.1543 20.2337C10.4175 22.9837 12.9908 26.0627 16.902 27.1107ZM39.3891 27.1107C43.3004 26.0627 45.8737 22.9837 45.1368 20.2337C44.3999 17.4836 40.6319 16.1038 36.7206 17.1518C32.8094 18.1998 30.2361 21.2788 30.973 24.0289C31.7098 26.7789 35.4779 28.1587 39.3891 27.1107Z" stroke="url(#paint2_linear)" stroke-width="3"/>
<defs>
<linearGradient id="paint0_linear" x1="28.1456" y1="5.78507" x2="28.1456" y2="48.3138" gradientUnits="userSpaceOnUse">
<stop stop-color="#FF4B8A"/>
<stop offset="1" stop-color="#FF7B3C"/>
</linearGradient>
<linearGradient id="paint1_linear" x1="28.2029" y1="32.4818" x2="28.2029" y2="40.0943" gradientUnits="userSpaceOnUse">
<stop stop-color="#FF4B8A"/>
<stop offset="1" stop-color="#FF7B3C"/>
</linearGradient>
<linearGradient id="paint2_linear" x1="28.1456" y1="17.4196" x2="28.1456" y2="26.8649" gradientUnits="userSpaceOnUse">
<stop stop-color="#FF4B8A"/>
<stop offset="1" stop-color="#FF7B3C"/>
</linearGradient>
</defs>
</svg>
