<svg width="57" height="52" viewBox="0 0 57 52" fill="none" xmlns="http://www.w3.org/2000/svg">
<path d="M14.5795 28.129L14.5796 28.1291C15.9474 30.8656 16.5827 32.8199 16.6758 34.3756C16.7637 35.8451 16.3735 37.0562 15.4173 38.3588C14.0085 40.2778 11.449 41.1587 8.75918 40.8615C6.07517 40.565 3.59395 39.1247 2.40664 36.8371L1.08098 37.5252L2.40664 36.8371C0.875985 33.8881 1.39516 30.5042 3.13775 28.0226C4.87973 25.5418 7.67061 24.1798 10.5734 24.9243C12.3197 25.3722 13.7961 26.5616 14.5795 28.129Z" stroke="url(#paint0_linear)" stroke-width="3"/>
<path d="M34.9216 2.45866L35.3208 0.498898L35.3207 0.49889L34.9216 2.45866ZM50.1207 39.496L48.4583 38.384L48.4583 38.384L50.1207 39.496ZM10.3409 12.7178L8.67576 11.6099L8.67575 11.6099L10.3409 12.7178ZM7.94681 17.3074H9.94681L9.94681 17.3056L7.94681 17.3074ZM10.113 17.4271L10.1132 15.4271H10.113V17.4271ZM21.1788 24.1249L22.9678 23.2306L22.9677 23.2304L21.1788 24.1249ZM24.373 32.3187L22.4143 32.723L22.4143 32.723L24.373 32.3187ZM18.5144 45.6307L17.5208 43.895L17.5208 43.895L18.5144 45.6307ZM17.6626 46.2719L19.6607 46.3591L19.6607 46.359L17.6626 46.2719ZM19.5561 47.4539L18.6552 49.2395L18.6552 49.2395L19.5561 47.4539ZM34.5224 4.41842C50.0097 7.57293 57.2593 25.2269 48.4583 38.384L51.783 40.608C62.1613 25.093 53.6014 4.22239 35.3208 0.498898L34.5224 4.41842ZM12.006 13.8257C16.906 6.46116 25.9915 2.68098 34.5225 4.41843L35.3207 0.49889C25.1701 -1.56842 14.463 2.91194 8.67576 11.6099L12.006 13.8257ZM9.94681 17.3056C9.94701 17.5445 9.89917 17.7115 9.89818 17.7153C9.88852 17.7521 9.88349 17.7628 9.89282 17.737C9.91088 17.687 9.9496 17.5908 10.0161 17.4425C10.1466 17.1515 10.34 16.7575 10.5714 16.3139C11.0386 15.4184 11.6003 14.4353 12.006 13.8256L8.67575 11.6099C8.16 12.385 7.52455 13.5062 7.02495 14.464C6.77295 14.947 6.54064 15.417 6.36625 15.8058C6.2803 15.9975 6.19679 16.1952 6.13077 16.378C6.09804 16.4686 6.0605 16.5804 6.02885 16.7012C6.00587 16.7889 5.94656 17.0226 5.94681 17.3091L9.94681 17.3056ZM10.113 15.4271C9.54243 15.4271 9.03937 15.4141 8.69364 15.3949C8.51359 15.385 8.41227 15.3753 8.37568 15.3705C8.34456 15.3665 8.40711 15.3723 8.50879 15.3996C8.5439 15.409 8.70968 15.4526 8.90727 15.5591C9.00383 15.6112 9.21114 15.7323 9.4168 15.9543C9.6314 16.1859 9.94681 16.6464 9.94681 17.3074H5.94681C5.94681 17.9725 6.26413 18.437 6.48248 18.6727C6.6919 18.8988 6.90484 19.0239 7.00883 19.0799C7.22128 19.1945 7.40917 19.246 7.47327 19.2632C7.63292 19.306 7.78095 19.3269 7.85985 19.3371C8.0433 19.361 8.26018 19.3771 8.47278 19.3888C8.91234 19.4131 9.49235 19.4271 10.113 19.4271V15.4271ZM22.9677 23.2304C20.5224 18.3397 15.6665 15.4278 10.1132 15.4271L10.1127 19.4271C14.2102 19.4277 17.6482 21.5356 19.39 25.0193L22.9677 23.2304ZM26.3317 31.9143C26.1576 31.071 25.56 29.4 24.9435 27.8187C24.3052 26.1812 23.5477 24.3906 22.9678 23.2306L19.3899 25.0191C19.8887 26.0169 20.5945 27.6755 21.2167 29.2716C21.8608 30.9238 22.3209 32.2708 22.4143 32.723L26.3317 31.9143ZM19.508 47.3665C24.6454 44.4256 27.5422 37.7775 26.3317 31.9143L22.4143 32.723C23.2872 36.9511 21.1055 41.8429 17.5208 43.895L19.508 47.3665ZM19.6607 46.359C19.6358 46.9292 19.364 47.3027 19.2339 47.4524C19.1649 47.5317 19.1059 47.5835 19.0761 47.6084C19.0597 47.622 19.0471 47.6317 19.0395 47.6374C19.0318 47.6432 19.0275 47.6461 19.0274 47.6462C19.0273 47.6463 19.0301 47.6443 19.0365 47.6402C19.0429 47.636 19.0519 47.6303 19.064 47.6229C19.0889 47.6075 19.1215 47.588 19.1651 47.5627C19.2616 47.5064 19.3573 47.4527 19.508 47.3664L17.5208 43.895C17.3191 44.0104 16.9933 44.1901 16.7573 44.3527C16.633 44.4384 16.4164 44.5965 16.2147 44.8285C16.0071 45.0674 15.6932 45.5269 15.6645 46.1848L19.6607 46.359ZM20.457 45.6683C20.1117 45.4941 19.8371 45.3566 19.6041 45.237C19.3687 45.1161 19.2165 45.034 19.1165 44.975C19.0935 44.9614 19.0766 44.951 19.0647 44.9435C19.0527 44.9359 19.0479 44.9325 19.0487 44.933C19.0494 44.9335 19.0588 44.9401 19.0747 44.9528C19.0902 44.9652 19.1166 44.9873 19.1497 45.019C19.2077 45.0747 19.3342 45.2058 19.4477 45.4171C19.5708 45.6463 19.6776 45.9705 19.6607 46.3591L15.6645 46.1847C15.6244 47.1045 16.1576 47.6914 16.3795 47.9045C16.625 48.1401 16.9007 48.312 17.0839 48.4201C17.4639 48.6443 18.0274 48.9228 18.6552 49.2395L20.457 45.6683ZM48.4583 38.384C42.3916 47.4535 30.2685 50.6185 20.457 45.6683L18.6552 49.2395C30.2561 55.0925 44.584 51.3703 51.7831 40.608L48.4583 38.384Z" fill="url(#paint1_linear)"/>
<defs>
<linearGradient id="paint0_linear" x1="9.09391" y1="23.2191" x2="9.09391" y2="42.4174" gradientUnits="userSpaceOnUse">
<stop stop-color="#A952ED"/>
<stop offset="1" stop-color="#D65FF2"/>
<stop offset="1" stop-color="#D65FF2"/>
</linearGradient>
<linearGradient id="paint1_linear" x1="17.7061" y1="50" x2="66.1025" y2="25.6662" gradientUnits="userSpaceOnUse">
<stop stop-color="#00A7FE"/>
<stop offset="1" stop-color="#00E1FD"/>
</linearGradient>
</defs>
</svg>
