<svg width="49" height="48" viewBox="0 0 49 48" fill="none" xmlns="http://www.w3.org/2000/svg">
<path fill-rule="evenodd" clip-rule="evenodd" d="M21.0791 0.810766C21.789 0.421481 22.8038 0 24.0038 0C25.2058 0 26.2216 0.423058 26.9315 0.813286C27.6739 1.2214 28.3612 1.74914 28.9757 2.2935C30.2043 3.38201 31.4711 4.83327 32.705 6.43391C35.1904 9.65795 37.8721 13.9214 40.2607 18.2804C42.6501 22.6409 44.821 27.2335 46.2397 31.1427C46.9453 33.087 47.5057 34.9731 47.7907 36.6364C48.0364 38.0705 48.2453 40.1909 47.3456 41.9962C46.3719 43.9501 44.394 44.955 43.0632 45.4978C41.5196 46.1275 39.6538 46.5946 37.6926 46.9465C33.7431 47.6554 28.8363 47.996 24.0176 48C19.1994 48.0039 14.2892 47.6713 10.3337 46.9641C8.36947 46.613 6.49908 46.1451 4.95015 45.5113C3.60772 44.9621 1.63559 43.9511 0.6616 41.9954C-0.237434 40.1902 -0.0375926 38.0727 0.207447 36.6259C0.490206 34.9563 1.04971 33.066 1.75497 31.119C3.17286 27.2048 5.34549 22.6126 7.73709 18.2553C10.128 13.8992 12.8129 9.64115 15.301 6.42169C16.5364 4.82329 17.8045 3.37442 19.0341 2.28783C19.6491 1.74442 20.3367 1.21785 21.0791 0.810766ZM37.1216 35.7478C38.8294 32.3184 27.5239 11.7508 24.0064 11.7508C20.489 11.7508 9.16348 32.2809 10.8913 35.7478C12.619 39.2146 35.4139 39.1763 37.1216 35.7478ZM34.4027 33.3295C34.441 33.3021 34.4644 33.2898 34.4665 33.2906C34.4686 33.2913 34.4494 33.305 34.4027 33.3295ZM31.8893 34.025C32.4861 33.9179 32.9841 33.8046 33.3865 33.6935C33.2572 33.1836 33.0629 32.5565 32.7952 31.8187C32.0041 29.6389 30.7318 26.9244 29.2654 24.2486C27.7983 21.5712 26.2118 19.0689 24.8375 17.2863C24.5329 16.8913 24.2542 16.5518 24.004 16.2657C23.7536 16.5514 23.4747 16.8902 23.1698 17.2846C21.7945 19.0642 20.2065 21.5626 18.7387 24.2368C17.2715 26.9097 15.9994 29.6215 15.21 31.8009C14.9387 32.5498 14.7433 33.1846 14.6149 33.6987C15.0206 33.8116 15.5253 33.9268 16.1325 34.0354C18.2568 34.4152 21.0887 34.6207 24.0111 34.6184C26.933 34.6161 29.7653 34.4063 31.8893 34.025ZM13.5579 33.3018C13.5599 33.3011 13.5825 33.3131 13.6198 33.3398C13.5745 33.3158 13.5559 33.3025 13.5579 33.3018ZM14.4285 34.8075C14.428 34.8079 14.4272 34.7974 14.4276 34.7748C14.4291 34.7958 14.4289 34.8071 14.4285 34.8075ZM33.5809 34.8252C33.5804 34.8248 33.5801 34.8128 33.5816 34.7905C33.5821 34.8145 33.5814 34.8257 33.5809 34.8252ZM3.98714 40.3392C1.3519 35.0478 18.6348 3.71514 24.0038 3.71514C29.3719 3.71514 46.627 35.1088 44.0205 40.3392C41.414 45.5695 6.62239 45.6306 3.98714 40.3392Z" fill="url(#paint0_linear)"/>
<path fill-rule="evenodd" clip-rule="evenodd" d="M37.1217 35.7477C38.8294 32.3183 27.5239 11.7507 24.0065 11.7507C20.489 11.7507 9.1635 32.2809 10.8913 35.7477C12.619 39.2146 35.4139 39.1763 37.1217 35.7477ZM34.4027 33.3295C34.4411 33.3021 34.4644 33.2898 34.4665 33.2905C34.4686 33.2912 34.4494 33.3049 34.4027 33.3295ZM31.8893 34.025C32.4861 33.9178 32.9841 33.8046 33.3865 33.6935C33.2572 33.1836 33.0629 32.5565 32.7952 31.8187C32.0041 29.6388 30.7318 26.9244 29.2655 24.2486C27.7983 21.5712 26.2118 19.0689 24.8375 17.2863C24.5329 16.8913 24.2542 16.5518 24.004 16.2657C23.7536 16.5513 23.4747 16.8902 23.1699 17.2846C21.7945 19.0642 20.2065 21.5626 18.7387 24.2368C17.2715 26.9097 15.9995 29.6214 15.21 31.8009C14.9388 32.5497 14.7433 33.1846 14.6149 33.6987C15.0206 33.8116 15.5253 33.9268 16.1325 34.0353C18.2568 34.4152 21.0888 34.6207 24.0111 34.6184C26.9331 34.6161 29.7653 34.4063 31.8893 34.025ZM13.5579 33.3018C13.5579 33.3018 13.5825 33.3131 13.6198 33.3397C13.5745 33.3158 13.5579 33.3018 13.5579 33.3018ZM14.4285 34.8075C14.4285 34.8075 14.4273 34.7974 14.4277 34.7748C14.4292 34.7958 14.4285 34.8075 14.4285 34.8075ZM33.5809 34.8252C33.5809 34.8252 33.5801 34.8128 33.5816 34.7905C33.5822 34.8145 33.5809 34.8252 33.5809 34.8252Z" fill="url(#paint1_linear)"/>
<defs>
<linearGradient id="paint0_linear" x1="10.1443" y1="19.7511" x2="47.7678" y2="40.6514" gradientUnits="userSpaceOnUse">
<stop stop-color="#A951EC"/>
<stop offset="1" stop-color="#D65FF2"/>
</linearGradient>
<linearGradient id="paint1_linear" x1="24.0046" y1="11.7507" x2="24.0046" y2="38.3335" gradientUnits="userSpaceOnUse">
<stop stop-color="#1E8CFF"/>
<stop offset="1" stop-color="#6566FF"/>
</linearGradient>
</defs>
</svg>
