<svg width="39" height="48" viewBox="0 0 39 48" fill="none" xmlns="http://www.w3.org/2000/svg">
<path fill-rule="evenodd" clip-rule="evenodd" d="M22.9102 33.2439V10.3101C22.8367 9.48276 22.1503 8.83168 21.3039 8.83168H19.2111C19.0479 8.83168 18.9158 8.69949 18.9158 8.53637V3.68933C18.9158 3.54529 19.0324 3.42857 19.1767 3.42857H34.4406C34.5849 3.42857 34.7014 3.54529 34.7014 3.68933V8.53636C34.7014 8.69949 34.5691 8.83168 34.4061 8.83168H32.3134C31.4296 8.83168 30.7129 9.53881 30.6941 10.4177V10.5046H30.6934V15.4847H30.6915L30.6745 34.111C30.491 36.951 29.2403 39.5616 27.1522 41.4627C24.948 43.4679 21.9616 44.5714 18.7432 44.5714C18.288 44.5714 17.8214 44.5493 17.357 44.5063C13.9871 44.1888 10.7202 42.729 8.15442 40.3947C5.52192 37.9989 3.8707 34.9085 3.50441 31.6918C3.09391 28.0803 4.36085 24.6422 6.97996 22.2598C9.9781 19.5305 14.227 18.5385 18.5576 19.4916C18.7614 19.5364 18.9068 19.7213 18.9068 19.9303V27.226C18.8995 27.322 18.8526 27.4673 18.6075 27.3319C18.5833 27.3185 18.5639 27.3133 18.5471 27.3126C18.4855 27.283 18.4238 27.2541 18.3617 27.226C18.3246 27.2092 18.2874 27.1927 18.2502 27.1765C17.5357 26.8655 16.7912 26.6595 16.0402 26.5842C16.0332 26.5835 16.0263 26.5823 16.0194 26.5812C16.0124 26.5801 16.0055 26.579 15.9985 26.5783C15.9882 26.5773 15.9784 26.5771 15.9686 26.5768C15.9596 26.5766 15.9507 26.5764 15.9416 26.5756C15.8083 26.5642 15.6773 26.5582 15.5474 26.5553C15.53 26.5549 15.5127 26.5546 15.4954 26.5543C15.4897 26.5543 15.484 26.5541 15.4782 26.5538C15.4688 26.5533 15.4593 26.5527 15.4498 26.5521C15.4327 26.5509 15.4156 26.5497 15.3988 26.5497C15.3893 26.5497 15.38 26.5503 15.3707 26.5508C15.3627 26.5512 15.3546 26.5517 15.3463 26.5518C15.3128 26.5521 15.2799 26.5536 15.247 26.5552C15.2273 26.5561 15.2077 26.5571 15.1879 26.5577C15.087 26.5615 14.9869 26.5654 14.8888 26.5741C14.8836 26.5745 14.8785 26.5752 14.8733 26.5758C14.8683 26.5765 14.8633 26.5771 14.8581 26.5776C13.9254 26.6654 13.108 26.9837 12.4809 27.5091C12.4665 27.5212 12.4516 27.5329 12.4367 27.5446C12.4157 27.5611 12.3947 27.5776 12.3748 27.5954C12.3731 27.5973 12.371 27.5989 12.3687 27.6007C11.4925 28.3979 11.0932 29.5706 11.2451 30.9032C11.4141 32.3929 12.2304 33.8709 13.5432 35.0654C14.8562 36.26 16.4806 37.0026 18.118 37.1565C19.4022 37.2794 20.5515 37.0132 21.4054 36.4084C21.5256 36.3236 21.6399 36.2323 21.7478 36.1341C21.8548 36.0368 21.9514 35.9329 22.0435 35.8263C22.0544 35.8136 22.0681 35.8017 22.0792 35.7889C22.381 35.4282 22.5992 35.0184 22.7372 34.5767C22.7535 34.525 22.7657 34.4719 22.778 34.4188C22.7834 34.3955 22.7888 34.3722 22.7945 34.349C22.7983 34.3332 22.8024 34.3173 22.8064 34.3015C22.8168 34.2604 22.8272 34.2193 22.8352 34.1774C22.8555 34.0756 22.8689 33.9716 22.8809 33.867C22.8815 33.8623 22.8821 33.8577 22.8827 33.853C22.8853 33.8318 22.888 33.8106 22.8896 33.7892C22.8999 33.6867 22.9067 33.5833 22.9097 33.4789C22.9099 33.4714 22.9101 33.4639 22.9102 33.4564C22.9117 33.3934 22.9117 33.33 22.9102 33.2662C22.9101 33.2588 22.9099 33.2514 22.9097 33.2439H22.9102ZM19.4817 16.1891V12.2603H19.2111C17.1535 12.2603 15.4872 10.5922 15.4872 8.53637V3.68933C15.4872 1.65171 17.1389 0 19.1767 0H34.4406C36.4787 0 38.13 1.65209 38.13 3.68933V8.53636C38.13 10.5939 36.4618 12.2603 34.4061 12.2603H34.1226V13.9332H34.122V18.9133H34.117L34.103 34.2232L34.096 34.3321C33.8557 38.0508 32.2111 41.4935 29.4605 43.9979L29.4594 43.9989C26.5706 46.6268 22.74 48 18.7432 48C18.1782 48 17.6061 47.9726 17.041 47.9203L17.0354 47.9197C12.9064 47.5307 8.94754 45.7514 5.84715 42.9307L5.84675 42.9304C2.66566 40.0354 0.567738 36.2062 0.0978527 32.0797L0.0977748 32.079C-0.433183 27.4078 1.21333 22.8711 4.67195 19.7244M19.4092 30.7691C18.8715 30.864 18.3734 30.8154 17.9624 30.7187L17.6933 30.7068L17.0596 30.4017C16.5683 30.1651 16.1069 30.0366 15.6982 29.9956L15.6949 29.9953C15.6857 29.9946 15.6759 29.9939 15.6661 29.9931L15.6575 29.9924L15.6488 29.9917C15.597 29.9872 15.5315 29.9839 15.4417 29.9825C15.4211 29.9822 15.4016 29.9817 15.3835 29.9812C15.3655 29.982 15.3396 29.9831 15.3097 29.9842C15.2623 29.9859 15.2343 29.987 15.2114 29.9882C15.2094 29.9883 15.2075 29.9884 15.2058 29.9885C15.1975 29.9893 15.1886 29.9902 15.1793 29.9911M15.8695 30.0039C15.8765 30.0042 15.8815 30.0043 15.8799 30.0042L15.8754 30.0041L15.8695 30.0039ZM19.4092 30.7691L19.4825 33.3416C19.4833 33.371 19.4823 33.4052 19.4782 33.4462L19.478 33.4485L19.4779 33.4491L19.4764 33.4615L19.475 33.4739C19.4735 33.4863 19.4723 33.4966 19.4712 33.5054C19.4692 33.5137 19.4669 33.5228 19.4645 33.5327C19.4602 33.55 19.4564 33.5661 19.453 33.5802C19.4514 33.5821 19.4497 33.5841 19.448 33.586C19.4424 33.5925 19.4376 33.598 19.4337 33.6025C19.4328 33.6034 19.432 33.6043 19.4313 33.6052C19.4303 33.6059 19.4293 33.6066 19.4281 33.6074L19.4259 33.609L19.4236 33.6106C19.3758 33.6445 19.0921 33.8055 18.4446 33.7435L18.4417 33.7433L18.4389 33.743C17.6013 33.6643 16.6603 33.2662 15.8505 32.5294C15.0331 31.7856 14.7104 31.0327 14.6519 30.5169L14.6516 30.5148C14.6268 30.2972 14.6569 30.1858 14.6672 30.1557C14.6682 30.1527 14.6691 30.1501 14.67 30.1478C14.6742 30.1444 14.6784 30.1408 14.6828 30.1372M14.6828 30.1372C14.6979 30.1246 14.828 30.0243 15.1782 29.9912L14.6828 30.1372ZM19.4812 33.4228L19.4806 33.4277C19.4813 33.4217 19.4817 33.4184 19.4812 33.4228ZM19.4659 33.5501L19.4646 33.5543L19.4659 33.5501ZM19.4817 16.1891C19.4201 16.1724 19.3577 16.157 19.2947 16.1432C14.0205 14.9824 8.5963 16.1526 4.67287 19.7235" fill="url(#paint0_linear)"/>
<defs>
<linearGradient id="paint0_linear" x1="19.065" y1="0" x2="19.065" y2="48" gradientUnits="userSpaceOnUse">
<stop stop-color="#1E8CFF"/>
<stop offset="1" stop-color="#6566FF"/>
</linearGradient>
</defs>
</svg>
