<svg width="58" height="48" viewBox="0 0 58 48" fill="none" xmlns="http://www.w3.org/2000/svg">
<path fill-rule="evenodd" clip-rule="evenodd" d="M13.0619 0.870759C13.401 0.238533 14.033 0 14.5533 0H40.3131C40.8334 0 41.4651 0.238438 41.8043 0.870344L47.8542 11.3479H55.2437C55.6985 11.3479 56.1465 11.513 56.4947 11.8608C56.843 12.2088 57.0087 12.657 57.0087 13.1124V34.9106C57.0087 35.2348 56.9101 35.5022 56.8271 35.6681L56.734 35.8541L56.7031 35.885C56.6796 35.9215 56.6592 35.9493 56.6455 35.9675C56.6024 36.0249 56.5628 36.0684 56.5404 36.0923C56.5184 36.1157 56.4977 36.1362 56.4947 36.1392C56.3639 36.2699 55.9562 36.6521 55.3128 36.6521H47.9003L41.8504 47.1297C41.5112 47.7616 40.8794 48 40.3592 48H14.5763C14.056 48 13.4241 47.7615 13.0849 47.1293L6.6388 35.9504L6.61602 35.9277L0.909582 26.0448L0.251439 24.9051C0.251166 24.9047 0.250893 24.9043 0.25062 24.9039C0.219888 24.8578 0.136361 24.7304 0.0796637 24.5415C0.0309144 24.3937 0.0160379 24.2703 0.00981652 24.2082C0.000252109 24.1126 0.0004932 24.027 0.000558665 24.0037L0.000566504 24C0.000566504 23.9977 0.000498087 23.9944 0.000408798 23.99C-0.00114943 23.9133 -0.00906724 23.5236 0.229583 23.1327L6.29587 12.6191L6.5262 12.2049L13.0619 0.870759ZM1.37373 24.1611L1.32774 24.2072C1.34334 24.1916 1.35866 24.1762 1.37373 24.1611ZM15.0442 2.56218L8.75575 13.4675L8.52526 13.882L2.68736 23.9998L3.12836 24.7634L8.66593 34.3539L8.68924 34.3772L15.0672 45.4378H39.8686L45.9186 34.9601C46.2578 34.3283 46.8896 34.0899 47.4098 34.0899H54.4465V13.9101H47.3637C47.0914 13.9101 46.7976 13.8492 46.5183 13.6898C46.2457 13.5342 46.0576 13.325 45.9294 13.133L45.9064 13.0984L39.8226 2.56218H15.0442ZM2.56278 24.0086C2.56282 24.0105 2.56283 24.0116 2.56283 24.0117L2.56278 24.0086ZM19.4313 10.1352L11.4113 23.9996L13.2448 27.1599L13.8208 28.1726L13.8236 28.1774L17.5738 34.705L17.5765 34.7098L19.4071 37.8648H22.317L23.7735 35.3608L17.5348 24.5503V24.4121C17.5292 24.3896 17.524 24.3668 17.5194 24.3436C17.4862 24.1776 17.4883 24.0258 17.4887 24.0027C17.4887 24.0014 17.4887 24.0005 17.4887 24C17.4887 23.6758 17.5872 23.4084 17.6703 23.2425L17.6875 23.2081L23.7953 12.6405L22.3479 10.1352H19.4313ZM17.4872 8.37861C17.7784 7.89386 18.3017 7.57297 18.908 7.57297H22.848C23.1718 7.57297 23.4389 7.67113 23.6048 7.75403C23.7685 7.83579 23.886 7.93324 23.9446 7.98447C24.0013 8.03404 24.0518 8.08463 24.072 8.10483L24.076 8.10884L24.2185 8.25116L26.3036 11.8602L26.3208 11.8945C26.3801 12.013 26.5024 12.2924 26.5024 12.629C26.5024 12.9533 26.4039 13.2206 26.3208 13.3866L26.3036 13.421L20.1823 24.0119L26.2807 34.5794L26.2978 34.6134C26.3571 34.732 26.4793 35.0114 26.4793 35.3479C26.4793 35.6827 26.3872 35.9833 26.2227 36.246L24.2657 39.6105C24.1041 39.9034 23.8403 40.1464 23.5054 40.2818C23.3391 40.3547 23.1029 40.427 22.825 40.427H18.885C18.2787 40.427 17.7553 40.1062 17.4642 39.6214L17.4592 39.6131L15.3576 35.9909L15.3549 35.9861L11.5992 29.449L11.5964 29.4441L11.0259 28.4409L8.90931 24.7929L8.89163 24.7575C8.80855 24.5915 8.71007 24.3242 8.71007 24C8.71007 23.6758 8.80855 23.4085 8.89163 23.2425L8.9091 23.2076L17.4816 8.38803L17.4872 8.37861ZM32.5513 10.1812H35.4581L43.456 24.0459L37.2685 34.753L35.4581 37.8879H32.5513L31.1167 35.4047L37.1438 24.9389C37.2872 24.7308 37.3477 24.5221 37.3743 24.3761C37.4046 24.2098 37.4008 24.0548 37.4008 24.046C37.4008 23.7218 37.3023 23.4545 37.2192 23.2885L37.2022 23.2545L31.1037 12.6868L32.5513 10.1812ZM31.3611 7.76424C31.5274 7.69132 31.7635 7.61901 32.0414 7.61901H35.9814C36.5878 7.61901 37.1111 7.93991 37.4022 8.42465L37.4079 8.43406L45.8987 23.1522C46.0425 23.3606 46.1033 23.5697 46.1299 23.716C46.1585 23.8732 46.1567 24.0203 46.1564 24.0433L46.1563 24.046C46.1563 24.3702 46.0579 24.6376 45.9748 24.8036L45.9576 24.8379L39.4871 36.0347L37.4079 39.635L37.4022 39.6444C37.1111 40.1291 36.5878 40.4501 35.9814 40.4501H32.0414C31.7176 40.4501 31.4505 40.3519 31.2846 40.269C31.1209 40.1872 31.0034 40.0898 30.9448 40.0385C30.8838 39.9852 30.83 39.9307 30.8134 39.9141L30.694 39.7949L28.5631 36.1067L28.5223 35.9843C28.5222 35.984 28.5218 35.983 28.5212 35.981L28.5137 35.9603C28.5076 35.9432 28.493 35.9024 28.4787 35.8545C28.4444 35.7405 28.4101 35.5847 28.4101 35.394C28.4101 35.0574 28.5323 34.778 28.5917 34.6595L28.6084 34.626L34.701 24.0465L28.6392 13.5424C28.4005 13.1514 28.4084 12.7618 28.41 12.6851C28.4101 12.6807 28.4101 12.6774 28.4101 12.6751C28.4101 12.4844 28.4444 12.3286 28.4787 12.2146C28.493 12.1666 28.5077 12.1258 28.5138 12.1087L28.5212 12.088C28.5218 12.0861 28.5222 12.0851 28.5223 12.0848L28.5631 11.9624L30.5994 8.43794C30.7609 8.14397 31.0252 7.89995 31.3611 7.76424Z" fill="url(#paint0_linear)"/>
<defs>
<linearGradient id="paint0_linear" x1="46.7174" y1="-1.83833e-06" x2="21.6075" y2="52.2054" gradientUnits="userSpaceOnUse">
<stop stop-color="#00E5FD"/>
<stop offset="1" stop-color="#00A5FF"/>
</linearGradient>
</defs>
</svg>
