<svg width="202" height="202" viewBox="0 0 202 202" fill="none" xmlns="http://www.w3.org/2000/svg">
<path fill-rule="evenodd" clip-rule="evenodd" d="M0 15C0 6.71572 6.71573 0 15 0H187C195.284 0 202 6.71573 202 15V187C202 195.284 195.284 202 187 202H15C6.71572 202 0 195.284 0 187V15ZM15 10C12.2386 10 10 12.2386 10 15V187C10 189.761 12.2386 192 15 192H187C189.761 192 192 189.761 192 187V15C192 12.2386 189.761 10 187 10H15ZM29.3418 68.8954C31.8372 67.713 34.8187 68.7773 36.0012 71.2728L51.2035 103.356C52.1173 105.284 51.938 107.553 50.7327 109.314L35.6089 131.41C34.0492 133.689 30.9375 134.272 28.6587 132.712C26.3799 131.153 25.797 128.041 27.3567 125.762L41.1829 105.562L26.9644 75.5548C25.7819 73.0594 26.8463 70.0779 29.3418 68.8954ZM87.4505 87.9173V72.3173H75.2905V127.517H87.4505V108.477C87.4505 107.624 87.3971 106.744 87.2905 105.837C87.1838 104.931 87.0238 103.997 86.8105 103.037H91.8505L106.41 127.517H120.01L105.13 103.597C104.597 102.691 103.904 101.811 103.05 100.957C102.197 100.104 101.397 99.4373 100.65 98.9573V98.7173C101.344 98.2373 102.037 97.6773 102.73 97.0373C103.424 96.344 104.064 95.5173 104.65 94.5573L119.05 72.3173H105.85L91.7705 94.5573H86.8105C87.2371 92.424 87.4505 90.2107 87.4505 87.9173ZM137.994 113.597V72.3173H125.834V116.237C125.834 119.597 126.847 122.344 128.874 124.477C130.9 126.611 133.94 127.677 137.994 127.677C141.994 127.677 146.047 127.651 150.154 127.597C154.314 127.544 158.314 127.304 162.154 126.877L161.594 117.677H142.314C139.434 117.677 137.994 116.317 137.994 113.597Z" fill="url(#paint0_linear)"/>
<defs>
<linearGradient id="paint0_linear" x1="46.1087" y1="141.351" x2="189.357" y2="128.075" gradientUnits="userSpaceOnUse">
<stop stop-color="#3BC791"/>
<stop offset="0.0001" stop-color="#3BC791"/>
<stop offset="1" stop-color="#21C879"/>
</linearGradient>
</defs>
</svg>
