<svg width="202" height="202" viewBox="0 0 202 202" fill="none" xmlns="http://www.w3.org/2000/svg">
<path fill-rule="evenodd" clip-rule="evenodd" d="M0 15C0 6.71572 6.71573 0 15 0H187C195.284 0 202 6.71573 202 15V187C202 195.284 195.284 202 187 202H15C6.71572 202 0 195.284 0 187V15ZM15 10C12.2386 10 10 12.2386 10 15V187C10 189.761 12.2386 192 15 192H187C189.761 192 192 189.761 192 187V15C192 12.2386 189.761 10 187 10H15ZM29.3418 68.8954C31.8372 67.713 34.8187 68.7773 36.0012 71.2728L51.2035 103.356C52.1173 105.284 51.938 107.553 50.7327 109.314L35.6089 131.41C34.0492 133.689 30.9375 134.272 28.6587 132.712C26.3799 131.153 25.797 128.041 27.3567 125.762L41.1829 105.562L26.9644 75.5548C25.7819 73.0594 26.8463 70.0779 29.3418 68.8954ZM81.552 87.9173V72.3173H69.392V127.517H81.552V108.477C81.552 107.624 81.4987 106.744 81.392 105.837C81.2854 104.931 81.1254 103.997 80.912 103.037H85.952L100.512 127.517H114.112L99.232 103.597C98.6987 102.691 98.0054 101.811 97.152 100.957C96.2987 100.104 95.4987 99.4373 94.752 98.9573V98.7173C95.4454 98.2373 96.1387 97.6773 96.832 97.0373C97.5254 96.344 98.1654 95.5173 98.752 94.5573L113.152 72.3173H99.952L85.872 94.5573H80.912C81.3387 92.424 81.552 90.2107 81.552 87.9173ZM155.535 74.0773C152.122 72.3707 147.508 71.5173 141.695 71.5173C137.428 71.5173 133.562 71.5973 130.095 71.7573C126.628 71.9173 123.295 72.104 120.095 72.3173V127.517C123.242 127.731 126.575 127.891 130.095 127.997C133.615 128.157 137.482 128.237 141.695 128.237C147.508 128.237 152.122 127.411 155.535 125.757C159.002 124.051 161.508 121.144 163.055 117.037C164.602 112.931 165.375 107.224 165.375 99.9173C165.375 92.6107 164.602 86.904 163.055 82.7973C161.508 78.6907 159.002 75.784 155.535 74.0773ZM136.655 80.8773H141.695C144.468 80.8773 146.628 81.4373 148.175 82.5573C149.722 83.6773 150.815 85.624 151.455 88.3973C152.148 91.1707 152.495 95.0107 152.495 99.9173C152.495 104.824 152.148 108.664 151.455 111.437C150.815 114.211 149.722 116.157 148.175 117.277C146.628 118.344 144.468 118.877 141.695 118.877C138.282 118.877 135.135 118.851 132.255 118.797V80.9573C133.642 80.904 135.108 80.8773 136.655 80.8773Z" fill="url(#paint0_linear)"/>
<defs>
<linearGradient id="paint0_linear" x1="43.2659" y1="83.2963" x2="200.026" y2="170.374" gradientUnits="userSpaceOnUse">
<stop stop-color="#A951EC"/>
<stop offset="1" stop-color="#D65FF2"/>
</linearGradient>
</defs>
</svg>
