<svg width="41" height="48" viewBox="0 0 41 48" fill="none" xmlns="http://www.w3.org/2000/svg">
<path d="M4.4325 2.25059C4.22574 1.23542 4.88109 0.244858 5.89627 0.0381036C6.91144 -0.168651 7.902 0.4867 8.10876 1.50187L14.575 33.2514C14.7818 34.2666 14.1264 35.2571 13.1113 35.4639C12.0961 35.6706 11.1055 35.0153 10.8988 34.0001L4.4325 2.25059Z" fill="url(#paint0_linear)"/>
<path d="M1.50187 5.80605C0.4867 6.0128 -0.168651 7.00337 0.0381037 8.01854L5.55144 35.0892C5.7582 36.1044 6.74876 36.7597 7.76394 36.553C8.77911 36.3462 9.43446 35.3556 9.2277 34.3405L3.71436 7.26982C3.50761 6.25464 2.51704 5.59929 1.50187 5.80605Z" fill="url(#paint1_linear)"/>
<path d="M23.2641 36.7747C23.1464 36.202 23.5153 35.6422 24.088 35.5245L37.8576 32.6943C38.4304 32.5766 38.9901 32.9454 39.1078 33.5182L39.4369 35.119C39.5546 35.6917 39.1857 36.2515 38.6129 36.3692L24.8434 39.1994C24.2706 39.3171 23.7109 38.9483 23.5931 38.3755L23.2641 36.7747Z" fill="url(#paint2_linear)"/>
<path d="M18.4086 36.6918C17.8358 36.8096 17.467 37.3693 17.5847 37.9421L17.9137 39.5428C18.0314 40.1156 18.5912 40.4845 19.1639 40.3668L20.7647 40.0377C21.3375 39.92 21.7063 39.3603 21.5886 38.7875L21.2596 37.1867C21.1419 36.614 20.5821 36.2451 20.0094 36.3628L18.4086 36.6918Z" fill="url(#paint3_linear)"/>
<path d="M12.067 39.0762C11.9493 38.5035 12.3182 37.9437 12.8909 37.826L14.4917 37.497C15.0645 37.3792 15.6242 37.7481 15.7419 38.3209L16.071 39.9216C16.1887 40.4944 15.8198 41.0541 15.2471 41.1719L13.6463 41.5009C13.0735 41.6186 12.5138 41.2497 12.3961 40.677L12.067 39.0762Z" fill="url(#paint4_linear)"/>
<path d="M7.38391 38.9579C6.81115 39.0756 6.44228 39.6354 6.56 40.2081L6.88903 41.8089C7.00675 42.3816 7.5665 42.7505 8.13926 42.6328L9.83743 42.2837C10.4102 42.166 10.7791 41.6063 10.6613 41.0335L10.3323 39.4328C10.2146 38.86 9.65484 38.4911 9.08209 38.6088L7.38391 38.9579Z" fill="url(#paint5_linear)"/>
<path d="M24.3629 42.1201C24.2451 41.5473 24.614 40.9876 25.1868 40.8698L38.9564 38.0396C39.5291 37.9219 40.0889 38.2908 40.2066 38.8635L40.5356 40.4643C40.6533 41.037 40.2845 41.5968 39.7117 41.7145L25.9421 44.5447C25.3694 44.6625 24.8096 44.2936 24.6919 43.7208L24.3629 42.1201Z" fill="url(#paint6_linear)"/>
<path d="M19.5074 42.0372C18.9347 42.1549 18.5658 42.7146 18.6835 43.2874L19.0125 44.8882C19.1303 45.4609 19.69 45.8298 20.2628 45.7121L21.8635 45.383C22.4363 45.2653 22.8052 44.7056 22.6874 44.1328L22.3584 42.5321C22.2407 41.9593 21.6809 41.5904 21.1082 41.7081L19.5074 42.0372Z" fill="url(#paint7_linear)"/>
<path d="M13.1656 44.4215C13.0479 43.8488 13.4168 43.289 13.9896 43.1713L15.5903 42.8423C16.1631 42.7246 16.7228 43.0934 16.8405 43.6662L17.1696 45.267C17.2873 45.8397 16.9184 46.3995 16.3457 46.5172L14.7449 46.8462C14.1721 46.9639 13.6124 46.5951 13.4947 46.0223L13.1656 44.4215Z" fill="url(#paint8_linear)"/>
<path d="M7.65881 45.5534C7.54109 44.9807 7.90996 44.4209 8.48272 44.3032L10.1809 43.9542C10.7537 43.8364 11.3134 44.2053 11.4311 44.7781L11.7602 46.3788C11.8779 46.9516 11.509 47.5113 10.9362 47.6291L9.23807 47.9781C8.66531 48.0958 8.10556 47.727 7.98784 47.1542L7.65881 45.5534Z" fill="url(#paint9_linear)"/>
<path d="M13.1432 6.56772C12.1281 6.77447 11.4727 7.76504 11.6795 8.78021L16.6483 33.1772C16.855 34.1924 17.8456 34.8477 18.8608 34.641C19.876 34.4342 20.5313 33.4437 20.3245 32.4285L15.3557 8.03149C15.149 7.01632 14.1584 6.36096 13.1432 6.56772Z" fill="url(#paint10_linear)"/>
<defs>
<linearGradient id="paint0_linear" x1="20.2788" y1="2.78507" x2="20.2788" y2="45.3138" gradientUnits="userSpaceOnUse">
<stop stop-color="#FF4B8A"/>
<stop offset="1" stop-color="#FF7B3C"/>
</linearGradient>
<linearGradient id="paint1_linear" x1="20.2788" y1="2.78507" x2="20.2788" y2="45.3138" gradientUnits="userSpaceOnUse">
<stop stop-color="#FF4B8A"/>
<stop offset="1" stop-color="#FF7B3C"/>
</linearGradient>
<linearGradient id="paint2_linear" x1="20.2788" y1="2.78507" x2="20.2788" y2="45.3138" gradientUnits="userSpaceOnUse">
<stop stop-color="#FF4B8A"/>
<stop offset="1" stop-color="#FF7B3C"/>
</linearGradient>
<linearGradient id="paint3_linear" x1="20.2788" y1="2.78507" x2="20.2788" y2="45.3138" gradientUnits="userSpaceOnUse">
<stop stop-color="#FF4B8A"/>
<stop offset="1" stop-color="#FF7B3C"/>
</linearGradient>
<linearGradient id="paint4_linear" x1="20.2788" y1="2.78507" x2="20.2788" y2="45.3138" gradientUnits="userSpaceOnUse">
<stop stop-color="#FF4B8A"/>
<stop offset="1" stop-color="#FF7B3C"/>
</linearGradient>
<linearGradient id="paint5_linear" x1="20.2788" y1="2.78507" x2="20.2788" y2="45.3138" gradientUnits="userSpaceOnUse">
<stop stop-color="#FF4B8A"/>
<stop offset="1" stop-color="#FF7B3C"/>
</linearGradient>
<linearGradient id="paint6_linear" x1="20.2788" y1="2.78507" x2="20.2788" y2="45.3138" gradientUnits="userSpaceOnUse">
<stop stop-color="#FF4B8A"/>
<stop offset="1" stop-color="#FF7B3C"/>
</linearGradient>
<linearGradient id="paint7_linear" x1="20.2788" y1="2.78507" x2="20.2788" y2="45.3138" gradientUnits="userSpaceOnUse">
<stop stop-color="#FF4B8A"/>
<stop offset="1" stop-color="#FF7B3C"/>
</linearGradient>
<linearGradient id="paint8_linear" x1="20.2788" y1="2.78507" x2="20.2788" y2="45.3138" gradientUnits="userSpaceOnUse">
<stop stop-color="#FF4B8A"/>
<stop offset="1" stop-color="#FF7B3C"/>
</linearGradient>
<linearGradient id="paint9_linear" x1="20.2788" y1="2.78507" x2="20.2788" y2="45.3138" gradientUnits="userSpaceOnUse">
<stop stop-color="#FF4B8A"/>
<stop offset="1" stop-color="#FF7B3C"/>
</linearGradient>
<linearGradient id="paint10_linear" x1="20.2788" y1="2.78507" x2="20.2788" y2="45.3138" gradientUnits="userSpaceOnUse">
<stop stop-color="#FF4B8A"/>
<stop offset="1" stop-color="#FF7B3C"/>
</linearGradient>
</defs>
</svg>
