<svg width="204" height="204" viewBox="0 0 204 204" fill="none" xmlns="http://www.w3.org/2000/svg">
<mask id="path-1-outside-1" maskUnits="userSpaceOnUse" x="0" y="0" width="204" height="204" fill="black">
<rect fill="white" width="204" height="204"/>
<path fill-rule="evenodd" clip-rule="evenodd" d="M1 16C1 7.71572 7.71573 1 16 1H188C196.284 1 203 7.71573 203 16V188C203 196.284 196.284 203 188 203H16C7.71572 203 1 196.284 1 188V16ZM16 11C13.2386 11 11 13.2386 11 16V188C11 190.761 13.2386 193 16 193H188C190.761 193 193 190.761 193 188V16C193 13.2386 190.761 11 188 11H16ZM30.3417 69.8954C32.8372 68.713 35.8187 69.7773 37.0012 72.2728L52.2035 104.356C53.1173 106.284 52.938 108.553 51.7327 110.314L36.6088 132.41C35.0491 134.689 31.9375 135.272 29.6587 133.712C27.3799 132.153 26.797 129.041 28.3567 126.762L42.1829 106.562L27.9644 76.5548C26.7819 74.0594 27.8463 71.0779 30.3417 69.8954ZM124.771 79.28C124.664 76.2933 123.171 74.8 120.291 74.8H108.691C105.971 74.8 104.344 76.08 103.811 78.64L96.7709 106.4C96.4509 107.733 96.1843 109.067 95.9709 110.4C95.7576 111.68 95.5176 112.987 95.2509 114.32H94.2109C93.9443 112.987 93.7043 111.68 93.4909 110.4C93.2776 109.067 93.0109 107.76 92.6909 106.48L85.5709 78.64C84.9843 76.08 83.3843 74.8 80.7709 74.8H69.3309C66.3976 74.8 64.8776 76.2933 64.7709 79.28L62.7709 130H74.0509L75.7309 84.16H77.0909L86.0509 118.64C86.5843 121.2 88.2109 122.48 90.9309 122.48H98.6109C101.278 122.48 102.878 121.2 103.411 118.64L112.291 84.16H113.731L115.571 130H126.851L124.771 79.28ZM170.136 75.6C167.203 74.5333 163.176 74 158.056 74C154.749 74 151.923 74.0267 149.576 74.08C147.283 74.1333 145.149 74.2133 143.176 74.32C141.203 74.4267 139.123 74.5867 136.936 74.8V130H149.096V109.44C150.749 109.6 152.456 109.733 154.216 109.84C156.029 109.947 157.843 110.027 159.656 110.08C164.243 110.027 167.896 109.493 170.616 108.48C173.389 107.467 175.363 105.653 176.536 103.04C177.763 100.427 178.376 96.7733 178.376 92.08C178.376 87.3867 177.736 83.7333 176.456 81.12C175.229 78.5067 173.123 76.6667 170.136 75.6ZM153.176 83.2H157.816C161.016 83.2 163.203 83.8133 164.376 85.04C165.549 86.2133 166.136 88.56 166.136 92.08C166.136 95.6 165.549 97.9467 164.376 99.12C163.203 100.293 161.016 100.88 157.816 100.88H149.096V83.2H153.176Z"/>
</mask>
<path fill-rule="evenodd" clip-rule="evenodd" d="M1 16C1 7.71572 7.71573 1 16 1H188C196.284 1 203 7.71573 203 16V188C203 196.284 196.284 203 188 203H16C7.71572 203 1 196.284 1 188V16ZM16 11C13.2386 11 11 13.2386 11 16V188C11 190.761 13.2386 193 16 193H188C190.761 193 193 190.761 193 188V16C193 13.2386 190.761 11 188 11H16ZM30.3417 69.8954C32.8372 68.713 35.8187 69.7773 37.0012 72.2728L52.2035 104.356C53.1173 106.284 52.938 108.553 51.7327 110.314L36.6088 132.41C35.0491 134.689 31.9375 135.272 29.6587 133.712C27.3799 132.153 26.797 129.041 28.3567 126.762L42.1829 106.562L27.9644 76.5548C26.7819 74.0594 27.8463 71.0779 30.3417 69.8954ZM124.771 79.28C124.664 76.2933 123.171 74.8 120.291 74.8H108.691C105.971 74.8 104.344 76.08 103.811 78.64L96.7709 106.4C96.4509 107.733 96.1843 109.067 95.9709 110.4C95.7576 111.68 95.5176 112.987 95.2509 114.32H94.2109C93.9443 112.987 93.7043 111.68 93.4909 110.4C93.2776 109.067 93.0109 107.76 92.6909 106.48L85.5709 78.64C84.9843 76.08 83.3843 74.8 80.7709 74.8H69.3309C66.3976 74.8 64.8776 76.2933 64.7709 79.28L62.7709 130H74.0509L75.7309 84.16H77.0909L86.0509 118.64C86.5843 121.2 88.2109 122.48 90.9309 122.48H98.6109C101.278 122.48 102.878 121.2 103.411 118.64L112.291 84.16H113.731L115.571 130H126.851L124.771 79.28ZM170.136 75.6C167.203 74.5333 163.176 74 158.056 74C154.749 74 151.923 74.0267 149.576 74.08C147.283 74.1333 145.149 74.2133 143.176 74.32C141.203 74.4267 139.123 74.5867 136.936 74.8V130H149.096V109.44C150.749 109.6 152.456 109.733 154.216 109.84C156.029 109.947 157.843 110.027 159.656 110.08C164.243 110.027 167.896 109.493 170.616 108.48C173.389 107.467 175.363 105.653 176.536 103.04C177.763 100.427 178.376 96.7733 178.376 92.08C178.376 87.3867 177.736 83.7333 176.456 81.12C175.229 78.5067 173.123 76.6667 170.136 75.6ZM153.176 83.2H157.816C161.016 83.2 163.203 83.8133 164.376 85.04C165.549 86.2133 166.136 88.56 166.136 92.08C166.136 95.6 165.549 97.9467 164.376 99.12C163.203 100.293 161.016 100.88 157.816 100.88H149.096V83.2H153.176Z" fill="url(#paint0_linear)"/>
<path d="M37.0012 72.2728L37.9048 71.8446L37.0012 72.2728ZM30.3417 69.8954L30.7699 70.7991L30.7699 70.7991L30.3417 69.8954ZM52.2035 104.356L51.2998 104.784L51.2998 104.784L52.2035 104.356ZM51.7327 110.314L50.9075 109.749L50.9075 109.749L51.7327 110.314ZM36.6088 132.41L35.7836 131.845L35.7836 131.845L36.6088 132.41ZM29.6587 133.712L29.0939 134.538L29.0939 134.538L29.6587 133.712ZM28.3567 126.762L29.1819 127.327L29.1819 127.327L28.3567 126.762ZM42.1829 106.562L43.0081 107.126L43.3325 106.652L43.0866 106.133L42.1829 106.562ZM27.9644 76.5548L27.0607 76.9831L27.0607 76.9831L27.9644 76.5548ZM124.771 79.28L123.772 79.3157L123.772 79.321L124.771 79.28ZM103.811 78.64L104.78 78.8858L104.786 78.865L104.79 78.844L103.811 78.64ZM96.7709 106.4L95.8015 106.154L95.7986 106.167L96.7709 106.4ZM95.9709 110.4L96.9574 110.564L96.9584 110.558L95.9709 110.4ZM95.2509 114.32V115.32H96.0707L96.2315 114.516L95.2509 114.32ZM94.2109 114.32L93.2304 114.516L93.3911 115.32H94.2109V114.32ZM93.4909 110.4L92.5035 110.558L92.5045 110.564L93.4909 110.4ZM92.6909 106.48L93.6611 106.237L93.6598 106.232L92.6909 106.48ZM85.5709 78.64L84.5962 78.8634L84.599 78.8756L84.6021 78.8878L85.5709 78.64ZM64.7709 79.28L65.7702 79.3194L65.7703 79.3157L64.7709 79.28ZM62.7709 130L61.7717 129.961L61.7307 131H62.7709V130ZM74.0509 130V131H75.015L75.0503 130.037L74.0509 130ZM75.7309 84.16V83.16H74.7669L74.7316 84.1234L75.7309 84.16ZM77.0909 84.16L78.0588 83.9085L77.8643 83.16H77.0909V84.16ZM86.0509 118.64L87.0299 118.436L87.0249 118.412L87.0188 118.388L86.0509 118.64ZM103.411 118.64L102.443 118.391L102.437 118.413L102.432 118.436L103.411 118.64ZM112.291 84.16V83.16H111.516L111.323 83.9106L112.291 84.16ZM113.731 84.16L114.73 84.1199L114.692 83.16H113.731V84.16ZM115.571 130L114.572 130.04L114.61 131H115.571V130ZM126.851 130V131H127.893L127.85 129.959L126.851 130ZM170.136 75.6L169.794 76.5398L169.8 76.5417L170.136 75.6ZM149.576 74.08L149.553 73.0803L149.553 73.0803L149.576 74.08ZM143.176 74.32L143.122 73.3215L143.122 73.3215L143.176 74.32ZM136.936 74.8L136.839 73.8047L135.936 73.8928V74.8H136.936ZM136.936 130H135.936V131H136.936V130ZM149.096 130V131H150.096V130H149.096ZM149.096 109.44L149.192 108.445L148.096 108.339V109.44H149.096ZM154.216 109.84L154.155 110.838L154.157 110.838L154.216 109.84ZM159.656 110.08L159.627 111.08L159.647 111.08L159.668 111.08L159.656 110.08ZM170.616 108.48L170.273 107.541L170.267 107.543L170.616 108.48ZM176.536 103.04L175.631 102.615L175.627 102.623L175.624 102.63L176.536 103.04ZM176.456 81.12L175.551 81.5449L175.554 81.5524L175.558 81.5599L176.456 81.12ZM164.376 85.04L163.653 85.7312L163.661 85.7392L163.669 85.7471L164.376 85.04ZM164.376 99.12L165.083 99.8271L165.083 99.8271L164.376 99.12ZM149.096 100.88H148.096V101.88H149.096V100.88ZM149.096 83.2V82.2H148.096V83.2H149.096ZM16 0C7.16345 0 0 7.16344 0 16H2C2 8.26801 8.26802 2 16 2V0ZM188 0H16V2H188V0ZM204 16C204 7.16345 196.837 0 188 0V2C195.732 2 202 8.26802 202 16H204ZM204 188V16H202V188H204ZM188 204C196.837 204 204 196.837 204 188H202C202 195.732 195.732 202 188 202V204ZM16 204H188V202H16V204ZM0 188C0 196.837 7.16344 204 16 204V202C8.26801 202 2 195.732 2 188H0ZM0 16V188H2V16H0ZM12 16C12 13.7909 13.7909 12 16 12V10C12.6863 10 10 12.6863 10 16H12ZM12 188V16H10V188H12ZM16 192C13.7909 192 12 190.209 12 188H10C10 191.314 12.6863 194 16 194V192ZM188 192H16V194H188V192ZM192 188C192 190.209 190.209 192 188 192V194C191.314 194 194 191.314 194 188H192ZM192 16V188H194V16H192ZM188 12C190.209 12 192 13.7909 192 16H194C194 12.6863 191.314 10 188 10V12ZM16 12H188V10H16V12ZM37.9048 71.8446C36.4859 68.85 32.9081 67.5728 29.9135 68.9917L30.7699 70.7991C32.7663 69.8531 35.1515 70.7046 36.0975 72.701L37.9048 71.8446ZM53.1072 103.927L37.9048 71.8446L36.0975 72.701L51.2998 104.784L53.1072 103.927ZM52.5579 110.879C53.9641 108.824 54.1733 106.177 53.1072 103.927L51.2998 104.784C52.0613 106.391 51.9119 108.281 50.9075 109.749L52.5579 110.879ZM37.4341 132.975L52.5579 110.879L50.9075 109.749L35.7836 131.845L37.4341 132.975ZM29.0939 134.538C31.8284 136.409 35.5624 135.71 37.4341 132.975L35.7836 131.845C34.5359 133.669 32.0465 134.135 30.2235 132.887L29.0939 134.538ZM27.5315 126.197C25.6598 128.932 26.3593 132.666 29.0939 134.538L30.2235 132.887C28.4005 131.639 27.9341 129.15 29.1819 127.327L27.5315 126.197ZM41.3577 105.997L27.5315 126.197L29.1819 127.327L43.0081 107.126L41.3577 105.997ZM27.0607 76.9831L41.2792 106.99L43.0866 106.133L28.868 76.1266L27.0607 76.9831ZM29.9135 68.9917C26.919 70.4107 25.6417 73.9885 27.0607 76.9831L28.868 76.1266C27.9221 74.1303 28.7736 71.7451 30.7699 70.7991L29.9135 68.9917ZM120.291 75.8C121.565 75.8 122.365 76.1279 122.864 76.6271C123.369 77.1325 123.724 77.9701 123.772 79.3157L125.77 79.2443C125.712 77.6032 125.266 76.2009 124.278 75.2129C123.284 74.2188 121.897 73.8 120.291 73.8V75.8ZM108.691 75.8H120.291V73.8H108.691V75.8ZM104.79 78.844C105.022 77.7321 105.465 77.0054 106.049 76.5459C106.638 76.0828 107.485 75.8 108.691 75.8V73.8C107.177 73.8 105.851 74.1572 104.813 74.9741C103.77 75.7946 103.134 76.9879 102.832 78.436L104.79 78.844ZM97.7403 106.646L104.78 78.8858L102.842 78.3942L95.8016 106.154L97.7403 106.646ZM96.9584 110.558C97.1676 109.25 97.4292 107.942 97.7433 106.633L95.7986 106.167C95.4727 107.524 95.2009 108.883 94.9835 110.242L96.9584 110.558ZM96.2315 114.516C96.5002 113.173 96.7422 111.855 96.9573 110.564L94.9845 110.236C94.7731 111.505 94.535 112.801 94.2704 114.124L96.2315 114.516ZM94.2109 115.32H95.2509V113.32H94.2109V115.32ZM92.5045 110.564C92.7197 111.855 92.9617 113.173 93.2304 114.516L95.1915 114.124C94.9269 112.801 94.6888 111.505 94.4773 110.236L92.5045 110.564ZM91.7208 106.723C92.0337 107.974 92.2946 109.252 92.5035 110.558L94.4784 110.242C94.2606 108.881 93.9882 107.546 93.6611 106.237L91.7208 106.723ZM84.6021 78.8878L91.7221 106.728L93.6598 106.232L86.5398 78.3922L84.6021 78.8878ZM80.7709 75.8C81.9141 75.8 82.7275 76.0779 83.3062 76.5409C83.8855 77.0043 84.3389 77.7405 84.5962 78.8634L86.5457 78.4166C86.2163 76.9795 85.5764 75.7957 84.5556 74.9791C83.5343 74.1621 82.2411 73.8 80.7709 73.8V75.8ZM69.3309 75.8H80.7709V73.8H69.3309V75.8ZM65.7703 79.3157C65.8182 77.9745 66.1768 77.1392 66.6918 76.6333C67.2036 76.1305 68.0259 75.8 69.3309 75.8V73.8C67.7027 73.8 66.2983 74.2161 65.2901 75.2067C64.285 76.1941 63.8303 77.5988 63.7716 79.2443L65.7703 79.3157ZM63.7702 130.039L65.7702 79.3194L63.7717 79.2406L61.7717 129.961L63.7702 130.039ZM74.0509 129H62.7709V131H74.0509V129ZM74.7316 84.1234L73.0516 129.963L75.0503 130.037L76.7303 84.1966L74.7316 84.1234ZM77.0909 83.16H75.7309V85.16H77.0909V83.16ZM87.0188 118.388L78.0588 83.9085L76.1231 84.4115L85.0831 118.892L87.0188 118.388ZM90.9309 121.48C89.7245 121.48 88.8779 121.197 88.2893 120.734C87.7054 120.275 87.2616 119.548 87.0299 118.436L85.072 118.844C85.3736 120.292 86.0098 121.485 87.0525 122.306C88.0907 123.123 89.4174 123.48 90.9309 123.48V121.48ZM98.6109 121.48H90.9309V123.48H98.6109V121.48ZM102.432 118.436C102.199 119.553 101.759 120.281 101.186 120.739C100.611 121.199 99.7863 121.48 98.6109 121.48V123.48C100.102 123.48 101.411 123.121 102.436 122.301C103.463 121.479 104.089 120.287 104.39 118.844L102.432 118.436ZM111.323 83.9106L102.443 118.391L104.379 118.889L113.259 84.4094L111.323 83.9106ZM113.731 83.16H112.291V85.16H113.731V83.16ZM116.57 129.96L114.73 84.1199L112.732 84.2001L114.572 130.04L116.57 129.96ZM126.851 129H115.571V131H126.851V129ZM123.772 79.321L125.852 130.041L127.85 129.959L125.77 79.239L123.772 79.321ZM158.056 75C163.124 75 167.018 75.5303 169.794 76.5398L170.478 74.6602C167.387 73.5364 163.228 73 158.056 73V75ZM149.599 75.0797C151.935 75.0266 154.754 75 158.056 75V73C154.744 73 151.91 73.0267 149.553 73.0803L149.599 75.0797ZM143.23 75.3185C145.192 75.2125 147.315 75.1329 149.599 75.0797L149.553 73.0803C147.251 73.1338 145.107 73.2142 143.122 73.3215L143.23 75.3185ZM137.033 75.7953C139.207 75.5832 141.272 75.4244 143.23 75.3185L143.122 73.3215C141.133 73.429 139.038 73.5901 136.839 73.8047L137.033 75.7953ZM137.936 130V74.8H135.936V130H137.936ZM149.096 129H136.936V131H149.096V129ZM148.096 109.44V130H150.096V109.44H148.096ZM154.276 108.842C152.528 108.736 150.833 108.603 149.192 108.445L149 110.435C150.666 110.597 152.384 110.731 154.155 110.838L154.276 108.842ZM159.685 109.08C157.882 109.027 156.078 108.948 154.275 108.842L154.157 110.838C155.98 110.946 157.803 111.026 159.627 111.08L159.685 109.08ZM170.267 107.543C167.699 108.5 164.175 109.027 159.644 109.08L159.668 111.08C164.311 111.026 168.093 110.487 170.965 109.417L170.267 107.543ZM175.624 102.63C174.565 104.989 172.801 106.617 170.273 107.541L170.959 109.419C173.977 108.317 176.161 106.317 177.448 103.45L175.624 102.63ZM177.376 92.08C177.376 96.7076 176.768 100.193 175.631 102.615L177.441 103.465C178.757 100.661 179.376 96.8391 179.376 92.08H177.376ZM175.558 81.5599C176.742 83.9774 177.376 87.4561 177.376 92.08H179.376C179.376 87.3172 178.73 83.4893 177.354 80.6801L175.558 81.5599ZM169.8 76.5417C172.563 77.5285 174.449 79.1977 175.551 81.5449L177.361 80.6951C176.01 77.8156 173.683 75.8048 170.472 74.6583L169.8 76.5417ZM157.816 82.2H153.176V84.2H157.816V82.2ZM165.099 84.3488C163.626 82.8095 161.072 82.2 157.816 82.2V84.2C160.96 84.2 162.779 84.8172 163.653 85.7312L165.099 84.3488ZM167.136 92.08C167.136 90.2717 166.986 88.7171 166.666 87.4375C166.348 86.1639 165.844 85.0934 165.083 84.3329L163.669 85.7471C164.082 86.1599 164.458 86.8494 164.726 87.9225C164.993 88.9896 165.136 90.3683 165.136 92.08H167.136ZM165.083 99.8271C165.844 99.0666 166.348 97.9961 166.666 96.7225C166.986 95.4429 167.136 93.8883 167.136 92.08H165.136C165.136 93.7917 164.993 95.1704 164.726 96.2375C164.458 97.3105 164.082 98.0001 163.669 98.4129L165.083 99.8271ZM157.816 101.88C161.064 101.88 163.61 101.3 165.083 99.8271L163.669 98.4129C162.795 99.2868 160.968 99.88 157.816 99.88V101.88ZM149.096 101.88H157.816V99.88H149.096V101.88ZM148.096 83.2V100.88H150.096V83.2H148.096ZM153.176 82.2H149.096V84.2H153.176V82.2Z" fill="url(#paint1_linear)" mask="url(#path-1-outside-1)"/>
<defs>
<linearGradient id="paint0_linear" x1="44.2659" y1="84.2963" x2="201.026" y2="171.374" gradientUnits="userSpaceOnUse">
<stop stop-color="#A951EC"/>
<stop offset="1" stop-color="#D65FF2"/>
</linearGradient>
<linearGradient id="paint1_linear" x1="102" y1="2" x2="102" y2="202" gradientUnits="userSpaceOnUse">
<stop stop-color="#1E8CFF"/>
<stop offset="1" stop-color="#6566FF"/>
</linearGradient>
</defs>
</svg>
