<svg width="204" height="204" viewBox="0 0 204 204" fill="none" xmlns="http://www.w3.org/2000/svg">
<mask id="path-1-outside-1" maskUnits="userSpaceOnUse" x="0" y="0" width="204" height="204" fill="black">
<rect fill="white" width="204" height="204"/>
<path fill-rule="evenodd" clip-rule="evenodd" d="M1 16C1 7.71572 7.71573 1 16 1H188C196.284 1 203 7.71573 203 16V188C203 196.284 196.284 203 188 203H16C7.71572 203 1 196.284 1 188V16ZM16 11C13.2386 11 11 13.2386 11 16V188C11 190.761 13.2386 193 16 193H188C190.761 193 193 190.761 193 188V16C193 13.2386 190.761 11 188 11H16ZM30.3417 69.8954C32.8372 68.713 35.8187 69.7773 37.0012 72.2728L52.2035 104.356C53.1173 106.284 52.938 108.553 51.7327 110.314L36.6088 132.41C35.0491 134.689 31.9375 135.272 29.6587 133.712C27.3799 132.153 26.797 129.041 28.3567 126.762L42.1829 106.562L27.9644 76.5548C26.7819 74.0594 27.8463 71.0779 30.3417 69.8954ZM109.349 125.6V74.8H97.9094V106.08C97.9094 107.627 97.936 109.173 97.9894 110.72C98.096 112.213 98.2294 113.733 98.3894 115.28H97.4294C96.7894 113.733 96.1227 112.213 95.4294 110.72C94.736 109.173 94.0694 107.787 93.4294 106.56L78.6294 78.4C77.9894 77.2267 77.3227 76.3467 76.6294 75.76C75.9894 75.12 75.0294 74.8 73.7494 74.8H67.1094C64.176 74.8 62.7094 76.2667 62.7094 79.2V130H74.2294V97.6C74.2294 94.8267 74.0427 91.9467 73.6694 88.96H74.5494C74.976 90.3467 75.4827 91.7867 76.0694 93.28C76.7094 94.7733 77.3494 96.1067 77.9894 97.28L93.2694 126.32C93.9094 127.547 94.5494 128.48 95.1894 129.12C95.8827 129.707 96.896 130 98.2294 130H104.949C107.883 130 109.349 128.533 109.349 125.6ZM181.326 79.28C181.219 76.2933 179.726 74.8 176.846 74.8H165.246C162.526 74.8 160.899 76.08 160.366 78.64L153.326 106.4C153.006 107.733 152.739 109.067 152.526 110.4C152.312 111.68 152.072 112.987 151.806 114.32H150.766C150.499 112.987 150.259 111.68 150.046 110.4C149.832 109.067 149.566 107.76 149.246 106.48L142.126 78.64C141.539 76.08 139.939 74.8 137.326 74.8H125.886C122.952 74.8 121.432 76.2933 121.326 79.28L119.326 130H130.606L132.286 84.16H133.646L142.606 118.64C143.139 121.2 144.766 122.48 147.486 122.48H155.166C157.832 122.48 159.432 121.2 159.966 118.64L168.846 84.16H170.286L172.126 130H183.406L181.326 79.28Z"/>
</mask>
<path fill-rule="evenodd" clip-rule="evenodd" d="M1 16C1 7.71572 7.71573 1 16 1H188C196.284 1 203 7.71573 203 16V188C203 196.284 196.284 203 188 203H16C7.71572 203 1 196.284 1 188V16ZM16 11C13.2386 11 11 13.2386 11 16V188C11 190.761 13.2386 193 16 193H188C190.761 193 193 190.761 193 188V16C193 13.2386 190.761 11 188 11H16ZM30.3417 69.8954C32.8372 68.713 35.8187 69.7773 37.0012 72.2728L52.2035 104.356C53.1173 106.284 52.938 108.553 51.7327 110.314L36.6088 132.41C35.0491 134.689 31.9375 135.272 29.6587 133.712C27.3799 132.153 26.797 129.041 28.3567 126.762L42.1829 106.562L27.9644 76.5548C26.7819 74.0594 27.8463 71.0779 30.3417 69.8954ZM109.349 125.6V74.8H97.9094V106.08C97.9094 107.627 97.936 109.173 97.9894 110.72C98.096 112.213 98.2294 113.733 98.3894 115.28H97.4294C96.7894 113.733 96.1227 112.213 95.4294 110.72C94.736 109.173 94.0694 107.787 93.4294 106.56L78.6294 78.4C77.9894 77.2267 77.3227 76.3467 76.6294 75.76C75.9894 75.12 75.0294 74.8 73.7494 74.8H67.1094C64.176 74.8 62.7094 76.2667 62.7094 79.2V130H74.2294V97.6C74.2294 94.8267 74.0427 91.9467 73.6694 88.96H74.5494C74.976 90.3467 75.4827 91.7867 76.0694 93.28C76.7094 94.7733 77.3494 96.1067 77.9894 97.28L93.2694 126.32C93.9094 127.547 94.5494 128.48 95.1894 129.12C95.8827 129.707 96.896 130 98.2294 130H104.949C107.883 130 109.349 128.533 109.349 125.6ZM181.326 79.28C181.219 76.2933 179.726 74.8 176.846 74.8H165.246C162.526 74.8 160.899 76.08 160.366 78.64L153.326 106.4C153.006 107.733 152.739 109.067 152.526 110.4C152.312 111.68 152.072 112.987 151.806 114.32H150.766C150.499 112.987 150.259 111.68 150.046 110.4C149.832 109.067 149.566 107.76 149.246 106.48L142.126 78.64C141.539 76.08 139.939 74.8 137.326 74.8H125.886C122.952 74.8 121.432 76.2933 121.326 79.28L119.326 130H130.606L132.286 84.16H133.646L142.606 118.64C143.139 121.2 144.766 122.48 147.486 122.48H155.166C157.832 122.48 159.432 121.2 159.966 118.64L168.846 84.16H170.286L172.126 130H183.406L181.326 79.28Z" fill="url(#paint0_linear)"/>
<path d="M37.0012 72.2728L37.9048 71.8446L37.0012 72.2728ZM30.3417 69.8954L30.7699 70.7991L30.7699 70.7991L30.3417 69.8954ZM52.2035 104.356L51.2998 104.784L51.2998 104.784L52.2035 104.356ZM51.7327 110.314L50.9075 109.749L50.9075 109.749L51.7327 110.314ZM36.6088 132.41L35.7836 131.845L35.7836 131.845L36.6088 132.41ZM29.6587 133.712L29.0939 134.538L29.0939 134.538L29.6587 133.712ZM28.3567 126.762L29.1819 127.327L29.1819 127.327L28.3567 126.762ZM42.1829 106.562L43.0081 107.126L43.3325 106.652L43.0866 106.133L42.1829 106.562ZM27.9644 76.5548L27.0607 76.9831L27.0607 76.9831L27.9644 76.5548ZM109.349 74.8H110.349V73.8H109.349V74.8ZM97.9094 74.8V73.8H96.9094V74.8H97.9094ZM97.9894 110.72L96.99 110.754L96.9906 110.773L96.9919 110.791L97.9894 110.72ZM98.3894 115.28V116.28H99.4982L99.3841 115.177L98.3894 115.28ZM97.4294 115.28L96.5054 115.662L96.7609 116.28H97.4294V115.28ZM95.4294 110.72L94.5168 111.129L94.5224 111.141L95.4294 110.72ZM93.4294 106.56L94.316 106.097L94.3146 106.095L93.4294 106.56ZM78.6294 78.4L79.5146 77.9348L79.511 77.9279L79.5073 77.9211L78.6294 78.4ZM76.6294 75.76L75.9223 76.4671L75.9517 76.4965L75.9834 76.5234L76.6294 75.76ZM62.7094 130H61.7094V131H62.7094V130ZM74.2294 130V131H75.2294V130H74.2294ZM73.6694 88.96V87.96H72.5366L72.6771 89.084L73.6694 88.96ZM74.5494 88.96L75.5052 88.6659L75.288 87.96H74.5494V88.96ZM76.0694 93.28L75.1386 93.6456L75.1442 93.6599L75.1502 93.6739L76.0694 93.28ZM77.9894 97.28L78.8743 96.8144L78.8709 96.8077L78.8673 96.8011L77.9894 97.28ZM93.2694 126.32L94.156 125.857L94.1543 125.854L93.2694 126.32ZM95.1894 129.12L94.4823 129.827L94.5117 129.857L94.5434 129.883L95.1894 129.12ZM181.326 79.28L180.326 79.3157L180.326 79.321L181.326 79.28ZM160.366 78.64L161.335 78.8858L161.34 78.865L161.345 78.844L160.366 78.64ZM153.326 106.4L152.356 106.154L152.353 106.167L153.326 106.4ZM152.526 110.4L153.512 110.564L153.513 110.558L152.526 110.4ZM151.806 114.32V115.32H152.625L152.786 114.516L151.806 114.32ZM150.766 114.32L149.785 114.516L149.946 115.32H150.766V114.32ZM150.046 110.4L149.058 110.558L149.059 110.564L150.046 110.4ZM149.246 106.48L150.216 106.237L150.214 106.232L149.246 106.48ZM142.126 78.64L141.151 78.8634L141.154 78.8756L141.157 78.8878L142.126 78.64ZM121.326 79.28L122.325 79.3194L122.325 79.3157L121.326 79.28ZM119.326 130L118.326 129.961L118.285 131H119.326V130ZM130.606 130V131H131.57L131.605 130.037L130.606 130ZM132.286 84.16V83.16H131.322L131.286 84.1234L132.286 84.16ZM133.646 84.16L134.613 83.9085L134.419 83.16H133.646V84.16ZM142.606 118.64L143.585 118.436L143.58 118.412L143.573 118.388L142.606 118.64ZM159.966 118.64L158.997 118.391L158.991 118.413L158.987 118.436L159.966 118.64ZM168.846 84.16V83.16H168.071L167.877 83.9106L168.846 84.16ZM170.286 84.16L171.285 84.1199L171.246 83.16H170.286V84.16ZM172.126 130L171.126 130.04L171.165 131H172.126V130ZM183.406 130V131H184.447L184.405 129.959L183.406 130ZM16 0C7.16345 0 0 7.16344 0 16H2C2 8.26801 8.26802 2 16 2V0ZM188 0H16V2H188V0ZM204 16C204 7.16345 196.837 0 188 0V2C195.732 2 202 8.26802 202 16H204ZM204 188V16H202V188H204ZM188 204C196.837 204 204 196.837 204 188H202C202 195.732 195.732 202 188 202V204ZM16 204H188V202H16V204ZM0 188C0 196.837 7.16344 204 16 204V202C8.26801 202 2 195.732 2 188H0ZM0 16V188H2V16H0ZM12 16C12 13.7909 13.7909 12 16 12V10C12.6863 10 10 12.6863 10 16H12ZM12 188V16H10V188H12ZM16 192C13.7909 192 12 190.209 12 188H10C10 191.314 12.6863 194 16 194V192ZM188 192H16V194H188V192ZM192 188C192 190.209 190.209 192 188 192V194C191.314 194 194 191.314 194 188H192ZM192 16V188H194V16H192ZM188 12C190.209 12 192 13.7909 192 16H194C194 12.6863 191.314 10 188 10V12ZM16 12H188V10H16V12ZM37.9048 71.8446C36.4859 68.85 32.9081 67.5728 29.9135 68.9917L30.7699 70.7991C32.7663 69.8531 35.1515 70.7046 36.0975 72.701L37.9048 71.8446ZM53.1072 103.927L37.9048 71.8446L36.0975 72.701L51.2998 104.784L53.1072 103.927ZM52.5579 110.879C53.9641 108.824 54.1733 106.177 53.1072 103.927L51.2998 104.784C52.0613 106.391 51.9119 108.281 50.9075 109.749L52.5579 110.879ZM37.4341 132.975L52.5579 110.879L50.9075 109.749L35.7836 131.845L37.4341 132.975ZM29.0939 134.538C31.8284 136.409 35.5624 135.71 37.4341 132.975L35.7836 131.845C34.5359 133.669 32.0465 134.135 30.2235 132.887L29.0939 134.538ZM27.5315 126.197C25.6598 128.932 26.3593 132.666 29.0939 134.538L30.2235 132.887C28.4005 131.639 27.9341 129.15 29.1819 127.327L27.5315 126.197ZM41.3577 105.997L27.5315 126.197L29.1819 127.327L43.0081 107.126L41.3577 105.997ZM27.0607 76.9831L41.2792 106.99L43.0866 106.133L28.868 76.1266L27.0607 76.9831ZM29.9135 68.9917C26.919 70.4107 25.6417 73.9885 27.0607 76.9831L28.868 76.1266C27.9221 74.1303 28.7736 71.7451 30.7699 70.7991L29.9135 68.9917ZM108.349 74.8V125.6H110.349V74.8H108.349ZM97.9094 75.8H109.349V73.8H97.9094V75.8ZM98.9094 106.08V74.8H96.9094V106.08H98.9094ZM98.9888 110.686C98.9358 109.15 98.9094 107.615 98.9094 106.08H96.9094C96.9094 107.638 96.9362 109.196 96.99 110.754L98.9888 110.686ZM99.3841 115.177C99.2251 113.641 99.0927 112.131 98.9868 110.649L96.9919 110.791C97.0994 112.296 97.2336 113.826 97.3947 115.383L99.3841 115.177ZM97.4294 116.28H98.3894V114.28H97.4294V116.28ZM94.5224 111.141C95.2097 112.621 95.8707 114.129 96.5054 115.662L98.3534 114.898C97.7081 113.338 97.0358 111.805 96.3364 110.299L94.5224 111.141ZM92.5428 107.023C93.1719 108.228 93.8299 109.597 94.5169 111.129L96.3419 110.311C95.6422 108.75 94.9669 107.345 94.316 106.097L92.5428 107.023ZM77.7442 78.8652L92.5442 107.025L94.3146 106.095L79.5146 77.9348L77.7442 78.8652ZM75.9834 76.5234C76.5492 77.0021 77.1452 77.7674 77.7515 78.8789L79.5073 77.9211C78.8335 76.6859 78.0962 75.6912 77.2753 74.9966L75.9834 76.5234ZM73.7494 75.8C74.8752 75.8 75.5359 76.0808 75.9223 76.4671L77.3365 75.0529C76.4428 74.1592 75.1835 73.8 73.7494 73.8V75.8ZM67.1094 75.8H73.7494V73.8H67.1094V75.8ZM63.7094 79.2C63.7094 77.8875 64.0368 77.0868 64.5165 76.6071C64.9961 76.1274 65.7969 75.8 67.1094 75.8V73.8C65.4886 73.8 64.0893 74.2059 63.1023 75.1929C62.1153 76.1799 61.7094 77.5792 61.7094 79.2H63.7094ZM63.7094 130V79.2H61.7094V130H63.7094ZM74.2294 129H62.7094V131H74.2294V129ZM73.2294 97.6V130H75.2294V97.6H73.2294ZM72.6771 89.084C73.0457 92.033 73.2294 94.8715 73.2294 97.6H75.2294C75.2294 94.7819 75.0397 91.8603 74.6617 88.836L72.6771 89.084ZM74.5494 87.96H73.6694V89.96H74.5494V87.96ZM77.0001 92.9143C76.4218 91.4421 75.9237 90.026 75.5052 88.6659L73.5936 89.2541C74.0284 90.6673 74.5437 92.1312 75.1386 93.6456L77.0001 92.9143ZM78.8673 96.8011C78.2451 95.6606 77.6186 94.3564 76.9885 92.8861L75.1502 93.6739C75.8001 95.1903 76.4536 96.5527 77.1115 97.7589L78.8673 96.8011ZM94.1543 125.854L78.8743 96.8144L77.1044 97.7456L92.3844 126.786L94.1543 125.854ZM95.8965 128.413C95.3558 127.872 94.771 127.036 94.156 125.857L92.3828 126.783C93.0477 128.057 93.743 129.088 94.4823 129.827L95.8965 128.413ZM98.2294 129C97.0248 129 96.2801 128.733 95.8353 128.357L94.5434 129.883C95.4853 130.68 96.7672 131 98.2294 131V129ZM104.949 129H98.2294V131H104.949V129ZM108.349 125.6C108.349 126.913 108.022 127.713 107.542 128.193C107.063 128.673 106.262 129 104.949 129V131C106.57 131 107.969 130.594 108.956 129.607C109.944 128.62 110.349 127.221 110.349 125.6H108.349ZM176.846 75.8C178.119 75.8 178.919 76.1279 179.419 76.6271C179.924 77.1325 180.278 77.9701 180.326 79.3157L182.325 79.2443C182.266 77.6032 181.821 76.2009 180.833 75.2129C179.839 74.2188 178.452 73.8 176.846 73.8V75.8ZM165.246 75.8H176.846V73.8H165.246V75.8ZM161.345 78.844C161.576 77.7321 162.02 77.0054 162.604 76.5459C163.193 76.0828 164.039 75.8 165.246 75.8V73.8C163.732 73.8 162.405 74.1572 161.367 74.9741C160.325 75.7946 159.688 76.9879 159.387 78.436L161.345 78.844ZM154.295 106.646L161.335 78.8858L159.396 78.3942L152.356 106.154L154.295 106.646ZM153.513 110.558C153.722 109.25 153.984 107.942 154.298 106.633L152.353 106.167C152.027 107.524 151.756 108.883 151.538 110.242L153.513 110.558ZM152.786 114.516C153.055 113.173 153.297 111.855 153.512 110.564L151.539 110.236C151.328 111.505 151.09 112.801 150.825 114.124L152.786 114.516ZM150.766 115.32H151.806V113.32H150.766V115.32ZM149.059 110.564C149.274 111.855 149.516 113.173 149.785 114.516L151.746 114.124C151.482 112.801 151.244 111.505 151.032 110.236L149.059 110.564ZM148.275 106.723C148.588 107.974 148.849 109.252 149.058 110.558L151.033 110.242C150.815 108.881 150.543 107.546 150.216 106.237L148.275 106.723ZM141.157 78.8878L148.277 106.728L150.214 106.232L143.094 78.3922L141.157 78.8878ZM137.326 75.8C138.469 75.8 139.282 76.0779 139.861 76.5409C140.44 77.0043 140.894 77.7405 141.151 78.8634L143.1 78.4166C142.771 76.9795 142.131 75.7957 141.11 74.9791C140.089 74.1621 138.796 73.8 137.326 73.8V75.8ZM125.886 75.8H137.326V73.8H125.886V75.8ZM122.325 79.3157C122.373 77.9745 122.732 77.1392 123.246 76.6333C123.758 76.1305 124.581 75.8 125.886 75.8V73.8C124.257 73.8 122.853 74.2161 121.845 75.2067C120.84 76.1941 120.385 77.5988 120.326 79.2443L122.325 79.3157ZM120.325 130.039L122.325 79.3194L120.326 79.2406L118.326 129.961L120.325 130.039ZM130.606 129H119.326V131H130.606V129ZM131.286 84.1234L129.606 129.963L131.605 130.037L133.285 84.1966L131.286 84.1234ZM133.646 83.16H132.286V85.16H133.646V83.16ZM143.573 118.388L134.613 83.9085L132.678 84.4115L141.638 118.892L143.573 118.388ZM147.486 121.48C146.279 121.48 145.433 121.197 144.844 120.734C144.26 120.275 143.816 119.548 143.585 118.436L141.627 118.844C141.928 120.292 142.565 121.485 143.607 122.306C144.645 123.123 145.972 123.48 147.486 123.48V121.48ZM155.166 121.48H147.486V123.48H155.166V121.48ZM158.987 118.436C158.754 119.553 158.314 120.281 157.741 120.739C157.166 121.199 156.341 121.48 155.166 121.48V123.48C156.657 123.48 157.966 123.121 158.99 122.301C160.017 121.479 160.644 120.287 160.945 118.844L158.987 118.436ZM167.877 83.9106L158.997 118.391L160.934 118.889L169.814 84.4094L167.877 83.9106ZM170.286 83.16H168.846V85.16H170.286V83.16ZM173.125 129.96L171.285 84.1199L169.286 84.2001L171.126 130.04L173.125 129.96ZM183.406 129H172.126V131H183.406V129ZM180.326 79.321L182.406 130.041L184.405 129.959L182.325 79.239L180.326 79.321Z" fill="url(#paint1_linear)" mask="url(#path-1-outside-1)"/>
<defs>
<linearGradient id="paint0_linear" x1="102" y1="2" x2="102" y2="202" gradientUnits="userSpaceOnUse">
<stop stop-color="#1E8CFF"/>
<stop offset="1" stop-color="#6566FF"/>
</linearGradient>
<linearGradient id="paint1_linear" x1="102" y1="2" x2="102" y2="202" gradientUnits="userSpaceOnUse">
<stop stop-color="#1E8CFF"/>
<stop offset="1" stop-color="#6566FF"/>
</linearGradient>
</defs>
</svg>
