<svg width="202" height="202" viewBox="0 0 202 202" fill="none" xmlns="http://www.w3.org/2000/svg">
<path fill-rule="evenodd" clip-rule="evenodd" d="M0 15C0 6.71572 6.71573 0 15 0H187C195.284 0 202 6.71573 202 15V187C202 195.284 195.284 202 187 202H15C6.71572 202 0 195.284 0 187V15ZM15 10C12.2386 10 10 12.2386 10 15V187C10 189.761 12.2386 192 15 192H187C189.761 192 192 189.761 192 187V15C192 12.2386 189.761 10 187 10H15ZM29.3418 68.8954C31.8372 67.713 34.8187 68.7773 36.0012 71.2728L51.2035 103.356C52.1173 105.284 51.938 107.553 50.7327 109.314L35.6089 131.41C34.0492 133.689 30.9375 134.272 28.6587 132.712C26.3799 131.153 25.797 128.041 27.3567 125.762L41.1829 105.562L26.9644 75.5548C25.7819 73.0594 26.8463 70.0779 29.3418 68.8954ZM114.274 123.117V72.3173H102.834V103.597C102.834 105.144 102.861 106.691 102.914 108.237C103.021 109.731 103.154 111.251 103.314 112.797H102.354C101.714 111.251 101.048 109.731 100.354 108.237C99.6609 106.691 98.9943 105.304 98.3543 104.077L83.5543 75.9173C82.9143 74.744 82.2476 73.864 81.5543 73.2773C80.9143 72.6373 79.9543 72.3173 78.6743 72.3173H72.0343C69.1009 72.3173 67.6343 73.784 67.6343 76.7173V127.517H79.1543V95.1173C79.1543 92.344 78.9676 89.464 78.5943 86.4773H79.4743C79.9009 87.864 80.4076 89.304 80.9943 90.7973C81.6343 92.2907 82.2743 93.624 82.9143 94.7973L98.1943 123.837C98.8343 125.064 99.4743 125.997 100.114 126.637C100.808 127.224 101.821 127.517 103.154 127.517H109.874C112.808 127.517 114.274 126.051 114.274 123.117ZM157.611 72.9573C154.784 72.104 150.971 71.6773 146.171 71.6773C143.024 71.6773 140.277 71.704 137.931 71.7573C135.584 71.7573 133.397 71.8107 131.371 71.9173C129.397 71.9707 127.371 72.104 125.291 72.3173V127.517C127.637 127.677 129.904 127.811 132.091 127.917C134.331 128.024 136.757 128.077 139.371 128.077C142.037 128.131 145.157 128.157 148.731 128.157C153.104 128.157 156.677 127.757 159.451 126.957C162.224 126.104 164.251 124.637 165.531 122.557C166.864 120.477 167.531 117.544 167.531 113.757C167.531 109.331 166.677 105.864 164.971 103.357C163.264 100.851 160.277 99.4107 156.011 99.0373V98.6373C159.477 98.3173 161.957 97.144 163.451 95.1173C164.997 93.0373 165.771 90.024 165.771 86.0773C165.771 82.2907 165.131 79.3573 163.851 77.2773C162.571 75.1973 160.491 73.7573 157.611 72.9573ZM141.051 80.5573H145.531C148.784 80.5573 151.024 81.0107 152.251 81.9173C153.477 82.824 154.091 84.744 154.091 87.6773C154.091 90.664 153.504 92.6373 152.331 93.5973C151.211 94.5573 149.157 95.0373 146.171 95.0373H137.211V80.5573H141.051ZM137.211 102.797H146.331C148.624 102.797 150.411 103.064 151.691 103.597C153.024 104.077 153.957 104.931 154.491 106.157C155.024 107.384 155.291 109.117 155.291 111.357C155.291 113.544 155.024 115.197 154.491 116.317C154.011 117.437 153.131 118.211 151.851 118.637C150.571 119.064 148.811 119.277 146.571 119.277H137.211V102.797Z" fill="url(#paint0_linear)"/>
<defs>
<linearGradient id="paint0_linear" x1="101" y1="12.6045" x2="101" y2="189.808" gradientUnits="userSpaceOnUse">
<stop stop-color="#FF4B8A"/>
<stop offset="1" stop-color="#FF7B3C"/>
</linearGradient>
</defs>
</svg>
