<svg width="48" height="48" viewBox="0 0 48 48" fill="none" xmlns="http://www.w3.org/2000/svg">
<path fill-rule="evenodd" clip-rule="evenodd" d="M6.65039 13.4422C10.5279 7.7775 17.1961 4 24.9437 4C28.7966 4 31.7432 4.93223 34.2032 6.51223C36.6964 8.1135 38.8034 10.4529 40.8496 13.4422C41.4735 14.3537 42.7182 14.5868 43.6297 13.9629C44.5412 13.339 44.7743 12.0943 44.1504 11.1828C41.9493 7.96724 39.4847 5.15036 36.3649 3.1466C33.2119 1.12158 29.5039 0 24.9437 0C15.8652 0 7.96664 4.43772 3.34961 11.1828C2.72569 12.0943 2.95881 13.339 3.8703 13.9629C4.78178 14.5868 6.02647 14.3537 6.65039 13.4422ZM7.73013 34.9967C7.17603 34.0412 5.95222 33.7158 4.99669 34.2699C4.04116 34.824 3.71575 36.0478 4.26986 37.0033C6.45044 40.7636 9.18461 43.5587 12.6734 45.3895C16.1427 47.2102 20.2106 48 24.9437 48C29.4731 48 33.1719 46.9719 36.3311 45.0309C39.4637 43.1061 41.9382 40.3615 44.1504 37.1297C44.7743 36.2182 44.5412 34.9735 43.6297 34.3496C42.7182 33.7257 41.4735 33.9588 40.8496 34.8703C38.8145 37.8434 36.7174 40.0988 34.237 41.6228C31.7831 43.1305 28.8275 44 24.9437 44C20.6433 44 17.264 43.2813 14.5322 41.8476C11.8199 40.4243 9.59893 38.2193 7.73013 34.9967ZM4 23.5C4 21.567 5.567 20 7.5 20C9.433 20 11 21.567 11 23.5C11 25.433 9.433 27 7.5 27C5.567 27 4 25.433 4 23.5ZM7.5 16C3.35786 16 0 19.3579 0 23.5C0 27.6421 3.35786 31 7.5 31C10.054 31 12.3099 29.7234 13.6643 27.7734C15.2041 31.9899 19.2505 35 24 35C28.7495 35 32.7959 31.9899 34.3357 27.7734C35.6901 29.7234 37.946 31 40.5 31C44.6421 31 48 27.6421 48 23.5C48 19.3579 44.6421 16 40.5 16C37.7832 16 35.4038 17.4445 34.0879 19.6074C32.3922 15.7185 28.5136 13 24 13C19.4864 13 15.6078 15.7185 13.9121 19.6074C12.5962 17.4445 10.2168 16 7.5 16ZM40.5 20C38.567 20 37 21.567 37 23.5C37 25.433 38.567 27 40.5 27C42.433 27 44 25.433 44 23.5C44 21.567 42.433 20 40.5 20ZM17 24C17 20.134 20.134 17 24 17C27.866 17 31 20.134 31 24C31 27.866 27.866 31 24 31C20.134 31 17 27.866 17 24Z" fill="url(#paint0_linear)"/>
<defs>
<linearGradient id="paint0_linear" x1="24" y1="0" x2="24" y2="48" gradientUnits="userSpaceOnUse">
<stop stop-color="#1E8CFF"/>
<stop offset="1" stop-color="#6566FF"/>
</linearGradient>
</defs>
</svg>
