<svg width="44" height="45" viewBox="0 0 44 45" fill="none" xmlns="http://www.w3.org/2000/svg">
<path fill-rule="evenodd" clip-rule="evenodd" d="M11.75 3.5C7.19365 3.5 3.5 7.19365 3.5 11.75V33.25C3.5 34.2165 2.7165 35 1.75 35C0.783502 35 0 34.2165 0 33.25V11.75C0 5.26065 5.26065 0 11.75 0H32.25C38.7393 0 44 5.26065 44 11.75V32.75C44 39.2393 38.7393 44.5 32.25 44.5H1.75C0.783502 44.5 0 43.7165 0 42.75C0 41.7835 0.783502 41 1.75 41H32.25C36.8064 41 40.5 37.3064 40.5 32.75V11.75C40.5 7.19365 36.8064 3.5 32.25 3.5H11.75ZM10.2507 14.3893C10.2507 13.484 10.9847 12.75 11.8901 12.75L30.9063 12.75C31.8117 12.75 32.5457 13.484 32.5457 14.3893C32.5457 15.2947 31.8117 16.0287 30.9063 16.0287L11.8901 16.0287C10.9847 16.0287 10.2507 15.2947 10.2507 14.3893ZM11.8893 29.4713C10.984 29.4713 10.25 30.2053 10.25 31.1107C10.25 32.016 10.984 32.75 11.8893 32.75L30.9056 32.75C31.811 32.75 32.5449 32.016 32.5449 31.1107C32.5449 30.2053 31.811 29.4713 30.9056 29.4713L11.8893 29.4713ZM16.4794 19.8539C16.4794 18.9486 17.2134 18.2146 18.1188 18.2146H30.9056C31.8109 18.2146 32.5449 18.9486 32.5449 19.8539C32.5449 20.7593 31.8109 21.4933 30.9056 21.4933L18.1188 21.4933C17.2134 21.4933 16.4794 20.7593 16.4794 19.8539ZM18.1188 23.679C17.2134 23.679 16.4794 24.413 16.4794 25.3184C16.4794 26.2238 17.2134 26.9577 18.1188 26.9577H30.9056C31.8109 26.9577 32.5449 26.2238 32.5449 25.3184C32.5449 24.413 31.8109 23.679 30.9056 23.679L18.1188 23.679Z" fill="url(#paint0_linear)"/>
<defs>
<linearGradient id="paint0_linear" x1="36.0571" y1="-1.70428e-06" x2="10.2426" y2="44.6813" gradientUnits="userSpaceOnUse">
<stop stop-color="#00E5FD"/>
<stop offset="1" stop-color="#00A5FF"/>
</linearGradient>
</defs>
</svg>
