<svg width="58" height="50" viewBox="0 0 58 50" fill="none" xmlns="http://www.w3.org/2000/svg">
<path d="M1.00076 12.3615V17.9767C1.00076 18.537 1.77429 19.1299 3.24558 19.8333C6.18914 21.2399 22.5298 27.8414 25.1125 29.0754C27.695 30.3099 29.5111 30.3266 32.7802 28.6225C36.0493 26.9177 51.4048 20.6038 54.3689 19.0588C55.8777 18.2725 56.5442 17.6635 56.5438 17.1091C56.5438 16.5883 56.5452 11.574 56.5452 11.574" stroke="url(#paint0_linear)" stroke-width="1.5"/>
<path d="M36.0511 8.03547L31.2382 8.53504L30.1607 11.1276L28.4204 8.23464L22.8631 7.73507L27.0098 6.23962L25.7658 3.94421L29.6481 5.46251L33.3083 4.2642L32.319 6.63798L36.0511 8.03547Z" stroke="url(#paint1_linear)" stroke-width="1.5" stroke-linecap="round" stroke-linejoin="round"/>
<path d="M29.8733 20.6129L20.8909 16.8874L33.7622 14.912L29.8733 20.6129Z" stroke="url(#paint2_linear)" stroke-width="1.5" stroke-linecap="round" stroke-linejoin="round"/>
<path d="M17.42 14.8097C21.2194 14.8097 24.2994 13.6158 24.2994 12.1431C24.2994 10.6703 21.2194 9.47642 17.42 9.47642C13.6207 9.47642 10.5406 10.6703 10.5406 12.1431C10.5406 13.6158 13.6207 14.8097 17.42 14.8097Z" stroke="url(#paint3_linear)" stroke-width="1.5" stroke-linecap="round" stroke-linejoin="round"/>
<path d="M32.7801 32.5012L33.1268 33.1663L33.1269 33.1662L32.7801 32.5012ZM25.1125 32.9541L25.4359 32.2774L25.4358 32.2774L25.1125 32.9541ZM3.24551 23.712L3.56889 23.0353L3.24551 23.712ZM54.3689 28.5803L54.0223 27.9152L54.0222 27.9152L54.3689 28.5803ZM32.7802 38.144L33.1268 38.8091L33.127 38.809L32.7802 38.144ZM25.1125 38.5969L25.436 37.9202L25.4358 37.9201L25.1125 38.5969ZM3.24559 29.3548L2.92213 30.0314L2.92221 30.0315L3.24559 29.3548ZM56.5438 26.6306H55.7938V26.6311L56.5438 26.6306ZM32.7801 42.0227L33.1268 42.6877L33.1269 42.6877L32.7801 42.0227ZM25.1125 42.4756L25.4359 41.7989L25.4358 41.7988L25.1125 42.4756ZM3.24551 33.2335L3.56889 32.5568L3.24551 33.2335ZM54.3689 38.1017L54.0223 37.4366L54.0222 37.4367L54.3689 38.1017ZM32.7802 47.6655L33.1268 48.3305L33.127 48.3305L32.7802 47.6655ZM25.1125 48.1183L25.436 47.4417L25.4358 47.4416L25.1125 48.1183ZM3.24559 38.8762L2.92213 39.5529L2.92221 39.5529L3.24559 38.8762ZM56.5438 36.1521H55.7938V36.1525L56.5438 36.1521ZM54.3688 13.4427L54.0222 12.7776L54.0222 12.7776L54.3688 13.4427ZM32.7801 23.0061L33.1268 23.6711L33.1268 23.6711L32.7801 23.0061ZM3.13188 10.7094L3.40536 11.4077L3.40539 11.4077L3.13188 10.7094ZM25.7093 1.96912L25.9626 2.67507L25.9626 2.67505L25.7093 1.96912ZM33.2578 1.76342L32.9997 2.46763L32.9998 2.46766L33.2578 1.76342ZM54.3329 9.96752L54.0749 10.6717L54.075 10.6718L54.3329 9.96752ZM41.9592 8.53784L42.2348 7.84033C42.0577 7.77031 41.8605 7.77034 41.6833 7.84042L41.9592 8.53784ZM49.5768 11.5483L49.8522 12.2459C50.1386 12.1329 50.3268 11.8563 50.3268 11.5485C50.3269 11.2406 50.1388 10.964 49.8525 10.8508L49.5768 11.5483ZM41.1395 14.8788L40.8638 15.5763C41.0409 15.6462 41.2379 15.6463 41.4149 15.5764L41.1395 14.8788ZM33.5317 11.8716L33.2558 11.1742C32.9697 11.2874 32.7817 11.5639 32.7817 11.8717C32.7818 12.1794 32.9698 12.4559 33.256 12.5691L33.5317 11.8716ZM54.0222 22.2727C52.5726 23.0283 48.0326 24.9765 43.3927 26.9706C38.7943 28.9467 34.1002 30.967 32.4333 31.8362L33.1269 33.1662C34.7291 32.3307 39.3473 30.3418 43.985 28.3487C48.5811 26.3735 53.2009 24.3924 54.7155 23.6029L54.0222 22.2727ZM32.4334 31.8361C30.8425 32.6654 29.6837 33.0331 28.6543 33.0804C27.6377 33.1272 26.6655 32.8653 25.4359 32.2774L24.789 33.6307C26.1418 34.2775 27.3689 34.6412 28.7232 34.5789C30.0648 34.5171 31.4485 34.0411 33.1268 33.1663L32.4334 31.8361ZM25.4358 32.2774C24.1209 31.6492 19.3606 29.6785 14.6016 27.705C9.81057 25.7183 5.01737 23.7275 3.56889 23.0353L2.92214 24.3887C4.41722 25.1031 9.26611 27.1164 14.027 29.0906C18.8199 31.0781 23.5212 33.0251 24.7891 33.6308L25.4358 32.2774ZM3.56889 23.0353C2.85176 22.6926 2.35938 22.3988 2.0541 22.1492C1.72634 21.8811 1.7479 21.7743 1.74992 21.826C1.75322 21.9102 1.68938 21.8443 1.97211 21.6275C2.24295 21.4199 2.70353 21.1775 3.40543 20.9025L2.85834 19.5059C2.11441 19.7973 1.49834 20.1007 1.05946 20.4371C0.632471 20.7645 0.225853 21.241 0.251069 21.8847C0.27501 22.4959 0.683181 22.9658 1.10451 23.3103C1.54832 23.6733 2.16748 24.0281 2.92214 24.3887L3.56889 23.0353ZM54.0749 20.1662C54.7806 20.4248 55.2579 20.6521 55.5491 20.8523C55.8615 21.0672 55.7994 21.1374 55.7962 21.0428C55.7936 20.9634 55.8439 21.0497 55.5266 21.3269C55.2331 21.5833 54.7471 21.8949 54.0222 22.2727L54.7155 23.6029C55.4726 23.2082 56.0843 22.8314 56.5134 22.4566C56.9187 22.1026 57.3164 21.615 57.2954 20.9921C57.2738 20.3541 56.8276 19.9112 56.3992 19.6165C55.9497 19.3073 55.3297 19.0285 54.591 18.7578L54.0749 20.1662ZM54.0222 27.9152C52.5727 28.6708 48.0327 30.6191 43.3928 32.6132C38.7944 34.5894 34.1002 36.6097 32.4334 37.479L33.127 38.809C34.7292 37.9735 39.3474 35.9845 43.985 33.9913C48.5812 32.016 53.201 30.0348 54.7156 29.2453L54.0222 27.9152ZM32.4335 37.4789C30.8426 38.3082 29.6838 38.6759 28.6544 38.7232C27.6378 38.77 26.6656 38.508 25.436 37.9202L24.7891 39.2735C26.1419 39.9203 27.3689 40.2839 28.7233 40.2216C30.0648 40.1599 31.4486 39.6839 33.1268 38.8091L32.4335 37.4789ZM25.4358 37.9201C24.121 37.292 19.3607 35.3212 14.6016 33.3478C9.81065 31.3611 5.01745 29.3702 3.56897 28.6781L2.92221 30.0315C4.41729 30.7459 9.26619 32.7592 14.0271 34.7334C18.82 36.7209 23.5213 38.6678 24.7892 39.2736L25.4358 37.9201ZM3.56905 28.6781C2.85008 28.3344 2.35216 28.0405 2.04406 27.7905C1.70815 27.5179 1.75078 27.423 1.75078 27.4982H0.250775C0.250775 28.1336 0.680157 28.6154 1.09884 28.9552C1.54532 29.3175 2.1698 29.6718 2.92213 30.0314L3.56905 28.6781ZM1.75078 27.4982V21.883H0.250775V27.4982H1.75078ZM56.5452 21.0955C55.7952 21.0953 55.7952 21.0953 55.7952 21.0953C55.7952 21.0954 55.7952 21.0954 55.7952 21.0955C55.7952 21.0957 55.7952 21.0959 55.7952 21.0962C55.7952 21.0968 55.7952 21.0977 55.7952 21.0989C55.7952 21.1013 55.7952 21.1049 55.7952 21.1097C55.7952 21.1192 55.7952 21.1333 55.7951 21.1517C55.7951 21.1886 55.7951 21.2427 55.7951 21.3118C55.7951 21.4499 55.795 21.6478 55.795 21.8869C55.7948 22.3652 55.7947 23.0082 55.7945 23.6676C55.7942 24.9862 55.7938 26.3701 55.7938 26.6306H57.2938C57.2938 26.3703 57.2942 24.9867 57.2945 23.6679C57.2947 23.0086 57.2948 22.3655 57.295 21.8873C57.295 21.6482 57.2951 21.4503 57.2951 21.3122C57.2951 21.2431 57.2951 21.189 57.2951 21.1521C57.2952 21.1337 57.2952 21.1196 57.2952 21.1101C57.2952 21.1053 57.2952 21.1017 57.2952 21.0993C57.2952 21.0981 57.2952 21.0972 57.2952 21.0966C57.2952 21.0963 57.2952 21.0961 57.2952 21.0959C57.2952 21.0958 57.2952 21.0958 57.2952 21.0957C57.2952 21.0957 57.2952 21.0957 56.5452 21.0955ZM55.7938 26.6311C55.7938 26.5904 55.8177 26.6935 55.5204 26.9612C55.2354 27.2178 54.7574 27.5321 54.0223 27.9152L54.7155 29.2454C55.4893 28.8422 56.0989 28.4588 56.5242 28.0758C56.9373 27.7039 57.2942 27.2253 57.2938 26.6302L55.7938 26.6311ZM54.0222 31.7942C52.5726 32.5498 48.0326 34.498 43.3927 36.492C38.7943 38.4682 34.1002 40.4884 32.4333 41.3577L33.1269 42.6877C34.7291 41.8522 39.3473 39.8632 43.985 37.8702C48.5811 35.895 53.2009 33.9138 54.7155 33.1244L54.0222 31.7942ZM32.4334 41.3576C30.8425 42.1869 29.6837 42.5546 28.6543 42.6019C27.6377 42.6487 26.6655 42.3867 25.4359 41.7989L24.789 43.1522C26.1418 43.799 27.3689 44.1626 28.7232 44.1003C30.0648 44.0386 31.4485 43.5626 33.1268 42.6877L32.4334 41.3576ZM25.4358 41.7988C24.1209 41.1707 19.3606 39.1999 14.6016 37.2265C9.81057 35.2398 5.01737 33.2489 3.56889 32.5568L2.92214 33.9102C4.41722 34.6246 9.26611 36.6379 14.027 38.6121C18.8199 40.5996 23.5212 42.5466 24.7891 43.1523L25.4358 41.7988ZM3.56889 32.5568C2.85176 32.2141 2.35938 31.9203 2.0541 31.6706C1.72634 31.4026 1.7479 31.2958 1.74992 31.3475C1.75322 31.4317 1.68938 31.3658 1.97211 31.149C2.24295 30.9414 2.70353 30.699 3.40543 30.424L2.85834 29.0273C2.11441 29.3187 1.49834 29.6221 1.05946 29.9586C0.632471 30.286 0.225853 30.7625 0.251069 31.4062C0.27501 32.0174 0.683181 32.4872 1.10451 32.8318C1.54832 33.1947 2.16748 33.5495 2.92214 33.9102L3.56889 32.5568ZM54.0749 29.6877C54.7806 29.9463 55.2579 30.1735 55.5491 30.3738C55.8615 30.5887 55.7994 30.6589 55.7962 30.5643C55.7936 30.4849 55.8439 30.5712 55.5266 30.8484C55.2331 31.1048 54.7471 31.4163 54.0222 31.7942L54.7155 33.1244C55.4726 32.7297 56.0843 32.3528 56.5134 31.9781C56.9187 31.6241 57.3164 31.1365 57.2954 30.5136C57.2738 29.8755 56.8276 29.4326 56.3992 29.138C55.9497 28.8287 55.3297 28.55 54.591 28.2793L54.0749 29.6877ZM54.0222 37.4367C52.5727 38.1923 48.0327 40.1406 43.3928 42.1347C38.7944 44.1109 34.1002 46.1312 32.4334 47.0005L33.127 48.3305C34.7292 47.4949 39.3474 45.5059 43.985 43.5128C48.5812 41.5375 53.201 39.5563 54.7156 38.7668L54.0222 37.4367ZM32.4335 47.0004C30.8426 47.8297 29.6838 48.1973 28.6544 48.2447C27.6378 48.2915 26.6656 48.0295 25.436 47.4417L24.7891 48.795C26.1419 49.4417 27.3689 49.8054 28.7233 49.7431C30.0648 49.6814 31.4486 49.2053 33.1268 48.3305L32.4335 47.0004ZM25.4358 47.4416C24.121 46.8135 19.3607 44.8427 14.6016 42.8693C9.81065 40.8826 5.01745 38.8917 3.56897 38.1995L2.92221 39.5529C4.41729 40.2674 9.26619 42.2806 14.0271 44.2549C18.82 46.2423 23.5213 48.1893 24.7892 48.7951L25.4358 47.4416ZM3.56905 38.1996C2.85008 37.8559 2.35216 37.562 2.04406 37.312C1.70815 37.0394 1.75078 36.9445 1.75078 37.0196H0.250775C0.250775 37.6551 0.680157 38.1369 1.09884 38.4767C1.54532 38.839 2.1698 39.1933 2.92213 39.5529L3.56905 38.1996ZM1.75078 37.0196V31.4045H0.250775V37.0196H1.75078ZM56.5452 30.617C55.7952 30.6168 55.7952 30.6168 55.7952 30.6168C55.7952 30.6169 55.7952 30.6169 55.7952 30.617C55.7952 30.6171 55.7952 30.6174 55.7952 30.6177C55.7952 30.6183 55.7952 30.6192 55.7952 30.6204C55.7952 30.6228 55.7952 30.6264 55.7952 30.6312C55.7952 30.6407 55.7952 30.6548 55.7951 30.6732C55.7951 30.7101 55.7951 30.7642 55.7951 30.8332C55.7951 30.9714 55.795 31.1693 55.795 31.4084C55.7948 31.8866 55.7947 32.5297 55.7945 33.189C55.7942 34.5076 55.7938 35.8916 55.7938 36.1521H57.2938C57.2938 35.8918 57.2942 34.5082 57.2945 33.1894C57.2947 32.5301 57.2948 31.887 57.295 31.4088C57.295 31.1697 57.2951 30.9718 57.2951 30.8336C57.2951 30.7646 57.2951 30.7104 57.2951 30.6736C57.2952 30.6552 57.2952 30.6411 57.2952 30.6316C57.2952 30.6268 57.2952 30.6232 57.2952 30.6208C57.2952 30.6196 57.2952 30.6187 57.2952 30.6181C57.2952 30.6178 57.2952 30.6175 57.2952 30.6174C57.2952 30.6173 57.2952 30.6172 57.2952 30.6172C57.2952 30.6172 57.2952 30.6172 56.5452 30.617ZM55.7938 36.1525C55.7938 36.1119 55.8177 36.215 55.5204 36.4826C55.2354 36.7393 54.7574 37.0536 54.0223 37.4366L54.7155 38.7669C55.4893 38.3637 56.0989 37.9803 56.5242 37.5973C56.9373 37.2253 57.2942 36.7467 57.2938 36.1517L55.7938 36.1525ZM54.0222 12.7776C52.5726 13.5332 48.0326 15.4815 43.3927 17.4755C38.7943 19.4518 34.1002 21.472 32.4334 22.341L33.1268 23.6711C34.7291 22.8357 39.3473 20.8468 43.985 18.8537C48.5811 16.8784 53.2009 14.8972 54.7155 14.1077L54.0222 12.7776ZM32.4334 22.341C30.8425 23.1703 29.6837 23.5379 28.6543 23.5853C27.6377 23.6321 26.6655 23.3702 25.4359 22.7826L24.789 24.136C26.1419 24.7825 27.3689 25.1461 28.7233 25.0837C30.0648 25.022 31.4485 24.5459 33.1268 23.6711L32.4334 22.341ZM25.4359 22.7826C24.1211 22.1542 19.3607 20.1834 14.6017 18.2101C9.81063 16.2234 5.01737 14.2326 3.56889 13.5405L2.92214 14.8939C4.41722 15.6083 9.26622 17.6215 14.0271 19.5957C18.8201 21.5831 23.5213 23.5301 24.789 24.136L25.4359 22.7826ZM3.56889 13.5405C2.85178 13.1978 2.3594 12.904 2.05412 12.6543C1.72638 12.3863 1.7479 12.2795 1.74992 12.3311C1.75321 12.4152 1.6894 12.3493 1.97209 12.1326C2.24291 11.925 2.70348 11.6826 3.40536 11.4077L2.85841 10.011C2.11446 10.3023 1.49838 10.6057 1.05948 10.9422C0.632451 11.2695 0.225855 11.7461 0.251069 12.3898C0.275008 13.0009 0.683143 13.4708 1.10449 13.8154C1.5483 14.1784 2.16747 14.5332 2.92214 14.8939L3.56889 13.5405ZM3.40539 11.4077C6.30648 10.2715 22.541 3.90253 25.9626 2.67507L25.4561 1.26317C22.0077 2.50028 5.73993 8.88248 2.85838 10.011L3.40539 11.4077ZM25.9626 2.67505C27.6724 2.06157 28.7324 1.77984 29.6969 1.75224C30.6456 1.72509 31.5667 1.9425 32.9997 2.46763L33.5158 1.05921C32.0262 0.513359 30.8903 0.217476 29.654 0.252854C28.4335 0.28778 27.1806 0.644393 25.456 1.26319L25.9626 2.67505ZM32.9998 2.46766C34.4506 2.99906 38.9848 4.78056 43.534 6.56816C48.0695 8.35036 52.62 10.1387 54.0749 10.6717L54.5909 9.2633C53.1575 8.7381 48.6319 6.95971 44.0826 5.17208C39.5471 3.38986 34.988 1.59843 33.5157 1.05918L32.9998 2.46766ZM54.075 10.6718C54.7808 10.9302 55.2581 11.1573 55.5492 11.3576C55.8615 11.5724 55.7994 11.6425 55.7962 11.5479C55.7936 11.4685 55.8439 11.5547 55.5266 11.8319C55.2331 12.0882 54.7471 12.3998 54.0222 12.7776L54.7155 14.1078C55.4726 13.7132 56.0843 13.3364 56.5134 12.9616C56.9186 12.6076 57.3164 12.12 57.2954 11.4972C57.2738 10.8591 56.8276 10.4162 56.3992 10.1216C55.9496 9.81244 55.3296 9.53379 54.5908 9.26325L54.075 10.6718ZM41.6835 9.23534L49.3012 12.2458L49.8525 10.8508L42.2348 7.84033L41.6835 9.23534ZM49.3015 10.8507L40.8642 14.1812L41.4149 15.5764L49.8522 12.2459L49.3015 10.8507ZM33.8076 12.569L42.2351 9.23525L41.6833 7.84042L33.2558 11.1742L33.8076 12.569ZM41.4152 14.1813L33.8074 11.1741L33.256 12.5691L40.8638 15.5763L41.4152 14.1813Z" fill="url(#paint4_linear)"/>
<defs>
<linearGradient id="paint0_linear" x1="4.7793" y1="28.5783" x2="22.8473" y2="-1.48566" gradientUnits="userSpaceOnUse">
<stop stop-color="#FF6767"/>
<stop offset="1" stop-color="#E14BB8"/>
</linearGradient>
<linearGradient id="paint1_linear" x1="12.2761" y1="19.3628" x2="30.5612" y2="3.95195" gradientUnits="userSpaceOnUse">
<stop stop-color="#FF6767"/>
<stop offset="1" stop-color="#E14BB8"/>
</linearGradient>
<linearGradient id="paint2_linear" x1="12.2761" y1="19.3628" x2="30.5612" y2="3.95195" gradientUnits="userSpaceOnUse">
<stop stop-color="#FF6767"/>
<stop offset="1" stop-color="#E14BB8"/>
</linearGradient>
<linearGradient id="paint3_linear" x1="12.2761" y1="19.3628" x2="30.5612" y2="3.95195" gradientUnits="userSpaceOnUse">
<stop stop-color="#FF6767"/>
<stop offset="1" stop-color="#E14BB8"/>
</linearGradient>
<linearGradient id="paint4_linear" x1="4.77866" y1="45.4" x2="53.206" y2="14.5385" gradientUnits="userSpaceOnUse">
<stop stop-color="#FF6767"/>
<stop offset="1" stop-color="#E14BB8"/>
</linearGradient>
</defs>
</svg>
