<svg width="54" height="48" viewBox="0 0 54 48" fill="none" xmlns="http://www.w3.org/2000/svg">
<path d="M50.6225 41.8584L28.7868 3.819L28.7862 3.81798C28.5837 3.46581 28.292 3.17233 27.9396 2.96785C27.5871 2.76335 27.1866 2.65536 26.7785 2.65536C26.3704 2.65536 25.97 2.76335 25.6175 2.96785L25.6175 2.96786C25.265 3.17231 24.9733 3.46578 24.7708 3.81799L24.7697 3.81985L19.7621 12.5567L19.0596 13.7823L20.2409 14.5569C25.4258 17.957 29.6872 22.6038 32.6391 28.0778C35.5911 33.5519 37.1403 39.6802 37.146 45.9086V46.4819H26.9519V45.9036V45.9023C26.9482 41.5132 25.8874 37.19 23.8598 33.3023C21.8322 29.4147 18.8979 26.0779 15.3073 23.5782L13.9639 22.643L13.1492 24.0626L10.6724 28.3785L10.0012 29.5482L11.0931 30.3397C13.5464 32.1179 15.5451 34.4579 16.9236 37.1671C18.3022 39.8764 19.0208 42.8769 19.0199 45.9212V45.9217V46.4964H4.94985C4.94982 46.4964 4.9498 46.4964 4.94977 46.4964C4.346 46.4963 3.75237 46.3365 3.22844 46.0323C2.70442 45.7281 2.26818 45.2899 1.96439 44.7609C1.66056 44.2319 1.50018 43.6311 1.5 43.0189C1.49982 42.4068 1.65983 41.8059 1.96335 41.2767L1.96565 41.2726L4.42767 36.9486C4.76962 37.1197 5.10156 37.3105 5.42183 37.52L2.93089 41.8585C2.93052 41.8591 2.93015 41.8597 2.92978 41.8604C2.7253 42.2152 2.61834 42.6175 2.61918 43.0264C2.62002 43.4361 2.72902 43.8386 2.93571 44.1931C3.14241 44.5475 3.43967 44.8415 3.79794 45.044C4.15185 45.244 4.55228 45.3474 4.95909 45.3434H16.2646H17.9789L17.7514 43.6444C17.3838 40.8985 16.4 38.2721 14.8741 35.9639C13.3482 33.6557 11.3198 31.7259 8.94196 30.3211L8.93547 30.3173L8.92894 30.3135L8.42266 30.0212L13.5082 21.1278L13.9995 21.4104C14.0003 21.4108 14.001 21.4113 14.0018 21.4117C17.9903 23.7278 21.3541 26.9928 23.7977 30.9215C26.2419 34.851 27.6906 39.3242 28.0164 43.9488L28.1147 45.3434H29.5127H34.4664H36.0596L35.9636 43.7531C35.6026 37.7694 33.7738 31.9682 30.6399 26.8676C27.5059 21.7669 23.1642 17.5254 18.0017 14.5224L17.9974 14.5199L17.4933 14.2289L23.8041 3.23478C23.8042 3.23459 23.8043 3.2344 23.8044 3.23421C24.1082 2.70564 24.5444 2.2678 25.0681 1.9638C25.5921 1.65973 26.1856 1.5 26.7893 1.5C27.393 1.5 27.9866 1.65973 28.5105 1.9638C29.0342 2.26777 29.4703 2.70556 29.7742 3.23407L50.6225 41.8584ZM50.6225 41.8584C50.6232 41.8596 50.6239 41.8608 50.6246 41.862L50.6225 41.8584ZM48.5943 45.3434C49.0011 45.3474 49.4015 45.244 49.7555 45.044L29.7746 3.23478L51.6081 41.2803C51.9116 41.8095 52.0716 42.4104 52.0714 43.0225C52.0712 43.6347 51.9109 44.2355 51.607 44.7645C51.3032 45.2935 50.867 45.7317 50.343 46.0359C49.8191 46.3401 49.2254 46.5 48.6217 46.5C48.6216 46.5 48.6216 46.5 48.6216 46.5H45.0434C45.0481 46.114 45.0475 45.7285 45.042 45.3434H48.5943Z" stroke="url(#paint0_linear)" stroke-width="3"/>
<defs>
<linearGradient id="paint0_linear" x1="26.7857" y1="0" x2="26.7857" y2="48" gradientUnits="userSpaceOnUse">
<stop stop-color="#1E8CFF"/>
<stop offset="1" stop-color="#6566FF"/>
</linearGradient>
</defs>
</svg>
