<svg width="48" height="48" viewBox="0 0 48 48" fill="none" xmlns="http://www.w3.org/2000/svg">
<path fill-rule="evenodd" clip-rule="evenodd" d="M11.1459 0.226178C10.9656 0.332486 10.7233 0.468065 10.6076 0.527307C10.4917 0.586783 10.281 0.828902 10.1393 1.0654L9.88148 1.49532L9.88383 5.6165C9.88593 9.62951 9.89132 9.74846 10.0857 10.1498C10.7671 11.5555 12.8366 11.684 13.8692 10.3847L14.1432 10.0398V5.66544V1.29137L13.8933 0.970568C13.2157 0.101372 11.9428 -0.243543 11.1459 0.226178ZM35.0676 0.311881C34.0726 1.04246 34.093 0.932635 34.0958 5.56897C34.0984 10.0597 34.0904 9.99925 34.7526 10.6308C35.3322 11.1836 35.4431 11.219 36.4566 11.1757C37.3316 11.1384 37.6958 10.9349 38.1931 10.206L38.4488 9.83136V5.56967C38.4488 0.794247 38.5158 1.27474 37.7463 0.530585C37.1237 -0.0716705 35.7431 -0.1843 35.0676 0.311881ZM1.93087 4.25253C1.36187 4.53586 0.468316 5.30976 0.468316 5.51933C0.468316 5.58466 0.373482 5.75864 0.257573 5.90592L0.0468304 6.1738L0.0234144 25.8923L0 45.6108L0.318455 46.2196C0.758438 47.06 1.49393 47.6976 2.22076 47.8687C2.8195 48.0095 41.1051 48.054 44.3964 47.9177L46.0355 47.8498L46.4603 47.5264C46.694 47.3484 47.0876 46.96 47.3353 46.6631L47.7854 46.1231L47.8671 44.9303C47.9709 43.4134 47.9725 8.29902 47.8688 6.95542C47.7622 5.57482 47.3803 5.00886 46.0604 4.27571L45.5232 3.9774H43.0109C41.0236 3.9774 40.4614 4.00432 40.3218 4.10642C40.157 4.22701 40.1413 4.44618 40.086 7.40805C40.0247 10.709 40.02 10.7488 39.6264 11.2817C38.7956 12.4073 38.3249 12.6171 36.5184 12.667C34.7032 12.7171 34.1775 12.5008 33.1683 11.2881C32.5686 10.5673 32.5012 10.1079 32.5012 6.74C32.5012 4.29632 32.4923 4.16659 32.3199 4.07434C32.0352 3.9219 16.2852 3.94134 16.0904 4.09448C15.9628 4.19493 15.9345 4.58621 15.8926 6.83413C15.8258 10.4102 15.66 11.0431 14.5499 11.9606C13.6898 12.6712 13.4997 12.7307 12.0826 12.733C10.2587 12.7359 9.24715 12.1636 8.60954 10.7682L8.35266 10.206L8.30934 7.17483C8.27445 4.73958 8.2405 4.12749 8.137 4.06193C8.06629 4.01697 6.76484 3.97974 5.24515 3.97927L2.48208 3.9781L1.93087 4.25253ZM44.5006 16.5002C44.8898 16.6709 44.8802 16.3079 44.8769 30.6928C44.8734 45.5155 44.9029 44.7528 44.3297 44.8476C43.664 44.9577 3.80016 44.9172 3.4817 44.8062C2.9984 44.6378 3.0087 44.9446 3.00004 30.4335L2.99184 16.817L3.24731 16.6493C3.44962 16.5163 3.77721 16.47 4.81898 16.4264C7.44085 16.3168 44.2391 16.3852 44.5006 16.5002ZM25.4415 20.5823C25.2228 20.7422 25.2439 25.4743 25.4645 25.7398C25.6024 25.9059 30.815 25.9813 31.067 25.8211C31.4632 25.5691 31.5549 20.8782 31.1691 20.608C30.8881 20.4111 25.7073 20.3879 25.4415 20.5823ZM34.2995 20.5745C34.1103 20.7637 34.1426 25.5558 34.3344 25.7473C34.5812 25.9944 39.8856 25.9656 40.1947 25.7157L40.4157 25.5368V23.1196V20.7024L40.1816 20.5837C39.8552 20.4181 34.4641 20.4099 34.2995 20.5745ZM7.74853 28.2971C7.22894 28.3884 7.20014 28.5465 7.23081 31.1271C7.2561 33.2327 7.27624 33.4921 7.4261 33.642C7.68508 33.9012 12.9052 33.9504 13.1339 33.6961C13.4746 33.3174 13.4709 28.6151 13.13 28.4327C12.9572 28.3402 8.18641 28.22 7.74853 28.2971ZM16.5082 28.4142L16.2038 28.608V30.7988C16.2038 33.3577 16.2267 33.5336 16.5864 33.7195C16.9702 33.9181 21.5859 33.9188 22.0608 33.7202L22.3855 33.5846V31.0487V28.5125L22.1376 28.4181C21.5737 28.2039 16.8435 28.2004 16.5082 28.4142ZM35.7794 28.3299C35.0324 28.3556 34.3686 28.4109 34.3042 28.4526C34.1033 28.5825 34.1389 33.512 34.3419 33.6806C34.5828 33.8808 39.6934 33.9195 40.0718 33.7239C40.6103 33.4453 40.6768 28.6275 40.1448 28.4284C39.8758 28.328 37.4361 28.2727 35.7794 28.3299ZM25.453 28.431C25.2179 28.568 25.2015 33.3146 25.435 33.6478C25.5799 33.8548 25.597 33.856 28.2753 33.856H30.97L31.1735 33.6392C31.4596 33.3348 31.4955 28.6743 31.2133 28.4603C31.0077 28.3041 25.7169 28.2774 25.453 28.431ZM7.74292 36.2655C7.27226 36.336 7.21208 36.6622 7.21208 39.1398C7.21208 41.3287 7.21301 41.3397 7.43804 41.6015L7.664 41.8642L9.75621 41.8958C12.4736 41.937 12.9801 41.8858 13.1482 41.5521C13.466 40.9217 13.3974 36.5687 13.0658 36.3264C12.896 36.2023 8.50042 36.1519 7.74292 36.2655ZM16.6475 36.2596C16.2593 36.3671 16.2038 36.7233 16.2038 39.1019V41.3596L16.5082 41.6418L16.8126 41.9239L19.3113 41.8942C21.6814 41.8659 21.8236 41.8541 22.0743 41.6668L22.3387 41.4694L22.3638 39.0801C22.3872 36.8394 22.3773 36.6767 22.2083 36.4676L22.0277 36.2444L19.4202 36.2292C17.9859 36.2208 16.7383 36.2346 16.6475 36.2596ZM25.7413 36.2601C25.3397 36.3278 25.2889 36.6521 25.2912 39.1386C25.2931 41.2193 25.3074 41.4142 25.4731 41.6301L25.653 41.8642H28.2891H30.9251L31.1557 41.5963L31.3861 41.3282L31.3583 38.9534C31.3332 36.8216 31.3133 36.5615 31.1632 36.4116C31.0002 36.2484 26.5482 36.1241 25.7413 36.2601ZM34.585 36.2636C34.2323 36.3315 34.2005 36.5432 34.1698 39.033C34.1309 42.1984 33.7628 41.8642 37.2888 41.8642H40.0104L40.2366 41.6015C40.4619 41.3395 40.4626 41.3313 40.4572 39.1662C40.4516 36.7825 40.3886 36.3898 39.9942 36.281C39.7428 36.2114 34.936 36.1962 34.585 36.2636Z" fill="url(#paint0_linear)"/>
<defs>
<linearGradient id="paint0_linear" x1="23.9729" y1="2.78507" x2="23.9729" y2="45.3138" gradientUnits="userSpaceOnUse">
<stop stop-color="#FF4B8A"/>
<stop offset="1" stop-color="#FF7B3C"/>
</linearGradient>
</defs>
</svg>
