<svg width="52" height="48" viewBox="0 0 52 48" fill="none" xmlns="http://www.w3.org/2000/svg">
<path fill-rule="evenodd" clip-rule="evenodd" d="M47.3023 9.45142C47.3023 13.0144 44.4139 15.9028 40.8508 15.9028C37.2878 15.9028 34.3994 13.0144 34.3994 9.45142C34.3994 5.8884 37.2878 3 40.8508 3C44.4139 3 47.3023 5.8884 47.3023 9.45142ZM50.3023 9.45142C50.3023 14.6713 46.0707 18.9028 40.8508 18.9028C35.631 18.9028 31.3994 14.6713 31.3994 9.45142C31.3994 4.23154 35.631 0 40.8508 0C46.0707 0 50.3023 4.23154 50.3023 9.45142ZM30.038 37.3903L18.7865 25.1604L4.99167 44.2951H49.1903C50.2121 44.2951 51.0403 45.1234 51.0403 46.1451C51.0403 47.1669 50.2121 47.9951 49.1903 47.9951H2.35417C0.438017 47.9951 -0.672657 45.8252 0.447903 44.2709L16.7531 21.654C17.6231 20.4472 19.3815 20.3423 20.3888 21.4372L32.7609 34.8852C33.4527 35.6371 33.4039 36.8075 32.652 37.4992C31.9001 38.191 30.7297 38.1422 30.038 37.3903ZM38.8647 27.6449C38.1659 26.8995 36.9952 26.8618 36.2498 27.5606C35.5044 28.2594 35.4666 29.4301 36.1654 30.1755L44.5049 39.0709C45.2037 39.8163 46.3745 39.8541 47.1198 39.1553C47.8652 38.4565 47.903 37.2857 47.2042 36.5404L38.8647 27.6449Z" fill="url(#paint0_linear)"/>
<defs>
<linearGradient id="paint0_linear" x1="25.5202" y1="2.78479" x2="25.5202" y2="45.3092" gradientUnits="userSpaceOnUse">
<stop stop-color="#FF4B8A"/>
<stop offset="1" stop-color="#FF7B3C"/>
</linearGradient>
</defs>
</svg>
