<svg width="51" height="48" viewBox="0 0 51 48" fill="none" xmlns="http://www.w3.org/2000/svg">
<path fill-rule="evenodd" clip-rule="evenodd" d="M25.6948 4.00162C16.5113 4.00162 8.76884 10.1934 6.42405 18.6338C6.25873 19.2288 6.12023 19.8352 6.00995 20.4515C5.8153 21.5392 4.77572 22.2632 3.68798 22.0685C2.60024 21.8739 1.87625 20.8343 2.0709 19.7466C2.20335 19.0064 2.36975 18.2779 2.56844 17.5627C5.38186 7.43547 14.6674 0 25.6948 0C30.9632 0 35.8404 1.69986 39.8002 4.58058C40.6937 5.23065 40.8911 6.48202 40.2411 7.37559C39.591 8.26916 38.3396 8.46656 37.446 7.81648C34.1474 5.41669 30.0893 4.00162 25.6948 4.00162ZM47.694 21.9992C48.799 21.9992 49.6948 22.895 49.6948 24C49.6948 28.099 48.6656 31.9635 46.8498 35.3434C46.3269 36.3168 45.1138 36.682 44.1404 36.159C43.1669 35.6361 42.8017 34.423 43.3247 33.4496C44.8354 30.6376 45.6932 27.4219 45.6932 24C45.6932 22.895 46.589 21.9992 47.694 21.9992ZM7.64513 36.7373C8.48623 36.0206 9.74905 36.1215 10.4657 36.9625C14.1369 41.2711 19.5963 43.9984 25.6948 43.9984C27.1896 43.9984 28.6437 43.8347 30.0413 43.5252C31.1201 43.2862 32.1884 43.967 32.4274 45.0459C32.6664 46.1248 31.9856 47.1931 30.9067 47.4321C29.2269 47.8042 27.4825 48 25.6948 48C18.3749 48 11.8189 44.7206 7.41986 39.5579C6.70318 38.7168 6.80404 37.4539 7.64513 36.7373Z" fill="url(#paint0_linear)"/>
<path fill-rule="evenodd" clip-rule="evenodd" d="M43.731 14.7821C43.6931 14.525 43.702 14.253 43.7676 13.9772C43.7823 13.9155 43.7999 13.8535 43.8204 13.7915C44.1797 12.7049 45.2404 12.2555 46.1263 12.5659C46.184 12.5861 46.2405 12.6094 46.2957 12.6357C47.0747 13.0059 47.5846 13.9563 47.3462 14.9575C47.3315 15.0193 47.3139 15.0812 47.2934 15.1432C46.9341 16.2298 45.8733 16.6793 44.9874 16.3688C44.9298 16.3486 44.8733 16.3253 44.8181 16.2991C44.8146 16.2974 44.8111 16.2957 44.8075 16.294C44.7068 16.2453 44.6107 16.1869 44.5202 16.1199C44.1858 15.8726 43.9279 15.5085 43.7992 15.0857C43.7692 14.9874 43.7463 14.886 43.731 14.7821ZM40.3991 15.3771C40.256 14.5186 40.3135 13.6118 40.6056 12.7284C41.5376 9.91014 44.5084 8.41105 47.2462 9.37047C49.9839 10.3299 51.4402 13.388 50.5082 16.2063C49.5762 19.0246 46.6054 20.5237 43.8676 19.5643C43.5822 19.4642 43.3108 19.3414 43.0545 19.1984C42.8671 19.0939 42.6879 18.9786 42.5172 18.8536L34.7801 25.8058C34.79 26.094 34.777 26.3822 34.7419 26.6677C34.6486 27.4266 34.3983 28.1658 34.0019 28.8322C33.8899 29.0206 33.7661 29.2032 33.631 29.3788L38.5313 36.4842C38.7335 36.4114 38.9413 36.3504 39.1536 36.3021C39.6487 36.1895 40.1687 36.1456 40.7011 36.1798C40.7299 36.1816 40.7587 36.1837 40.7876 36.186C40.8173 36.189 40.847 36.1922 40.8765 36.1957C43.699 36.5248 45.7278 39.0042 45.5455 41.7805C45.5437 41.8086 45.5416 41.8368 45.5393 41.8649C45.5366 41.8919 45.5337 41.9187 45.5307 41.9456C45.2065 44.7715 42.7815 46.8041 39.9489 46.623C39.9194 46.6211 39.89 46.619 39.8604 46.6166C39.8305 46.6136 39.8006 46.6104 39.7708 46.6069C36.9213 46.2743 34.881 43.75 35.1084 40.9413C35.1085 40.9404 35.1086 40.9395 35.1086 40.9385C35.1087 40.9384 35.1087 40.9382 35.1087 40.938C35.1087 40.9381 35.1087 40.9379 35.1087 40.938C35.1087 40.9372 35.1088 40.9361 35.1089 40.9353C35.1584 40.3198 35.3125 39.741 35.5524 39.2132C35.6484 39.0019 35.7582 38.7987 35.8805 38.6047L30.8519 31.3131C30.8366 31.3178 30.8213 31.3224 30.8061 31.327C30.6095 31.3854 30.4107 31.4323 30.2107 31.4678C28.2034 31.8236 26.0703 31.0309 24.7904 29.29C24.7211 29.1958 24.6544 29.0988 24.5903 28.9991C24.5279 28.9021 24.4689 28.8039 24.4133 28.7046L11.0663 29.8552C11.0508 30.0641 11.0234 30.2728 10.9838 30.4802C10.9316 30.7535 10.8582 31.0244 10.763 31.2908C10.6461 31.618 10.4963 31.9382 10.3124 32.2471C8.77042 34.8377 5.38663 35.7093 2.72749 34.1898C2.71499 34.1827 2.70251 34.1755 2.69005 34.1682C2.67705 34.1605 2.66409 34.1527 2.65117 34.1449C0.0907666 32.5922 -0.764526 29.2291 0.747381 26.5833C0.754521 26.5708 0.761714 26.5583 0.76896 26.5458C0.776699 26.5328 0.784485 26.5199 0.792317 26.5069C2.33292 23.9663 5.65622 23.1046 8.29241 24.5685C8.3255 24.5869 8.35849 24.6056 8.39135 24.6247C8.42371 24.6448 8.45581 24.6651 8.48763 24.6857C9.02667 25.0343 9.48838 25.4613 9.86638 25.9421C9.86637 25.9421 9.86639 25.9422 9.86638 25.9421C10.0132 26.1289 10.1473 26.3238 10.2685 26.5254L23.7366 25.3644C23.7603 25.1532 23.7961 24.9437 23.8437 24.7372C24.1536 23.3934 24.9649 22.1716 26.2137 21.3834C26.2271 21.3749 26.2405 21.3665 26.254 21.3582C26.2539 21.3582 26.254 21.3582 26.254 21.3582C26.2672 21.3495 26.2805 21.3408 26.2938 21.3322C28.4384 19.9466 31.2337 20.2774 33.0404 21.9892C33.1061 22.0515 33.1704 22.1155 33.2334 22.1814C33.3122 22.2638 33.3888 22.349 33.4631 22.437L40.5584 16.0615C40.4911 15.8379 40.4377 15.6093 40.3991 15.3771ZM31.0568 24.8686L31.0467 24.8529C30.9938 24.7706 30.9366 24.6934 30.8756 24.6211C30.8292 24.5663 30.7807 24.5143 30.7302 24.4652C30.0158 23.7712 28.9126 23.6616 28.1163 24.186L28.0766 24.2122L28.0362 24.2371C27.6018 24.5061 27.2959 24.9358 27.1621 25.4241C27.1337 25.5278 27.1131 25.6341 27.1006 25.7421C27.051 26.1721 27.131 26.6284 27.3671 27.0493C27.3895 27.0893 27.4133 27.1289 27.4385 27.1681C27.4719 27.2201 27.5072 27.2702 27.544 27.3182C28.034 27.9579 28.8078 28.2417 29.5303 28.1456C29.6408 28.1309 29.7502 28.1073 29.8571 28.0747C30.0364 28.0202 30.2088 27.9404 30.3689 27.8349L30.3845 27.8247L30.4002 27.8146C30.618 27.6746 30.8008 27.504 30.948 27.3133C31.0146 27.227 31.0739 27.1365 31.1258 27.0428C31.2745 26.7745 31.3625 26.4801 31.3881 26.1826C31.3956 26.0958 31.3977 26.0086 31.3945 25.9218C31.3811 25.5567 31.2729 25.1968 31.067 24.8842L31.0568 24.8686ZM7.3273 26.161L7.18938 26.1729L7.21915 26.5183L6.60747 27.5064C5.54177 26.9421 4.27133 27.319 3.69658 28.2479C3.69345 28.253 3.69035 28.2581 3.68726 28.2631C3.68445 28.2681 3.68166 28.273 3.67889 28.2779C3.61855 28.3853 3.56796 28.4949 3.5267 28.6059C3.47698 28.7396 3.44083 28.8752 3.41752 29.0111C3.35112 29.3983 3.38907 29.7877 3.51496 30.1413C3.55831 30.263 3.6121 30.3806 3.67565 30.4923C3.84753 30.7944 4.09079 31.0541 4.39216 31.2406C4.39721 31.2437 4.40228 31.2468 4.40736 31.2499C4.41229 31.2527 4.41722 31.2555 4.42215 31.2583C5.50939 31.8693 6.82796 31.4811 7.40289 30.5152C7.45586 30.4263 7.50148 30.3339 7.53985 30.2391C7.55092 30.2118 7.56138 30.1842 7.57124 30.1565L7.53301 30.1598L7.49097 29.672L7.37049 28.2745C7.36942 28.2727 7.36836 28.2709 7.36729 28.2692C7.31447 28.1814 7.25534 28.0966 7.18995 28.0154C7.05071 27.8426 6.88314 27.6866 6.6879 27.5547C6.67496 27.5459 6.66189 27.5373 6.64871 27.5288C6.635 27.5212 6.62125 27.5137 6.60747 27.5064M38.491 41.1373C38.4882 41.1606 38.4858 41.1841 38.4839 41.2078L38.4837 41.2105L38.4835 41.2132C38.4806 41.2482 38.4787 41.2831 38.4779 41.3178C38.4543 42.2391 39.115 43.064 40.0548 43.2279C40.0799 43.2323 40.1051 43.2362 40.1306 43.2396C40.1418 43.2411 40.153 43.2425 40.1642 43.2439C40.1754 43.2446 40.1865 43.2452 40.1975 43.2457C40.2137 43.2465 40.2299 43.2471 40.246 43.2475C41.2263 43.271 42.0342 42.5868 42.1631 41.5893C42.1644 41.5793 42.1656 41.5693 42.1668 41.5593C42.1675 41.5488 42.1681 41.5383 42.1686 41.5278C42.1688 41.5233 42.169 41.5187 42.1692 41.5141C42.1692 41.514 42.1692 41.5139 42.1692 41.5138C42.1692 41.5129 42.1693 41.512 42.1693 41.511C42.1694 41.5089 42.1695 41.5067 42.1696 41.5045C42.1696 41.5039 42.1696 41.5032 42.1696 41.5026C42.1696 41.5023 42.1697 41.502 42.1697 41.5017C42.2018 40.5737 41.5389 39.7398 40.5934 39.5748C40.5683 39.5704 40.543 39.5665 40.5174 39.563C40.5062 39.5615 40.4949 39.5601 40.4835 39.5588C40.4725 39.5581 40.4615 39.5574 40.4505 39.5569C40.4334 39.556 40.4163 39.5554 40.3993 39.555C40.2589 39.5514 40.1231 39.5618 39.9932 39.5847C39.8838 39.604 39.7785 39.6321 39.6779 39.6681C39.2814 39.8103 38.9583 40.0762 38.7477 40.4122C38.688 40.5076 38.6373 40.6085 38.5966 40.7139C38.5445 40.8487 38.5087 40.9906 38.491 41.1373Z" fill="url(#paint1_linear)"/>
<defs>
<linearGradient id="paint0_linear" x1="49.6948" y1="0" x2="-7.8351" y2="25.6714" gradientUnits="userSpaceOnUse">
<stop stop-color="#00E1FD"/>
<stop offset="1" stop-color="#00AAFE"/>
</linearGradient>
<linearGradient id="paint1_linear" x1="50.7898" y1="9.08057" x2="-2.89564" y2="41.7141" gradientUnits="userSpaceOnUse">
<stop stop-color="#00E1FD"/>
<stop offset="1" stop-color="#00AAFE"/>
</linearGradient>
</defs>
</svg>
