<svg width="55" height="52" viewBox="0 0 55 52" fill="none" xmlns="http://www.w3.org/2000/svg">
<path fill-rule="evenodd" clip-rule="evenodd" d="M2.00002 20.0702C2.00002 10.0862 10.1047 2 20.0931 2H34.61C44.5984 2 52.7031 10.0862 52.7031 20.0702C52.7031 30.0543 44.5984 38.1404 34.61 38.1404H34.227V47.0837C34.227 48.1285 33.668 49.0936 32.7617 49.6134C31.8553 50.1333 30.7401 50.1285 29.8382 49.601L11.9208 39.12L11.8769 39.0921C7.09281 36.0597 4.53467 32.4821 3.24071 28.9224C1.99926 25.5071 1.99971 22.2884 2.00001 20.1672C2.00001 20.1346 2.00002 20.1023 2.00002 20.0702ZM20.0931 7.83263C13.3177 7.83263 7.83265 13.3157 7.83265 20.0702C7.83265 22.2231 7.8525 24.5366 8.72242 26.9298C9.55574 29.2222 11.2488 31.777 14.9568 34.1387L28.3944 41.9991V32.3078H34.61C41.3854 32.3078 46.8704 26.8247 46.8704 20.0702C46.8704 13.3157 41.3854 7.83263 34.61 7.83263H20.0931Z" stroke="url(#paint0_linear)" stroke-width="3"/>
<defs>
<linearGradient id="paint0_linear" x1="57.1396" y1="-16.7742" x2="0.609716" y2="54.9018" gradientUnits="userSpaceOnUse">
<stop stop-color="#00ADFE"/>
<stop offset="1" stop-color="#3B7DFF"/>
</linearGradient>
</defs>
</svg>
