<svg width="58" height="40" viewBox="0 0 58 40" fill="none" xmlns="http://www.w3.org/2000/svg">
<path fill-rule="evenodd" clip-rule="evenodd" d="M36.5618 22.2241L39.049 15.9592C39.4675 14.9053 40.1421 12.7763 40.5647 11.1977C41.1154 9.14054 41.9605 8.11997 42.638 7.76265C43.1623 7.48614 43.9109 7.44197 44.9641 8.34682C44.963 8.34585 44.9636 8.34669 44.9657 8.34963C44.9871 8.3796 45.165 8.62829 45.2145 9.42793C45.2387 9.81839 45.2279 10.2784 45.1787 10.8031C45.1251 11.3753 45.0258 12.0246 44.8766 12.7448C44.307 15.4938 43.0627 19.0236 41.2447 22.721C40.8704 23.4823 40.5498 24.1632 40.3594 24.7308C40.1973 25.2139 39.9627 26.0617 40.3581 26.8726C40.8028 27.7844 41.7085 28.0306 42.2204 28.1212C42.7829 28.2209 43.4857 28.2341 44.2251 28.2341C46.1216 28.2341 47.8118 27.711 49.2003 26.6995C50.5827 25.6925 51.584 24.2618 52.2141 22.5725C53.4623 19.2257 53.2979 14.7753 51.7414 9.94912C51.0419 7.78028 50.904 6.55755 51.0381 5.87444C51.0405 5.86257 51.0429 5.85086 51.0454 5.83932C51.1053 5.56181 51.2052 5.41372 51.3259 5.30327C51.4674 5.17371 51.7278 5.01648 52.2193 4.88088C52.9765 4.67203 53.4635 4.69319 53.8013 4.80345C54.1206 4.90767 54.4875 5.15024 54.8966 5.75124C55.7838 7.05451 56.5646 9.57306 57.3336 13.9626C58.4639 20.4134 56.7801 25.7998 53.6045 29.1323C50.4566 32.4359 45.6941 33.8877 40.2073 32.2426L36.1455 31.025L33.3722 33.5893C22.4287 43.7079 4.04763 38.8805 0.551118 25.4492C-0.334905 22.0455 -0.0978027 16.281 0.871248 11.0347C1.3507 8.43903 1.99328 6.06044 2.71574 4.25286C3.07759 3.34752 3.44367 2.62561 3.79437 2.10241C4.16216 1.55372 4.42801 1.35183 4.53688 1.29872C5.39817 0.878541 6.00666 0.817432 6.38282 0.876623C6.71876 0.929485 6.9655 1.08888 7.16129 1.38802C7.61869 2.08688 7.85695 3.73132 6.93945 6.27245C5.68861 9.73637 4.90057 13.671 4.63266 17.2032C4.37032 20.6621 4.58438 24.0074 5.56886 26.1346C9.8834 35.4559 22.9786 36.999 30.6476 29.6577L33.0602 27.3481L32.2329 25.006C32.0057 24.3626 31.6076 22.5356 31.3823 20.9697C30.8457 17.2395 29.801 13.7413 28.4191 10.8715C27.0539 8.03658 25.2853 5.66227 23.2087 4.38012C22.2043 3.76002 21.7529 2.73892 21.7797 1.84305C21.8059 0.968361 22.2562 0.330917 23.0358 0.11174C24.6991 -0.355896 27.0222 0.610405 29.4917 3.66819C31.8773 6.62202 34.0194 11.1174 35.2331 16.4186L36.5618 22.2241Z" fill="url(#paint0_linear)"/>
<defs>
<linearGradient id="paint0_linear" x1="28.8428" y1="-1.33228" x2="28.8428" y2="39.0042" gradientUnits="userSpaceOnUse">
<stop stop-color="#1E8CFF"/>
<stop offset="1" stop-color="#6566FF"/>
</linearGradient>
</defs>
</svg>
