<svg width="49" height="48" viewBox="0 0 49 48" fill="none" xmlns="http://www.w3.org/2000/svg">
<path fill-rule="evenodd" clip-rule="evenodd" d="M13.0135 2.78169C16.4732 0.966942 20.3263 0.0105033 24.2447 0L24.2533 1.26548e-07C28.1717 0.0105756 32.0247 0.966944 35.4844 2.78169C35.8057 2.60924 36.1876 2.42695 36.6021 2.2445C37.5593 1.82315 38.7815 1.36077 40.031 0.972723C41.2695 0.588126 42.6001 0.255979 43.7564 0.126428C44.3311 0.0620413 44.9303 0.0395257 45.4841 0.1152C46.0034 0.186154 46.7189 0.374707 47.2625 0.942117C47.7731 1.47515 47.9713 2.19587 48.0705 2.69728C48.1833 3.26707 48.2328 3.92044 48.2459 4.5888C48.2721 5.93254 48.1532 7.53525 47.9686 9.07069C47.7832 10.612 47.5252 12.1367 47.2575 13.3365C47.1244 13.9328 46.9826 14.4776 46.8375 14.9149C46.8088 15.0015 46.7783 15.0888 46.7459 15.1753C47.8978 18.0284 48.4924 21.0765 48.4979 24.1559V24.161C48.485 33.137 43.5085 41.1677 35.8859 45.3202C35.8825 45.3221 35.8791 45.3239 35.8757 45.3257L35.8707 45.3284C32.4726 47.1321 28.268 48 24.1589 48C20.0541 48 15.8991 47.1337 12.6082 45.3181C4.98778 41.165 0.0128936 33.1355 0 24.161V24.1564C0.00449472 21.0764 0.600091 18.0282 1.75202 15.1753C1.71966 15.0888 1.68919 15.0015 1.66048 14.9149C1.51539 14.4776 1.37357 13.9328 1.24049 13.3365C0.972745 12.1367 0.714756 10.6119 0.529379 9.07068C0.344702 7.53524 0.225869 5.93253 0.252062 4.58879C0.26509 3.92043 0.314631 3.26706 0.4274 2.69727C0.526635 2.19586 0.724836 1.47514 1.23547 0.942106L1.23548 0.942104C1.77905 0.374698 2.49456 0.186146 3.01385 0.115192C3.56768 0.0395182 4.16681 0.0620338 4.74151 0.126421C5.89782 0.255971 7.22848 0.588119 8.46693 0.972716C9.71648 1.36076 10.9387 1.82314 11.8958 2.24449C12.3103 2.42695 12.6923 2.60924 13.0135 2.78169ZM24.249 3.18467C20.581 3.19525 16.9795 4.1595 13.801 5.98148C13.7951 5.98487 13.7892 5.98822 13.7832 5.99154C13.7093 6.03266 13.6452 6.06131 13.6018 6.07946C13.593 6.08314 13.5848 6.08651 13.5773 6.08953C12.9599 6.36965 12.2335 6.22513 11.7699 5.73961C11.734 5.71634 11.678 5.68213 11.5978 5.63722C11.3702 5.50983 11.0364 5.34575 10.6127 5.15925C9.76987 4.7882 8.66095 4.36767 7.52243 4.01411C6.37281 3.6571 5.25844 3.38894 4.38692 3.29129C4.02859 3.25115 3.75594 3.24522 3.56329 3.25866C3.55942 3.27645 3.55547 3.2954 3.55148 3.31556C3.48925 3.62999 3.4473 4.07773 3.43613 4.65086C3.41392 5.79009 3.51584 7.23187 3.69126 8.69038C3.86599 10.1431 4.10745 11.5617 4.34871 12.6428C4.47013 13.1869 4.58519 13.6169 4.68316 13.9121C4.71679 14.0135 4.74378 14.0849 4.7629 14.1312C5.11875 14.5869 5.20439 15.2099 4.96432 15.7539C3.79507 18.4034 3.18921 21.265 3.18467 24.1587C3.19671 31.9422 7.51195 38.9153 14.1355 42.5236L14.1433 42.5279C16.8556 44.0252 20.4521 44.8153 24.1589 44.8153C27.8596 44.8153 31.525 44.0275 34.3699 42.5195C40.9891 38.9101 45.301 31.9396 45.3133 24.1592C45.3078 21.2648 44.7027 18.4031 43.5336 15.7539C43.2936 15.2099 43.3792 14.587 43.735 14.1313C43.7542 14.0849 43.7812 14.0135 43.8148 13.9122C43.9128 13.6169 44.0278 13.1869 44.1492 12.6428C44.3905 11.5618 44.632 10.1431 44.8067 8.69039C44.9821 7.23188 45.084 5.7901 45.0618 4.65087C45.0506 4.07774 45.0087 3.63 44.9465 3.31557C44.9425 3.29541 44.9385 3.27645 44.9347 3.25866C44.742 3.24522 44.4694 3.25115 44.111 3.2913C43.2395 3.38894 42.1251 3.6571 40.9755 4.01412C39.837 4.36768 38.7281 4.78821 37.8852 5.15926C37.4615 5.34575 37.1277 5.50984 36.9002 5.63723C36.8199 5.68214 36.7639 5.71635 36.7281 5.73962C36.2643 6.2253 35.5377 6.36969 34.9203 6.08937C34.9129 6.08641 34.9049 6.08312 34.8963 6.07953C34.8526 6.06126 34.7879 6.03234 34.7133 5.99075C34.7079 5.9877 34.7024 5.98461 34.6969 5.98149C31.5184 4.15951 27.917 3.19532 24.249 3.18467ZM45.1726 3.29515C45.1724 3.29529 45.1685 3.29418 45.1616 3.29139C45.1693 3.29361 45.1727 3.295 45.1726 3.29515ZM43.7132 14.1811C43.6969 14.2152 43.6962 14.2099 43.7138 14.1798C43.7136 14.1802 43.7134 14.1806 43.7132 14.1811ZM4.78472 14.1811C4.78452 14.1806 4.7843 14.1802 4.78409 14.1797C4.80175 14.2099 4.80103 14.2152 4.78472 14.1811ZM3.32538 3.29514C3.32519 3.295 3.32865 3.2936 3.33632 3.29138C3.32941 3.29417 3.32557 3.29528 3.32538 3.29514ZM11.8235 5.77747C11.8231 5.77746 11.8167 5.77292 11.8058 5.76387C11.8185 5.77295 11.824 5.77747 11.8235 5.77747Z" fill="url(#paint0_linear)"/>
<path d="M17.414 31.4695C19.7937 31.4695 21.7529 33.3624 22.004 35.7944C22.0341 36.086 21.7936 36.3245 21.5004 36.3245H13.3276C13.0344 36.3245 12.7939 36.086 12.824 35.7944C13.0751 33.3624 15.0343 31.4695 17.414 31.4695ZM31.7076 31.4695C34.0873 31.4695 36.0465 33.3624 36.2976 35.7944C36.3278 36.086 36.0872 36.3245 35.7941 36.3245H27.6212C27.3281 36.3245 27.0875 36.086 27.1176 35.7944C27.3687 33.3624 29.328 31.4695 31.7076 31.4695Z" fill="url(#paint1_linear)"/>
<defs>
<linearGradient id="paint0_linear" x1="24.249" y1="0" x2="24.249" y2="48" gradientUnits="userSpaceOnUse">
<stop stop-color="#FF4B8B"/>
<stop offset="1" stop-color="#FF4972"/>
</linearGradient>
<linearGradient id="paint1_linear" x1="24.5608" y1="31.4695" x2="24.5608" y2="36.3245" gradientUnits="userSpaceOnUse">
<stop stop-color="#FF4B8B"/>
<stop offset="1" stop-color="#FF4972"/>
</linearGradient>
</defs>
</svg>
