<svg width="68" height="50" viewBox="0 0 68 50" fill="none" xmlns="http://www.w3.org/2000/svg">
<path d="M2.60473 39.1643L7.94944 25.0649C8.37254 23.9487 9.41711 23.1896 10.6094 23.1318L18.1761 22.7649C20.3162 22.6612 21.872 24.7695 21.1418 26.7838L18.098 35.1799C16.8508 38.1342 18.975 38.6784 20.2418 38.6784H21.4546C22.7156 38.6784 23.842 37.8899 24.2735 36.7051L30.7457 18.9346C31.1689 17.7727 32.2618 16.9894 33.4981 16.962L40.274 16.8119C42.3682 16.7655 43.8641 18.8251 43.1721 20.8022L38.8789 33.0683C38.1715 35.0894 39.7485 37.1796 41.8862 37.0542L42.0067 37.0471C43.223 36.9758 44.2753 36.176 44.6696 35.0232L50.4655 18.0783C50.8665 16.9058 51.9472 16.1006 53.1854 16.0516L59.0436 15.8197C61.1474 15.7365 62.6802 17.7896 62.0025 19.783L54.3941 42.1635C54.0101 43.293 52.9933 44.0877 51.8044 44.1874L10.8873 47.6189C1.22105 48.3186 1.33798 42.274 2.60473 39.1643Z" stroke="url(#paint0_linear)" stroke-width="3"/>
<path d="M65.5016 7.57283L66.0069 6.07245C66.6728 4.09574 65.168 2.05966 63.083 2.11593L27.0061 3.08951C17.5507 3.52322 12.8455 9.23365 10.9322 13.866C10.2127 15.6079 11.6874 17.2688 13.5698 17.179L22.2554 16.7645C23.5719 16.7017 24.6431 15.7633 25.1851 14.5619C26.3759 11.9226 28.221 11.0183 30.6766 10.9392L62.7824 9.61266C64.0237 9.56137 65.105 8.75023 65.5016 7.57283Z" stroke="url(#paint1_linear)" stroke-width="3"/>
<defs>
<linearGradient id="paint0_linear" x1="68.7819" y1="3.11998" x2="40.4285" y2="68.3744" gradientUnits="userSpaceOnUse">
<stop stop-color="#00ADFE"/>
<stop offset="1" stop-color="#3B7DFF"/>
</linearGradient>
<linearGradient id="paint1_linear" x1="22.8952" y1="12.7734" x2="59.9346" y2="-0.0701064" gradientUnits="userSpaceOnUse">
<stop stop-color="#3BC791"/>
<stop offset="0.0001" stop-color="#3BC791"/>
<stop offset="1" stop-color="#21C879"/>
</linearGradient>
</defs>
</svg>
