<svg width="25" height="23" viewBox="0 0 25 23" fill="none" xmlns="http://www.w3.org/2000/svg">
<path d="M24.7109 12.8826L23.4109 8.87429C23.4038 8.83712 23.393 8.80075 23.3787 8.7657L20.7715 0.709519C20.7014 0.501917 20.568 0.321696 20.3902 0.194366C20.2124 0.0670352 19.9992 -0.000955278 19.7808 1.74412e-05C19.5628 -0.00125936 19.3503 0.0675961 19.1742 0.196479C18.9981 0.325363 18.8679 0.507486 18.8025 0.716122L16.3166 8.39298H8.47077L5.98124 0.715389C5.91619 0.507488 5.78659 0.325915 5.61137 0.197207C5.43615 0.0684988 5.2245 -0.000597202 5.00736 1.74412e-05H5.00151C4.78285 5.56171e-05 4.56976 0.069278 4.39256 0.197841C4.21536 0.326404 4.08306 0.507761 4.01447 0.716122L1.40503 8.78258C1.40503 8.78918 1.39919 8.79579 1.39699 8.80239L0.0736286 12.8826C-0.0240367 13.1817 -0.0245527 13.5042 0.0721548 13.8037C0.168862 14.1031 0.357801 14.3641 0.611748 14.5488L12.0453 22.8882C12.146 22.9615 12.2674 23.0007 12.3917 23C12.5161 22.9993 12.6371 22.9589 12.737 22.8846L24.1727 14.5488C24.4267 14.3641 24.6156 14.1031 24.7123 13.8037C24.809 13.5042 24.8085 13.1817 24.7109 12.8826ZM7.61972 9.57132L10.8075 19.4141L3.15685 9.57132H7.61972ZM13.9806 19.4163L17.0368 9.98L17.1691 9.57132H21.6357L14.714 18.4698L13.9806 19.4163ZM19.791 1.47185L22.0312 8.39298H17.5479L19.791 1.47185ZM15.9372 9.56692L13.7167 16.4242L12.3919 20.5073L8.8517 9.56692H15.9372ZM4.99639 1.47185L7.24099 8.39298H2.76057L4.99639 1.47185ZM1.29975 13.5994C1.24588 13.5602 1.20581 13.5048 1.18531 13.4412C1.16481 13.3777 1.16495 13.3092 1.18569 13.2458L2.16835 10.2163L9.37519 19.4882L1.29975 13.5994ZM23.4847 13.5994L15.4086 19.4845L15.4363 19.4493L22.6161 10.2163L23.5981 13.245C23.6189 13.3085 23.6192 13.3771 23.5989 13.4407C23.5785 13.5044 23.5385 13.56 23.4847 13.5994Z" fill="url(#paint0_linear)"/>
<defs>
<linearGradient id="paint0_linear" x1="23.7865" y1="7.27474e-07" x2="5.68043" y2="21.5689" gradientUnits="userSpaceOnUse">
<stop stop-color="#FF7F37"/>
<stop offset="1" stop-color="#FF5C63"/>
</linearGradient>
</defs>
</svg>
