<svg width="43" height="32" viewBox="0 0 65 45" fill="none" xmlns="http://www.w3.org/2000/svg">
<path fill-rule="evenodd" clip-rule="evenodd" fill="white"

      d="M32.456 1.053a3.595 3.595 0 00-5.083 0l-9.32 9.32a3.594 3.594 0 000 5.084L34.69 32.093a1.416 1.416 0 102.003-2.003L20.056 13.454a.762.762 0 010-1.079l9.32-9.32a.762.762 0 011.078 0l5.82 5.821a5.01 5.01 0 102.013-1.992l-5.83-5.831zm-2.733 10.006a1.416 1.416 0 00-2.003 2.003l17.1 17.099a.763.763 0 010 1.078l-9.706 9.705a.762.762 0 01-1.078 0l-7.547-7.546a5.01 5.01 0 10-2.11 1.895l7.654 7.654a3.595 3.595 0 005.084 0l9.705-9.705a3.595 3.595 0 000-5.084l-17.1-17.1zm-5.859 21.143a1.417 1.417 0 00-.462.4 2.179 2.179 0 11.462-.4zM40.662 9.119a2.179 2.179 0 100 4.357 2.179 2.179 0 000-4.357z"
/>
</svg>
