<svg width="196" height="196" viewBox="0 0 196 196" fill="none" xmlns="http://www.w3.org/2000/svg">
<path d="M74.7628 56.9861C82.8675 39.6727 87.809 27.1638 94.3767 10.8912C95.7069 7.5952 100.35 7.56913 101.735 10.8424C115.758 43.9813 122.876 61.4127 164.5 139.279M177.75 163.926C180.798 169.577 183.934 175.399 187.243 181.525C189.162 185.077 185.176 188.973 181.636 187.032C159.127 174.69 140.408 166.498 122.898 162.468C120.708 161.965 119.302 159.807 119.607 157.581C119.892 155.503 120.063 153.349 120.118 151.145C120.601 131.65 111.261 115.012 99.2459 113.994C87.2305 112.976 77.0875 127.968 76.6045 147.462L76.5683 148.437C76.5438 151.516 76.7782 154.509 77.221 157.373C77.5688 159.622 76.1457 161.816 73.9243 162.312C56.2551 166.258 37.3648 174.446 14.6146 186.897C11.0539 188.846 7.06617 184.889 9.03492 181.34C33.7272 136.819 49.7077 107.072 60.9805 85" stroke="url(#paint0_linear)" stroke-width="15" stroke-linecap="round"/>
<defs>
<linearGradient id="paint0_linear" x1="98" y1="2" x2="98" y2="194" gradientUnits="userSpaceOnUse">
<stop stop-color="#1E8CFF"/>
<stop offset="1" stop-color="#6566FF"/>
</linearGradient>
</defs>
</svg>
