<svg width="39" height="48" viewBox="0 0 39 48" fill="none" xmlns="http://www.w3.org/2000/svg">
<path fill-rule="evenodd" clip-rule="evenodd" d="M13.5223 1.17312C14.9881 -0.392959 17.3653 -0.390752 18.8285 1.17803L37.5832 21.2853C39.0446 22.8522 39.0405 25.3882 37.574 26.9496L18.8998 46.8318C17.435 48.3913 15.065 48.3891 13.6028 46.8269L5.12821 37.7726C4.47754 37.0774 4.47754 35.9503 5.12821 35.2551C5.77888 34.5599 6.83382 34.5599 7.48448 35.2551L15.959 44.3094C16.1215 44.483 16.3849 44.4832 16.5476 44.31L35.2218 24.4278C35.3847 24.2543 35.3852 23.9725 35.2228 23.7984L16.4682 3.69113C16.3056 3.51682 16.0414 3.51658 15.8786 3.69059L7.33381 12.8199C6.68314 13.5151 5.6282 13.5151 4.97753 12.8199C4.32687 12.1247 4.32687 10.9976 4.97753 10.3025L13.5223 1.17312Z" fill="url(#paint0_linear)"/>
<path fill-rule="evenodd" clip-rule="evenodd" d="M4.04112 16.8304C3.7713 16.6216 3.34552 16.7888 3.34552 17.1034V31.2416C3.34552 31.5579 3.77529 31.7244 4.04419 31.5123L13.0923 24.3732C13.2771 24.2273 13.2757 23.9737 13.0892 23.8294L4.04112 16.8304ZM0 17.1034C0 14.2717 3.83207 12.7674 6.2604 14.6458L15.3085 21.6449C16.9868 22.9431 16.9997 25.226 15.3361 26.5385L6.28799 33.6776C3.86796 35.587 0 34.0886 0 31.2416V17.1034Z" fill="url(#paint1_linear)"/>
<defs>
<linearGradient id="paint0_linear" x1="11.7143" y1="19.7511" x2="42.0327" y2="31.7461" gradientUnits="userSpaceOnUse">
<stop stop-color="#A951EC"/>
<stop offset="1" stop-color="#D65FF2"/>
</linearGradient>
<linearGradient id="paint1_linear" x1="18.0259" y1="5.70884" x2="-7.04565" y2="29.7843" gradientUnits="userSpaceOnUse">
<stop stop-color="#00ADFE"/>
<stop offset="1" stop-color="#3B7DFF"/>
</linearGradient>
</defs>
</svg>
