<svg width="54" height="48" viewBox="0 0 54 48" fill="none" xmlns="http://www.w3.org/2000/svg">
<path d="M36.7936 48H16.4762C14.1905 48 12.1587 46.7302 11.0159 44.8254L0.857143 27.1746C-0.285714 25.2698 -0.285714 22.7302 0.857143 20.8254L11.0159 3.1746C12.1587 1.26984 14.1905 0 16.4762 0H36.7936C39.0794 0 41.1111 1.26984 42.254 3.1746L52.4127 20.8254C53.5555 22.7302 53.5555 25.2698 52.4127 27.1746L42.254 44.8254C41.2381 46.8571 39.0794 48 36.7936 48ZM16.4762 2.53968C15.0794 2.53968 13.8095 3.30159 13.1746 4.44444L3.01587 22.0952C2.38095 23.2381 2.38095 24.7619 3.01587 25.9048L13.1746 43.5556C13.8095 44.6984 15.0794 45.4603 16.4762 45.4603H36.7936C38.1905 45.4603 39.4603 44.6984 40.0952 43.5556L50.254 25.9048C50.8889 24.7619 50.8889 23.2381 50.254 22.0952L40.0952 4.44444C39.4603 3.30159 38.1905 2.53968 36.7936 2.53968H16.4762Z" fill="url(#paint0_linear)"/>
<path fill-rule="evenodd" clip-rule="evenodd" d="M10.7619 28.3175L11.2698 25.0159H15.8413L16.2222 22.6032H11.6508L12.0317 19.8095H17.619L18 17.5238H9.36506L7.4603 30.6032H15.9682L16.3492 28.3175H10.7619ZM7.51575 15.3857L4.98823 32.7413H23.9559L24.1039 33.6292L24.5355 32.7413H33.5636L33.8456 30.8047C35.2514 32.1718 36.9171 32.8683 39.0793 32.8683C39.0955 32.8683 39.1117 32.8683 39.1281 32.8683C39.5794 32.8685 40.1207 32.8687 40.7906 32.7249C40.8585 32.718 40.9248 32.7091 40.9892 32.6988L42.858 35.0349L48.5913 30.9878L46.5108 28.5873C46.6172 28.3663 46.7037 28.1565 46.7788 27.9687C47.1065 27.1495 47.2663 26.3496 47.3869 25.7457L47.9129 23.1157L47.9185 23.0817C48.2668 20.9919 47.7554 18.9316 46.4027 17.3857C45.0353 15.8229 43.1321 15.1317 41.1111 15.1317C39.1151 15.1317 37.3676 15.6568 35.8891 16.7724L36.0911 15.3857H28.2175L26.1183 19.7041L25.3986 15.3857H7.51575ZM19.6508 17.5238L17.746 30.6032H20.7936L22.0635 22.3492L23.7143 30.6032H25.746L29.9365 22.2222L28.6667 30.6032H31.7143L33.619 17.5238H29.5555L25.1111 26.6667L23.5873 17.5238H19.6508ZM34.6349 22.8571L34.254 25.2698C34.1263 26.0354 34.159 26.769 34.3359 27.4383C34.511 28.1011 34.8275 28.7009 35.2698 29.2064C36.2857 30.2222 37.4286 30.7302 39.0793 30.7302C39.5873 30.7302 39.9682 30.7302 40.4762 30.6032C40.7524 30.6032 41.0954 30.4697 41.4083 30.3478C41.527 30.3016 41.6413 30.2571 41.746 30.2222L43.2698 32.127L45.4286 30.6032L43.7778 28.6984C43.8679 28.6308 43.95 28.5593 44.0255 28.4837C44.3758 28.1333 44.5847 27.6969 44.7936 27.1746C45.0476 26.5397 45.1746 25.9048 45.3016 25.2698L45.8095 22.7302C46.0635 21.2064 45.6825 19.8095 44.7936 18.7937C43.9047 17.7778 42.6349 17.2698 41.1111 17.2698C39.3333 17.2698 37.9365 17.7778 36.7936 18.7937C36.1873 19.3327 35.6881 19.9789 35.3152 20.7134C34.9853 21.3633 34.7541 22.0822 34.6349 22.8571ZM37.5555 22.8571L37.1746 25.2698C37.0476 26.2857 37.1746 27.0476 37.4286 27.5556C37.8095 28.1905 38.3174 28.4445 39.2063 28.4445C39.9682 28.4445 40.6032 28.1905 41.1111 27.5556C41.619 26.9206 42 26.1587 42.127 25.2698L42.6349 22.8571C42.7619 21.8413 42.6349 21.0794 42.3809 20.5714C42.127 20.0635 41.492 19.6825 40.6032 19.6825C39.8413 19.6825 39.2063 19.9365 38.5714 20.5714C37.9365 21.2064 37.6825 21.9683 37.5555 22.8571ZM40.5227 22.5116C40.5547 22.2148 40.5507 21.9872 40.5331 21.8228C40.4491 21.8283 40.4074 21.8432 40.3819 21.8542C40.3445 21.8702 40.2472 21.9194 40.0833 22.0833C39.9066 22.26 39.766 22.5028 39.6722 23.1595L39.67 23.1751L39.2924 25.5662C39.2544 25.8872 39.2578 26.1308 39.2764 26.3042C39.3375 26.3002 39.3671 26.2916 39.3755 26.2887C39.3763 26.2881 39.3775 26.2873 39.3792 26.2859C39.3857 26.2807 39.4074 26.2625 39.4415 26.2199C39.7519 25.8319 39.946 25.4179 40.0103 24.9675L40.0202 24.898L40.5227 22.5116Z" fill="url(#paint1_linear)"/>
<defs>
<linearGradient id="paint0_linear" x1="12.0147" y1="33.6842" x2="50.0935" y2="29.7676" gradientUnits="userSpaceOnUse">
<stop stop-color="#3BC791"/>
<stop offset="0.0001" stop-color="#3BC791"/>
<stop offset="1" stop-color="#21C879"/>
</linearGradient>
<linearGradient id="paint1_linear" x1="14.8226" y1="29.0988" x2="45.074" y2="22.9566" gradientUnits="userSpaceOnUse">
<stop stop-color="#3BC791"/>
<stop offset="0.0001" stop-color="#3BC791"/>
<stop offset="1" stop-color="#21C879"/>
</linearGradient>
</defs>
</svg>
