<svg width="202" height="202" viewBox="0 0 202 202" fill="none" xmlns="http://www.w3.org/2000/svg">
<path fill-rule="evenodd" clip-rule="evenodd" d="M0 15C0 6.71572 6.71573 0 15 0H187C195.284 0 202 6.71573 202 15V187C202 195.284 195.284 202 187 202H15C6.71572 202 0 195.284 0 187V15ZM15 10C12.2386 10 10 12.2386 10 15V187C10 189.761 12.2386 192 15 192H187C189.761 192 192 189.761 192 187V15C192 12.2386 189.761 10 187 10H15ZM29.3417 68.8954C31.8372 67.713 34.8187 68.7773 36.0012 71.2728L51.2035 103.356C52.1173 105.284 51.938 107.553 50.7327 109.314L35.6088 131.41C34.0491 133.689 30.9375 134.272 28.6587 132.712C26.3799 131.153 25.797 128.041 27.3567 125.762L41.1829 105.562L26.9644 75.5548C25.7819 73.0594 26.8463 70.0779 29.3417 68.8954ZM106.468 73.72C101.988 73.6133 97.6418 73.56 93.4284 73.56C89.9084 73.56 87.0551 74.5733 84.8684 76.6C82.6818 78.6267 81.5884 81.3733 81.5884 84.84V129H93.7484V105.56H115.188V96.92H93.7484V87.32C93.7484 84.6 95.2151 83.24 98.1484 83.24H118.148L118.788 74.44C115.108 74.0133 111.002 73.7733 106.468 73.72ZM151.002 73.72C146.362 73.6133 141.882 73.56 137.562 73.56C134.042 73.56 131.188 74.5733 129.002 76.6C126.815 78.6267 125.722 81.32 125.722 84.68V118.12C125.722 121.48 126.815 124.173 129.002 126.2C131.188 128.173 134.042 129.16 137.562 129.16C141.882 129.16 146.362 129.133 151.002 129.08C155.642 129.027 159.882 128.813 163.722 128.44L163.162 119.56H141.962C139.295 119.56 137.962 118.2 137.962 115.48V104.6H160.202V95.96H137.962V87.32C137.962 84.6 139.295 83.24 141.962 83.24H163.162L163.722 74.36C159.882 73.9867 155.642 73.7733 151.002 73.72Z" fill="url(#paint0_linear)"/>
<defs>
<linearGradient id="paint0_linear" x1="46.1087" y1="141.351" x2="189.357" y2="128.075" gradientUnits="userSpaceOnUse">
<stop stop-color="#3BC791"/>
<stop offset="0.0001" stop-color="#3BC791"/>
<stop offset="1" stop-color="#21C879"/>
</linearGradient>
</defs>
</svg>
