<svg width="48" height="52" viewBox="0 0 48 52" fill="none" xmlns="http://www.w3.org/2000/svg">
<path d="M11.6736 2H39.656C41.0976 2 42.0657 3.47893 41.4889 4.80013L39.0658 10.3512C38.7477 11.0799 38.028 11.551 37.2328 11.551H19.9647C18.5364 11.551 17.5684 13.0051 18.1197 14.3229L24.5396 29.6698C24.8508 30.4137 25.5783 30.898 26.3847 30.898H29.9174C31.3403 30.898 32.3081 29.4541 31.7674 28.1379L30.1113 24.107C29.5706 22.7908 30.5384 21.3469 31.9612 21.3469H40.3176C41.1644 21.3469 41.9194 21.8803 42.2025 22.6784L45.6358 32.3585C45.8052 32.8363 45.7869 33.3606 45.5845 33.8254L38.8359 49.3251C38.6574 49.7349 38.253 50 37.8059 50C37.3593 50 36.955 49.7354 36.7764 49.326L33.4251 41.6488C33.107 40.9201 32.3873 40.449 31.5921 40.449H10.2544C9.42002 40.449 8.67328 39.9309 8.38108 39.1494L2.27623 22.8205C2.09873 22.3457 2.10812 21.8213 2.30249 21.3531L9.82646 3.23303C10.1364 2.48654 10.8653 2 11.6736 2Z" stroke="url(#paint0_linear)" stroke-width="3" stroke-linecap="round" stroke-linejoin="round"/>
<defs>
<linearGradient id="paint0_linear" x1="4.98637" y1="46.4" x2="47.9139" y2="24.7794" gradientUnits="userSpaceOnUse">
<stop stop-color="#FF6767"/>
<stop offset="1" stop-color="#E14BB8"/>
</linearGradient>
</defs>
</svg>
