<svg width="47" height="54" viewBox="0 0 47 54" fill="none" xmlns="http://www.w3.org/2000/svg">
<path d="M44.397 19.2825L44.3997 19.276C45.1753 17.3966 45.5198 14.6943 45.4657 11.8747C45.4112 9.03117 44.9487 5.92983 44.005 3.20986L43.9784 3.13317L43.9421 3.06056C42.9103 0.996897 39.7542 1.60815 39.6324 3.92155L39.6307 3.95438V3.98725V4.31448C39.3277 8.93 37.7001 11.1081 35.5508 12.1616L35.5507 12.1616L35.5468 12.1636C35.5437 12.1647 35.5324 12.1684 35.5122 12.1723C35.4798 12.1784 35.4376 12.182 35.3909 12.1798C35.2877 12.175 35.23 12.1465 35.2186 12.1389L35.2064 12.1308L35.194 12.123C31.8449 10.0019 27.8317 8.77754 23.5477 8.77754C19.2485 8.77754 15.2976 10.0626 11.9218 12.1102L11.9147 12.1146L11.9076 12.119C11.8619 12.1476 11.8163 12.1604 11.7835 12.1631C11.7697 12.1643 11.7613 12.1635 11.7573 12.1629L11.7001 12.1343L11.6334 12.11C9.58248 11.3606 7.82507 8.9992 7.51717 4.26239V3.93472C7.51717 2.70785 6.58932 1.97206 5.72814 1.79713C4.85631 1.62004 3.7297 1.94414 3.23404 3.05938L3.21105 3.1111L3.19284 3.16468C2.25057 5.93605 1.80198 9.06217 1.75428 11.9106C1.70698 14.7352 2.05179 17.4189 2.79681 19.2666L2.80003 19.2745L2.80336 19.2825C3.35504 20.598 3.36772 22.1163 2.88011 23.537C2.09376 25.7852 1.70531 28.2973 1.76098 30.8024L1.76104 30.805C2.03971 42.2863 11.7651 52.0777 23.3173 52.2463C35.4727 52.4679 45.3346 42.7061 45.3346 30.512C45.3346 28.0688 44.946 25.7857 44.2239 23.6155C43.7848 22.2014 43.8364 20.6194 44.397 19.2825ZM11.7546 12.1624C11.7546 12.1624 11.7548 12.1624 11.7553 12.1626L11.7546 12.1624ZM9.25038 30.8114H9.25045L9.25013 30.7976C9.05685 22.6315 15.7253 15.9689 23.8331 16.1619L23.833 16.162L23.8471 16.1622C31.5133 16.2586 37.8049 22.5863 37.9501 30.2726C38.0944 38.3815 31.483 45.0066 23.3083 44.9144C15.6674 44.7165 9.34672 38.4707 9.25038 30.8114Z" stroke="url(#paint0_linear)" stroke-width="2.5"/>
<path d="M25.9638 28.8312L22.2871 23.1586C21.7093 22.2132 20.5012 21.9506 19.5558 22.5283C18.978 22.896 18.6104 23.5263 18.6104 24.2091C18.6104 24.5768 18.7154 24.9445 18.9255 25.2596L21.3942 29.1464C21.6043 29.4615 21.4992 29.8292 21.3416 30.0918L17.4548 34.3463C16.7195 35.1342 16.772 36.3947 17.5599 37.1301C17.9276 37.4452 18.4528 37.6028 18.9255 37.6028C19.5033 37.6028 19.976 37.3402 20.3437 36.9725L23.2325 33.611C23.4951 33.3483 23.8628 33.3483 24.0204 33.6635L26.0688 36.6048C26.1739 36.8675 26.384 37.025 26.6466 37.1826C27.3294 37.6553 28.2223 37.6553 28.9051 37.2351C29.4829 36.8675 29.8506 36.2372 29.8506 35.5544C29.8506 35.1867 29.7455 34.819 29.5354 34.5039L25.9638 28.8312Z" fill="url(#paint1_linear)"/>
<defs>
<linearGradient id="paint0_linear" x1="23.6106" y1="3" x2="23.6106" y2="51" gradientUnits="userSpaceOnUse">
<stop stop-color="#1E8CFF"/>
<stop offset="1" stop-color="#6566FF"/>
</linearGradient>
<linearGradient id="paint1_linear" x1="23.3926" y1="22.2237" x2="23.3926" y2="37.6028" gradientUnits="userSpaceOnUse">
<stop stop-color="#1E8CFF"/>
<stop offset="1" stop-color="#6566FF"/>
</linearGradient>
</defs>
</svg>
