<svg width="44" height="52" viewBox="0 0 44 52" fill="none" xmlns="http://www.w3.org/2000/svg">
<path d="M15.3993 33.7173H6C3.79086 33.7173 2 31.9265 2 29.7173V14.6502C2 12.441 3.79086 10.6502 6 10.6502H13.8728M27.9505 33.7173H38.0283C40.2374 33.7173 42.0283 31.9265 42.0283 29.7173V14.6502C42.0283 12.441 40.2374 10.6502 38.0283 10.6502H30.8339M13.8728 10.6502V2M13.8728 10.6502H30.8339M13.8728 2H15.3993M13.8728 2H8.27562M30.8339 10.6502V2M30.8339 2H29.1378M30.8339 2H36.0919" stroke="url(#paint0_linear)" stroke-width="3.75" stroke-linecap="round"/>
<path d="M7.9364 16.2474L22.0141 23.5407L35.9223 16.2474" stroke="url(#paint1_linear)" stroke-width="3.75" stroke-linecap="round"/>
<path d="M10.1349 39.0647C9.52857 38.2253 8.35653 38.0362 7.51704 38.6425C6.67756 39.2488 6.48852 40.4208 7.09481 41.2603L10.1349 39.0647ZM13.0247 46.2685L11.5047 47.3663L12.066 48.1435H13.0247V46.2685ZM31.3428 46.2685V48.1435H32.3698L32.9228 47.278L31.3428 46.2685ZM36.8239 41.172C37.3814 40.2994 37.1259 39.14 36.2533 38.5825C35.3807 38.025 34.2213 38.2804 33.6638 39.1531L36.8239 41.172ZM24.0587 44.2332C24.0587 43.1977 23.2193 42.3582 22.1837 42.3582C21.1482 42.3582 20.3087 43.1977 20.3087 44.2332H24.0587ZM20.3087 50C20.3087 51.0355 21.1482 51.875 22.1837 51.875C23.2193 51.875 24.0587 51.0355 24.0587 50H20.3087ZM7.09481 41.2603L11.5047 47.3663L14.5448 45.1707L10.1349 39.0647L7.09481 41.2603ZM32.9228 47.278L36.8239 41.172L33.6638 39.1531L29.7627 45.2591L32.9228 47.278ZM13.0247 48.1435H22.1837V44.3935H13.0247V48.1435ZM22.1837 48.1435H31.3428V44.3935H22.1837V48.1435ZM24.0587 46.2685V44.2332H20.3087V46.2685H24.0587ZM20.3087 46.2685V50H24.0587V46.2685H20.3087Z" fill="url(#paint2_linear)"/>
<defs>
<linearGradient id="paint0_linear" x1="22.0141" y1="2" x2="22.0141" y2="33.7173" gradientUnits="userSpaceOnUse">
<stop stop-color="#FF4B8B"/>
<stop offset="1" stop-color="#FF4972"/>
</linearGradient>
<linearGradient id="paint1_linear" x1="21.9293" y1="16.2474" x2="21.9293" y2="23.5407" gradientUnits="userSpaceOnUse">
<stop stop-color="#FF4B8B"/>
<stop offset="1" stop-color="#FF4972"/>
</linearGradient>
<linearGradient id="paint2_linear" x1="21.9293" y1="40.1625" x2="21.9293" y2="50" gradientUnits="userSpaceOnUse">
<stop stop-color="#1E8CFF"/>
<stop offset="1" stop-color="#6566FF"/>
</linearGradient>
</defs>
</svg>
