<svg width="46" height="48" viewBox="0 0 46 48" fill="none" xmlns="http://www.w3.org/2000/svg">
<path fill-rule="evenodd" clip-rule="evenodd" d="M41.6846 4.6147C41.6846 4.06372 41.1706 3.65686 40.6343 3.7833L24.9732 7.47578V40.8187L40.6492 44.2203C41.1816 44.3358 41.6846 43.9303 41.6846 43.3856V4.6147ZM21.2147 40.4547V7.87871L4.60748 7.97897C4.13774 7.98181 3.75844 8.36341 3.75844 8.83315V17.7332C3.75844 18.7711 2.91709 19.6124 1.87922 19.6124C0.841356 19.6124 0 18.7711 0 17.7332V8.83315C0 6.29653 2.04821 4.23591 4.58479 4.2206L22.8698 4.1102L39.7719 0.125161C42.6678 -0.557615 45.443 1.63938 45.443 4.6147V43.3856C45.443 46.3271 42.7268 48.5171 39.8522 47.8933L22.8924 44.2131H4.61264C2.06515 44.2131 0 42.148 0 39.6005V26.6168C0 25.2015 1.1473 24.0542 2.56258 24.0542H10.7628C11.8007 24.0542 12.642 24.8956 12.642 25.9334C12.642 26.9713 11.8007 27.8127 10.7628 27.8127H3.75844V39.6005C3.75844 40.0723 4.14088 40.4547 4.61264 40.4547H21.2147Z" fill="url(#paint0_linear)"/>
<path d="M33.4843 9.02045L27.8466 9.87464V20.6375L30.5801 17.7332L33.4843 20.6375V9.02045Z" fill="url(#paint1_linear)"/>
<defs>
<linearGradient id="paint0_linear" x1="22.7215" y1="0" x2="22.7215" y2="48" gradientUnits="userSpaceOnUse">
<stop stop-color="#1E8CFF"/>
<stop offset="1" stop-color="#6566FF"/>
</linearGradient>
<linearGradient id="paint1_linear" x1="30.6655" y1="9.02045" x2="30.6655" y2="20.6375" gradientUnits="userSpaceOnUse">
<stop stop-color="#FF4B8B"/>
<stop offset="1" stop-color="#FF4972"/>
</linearGradient>
</defs>
</svg>
