<svg width="63" height="52" viewBox="0 0 63 52" fill="none" xmlns="http://www.w3.org/2000/svg">
<path d="M60.7356 2.2518C60.5766 2.08265 60.3731 1.9931 60.1643 2.00042C59.593 2.00042 58.8568 2.48307 58.4625 2.75456L58.3036 2.85511C57.6389 3.25759 56.9152 3.48518 56.1773 3.52378C55.4209 3.55395 54.7691 3.60925 53.9202 3.71734C48.8911 4.36591 46.6482 9.18236 44.4877 13.8404C43.3129 16.3744 42.0979 18.9937 40.4322 21.0224C40.0865 21.4394 39.7196 21.8281 39.3339 22.1863C37.6099 23.7926 35.4454 24.9263 33.7536 25.7358C32.1302 26.51 30.362 27.2063 28.6501 27.88C27.085 28.4959 25.6045 29.0766 24.2446 29.7101C23.6311 29.9941 23.1101 30.2128 22.6494 30.4039C21.4122 30.9067 20.5171 31.2913 19.2135 32.4149C18.7046 32.8498 18.1936 33.3199 17.8456 33.6718C16.8094 34.7045 15.8927 35.9117 15.1219 37.259C14.4582 38.5032 13.6915 39.6567 12.8346 40.7004C12.5611 41.0373 12.0702 41.2032 11.34 41.2032C10.481 41.2032 9.44304 40.982 8.34066 40.7482C7.23829 40.5144 6.03533 40.2454 5.02952 40.2454C4.21078 40.2454 3.58718 40.4114 3.11847 40.7482C3.11847 40.7482 2.33393 41.3214 2 42.0629L2.32588 42.2464C2.83153 42.5895 3.30002 43.0118 3.71994 43.5033C4.1548 44.0098 4.64109 44.4425 5.16631 44.7904C5.33542 44.8708 5.48899 44.995 5.61691 45.1549C5.47811 45.4063 5.27695 45.7306 5.06573 46.0775C3.90501 47.9754 3.22911 49.1745 3.61735 49.8281C3.80321 49.9496 4.01121 50.0085 4.22084 49.999C6.75349 49.999 8.11134 49.177 9.83329 48.1363C10.3302 47.8346 10.8391 47.5229 11.4426 47.2062C12.4484 46.6607 13.5307 45.7909 14.6773 44.8708C16.1961 43.6516 17.7672 42.3897 19.288 41.7789C20.5411 41.3013 21.8464 41.0723 23.1563 41.1001C24.7656 41.1001 26.4594 41.3691 28.0929 41.6305C29.3119 41.8266 30.5712 42.0277 31.8084 42.1333C32.2891 42.1685 32.7337 42.1861 33.1682 42.1861C33.7468 42.1881 34.325 42.1503 34.9002 42.073L35.037 42.0126C35.9061 41.3465 36.3124 39.9161 36.7047 38.5335C36.9581 37.6437 37.1714 36.8443 37.5093 36.3365C37.5295 36.311 37.5518 36.2883 37.5757 36.2686C37.5915 36.2576 37.6099 36.2536 37.6278 36.2572C37.6457 36.2609 37.6621 36.272 37.6743 36.2887C37.6778 36.3018 37.6778 36.3159 37.6743 36.3289C37.4731 41.7361 35.729 45.1675 33.9689 48.2192L32.7739 49.7853C32.7739 49.7853 34.4195 49.7853 35.3569 49.3328C38.7766 48.0558 41.3596 45.2404 43.2385 40.7507C43.7016 39.5984 44.1152 38.4161 44.4776 37.2088C44.5098 37.1082 44.8075 36.9222 44.7773 37.4425C44.7773 37.5959 44.7613 37.7668 44.7512 37.9453C44.7512 38.0509 44.7391 38.159 44.7351 38.2671C44.6848 39.0212 44.5339 40.615 44.5339 40.615L45.59 39.9086C48.1368 37.8976 50.1001 33.8403 51.5887 27.5281C52.2103 24.8987 52.6629 22.2868 53.0633 19.9867C53.542 17.2215 53.9544 14.851 54.4272 13.9309C55.1694 12.488 56.302 11.5127 57.3983 10.5649C57.5492 10.4367 57.6981 10.3136 57.8449 10.1778C59.2249 8.96868 60.5948 7.57352 60.8945 4.97173V4.91391C61.1239 2.97326 60.9368 2.49061 60.7356 2.2518Z" stroke="url(#paint0_linear)" stroke-width="3"/>
<defs>
<linearGradient id="paint0_linear" x1="66.1625" y1="-16.7742" x2="12.168" y2="62.89" gradientUnits="userSpaceOnUse">
<stop stop-color="#00ADFE"/>
<stop offset="1" stop-color="#3B7DFF"/>
</linearGradient>
</defs>
</svg>
