<svg width="51" height="54" viewBox="0 0 51 54" fill="none" xmlns="http://www.w3.org/2000/svg">
<mask id="path-1-outside-1" maskUnits="userSpaceOnUse" x="0" y="0" width="51" height="54" fill="black">
<rect fill="white" width="51" height="54"/>
<path fill-rule="evenodd" clip-rule="evenodd" d="M34.9454 39.5853C40.966 38.8671 46.2082 35.1615 46.867 31.7755C47.9052 26.4417 47.8195 18.7592 47.8195 18.7592C47.8195 8.3465 40.9901 5.29439 40.9901 5.29439C37.5466 3.71454 31.6337 3.05017 25.4906 3H25.3397C19.1966 3.05017 13.2875 3.71454 9.84386 5.29439C9.84386 5.29439 3.01421 8.3465 3.01421 18.7592C3.01421 19.3904 3.01094 20.0544 3.00754 20.7456C2.9981 22.6652 2.98762 24.7949 3.0432 27.0179C3.29121 37.2009 4.91209 47.2368 14.3371 49.7287C18.6827 50.8777 22.4138 51.1182 25.4186 50.9532C30.8679 50.6514 33.9269 49.0106 33.9269 49.0106L33.7472 45.0611C33.7472 45.0611 29.8531 46.2877 25.4797 46.1382C21.1468 45.9897 16.5725 45.6714 15.8717 40.3572C15.807 39.8904 15.7747 39.3913 15.7747 38.8671C15.7747 38.8671 20.0281 39.9057 25.4186 40.1524C28.7148 40.3034 31.8059 39.9595 34.9454 39.5853ZM39.766 32.177V19.569C39.766 16.9922 39.1092 14.9445 37.7902 13.4296C36.4295 11.9147 34.6479 11.1381 32.4365 11.1381C29.8774 11.1381 27.9396 12.1205 26.6587 14.0857L25.4129 16.1714L24.1674 14.0857C22.8862 12.1205 20.9484 11.1381 18.3896 11.1381C16.178 11.1381 14.3963 11.9147 13.0359 13.4296C11.7166 14.9445 11.0598 16.9922 11.0598 19.569V32.177H16.0602V19.9396C16.0602 17.36 17.1467 16.0506 19.32 16.0506C21.723 16.0506 22.9276 17.6038 22.9276 20.6751V27.3733H27.8985V20.6751C27.8985 17.6038 29.1028 16.0506 31.5058 16.0506C33.6791 16.0506 34.7657 17.36 34.7657 19.9396V32.177H39.766Z"/>
</mask>
<path d="M46.867 31.7755L43.9223 31.2024L43.9223 31.2025L46.867 31.7755ZM34.9454 39.5853L35.3004 42.5642L35.3007 42.5642L34.9454 39.5853ZM47.8195 18.7592H44.8195V18.7759L44.8197 18.7926L47.8195 18.7592ZM40.9901 5.29439L39.7391 8.0211L39.7525 8.02727L39.766 8.03331L40.9901 5.29439ZM25.4906 3L25.5151 0.000100136L25.5029 0H25.4906V3ZM25.3397 3V0H25.3274L25.3152 0.000100136L25.3397 3ZM9.84386 5.29439L11.0679 8.03333L11.0814 8.0273L11.0948 8.02113L9.84386 5.29439ZM3.00754 20.7456L6.0075 20.7603L3.00754 20.7456ZM3.0432 27.0179L6.04231 26.9448L6.04226 26.9429L3.0432 27.0179ZM14.3371 49.7287L15.1039 46.8284H15.1039L14.3371 49.7287ZM25.4186 50.9532L25.5831 53.9487L25.5845 53.9487L25.4186 50.9532ZM33.9269 49.0106L35.345 51.6542L37.0097 50.7613L36.9238 48.8742L33.9269 49.0106ZM33.7472 45.0611L36.7441 44.9247L36.5669 41.0277L32.846 42.1997L33.7472 45.0611ZM25.4797 46.1382L25.377 49.1364L25.3773 49.1364L25.4797 46.1382ZM15.8717 40.3572L18.846 39.965L18.8447 39.9551L18.8433 39.9452L15.8717 40.3572ZM15.7747 38.8671L16.4863 35.9527L12.7747 35.0465V38.8671H15.7747ZM25.4186 40.1524L25.556 37.1555L25.5558 37.1555L25.4186 40.1524ZM39.766 32.177V35.177H42.766V32.177H39.766ZM37.7902 13.4296L40.0528 11.4596L40.0376 11.4422L40.0221 11.4249L37.7902 13.4296ZM26.6587 14.0857L24.1454 12.4475L24.1133 12.4968L24.0831 12.5473L26.6587 14.0857ZM25.4129 16.1714L22.8372 17.7095L25.4126 22.0223L27.9885 17.7097L25.4129 16.1714ZM24.1674 14.0857L26.7431 12.5476L26.7128 12.4968L26.6805 12.4473L24.1674 14.0857ZM13.0359 13.4296L10.8038 11.4251L10.7885 11.4422L10.7735 11.4594L13.0359 13.4296ZM11.0598 32.177H8.0598V35.177H11.0598V32.177ZM16.0602 32.177V35.177H19.0602V32.177H16.0602ZM22.9276 27.3733H19.9276V30.3733H22.9276V27.3733ZM27.8985 27.3733V30.3733H30.8985V27.3733H27.8985ZM34.7657 32.177H31.7657V35.177H34.7657V32.177ZM43.9223 31.2025C43.8155 31.7509 43.1139 32.936 41.2454 34.1896C39.4901 35.3672 37.1247 36.304 34.59 36.6064L35.3007 42.5642C38.7866 42.1483 42.0526 40.8733 44.5883 39.1721C47.0107 37.5468 49.2597 35.1861 49.8118 32.3485L43.9223 31.2025ZM47.8195 18.7592C44.8197 18.7926 44.8196 18.7924 44.8196 18.7923C44.8196 18.7923 44.8196 18.7922 44.8196 18.7921C44.8196 18.7921 44.8196 18.7922 44.8196 18.7923C44.8197 18.7927 44.8197 18.7935 44.8197 18.7948C44.8197 18.7974 44.8197 18.8018 44.8198 18.808C44.8199 18.8204 44.8201 18.8399 44.8202 18.8662C44.8206 18.919 44.821 18.999 44.8211 19.104C44.8214 19.314 44.8208 19.6232 44.8168 20.0123C44.8089 20.7914 44.7878 21.886 44.7352 23.1416C44.6286 25.6875 44.3974 28.7612 43.9223 31.2024L49.8118 32.3487C50.3748 29.456 50.6198 26.0215 50.7299 23.3927C50.7857 22.0609 50.808 20.9015 50.8165 20.0735C50.8207 19.659 50.8214 19.3264 50.8211 19.0954C50.821 18.9799 50.8205 18.8897 50.8201 18.8272C50.8199 18.796 50.8197 18.7718 50.8196 18.7547C50.8195 18.7462 50.8194 18.7395 50.8194 18.7347C50.8193 18.7322 50.8193 18.7303 50.8193 18.7288C50.8193 18.728 50.8193 18.7274 50.8193 18.7269C50.8193 18.7266 50.8193 18.7263 50.8193 18.7262C50.8193 18.7259 50.8193 18.7257 47.8195 18.7592ZM40.9901 5.29439C39.766 8.03331 39.7644 8.03256 39.7627 8.03182C39.7622 8.03159 39.7606 8.03086 39.7595 8.0304C39.7575 8.02946 39.7555 8.02857 39.7536 8.02773C39.7499 8.02603 39.7465 8.0245 39.7435 8.02313C39.7376 8.02041 39.7332 8.01834 39.7302 8.01696C39.7244 8.0142 39.7244 8.01415 39.73 8.01692C39.7412 8.02248 39.7742 8.03923 39.8261 8.06805C39.9301 8.12586 40.1077 8.23106 40.3351 8.39049C40.791 8.71011 41.4363 9.23991 42.0929 10.0339C43.3696 11.5777 44.8195 14.2726 44.8195 18.7592H50.8195C50.8195 12.8331 48.8547 8.79556 46.7167 6.21018C45.6659 4.93953 44.6038 4.05551 43.7792 3.47746C43.3664 3.18806 43.0105 2.97347 42.741 2.82369C42.6061 2.74872 42.4924 2.68972 42.4035 2.64549C42.3591 2.62337 42.3208 2.6049 42.2891 2.58996C42.2732 2.58248 42.259 2.57588 42.2465 2.57014C42.2403 2.56727 42.2344 2.56461 42.229 2.56217C42.2263 2.56094 42.2237 2.55977 42.2212 2.55866C42.22 2.5581 42.2182 2.5573 42.2176 2.55702C42.2159 2.55623 42.2141 2.55546 40.9901 5.29439ZM25.4661 5.9999C31.584 6.04986 36.9265 6.73068 39.7391 8.0211L42.2411 2.56767C38.1668 0.698402 31.6834 0.0504758 25.5151 0.000100136L25.4661 5.9999ZM25.3397 6H25.4906V0H25.3397V6ZM11.0948 8.02113C13.9078 6.73061 19.2466 6.04986 25.3642 5.9999L25.3152 0.000100136C19.1466 0.0504785 12.6673 0.698463 8.59292 2.56764L11.0948 8.02113ZM6.01421 18.7592C6.01421 14.2726 7.46414 11.5778 8.74089 10.0339C9.39749 9.23995 10.0428 8.71014 10.4988 8.39052C10.7262 8.23108 10.9038 8.12588 11.0078 8.06808C11.0597 8.03925 11.0927 8.0225 11.1039 8.01694C11.1094 8.01417 11.1095 8.01422 11.1036 8.01698C11.1007 8.01836 11.0963 8.02042 11.0904 8.02315C11.0874 8.02452 11.084 8.02605 11.0803 8.02774C11.0784 8.02859 11.0764 8.02948 11.0744 8.03041C11.0733 8.03088 11.0717 8.03161 11.0712 8.03184C11.0695 8.03258 11.0679 8.03333 9.84386 5.29439C8.61985 2.55544 8.61812 2.55622 8.61637 2.557C8.61575 2.55728 8.61396 2.55808 8.61272 2.55864C8.61024 2.55976 8.60765 2.56093 8.60495 2.56215C8.59955 2.5646 8.59371 2.56725 8.58746 2.57012C8.57495 2.57587 8.56074 2.58246 8.54489 2.58994C8.51319 2.60489 8.47489 2.62335 8.43043 2.64547C8.34156 2.6897 8.22788 2.74869 8.09299 2.82366C7.8235 2.97344 7.46753 3.18804 7.0547 3.47743C6.23009 4.05547 5.16799 4.93949 4.11717 6.21014C1.97909 8.79551 0.0142066 12.833 0.0142066 18.7592H6.01421ZM6.0075 20.7603C6.0109 20.0707 6.01421 19.3991 6.01421 18.7592H0.0142066C0.0142066 19.3817 0.0109844 20.038 0.00757647 20.7308L6.0075 20.7603ZM6.04226 26.9429C5.98797 24.7714 5.99804 22.6848 6.0075 20.7603L0.00757647 20.7308C-0.0018425 22.6455 -0.0127285 24.8184 0.0441389 27.0929L6.04226 26.9429ZM15.1039 46.8284C11.5123 45.8787 9.38665 43.5724 8.03958 40.1568C6.63101 36.5852 6.16499 31.9818 6.04231 26.9448L0.0440912 27.0909C0.169426 32.237 0.637856 37.743 2.45797 42.3581C4.33959 47.1291 7.73691 51.0867 13.5702 52.6291L15.1039 46.8284ZM25.2542 47.9578C22.5496 48.1063 19.1335 47.8938 15.1039 46.8284L13.5702 52.6291C18.2319 53.8616 22.2779 54.1302 25.5831 53.9487L25.2542 47.9578ZM33.9269 49.0106C32.5088 46.3669 32.5097 46.3664 32.5105 46.366C32.5108 46.3658 32.5116 46.3654 32.5121 46.3651C32.5132 46.3646 32.5142 46.364 32.5151 46.3635C32.5171 46.3625 32.5188 46.3615 32.5204 46.3607C32.5235 46.359 32.526 46.3578 32.5277 46.3569C32.5311 46.3551 32.5317 46.3548 32.5294 46.356C32.5249 46.3583 32.509 46.3663 32.482 46.3793C32.4279 46.4054 32.3293 46.4515 32.1874 46.512C31.9034 46.633 31.4471 46.8115 30.8285 47.0031C29.5918 47.3862 27.7073 47.8219 25.2528 47.9578L25.5845 53.9487C28.5793 53.7828 30.9489 53.2471 32.604 52.7344C33.4313 52.4781 34.0803 52.2274 34.5402 52.0314C34.7702 51.9333 34.9532 51.8488 35.0877 51.784C35.1549 51.7516 35.2101 51.724 35.253 51.7022C35.2745 51.6912 35.2929 51.6817 35.3083 51.6737C35.3159 51.6697 35.3228 51.666 35.3289 51.6628C35.332 51.6612 35.3349 51.6596 35.3376 51.6582C35.3389 51.6575 35.3402 51.6568 35.3414 51.6562C35.342 51.6558 35.3429 51.6553 35.3433 51.6552C35.3441 51.6547 35.345 51.6542 33.9269 49.0106ZM30.7503 45.1974L30.93 49.1469L36.9238 48.8742L36.7441 44.9247L30.7503 45.1974ZM25.3773 49.1364C27.8555 49.2211 30.1558 48.917 31.8118 48.6033C32.6472 48.445 33.3367 48.2809 33.8252 48.1539C34.0698 48.0903 34.2652 48.0358 34.4044 47.9955C34.4741 47.9754 34.5298 47.9588 34.5708 47.9464C34.5912 47.9402 34.608 47.9351 34.621 47.9311C34.6275 47.9291 34.6331 47.9273 34.6377 47.9259C34.6399 47.9252 34.642 47.9245 34.6438 47.924C34.6447 47.9237 34.6456 47.9234 34.6464 47.9232C34.6467 47.923 34.6473 47.9229 34.6475 47.9228C34.648 47.9226 34.6485 47.9225 33.7472 45.0611C32.846 42.1997 32.8464 42.1995 32.8469 42.1994C32.847 42.1993 32.8475 42.1992 32.8478 42.1991C32.8483 42.1989 32.8488 42.1988 32.8492 42.1986C32.8501 42.1984 32.8507 42.1982 32.8512 42.198C32.852 42.1978 32.8519 42.1978 32.8509 42.1981C32.8489 42.1987 32.8432 42.2005 32.8341 42.2032C32.8159 42.2087 32.7837 42.2184 32.7383 42.2315C32.6475 42.2577 32.5045 42.2978 32.3157 42.3469C31.9374 42.4452 31.38 42.5784 30.6952 42.7081C29.3108 42.9703 27.4773 43.2047 25.5822 43.1399L25.3773 49.1364ZM12.8975 40.7494C13.1289 42.5042 13.7092 44.0373 14.6748 45.302C15.6404 46.5668 16.8645 47.3972 18.1284 47.9408C20.5059 48.9633 23.3114 49.0657 25.377 49.1364L25.5825 43.1399C23.3152 43.0623 21.667 42.9313 20.4989 42.4289C19.9901 42.2101 19.6684 41.9552 19.4438 41.6611C19.2192 41.3669 18.965 40.8674 18.846 39.965L12.8975 40.7494ZM12.7747 38.8671C12.7747 39.513 12.8144 40.1508 12.9002 40.7692L18.8433 39.9452C18.7996 39.63 18.7747 39.2696 18.7747 38.8671H12.7747ZM25.5558 37.1555C23.0102 37.039 20.7224 36.7346 19.07 36.4583C18.2462 36.3206 17.5865 36.1908 17.1388 36.097C16.9152 36.0502 16.7449 36.0123 16.634 35.9871C16.5786 35.9745 16.5381 35.965 16.5132 35.9591C16.5007 35.9562 16.4922 35.9542 16.4877 35.9531C16.4854 35.9525 16.4842 35.9522 16.4839 35.9522C16.4838 35.9521 16.4839 35.9522 16.4843 35.9523C16.4845 35.9523 16.4848 35.9524 16.4851 35.9524C16.4853 35.9525 16.4856 35.9526 16.4856 35.9526C16.4859 35.9527 16.4863 35.9527 15.7747 38.8671C15.0631 41.7815 15.0634 41.7816 15.0638 41.7817C15.0639 41.7817 15.0643 41.7818 15.0646 41.7819C15.0652 41.782 15.0658 41.7822 15.0665 41.7823C15.068 41.7827 15.0696 41.7831 15.0716 41.7836C15.0755 41.7845 15.0804 41.7857 15.0864 41.7871C15.0983 41.79 15.1143 41.7938 15.1343 41.7985C15.1744 41.808 15.2305 41.8211 15.3019 41.8373C15.4447 41.8699 15.6488 41.9151 15.9081 41.9695C16.4265 42.0781 17.167 42.2234 18.0804 42.3762C19.9024 42.6808 22.4366 43.0191 25.2815 43.1493L25.5558 37.1555ZM34.5903 36.6064C31.4413 36.9817 28.5757 37.2939 25.556 37.1555L25.2813 43.1493C28.8538 43.3129 32.1704 42.9373 35.3004 42.5642L34.5903 36.6064ZM36.766 19.569V32.177H42.766V19.569H36.766ZM35.5276 15.3996C36.2475 16.2263 36.766 17.5027 36.766 19.569H42.766C42.766 16.4817 41.971 13.6628 40.0528 11.4596L35.5276 15.3996ZM32.4365 14.1381C33.8559 14.1381 34.8053 14.5958 35.5583 15.4343L40.0221 11.4249C38.0538 9.2335 35.4398 8.13806 32.4365 8.13806V14.1381ZM29.1719 15.7239C29.8374 14.7029 30.773 14.1381 32.4365 14.1381V8.13806C28.9818 8.13806 26.0419 9.53809 24.1454 12.4475L29.1719 15.7239ZM27.9885 17.7097L29.2342 15.624L24.0831 12.5473L22.8374 14.633L27.9885 17.7097ZM21.5917 15.6238L22.8372 17.7095L27.9886 14.6333L26.7431 12.5476L21.5917 15.6238ZM18.3896 14.1381C20.0527 14.1381 20.9885 14.7029 21.6543 15.7241L26.6805 12.4473C24.7839 9.53817 21.8441 8.13806 18.3896 8.13806V14.1381ZM15.2679 15.4341C16.0206 14.5959 16.9698 14.1381 18.3896 14.1381V8.13806C15.3861 8.13806 12.772 9.23343 10.8038 11.4251L15.2679 15.4341ZM14.0598 19.569C14.0598 17.5027 14.5783 16.2265 15.2982 15.3998L10.7735 11.4594C8.85484 13.6626 8.0598 16.4817 8.0598 19.569H14.0598ZM14.0598 32.177V19.569H8.0598V32.177H14.0598ZM16.0602 29.177H11.0598V35.177H16.0602V29.177ZM13.0602 19.9396V32.177H19.0602V19.9396H13.0602ZM19.32 13.0506C17.6095 13.0506 15.8373 13.592 14.5736 15.1034C13.3948 16.5133 13.0602 18.3002 13.0602 19.9396H19.0602C19.0602 19.4957 19.108 19.2128 19.153 19.0519C19.1959 18.8983 19.225 18.8942 19.1766 18.9521C19.1189 19.0211 19.0454 19.066 19.0083 19.0808C18.9891 19.0885 19.0721 19.0506 19.32 19.0506V13.0506ZM25.9276 20.6751C25.9276 18.8282 25.5791 16.8919 24.3916 15.3676C23.0947 13.7025 21.218 13.0506 19.32 13.0506V19.0506C19.6016 19.0506 19.7099 19.0962 19.7138 19.0979C19.7153 19.0985 19.7028 19.093 19.6848 19.0792C19.6668 19.0653 19.6579 19.0542 19.6582 19.0547C19.6738 19.0747 19.9276 19.4507 19.9276 20.6751H25.9276ZM25.9276 27.3733V20.6751H19.9276V27.3733H25.9276ZM27.8985 24.3733H22.9276V30.3733H27.8985V24.3733ZM24.8985 20.6751V27.3733H30.8985V20.6751H24.8985ZM31.5058 13.0506C29.6078 13.0506 27.7311 13.7025 26.4342 15.3677C25.2469 16.8921 24.8985 18.8283 24.8985 20.6751H30.8985C30.8985 19.4506 31.1522 19.0746 31.1678 19.0546C31.1681 19.0541 31.1592 19.0652 31.1412 19.0791C31.1232 19.093 31.1106 19.0985 31.1122 19.0979C31.1159 19.0962 31.2242 19.0506 31.5058 19.0506V13.0506ZM37.7657 19.9396C37.7657 18.3002 37.4311 16.5133 36.2522 15.1034C34.9885 13.592 33.2163 13.0506 31.5058 13.0506V19.0506C31.7538 19.0506 31.8367 19.0885 31.8175 19.0808C31.7804 19.066 31.7069 19.0211 31.6492 18.9521C31.6008 18.8942 31.6299 18.8983 31.6728 19.0519C31.7179 19.2128 31.7657 19.4957 31.7657 19.9396H37.7657ZM37.7657 32.177V19.9396H31.7657V32.177H37.7657ZM39.766 29.177H34.7657V35.177H39.766V29.177Z" fill="url(#paint0_linear)" mask="url(#path-1-outside-1)"/>
<defs>
<linearGradient id="paint0_linear" x1="39.73" y1="3" x2="11.1138" y2="49.7763" gradientUnits="userSpaceOnUse">
<stop stop-color="#00E5FD"/>
<stop offset="1" stop-color="#00A5FF"/>
</linearGradient>
</defs>
</svg>
