<svg width="174" height="202" viewBox="0 0 174 202" fill="none" xmlns="http://www.w3.org/2000/svg">
<path fill-rule="evenodd" clip-rule="evenodd" d="M110.987 155.388C120.015 154.231 128.571 150.969 135.953 145.939C140.43 142.888 146.575 142.8 150.458 146.579L166.01 161.716C170.043 165.642 170.07 172.167 165.647 175.648C151.573 186.725 134.58 193.862 116.504 196.179C98.3929 198.5 80.0457 195.872 63.4815 188.687C58.3307 186.452 56.6734 180.163 59.5377 175.334L70.4665 156.91C73.2376 152.238 79.2148 150.726 84.334 152.542C92.8089 155.548 101.949 156.546 110.987 155.388Z" stroke="url(#paint0_linear)" stroke-width="10"/>
<path fill-rule="evenodd" clip-rule="evenodd" d="M39.3825 84.2436C44.7777 85.6507 47.8793 91.2116 47.4378 96.7698C46.7577 105.329 48.1479 113.974 51.5602 121.993C54.9824 130.034 60.3006 137.122 67.0273 142.713C71.3447 146.303 73.0918 152.483 70.2275 157.312L59.2987 175.736C56.5276 180.408 50.498 182.055 46.048 178.941C31.1997 168.548 19.5559 154.299 12.5078 137.737C5.49539 121.259 3.36299 103.269 6.24646 85.7851C7.13657 80.3879 12.6141 77.2623 17.9072 78.6428L39.3825 84.2436Z" stroke="url(#paint1_linear)" stroke-width="10"/>
<path fill-rule="evenodd" clip-rule="evenodd" d="M70.2273 44.688C73.0917 49.5168 71.3448 55.697 67.0273 59.2861C64.0396 61.7698 61.3198 64.5566 58.9165 67.6052C56.4671 70.7121 54.3726 74.0578 52.6632 77.5823C50.2761 82.5042 44.9369 85.6927 39.6438 84.3122L18.1686 78.7114C12.7734 77.3043 9.52276 71.7301 11.5715 66.5445C14.9621 57.9621 19.6086 49.8817 25.3814 42.5591C31.2643 35.0967 38.2309 28.5304 46.0481 23.0591C50.4981 19.9445 56.5274 21.5918 59.2985 26.2635L70.2273 44.688Z" stroke="url(#paint2_linear)" stroke-width="10"/>
<path fill-rule="evenodd" clip-rule="evenodd" d="M110.987 46.6122C101.949 45.4542 92.8089 46.4524 84.334 49.4582C79.2148 51.2738 73.2376 49.7623 70.4665 45.0906L59.5377 26.6661C56.6734 21.8373 58.3307 15.5479 63.4815 13.3136C80.0457 6.12835 98.3929 3.50064 116.504 5.82143C134.58 8.13777 151.573 15.275 165.647 26.3518C170.07 29.8331 170.043 36.3579 166.01 40.2838L150.458 55.4213C146.575 59.2 140.43 59.1118 135.953 56.0611C128.571 51.0309 120.015 47.7692 110.987 46.6122Z" stroke="url(#paint3_linear)" stroke-width="10"/>
<defs>
<linearGradient id="paint0_linear" x1="113.844" y1="139.79" x2="113.844" y2="197" gradientUnits="userSpaceOnUse">
<stop stop-color="#FF4B8B"/>
<stop offset="1" stop-color="#FF4972"/>
</linearGradient>
<linearGradient id="paint1_linear" x1="40.225" y1="82.4186" x2="40.225" y2="178.095" gradientUnits="userSpaceOnUse">
<stop stop-color="#FFB74B"/>
<stop offset="1" stop-color="#FF7B3C"/>
</linearGradient>
<linearGradient id="paint2_linear" x1="23.4921" y1="66.2409" x2="71.5658" y2="61.905" gradientUnits="userSpaceOnUse">
<stop stop-color="#3BC791"/>
<stop offset="0.0001" stop-color="#3BC791"/>
<stop offset="1" stop-color="#21C879"/>
</linearGradient>
<linearGradient id="paint3_linear" x1="73.0768" y1="502.939" x2="382.332" y2="374.503" gradientUnits="userSpaceOnUse">
<stop stop-color="#33D9EB"/>
<stop offset="1" stop-color="#2CD9CB"/>
</linearGradient>
</defs>
</svg>
