<svg width="140" height="214" viewBox="0 0 140 214" fill="none" xmlns="http://www.w3.org/2000/svg">
<mask id="path-1-outside-1" maskUnits="userSpaceOnUse" x="0" y="0" width="140" height="214" fill="black">
<rect fill="white" width="140" height="214"/>
<path d="M128.606 70.0488C122.503 59.9649 116.384 49.8909 110.248 39.8269C107.059 34.6431 103.766 29.4592 100.589 24.2753C100.188 23.6273 99.6819 23.0571 99.293 22.461C93.42 13.5188 81.8686 7.54442 70.5764 13.2207C65.7056 15.5677 61.9804 19.7699 60.2354 24.8858C58.4905 30.0017 58.8717 35.6035 61.2938 40.436C63.2514 44.2462 66.4796 47.4602 69.5133 50.6482C78.7441 60.4457 88.2731 69.9711 97.439 79.8463C103.879 86.7645 106.518 96.3991 104.5 105.632C102.489 114.837 96.1037 122.476 87.4036 126.093C87.3527 126.115 87.2988 126.129 87.2439 126.133C86.9445 126.157 86.7173 125.898 86.7173 125.598V84.7942C86.7173 82.8193 84.6286 81.5495 82.8991 82.5042C68.172 90.6333 54.9201 101.204 43.7138 113.775C26.3207 133.161 15.4262 156.969 11.0701 175.691C10.5763 177.813 12.7867 179.458 14.727 178.466L41.0561 165.004C50.1831 160.385 59.2097 155.867 68.5599 151.105C70.318 150.209 72.4044 151.484 72.4044 153.457V189.182C72.4044 189.783 72.6097 190.366 72.9863 190.834L81.9687 202.009C83.5296 203.951 86.6655 202.848 86.6655 200.356V143.273C86.6655 142.305 87.2149 141.412 88.0657 140.951C92.3804 138.894 96.5669 136.579 100.602 134.018C110.745 126.915 117.272 115.734 118.469 103.413C119.665 91.0927 115.412 78.8651 106.825 69.9452C96.1944 58.8258 85.4987 47.7582 74.8807 36.6259C71.7951 33.386 71.8599 29.2907 74.8807 26.4137C77.9014 23.5366 82.0242 23.8217 85.1357 26.9969L89.5696 31.4679C93.0959 35.2262 96.5834 39.0234 100.136 42.7428C109.113 52.1489 118.111 61.536 127.128 70.9042C127.505 71.292 127.945 71.6262 128.366 71.981C128.518 72.1093 128.735 72.1299 128.905 72.027C129.068 71.9287 129.153 71.7388 129.109 71.5537C128.988 71.038 128.82 70.5342 128.606 70.0488ZM72.3678 132.481C72.3663 132.658 72.3513 132.836 72.2968 133.005C72.0935 133.634 71.6558 134.165 71.0691 134.484C65.3776 137.504 59.6343 140.446 53.904 143.388L39.9784 150.525C37.7301 151.677 35.3753 149.352 36.5957 147.14C45.3884 131.206 57.3259 117.189 71.7105 105.955C71.9485 105.769 72.4304 105.814 72.4304 106.116C72.4175 114.904 72.4428 123.693 72.3678 132.481Z"/>
</mask>
<path d="M128.606 70.0488L137.758 66.0196L137.497 65.426L137.161 64.8712L128.606 70.0488ZM110.248 39.8269L118.786 34.6214L118.776 34.6041L118.765 34.5869L110.248 39.8269ZM100.589 24.2753L109.116 19.0508L109.102 19.0276L109.088 19.0045L100.589 24.2753ZM99.293 22.461L107.668 16.9969L107.66 16.9841L107.651 16.9714L99.293 22.461ZM70.5764 13.2207L74.9172 22.2295L74.9928 22.1931L75.0677 22.1554L70.5764 13.2207ZM60.2354 24.8858L50.7708 21.6576L50.7708 21.6576L60.2354 24.8858ZM61.2938 40.436L52.3538 44.9167L52.3763 44.9615L52.3992 45.0061L61.2938 40.436ZM69.5133 50.6482L76.7918 43.7908L76.7747 43.7727L76.7576 43.7547L69.5133 50.6482ZM97.439 79.8463L90.1097 86.6493L90.1147 86.6547L90.1197 86.6601L97.439 79.8463ZM104.5 105.632L94.7308 103.497L94.7308 103.497L104.5 105.632ZM87.4036 126.093L91.2418 135.327L91.2424 135.327L87.4036 126.093ZM87.2439 126.133L86.4372 116.166L86.4369 116.166L87.2439 126.133ZM82.8991 82.5042L78.0666 73.7493L78.0666 73.7493L82.8991 82.5042ZM43.7138 113.775L51.1572 120.453L51.1678 120.441L51.1784 120.429L43.7138 113.775ZM11.0701 175.691L1.33023 173.425L1.33023 173.425L11.0701 175.691ZM14.727 178.466L19.2794 187.37L19.2794 187.37L14.727 178.466ZM41.0561 165.004L36.5407 156.082L36.5222 156.091L36.5037 156.101L41.0561 165.004ZM68.5599 151.105L73.0985 160.015L73.0985 160.015L68.5599 151.105ZM72.9863 190.834L80.7805 184.569L80.7804 184.569L72.9863 190.834ZM81.9687 202.009L89.7629 195.744L89.7629 195.744L81.9687 202.009ZM88.0657 140.951L83.7625 131.924L83.5286 132.036L83.3008 132.159L88.0657 140.951ZM100.602 134.018L105.961 142.461L106.153 142.339L106.338 142.209L100.602 134.018ZM118.469 103.413L108.516 102.447L108.516 102.447L118.469 103.413ZM106.825 69.9452L99.5974 76.8557L99.6091 76.8679L99.6208 76.8801L106.825 69.9452ZM74.8807 36.6259L67.6392 43.5224L67.6444 43.5278L74.8807 36.6259ZM74.8807 26.4137L81.7774 33.6549L81.7774 33.6549L74.8807 26.4137ZM85.1357 26.9969L77.9934 33.996L78.0142 34.0172L78.0351 34.0383L85.1357 26.9969ZM89.5696 31.4679L96.8621 24.6255L96.7674 24.5246L96.6701 24.4265L89.5696 31.4679ZM100.136 42.7428L107.37 35.8385L107.367 35.8361L100.136 42.7428ZM127.128 70.9042L119.923 77.839L119.941 77.8577L119.959 77.8763L127.128 70.9042ZM128.366 71.981L134.813 64.3369L134.813 64.3368L128.366 71.981ZM128.905 72.027L134.078 80.5852L134.078 80.5852L128.905 72.027ZM129.109 71.5537L138.844 69.2632L138.844 69.263L129.109 71.5537ZM72.3678 132.481L62.3682 132.396L62.3682 132.396L72.3678 132.481ZM72.2968 133.005L81.8121 136.08L81.8122 136.08L72.2968 133.005ZM71.0691 134.484L75.7558 143.318L75.8022 143.293L75.8482 143.268L71.0691 134.484ZM53.904 143.388L58.4651 152.287L58.4711 152.284L53.904 143.388ZM39.9784 150.525L44.5395 159.424L44.5396 159.424L39.9784 150.525ZM36.5957 147.14L45.3511 151.971L45.3511 151.971L36.5957 147.14ZM71.7105 105.955L65.5554 98.074L65.5554 98.074L71.7105 105.955ZM72.4304 106.116L82.4304 106.13L82.4304 106.123V106.116H72.4304ZM137.161 64.8712C131.053 54.7779 124.928 44.6946 118.786 34.6214L101.71 45.0325C107.84 55.0871 113.953 65.1518 120.051 75.2265L137.161 64.8712ZM118.765 34.5869C115.298 28.9519 112.462 24.5116 109.116 19.0508L92.0628 29.4999C95.0694 34.4068 98.8192 40.3342 101.731 45.067L118.765 34.5869ZM109.088 19.0045C108.617 18.2462 108.136 17.6122 107.914 17.3195C107.603 16.9081 107.629 16.9373 107.668 16.9969L90.9178 27.9251C91.1534 28.2863 91.376 28.5967 91.5461 28.8281C91.7053 29.0447 91.8761 29.2691 91.9583 29.3779C92.1876 29.6814 92.1597 29.6564 92.0913 29.5462L109.088 19.0045ZM107.651 16.9714C100.017 5.34744 83.4076 -4.42156 66.0852 4.28607L75.0677 22.1554C80.3296 19.5104 86.8228 21.6902 90.9345 27.9506L107.651 16.9714ZM66.2357 4.21197C58.9524 7.72134 53.3808 14.0056 50.7708 21.6576L69.7 28.114C70.5799 25.5342 72.4589 23.414 74.9172 22.2295L66.2357 4.21197ZM50.7708 21.6576C48.1608 29.3097 48.7312 37.6888 52.3538 44.9167L70.2338 35.9553C69.0123 33.5183 68.8201 30.6937 69.7 28.114L50.7708 21.6576ZM52.3992 45.0061C55.1697 50.3984 59.649 54.7884 62.2691 57.5417L76.7576 43.7547C73.3102 40.1319 71.3331 38.0939 70.1884 35.8659L52.3992 45.0061ZM62.2349 57.5057C71.9507 67.8179 80.7682 76.5849 90.1097 86.6493L104.768 73.0434C95.778 63.3572 85.5375 53.0735 76.7918 43.7908L62.2349 57.5057ZM90.1197 86.6601C94.3256 91.1781 96.0479 97.4691 94.7308 103.497L114.27 107.766C116.987 95.329 113.433 82.3509 104.758 73.0326L90.1197 86.6601ZM94.7308 103.497C93.4175 109.507 89.2482 114.497 83.5648 116.86L91.2424 135.327C102.959 130.456 111.56 120.167 114.27 107.766L94.7308 103.497ZM83.5654 116.859C84.3472 116.534 85.3148 116.257 86.4372 116.166L88.0505 136.101C89.2828 136.001 90.3582 135.695 91.2418 135.327L83.5654 116.859ZM86.4369 116.166C93.2257 115.616 96.7173 121.408 96.7173 125.598H76.7173C76.7173 130.388 80.6634 136.699 88.0509 136.101L86.4369 116.166ZM96.7173 125.598V84.7942H76.7173V125.598H96.7173ZM96.7173 84.7942C96.7173 75.447 86.6703 69.0003 78.0666 73.7493L87.7316 91.259C82.5869 94.0988 76.7173 90.1916 76.7173 84.7942H96.7173ZM78.0666 73.7493C62.3504 82.4244 48.2084 93.7051 36.2492 107.12L51.1784 120.429C61.6318 108.703 73.9935 98.8422 87.7316 91.259L78.0666 73.7493ZM36.2704 107.097C17.6624 127.838 6.03634 153.199 1.33023 173.425L20.8099 177.958C24.8161 160.739 34.9789 138.485 51.1572 120.453L36.2704 107.097ZM1.33023 173.425C-1.21924 184.382 10.2681 191.977 19.2794 187.37L10.1747 169.562C15.3054 166.939 22.3719 171.244 20.8099 177.958L1.33023 173.425ZM19.2794 187.37L45.6084 173.908L36.5037 156.101L10.1747 169.562L19.2794 187.37ZM45.5714 173.927C54.6372 169.339 63.7429 164.781 73.0985 160.015L64.0213 142.194C54.6764 146.954 45.7289 151.432 36.5407 156.082L45.5714 173.927ZM73.0985 160.015C68.2247 162.498 62.4044 158.974 62.4044 153.457H82.4044C82.4044 143.994 72.4113 137.92 64.0213 142.194L73.0985 160.015ZM62.4044 153.457V189.182H82.4044V153.457H62.4044ZM62.4044 189.182C62.4044 192.061 63.3881 194.855 65.1922 197.099L80.7804 184.569C81.8313 185.876 82.4044 187.504 82.4044 189.182H62.4044ZM65.1921 197.099L74.1745 208.274L89.7629 195.744L80.7805 184.569L65.1921 197.099ZM74.1745 208.274C81.6451 217.568 96.6655 212.297 96.6655 200.356H76.6655C76.6655 193.398 85.4142 190.334 89.7629 195.744L74.1745 208.274ZM96.6655 200.356V143.273H76.6655V200.356H96.6655ZM96.6655 143.273C96.6655 146.1 95.0938 148.516 92.8305 149.743L83.3008 132.159C79.3361 134.308 76.6655 138.511 76.6655 143.273H96.6655ZM92.3688 149.978C97.0467 147.748 101.586 145.238 105.961 142.461L95.2438 125.575C91.5481 127.92 87.714 130.041 83.7625 131.924L92.3688 149.978ZM106.338 142.209C118.874 133.431 126.943 119.61 128.422 104.38L108.516 102.447C107.602 111.858 102.615 120.4 94.8663 125.826L106.338 142.209ZM128.422 104.38C129.901 89.1498 124.643 74.0353 114.03 63.0102L99.6208 76.8801C106.181 83.6948 109.43 93.0356 108.516 102.447L128.422 104.38ZM114.053 63.0346C103.329 51.8173 92.7735 40.8968 82.1169 29.724L67.6444 43.5278C78.2238 54.6197 89.06 65.8342 99.5974 76.8557L114.053 63.0346ZM82.1221 29.7294C82.0722 29.677 82.5961 30.2437 82.5907 31.429C82.5852 32.6541 82.0149 33.4287 81.7774 33.6549L67.984 19.1725C64.7257 22.2757 62.6127 26.5364 62.5909 31.3384C62.5693 36.1006 64.6035 40.3348 67.6392 43.5224L82.1221 29.7294ZM81.7774 33.6549C81.6425 33.7834 81.3516 34.0093 80.886 34.187C80.4151 34.3668 79.8894 34.4488 79.3713 34.4175C78.297 34.3526 77.8721 33.8722 77.9934 33.996L92.2779 19.9977C89.2877 16.9464 85.2457 14.7358 80.577 14.4539C75.8038 14.1656 71.3523 15.9644 67.9839 19.1725L81.7774 33.6549ZM78.0351 34.0383L82.469 38.5094L96.6701 24.4265L92.2362 19.9554L78.0351 34.0383ZM82.277 38.3104C85.6959 41.9541 89.3211 45.8981 92.904 49.6496L107.367 35.8361C103.846 32.1487 100.496 28.4983 96.8621 24.6255L82.277 38.3104ZM92.9018 49.6472C101.889 59.0635 110.896 68.4608 119.923 77.839L134.333 63.9693C125.325 54.6113 116.337 45.2344 107.37 35.8385L92.9018 49.6472ZM119.959 77.8763C120.486 78.4177 120.979 78.8435 121.295 79.1086C121.453 79.2417 121.607 79.3677 121.702 79.4463C121.814 79.5382 121.871 79.5854 121.919 79.6253L134.813 64.3368C134.65 64.1993 134.494 64.0716 134.394 63.989C134.277 63.893 134.218 63.8447 134.167 63.8013C134.062 63.7137 134.147 63.7785 134.297 63.932L119.959 77.8763ZM121.919 79.6251C125.23 82.4181 130.109 82.9842 134.078 80.5852L123.733 63.4688C127.361 61.2756 131.806 61.8004 134.813 64.3369L121.919 79.6251ZM134.078 80.5852C137.766 78.3562 139.93 73.8806 138.844 69.2632L119.375 73.8442C118.376 69.5969 120.37 65.5011 123.733 63.4688L134.078 80.5852ZM138.844 69.263C138.582 68.1514 138.219 67.0656 137.758 66.0196L119.454 74.0781C119.42 74.0028 119.394 73.9245 119.375 73.8444L138.844 69.263ZM62.3682 132.396C62.3704 132.139 62.3845 131.158 62.7814 129.929L81.8122 136.08C82.318 134.515 82.3623 133.178 82.3675 132.567L62.3682 132.396ZM62.7816 129.929C63.363 128.13 64.6138 126.612 66.2899 125.7L75.8482 143.268C78.6978 141.718 80.824 139.137 81.8121 136.08L62.7816 129.929ZM66.3823 125.651C60.763 128.632 55.0856 131.54 49.3369 134.491L58.4711 152.284C64.183 149.351 69.9923 146.376 75.7558 143.318L66.3823 125.651ZM49.3429 134.488L35.4173 141.626L44.5396 159.424L58.4651 152.287L49.3429 134.488ZM35.4173 141.626C38.4144 140.089 41.9041 140.88 44.0404 143.006C46.2264 145.181 47.0696 148.857 45.3511 151.971L27.8402 142.309C21.4628 153.866 34.2298 164.708 44.5395 159.424L35.4173 141.626ZM45.3511 151.971C53.4926 137.217 64.5461 124.239 77.8657 113.836L65.5554 98.074C50.1058 110.14 37.2843 125.194 27.8402 142.309L45.3511 151.971ZM77.8657 113.837C75.4236 115.744 72.6422 116.079 70.4813 115.711C69.2798 115.506 67.4224 114.944 65.6874 113.393C63.7164 111.631 62.4304 109.022 62.4304 106.116H82.4304C82.4304 103.058 81.0841 100.33 79.0153 98.481C77.1826 96.843 75.1898 96.2245 73.8381 95.9944C71.3768 95.5753 68.2355 95.9809 65.5554 98.074L77.8657 113.837ZM62.4304 106.101C62.4175 114.948 62.4428 123.654 62.3682 132.396L82.3675 132.567C82.4429 123.731 82.4176 114.861 82.4304 106.13L62.4304 106.101Z" fill="url(#paint0_linear)" mask="url(#path-1-outside-1)"/>
<defs>
<linearGradient id="paint0_linear" x1="19.0354" y1="188.6" x2="148.931" y2="144.592" gradientUnits="userSpaceOnUse">
<stop stop-color="#FF6767"/>
<stop offset="1" stop-color="#E14BB8"/>
</linearGradient>
</defs>
</svg>
