<svg width="25" height="50" viewBox="0 0 25 50" fill="none" xmlns="http://www.w3.org/2000/svg">
<mask id="path-1-inside-1" fill="white">
<path d="M24.5547 19.1019C21.6204 7.94632 15.5047 4.97657 13.9447 2.87726C13.3014 1.95246 12.7315 0.991176 12.239 0C12.1565 0.991019 12.0051 1.61536 11.0277 2.36688C9.06515 3.87488 0.730094 9.7285 0.0286385 22.4036C-0.624904 34.2215 10.1097 41.5088 11.5279 42.262C12.6184 42.7245 13.9466 42.2719 14.5944 41.8474C19.7691 38.7868 26.8392 30.6274 24.5604 19.1019"/>
</mask>
<path d="M13.9447 2.87726L11.4819 4.59039L11.5087 4.62895L11.5368 4.66666L13.9447 2.87726ZM12.239 0L14.9255 -1.33504L10.1404 -10.9644L9.24927 -0.248617L12.239 0ZM11.0277 2.36688L12.8556 4.74572L12.8563 4.74517L11.0277 2.36688ZM0.0286385 22.4036L-2.96678 22.2379L-2.96678 22.238L0.0286385 22.4036ZM11.5279 42.262L10.1208 44.9116L10.2363 44.9729L10.3566 45.0239L11.5279 42.262ZM14.5944 41.8474L13.0672 39.2653L13.0078 39.3004L12.9501 39.3382L14.5944 41.8474ZM27.456 18.3388C25.8651 12.2904 23.3733 8.35062 20.9961 5.6226C19.8242 4.27766 18.7086 3.26074 17.8449 2.49038C16.8563 1.60863 16.5083 1.29733 16.3526 1.08786L11.5368 4.66666C12.1611 5.50684 13.1626 6.354 13.8512 6.96812C14.6646 7.69363 15.5538 8.51 16.4726 9.56435C18.2769 11.6349 20.31 14.7578 21.6534 19.865L27.456 18.3388ZM16.4074 1.16413C15.8464 0.357577 15.3517 -0.477514 14.9255 -1.33504L9.55238 1.33504C10.1113 2.45987 10.7564 3.54735 11.4819 4.59039L16.4074 1.16413ZM9.24927 -0.248617C9.24088 -0.147725 9.23324 -0.0715582 9.22574 -0.0105723C9.21833 0.0497648 9.21215 0.0860242 9.20831 0.105651C9.20152 0.140281 9.20616 0.101419 9.2389 0.0295633C9.25461 -0.00492775 9.27279 -0.0382174 9.29194 -0.0681245C9.31084 -0.0976664 9.32611 -0.116768 9.33309 -0.124973C9.34555 -0.139615 9.31635 -0.101555 9.1991 -0.0114031L12.8563 4.74517C13.6161 4.16098 14.2717 3.4549 14.699 2.51694C15.098 1.64107 15.1833 0.793893 15.2286 0.248617L9.24927 -0.248617ZM9.19982 -0.0119531C7.17878 1.541 -2.18569 8.12386 -2.96678 22.2379L3.02406 22.5694C3.64588 11.3331 10.9515 6.20877 12.8556 4.74572L9.19982 -0.0119531ZM-2.96678 22.238C-3.34864 29.143 -0.389718 34.6346 2.68048 38.383C5.71906 42.0929 9.07094 44.354 10.1208 44.9116L12.935 39.6124C12.936 39.613 12.9199 39.6044 12.8842 39.5835C12.85 39.5634 12.8041 39.5358 12.7467 39.5C12.6317 39.4282 12.4813 39.3302 12.3001 39.2056C11.9378 38.9563 11.4696 38.6122 10.9354 38.1772C9.8637 37.3043 8.56051 36.093 7.32223 34.5812C4.83397 31.5432 2.75237 27.4822 3.02406 22.5693L-2.96678 22.238ZM10.3566 45.0239C11.6241 45.5614 12.8807 45.5135 13.8079 45.3306C14.7358 45.1475 15.591 44.7811 16.2387 44.3567L12.9501 39.3382C12.9666 39.3274 12.9362 39.3484 12.8623 39.3785C12.7921 39.4071 12.716 39.4303 12.6464 39.4441C12.5759 39.458 12.5408 39.4566 12.5422 39.4566C12.5461 39.4569 12.6065 39.4608 12.6992 39.5001L10.3566 45.0239ZM16.1216 44.4296C22.021 40.9404 30.1032 31.6692 27.5035 18.52L21.6174 19.6838C23.5752 29.5857 17.5171 36.6333 13.0672 39.2653L16.1216 44.4296Z" fill="url(#paint0_linear)" mask="url(#path-1-inside-1)"/>
<path d="M11.8441 48.5C11.8441 49.3284 12.5156 50 13.3441 50C14.1725 50 14.8441 49.3284 14.8441 48.5H11.8441ZM11.8441 41V48.5H14.8441V41H11.8441Z" fill="url(#paint1_linear)"/>
<defs>
<linearGradient id="paint0_linear" x1="5.63859" y1="29.7941" x2="23.6448" y2="28.8115" gradientUnits="userSpaceOnUse">
<stop stop-color="#3BC791"/>
<stop offset="0.0001" stop-color="#3BC791"/>
<stop offset="1" stop-color="#21C879"/>
</linearGradient>
<linearGradient id="paint1_linear" x1="13.5696" y1="46.2632" x2="14.2919" y2="46.2542" gradientUnits="userSpaceOnUse">
<stop stop-color="#3BC791"/>
<stop offset="0.0001" stop-color="#3BC791"/>
<stop offset="1" stop-color="#21C879"/>
</linearGradient>
</defs>
</svg>
