<svg width="35" height="48" viewBox="0 0 35 48" fill="none" xmlns="http://www.w3.org/2000/svg">
<path fill-rule="evenodd" clip-rule="evenodd" d="M14.1451 5.96038C14.1451 4.32098 15.4741 2.99198 17.1135 2.99198C18.7529 2.99198 20.0819 4.32098 20.0819 5.96038C20.0819 7.59979 18.7529 8.92878 17.1135 8.92878C15.4741 8.92878 14.1451 7.59979 14.1451 5.96038ZM17.1135 0C13.8217 0 11.1531 2.66855 11.1531 5.96038C11.1531 9.25221 13.8217 11.9208 17.1135 11.9208C20.4053 11.9208 23.0739 9.25221 23.0739 5.96038C23.0739 2.66855 20.4053 0 17.1135 0ZM17.1135 45.008C24.9126 45.008 31.235 38.6856 31.235 30.8865C31.235 23.0874 24.9126 16.765 17.1135 16.765C9.3144 16.765 2.99198 23.0874 2.99198 30.8865C2.99198 38.6856 9.3144 45.008 17.1135 45.008ZM17.1135 48C26.565 48 34.227 40.338 34.227 30.8865C34.227 21.435 26.565 13.773 17.1135 13.773C7.66198 13.773 0 21.435 0 30.8865C0 40.338 7.66198 48 17.1135 48ZM15.4316 23.6084C12.147 24.2977 9.68078 27.2111 9.68078 30.7005C9.68078 34.7028 12.9253 37.9473 16.9276 37.9473C17.7538 37.9473 18.4235 38.6171 18.4235 39.4433C18.4235 40.2695 17.7538 40.9393 16.9276 40.9393C11.2728 40.9393 6.6888 36.3553 6.6888 30.7005C6.6888 25.0458 11.2728 20.4618 16.9276 20.4618C17.7538 20.4618 18.4235 21.1316 18.4235 21.9578V31.2586C18.4235 32.0848 17.7538 32.7546 16.9276 32.7546C16.1013 32.7546 15.4316 32.0848 15.4316 31.2586V23.6084Z" fill="url(#paint0_linear)"/>
<defs>
<linearGradient id="paint0_linear" x1="28.0483" y1="-1.83833e-06" x2="-3.31882" y2="39.1537" gradientUnits="userSpaceOnUse">
<stop stop-color="#00E5FD"/>
<stop offset="1" stop-color="#00A5FF"/>
</linearGradient>
</defs>
</svg>
