<svg width="202" height="202" viewBox="0 0 202 202" fill="none" xmlns="http://www.w3.org/2000/svg">
<rect x="5" y="5" width="192" height="192" rx="10" stroke="url(#paint0_linear)" stroke-width="10"/>
<path d="M31.4827 73.4138L46.685 105.497C46.8373 105.818 46.8074 106.196 46.6065 106.49L31.4827 128.586" stroke="url(#paint1_linear)" stroke-width="10" stroke-linecap="round"/>
<path d="M116.345 72.3173V123.117C116.345 126.051 114.878 127.517 111.945 127.517H105.225C103.891 127.517 102.878 127.224 102.185 126.637C101.545 125.997 100.905 125.064 100.265 123.837L84.9846 94.7973C84.3446 93.624 83.7046 92.2907 83.0646 90.7973C82.4779 89.304 81.9713 87.864 81.5446 86.4773H80.6646C81.0379 89.464 81.2246 92.344 81.2246 95.1173V127.517H69.7046V76.7173C69.7046 73.784 71.1713 72.3173 74.1046 72.3173H80.7446C82.0246 72.3173 82.9846 72.6373 83.6246 73.2773C84.3179 73.864 84.9846 74.744 85.6246 75.9173L100.425 104.077C101.065 105.304 101.731 106.691 102.425 108.237C103.118 109.731 103.785 111.251 104.425 112.797H105.385C105.225 111.251 105.091 109.731 104.985 108.237C104.931 106.691 104.905 105.144 104.905 103.597V72.3173H116.345ZM148.881 71.3573C151.441 71.3573 153.654 71.4373 155.521 71.5973C157.388 71.704 159.094 71.8907 160.641 72.1573C162.188 72.424 163.788 72.7707 165.441 73.1973L164.481 82.2373C162.721 82.1307 161.094 82.0507 159.601 81.9973C158.108 81.944 156.508 81.8907 154.801 81.8373C153.148 81.784 151.174 81.7573 148.881 81.7573C146.161 81.7573 144.028 82.3173 142.481 83.4373C140.934 84.504 139.841 86.344 139.201 88.9573C138.614 91.5707 138.321 95.224 138.321 99.9173C138.321 104.557 138.614 108.211 139.201 110.877C139.841 113.491 140.934 115.331 142.481 116.397C144.028 117.464 146.161 117.997 148.881 117.997C152.561 117.997 155.654 117.971 158.161 117.917C160.668 117.811 163.148 117.597 165.601 117.277L166.641 126.237C164.081 127.037 161.468 127.597 158.801 127.917C156.134 128.291 152.828 128.477 148.881 128.477C143.174 128.477 138.588 127.571 135.121 125.757C131.708 123.891 129.254 120.877 127.761 116.717C126.268 112.557 125.521 106.957 125.521 99.9173C125.521 92.8773 126.268 87.2773 127.761 83.1173C129.254 78.9573 131.708 75.9707 135.121 74.1573C138.588 72.2907 143.174 71.3573 148.881 71.3573Z" fill="url(#paint2_linear)"/>
<defs>
<linearGradient id="paint0_linear" x1="35.2564" y1="1676.11" x2="597.608" y2="1563.88" gradientUnits="userSpaceOnUse">
<stop stop-color="#33D9EB"/>
<stop offset="1" stop-color="#2CD9CB"/>
</linearGradient>
<linearGradient id="paint1_linear" x1="33.9171" y1="553.617" x2="80.8194" y2="550.996" gradientUnits="userSpaceOnUse">
<stop stop-color="#33D9EB"/>
<stop offset="1" stop-color="#2CD9CB"/>
</linearGradient>
<linearGradient id="paint2_linear" x1="76.3976" y1="964.507" x2="416.128" y2="889.645" gradientUnits="userSpaceOnUse">
<stop stop-color="#33D9EB"/>
<stop offset="1" stop-color="#2CD9CB"/>
</linearGradient>
</defs>
</svg>
