<svg width="57" height="48" viewBox="0 0 57 48" fill="none" xmlns="http://www.w3.org/2000/svg">
<path d="M52.0232 14.2613C51.0587 13.166 50.3532 12.1378 50.4557 11.9766C50.7742 11.4752 52.02 11.0107 52.757 11.1183C54.6933 11.4012 55.5476 13.3854 54.4786 15.1167L53.7772 16.2529L52.0232 14.2613Z" fill="url(#paint0_linear)"/>
<path fill-rule="evenodd" clip-rule="evenodd" d="M28.1811 3.72128C22.9738 3.72128 18.1927 5.2726 14.3707 7.86483C13.5203 8.44164 12.3633 8.21981 11.7864 7.36936C11.2096 6.51891 11.4315 5.36189 12.2819 4.78508C16.7235 1.77262 22.233 0 28.1811 0C34.0646 0 39.5188 1.73425 43.9349 4.68712C44.7892 5.25831 45.0186 6.41384 44.4474 7.26808C43.8762 8.12231 42.7207 8.35176 41.8665 7.78057C38.0655 5.239 33.3317 3.72128 28.1811 3.72128ZM7.91985 10.3923C7.63834 9.94927 7.25463 9.65212 6.97218 9.46876C6.66476 9.2692 6.32983 9.11013 6.00577 8.98929C5.41078 8.76741 4.57866 8.57403 3.77914 8.69081C2.19729 8.92187 0.938934 9.88737 0.351328 11.2521C-0.230856 12.6043 -0.0822365 14.1708 0.743241 15.5078L1.4447 16.6439C1.75441 17.1456 2.28351 17.4707 2.87094 17.5205C3.45837 17.5702 4.03461 17.3386 4.42424 16.8962L6.17817 14.9047L6.17825 14.9046C6.69635 14.3162 7.16326 13.7257 7.49999 13.2349C7.66287 12.9975 7.82922 12.7345 7.95379 12.4806C8.01226 12.3614 8.09934 12.169 8.15656 11.9391C8.18539 11.8233 8.22284 11.6353 8.21975 11.4053C8.21677 11.1839 8.17421 10.7927 7.91987 10.3924M50.7985 9.5755C51.3935 9.35362 52.2257 9.16024 53.0252 9.27702C54.607 9.50808 55.8654 10.4736 56.453 11.8383C57.0352 13.1905 56.8866 14.757 56.0611 16.094L55.3596 17.2302C55.0499 17.7318 54.5208 18.057 53.9334 18.1067C53.346 18.1564 52.7697 17.9248 52.3801 17.4824L50.6261 15.4909L50.6261 15.4908C50.108 14.9024 49.6411 14.3119 49.3043 13.8211C49.1414 13.5837 48.9751 13.3207 48.8505 13.0668C48.7921 12.9476 48.705 12.7552 48.6478 12.5253C48.6189 12.4095 48.5815 12.2215 48.5846 11.9915C48.5875 11.7701 48.6301 11.3788 48.8845 10.9785L50.415 11.951L48.8844 10.9786C48.8845 10.9785 48.8845 10.9785 48.8845 10.9785C49.166 10.5355 49.5497 10.2383 49.8321 10.055C50.1396 9.85541 50.4745 9.69634 50.7985 9.5755ZM2.50058 22.1394C3.52818 22.1394 4.36122 22.9724 4.36122 24C4.36122 34.9262 15.2905 44.2787 28.1811 44.2787C41.0634 44.2787 51.9158 34.9334 51.9158 24C51.9158 22.9724 52.7488 22.1394 53.7764 22.1394C54.804 22.1394 55.6371 22.9724 55.6371 24C55.6371 37.521 42.5423 48 28.1811 48C13.8284 48 0.639937 37.5282 0.639937 24C0.639937 22.9724 1.47297 22.1394 2.50058 22.1394Z" fill="url(#paint1_linear)"/>
<path d="M32.1013 27.9493C35.3635 26.3871 35.4741 24.0971 32.3529 22.7413C26.8982 20.372 19.7265 23.6597 23.2506 26.9141C25.4296 28.9263 29.1516 29.3616 32.1013 27.9493Z" fill="url(#paint2_linear)"/>
<path d="M36.8476 33.7222C37.5624 31.9263 38.0169 32.3024 32.986 30.5267C28.0144 28.7718 28.9824 28.796 24.008 30.3014C19.2257 31.7489 19.5219 31.5408 20.0004 33.114C22.2279 40.4395 34.0047 40.8647 36.8476 33.7222Z" fill="url(#paint3_linear)"/>
<path d="M21.9 18.4716C21.9 20.3646 20.6015 21.8992 18.9997 21.8992C17.3979 21.8992 16.0994 20.3646 16.0994 18.4716C16.0994 16.5785 17.3979 15.0439 18.9997 15.0439C20.6015 15.0439 21.9 16.5785 21.9 18.4716Z" fill="url(#paint4_linear)"/>
<path d="M40.3567 18.4716C40.3567 20.3646 39.0582 21.8992 37.4564 21.8992C35.8546 21.8992 34.5561 20.3646 34.5561 18.4716C34.5561 16.5785 35.8546 15.0439 37.4564 15.0439C39.0582 15.0439 40.3567 16.5785 40.3567 18.4716Z" fill="url(#paint5_linear)"/>
<defs>
<linearGradient id="paint0_linear" x1="59.5889" y1="-15.4579" x2="9.33076" y2="56.8633" gradientUnits="userSpaceOnUse">
<stop stop-color="#00ADFE"/>
<stop offset="1" stop-color="#3B7DFF"/>
</linearGradient>
<linearGradient id="paint1_linear" x1="61.7747" y1="-18.7742" x2="7.05059" y2="58.9617" gradientUnits="userSpaceOnUse">
<stop stop-color="#00ADFE"/>
<stop offset="1" stop-color="#3B7DFF"/>
</linearGradient>
<linearGradient id="paint2_linear" x1="35.7239" y1="19.2888" x2="29.3515" y2="32.9064" gradientUnits="userSpaceOnUse">
<stop stop-color="#00ADFE"/>
<stop offset="1" stop-color="#3B7DFF"/>
</linearGradient>
<linearGradient id="paint3_linear" x1="38.8459" y1="25.4547" x2="29.8977" y2="44.7444" gradientUnits="userSpaceOnUse">
<stop stop-color="#00ADFE"/>
<stop offset="1" stop-color="#3B7DFF"/>
</linearGradient>
<linearGradient id="paint4_linear" x1="22.4076" y1="12.3627" x2="14.1065" y2="20.7938" gradientUnits="userSpaceOnUse">
<stop stop-color="#00ADFE"/>
<stop offset="1" stop-color="#3B7DFF"/>
</linearGradient>
<linearGradient id="paint5_linear" x1="40.8642" y1="12.3627" x2="32.5632" y2="20.7938" gradientUnits="userSpaceOnUse">
<stop stop-color="#00ADFE"/>
<stop offset="1" stop-color="#3B7DFF"/>
</linearGradient>
</defs>
</svg>
