<svg width="202" height="202" viewBox="0 0 202 202" fill="none" xmlns="http://www.w3.org/2000/svg">
<rect x="5" y="5" width="192" height="192" rx="10" stroke="url(#paint0_linear)" stroke-width="10"/>
<path d="M31.4827 73.4138L46.685 105.497C46.8373 105.818 46.8074 106.196 46.6065 106.49L31.4827 128.586" stroke="url(#paint1_linear)" stroke-width="10" stroke-linecap="round"/>
<path d="M96.3078 73C101.161 73 105.081 73.5067 108.068 74.52C111.108 75.48 113.321 77.16 114.708 79.56C116.148 81.9067 116.868 85.1867 116.868 89.4C116.868 93.2933 116.068 96.44 114.468 98.84C112.921 101.187 110.174 102.6 106.228 103.08V103.48C107.668 103.8 109.188 104.573 110.788 105.8C112.388 106.973 113.508 108.973 114.148 111.8L118.948 129H106.148L101.908 112.12C101.374 110.36 100.628 109.133 99.6678 108.44C98.7611 107.747 97.4811 107.4 95.8278 107.4C92.3078 107.4 89.4011 107.373 87.1078 107.32V129H75.1078V73.8C77.2945 73.5867 79.3745 73.4267 81.3478 73.32C83.3211 73.2133 85.4811 73.1333 87.8278 73.08C90.1745 73.0267 93.0011 73 96.3078 73ZM96.0678 82.2C92.8145 82.2 89.8278 82.2 87.1078 82.2V98.2H96.0678C99.3211 98.2 101.561 97.6667 102.788 96.6C104.014 95.48 104.628 93.32 104.628 90.12C104.628 86.9733 104.014 84.8667 102.788 83.8C101.561 82.7333 99.3211 82.2 96.0678 82.2ZM153.225 73.8C154.238 73.8 155.118 74.0933 155.865 74.68C156.665 75.2667 157.198 76.04 157.465 77L173.465 129H160.985L156.905 114.36H137.865L133.865 129H121.385L137.385 77C137.651 76.04 138.158 75.2667 138.905 74.68C139.705 74.0933 140.611 73.8 141.625 73.8H153.225ZM145.145 88.36L140.425 105.24H154.345L149.705 88.36C149.438 87.5067 149.198 86.6267 148.985 85.72C148.825 84.76 148.665 83.8533 148.505 83H146.345C146.185 83.8533 145.998 84.76 145.785 85.72C145.571 86.6267 145.358 87.5067 145.145 88.36Z" fill="url(#paint2_linear)"/>
<defs>
<linearGradient id="paint0_linear" x1="35.2564" y1="1676.11" x2="597.608" y2="1563.88" gradientUnits="userSpaceOnUse">
<stop stop-color="#33D9EB"/>
<stop offset="1" stop-color="#2CD9CB"/>
</linearGradient>
<linearGradient id="paint1_linear" x1="33.9171" y1="553.617" x2="80.8194" y2="550.996" gradientUnits="userSpaceOnUse">
<stop stop-color="#33D9EB"/>
<stop offset="1" stop-color="#2CD9CB"/>
</linearGradient>
<linearGradient id="paint2_linear" x1="73.9044" y1="958.886" x2="469.619" y2="854.342" gradientUnits="userSpaceOnUse">
<stop stop-color="#33D9EB"/>
<stop offset="1" stop-color="#2CD9CB"/>
</linearGradient>
</defs>
</svg>
