<svg width="42" height="49" viewBox="0 0 42 49" fill="none" xmlns="http://www.w3.org/2000/svg">
<path fill-rule="evenodd" clip-rule="evenodd" d="M1.26123 3.36007C1.26123 1.50435 3.00927 0 5.16558 0H37.8645C40.0208 0 41.7688 1.50435 41.7688 3.36007V44.3809C41.7688 46.2367 40.0208 47.741 37.8645 47.741H36.2376C35.1595 47.741 34.2855 46.9888 34.2855 46.061C34.2855 45.1331 35.1595 44.3809 36.2376 44.3809H37.8645V3.36007H5.16558V19.3204C5.16558 20.2483 4.29156 21.0004 3.2134 21.0004C2.13525 21.0004 1.26123 20.2483 1.26123 19.3204V3.36007Z" fill="url(#paint0_linear)"/>
<path fill-rule="evenodd" clip-rule="evenodd" d="M7.61996 44.4965C8.90206 44.4965 9.9414 43.5627 9.9414 42.4107C9.9414 41.2588 8.90206 40.325 7.61996 40.325C6.33786 40.325 5.29851 41.2588 5.29851 42.4107C5.29851 43.5627 6.33786 44.4965 7.61996 44.4965ZM7.61996 47.2775C10.6115 47.2775 13.0367 45.0986 13.0367 42.4107C13.0367 39.7229 10.6115 37.5439 7.61996 37.5439C4.62839 37.5439 2.20325 39.7229 2.20325 42.4107C2.20325 45.0986 4.62839 47.2775 7.61996 47.2775Z" fill="url(#paint1_linear)"/>
<path d="M10.2104 21.5532C10.2104 20.6572 10.974 19.9309 11.9158 19.9309H24.9907C25.9325 19.9309 26.6961 20.6572 26.6961 21.5532C26.6961 22.4491 25.9325 23.1754 24.9907 23.1754H11.9158C10.974 23.1754 10.2104 22.4491 10.2104 21.5532Z" fill="url(#paint2_linear)"/>
<path d="M3.21279 31.7758C4.15003 31.5333 4.45752 31.5355 5.4761 31.5429L5.48105 31.543L5.48139 31.543C5.68178 31.5444 5.90934 31.5461 6.17282 31.5461C13.8981 31.5461 20.1537 37.0335 20.1537 43.7877C20.1537 44.1136 20.1575 44.3462 20.1604 44.5242C20.165 44.7988 20.1666 44.9261 20.153 45.0693C20.1413 45.1924 20.1416 45.5662 20.1435 45.8787C20.1446 46.0417 20.1462 46.1983 20.1476 46.314L20.1493 46.4529L20.1498 46.4915L20.15 46.5016L20.15 46.5027C20.1509 47.1314 20.4694 47.5987 20.8439 47.8983C21.2078 48.1894 21.6579 48.35 22 48.35C22.5537 48.35 23.0154 48.2109 23.3271 47.856C23.6299 47.5112 23.7283 47.0322 23.7283 46.5V45.3164C23.755 45.0223 23.7503 44.6928 23.7451 44.336L23.7449 44.3217C23.7425 44.1535 23.74 43.9767 23.74 43.7877C23.74 35.2799 15.8716 28.3941 6.17282 28.3941C5.95441 28.3941 5.75231 28.3923 5.55971 28.3906C4.43628 28.3805 3.66058 28.3738 2.19674 28.7524C1.28599 28.988 0.67647 29.8514 0.99472 30.7393C1.3006 31.5927 2.31396 32.0083 3.21279 31.7758Z" fill="url(#paint3_linear)" stroke="url(#paint4_linear)" stroke-width="0.7" stroke-linecap="round"/>
<path d="M10.2104 12.0513C10.2104 11.0273 10.9166 10.1973 11.7878 10.1973L31.2419 10.1973C32.1131 10.1973 32.8193 11.0273 32.8193 12.0513C32.8193 13.0752 32.1131 13.9053 31.2419 13.9053L11.7878 13.9053C10.9166 13.9053 10.2104 13.0752 10.2104 12.0513Z" fill="url(#paint5_linear)"/>
<defs>
<linearGradient id="paint0_linear" x1="11.9982" y1="37.2408" x2="34.651" y2="-0.406087" gradientUnits="userSpaceOnUse">
<stop stop-color="#33D9EB"/>
<stop offset="1" stop-color="#2CD9CB"/>
</linearGradient>
<linearGradient id="paint1_linear" x1="3.50494" y1="43.1318" x2="3.50494" y2="47.8784" gradientUnits="userSpaceOnUse">
<stop stop-color="#F49858"/>
<stop offset="1" stop-color="#FF605D"/>
</linearGradient>
<linearGradient id="paint2_linear" x1="12.7685" y1="41.8485" x2="35.6006" y2="7.51977" gradientUnits="userSpaceOnUse">
<stop stop-color="#33D9EB"/>
<stop offset="1" stop-color="#2CD9CB"/>
</linearGradient>
<linearGradient id="paint3_linear" x1="3.92121" y1="39.7956" x2="3.92121" y2="49.189" gradientUnits="userSpaceOnUse">
<stop stop-color="#F49858"/>
<stop offset="1" stop-color="#FF605D"/>
</linearGradient>
<linearGradient id="paint4_linear" x1="3.92121" y1="39.7956" x2="3.92121" y2="49.189" gradientUnits="userSpaceOnUse">
<stop stop-color="#F49858"/>
<stop offset="1" stop-color="#FF605D"/>
</linearGradient>
<linearGradient id="paint5_linear" x1="13.7732" y1="42.4708" x2="41.531" y2="8.69486" gradientUnits="userSpaceOnUse">
<stop stop-color="#33D9EB"/>
<stop offset="1" stop-color="#2CD9CB"/>
</linearGradient>
</defs>
</svg>
