<svg width="47" height="49" viewBox="0 0 47 49" fill="none" xmlns="http://www.w3.org/2000/svg">
<path fill-rule="evenodd" clip-rule="evenodd" d="M4.12896 16.9653C6.95377 9.23293 14.2786 3.75 22.8402 3.75C33.8337 3.75 42.7912 12.7974 42.7912 24.0145C42.7912 35.2316 33.8337 44.2791 22.8402 44.2791C14.2786 44.2791 6.95377 38.7961 4.12896 31.0637C3.96289 30.6092 3.81243 30.1469 3.67824 29.6776C3.39356 28.6819 2.35567 28.1056 1.36003 28.3903C0.364396 28.6749 -0.211951 29.7128 0.0727254 30.7085C0.231671 31.2644 0.409904 31.812 0.606644 32.3505C3.94494 41.4885 12.6267 48.0291 22.8402 48.0291C35.955 48.0291 46.5412 37.2521 46.5412 24.0145C46.5412 10.777 35.955 0 22.8402 0C12.6267 0 3.94494 6.54059 0.606644 15.6785C0.25131 16.6512 0.751751 17.7278 1.72441 18.0831C2.69707 18.4384 3.77362 17.938 4.12896 16.9653ZM17.89 16.7587C17.89 15.7232 17.0505 14.8837 16.015 14.8837C14.9795 14.8837 14.14 15.7232 14.14 16.7587V23.4564C14.14 24.4919 14.9795 25.3314 16.015 25.3314C17.0505 25.3314 17.89 24.4919 17.89 23.4564V16.7587Z" fill="url(#paint0_linear)"/>
<defs>
<linearGradient id="paint0_linear" x1="9.83553" y1="19.7631" x2="46.8469" y2="39.6854" gradientUnits="userSpaceOnUse">
<stop stop-color="#A951EC"/>
<stop offset="1" stop-color="#D65FF2"/>
</linearGradient>
</defs>
</svg>
