<svg width="54" height="36" viewBox="0 0 54 36" fill="none" xmlns="http://www.w3.org/2000/svg">
<path d="M12.2235 35.9842C8.21927 35.639 5.15948 34.4311 2.93396 32.3171C0.669691 30.1662 -0.301877 27.362 0.0815529 24.0842C0.522783 20.3122 2.31527 17.6485 5.45797 16.0945C7.88012 14.8968 10.2965 14.4412 14.2316 14.4402C17.0275 14.4391 19.3702 14.668 22.9434 15.2897C23.827 15.4434 24.5919 15.5692 24.6433 15.5693C24.718 15.5693 24.7773 15.2881 24.9394 14.1639C25.2327 12.1297 25.2853 11.4279 25.2054 10.613C25.1124 9.66454 24.991 9.21275 24.6317 8.47769C23.7046 6.5812 21.5038 5.42088 17.9696 4.96529C16.9589 4.835 14.6262 4.81678 13.6137 4.9312C11.9174 5.12298 10.9708 5.36733 8.85964 6.15834C7.62452 6.62115 7.61888 6.62258 7.1262 6.59366C6.27924 6.54404 5.70104 6.16056 5.33019 5.40257C5.17746 5.09043 5.15061 4.96159 5.1506 4.541C5.1506 3.90961 5.31504 3.57441 5.88761 3.0388C7.1716 1.83768 9.33225 0.814804 11.513 0.375624C12.9094 0.0944243 13.5967 0.0353103 15.4364 0.0381363C17.34 0.0431024 18.5572 0.148554 20.2489 0.46312C23.0627 0.986275 25.1992 1.9084 26.8103 3.29497C27.2883 3.70638 28.0092 4.51611 28.318 4.98861C28.4124 5.13304 28.5097 5.25125 28.5341 5.25125C28.5586 5.25125 28.7148 5.07769 28.8812 4.86564C31.3207 1.75706 35.4294 -0.00246862 40.2431 2.59957e-06C43.6478 2.59957e-06 46.8125 0.863107 49.1716 2.43019C51.0427 3.67317 52.5627 5.58795 53.1768 7.47553C53.5294 8.55931 53.583 8.95977 53.5862 10.5339C53.5881 11.5134 53.5612 12.1741 53.5066 12.4802C52.9545 15.5741 51.6395 17.7175 49.3569 19.2437C47.5206 20.4715 45.2144 21.1899 42.1982 21.4737C40.6799 21.6165 37.9028 21.6031 36.1038 21.4441C34.577 21.3091 32.7022 21.0717 31.9024 20.9121C31.2329 20.7784 28.9404 20.3956 28.9215 20.4144C28.9132 20.4228 28.8041 21.1083 28.6791 21.9382C28.4796 23.2633 28.4513 23.594 28.4471 24.652C28.4427 25.7277 28.458 25.9164 28.5877 26.4129C29.0051 28.0093 29.9248 29.0772 31.5935 29.9027C33.2349 30.7148 34.9557 31.0663 37.5558 31.1205C38.7069 31.1447 39.2964 31.1278 40.0166 31.0515C41.7624 30.8664 42.558 30.6633 44.8774 29.8106C45.4551 29.5982 46.0447 29.405 46.1876 29.3811C46.4938 29.3301 47.0649 29.4355 47.3978 29.6046C47.9985 29.9097 48.5033 30.7235 48.5002 31.3818C48.4967 32.1508 48.2373 32.6167 47.4759 33.2225C45.6554 34.6709 43.3309 35.5592 40.5561 35.8668C39.5667 35.9766 37.3076 35.9927 36.2164 35.898C33.1435 35.6311 31.01 35.1055 29.0602 34.1351C27.5389 33.378 26.3781 32.4387 25.5112 31.2631C25.2982 30.9743 25.1172 30.7307 25.1091 30.7218C25.1009 30.713 24.9594 30.8798 24.7944 31.0926C24.0654 32.033 22.9505 33.0438 21.861 33.7522C20.2881 34.7749 18.0301 35.5551 15.7453 35.8654C15.064 35.9579 12.8032 36.0342 12.2235 35.9842V35.9842ZM16.147 31.5818C18.0124 31.1684 19.6747 30.2366 20.8815 28.928C21.9823 27.7343 22.8852 25.9461 23.3821 23.9755C23.6622 22.8646 24.1278 19.7729 24.0246 19.7091C23.9838 19.6839 23.7378 19.6441 23.4778 19.6206C23.2179 19.5969 22.4769 19.5096 21.8313 19.4261C17.9961 18.9301 15.6433 18.7373 14.3243 18.8113C11.8166 18.9517 10.7943 19.1707 9.28871 19.8897C8.51739 20.2581 7.98503 20.6578 7.56381 21.1848C6.95949 21.941 6.59473 22.6924 6.34048 23.7049C6.15545 24.4417 6.13658 26.3709 6.3083 26.9924C6.59758 28.0395 6.94098 28.6321 7.71316 29.4168C8.77053 30.4912 10.1644 31.208 11.8934 31.5664C12.7775 31.7497 12.7513 31.7479 14.2316 31.7256C15.3057 31.7093 15.7076 31.6791 16.147 31.5818V31.5818ZM40.5833 17.0854C42.1434 16.9477 43.1027 16.7055 44.2813 16.1518C45.2615 15.6912 45.8313 15.2205 46.3704 14.4258C47.1642 13.2556 47.4733 12.1483 47.4653 10.503C47.4597 9.33039 47.3603 8.84258 46.9555 8.00071C46.051 6.11974 43.9262 4.77242 41.1394 4.31277C40.444 4.1981 38.5775 4.21846 37.8647 4.34837C36.4935 4.59856 35.3343 5.05462 34.312 5.74606C32.4233 7.02355 31.1198 8.94926 30.394 11.5344C30.1089 12.5498 30.0329 12.9396 29.7787 14.6899L29.5442 16.3044L29.8583 16.3391C30.8069 16.4442 32.9461 16.7033 34.1885 16.8634C34.9701 16.9641 35.9293 17.0716 36.3201 17.1023C37.4498 17.191 39.4754 17.1828 40.5833 17.085V17.0854Z" fill="url(#paint0_linear)"/>
<defs>
<linearGradient id="paint0_linear" x1="43.9129" y1="-1.37875e-06" x2="27.7855" y2="42.0228" gradientUnits="userSpaceOnUse">
<stop stop-color="#00E5FD"/>
<stop offset="1" stop-color="#00A5FF"/>
</linearGradient>
</defs>
</svg>
