<svg width="52" height="52" viewBox="0 0 52 52" fill="none" xmlns="http://www.w3.org/2000/svg">
<path d="M45.5 12.0058C41.1437 5.94625 34.0327 2 26 2C17.9673 2 10.8563 5.94625 6.5 12.0058M49.7466 22.5C49.9136 23.6425 50 24.8112 50 26C50 39.2548 39.2548 50 26 50C12.7452 50 2 39.2548 2 26C2 24.8112 2.08644 23.6425 2.25337 22.5" stroke="url(#paint0_linear)" stroke-width="3.5" stroke-linecap="round"/>
<path fill-rule="evenodd" clip-rule="evenodd" d="M7.23213 17.1462C6.9748 17.2213 6.54782 17.3856 6.28329 17.5116L5.80252 17.7406C5.55266 17.8266 5.91395 19.3135 5.91395 19.3135L6.1567 19.425C8.23117 20.3773 9.77973 22.8143 12.384 29.225C15.2881 36.3736 16.8677 38.736 19.818 40.3423C21.761 41.4001 24.6355 41.5858 26.8968 40.7997C27.4545 40.6058 27.5232 40.5958 27.832 40.6645C30.0424 41.1556 32.7603 40.7346 34.4651 39.6371C36.8578 38.0967 38.0979 35.6815 39.7432 29.3575C41.4564 22.7721 42.9113 20.1331 45.591 18.7499L46.0082 18.5345C46.2209 18.4114 46.2678 18.1426 46.2678 18.1426L45.9572 17.0678L45.4452 16.9437C42.7396 16.2874 39.2822 17.0932 37.1642 18.8735C34.9789 20.7107 33.8916 23.0484 32.2611 29.416C30.6648 35.6503 29.8414 37.398 27.8399 38.8018C27.3075 39.1752 26.9261 39.0829 25.7248 38.2906C23.5346 36.846 22.2527 34.7575 19.6376 28.3733C17.3953 22.8986 16.5311 21.2647 14.9777 19.5631C12.9398 17.3308 9.87886 16.3757 7.23213 17.1462ZM10.5256 18.4227C13.6964 19.1493 15.2921 21.266 18.3562 28.8086C21.0391 35.4128 22.551 37.8363 24.9888 39.4401C25.5189 39.7889 25.4836 39.8271 24.5733 39.889C21.8008 40.0773 19.6455 39.1314 17.845 36.936C16.4844 35.277 15.6824 33.7141 13.6654 28.7897C11.0668 22.4453 9.86786 20.4154 7.81318 18.8812C7.36858 18.5492 7.3661 18.5455 7.54749 18.4914C7.6482 18.4615 7.76033 18.4226 7.7967 18.4052C8.06111 18.2774 9.94504 18.2896 10.5256 18.4227ZM44.0205 18.0947C44.0217 18.1121 43.8501 18.2639 43.6392 18.432C41.313 20.2846 40.0395 22.8562 38.458 28.8939C37.1526 33.878 36.4847 35.5833 35.2453 37.0974C33.9066 38.7328 31.825 39.6279 29.6469 39.5048L29.2401 39.4819L29.7039 38.9962C31.3727 37.2484 32.1109 35.4868 33.5766 29.7529C35.4707 22.3439 36.8452 19.9975 40.0365 18.7261C40.9499 18.3622 44.0055 17.8778 44.0205 18.0947Z" fill="url(#paint1_linear)"/>
<path fill-rule="evenodd" clip-rule="evenodd" d="M7.033 16.4576C9.9703 15.6025 13.3048 16.6692 15.5045 19.0788C17.1543 20.886 18.059 22.6331 20.2984 28.1006C22.9224 34.5066 24.136 36.3847 26.1172 37.6915C26.7306 38.096 27.0273 38.2444 27.2005 38.2863C27.2625 38.3012 27.2815 38.295 27.2854 38.294C27.2979 38.291 27.3392 38.2782 27.4306 38.2141C29.1862 36.9827 29.9646 35.5035 31.5691 29.2375C33.1994 22.8706 34.3282 20.3224 36.7053 18.3239C38.9986 16.3962 42.689 15.5375 45.6131 16.2467L46.528 16.4686L47 18.1023L46.9715 18.2658L46.2678 18.1426L45.9572 17.0678L45.4452 16.9437C42.7396 16.2874 39.2822 17.0932 37.1642 18.8735C34.9789 20.7107 33.8916 23.0484 32.2611 29.416C30.6648 35.6503 29.8414 37.398 27.8399 38.8018C27.3075 39.1752 26.9261 39.0829 25.7248 38.2906C23.5346 36.846 22.2527 34.7575 19.6376 28.3733C17.3953 22.8986 16.5311 21.2647 14.9777 19.5631C12.9398 17.3308 9.87886 16.3757 7.23213 17.1462C6.9748 17.2213 6.54782 17.3856 6.28329 17.5116L5.80252 17.7406C5.55266 17.8266 5.91395 19.3135 5.91395 19.3135C5.21984 19.4833 5.21978 19.483 5.21978 19.483L5.21932 19.4811L5.21831 19.4769L5.21485 19.4624C5.21193 19.4501 5.20781 19.4325 5.20274 19.4105C5.19262 19.3665 5.17861 19.3042 5.1627 19.2294C5.13112 19.0811 5.09084 18.8783 5.0585 18.6689C5.02736 18.4674 4.99831 18.2273 5.00008 18.0164C5.00092 17.9159 5.00854 17.7753 5.04901 17.6343C5.0783 17.5322 5.18371 17.2247 5.51614 17.0833L5.97686 16.8638C6.27301 16.7228 6.73603 16.5442 7.033 16.4576ZM7.7967 18.4052C7.76033 18.4226 7.6482 18.4615 7.54749 18.4914C7.39769 18.5361 7.37326 18.5462 7.6197 18.7354C7.67167 18.7753 7.73578 18.8234 7.81318 18.8812C7.86911 18.923 7.92437 18.965 7.97907 19.0075C8.00602 19.0285 8.03283 19.0496 8.0595 19.0708L8.06043 19.0715L8.06334 19.0738C9.96917 20.5901 11.174 22.7071 13.6654 28.7897C15.6824 33.7141 16.4844 35.277 17.845 36.936C19.6056 39.0827 21.7054 40.0345 24.3897 39.8997C24.4506 39.8966 24.5118 39.8932 24.5733 39.889C24.5946 39.8875 24.6155 39.8859 24.6359 39.8845C24.6583 39.8829 24.6801 39.8814 24.7013 39.8798C25.4856 39.8224 25.4928 39.7718 24.9888 39.4401C24.9194 39.3945 24.8507 39.348 24.7827 39.3009C24.72 39.2575 24.658 39.2134 24.5964 39.1687C22.382 37.5583 20.8923 35.0513 18.3562 28.8086C15.2921 21.266 13.6964 19.1493 10.5256 18.4227C10.0953 18.324 8.94865 18.2916 8.27648 18.3336C8.25597 18.3349 8.23589 18.3362 8.21629 18.3377C8.18161 18.3402 8.14833 18.3429 8.11682 18.3459C7.96255 18.3603 7.84853 18.3801 7.7967 18.4052ZM9.11093 19.0334C10.8462 20.6612 12.0914 23.061 14.3262 28.5171C16.3445 33.4444 17.112 34.9141 18.3966 36.4804C19.8164 38.2114 21.4389 39.0794 23.4697 39.1845C21.4533 37.4207 19.9708 34.6821 17.6946 29.079C16.1616 25.3052 15.0265 22.9714 13.9111 21.4919C12.8334 20.0626 11.7867 19.4468 10.3665 19.1213C10.1704 19.0764 9.6634 19.0397 9.11093 19.0334ZM19.818 40.3423C16.8677 38.736 15.2881 36.3736 12.384 29.225C9.77973 22.8143 8.23117 20.3773 6.1567 19.425L5.91395 19.3135L5.21978 19.483L5.30181 19.8206L5.85933 20.0766C6.72889 20.4758 7.54133 21.203 8.46924 22.6633C9.40436 24.1349 10.4226 26.2959 11.7224 29.4954C14.6254 36.6413 16.2824 39.2327 19.4772 40.9722C21.6123 42.1345 24.6973 42.3228 27.1306 41.4768C27.2705 41.4282 27.3668 41.3957 27.4409 41.3733C27.5147 41.3509 27.547 41.3448 27.5596 41.343C27.5625 41.3425 27.5633 41.3424 27.5633 41.3424L27.5652 41.3427C27.5777 41.3439 27.6041 41.3479 27.6774 41.3642C30.0496 41.8912 32.9665 41.4534 34.8509 40.2402C37.4996 38.535 38.7906 35.8568 40.4344 29.5384C42.1495 22.9458 43.5459 20.6115 45.9178 19.3872L46.3502 19.1639L46.3651 19.1553C46.6464 18.9925 46.7933 18.7502 46.8655 18.5946C46.9037 18.5122 46.9284 18.4382 46.9441 18.383C46.9521 18.355 46.958 18.3306 46.9624 18.311C46.9646 18.3011 46.9665 18.2924 46.968 18.2848L46.97 18.2744L46.9708 18.2699L46.9712 18.2678L46.9715 18.2658C46.9715 18.2658 46.9715 18.266 46.2678 18.1426C46.2678 18.1426 46.2209 18.4114 46.0082 18.5345L45.591 18.7499C42.9113 20.1331 41.4564 22.7721 39.7432 29.3575C38.0979 35.6815 36.8578 38.0967 34.4651 39.6371C32.7603 40.7346 30.0424 41.1556 27.832 40.6645C27.5232 40.5958 27.4545 40.6058 26.8968 40.7997C24.6355 41.5858 21.761 41.4001 19.818 40.3423ZM30.1985 39.5142C32.1727 39.4706 34.0201 38.5941 35.2453 37.0974C36.4847 35.5833 37.1526 33.878 38.458 28.8939C39.9374 23.2458 41.1473 20.6308 43.2016 18.8002C43.2935 18.7183 43.3872 18.6379 43.4827 18.5588C43.5343 18.5161 43.5865 18.474 43.6392 18.432C43.8501 18.2639 44.0217 18.1121 44.0205 18.0947C44.0161 18.0308 43.7479 18.0276 43.3484 18.0644C43.3347 18.0657 43.3206 18.067 43.3065 18.0683C43.181 18.0805 43.0436 18.0963 42.898 18.1152C41.925 18.2417 40.589 18.506 40.0365 18.7261C36.8452 19.9975 35.4707 22.3439 33.5766 29.7529C32.1664 35.2695 31.4296 37.1091 29.8896 38.7972C29.8289 38.8636 29.7671 38.93 29.7039 38.9962L29.6737 39.0277L29.2401 39.4819L29.6469 39.5048C29.8316 39.5153 30.0156 39.5182 30.1985 39.5142ZM30.8759 38.7437C32.3813 38.5418 33.7488 37.796 34.6931 36.6423C35.8203 35.2654 36.4581 33.7089 37.767 28.7115C39.0813 23.6937 40.2128 20.9262 41.9984 18.9817C41.2801 19.1118 40.607 19.2699 40.3001 19.3922C38.8452 19.9718 37.831 20.7732 36.936 22.301C36.0124 23.8775 35.2151 26.2286 34.2686 29.9309C32.9945 34.9153 32.2442 37.0279 30.8759 38.7437Z" fill="url(#paint2_linear)"/>
<defs>
<linearGradient id="paint0_linear" x1="26" y1="2" x2="26" y2="50" gradientUnits="userSpaceOnUse">
<stop stop-color="#1E8CFF"/>
<stop offset="1" stop-color="#6566FF"/>
</linearGradient>
<linearGradient id="paint1_linear" x1="26" y1="16" x2="26" y2="42" gradientUnits="userSpaceOnUse">
<stop stop-color="#1E8CFF"/>
<stop offset="1" stop-color="#6566FF"/>
</linearGradient>
<linearGradient id="paint2_linear" x1="26" y1="16" x2="26" y2="42" gradientUnits="userSpaceOnUse">
<stop stop-color="#1E8CFF"/>
<stop offset="1" stop-color="#6566FF"/>
</linearGradient>
</defs>
</svg>
