<svg width="74" height="48" viewBox="0 0 74 48" fill="none" xmlns="http://www.w3.org/2000/svg">
<path fill-rule="evenodd" clip-rule="evenodd" d="M24.5428 0.300547C24.862 0.0240593 25.3006 -0.069513 25.7048 0.0526567C29.388 1.16591 33.2493 1.5046 36.7367 1.43681C36.7526 1.4365 36.7686 1.4365 36.7845 1.43681C40.2719 1.5046 44.1333 1.16591 47.8165 0.0526567C48.2207 -0.069513 48.6593 0.0240593 48.9785 0.300547C49.2976 0.577035 49.4528 0.997833 49.3894 1.41532C48.8461 4.99822 48.2726 10.4315 48.3092 15.0855C48.3275 17.4218 48.4997 19.4898 48.8755 21.0108C48.9528 21.3236 49.0361 21.6024 49.1239 21.8483L54.0446 3.91484C54.1913 3.38029 54.6772 3.00974 55.2315 3.00974H68.761C69.4322 3.00974 69.9796 3.54738 69.9916 4.21838C70.0094 5.20857 70.1953 6.93836 70.7037 8.7889C71.2148 10.6489 72.0229 12.5249 73.2195 13.9018C73.4999 14.2244 73.5928 14.6695 73.4649 15.0774C73.389 15.3194 73.2418 15.5277 73.0481 15.6791C73.0616 15.7001 73.0749 15.7207 73.0879 15.7408C73.3648 16.1681 73.3501 16.7218 73.0508 17.1337C72.7516 17.5456 72.2296 17.7307 71.7377 17.5994C70.6418 17.3068 69.6636 16.6948 68.8523 16.0221L68.9322 18.1971C68.9514 18.7218 68.6358 19.2008 68.1461 19.3902C67.6565 19.5795 67.1007 19.4375 66.7619 19.0364L65.2859 17.2887V21.1211C65.2859 21.6168 64.9885 22.0642 64.5314 22.256C64.0744 22.4478 63.5468 22.3468 63.193 21.9995L62.485 21.3046C60.3735 26.6442 57.4606 36.9911 58.6865 46.0813C58.733 46.4257 58.6316 46.7737 58.4076 47.0394C58.1835 47.305 57.8576 47.4635 57.5102 47.4758L42.6865 47.9992C42.0572 48.0214 41.5126 47.5651 41.4245 46.9416C41.1586 45.0616 40.5529 42.1915 39.6156 39.7168C39.1461 38.4773 38.6134 37.3908 38.0335 36.5864C37.5675 35.9398 37.1357 35.5643 36.7606 35.3804C36.3855 35.5643 35.9537 35.9398 35.4877 36.5864C34.9079 37.3908 34.3751 38.4773 33.9057 39.7168C32.9684 42.1915 32.3627 45.0616 32.0968 46.9416C32.0086 47.5651 31.4641 48.0214 30.8347 47.9992L16.0111 47.4758C15.6637 47.4635 15.3378 47.305 15.1137 47.0394C14.8896 46.7737 14.7883 46.4257 14.8348 46.0813C16.0606 36.9911 13.1477 26.6442 11.0363 21.3047L10.3283 21.9995C9.97447 22.3468 9.44692 22.4478 8.98985 22.256C8.53278 22.0642 8.2354 21.6168 8.2354 21.1211V17.2887L6.75936 19.0364C6.42063 19.4375 5.86479 19.5795 5.37515 19.3902C4.88552 19.2008 4.56988 18.7218 4.58914 18.1971L4.66895 16.0221C3.85767 16.6948 2.87951 17.3068 1.7836 17.5994C1.29168 17.7307 0.769688 17.5456 0.470433 17.1337C0.171178 16.7218 0.156444 16.1681 0.433368 15.7408C0.446426 15.7207 0.459686 15.7001 0.473145 15.6791C0.279446 15.5277 0.132287 15.3194 0.056403 15.0774C-0.0715022 14.6695 0.0214072 14.2244 0.301824 13.9018C1.4984 12.5249 2.30653 10.6489 2.81755 8.7889C3.32597 6.93836 3.51186 5.20857 3.52967 4.21838C3.54174 3.54738 4.08913 3.00974 4.76024 3.00974H18.2898C18.8441 3.00974 19.33 3.38029 19.4767 3.91484L24.3974 21.8483C24.4852 21.6024 24.5685 21.3236 24.6458 21.0108C25.0215 19.4898 25.1937 17.4218 25.2121 15.0855C25.2487 10.4315 24.6752 4.99822 24.1319 1.41532C24.0685 0.997833 24.2237 0.577035 24.5428 0.300547ZM7.25026 12.8034C7.2509 12.7911 7.25135 12.7787 7.25162 12.7664L7.28431 11.8754C7.30471 11.3196 6.94982 10.8192 6.41854 10.6546C5.88727 10.49 5.31165 10.7022 5.01428 11.1722C4.74226 11.6022 4.46675 11.9555 4.19592 12.2454C4.61542 11.3091 4.94064 10.3528 5.19114 9.44101C5.59164 7.98326 5.81573 6.58555 5.91969 5.47128H17.3512L22.6324 24.7182C22.72 25.0376 22.9326 25.3082 23.2222 25.4688C23.5118 25.6295 23.8539 25.6666 24.1712 25.572C25.029 25.316 25.645 24.7076 26.0786 24.0208C26.5093 23.3388 26.8135 22.4994 27.0355 21.6012C27.4798 19.8027 27.6547 17.5099 27.6736 15.1048C27.7055 11.0352 27.2906 6.4378 26.8273 2.90315C30.2272 3.7119 33.6591 3.95703 36.7606 3.89834C39.8621 3.95703 43.2941 3.7119 46.694 2.90315C46.2307 6.4378 45.8157 11.0352 45.8477 15.1048C45.8666 17.5099 46.0415 19.8027 46.4858 21.6012C46.7077 22.4994 47.012 23.3388 47.4426 24.0208C47.8763 24.7076 48.4923 25.316 49.3501 25.572C49.6674 25.6666 50.0095 25.6295 50.2991 25.4688C50.5887 25.3082 50.8013 25.0376 50.8889 24.7182L56.17 5.47128H67.6016C67.7056 6.58555 67.9296 7.98326 68.3301 9.44101C68.5806 10.3528 68.9059 11.3091 69.3254 12.2454C69.0545 11.9555 68.779 11.6022 68.507 11.1722C68.2096 10.7022 67.634 10.49 67.1027 10.6546C66.5715 10.8192 66.2166 11.3196 66.237 11.8754L66.2697 12.7665C66.2699 12.7788 66.2704 12.791 66.271 12.8033L66.3415 14.7237L64.9954 13.1298C64.662 12.7351 64.1176 12.5906 63.6323 12.7681C63.1471 12.9456 62.8243 13.4073 62.8243 13.924V18.1975C62.5464 17.9749 62.1834 17.8823 61.8294 17.9484C61.4344 18.022 61.1003 18.2839 60.9343 18.6497C58.8638 23.2129 55.1174 34.6141 56.0937 45.0627L43.6879 45.5008C43.3515 43.5739 42.7652 41.083 41.9175 38.845C41.4086 37.5011 40.7854 36.1945 40.0304 35.1471C39.2894 34.119 38.3139 33.1922 37.0559 32.8812C36.862 32.8333 36.6592 32.8333 36.4653 32.8812C35.2073 33.1922 34.2318 34.119 33.4908 35.1471C32.7358 36.1945 32.1127 37.5011 31.6037 38.845C30.756 41.083 30.1698 43.5739 29.8334 45.5008L17.4276 45.0627C18.4039 34.6141 14.6575 23.2129 12.587 18.6497C12.421 18.2839 12.0868 18.022 11.6919 17.9484C11.3378 17.8823 10.9749 17.9749 10.6969 18.1975V13.924C10.6969 13.4073 10.3742 12.9456 9.88897 12.7681C9.40372 12.5906 8.85927 12.7351 8.52589 13.1298L7.17979 14.7237L7.25026 12.8034Z" fill="url(#paint0_linear)"/>
<path fill-rule="evenodd" clip-rule="evenodd" d="M32.9803 6.74748C31.9302 7.23846 31.8675 11.77 32.893 13.0554L33.1655 13.397L33.4101 13.2544C33.665 13.1056 33.8227 12.8859 33.886 12.5907C33.9066 12.4951 33.9401 12.3909 33.9607 12.3591C34.0571 12.2095 34.2125 10.9968 34.235 10.217C34.2445 9.88703 34.1167 8.65291 34.0431 8.3643C33.8212 7.49338 33.7656 7.30266 33.7117 7.22913C33.2925 6.65869 33.2417 6.62521 32.9803 6.74748ZM41.7978 8.16723C41.5808 8.28462 41.3524 8.49568 41.3524 8.57874C41.3524 8.60608 41.2573 8.81523 41.1409 9.04345C41.0247 9.27188 40.8847 9.65521 40.8298 9.89572C40.6303 10.7705 40.568 11.0319 40.5053 11.2591C40.2798 12.0771 40.461 14.0552 40.7974 14.4451C41.0293 14.7142 41.4935 14.5892 41.6642 14.2118C41.7075 14.1164 41.7605 14.0295 41.7818 14.0189C41.8033 14.0083 41.8208 13.9766 41.8208 13.9486C41.8208 13.9204 41.8898 13.7765 41.9742 13.6286C42.0584 13.4807 42.1419 13.2779 42.1594 13.1779C42.1769 13.0779 42.2122 12.9439 42.2375 12.8802C42.7067 11.7009 42.8026 9.0212 42.3973 8.41134C42.1906 8.10048 42.0369 8.03797 41.7978 8.16723ZM34.3983 17.0633C34.0475 17.2863 34.0833 17.1695 33.8589 18.8209C33.8044 19.2224 33.725 19.6782 33.6825 19.834C33.64 19.9899 33.5314 20.5602 33.4409 21.1016C33.2544 22.2194 33.1977 22.3658 33.0262 22.1751C32.8322 21.9596 32.7583 21.6466 32.6101 20.4148C32.5135 19.6136 32.3417 18.7853 32.2508 18.6842C32.186 18.6121 32.0925 19.0688 32.0351 19.7384C31.9786 20.4002 31.8294 21.5523 31.7955 21.59C31.7317 21.6608 31.6082 21.3766 31.395 20.6674C31.1963 20.0058 31.09 19.4939 30.9088 18.3225C30.8488 17.9332 30.8313 17.9122 30.7452 18.1248C30.6789 18.289 30.6583 18.799 30.6248 21.1306C30.5781 24.3638 30.5682 24.491 30.2058 26.5308C30.1367 26.9196 30.1801 27.6102 30.2879 27.8373L30.3609 27.9914L30.4158 27.8323C30.4461 27.745 30.5173 27.465 30.5743 27.2105C30.6313 26.9558 30.7229 26.6757 30.7781 26.5878C30.8332 26.5 30.9439 26.2197 31.0241 25.965C31.2828 25.1417 31.3918 25.1301 31.5703 25.9071C31.7667 26.7624 31.8368 26.6507 32.0593 25.1286C32.0753 25.0188 32.1117 24.8328 32.1403 24.7152L32.1921 24.5011L32.4613 24.5677C32.7692 24.6438 32.7749 24.656 32.87 25.4439C32.9391 26.018 33.075 26.518 33.1729 26.56C33.3042 26.6159 33.5869 26.1953 33.6236 25.8897C33.6415 25.7399 33.6776 25.5524 33.7037 25.4727C33.7299 25.3933 33.7879 24.9894 33.8326 24.5753C33.9327 23.651 34.0251 23.3757 34.2177 23.4274C34.4783 23.4974 34.577 23.5569 34.6046 23.6603C34.6402 23.794 34.826 24.6863 34.8734 24.9517C35.0226 25.7861 35.3651 26.4816 35.5341 26.2938C35.5711 26.2525 35.8869 25.0245 35.8869 24.9218C35.8869 24.9063 35.9915 24.8938 36.1194 24.8938C36.4225 24.8938 36.4594 24.9758 36.4594 25.6456C36.4594 26.6452 36.8881 26.9234 37.0851 26.0519C37.3367 24.9383 37.6648 25.2553 37.8641 26.8045C37.9759 27.6735 38.1605 28.2137 38.3011 28.0838C38.4135 27.9802 38.7801 26.9832 38.8993 26.457C38.9462 26.25 38.9999 26.0544 39.0186 26.0224C39.0373 25.9904 39.0689 25.8683 39.0885 25.7514C39.126 25.5289 39.3047 25.2746 39.5387 25.1108C39.7425 24.9682 39.8407 25.2345 39.8925 26.0718C39.9218 26.5486 39.9586 26.7655 40.0325 26.9005L40.1329 27.0836L40.2377 26.9586C40.4772 26.6727 40.6339 26.2599 40.8126 25.4441C41.0275 24.463 41.4532 24.7847 41.636 26.0665C41.7679 26.99 41.8999 27.5572 41.9832 27.5572C42.2522 27.5572 42.5055 27.0783 42.6258 26.3426C42.7631 25.502 42.8822 25.3343 43.171 25.5742C43.4036 25.7673 43.5379 25.9527 43.5861 26.1474C43.613 26.2551 43.7022 26.4663 43.7847 26.6172C43.9334 26.8895 44.1632 27.4093 44.1632 27.4737C44.1632 27.4922 44.2524 27.6293 44.3611 27.7782C44.4699 27.9274 44.5983 28.1469 44.6465 28.2662C44.7978 28.6409 44.9961 28.4951 44.9961 28.0096C44.9959 27.7744 44.9064 27.1586 44.7869 26.5729C44.5797 25.5556 44.4587 23.4857 44.4675 21.1016C44.4745 19.1523 44.4072 17.6567 44.3124 17.6567C44.2876 17.6567 44.2674 17.6675 44.2674 17.6806C44.2674 17.8703 44.0864 18.6507 43.9856 18.8957C43.8468 19.2334 43.8027 19.4659 43.6412 20.7104C43.456 22.1376 43.1342 22.1132 42.8904 20.6536C42.7353 19.7244 42.5366 19.1574 42.4139 19.2938C42.3853 19.3256 42.3034 19.7965 42.1363 20.8903C42.0186 21.6619 42.0262 21.6472 41.8506 21.4383C41.6294 21.1753 41.5878 20.9535 41.3798 18.9304C41.3063 18.2157 41.0878 17.2797 41.0485 17.5119C41.0376 17.5757 41.0104 17.6539 40.9879 17.6857C40.9378 17.7565 40.8508 18.3922 40.8058 19.0173C40.7753 19.4396 40.7142 19.9391 40.6459 20.3239C40.6202 20.4693 40.6138 20.4714 40.3667 20.415L40.1137 20.3574L40.0342 20.0058C39.9906 19.8124 39.9188 19.4381 39.8746 19.1743C39.6901 18.075 39.3057 18.5238 39.1165 20.0594C39.0565 20.5464 39.0216 20.739 38.8782 21.3766C38.6774 22.2687 38.3783 21.6203 38.1502 19.7988C37.9517 18.2136 37.7915 17.9741 37.5755 18.9404C37.5305 19.1419 37.4724 19.4004 37.4465 19.5151C37.3973 19.7325 37.284 20.3858 37.1645 21.1389C37.102 21.5324 36.9551 21.999 36.8934 21.999C36.8054 21.999 36.6069 21.6373 36.4884 21.2607C36.4108 21.0139 36.3141 20.7079 36.2735 20.5805C36.0081 19.7494 35.8894 19.8357 35.676 21.0147C35.5324 21.8081 35.5069 21.8475 35.2948 21.6013C35.1056 21.3817 34.9845 20.8261 34.8763 19.6831C34.8296 19.1896 34.7698 18.5903 34.7435 18.3515C34.717 18.1127 34.6795 17.748 34.66 17.541C34.6057 16.9661 34.5916 16.9404 34.3983 17.0633Z" fill="url(#paint1_linear)"/>
<defs>
<linearGradient id="paint0_linear" x1="15.4931" y1="48" x2="74.2871" y2="1.07007" gradientUnits="userSpaceOnUse">
<stop stop-color="#00A7FE"/>
<stop offset="1" stop-color="#00E1FD"/>
</linearGradient>
<linearGradient id="paint1_linear" x1="33.2962" y1="28.4778" x2="50.5362" y2="22.3654" gradientUnits="userSpaceOnUse">
<stop stop-color="#00A7FE"/>
<stop offset="1" stop-color="#00E1FD"/>
</linearGradient>
</defs>
</svg>
