<svg width="25" height="25" viewBox="0 0 25 25" fill="none" xmlns="http://www.w3.org/2000/svg">
<path d="M24.166 20.6846C24.166 22.7556 22.4871 24.4346 20.416 24.4346H3.91602C1.84496 24.4346 0.166016 22.7556 0.166016 20.6846V4.18457C0.166016 2.11354 1.84496 0.43457 3.91602 0.43457H20.416C22.4871 0.43457 24.166 2.11354 24.166 4.18457V20.6846Z" fill="url(#paint0_linear)"/>
<path d="M17.5429 13.3212V5.65452H12.1765V19.2747C13.1267 18.7717 13.9772 18.2246 14.728 17.6336C16.6047 16.1641 17.5429 14.7267 17.5429 13.3212ZM19.8429 4.12119V13.3211C19.8429 14.0079 19.7093 14.6887 19.4417 15.3636C19.1742 16.0384 18.8427 16.6374 18.4475 17.1605C18.0522 17.6834 17.5811 18.1926 17.0339 18.6878C16.4871 19.1829 15.9816 19.5942 15.5186 19.9217C15.0554 20.2491 14.5723 20.5584 14.0691 20.8501C13.5661 21.1416 13.2086 21.3391 12.9971 21.4429C12.7853 21.5467 12.6157 21.6267 12.4879 21.6826C12.3921 21.7305 12.2882 21.7545 12.1765 21.7545C12.0647 21.7545 11.9609 21.7305 11.865 21.6826C11.7372 21.6267 11.5675 21.5467 11.3558 21.4429C11.1443 21.3391 10.7869 21.1416 10.2837 20.8501C9.7806 20.5584 9.29741 20.2491 8.83427 19.9217C8.37109 19.5942 7.8658 19.1829 7.31891 18.6878C6.77184 18.1926 6.3007 17.6834 5.9053 17.1605C5.51003 16.6374 5.17858 16.0384 4.91109 15.3636C4.6435 14.6887 4.50977 14.0079 4.50977 13.3211V4.12119C4.50977 3.91353 4.58568 3.73384 4.73734 3.58213C4.88917 3.43037 5.06884 3.35443 5.27641 3.35443H19.0764C19.284 3.35443 19.4638 3.43037 19.6155 3.58213C19.7672 3.73384 19.8429 3.91353 19.8429 4.12119Z" fill="white"/>
<defs>
<linearGradient id="paint0_linear" x1="12.166" y1="0.43457" x2="12.166" y2="24.4346" gradientUnits="userSpaceOnUse">
<stop stop-color="#8598EB"/>
<stop offset="1" stop-color="#A5C8FF"/>
</linearGradient>
</defs>
</svg>
