<svg width="15" height="24" viewBox="0 0 15 24" fill="none" xmlns="http://www.w3.org/2000/svg">
<path d="M6.07394 9.45078C6.4635 9.45078 6.87355 9.38342 7.30411 9.2487C7.73467 9.10363 8.1601 8.91192 8.58041 8.67357C9.01096 8.42487 9.41589 8.13471 9.79519 7.80311C10.1847 7.46114 10.523 7.09326 10.8101 6.69948C11.1074 6.29534 11.3432 5.87565 11.5174 5.44041C11.6917 4.99482 11.7788 4.54922 11.7788 4.10363C11.7788 3.9171 11.743 3.72021 11.6712 3.51295C11.6097 3.3057 11.502 3.11399 11.3483 2.93782C11.2048 2.76166 11.01 2.61658 10.764 2.50259C10.5179 2.37824 10.2155 2.31606 9.8567 2.31606C9.15961 2.31606 8.49327 2.48187 7.85768 2.81347C7.23235 3.14508 6.64802 3.59585 6.1047 4.1658C5.56137 4.73575 5.06418 5.40414 4.61312 6.17098C4.17231 6.92746 3.79301 7.73575 3.47522 8.59585C3.16768 9.45596 2.92677 10.342 2.7525 11.2539C2.58847 12.1658 2.50646 13.0518 2.50646 13.9119C2.50646 14.8964 2.5936 15.8549 2.76787 16.7876C2.94215 17.7098 3.21893 18.5285 3.59823 19.2435C3.98779 19.9585 4.49523 20.5337 5.12056 20.9689C5.7459 21.3938 6.51475 21.6062 7.42713 21.6062C8.09347 21.6062 8.69317 21.5078 9.22624 21.3109C9.75931 21.114 10.2155 20.9016 10.5948 20.6736C10.9741 20.4352 11.2663 20.2176 11.4713 20.0207C11.6763 19.8135 11.7891 19.7047 11.8096 19.6943C11.9429 19.4663 12.0915 19.3316 12.2555 19.2902C12.4298 19.2487 12.5938 19.2694 12.7476 19.3523C12.9116 19.4352 13.0603 19.5648 13.1935 19.7409C13.3268 19.9067 13.4293 20.0881 13.5011 20.285C13.5831 20.4819 13.619 20.6788 13.6087 20.8756C13.5985 21.0725 13.5318 21.2332 13.4088 21.3575C13.3883 21.3782 13.3114 21.456 13.1782 21.5907C13.0449 21.7254 12.8552 21.8912 12.6092 22.0881C12.3632 22.285 12.0607 22.4922 11.702 22.7098C11.3432 22.9378 10.9382 23.1451 10.4872 23.3316C10.0361 23.5285 9.53378 23.6891 8.98021 23.8135C8.43689 23.9378 7.84743 24 7.21185 24C6.08419 24 5.07443 23.7617 4.18256 23.285C3.29069 22.8083 2.53209 22.1347 1.90676 21.2642C1.29167 20.3834 0.82011 19.3212 0.492066 18.0777C0.164022 16.8342 0 15.4456 0 13.9119C0 12.8756 0.10764 11.8135 0.322918 10.7254C0.538197 9.63731 0.850865 8.58031 1.26092 7.5544C1.68123 6.51813 2.18867 5.54404 2.78325 4.63212C3.37783 3.70984 4.05442 2.90674 4.81302 2.2228C5.57163 1.53886 6.40711 1 7.31949 0.606218C8.23186 0.202073 9.21087 0 10.2565 0C10.8203 0 11.3483 0.0880829 11.8403 0.264249C12.3324 0.440415 12.7527 0.704663 13.1013 1.05699C13.4601 1.40933 13.742 1.84974 13.947 2.37824C14.152 2.89637 14.2545 3.50259 14.2545 4.19689C14.2545 4.84974 14.1264 5.48705 13.8701 6.10881C13.6241 6.73057 13.2909 7.32124 12.8706 7.88083C12.4503 8.43005 11.9582 8.93782 11.3944 9.40414C10.8408 9.87047 10.2514 10.2746 9.62605 10.6166C9.01096 10.9482 8.38563 11.2073 7.75004 11.3938C7.11446 11.5803 6.5045 11.6736 5.92017 11.6736C5.53062 11.6736 5.19745 11.5544 4.92066 11.3161C4.65413 11.0674 4.52086 10.6788 4.52086 10.1503C4.52086 10.0363 4.52598 9.92228 4.53624 9.80829C4.55674 9.68394 4.58237 9.57513 4.61312 9.48186C4.64388 9.37824 4.67976 9.29534 4.72076 9.23316C4.77202 9.17098 4.82327 9.1399 4.87453 9.1399C4.92579 9.1399 4.97192 9.15544 5.01292 9.18653C5.06418 9.21762 5.12569 9.25389 5.19745 9.29534C5.27946 9.33679 5.3871 9.37306 5.52037 9.40414C5.65364 9.43523 5.83816 9.45078 6.07394 9.45078Z" fill="url(#paint0_linear)"/>
<defs>
<linearGradient id="paint0_linear" x1="7.12727" y1="0" x2="7.12727" y2="24" gradientUnits="userSpaceOnUse">
<stop stop-color="#92C3EB"/>
<stop offset="1" stop-color="#B6E2D2"/>
</linearGradient>
</defs>
</svg>
