<svg width="28" height="25" viewBox="0 0 28 25" fill="none" xmlns="http://www.w3.org/2000/svg">
<path d="M14.13 15.7371C16.6641 15.7371 18.7258 13.6754 18.7258 11.1413C18.7258 11.0124 18.6112 10.8979 18.4824 10.8979H16.75C16.6211 10.8979 16.5066 11.0124 16.5066 11.1413C16.5066 12.4441 15.4471 13.5179 14.13 13.5179C12.8271 13.5179 11.7533 12.4585 11.7533 11.1413C11.7533 11.0124 11.6388 10.8979 11.5099 10.8979H9.77757C9.64872 10.8979 9.53418 11.0124 9.53418 11.1413C9.53418 13.6897 11.5958 15.7371 14.13 15.7371Z" fill="url(#paint0_linear)"/>
<path d="M14.1306 20.0755C19.0414 20.0755 23.0502 16.0668 23.0502 11.156C23.0502 11.0271 22.9357 10.9126 22.8068 10.9126H21.0744C20.9456 10.9126 20.8311 11.0271 20.8311 11.156C20.8311 14.8641 17.8245 17.8707 14.1163 17.8707C10.4082 17.8707 7.40161 14.8641 7.40161 11.156C7.40161 11.0271 7.28707 10.9126 7.15822 10.9126H5.45448C5.32563 10.9126 5.21109 11.0271 5.21109 11.156C5.18246 16.0668 9.19125 20.0755 14.1306 20.0755V20.0755Z" fill="url(#paint1_linear)"/>
<path d="M27.1589 10.9126H25.4265C25.2977 10.9126 25.1832 11.0271 25.1832 11.156C25.1832 17.2551 20.2008 22.2231 14.116 22.2231C8.01695 22.2231 3.04892 17.2694 3.04892 11.156C3.04892 11.0271 2.93438 10.9126 2.80552 10.9126H1.10179C0.972935 10.9126 0.858398 11.0271 0.858398 11.156C0.858398 18.472 6.81431 24.4279 14.1304 24.4279C21.4464 24.4279 27.4023 18.472 27.4023 11.156C27.4023 11.0271 27.2878 10.9126 27.1589 10.9126Z" fill="url(#paint2_linear)"/>
<path d="M8.16028 5.17076C9.04794 5.62891 10.0072 5.71481 10.8662 6.21591C11.4246 6.5452 11.7825 6.90313 12.1261 7.44718C12.6702 8.26325 12.6415 9.29408 12.6415 9.29408L12.7131 10.4251C12.7131 10.4251 13.1426 11.5562 14.1019 11.5562C15.1184 11.5562 15.4906 10.4251 15.4906 10.4251L15.5622 9.29408C15.5622 9.29408 15.5336 8.27757 16.0776 7.44718C16.4212 6.90313 16.7649 6.51657 17.3375 6.21591C18.1966 5.71481 19.1558 5.62891 20.0435 5.17076C20.9311 4.71261 21.7902 4.12561 22.3772 3.30953C22.9642 2.49346 23.2362 1.40536 22.9212 0.446113C21.2318 0.36021 19.2847 0.56065 17.7957 1.36241C15.7197 2.46482 14.4598 2.07826 14.0876 3.72473H14.0589C13.6867 2.06395 12.4411 2.46482 10.3508 1.36241C8.86181 0.56065 6.91469 0.36021 5.22527 0.446113C4.89598 1.40536 5.18232 2.47914 5.76932 3.30953C6.39927 4.13993 7.27262 4.72693 8.16028 5.17076V5.17076Z" fill="url(#paint3_linear)"/>
<defs>
<linearGradient id="paint0_linear" x1="14.13" y1="10.8979" x2="14.13" y2="15.7371" gradientUnits="userSpaceOnUse">
<stop stop-color="#92C3EB"/>
<stop offset="1" stop-color="#B6E2D2"/>
</linearGradient>
<linearGradient id="paint1_linear" x1="14.1306" y1="10.9126" x2="14.1306" y2="20.0755" gradientUnits="userSpaceOnUse">
<stop stop-color="#92C3EB"/>
<stop offset="1" stop-color="#B6E2D2"/>
</linearGradient>
<linearGradient id="paint2_linear" x1="14.1304" y1="10.9126" x2="14.1304" y2="24.4279" gradientUnits="userSpaceOnUse">
<stop stop-color="#92C3EB"/>
<stop offset="1" stop-color="#B6E2D2"/>
</linearGradient>
<linearGradient id="paint3_linear" x1="14.0701" y1="0.427734" x2="14.0701" y2="11.5562" gradientUnits="userSpaceOnUse">
<stop stop-color="#8598EB"/>
<stop offset="1" stop-color="#A5C8FF"/>
</linearGradient>
</defs>
</svg>
