<svg width="29" height="25" viewBox="0 0 29 25" fill="none" xmlns="http://www.w3.org/2000/svg">
<path d="M11.1682 12.241C10.5013 10.9098 9.25511 9.91331 7.78752 9.53774C2.8392 8.2715 -1.40157 14.2973 1.08028 19.0683C3.07249 22.8981 9.19053 23.5725 11.6474 20.2333C13.1916 18.1343 13.0654 16.0281 11.1682 12.241Z" fill="url(#paint0_linear)"/>
<path fill-rule="evenodd" clip-rule="evenodd" d="M26.9258 19.3886C31.7206 12.2206 27.7682 2.58946 19.3263 0.869954C14.6559 -0.0812354 9.70771 1.9839 7.03589 5.99951C6.5752 6.69192 5.8387 8.10374 5.83887 8.29431C5.83887 8.32718 6.32637 8.35417 6.92195 8.35417C9.33464 8.3545 11.4081 9.60945 12.4549 11.7031C12.9942 12.782 13.9182 15.1522 14.052 15.8C14.5728 18.3228 13.3032 21.2077 11.1227 22.456C10.8573 22.6079 10.7006 22.6889 10.6968 22.7766C10.6916 22.896 10.9698 23.0277 11.6435 23.3676C16.9966 26.0684 23.6094 24.3466 26.9258 19.3886Z" fill="url(#paint1_linear)"/>
<defs>
<linearGradient id="paint0_linear" x1="6.52897" y1="9.36676" x2="6.52897" y2="22.3832" gradientUnits="userSpaceOnUse">
<stop stop-color="#8598EB"/>
<stop offset="1" stop-color="#A5C8FF"/>
</linearGradient>
<linearGradient id="paint1_linear" x1="22.2376" y1="0.699073" x2="14.2027" y2="7.87133" gradientUnits="userSpaceOnUse">
<stop stop-color="#BDECF4"/>
<stop offset="1" stop-color="#98CCF9"/>
</linearGradient>
</defs>
</svg>
