<svg width="24" height="25" viewBox="0 0 24 25" fill="none" xmlns="http://www.w3.org/2000/svg">
<path d="M22.7665 15.1456C22.4371 16.8386 19.816 18.6914 16.8057 19.0504C15.2359 19.2376 13.6904 19.4095 12.0423 19.334C9.34708 19.2107 7.22034 18.6914 7.22034 18.6914C7.22034 18.9535 7.23652 19.203 7.26888 19.4364C7.61928 22.0935 9.9064 22.2527 12.0729 22.3269C14.2596 22.4016 16.2066 21.7884 16.2066 21.7884L16.2965 23.7631C16.2965 23.7631 14.767 24.5835 12.0423 24.7344C10.5399 24.8169 8.67437 24.6967 6.50154 24.1222C1.78905 22.8762 0.978615 17.8583 0.854609 12.7667C0.816811 11.255 0.840111 9.82959 0.840111 8.63739C0.840111 3.43106 4.25494 1.90501 4.25494 1.90501C5.97678 1.11508 8.93131 0.782898 12.0029 0.757812H12.0783C15.1499 0.782898 18.1063 1.11508 19.828 1.90501C19.828 1.90501 23.2427 3.43106 23.2427 8.63739C23.2427 8.63739 23.2856 12.4787 22.7665 15.1456Z" fill="url(#paint0_linear)"/>
<path d="M19.2159 9.04231V15.3463H16.7157V9.22761C16.7157 7.93779 16.1725 7.28312 15.0858 7.28312C13.8843 7.28312 13.2821 8.05972 13.2821 9.59535V12.9445H10.7967V9.59535C10.7967 8.05972 10.1944 7.28312 8.99292 7.28312C7.90625 7.28312 7.36298 7.93779 7.36298 9.22761V15.3463H4.86279V9.04231C4.86279 7.75392 5.19119 6.73008 5.85083 5.97261C6.53105 5.21515 7.42187 4.82684 8.5277 4.82684C9.80711 4.82684 10.776 5.31807 11.4166 6.30066L12.0394 7.3435L12.6622 6.30066C13.3027 5.31807 14.2716 4.82684 15.5511 4.82684C16.6568 4.82684 17.5477 5.21515 18.228 5.97261C18.8875 6.73008 19.2159 7.75392 19.2159 9.04231Z" fill="white"/>
<defs>
<linearGradient id="paint0_linear" x1="12.0383" y1="0.757812" x2="12.0383" y2="24.7578" gradientUnits="userSpaceOnUse">
<stop stop-color="#8598EB"/>
<stop offset="1" stop-color="#A5C8FF"/>
</linearGradient>
</defs>
</svg>
