<svg width="19" height="24" viewBox="0 0 19 24" fill="none" xmlns="http://www.w3.org/2000/svg">
<path d="M9.41105 0C9.15663 -1.09269e-06 8.90472 0.0501084 8.66966 0.147469C8.43461 0.24483 8.22103 0.387533 8.04113 0.567433C7.86123 0.747333 7.71853 0.960905 7.62117 1.19596C7.52381 1.43101 7.4737 1.68293 7.4737 1.93735C7.4737 2.19177 7.52381 2.44369 7.62117 2.67874C7.71853 2.9138 7.86123 3.12737 8.04113 3.30727C8.22103 3.48717 8.43461 3.62987 8.66966 3.72723C8.90472 3.82459 9.15663 3.8747 9.41105 3.8747C9.66547 3.8747 9.9174 3.82459 10.1525 3.72723C10.3875 3.62987 10.6011 3.48717 10.781 3.30727C10.9609 3.12737 11.1036 2.9138 11.2009 2.67874C11.2983 2.44369 11.3484 2.19177 11.3484 1.93735C11.3484 1.68293 11.2983 1.43101 11.2009 1.19596C11.1036 0.960908 10.9609 0.747335 10.781 0.567435C10.6011 0.387535 10.3875 0.244832 10.1525 0.147471C9.9174 0.0501103 9.66547 -3.28559e-07 9.41105 0ZM9.37787 5.26836C6.8907 5.26839 4.50541 6.25516 2.74672 8.01158C0.988037 9.76801 1.31341e-05 12.1502 0 14.6342C1.29796e-05 17.1181 0.988037 19.5004 2.74672 21.2568C4.50541 23.0132 6.8907 24 9.37787 24C10.6094 24 11.8289 23.7578 12.9667 23.2871C14.1045 22.8164 15.1383 22.1266 16.0092 21.2569C16.88 20.3872 17.5708 19.3547 18.0421 18.2184C18.5134 17.082 18.7559 15.8641 18.756 14.6342C18.7559 13.4042 18.5134 12.1863 18.0421 11.05C17.5708 9.91369 16.88 8.8812 16.0092 8.01151C15.1383 7.14181 14.1045 6.45193 12.9667 5.98126C11.8289 5.51059 10.6094 5.26835 9.37787 5.26836ZM9.35798 7.41835C10.3081 7.41835 11.2488 7.60548 12.1266 7.96906C13.0044 8.33264 13.802 8.86556 14.4738 9.53737C15.1456 10.2092 15.6785 11.0067 16.0421 11.8845C16.4057 12.7623 16.5928 13.7031 16.5928 14.6532C16.5928 15.6032 16.4057 16.544 16.0421 17.4218C15.6785 18.2996 15.1456 19.0971 14.4738 19.769C13.802 20.4408 13.0044 20.9737 12.1266 21.3373C11.2488 21.7008 10.3081 21.888 9.35798 21.888C7.4392 21.8879 5.59903 21.1257 4.24226 19.7689C2.8855 18.4121 2.12328 16.5719 2.12328 14.6532C2.12328 12.7344 2.8855 10.8942 4.24226 9.53741C5.59903 8.18062 7.4392 7.41837 9.35798 7.41835ZM9.36194 9.07533C7.89552 9.07534 6.48915 9.66378 5.45223 10.7106C4.41531 11.7574 3.83277 13.1772 3.83276 14.6576C3.83275 15.3906 3.97576 16.1165 4.25362 16.7937C4.53149 17.471 4.93876 18.0863 5.4522 18.6047C5.96563 19.123 6.57515 19.5342 7.24599 19.8147C7.91682 20.0952 8.63583 20.2396 9.36194 20.2396C9.37425 20.2391 9.38656 20.2385 9.39887 20.2379V9.07727C9.38656 9.07658 9.37425 9.07593 9.36194 9.07533Z" fill="url(#paint0_linear)"/>
<defs>
<linearGradient id="paint0_linear" x1="13.2827" y1="0.0584475" x2="5.6033" y2="5.61079" gradientUnits="userSpaceOnUse">
<stop stop-color="#BDECF4"/>
<stop offset="1" stop-color="#98CCF9"/>
</linearGradient>
</defs>
</svg>
