<svg width="44" height="20" viewBox="0 0 44 20" fill="none" xmlns="http://www.w3.org/2000/svg">
<path d="M21.9996 0C17.4459 0 13.5862 3.08711 12.39 7.26981C11.3504 5.05124 9.0974 3.49695 6.50238 3.49695C2.93362 3.49695 0 6.43057 0 9.99933C0 13.5681 2.93362 16.503 6.50238 16.503C9.0974 16.503 11.3504 14.9478 12.39 12.7289C13.5862 16.9119 17.4459 20 21.9996 20C26.5196 20 30.3596 16.9584 31.5864 12.8226C32.6453 14.9912 34.8704 16.503 37.4285 16.503C40.9973 16.503 43.9322 13.5681 43.9322 9.99933C43.9322 6.43057 40.9973 3.49695 37.4285 3.49695C34.8704 3.49695 32.6453 5.00786 31.5864 7.17605C30.3596 3.04055 26.5196 0 21.9996 0ZM21.9996 3.81705C25.4371 3.81705 28.1832 6.56181 28.1832 9.99933C28.1832 13.4369 25.4371 16.183 21.9996 16.183C18.5621 16.183 15.8173 13.4369 15.8173 9.99933C15.8173 6.56181 18.5621 3.81705 21.9996 3.81705ZM6.50238 7.314C8.00843 7.314 9.18905 8.49327 9.18905 9.99933C9.18905 11.5054 8.00843 12.686 6.50238 12.686C4.99632 12.686 3.81705 11.5054 3.81705 9.99933C3.81705 8.49327 4.99632 7.314 6.50238 7.314V7.314ZM37.4285 7.314C38.9346 7.314 40.1152 8.49327 40.1152 9.99933C40.1152 11.5054 38.9346 12.686 37.4285 12.686C35.9225 12.686 34.7432 11.5054 34.7432 9.99933C34.7432 8.49327 35.9225 7.314 37.4285 7.314V7.314Z" fill="url(#paint0_linear)"/>
<defs>
<linearGradient id="paint0_linear" x1="31.1122" y1="0.0487063" x2="25.7729" y2="10.8995" gradientUnits="userSpaceOnUse">
<stop stop-color="#BDECF4"/>
<stop offset="1" stop-color="#98CCF9"/>
</linearGradient>
</defs>
</svg>
