<svg width="25" height="25" viewBox="0 0 25 25" fill="none" xmlns="http://www.w3.org/2000/svg">
<path d="M5.32484 23.4628C5.18301 22.9033 4.89936 21.7843 4.8639 21.7843C-1.1283 18.81 -0.419159 13.6567 1.56642 10.7119C1.9919 14.4223 9.89877 16.9843 5.28938 21.5192C5.25393 21.5781 5.50213 22.2849 5.71487 22.9327C6.63674 21.637 8.01956 20.0763 7.94864 19.929C2.27556 8.44439 20.004 7.56095 23.6915 0.43457C25.3579 7.32537 22.8405 17.9855 8.58687 20.6947C8.51595 20.7241 5.99852 24.4051 5.89215 24.4346C5.89215 24.3757 4.82845 24.4051 4.97027 24.1106C5.04119 23.934 5.18301 23.6984 5.32484 23.4628ZM8.83506 18.3683C6.60129 13.9806 13.1608 9.15113 16.4228 7.94377C9.75694 12.891 8.62232 16.572 8.83506 18.3683ZM5.14756 20.6947C6.95585 18.9573 4.82845 15.983 3.552 15.0113C5.71487 18.1033 5.57304 19.8996 5.14756 20.6947Z" fill="url(#paint0_linear)"/>
<defs>
<linearGradient id="paint0_linear" x1="12.1416" y1="0.43457" x2="12.0739" y2="36.1414" gradientUnits="userSpaceOnUse">
<stop stop-color="#A4DCA1"/>
<stop offset="1" stop-color="#D1EDAC"/>
</linearGradient>
</defs>
</svg>
