<svg width="25" height="25" viewBox="0 0 25 25" fill="none" xmlns="http://www.w3.org/2000/svg">
<path fill-rule="evenodd" clip-rule="evenodd" d="M12.5967 24.9863C19.2241 24.9863 24.5967 19.6137 24.5967 12.9863C24.5967 6.35891 19.2241 0.986328 12.5967 0.986328C5.96926 0.986328 0.59668 6.35891 0.59668 12.9863C0.59668 19.6137 5.96926 24.9863 12.5967 24.9863ZM13.8347 5.40129L11.9361 4L4 16.8012L5.76608 18.2712L19.6137 19L19.9375 16.3666L15.7751 9.81387L13.8347 5.40129ZM13.5739 6.19933L13.7873 6.6847L13.5268 6.27457L13.5739 6.19933ZM15.2928 10.1083L13.1946 6.80527L7.19843 16.385L17.9611 16.1763L15.2928 10.1083ZM13.2342 5.67766L13.1913 5.74631L13.0712 5.55735L13.2342 5.67766ZM12.8591 6.27701L12.0137 4.94624L4.89456 16.4297L6.52403 16.3981L12.8591 6.27701ZM5.80239 17.551L5.16082 17.0169L6.14864 16.9978L5.80239 17.551ZM6.36916 17.7098L6.82304 16.9847L18.2194 16.7638L18.926 18.3707L6.36916 17.7098ZM19.2213 17.6511L18.8259 16.752L19.333 16.7422L19.2213 17.6511ZM17.2805 13.2375L19.1329 16.1536L18.5676 16.1646L17.2805 13.2375Z" fill="url(#paint0_linear)"/>
<defs>
<linearGradient id="paint0_linear" x1="20.9703" y1="4.08523" x2="6.06921" y2="20.8984" gradientUnits="userSpaceOnUse">
<stop stop-color="#DDC3EC"/>
<stop offset="1" stop-color="#AFEDEE"/>
</linearGradient>
</defs>
</svg>
