<svg width="24" height="24" viewBox="0 0 24 24" fill="none" xmlns="http://www.w3.org/2000/svg">
<path d="M0.263351 9.48557L4.45335 1.10557C4.79213 0.428005 5.48466 0 6.2422 0H16.9287C17.6732 0 18.3561 0.413545 18.7011 1.07331L23.3012 9.87136C23.4507 10.1574 23.5288 10.4753 23.5288 10.7981V22C23.5288 23.1046 22.6334 24 21.5288 24H3.32429C2.30396 24 1.4472 23.2319 1.33617 22.2176L0.0640829 10.5976C0.0222488 10.2155 0.091432 9.82941 0.263351 9.48557Z" fill="url(#paint0_linear)"/>
<path fill-rule="evenodd" clip-rule="evenodd" d="M6.37909 3.11793C6.35659 3.1237 6.32343 3.1621 6.30535 3.20327C6.23632 3.36076 6.17808 3.51648 6.16276 3.58444C6.15405 3.62332 6.12218 3.72403 6.09203 3.80825C6.00027 4.0645 5.88996 4.41694 5.88996 4.45386C5.88996 4.47306 5.86917 4.52395 5.84378 4.567C5.8184 4.61005 5.78559 4.7034 5.77087 4.77449C5.75621 4.84558 5.71998 4.95671 5.69048 5.0215C5.66091 5.08628 5.62923 5.18134 5.61998 5.2327C5.61079 5.28412 5.58818 5.3552 5.5698 5.39078C5.55137 5.42635 5.51968 5.52735 5.4993 5.61523C5.47892 5.70304 5.45307 5.78603 5.44182 5.79957C5.43063 5.81306 5.39847 5.90859 5.37044 6.01177C5.3424 6.11496 5.30553 6.21532 5.28846 6.23475C5.27138 6.25419 5.24446 6.32309 5.22868 6.38788C5.21283 6.45267 5.18627 6.53294 5.16955 6.56622C5.15288 6.59955 5.11642 6.71616 5.08856 6.82536C5.06065 6.93461 5.02955 7.03456 5.01936 7.04751C5.00923 7.06047 4.9875 7.12938 4.97113 7.20064C4.95469 7.2719 4.92642 7.35954 4.90828 7.39541C4.89014 7.43128 4.8326 7.5956 4.78042 7.76056C4.7283 7.92553 4.66434 8.11882 4.63836 8.19009C4.61239 8.26135 4.57735 8.37267 4.56045 8.43745C4.54354 8.50224 4.50738 8.60295 4.48005 8.66125C4.45273 8.71956 4.43023 8.78847 4.42999 8.81438C4.42964 8.86062 4.32622 9.18931 4.2357 9.43208C4.21049 9.49975 4.17568 9.61107 4.15836 9.67944C4.14111 9.74788 4.09959 9.87586 4.06613 9.96391C3.94546 10.2815 3.95441 10.2871 4.60603 10.3012C4.86517 10.3068 5.31572 10.3164 5.60726 10.3225C5.89879 10.3287 6.26842 10.3387 6.42862 10.3447C6.68741 10.3546 7.1932 10.3627 9.38836 10.3924C9.71229 10.3967 10.2477 10.402 10.5781 10.404C10.9085 10.4061 11.6452 10.4224 12.2154 10.4401C13.4159 10.4775 14.1947 10.4943 15.5253 10.5113C16.0501 10.5179 16.9194 10.5291 17.4571 10.536C17.9948 10.5429 18.597 10.5516 18.7952 10.5555C19.1177 10.5618 19.1617 10.5579 19.2116 10.5186L19.2674 10.4747L19.2126 10.3395C19.077 10.0047 19.0489 9.93876 18.9992 9.83917C18.9701 9.78086 18.9385 9.69605 18.9291 9.6507C18.9196 9.60535 18.8918 9.53998 18.8675 9.50547C18.8431 9.47089 18.8163 9.40729 18.8081 9.36412C18.7999 9.32089 18.777 9.25374 18.7574 9.21487C18.7377 9.176 18.703 9.08589 18.6802 9.01463C18.6344 8.87157 18.5432 8.64453 18.4561 8.45659C18.4249 8.38933 18.3993 8.32043 18.3993 8.30346C18.3992 8.28644 18.3822 8.24074 18.3614 8.20187C18.3407 8.163 18.3027 8.06759 18.277 7.98984C18.2512 7.9121 18.2162 7.83259 18.1991 7.81316C18.182 7.79372 18.1505 7.71704 18.1291 7.64277C18.1076 7.5685 18.0803 7.50172 18.0684 7.49435C18.0564 7.48699 18.0294 7.4205 18.0083 7.3467C17.9873 7.27285 17.95 7.17938 17.9256 7.13898C17.9011 7.09857 17.8811 7.05028 17.8811 7.03167C17.8811 7.01306 17.8557 6.94545 17.8246 6.88137C17.7935 6.81723 17.7553 6.72241 17.7396 6.67058C17.7239 6.61875 17.691 6.5413 17.6665 6.49843C17.642 6.45561 17.61 6.3708 17.5952 6.30996C17.5806 6.24918 17.5502 6.16231 17.5279 6.11696C17.4713 6.00211 17.3872 5.79533 17.3459 5.66935C17.3267 5.61105 17.287 5.51563 17.2575 5.45733C17.228 5.39902 17.1965 5.31969 17.1873 5.28099C17.1782 5.24236 17.145 5.15455 17.1137 5.08593C17.0823 5.01732 17.0566 4.95241 17.0566 4.94158C17.0566 4.9308 17.0248 4.85188 16.9859 4.76613C16.947 4.68043 16.9152 4.59792 16.9152 4.5829C16.9152 4.56783 16.8949 4.51193 16.8699 4.45869C16.8451 4.40545 16.7863 4.26116 16.7394 4.13806C16.6924 4.01497 16.6293 3.85595 16.5991 3.78469C16.5097 3.57408 16.4412 3.40134 16.4134 3.31682C16.3991 3.2733 16.3588 3.20704 16.3239 3.16958L16.2602 3.10144L11.3401 3.10444C8.63409 3.10609 6.40158 3.11216 6.37909 3.11793ZM4.42263 10.5621C4.36874 10.5708 4.34418 10.6 4.2847 10.726L4.21231 10.8791L4.26391 10.9341C4.338 11.0129 4.33517 11.0127 5.78395 11.0519C6.50954 11.0717 7.15622 11.0931 7.221 11.0997C7.56642 11.1347 8.46429 11.1704 9.52971 11.1914C9.97025 11.2001 10.4526 11.2177 10.6016 11.2305C10.7506 11.2433 11.2224 11.2639 11.65 11.2761C13.5392 11.3304 14.8989 11.3783 15.6431 11.417C15.8828 11.4295 16.2909 11.4454 16.5501 11.4524C16.8092 11.4594 17.2227 11.4713 17.4689 11.4787C17.715 11.4862 17.9536 11.4912 17.9989 11.4899C18.0443 11.4886 18.3154 11.5031 18.6013 11.5221C18.8873 11.5411 19.1424 11.5512 19.1683 11.5444C19.2301 11.5282 19.2163 11.4034 19.1447 11.3319C19.1171 11.3042 19.0149 11.18 18.9177 11.0559C18.7789 10.8787 18.7259 10.8278 18.6703 10.8187C18.5903 10.8055 17.4969 10.786 15.8787 10.7687C15.2762 10.7622 14.709 10.747 14.6183 10.7349C14.5276 10.7227 13.9763 10.7071 13.3933 10.7C12.8102 10.693 12.0734 10.6821 11.756 10.6757C11.4385 10.6694 10.6699 10.6582 10.048 10.6509C8.69286 10.635 7.90967 10.6221 7.33879 10.6063C5.96051 10.5681 4.51951 10.5462 4.42263 10.5621ZM4.45885 11.3315C4.43182 11.3908 4.43653 11.3978 4.56545 11.4927C4.68177 11.5784 4.80993 11.6954 5.14787 12.0243C5.18674 12.0622 5.28745 12.165 5.37167 12.2529C5.60478 12.4961 5.10723 12.4643 9.62394 12.5244C11.9944 12.556 12.7398 12.5722 12.8985 12.5956C12.9861 12.6086 13.0802 12.6076 13.1459 12.5932C13.2702 12.566 13.2334 12.566 13.5582 12.5932C13.833 12.6163 16.2942 12.6537 17.5702 12.6541L18.3312 12.6544L18.4171 12.5484C18.4644 12.4901 18.6176 12.3252 18.7575 12.182C19.1423 11.7882 19.1347 11.778 18.4454 11.7597C18.1675 11.7523 17.6909 11.7356 17.3864 11.7224C17.0819 11.7093 16.5147 11.6881 16.126 11.6754C15.2727 11.6474 15.4536 11.6539 14.795 11.6278C14.4905 11.6158 14.0399 11.6009 13.7938 11.5946C13.007 11.5746 12.038 11.5377 11.6617 11.5134C11.4609 11.5004 10.8301 11.4784 10.26 11.4643C9.68991 11.4504 9.08322 11.4298 8.91184 11.4186C8.74045 11.4073 8.57908 11.4037 8.55328 11.4104C8.52743 11.4172 8.40263 11.4112 8.27594 11.397C8.1492 11.3829 7.6904 11.3652 7.25634 11.3578C6.82228 11.3503 6.21801 11.3338 5.91352 11.3211C5.60903 11.3084 5.16348 11.2916 4.92348 11.2838L4.48706 11.2696L4.45885 11.3315ZM6.06076 12.7063C5.84054 12.7142 5.77906 12.7328 5.84284 12.7722C5.8558 12.7802 5.8664 12.803 5.8664 12.8228C5.8664 12.8589 6.04597 13.1343 6.09003 13.1658C6.1279 13.1929 6.32119 13.2074 6.79695 13.219C7.04314 13.225 7.42814 13.2406 7.65253 13.2538C8.20562 13.2863 8.47783 13.2963 9.57683 13.325C10.7564 13.3558 11.0806 13.3682 12.0033 13.418C12.2495 13.4313 12.7107 13.4481 13.0281 13.4552C14.3277 13.4847 14.621 13.4932 14.6772 13.5029C14.7096 13.5085 14.9428 13.5189 15.1955 13.526C15.4481 13.533 15.8033 13.5488 15.9847 13.5609C16.1661 13.573 16.623 13.5896 17 13.5977L17.6855 13.6125L17.7566 13.5222C17.7956 13.4724 17.846 13.3957 17.8686 13.3516C17.8912 13.3074 17.9298 13.2498 17.9543 13.2234C17.9788 13.1971 17.9989 13.1643 17.9989 13.1506C17.999 13.1368 18.0258 13.0944 18.0585 13.0563C18.1628 12.935 18.1331 12.9287 17.3982 12.9145C17.0354 12.9076 16.4735 12.9011 16.1496 12.9002C15.8257 12.8992 15.3009 12.8878 14.9835 12.8748C14.666 12.8618 14.1943 12.8474 13.9351 12.8428C13.0656 12.8273 10.5432 12.7885 10.4956 12.7899C10.2591 12.7968 6.53445 12.7206 6.38468 12.7059C6.33933 12.7014 6.19356 12.7016 6.06076 12.7063ZM6.32473 13.4967C6.31719 13.5164 6.36218 13.6259 6.4252 13.7412C6.48798 13.8561 6.56025 13.9904 6.58569 14.0397C6.68882 14.2393 6.66002 14.2322 7.39368 14.2375C7.75218 14.24 8.66041 14.2549 9.41192 14.2704C10.1634 14.2859 10.932 14.3007 11.1199 14.3033C11.3078 14.3059 11.6311 14.3154 11.8384 14.3243C12.0457 14.3331 13.355 14.3564 14.7479 14.376L17.2804 14.4115L17.325 14.3575C17.3496 14.3278 17.3951 14.2452 17.4261 14.1739C17.4571 14.1026 17.4983 14.0138 17.5176 13.9764C17.5369 13.939 17.5489 13.9044 17.5441 13.8997C17.5088 13.8643 16.7006 13.817 16.0554 13.8125C16.0165 13.8123 15.8257 13.8031 15.6313 13.7923C15.437 13.7814 14.8115 13.7564 14.2414 13.7368C12.5759 13.6793 11.9925 13.6582 11.379 13.6332C11.0616 13.6202 10.5686 13.6039 10.2836 13.5969C9.79256 13.5848 9.33789 13.5666 8.17511 13.5128C7.12158 13.4641 6.33986 13.4573 6.32473 13.4967ZM19.7305 13.8919C19.4174 13.9529 19.051 14.2745 18.9532 14.5744C18.9299 14.6456 18.8965 14.7249 18.8789 14.7504C18.8347 14.8149 18.8352 15.2698 18.8797 15.355C18.8975 15.3892 18.9305 15.474 18.9529 15.5435C18.9753 15.613 19.0067 15.6804 19.0228 15.6934C19.0387 15.7064 19.0696 15.7514 19.0914 15.7935C19.1131 15.8356 19.1386 15.8702 19.148 15.8703C19.1574 15.8705 19.2093 15.9129 19.2634 15.9646C19.5579 16.2463 20.2403 16.3401 20.5359 16.1395C20.5834 16.1073 20.6463 16.0749 20.6757 16.0675C20.7051 16.0601 20.7454 16.0294 20.7651 15.9992C20.7849 15.969 20.8226 15.9375 20.8488 15.9292C20.8751 15.9209 20.8966 15.8989 20.8966 15.8805C20.8966 15.862 20.9183 15.8336 20.9448 15.8173C20.9713 15.801 21.0375 15.6975 21.0919 15.5874L21.1909 15.3871L21.1893 15.0455L21.1876 14.704L21.0966 14.5273C21.0465 14.4301 20.9828 14.3288 20.9548 14.3022C20.9269 14.2755 20.8944 14.2383 20.8826 14.2194C20.8579 14.1796 20.6124 14.009 20.5798 14.009C20.5678 14.009 20.5351 13.9875 20.5072 13.9612C20.4202 13.8795 19.9908 13.8412 19.7305 13.8919ZM6.86115 14.5269C6.8201 14.5935 6.96881 14.912 7.06381 14.9607C7.12647 14.9929 7.31488 15.0026 8.48137 15.0342C9.29919 15.0563 9.66064 15.0682 10.2309 15.0915C10.5387 15.1042 10.806 15.1086 10.8247 15.1014C10.8434 15.0943 10.8937 15.0993 10.9364 15.1126C10.979 15.126 11.2899 15.1434 11.6272 15.1513C11.9646 15.1593 12.3303 15.1698 12.44 15.1746C12.5497 15.1795 12.8938 15.1897 13.2048 15.1973C13.903 15.2143 14.2495 15.2301 14.5241 15.2575C14.6407 15.2692 15.0329 15.2845 15.3957 15.2917C15.7585 15.2988 16.2378 15.3115 16.4606 15.3198C16.9786 15.3391 16.9915 15.3347 17.0569 15.1152C17.0831 15.0271 17.1203 14.925 17.1393 14.8884C17.2643 14.6488 17.2896 14.6532 15.7138 14.6356C14.9558 14.6272 13.9964 14.6101 13.5817 14.5978C13.1671 14.5855 12.5363 14.57 12.18 14.5634C10.5213 14.5329 10.1698 14.5272 9.19989 14.5153C8.62978 14.5083 7.8771 14.4971 7.52726 14.4903C6.90296 14.4784 6.89065 14.4791 6.86115 14.5269ZM7.15551 15.2972C7.14885 15.332 7.15798 15.393 7.17571 15.4327C7.1935 15.4724 7.21965 15.5512 7.23384 15.6078C7.27377 15.7671 7.34427 15.8227 7.50853 15.8243C7.7801 15.827 8.90053 15.846 10.3896 15.8732C11.2253 15.8884 12.0734 15.9028 12.2743 15.9051C12.4751 15.9074 12.9097 15.9166 13.2401 15.9253C13.5705 15.9341 14.2066 15.9463 14.6536 15.9525C15.1007 15.9586 15.7526 15.9703 16.1025 15.9785L16.7385 15.9934L16.7704 15.9401C16.7878 15.9108 16.8206 15.8306 16.8433 15.762L16.8844 15.6372L16.8233 15.613C16.7896 15.5996 16.4388 15.5776 16.0436 15.5639C15.6484 15.5503 15.1925 15.5291 15.0306 15.5167C14.8686 15.5043 14.2749 15.4831 13.7113 15.4695C12.4625 15.4395 11.6012 15.4086 11.1317 15.377C10.9373 15.3639 10.3383 15.3418 9.80063 15.3279C8.01909 15.2818 7.9049 15.2777 7.80996 15.2563C7.75813 15.2447 7.5924 15.2349 7.44168 15.2346L7.16758 15.234L7.15551 15.2972ZM7.46247 16.1126C7.39633 16.1665 7.47137 16.5045 7.56 16.5519C7.6116 16.5795 8.35121 16.6175 9.22345 16.6373C9.59921 16.6459 9.99145 16.6564 10.0951 16.6608C10.1988 16.6651 10.5645 16.6793 10.9079 16.6921C11.2512 16.705 11.8237 16.7269 12.18 16.7409C12.5363 16.7548 13.1883 16.7761 13.6289 16.7881C14.6792 16.8168 15.0739 16.8324 15.4311 16.8595C15.593 16.8717 15.8724 16.8821 16.0518 16.8824C16.2312 16.8829 16.3882 16.8895 16.4006 16.8971C16.4951 16.9555 16.5679 16.8645 16.6328 16.6066C16.735 16.2014 16.8125 16.2296 15.5489 16.212C14.9852 16.2041 14.381 16.1925 14.206 16.1861C13.8144 16.1719 13.1693 16.16 11.7913 16.1416C10.7403 16.1275 10.266 16.1207 8.44603 16.0933C7.65047 16.0813 7.49728 16.0843 7.46247 16.1126ZM7.6308 16.8642C7.58668 16.9466 7.64735 17.2998 7.71773 17.3702C7.77721 17.4297 7.87286 17.4355 8.82296 17.4374C9.48224 17.4388 12.0258 17.4764 12.2271 17.4878C12.5102 17.5039 13.2731 17.5242 13.6171 17.5248C13.7013 17.525 13.8285 17.5274 13.8998 17.5301C14.695 17.5609 16.334 17.5701 16.3824 17.5442C16.4503 17.5079 16.5055 17.3465 16.4939 17.2182C16.4887 17.1611 16.3751 17.1448 15.8747 17.1291C15.5983 17.1204 15.3651 17.1092 15.3564 17.1041C15.334 17.0908 14.8702 17.0724 14.2414 17.06C13.9434 17.0541 13.5776 17.0438 13.4286 17.0371C13.2796 17.0304 12.8503 17.014 12.4745 17.0007C12.0987 16.9873 11.627 16.9656 11.4262 16.9524C11.2253 16.9393 10.568 16.9184 9.96554 16.906C8.99064 16.886 8.58962 16.8707 7.86361 16.8257C7.67032 16.8138 7.65653 16.8161 7.6308 16.8642ZM7.79912 17.7183C7.77892 17.7426 7.77238 17.8058 7.7791 17.911C7.79729 18.1966 7.79788 18.1968 9.03499 18.2151C9.48848 18.2219 9.97084 18.2376 10.1069 18.2499C10.2429 18.2623 10.5959 18.2776 10.8913 18.2838C11.1867 18.2901 11.4373 18.3007 11.4483 18.3075C11.4593 18.3143 11.9067 18.331 12.4426 18.3447C13.5671 18.3735 13.8411 18.3826 14.1825 18.4027C14.6208 18.4285 16.2193 18.4791 16.2485 18.468C16.288 18.4531 16.3421 18.2926 16.3759 18.0906C16.4198 17.8282 16.4078 17.8203 15.9733 17.8247C15.7852 17.8265 15.4776 17.8227 15.2897 17.8161C14.4198 17.7856 12.8436 17.7562 10.1187 17.7194C9.65221 17.7132 8.94623 17.7022 8.54981 17.6951C7.92033 17.6838 7.82527 17.6867 7.79912 17.7183ZM7.91856 18.4802C7.8857 18.5416 7.88487 18.7749 7.91703 18.8908C7.95125 19.014 8.01161 19.0247 8.68161 19.0264C9.36734 19.0282 11.3696 19.0499 12.2271 19.0649C12.5705 19.0709 12.9097 19.075 12.981 19.074C13.0523 19.073 13.2484 19.0829 13.4168 19.096C13.8015 19.1261 16.187 19.1529 16.2243 19.1276C16.2706 19.0962 16.2906 18.8297 16.2498 18.7889C16.2084 18.7475 14.6213 18.6578 13.57 18.6375C13.2136 18.6306 12.7048 18.6149 12.4392 18.6027C12.1735 18.5904 11.776 18.5743 11.5557 18.5669C11.3355 18.5594 11.1287 18.5485 11.0963 18.5427C11.0639 18.5368 10.5922 18.5217 10.048 18.509C9.07109 18.4864 8.87874 18.4798 8.25992 18.4477C7.95655 18.432 7.94371 18.4332 7.91856 18.4802ZM7.99477 19.3186C7.9294 19.3748 7.94453 19.571 8.02422 19.7016C8.06503 19.7685 8.54633 19.7985 10.2365 19.8395C11.5376 19.8711 11.8693 19.8838 12.7454 19.9356C12.8426 19.9414 13.3727 19.9565 13.9233 19.9693C15.0352 19.995 15.9313 20.031 15.9992 20.0525C16.1333 20.0951 16.2001 19.9874 16.2224 19.6921L16.2385 19.479L16.1704 19.4442C16.123 19.4199 16.0172 19.4084 15.8198 19.4062C15.0646 19.3974 14.3164 19.3784 14.2989 19.3676C14.2881 19.361 13.8043 19.3502 13.2238 19.3438C12.6432 19.3373 11.9933 19.3277 11.7795 19.3226C11.5657 19.3174 10.7812 19.3067 10.0362 19.2985C9.29118 19.2905 8.54073 19.2799 8.36852 19.2751C8.07263 19.2668 8.05214 19.2692 7.99477 19.3186ZM8.05502 20.0309C8.01586 20.0781 8.01721 20.4361 8.05679 20.5101C8.08017 20.5538 8.10555 20.5583 8.33495 20.5592C8.47377 20.5599 8.67219 20.5643 8.77585 20.569C9.24578 20.5904 10.1804 20.6057 11.8031 20.6183C12.7684 20.6258 13.5741 20.6364 13.5935 20.6418C13.6246 20.6505 14.5379 20.6712 15.6077 20.6875C15.8021 20.6905 15.9942 20.7008 16.0346 20.7103C16.1173 20.7299 16.1614 20.6559 16.1614 20.4973C16.1614 20.2798 16.2051 20.2879 14.8892 20.2617C14.494 20.2539 14.1651 20.244 14.1583 20.2397C14.1515 20.2356 13.7964 20.2201 13.3691 20.2054C12.9418 20.1907 12.4916 20.1745 12.3685 20.1692C12.2454 20.164 12.0175 20.1544 11.862 20.1478C11.7065 20.1413 11.3355 20.1301 11.0374 20.1229C10.7394 20.1158 10.2783 20.0996 10.0127 20.087C9.74704 20.0744 9.23818 20.0529 8.88186 20.0391C8.52554 20.0254 8.20102 20.0092 8.16068 20.003C8.11068 19.9954 8.07711 20.0043 8.05502 20.0309ZM8.06391 20.8548C8.04148 20.9097 8.03953 21.1915 8.06121 21.244C8.07481 21.277 8.16168 21.284 8.73262 21.2978C9.09329 21.3066 9.56328 21.3238 9.77707 21.336C10.6114 21.3836 11.2446 21.4073 12.286 21.43C12.8821 21.443 13.6559 21.4691 14.0058 21.4879C15.4588 21.566 16.0969 21.5797 16.1307 21.5334C16.1916 21.4501 16.1598 20.9651 16.0928 20.957C16.0852 20.9561 15.745 20.9511 15.3368 20.9461C14.9287 20.9409 14.0594 20.9266 13.405 20.9143C12.3422 20.8941 10.1518 20.8592 9.49437 20.8519C9.35832 20.8504 8.98493 20.8403 8.66465 20.8295C8.10379 20.8106 8.08158 20.8115 8.06391 20.8548ZM8.08335 21.588C8.03329 21.6286 8.0297 21.6443 8.04513 21.7566C8.06798 21.923 8.08294 21.9272 8.68161 21.9368C8.95371 21.9412 9.56328 21.951 10.0362 21.9585C10.5091 21.9661 11.458 21.9779 12.1447 21.9848C12.8314 21.9916 13.7908 22.0055 14.2767 22.0155C14.7626 22.0256 15.1972 22.0336 15.2426 22.0335C15.2879 22.0333 15.4949 22.0419 15.7025 22.0526C16.1078 22.0734 16.1151 22.0717 16.1441 21.9536C16.1641 21.872 16.1048 21.8306 15.9653 21.8288C15.6498 21.8249 14.5316 21.7825 14.1943 21.7617C13.9869 21.7489 13.3509 21.7267 12.7808 21.7125C12.2106 21.6982 11.5693 21.6763 11.3555 21.6639C10.8528 21.6347 10.0511 21.6009 9.47082 21.5844C9.21815 21.5771 8.81507 21.565 8.57501 21.5573C8.16952 21.5442 8.13471 21.5464 8.08335 21.588ZM8.07416 22.2689C8.05184 22.2913 8.05249 22.4371 8.07499 22.4507C8.08471 22.4565 8.4849 22.4678 8.96431 22.4759C10.3997 22.5 12.5449 22.5489 13.2048 22.5726C13.4121 22.58 14.1224 22.5963 14.7832 22.6088C15.444 22.6213 16.0059 22.6369 16.0318 22.6434C16.1263 22.6671 16.1961 22.58 16.1516 22.4938L16.113 22.4193L15.7662 22.4141C15.5754 22.4112 15.3345 22.4083 15.2308 22.4075C15.1272 22.4067 14.6554 22.3984 14.1825 22.3889C13.4616 22.3745 11.6777 22.3437 9.87131 22.3145C9.64456 22.3107 9.44313 22.3019 9.4237 22.2947C9.36845 22.2744 8.09307 22.25 8.07416 22.2689Z" fill="url(#paint1_linear)"/>
<path fill-rule="evenodd" clip-rule="evenodd" d="M6.23822 2.97466C6.16054 3.08008 6.13616 3.1378 6.11036 3.27744C6.09682 3.35082 6.07108 3.4331 6.05317 3.46043C6.03533 3.4877 6.00394 3.58229 5.98344 3.67057C5.963 3.75891 5.92543 3.86993 5.90005 3.91728C5.87466 3.9647 5.85387 4.02589 5.85387 4.05327C5.85387 4.1213 5.80717 4.25505 5.76729 4.3014C5.74921 4.32231 5.72359 4.40688 5.71034 4.48928C5.69709 4.57167 5.66676 4.67115 5.64297 4.71037C5.61917 4.74954 5.59232 4.82928 5.5833 4.88759C5.57423 4.9459 5.54249 5.04661 5.51275 5.11139C5.483 5.17618 5.45114 5.27689 5.44201 5.3352C5.43283 5.3935 5.40632 5.47425 5.38306 5.51471C5.35985 5.55512 5.32941 5.64134 5.31551 5.70624C5.30155 5.7712 5.26939 5.86008 5.24401 5.90372C5.21862 5.94736 5.18641 6.04583 5.17251 6.12258C5.15861 6.19932 5.13181 6.28566 5.1129 6.31446C5.09406 6.3432 5.06249 6.43637 5.04276 6.52142C5.02303 6.60652 4.98545 6.71613 4.95925 6.76507C4.93298 6.81395 4.91154 6.87962 4.91154 6.91095C4.91154 6.94234 4.88374 7.02668 4.84982 7.09848C4.81583 7.17027 4.78256 7.27198 4.77584 7.32458C4.76913 7.37711 4.74545 7.45721 4.72325 7.50256C4.70105 7.54791 4.67024 7.63678 4.65475 7.7001C4.63926 7.76335 4.60711 7.85346 4.58331 7.90034C4.55952 7.94716 4.52725 8.04911 4.51152 8.12685C4.49585 8.2046 4.4644 8.31096 4.44173 8.36326C4.41899 8.4155 4.39261 8.49984 4.38307 8.55061C4.37359 8.60138 4.34538 8.68283 4.32052 8.73165C4.29561 8.78042 4.26021 8.8849 4.24178 8.96376C4.2234 9.04262 4.19784 9.11984 4.18506 9.13533C4.17222 9.15076 4.14036 9.24293 4.11421 9.34011C4.08812 9.43729 4.05054 9.5592 4.03075 9.61103C4.01102 9.66285 3.99436 9.73082 3.99383 9.76209C3.99324 9.79337 3.96768 9.86228 3.93705 9.91522C3.90643 9.96817 3.87362 10.0539 3.8642 10.1057C3.85477 10.1575 3.82091 10.2621 3.78887 10.3382C3.7113 10.5226 3.72185 10.5414 3.90366 10.5423C4.14931 10.5436 4.1936 10.6546 4.06026 10.9351L4.0132 11.034L4.0655 11.1047C4.09424 11.1436 4.15697 11.1911 4.20485 11.2103C4.26263 11.2334 4.30209 11.2695 4.32193 11.3174C4.33837 11.3572 4.36092 11.3897 4.37194 11.3897C4.38301 11.3897 4.40839 11.4213 4.42842 11.46C4.44844 11.4987 4.49073 11.5369 4.52242 11.5448C4.5541 11.5528 4.58626 11.5788 4.59386 11.6028C4.60145 11.6268 4.62866 11.6531 4.65422 11.6612C4.67984 11.6693 4.7176 11.7016 4.73821 11.733C4.75876 11.7645 4.78497 11.7902 4.7964 11.7902C4.82261 11.7902 5.40626 12.3695 5.40626 12.3954C5.40626 12.4182 5.57453 12.5525 5.68307 12.6162C5.72754 12.6423 5.75964 12.6802 5.75964 12.7066C5.75964 12.7671 5.84663 12.9681 5.87284 12.9681C5.88414 12.9681 5.90652 12.9968 5.92248 13.0319C5.93845 13.0669 5.97196 13.1099 5.99693 13.1274C6.0219 13.1449 6.04234 13.1699 6.04234 13.183C6.04234 13.196 6.09381 13.2568 6.15671 13.3182C6.24994 13.409 6.27415 13.4497 6.28746 13.5385C6.29683 13.6009 6.33346 13.6884 6.37333 13.7434C6.41155 13.7962 6.44283 13.8545 6.44283 13.8731C6.44283 13.8916 6.47016 13.9393 6.50355 13.9789C6.53688 14.0186 6.57381 14.0858 6.58553 14.1282C6.59725 14.1706 6.64513 14.2448 6.69196 14.293C6.76387 14.367 6.78407 14.4127 6.82212 14.5872C6.84685 14.7009 6.88661 14.8204 6.9104 14.8527C6.93419 14.8851 6.96724 14.9528 6.98379 15.0031C7.00522 15.0682 7.03349 15.1019 7.08173 15.1201C7.13556 15.1405 7.14622 15.1556 7.13356 15.1936C7.10193 15.2886 7.12578 15.4669 7.18497 15.5782C7.21731 15.6389 7.24381 15.7057 7.24381 15.7266C7.24381 15.8046 7.29517 15.9076 7.34517 15.9299C7.39287 15.9512 7.39694 15.9694 7.39694 16.1626C7.39694 16.3355 7.40577 16.3867 7.44741 16.4547C7.47515 16.5001 7.50513 16.5716 7.51408 16.6137C7.52298 16.6558 7.55077 16.7046 7.57586 16.7222C7.61744 16.7513 7.6185 16.76 7.5877 16.8193C7.5506 16.8908 7.56108 17.0143 7.61267 17.1132C7.62993 17.1462 7.64412 17.2103 7.6443 17.2557C7.64471 17.38 7.68788 17.5105 7.73335 17.525C7.76869 17.5362 7.77422 17.5765 7.77658 17.8401C7.77953 18.1642 7.81527 18.2996 7.90533 18.3282C7.94826 18.3418 7.94808 18.3446 7.90038 18.4092C7.86322 18.4594 7.85385 18.4986 7.86269 18.5667C7.86916 18.6166 7.88666 18.7528 7.90162 18.8694C7.91658 18.986 7.94296 19.0957 7.96028 19.113C7.9866 19.1394 7.98631 19.1627 7.95839 19.2544C7.90809 19.4198 7.93825 19.7517 8.01364 19.8628C8.06635 19.9405 8.06782 19.9504 8.03401 20.0019C7.98378 20.0787 7.98866 20.3795 8.04355 20.5892C8.07141 20.6955 8.0793 20.7682 8.06576 20.7938C8.03071 20.8602 8.03996 21.3156 8.07742 21.3668C8.10516 21.4048 8.10516 21.4252 8.07742 21.5039C8.02759 21.6451 8.03484 21.9497 8.09055 22.0589L8.13626 22.1486L8.35329 22.1639C8.47267 22.1724 8.73364 22.1794 8.93323 22.1794C9.15344 22.1794 9.29079 22.1881 9.28249 22.2015C9.27453 22.2144 9.02593 22.2231 8.68787 22.2224C8.03077 22.2211 8.04479 22.2171 8.04479 22.406C8.04479 22.5824 8.03401 22.5798 8.77092 22.5803C9.12953 22.5805 9.69328 22.5909 10.0237 22.6034C10.3541 22.616 10.9001 22.6367 11.2369 22.6495C11.9566 22.677 12.6656 22.6915 14.276 22.7117C14.9238 22.7198 15.6129 22.7341 15.8072 22.7433C16.2901 22.7663 16.4013 22.7101 16.2991 22.4948C16.2296 22.3483 16.2094 22.3435 15.6755 22.3453C14.4078 22.3496 13.3153 22.343 13.3271 22.3311C13.3588 22.2994 14.9664 22.2767 15.7239 22.2972C16.1428 22.3085 16.1598 22.3072 16.1833 22.2614C16.1967 22.2351 16.2316 22.1805 16.2607 22.1399C16.326 22.049 16.3284 21.9285 16.2666 21.8496C16.2122 21.7799 16.2074 21.7063 16.2517 21.6187C16.3178 21.4879 16.3234 21.0462 16.2602 20.9533L16.2046 20.8719L16.2516 20.8075C16.3482 20.6749 16.3495 20.3637 16.2539 20.2605C16.2023 20.2048 16.2019 20.2018 16.2451 20.188C16.3407 20.1577 16.3959 19.6993 16.3372 19.4227C16.3131 19.3089 16.3132 19.2755 16.3377 19.2459C16.3814 19.1932 16.4056 18.891 16.3778 18.745C16.3561 18.6311 16.3585 18.6158 16.4065 18.5648C16.4711 18.4959 16.505 18.2647 16.4989 17.9326C16.4953 17.731 16.5006 17.696 16.5425 17.6499C16.6078 17.578 16.6244 17.4931 16.623 17.2388C16.6222 17.0997 16.6321 17.0107 16.6504 16.9913C16.7227 16.9146 16.7364 16.8762 16.7624 16.678C16.7777 16.5617 16.8012 16.4528 16.8147 16.4362C16.8282 16.4195 16.8374 16.3492 16.8352 16.28C16.8317 16.1761 16.8465 16.124 16.9198 15.9805C16.9915 15.8407 17.0092 15.7794 17.0114 15.6655C17.015 15.4731 17.0132 15.48 17.0786 15.4095C17.1105 15.375 17.1484 15.3019 17.1627 15.247C17.177 15.1921 17.2087 15.1048 17.2331 15.053C17.2915 14.9288 17.332 14.7414 17.3131 14.6821C17.3049 14.6562 17.3076 14.6282 17.319 14.6201C17.3637 14.5886 17.5182 14.3515 17.5555 14.2572C17.5771 14.2025 17.614 14.126 17.6374 14.0871C17.6608 14.0482 17.68 13.9733 17.6801 13.9205C17.6801 13.8511 17.6947 13.8115 17.7331 13.7768C17.8323 13.6873 17.9409 13.5454 17.9555 13.4864C17.9635 13.454 17.9903 13.4063 18.015 13.3804C18.1044 13.2866 18.2178 13.0857 18.2334 12.9936C18.2454 12.9229 18.2737 12.8784 18.3475 12.8149C18.4015 12.7684 18.4564 12.7192 18.4693 12.7056C18.4823 12.6921 18.522 12.6531 18.5577 12.619C18.5933 12.585 18.6225 12.5473 18.6225 12.5353C18.6225 12.5234 18.7387 12.399 18.8808 12.259C19.0229 12.119 19.1539 11.9693 19.1718 11.9264C19.2031 11.8516 19.2692 11.7853 19.4557 11.6419C19.5637 11.5588 19.566 11.4908 19.4647 11.3731C19.4226 11.3241 19.3805 11.2734 19.3713 11.2603C19.362 11.2473 19.3223 11.198 19.2829 11.151C19.2436 11.1039 19.2114 11.0579 19.2114 11.0487C19.2114 11.0395 19.1905 11.0053 19.1648 10.9727C19.0766 10.8606 19.1301 10.8243 19.3842 10.8243C19.6769 10.8243 19.7101 10.7627 19.5477 10.5206C19.5182 10.4767 19.4941 10.4183 19.4941 10.3909C19.4941 10.3634 19.4689 10.2933 19.4379 10.2351C19.407 10.177 19.3477 10.0392 19.3062 9.92906C19.2646 9.81893 19.2056 9.67051 19.1751 9.59925C19.1447 9.52798 19.1072 9.42727 19.0919 9.37544C19.0766 9.32362 19.051 9.26531 19.035 9.24587C19.0077 9.21277 18.9821 9.14522 18.8454 8.74614C18.8156 8.65915 18.7745 8.56404 18.754 8.53477C18.7335 8.5055 18.7167 8.46156 18.7167 8.43718C18.7167 8.41279 18.6891 8.33829 18.6553 8.27162C18.6215 8.20495 18.578 8.09741 18.5586 8.03262C18.5392 7.96784 18.5137 7.90293 18.5019 7.88839C18.4901 7.8739 18.4648 7.81029 18.4458 7.74704C18.4267 7.68384 18.3845 7.57995 18.3519 7.51622C18.3193 7.4525 18.2926 7.382 18.2926 7.35962C18.2926 7.33724 18.2663 7.27275 18.234 7.21639C18.2018 7.15996 18.1753 7.09512 18.1751 7.07215C18.175 7.04924 18.143 6.97091 18.1042 6.89805C18.0653 6.8252 18.0335 6.73674 18.0335 6.70146C18.0335 6.66612 18.0133 6.61159 17.9887 6.58025C17.964 6.54886 17.9316 6.47589 17.9165 6.41805C17.9015 6.36022 17.8694 6.28507 17.8451 6.25109C17.8208 6.2171 17.785 6.12799 17.7654 6.05302C17.7458 5.97805 17.7181 5.90949 17.7037 5.9006C17.6893 5.8917 17.6613 5.82185 17.6415 5.74529C17.6216 5.66872 17.5914 5.59022 17.5744 5.57078C17.5573 5.55135 17.5267 5.47884 17.5064 5.40976C17.4861 5.34062 17.4491 5.25051 17.4242 5.20952C17.3993 5.16846 17.3716 5.09019 17.3626 5.03554C17.3537 4.98082 17.3278 4.91191 17.305 4.88241C17.2822 4.85284 17.2507 4.77645 17.2349 4.71255C17.2191 4.64871 17.1872 4.5692 17.164 4.53587C17.1409 4.50259 17.1093 4.42402 17.0939 4.3613C17.0785 4.29857 17.0461 4.21907 17.0218 4.18461C16.9976 4.15016 16.971 4.0819 16.9626 4.0329C16.9542 3.98395 16.9276 3.90975 16.9034 3.86799C16.8792 3.82629 16.8468 3.74442 16.8315 3.68612C16.8161 3.62781 16.7965 3.57481 16.7878 3.56833C16.7545 3.54347 16.6907 3.42692 16.6907 3.39093C16.6907 3.3702 16.6706 3.30359 16.646 3.24287C16.6215 3.18215 16.5892 3.09999 16.5743 3.06029C16.5287 2.93867 16.4844 2.93349 15.4892 2.93461C14.9904 2.93514 14.1423 2.9349 13.6045 2.93402C9.76726 2.92784 6.69207 2.93608 6.57334 2.95293C6.47169 2.96736 6.41256 2.96429 6.35896 2.94191C6.2894 2.91288 6.28228 2.91476 6.23822 2.97466ZM16.382 3.21236C16.417 3.24982 16.4573 3.31608 16.4716 3.3596C16.4994 3.44412 16.5679 3.61686 16.6572 3.82747C16.6874 3.89873 16.7506 4.05775 16.7975 4.18084C16.8445 4.30393 16.9032 4.44823 16.9281 4.50147C16.953 4.55471 16.9734 4.6106 16.9734 4.62568C16.9734 4.6407 17.0052 4.72321 17.0441 4.80891C17.0829 4.89466 17.1147 4.97358 17.1147 4.98436C17.1147 4.99519 17.1404 5.0601 17.1718 5.12871C17.2032 5.19732 17.2364 5.28514 17.2455 5.32377C17.2546 5.36247 17.2862 5.4418 17.3157 5.50011C17.3451 5.55841 17.3849 5.65382 17.404 5.71213C17.4453 5.83811 17.5294 6.04489 17.586 6.15974C17.6084 6.20509 17.6387 6.29196 17.6534 6.35274C17.6681 6.41358 17.7002 6.49839 17.7247 6.54121C17.7492 6.58408 17.782 6.66153 17.7977 6.71336C17.8134 6.76519 17.8517 6.86001 17.8828 6.92415C17.9138 6.98822 17.9393 7.05584 17.9393 7.07445C17.9393 7.09306 17.9593 7.14135 17.9837 7.18176C18.0082 7.22216 18.0455 7.31563 18.0665 7.38948C18.0876 7.46328 18.1145 7.52977 18.1265 7.53713C18.1385 7.54449 18.1657 7.61128 18.1872 7.68555C18.2087 7.75982 18.2402 7.8365 18.2572 7.85593C18.2743 7.87537 18.3093 7.95488 18.3351 8.03262C18.3608 8.11036 18.3988 8.20578 18.4196 8.24465C18.4403 8.28352 18.4573 8.32922 18.4574 8.34624C18.4575 8.3632 18.4831 8.43211 18.5142 8.49937C18.6014 8.68731 18.6925 8.91435 18.7383 9.05741C18.7611 9.12867 18.7958 9.21878 18.8155 9.25765C18.8352 9.29652 18.858 9.36366 18.8663 9.40689C18.8745 9.45006 18.9012 9.51367 18.9256 9.54824C18.95 9.58276 18.9777 9.64813 18.9872 9.69348C18.9967 9.73883 19.0283 9.82364 19.0573 9.88195C19.107 9.98154 19.1351 10.0475 19.2707 10.3823L19.3255 10.5175L19.2697 10.5614C19.2198 10.6007 19.1758 10.6045 18.8534 10.5982C18.6551 10.5944 18.0529 10.5856 17.5152 10.5787C16.9775 10.5719 16.1082 10.5607 15.5834 10.5541C14.2529 10.537 13.474 10.5203 12.2735 10.4829C11.7034 10.4651 10.9666 10.4489 10.6362 10.4468C10.3058 10.4448 9.77043 10.4395 9.44651 10.4352C7.25135 10.4055 6.74555 10.3973 6.48676 10.3875C6.32657 10.3814 5.95694 10.3714 5.6654 10.3653C3.84294 10.3271 3.98959 10.3612 4.12428 10.0067C4.15773 9.91864 4.19925 9.79066 4.21651 9.72222C4.23383 9.65384 4.26863 9.54253 4.29384 9.47486C4.38436 9.23209 4.48779 8.9034 4.48814 8.85716C4.48837 8.83125 4.51087 8.76234 4.5382 8.70403C4.56553 8.64573 4.60169 8.54502 4.61859 8.48023C4.6355 8.41544 4.67054 8.30413 4.69651 8.23287C4.72248 8.1616 4.78645 7.96831 4.83857 7.80334C4.89075 7.63837 4.94829 7.47406 4.96643 7.43819C4.98457 7.40232 5.01284 7.31468 5.02927 7.24342C5.04565 7.17216 5.06738 7.10325 5.07751 7.09029C5.0877 7.07733 5.11879 6.97739 5.14671 6.86814C5.17457 6.75894 5.21102 6.64233 5.22769 6.60899C5.24442 6.57572 5.27098 6.49544 5.28682 6.43066C5.30261 6.36587 5.32952 6.29697 5.3466 6.27753C5.36368 6.25809 5.40055 6.15774 5.42859 6.05455C5.45662 5.95137 5.48878 5.85584 5.49997 5.84235C5.51122 5.8288 5.53707 5.74582 5.55745 5.65801C5.57783 5.57013 5.60951 5.46913 5.62795 5.43355C5.64632 5.39798 5.66894 5.32689 5.67813 5.27548C5.68737 5.22412 5.71906 5.12906 5.74862 5.06428C5.77813 4.99949 5.81435 4.88836 5.82902 4.81727C5.84374 4.74618 5.87655 4.65283 5.90193 4.60978C5.92731 4.56673 5.9481 4.51584 5.9481 4.49664C5.9481 4.45971 6.05842 4.10728 6.15018 3.85103C6.18033 3.76681 6.21219 3.66609 6.22091 3.62722C6.23622 3.55926 6.29447 3.40354 6.3635 3.24605C6.40902 3.14228 5.98815 3.15052 11.3983 3.14722L16.3183 3.14422L16.382 3.21236ZM6.43105 10.6248C6.72906 10.6316 7.16371 10.6426 7.39694 10.6491C7.96782 10.6648 8.75101 10.6777 10.1061 10.6937C10.7281 10.701 11.4967 10.7121 11.8141 10.7185C12.1316 10.7249 12.8683 10.7358 13.4514 10.7428C14.0345 10.7498 14.5857 10.7655 14.6764 10.7776C14.7671 10.7898 15.3343 10.805 15.9368 10.8114C17.5551 10.8288 18.6485 10.8483 18.7285 10.8614C18.784 10.8706 18.837 10.9215 18.9758 11.0987C19.073 11.2228 19.1752 11.347 19.2029 11.3747C19.2745 11.4462 19.2883 11.571 19.2264 11.5872C19.2006 11.594 18.9454 11.5839 18.6594 11.5649C18.3735 11.5459 18.1024 11.5314 18.0571 11.5327C18.0117 11.534 17.7732 11.529 17.527 11.5215C17.2808 11.5141 16.8674 11.5022 16.6082 11.4952C16.3491 11.4881 15.9409 11.4722 15.7012 11.4598C14.9571 11.4211 13.5974 11.3732 11.7081 11.3189C11.2805 11.3066 10.8088 11.2861 10.6598 11.2733C10.5108 11.2605 10.0284 11.2428 9.58786 11.2342C8.52244 11.2132 7.62457 11.1775 7.27915 11.1425C7.21436 11.1359 6.56769 11.1145 5.84209 11.0947C4.39332 11.0554 4.39614 11.0557 4.32205 10.9769L4.27046 10.9219L4.34284 10.7687C4.43596 10.5716 4.35751 10.577 6.43105 10.6248ZM5.97166 11.3639C6.27615 11.3766 6.88042 11.3931 7.31448 11.4006C7.74855 11.408 8.20734 11.4257 8.33409 11.4398C8.46077 11.4539 8.58557 11.4599 8.61143 11.4532C8.63722 11.4465 8.7986 11.4501 8.96998 11.4614C9.14137 11.4725 9.74805 11.4932 10.3182 11.5071C10.8883 11.5211 11.519 11.5432 11.7199 11.5562C12.0962 11.5805 13.0651 11.6174 13.8519 11.6373C14.0981 11.6436 14.5486 11.6586 14.8531 11.6706C15.5118 11.6966 15.3309 11.6902 16.1842 11.7181C16.5729 11.7309 17.1401 11.7521 17.4445 11.7652C17.749 11.7783 18.2256 11.7951 18.5036 11.8025C19.1929 11.8208 19.2004 11.831 18.8156 12.2248C18.6757 12.368 18.5226 12.5328 18.4753 12.5911L18.3894 12.6972L17.6284 12.6969C16.3524 12.6965 13.8911 12.6591 13.6163 12.636C13.2915 12.6088 13.3284 12.6088 13.2041 12.636C13.1384 12.6504 13.0443 12.6513 12.9567 12.6384C12.798 12.615 12.0526 12.5987 9.68209 12.5672C5.16538 12.507 5.66293 12.5388 5.42982 12.2957C5.3456 12.2078 5.24489 12.105 5.20602 12.0671C4.86807 11.7382 4.73992 11.6212 4.6236 11.5355C4.49468 11.4406 4.48996 11.4336 4.517 11.3743L4.54521 11.3123L4.98163 11.3266C5.22163 11.3344 5.66717 11.3512 5.97166 11.3639ZM7.50295 12.7792C8.41601 12.8001 10.4483 12.8357 10.5537 12.8327C10.6014 12.8313 13.1238 12.8701 13.9933 12.8856C14.2524 12.8902 14.7242 12.9046 15.0416 12.9176C15.359 12.9306 15.8838 12.942 16.2077 12.9429C16.5317 12.9439 17.0935 12.9504 17.4563 12.9573C18.1912 12.9714 18.221 12.9778 18.1166 13.0991C18.0839 13.1372 18.0571 13.1796 18.0571 13.1934C18.0571 13.2071 18.037 13.2399 18.0125 13.2662C17.9879 13.2925 17.9493 13.3502 17.9268 13.3944C17.9042 13.4385 17.8538 13.5152 17.8147 13.5649L17.7437 13.6553L17.0581 13.6405C16.6811 13.6324 16.2242 13.6158 16.0428 13.6037C15.8614 13.5916 15.5063 13.5758 15.2536 13.5688C15.001 13.5616 14.7677 13.5513 14.7353 13.5457C14.6792 13.536 14.3858 13.5275 13.0863 13.498C12.7688 13.4908 12.3077 13.4741 12.0615 13.4608C11.1388 13.411 10.8145 13.3986 9.63498 13.3678C8.53598 13.3391 8.26377 13.3291 7.71068 13.2966C7.48628 13.2834 7.10128 13.2677 6.8551 13.2617C6.37934 13.2502 6.18604 13.2356 6.14817 13.2086C6.10412 13.1771 5.92455 12.9017 5.92455 12.8656C5.92455 12.8458 5.91394 12.823 5.90099 12.815C5.8372 12.7756 5.89869 12.7569 6.1189 12.7491C6.25171 12.7443 6.39748 12.7442 6.44283 12.7486C6.48818 12.7531 6.96523 12.7668 7.50295 12.7792ZM8.23326 13.5556C9.39604 13.6094 9.85071 13.6275 10.3417 13.6397C10.6268 13.6467 11.1197 13.663 11.4372 13.676C12.0506 13.701 12.634 13.7221 14.2995 13.7795C14.8696 13.7992 15.4951 13.8242 15.6895 13.8351C15.8838 13.8459 16.0746 13.8551 16.1135 13.8553C16.7588 13.8598 17.5669 13.9071 17.6023 13.9425C17.607 13.9472 17.5951 13.9817 17.5758 14.0191C17.5564 14.0565 17.5152 14.1454 17.4842 14.2167C17.4532 14.2879 17.4077 14.3706 17.3832 14.4003L17.3385 14.4543L14.806 14.4187C13.4131 14.3992 12.1039 14.3759 11.8966 14.367C11.6893 14.3581 11.3659 14.3487 11.178 14.3461C10.9902 14.3435 10.2216 14.3286 9.47007 14.3131C8.71856 14.2977 7.81033 14.2828 7.45183 14.2803C6.71817 14.275 6.74697 14.282 6.64384 14.0825C6.6184 14.0332 6.54613 13.8989 6.48335 13.784C6.42033 13.6687 6.37533 13.5592 6.38287 13.5395C6.39801 13.5001 7.17973 13.5069 8.23326 13.5556ZM19.9064 13.8555C19.5194 13.9029 19.1381 14.1878 18.9581 14.5637L18.8705 14.7467L18.8703 15.1001C18.8696 16.2294 20.1497 16.784 20.9547 16.003C21.8277 15.1561 21.1202 13.7066 19.9064 13.8555ZM20.3754 13.9335C20.4571 13.9469 20.5355 13.976 20.5654 14.004C20.5933 14.0303 20.626 14.0518 20.638 14.0518C20.6705 14.0518 20.916 14.2224 20.9408 14.2621C20.9526 14.281 20.9851 14.3183 21.013 14.3449C21.0409 14.3716 21.1047 14.4729 21.1547 14.57L21.2458 14.7467L21.2474 15.0883L21.2491 15.4299L21.1501 15.6302C21.0956 15.7403 21.0294 15.8438 21.0029 15.86C20.9764 15.8764 20.9547 15.9048 20.9547 15.9232C20.9547 15.9417 20.9332 15.9636 20.907 15.9719C20.8807 15.9803 20.8431 16.0118 20.8233 16.042C20.8035 16.0722 20.7633 16.1029 20.7339 16.1103C20.7044 16.1176 20.6415 16.15 20.5941 16.1823C20.2985 16.3829 19.616 16.2891 19.3215 16.0074C19.2674 15.9557 19.2155 15.9133 19.2061 15.9131C19.1968 15.913 19.1712 15.8784 19.1495 15.8363C19.1277 15.7942 19.0969 15.7491 19.0809 15.7362C19.0649 15.7232 19.0335 15.6558 19.0111 15.5863C18.9886 15.5168 18.9557 15.432 18.9378 15.3978C18.8934 15.3126 18.8929 14.8576 18.9371 14.7932C18.9547 14.7676 18.9881 14.6884 19.0113 14.6172C19.1092 14.3173 19.4755 13.9956 19.7886 13.9347C19.9262 13.9079 20.2154 13.9073 20.3754 13.9335ZM9.25804 14.558C10.228 14.57 10.5795 14.5756 12.2382 14.6062C12.5945 14.6127 13.2253 14.6282 13.6399 14.6406C14.0545 14.6529 15.0139 14.6699 15.7719 14.6784C17.3478 14.696 17.3225 14.6915 17.1975 14.9311C17.1784 14.9678 17.1413 15.0698 17.115 15.158C17.0497 15.3774 17.0368 15.3819 16.5188 15.3625C16.2959 15.3542 15.8167 15.3416 15.4539 15.3345C15.0911 15.3273 14.6988 15.312 14.5822 15.3003C14.3076 15.2729 13.9612 15.2571 13.2629 15.24C12.952 15.2324 12.6079 15.2223 12.4981 15.2174C12.3885 15.2125 12.0227 15.2021 11.6854 15.1941C11.3481 15.1862 11.0372 15.1688 10.9945 15.1554C10.9518 15.1421 10.9016 15.137 10.8829 15.1442C10.8641 15.1514 10.5969 15.147 10.289 15.1343C9.71878 15.1109 9.35734 15.0991 8.53952 15.077C6.97212 15.0346 7.10058 15.0577 6.97413 14.7948C6.83643 14.5086 6.81369 14.5183 7.5854 14.5331C7.93525 14.5398 8.68793 14.5511 9.25804 14.558ZM7.8681 15.2991C7.96304 15.3204 8.07724 15.3246 9.85878 15.3707C10.3965 15.3846 10.9955 15.4067 11.1898 15.4198C11.6594 15.4514 12.5206 15.4823 13.7695 15.5123C14.3331 15.5259 14.9268 15.5471 15.0887 15.5595C15.2507 15.5719 15.7065 15.5931 16.1017 15.6067C16.4969 15.6203 16.8478 15.6424 16.8814 15.6557L16.9426 15.68L16.9014 15.8048C16.8788 15.8734 16.8459 15.9536 16.8285 15.9829L16.7967 16.0362L16.1606 16.0213C15.8108 16.0131 15.1588 16.0014 14.7118 15.9953C14.2648 15.9891 13.6287 15.9769 13.2983 15.9681C12.9679 15.9593 12.5332 15.9502 12.3324 15.9479C12.1316 15.9456 11.2835 15.9312 10.4477 15.9159C8.95868 15.8888 7.83824 15.8698 7.56668 15.8671C7.40242 15.8655 7.33192 15.8099 7.29199 15.6505C7.27779 15.594 7.25164 15.5152 7.23386 15.4755C7.21613 15.4358 7.207 15.3748 7.21366 15.34L7.22573 15.2768L7.49983 15.2774C7.65054 15.2777 7.81628 15.2875 7.8681 15.2991ZM10.1179 16.1602C10.4872 16.1657 11.2664 16.1765 11.8495 16.1844C13.2274 16.2028 13.8725 16.2147 14.2642 16.2289C14.4391 16.2353 15.0434 16.2469 15.607 16.2548C16.8706 16.2724 16.7931 16.2442 16.691 16.6494C16.626 16.9073 16.5532 16.9983 16.4588 16.9399C16.4463 16.9322 16.2894 16.9256 16.1099 16.9252C15.9305 16.9249 15.6512 16.9145 15.4892 16.9023C15.132 16.8752 14.7373 16.8596 13.687 16.8309C13.2465 16.8189 12.5945 16.7976 12.2382 16.7836C11.8818 16.7697 11.3094 16.7478 10.966 16.7349C10.6227 16.722 10.2569 16.7079 10.1533 16.7035C10.0496 16.6992 9.65736 16.6886 9.2816 16.6801C8.40936 16.6603 7.66974 16.6223 7.61815 16.5947C7.59601 16.5828 7.55572 16.5045 7.52863 16.4207C7.42556 16.1016 7.36608 16.1189 8.50418 16.1361C9.02246 16.1439 9.74864 16.1548 10.1179 16.1602ZM8.52774 16.9038C8.74801 16.9162 9.42118 16.9364 10.0237 16.9488C10.6262 16.9612 11.2835 16.9821 11.4843 16.9952C11.6851 17.0084 12.1569 17.0301 12.5326 17.0434C12.9084 17.0567 13.3377 17.0732 13.4868 17.0799C13.6358 17.0866 14.0015 17.0969 14.2995 17.1028C14.9283 17.1152 15.3921 17.1335 15.4146 17.1469C15.4232 17.152 15.6564 17.1632 15.9328 17.1719C16.4332 17.1875 16.5469 17.2039 16.552 17.261C16.5636 17.3893 16.5085 17.5506 16.4406 17.587C16.3921 17.6129 14.7532 17.6036 13.9579 17.5729C13.8867 17.5701 13.7594 17.5678 13.6752 17.5676C13.3313 17.567 12.5683 17.5466 12.2853 17.5306C12.0839 17.5192 9.54039 17.4816 8.88111 17.4802C7.67764 17.4778 7.74142 17.495 7.6913 17.1582C7.64778 16.8655 7.65838 16.8522 7.92176 16.8685C8.03478 16.8755 8.30747 16.8914 8.52774 16.9038ZM10.1768 17.7622C12.9017 17.7989 14.478 17.8284 15.3479 17.8588C15.5357 17.8654 15.8433 17.8693 16.0314 17.8674C16.4659 17.8631 16.4779 17.871 16.4341 18.1334C16.4003 18.3354 16.3461 18.4959 16.3067 18.5108C16.2775 18.5219 14.6789 18.4713 14.2406 18.4454C13.8993 18.4254 13.6253 18.4162 12.5007 18.3875C11.9649 18.3738 11.5175 18.3571 11.5064 18.3503C11.4955 18.3435 11.2448 18.3328 10.9494 18.3266C10.654 18.3203 10.3011 18.3051 10.165 18.2927C10.029 18.2804 9.54663 18.2647 9.09313 18.2579C7.85603 18.2395 7.85544 18.2394 7.83724 17.9538C7.82164 17.7087 7.7711 17.7229 8.60795 17.7379C9.00438 17.745 9.71036 17.756 10.1768 17.7622ZM8.87499 18.5179C9.00791 18.524 9.56194 18.5392 10.1061 18.5518C10.6503 18.5645 11.1221 18.5795 11.1545 18.5854C11.1869 18.5913 11.3936 18.6022 11.6139 18.6096C11.8341 18.6171 12.2317 18.6332 12.4973 18.6455C12.7629 18.6577 13.2718 18.6734 13.6281 18.6803C14.6795 18.7006 16.2665 18.7903 16.308 18.8317C16.3488 18.8725 16.3288 19.139 16.2825 19.1703C16.2451 19.1957 13.8597 19.1689 13.475 19.1388C13.3065 19.1257 13.1104 19.1157 13.0391 19.1167C12.9679 19.1178 12.6286 19.1137 12.2853 19.1077C11.4277 19.0927 9.42548 19.071 8.73976 19.0692C7.9568 19.0672 7.95103 19.0646 7.95068 18.7089C7.95044 18.4715 7.95068 18.4714 8.31807 18.4905C8.49146 18.4994 8.74206 18.5118 8.87499 18.5179ZM10.0944 19.3413C10.8394 19.3494 11.6239 19.3602 11.8377 19.3654C12.0515 19.3705 12.7014 19.3801 13.2819 19.3865C13.8625 19.393 14.3463 19.4037 14.357 19.4104C14.3745 19.4212 15.1227 19.4402 15.8779 19.449C16.0753 19.4512 16.1811 19.4627 16.2286 19.487L16.2966 19.5218L16.2805 19.7348C16.2582 20.0301 16.1915 20.1379 16.0573 20.0953C15.9894 20.0738 15.0933 20.0378 13.9815 20.0121C13.4308 19.9993 12.9007 19.9842 12.8036 19.9784C11.9274 19.9266 11.5957 19.9139 10.2946 19.8823C9.60417 19.8655 8.57768 19.8277 8.32042 19.8095C8.08107 19.7925 8.07059 19.7836 8.02188 19.5538C7.97482 19.3316 8.01799 19.3064 8.42667 19.3179C8.59888 19.3227 9.34933 19.3332 10.0944 19.3413ZM8.94001 20.0819C9.29633 20.0956 9.80518 20.1172 10.0708 20.1298C10.3364 20.1423 10.7976 20.1585 11.0956 20.1657C11.3936 20.1729 11.7646 20.184 11.9201 20.1906C12.0756 20.1972 12.3035 20.2068 12.4266 20.212C12.5497 20.2173 13 20.2335 13.4272 20.2482C13.8545 20.2628 14.2096 20.2783 14.2164 20.2825C14.2232 20.2868 14.5522 20.2967 14.9474 20.3045C16.2633 20.3307 16.2195 20.3226 16.2195 20.5401C16.2195 20.6987 16.1754 20.7727 16.0927 20.7531C16.0523 20.7436 15.8603 20.7332 15.6659 20.7303C14.5961 20.714 13.6827 20.6933 13.6517 20.6846C13.6322 20.6792 12.8265 20.6686 11.8612 20.661C10.2385 20.6484 9.30392 20.6332 8.83399 20.6117C8.73034 20.607 8.53192 20.6027 8.3931 20.602C8.09079 20.6007 8.09132 20.6012 8.08502 20.3088C8.08001 20.0784 8.10539 20.0286 8.21883 20.0458C8.25917 20.0519 8.58369 20.0682 8.94001 20.0819ZM9.55252 20.8947C10.2099 20.902 12.4004 20.9369 13.4632 20.9571C14.1175 20.9694 14.9868 20.9837 15.395 20.9889C15.8031 20.9939 16.1433 20.9989 16.151 20.9998C16.2179 21.0079 16.2498 21.4929 16.1888 21.5762C16.155 21.6225 15.5169 21.6088 14.0639 21.5306C13.7141 21.5118 12.9402 21.4858 12.3442 21.4728C11.3028 21.4501 10.6695 21.4264 9.83522 21.3787C9.62143 21.3666 9.15144 21.3494 8.79076 21.3406C8.04414 21.3224 8.10369 21.3437 8.10369 21.0957C8.10369 20.8308 8.05162 20.8496 8.7228 20.8722C9.04307 20.8831 9.41647 20.8931 9.55252 20.8947ZM9.52896 21.6272C10.1093 21.6437 10.911 21.6775 11.4136 21.7067C11.6274 21.7191 12.2688 21.741 12.8389 21.7553C13.409 21.7695 14.0451 21.7917 14.2524 21.8044C14.5898 21.8252 15.7079 21.8676 16.0235 21.8716C16.1629 21.8733 16.2222 21.9148 16.2023 21.9964C16.1733 22.1145 16.1659 22.1162 15.7606 22.0954C15.5531 22.0847 15.3461 22.0761 15.3007 22.0762C15.2554 22.0764 14.8207 22.0684 14.3349 22.0583C13.849 22.0483 12.8896 22.0344 12.2028 22.0275C11.5161 22.0206 10.5673 22.0089 10.0944 22.0013C7.90362 21.9663 8.12937 21.9891 8.10327 21.7994C8.07477 21.5923 8.09974 21.5829 8.63316 21.6001C8.87322 21.6077 9.2763 21.6199 9.52896 21.6272ZM9.65853 22.2029C9.65052 22.2159 9.59752 22.2265 9.54074 22.2265C9.48397 22.2265 9.43096 22.2159 9.42295 22.2029C9.41388 22.1883 9.45852 22.1794 9.54074 22.1794C9.62296 22.1794 9.6676 22.1883 9.65853 22.2029ZM10.1179 22.2029C10.1435 22.2195 10.1228 22.2258 10.0428 22.2261C9.98199 22.2263 9.92568 22.2159 9.91767 22.2029C9.89877 22.1723 10.0706 22.1723 10.1179 22.2029ZM9.48185 22.3375C9.50128 22.3447 9.70271 22.3535 9.92945 22.3572C11.7358 22.3865 13.5197 22.4173 14.2406 22.4317C14.7136 22.4412 15.1853 22.4495 15.289 22.4503C15.3926 22.4511 15.6335 22.454 15.8243 22.4569L16.1712 22.4621L16.2097 22.5366C16.2543 22.6227 16.1844 22.7099 16.0899 22.6862C16.064 22.6796 15.5022 22.6641 14.8414 22.6516C14.1805 22.6391 13.4703 22.6228 13.2629 22.6154C12.603 22.5917 10.4578 22.5428 9.02246 22.5187C8.54305 22.5106 8.14285 22.4992 8.13314 22.4935C8.11064 22.4799 8.10999 22.3341 8.13231 22.3117C8.15122 22.2928 9.4266 22.3172 9.48185 22.3375Z" fill="url(#paint2_linear)"/>
<path fill-rule="evenodd" clip-rule="evenodd" d="M20.0108 13.0718C20.0054 13.0771 19.9014 13.0934 19.7797 13.108C19.6438 13.1245 19.5121 13.1566 19.4381 13.1913C19.3719 13.2223 19.289 13.2548 19.2539 13.2633C19.2188 13.2719 19.1773 13.2944 19.1616 13.3134C19.1459 13.3323 19.1004 13.3619 19.0605 13.3793C18.9702 13.4187 18.7885 13.5638 18.6615 13.6982C18.6467 13.7138 18.6054 13.7564 18.5698 13.7926C18.5342 13.829 18.505 13.8659 18.505 13.8747C18.505 13.8835 18.4679 13.9466 18.4225 14.0149C18.3772 14.0832 18.3401 14.147 18.3401 14.1566C18.3401 14.1662 18.3193 14.2033 18.2939 14.239C18.2684 14.2747 18.2361 14.3559 18.2219 14.4194C18.2078 14.4828 18.1743 14.607 18.1476 14.6954C18.0826 14.9099 18.0951 15.3553 18.1722 15.5691C18.1997 15.6456 18.2223 15.7363 18.2223 15.7707C18.2223 15.805 18.2486 15.8687 18.2806 15.9121C18.3127 15.9556 18.3506 16.0266 18.3649 16.0698C18.3792 16.1131 18.3997 16.1485 18.4105 16.1485C18.4213 16.1485 18.4532 16.1962 18.4814 16.2545C18.5097 16.3128 18.5428 16.3605 18.555 16.3605C18.5673 16.3605 18.5992 16.3976 18.6259 16.443C18.6526 16.4883 18.6896 16.5254 18.7081 16.5254C18.7265 16.5254 18.7537 16.5519 18.7684 16.5843C18.7832 16.6167 18.8058 16.6432 18.8186 16.6432C18.8314 16.6432 18.896 16.7 18.9621 16.7694C19.0282 16.8387 19.1059 16.9029 19.1347 16.9121C19.1635 16.9212 19.2062 16.9531 19.2297 16.983C19.2532 17.0128 19.3065 17.0549 19.3481 17.0764C19.3897 17.0979 19.4238 17.1264 19.4238 17.1397C19.4238 17.1531 19.4552 17.1748 19.4935 17.1882C19.5318 17.2016 19.5697 17.2329 19.5775 17.2577C19.5854 17.2825 19.6045 17.3028 19.6201 17.3028C19.6356 17.3028 19.7138 17.3348 19.7938 17.3738C19.8738 17.4128 19.9721 17.4514 20.0122 17.4594C20.0523 17.4674 20.0981 17.4925 20.1139 17.5151C20.1308 17.5393 20.1866 17.5619 20.2485 17.5696C20.4465 17.5945 20.684 17.6449 20.7321 17.6723C20.8158 17.7199 21.2603 17.5998 21.3256 17.512C21.3415 17.4906 21.3805 17.4666 21.4123 17.4586C21.4441 17.4506 21.4766 17.4239 21.4845 17.3991C21.4923 17.3744 21.5248 17.337 21.5567 17.3162C21.5886 17.2953 21.6147 17.2643 21.6147 17.2472C21.6147 17.2301 21.6392 17.205 21.6691 17.1914C21.7025 17.1761 21.7343 17.1307 21.7513 17.0736C21.7666 17.0225 21.8005 16.9614 21.8265 16.9379C21.8525 16.9143 21.8738 16.8824 21.8738 16.8669C21.8738 16.8513 21.901 16.7876 21.9342 16.7251C21.9724 16.6532 22.0024 16.546 22.0158 16.433C22.0274 16.3348 22.064 16.1591 22.097 16.0425C22.1792 15.7528 22.1642 15.0171 22.0709 14.7557C22.0403 14.6699 22.0152 14.5752 22.0152 14.5452C22.0152 14.5152 21.9955 14.4476 21.9714 14.3949C21.9474 14.3423 21.9132 14.2514 21.8956 14.1931C21.8132 13.921 21.3319 13.3686 21.1773 13.3686C21.1627 13.3686 21.1316 13.3473 21.108 13.3213C21.0845 13.2953 21.0218 13.2616 20.9689 13.2466C20.916 13.2314 20.8559 13.205 20.8354 13.1878C20.7658 13.1293 20.0548 13.0293 20.0108 13.0718ZM20.4132 13.839C20.5488 13.8689 20.8125 14.0025 20.9003 14.0857C20.9548 14.1372 20.9804 14.1626 21.07 14.2534C21.1622 14.3468 21.2791 14.5436 21.296 14.6339C21.3047 14.6803 21.3296 14.7455 21.3514 14.7786C21.4156 14.8766 21.4058 15.3284 21.3368 15.4526C21.3082 15.5039 21.2849 15.5656 21.2849 15.5896C21.2849 15.6439 21.2482 15.7139 21.1889 15.7733C21.1639 15.7983 21.1435 15.8309 21.1435 15.8459C21.1435 15.8811 20.8214 16.1956 20.7853 16.1956C20.7702 16.1956 20.7345 16.2176 20.7059 16.2444C20.6566 16.2906 20.4174 16.3678 20.213 16.4033C20.027 16.4356 19.6082 16.3457 19.482 16.2464C19.4464 16.2184 19.4072 16.1956 19.3946 16.1956C19.3077 16.1956 19.0313 15.87 18.9062 15.6202C18.7634 15.3351 18.7774 14.7222 18.9311 14.5268C18.9559 14.4953 18.9763 14.4576 18.9766 14.4432C18.9777 14.3768 19.2851 14.0547 19.4139 13.9851C19.5813 13.8946 19.6549 13.8645 19.7889 13.8318C19.9484 13.793 20.219 13.7961 20.4132 13.839ZM4.4748 13.8854C4.42362 13.9235 4.3447 14.0033 4.29935 14.0628C4.07667 14.355 3.55974 14.9739 3.52111 14.9946C3.47794 15.0177 3.3254 14.9716 3.16944 14.8883C2.80146 14.6919 1.91184 14.2792 1.83751 14.2705C1.74411 14.2596 1.74122 14.2616 1.51447 14.5031C1.13236 14.91 1.13477 14.8875 1.45346 15.0683C1.49115 15.0897 1.54527 15.1246 1.57372 15.1459C1.6282 15.1866 1.74334 15.2574 1.91997 15.3589C1.97827 15.3923 2.07369 15.4508 2.13199 15.4888C2.1903 15.5268 2.28041 15.581 2.33224 15.6093C2.83397 15.8827 2.8451 15.9194 2.53248 16.2673C2.51305 16.2889 2.47359 16.3373 2.44485 16.3747C2.38401 16.4541 2.29343 16.5739 2.26869 16.6079C2.25921 16.6208 2.20332 16.6875 2.14442 16.7561C1.9778 16.9502 2.0152 17.0376 2.28606 17.0875C2.37241 17.1034 2.46581 17.1309 2.49367 17.1486C2.52147 17.1662 2.60787 17.1934 2.68561 17.2089C2.76335 17.2245 2.87143 17.2572 2.92579 17.2818C3.08021 17.3515 3.28635 17.2598 3.28635 17.1214C3.28635 17.1106 3.31527 17.0595 3.35066 17.0079C3.386 16.9563 3.43106 16.8855 3.45079 16.8505C3.67276 16.456 3.71741 16.4368 3.97896 16.6244C4.02949 16.6607 4.08097 16.6903 4.09334 16.6903C4.10576 16.6903 4.14587 16.7142 4.18262 16.7433C4.39718 16.9138 4.67923 17.038 4.72535 16.9824C4.74042 16.9643 4.76581 16.9495 4.78177 16.9495C4.79773 16.9495 4.83937 16.923 4.87429 16.8906C4.90928 16.8582 4.94338 16.8317 4.95009 16.8317C4.95681 16.8317 5.01187 16.7972 5.07254 16.7551C5.1332 16.713 5.19999 16.6679 5.22095 16.655C5.58051 16.4331 5.83541 16.2452 5.82393 16.2108C5.81945 16.1973 5.68906 16.1221 5.53422 16.0437C5.20187 15.8754 5.19168 15.8703 5.0405 15.7983C4.97624 15.7677 4.84685 15.704 4.75291 15.6569C4.65903 15.6098 4.53411 15.5474 4.47534 15.5181C4.31596 15.4389 4.31696 15.4229 4.49931 15.1329C4.51244 15.112 4.55284 15.0431 4.58906 14.9797C4.62534 14.9164 4.69107 14.8062 4.73518 14.735C4.7793 14.6637 4.84273 14.5577 4.87612 14.4994C4.90957 14.4411 4.96776 14.3457 5.00534 14.2874C5.28232 13.8582 5.2666 13.8162 4.82883 13.8162C4.57681 13.8162 4.56456 13.8186 4.4748 13.8854Z" fill="url(#paint3_linear)"/>
<path fill-rule="evenodd" clip-rule="evenodd" d="M13.9241 4.03542C13.8852 4.05934 13.8095 4.12035 13.7559 4.17106C13.3665 4.5394 12.9219 4.96445 12.686 5.19384C12.5327 5.34285 12.2894 5.57608 12.1453 5.71213C12.0012 5.84818 11.7647 6.07434 11.6197 6.21462C11.4748 6.35497 11.2033 6.6147 11.0163 6.7918C10.8294 6.96896 10.5932 7.196 10.4914 7.29642C10.2663 7.51852 10.1754 7.53842 10.0118 7.40161C9.96081 7.35903 9.88854 7.30337 9.85108 7.27793C9.81362 7.25249 9.75002 7.20772 9.70973 7.17857C9.66945 7.14936 9.59489 7.09771 9.54406 7.06378C9.49329 7.02986 9.43033 6.98221 9.40418 6.95789C9.37803 6.93351 9.34334 6.9136 9.32709 6.9136C9.31083 6.9136 9.28368 6.8941 9.26678 6.87019C9.24982 6.84634 9.21077 6.81348 9.18002 6.79716C9.11789 6.76418 8.92577 6.62554 8.87082 6.57407C8.85139 6.55587 8.80633 6.52771 8.7707 6.51146C8.73507 6.49526 8.70591 6.47335 8.70591 6.46281C8.70591 6.45227 8.67146 6.426 8.62935 6.40445C8.58724 6.38289 8.51927 6.33754 8.47834 6.30373C8.43735 6.26987 8.36844 6.21792 8.32521 6.18824C8.28192 6.15856 8.13521 6.05484 7.99916 5.95778C7.86312 5.86066 7.71022 5.75383 7.6594 5.72025C7.55491 5.65129 7.54838 5.6464 7.43064 5.54804C7.37658 5.50287 7.31874 5.47654 7.27351 5.47654C7.19524 5.47654 7.20331 5.45829 7.14853 5.75924C7.13322 5.84346 7.10713 5.93946 7.09052 5.97256C7.07397 6.0056 7.0437 6.12063 7.02332 6.22811C6.97774 6.46841 6.94652 6.41734 7.46127 6.94364C7.67288 7.16002 8.07926 7.57677 8.36432 7.86983C8.64937 8.1629 9.03632 8.55944 9.2242 8.75109C9.41207 8.94273 9.72275 9.25965 9.91457 9.45536C10.1064 9.65113 10.2718 9.81127 10.282 9.81127C10.3134 9.81127 10.5258 9.58157 10.8267 9.22231C11.2479 8.71958 11.2418 8.72659 11.4603 8.48023C11.4833 8.45431 11.5912 8.32739 11.7001 8.19811C11.8691 7.99746 12.4644 7.2963 12.6906 7.03139C12.9998 6.66912 13.1217 6.52989 13.1761 6.47689C13.2053 6.4485 13.2291 6.41935 13.2291 6.4121C13.2291 6.40486 13.2583 6.36852 13.2939 6.3313C13.3295 6.29408 13.454 6.1476 13.5703 6.00584C13.6868 5.86408 13.8054 5.72143 13.8339 5.68886C13.8624 5.65629 13.9209 5.5885 13.9638 5.53815C14.0068 5.48785 14.0631 5.42477 14.089 5.39809C14.1149 5.37136 14.152 5.32636 14.1714 5.29809C14.2025 5.25292 14.3029 5.13436 14.5013 4.90861C14.5336 4.87174 14.5973 4.79748 14.6426 4.74359C14.688 4.6897 14.7469 4.6232 14.7735 4.59582C14.8002 4.56837 14.8496 4.50889 14.8833 4.46354C14.917 4.41819 14.9879 4.33379 15.0409 4.27601C15.094 4.21824 15.1373 4.16335 15.1373 4.15404C15.1373 4.11806 15.0608 4.06305 15.0108 4.06305C14.9643 4.06305 14.6772 4.04326 14.1597 4.00439C14.0257 3.99437 13.9815 4.00021 13.9241 4.03542Z" fill="url(#paint4_linear)"/>
<defs>
<linearGradient id="paint0_linear" x1="11.7644" y1="0" x2="11.7644" y2="24" gradientUnits="userSpaceOnUse">
<stop stop-color="#92C3EB"/>
<stop offset="1" stop-color="#B6E2D2"/>
</linearGradient>
<linearGradient id="paint1_linear" x1="12.6572" y1="3.14447" x2="11.5933" y2="18.7791" gradientUnits="userSpaceOnUse">
<stop stop-color="#E3D7BD"/>
<stop offset="0.0001" stop-color="#FFFEFD"/>
<stop offset="1" stop-color="#EBDEC2"/>
</linearGradient>
<linearGradient id="paint2_linear" x1="20.1951" y1="3.97318" x2="5.45097" y2="23.348" gradientUnits="userSpaceOnUse">
<stop stop-color="#B58765"/>
<stop offset="1" stop-color="#D6C6BA"/>
</linearGradient>
<linearGradient id="paint3_linear" x1="11.6857" y1="13.0616" x2="11.6857" y2="17.6831" gradientUnits="userSpaceOnUse">
<stop stop-color="#616892"/>
<stop offset="1" stop-color="#707FA6"/>
</linearGradient>
<linearGradient id="paint4_linear" x1="11.0687" y1="4" x2="11.0687" y2="9.81127" gradientUnits="userSpaceOnUse">
<stop stop-color="#F7BAC5"/>
<stop offset="1" stop-color="#EC98BC"/>
</linearGradient>
</defs>
</svg>
