<svg width="24" height="24" viewBox="0 0 24 24" fill="none" xmlns="http://www.w3.org/2000/svg">
<path d="M3.60017 11.9586C3.60017 7.31924 7.36108 3.55833 12.0004 3.55833C14.6849 3.55833 17.0753 4.81761 18.6132 6.77768C18.4403 6.96212 18.303 7.18555 18.2162 7.44069C18.0632 7.88999 18.0935 8.35717 18.2674 8.76071L14.8077 11.6343C14.2173 11.2506 13.4347 11.2251 12.818 11.6312C12.3828 11.9006 12.1051 12.3277 12.009 12.7952L5.08236 13.4348C4.93753 13.081 4.68327 12.7674 4.33464 12.5516C4.10394 12.4175 3.85635 12.3382 3.60739 12.3099C3.60259 12.1934 3.60017 12.0762 3.60017 11.9586Z" fill="url(#paint0_linear)"/>
<path d="M5.18727 14.4963L12.106 13.8574C12.1488 13.9632 12.2021 14.0666 12.2661 14.1661C12.7284 14.8852 13.6065 15.1741 14.3721 14.9247L16.245 17.6256C16.0322 17.8962 15.8942 18.2302 15.8644 18.6021C15.8427 18.8688 15.8789 19.1282 15.963 19.3673C14.7826 20 13.4334 20.3588 12.0004 20.3588C8.677 20.3588 5.80437 18.4288 4.44214 15.6285C4.65055 15.485 4.83147 15.2961 4.96837 15.0661C5.07599 14.8853 5.14826 14.6927 5.18727 14.4963Z" fill="url(#paint1_linear)"/>
<path d="M18.6 17.1562C18.3817 17.0333 18.1345 16.9524 17.8678 16.9257C17.6064 16.9048 17.353 16.9374 17.1193 17.0146L15.2474 14.3151C15.6651 13.79 15.7689 13.0673 15.4972 12.4482L18.9558 9.57554C19.0796 9.65538 19.2151 9.72153 19.361 9.77118C19.6188 9.85894 19.8824 9.88636 20.1366 9.86095C20.309 10.5314 20.4006 11.2343 20.4006 11.9586C20.4006 13.921 19.7277 15.7263 18.6 17.1562Z" fill="url(#paint2_linear)"/>
<path fill-rule="evenodd" clip-rule="evenodd" d="M24 12C24 18.6274 18.6274 24 12 24C5.37258 24 0 18.6274 0 12C0 5.37258 5.37258 0 12 0C18.6274 0 24 5.37258 24 12ZM12.0004 21.4255C8.19938 21.4255 4.92157 19.1853 3.41513 15.9533C3.08901 15.9574 2.75688 15.876 2.45389 15.6998C1.59529 15.1887 1.30908 14.0644 1.82016 13.1853C1.99974 12.8836 2.25506 12.6526 2.54884 12.502C2.53866 12.3221 2.53351 12.141 2.53351 11.9586C2.53351 6.73014 6.77198 2.49167 12.0004 2.49167C15.0815 2.49167 17.8188 3.96355 19.5475 6.24253C19.8681 6.16974 20.2123 6.18206 20.5467 6.29588C21.5075 6.62297 22.0185 7.66556 21.6915 8.62638C21.5786 8.958 21.3804 9.23604 21.1299 9.44454C21.3498 10.2451 21.4673 11.0881 21.4673 11.9586C21.4673 14.2233 20.6721 16.3023 19.3456 17.9315C19.4991 18.2304 19.5732 18.5733 19.5442 18.9291C19.442 19.9513 18.5629 20.6872 17.5408 20.6055C17.1839 20.5698 16.8619 20.4369 16.5974 20.2364C15.2362 20.9939 13.6687 21.4255 12.0004 21.4255Z" fill="url(#paint3_linear)"/>
<defs>
<linearGradient id="paint0_linear" x1="12" y1="0" x2="12" y2="24" gradientUnits="userSpaceOnUse">
<stop stop-color="#92C3EB"/>
<stop offset="1" stop-color="#B6E2D2"/>
</linearGradient>
<linearGradient id="paint1_linear" x1="12" y1="0" x2="12" y2="24" gradientUnits="userSpaceOnUse">
<stop stop-color="#92C3EB"/>
<stop offset="1" stop-color="#B6E2D2"/>
</linearGradient>
<linearGradient id="paint2_linear" x1="12" y1="0" x2="12" y2="24" gradientUnits="userSpaceOnUse">
<stop stop-color="#92C3EB"/>
<stop offset="1" stop-color="#B6E2D2"/>
</linearGradient>
<linearGradient id="paint3_linear" x1="12" y1="0" x2="12" y2="24" gradientUnits="userSpaceOnUse">
<stop stop-color="#92C3EB"/>
<stop offset="1" stop-color="#B6E2D2"/>
</linearGradient>
</defs>
</svg>
