<svg width="194" height="193" viewBox="0 0 194 193" fill="none" xmlns="http://www.w3.org/2000/svg">
<mask id="mask0" mask-type="alpha" maskUnits="userSpaceOnUse" x="0" y="0" width="194" height="193">
<path d="M96.6069 192.097C149.961 192.097 193.214 149.094 193.214 96.0484C193.214 43.0023 149.961 0 96.6069 0C43.2524 0 0 43.0023 0 96.0484C0 149.094 43.2524 192.097 96.6069 192.097Z" fill="black"/>
</mask>
<g mask="url(#mask0)">
<path d="M96.6069 192.097C149.961 192.097 193.214 149.094 193.214 96.0484C193.214 43.0023 149.961 0 96.6069 0C43.2524 0 0 43.0023 0 96.0484C0 149.094 43.2524 192.097 96.6069 192.097Z" fill="url(#paint0_linear)"/>
<path fill-rule="evenodd" clip-rule="evenodd" d="M37.5686 96.0483C37.5686 115.84 47.4209 133.344 62.5157 143.976L58.8234 154.375C39.5767 142.026 26.8345 120.517 26.8345 96.0483C26.8345 57.7373 58.0723 26.6801 96.6061 26.6801C135.14 26.6801 166.378 57.7373 166.378 96.0483C166.378 120.517 153.636 142.026 134.389 154.375L130.697 143.976C145.791 133.344 155.644 115.84 155.644 96.0483C155.644 63.6312 129.212 37.3521 96.6061 37.3521C64.0005 37.3521 37.5686 63.6312 37.5686 96.0483ZM139.542 96.0483C139.542 108.783 133.934 120.216 125.038 128.037L121.072 116.867C125.895 111.269 128.808 103.997 128.808 96.0483C128.808 78.3664 114.391 64.0322 96.6061 64.0322C78.8213 64.0322 64.4038 78.3664 64.4038 96.0483C64.4038 103.997 67.3173 111.269 72.1401 116.866L68.1744 128.037C59.2786 120.216 53.6697 108.783 53.6697 96.0483C53.6697 72.4722 72.8929 53.3602 96.6061 53.3602C120.319 53.3602 139.542 72.4722 139.542 96.0483ZM107.804 107.551C110.828 104.641 112.707 100.563 112.707 96.0483C112.707 87.2073 105.499 80.0402 96.6062 80.0402C87.7138 80.0402 80.505 87.2073 80.505 96.0483C80.505 100.563 82.3843 104.64 85.4076 107.55L31.2425 260.115L43.8951 264.554L79.8105 163.393C85.1905 164.715 90.8162 165.417 96.6065 165.417C102.396 165.417 108.022 164.715 113.401 163.394L149.316 264.554L161.969 260.115L123.482 151.71L107.804 107.551ZM96.6065 152.076C92.381 152.076 88.2639 151.614 84.3038 150.737L96.6057 116.087L108.908 150.738C104.948 151.614 100.832 152.076 96.6065 152.076Z" fill="white"/>
</g>
<defs>
<linearGradient id="paint0_linear" x1="136.831" y1="0.467816" x2="72.2713" y2="60.544" gradientUnits="userSpaceOnUse">
<stop stop-color="#BDECF4"/>
<stop offset="1" stop-color="#98CCF9"/>
</linearGradient>
</defs>
</svg>
