<svg width="192" height="192" viewBox="0 0 192 192" fill="none" xmlns="http://www.w3.org/2000/svg">
<path fill-rule="evenodd" clip-rule="evenodd" d="M95.9819 0C87.4346 20.9519 82.2792 34.657 72.7628 54.9861C78.5976 61.1697 85.7595 68.3709 97.3902 76.5039C84.8859 71.3595 76.3565 66.1945 69.9823 60.8349C57.8032 86.2438 38.722 122.438 0 192C30.4342 174.433 54.0262 163.603 76.0128 159.47C75.0687 155.411 74.5319 151.019 74.5683 146.437L74.6045 145.462C75.0875 125.968 85.2305 110.976 97.2459 111.994C109.261 113.012 118.601 129.65 118.118 149.145C118.027 152.813 117.613 156.342 116.89 159.615C138.638 163.868 161.978 174.671 192 192C186.08 181.103 180.796 171.281 175.75 161.926C167.802 155.766 159.512 147.75 142.601 139.072C154.224 142.092 162.547 145.576 169.034 149.47C117.73 53.9687 113.575 41.2786 95.9819 0Z" fill="url(#paint0_linear)"/>
<defs>
<linearGradient id="paint0_linear" x1="135.972" y1="0.46758" x2="71.4723" y2="60.1405" gradientUnits="userSpaceOnUse">
<stop stop-color="#BDECF4"/>
<stop offset="1" stop-color="#98CCF9"/>
</linearGradient>
</defs>
</svg>
