<svg width="194" height="193" viewBox="0 0 194 193" fill="none" xmlns="http://www.w3.org/2000/svg">
<path d="M193.008 96.0484C193.008 149.094 150.006 192.097 96.9595 192.097C43.9135 192.097 0.911133 149.094 0.911133 96.0484C0.911133 43.0023 43.9135 0 96.9595 0C150.006 0 193.008 43.0023 193.008 96.0484Z" fill="url(#paint0_linear)"/>
<path fill-rule="evenodd" clip-rule="evenodd" d="M123.276 33.6438C119.254 31.8377 114.043 30.2647 105.197 30.9469C96.3601 31.6284 88.0312 34.0901 79.6986 39.0679L79.8255 39.2582L79.6986 39.0679C71.3753 44.0406 64.6564 50.0098 59.5459 56.9768C54.4422 63.9351 50.6162 71.3145 48.0697 79.115C45.5227 86.917 44.6632 94.2529 45.4987 101.12C46.6004 110.175 50.1816 116.74 56.2737 120.77C62.359 124.795 70.9061 126.26 81.8769 125.209C91.3165 124.304 102.826 120.091 106.576 118.177C115.648 113.822 122.128 107.839 126.301 102.696C128.388 100.124 129.9 97.7604 130.871 95.912C131.357 94.9881 131.71 94.1899 131.931 93.5566C132.042 93.2401 132.121 92.9615 132.168 92.7269C132.213 92.4966 132.231 92.2919 132.205 92.1305C132.046 91.1314 131.869 90.141 131.663 89.2669C131.458 88.3965 131.22 87.6265 130.935 87.0761C130.792 86.8014 130.631 86.5664 130.443 86.4013C130.251 86.233 130.019 86.1274 129.752 86.1469C129.493 86.1659 129.248 86.2999 129.019 86.5107C128.791 86.7211 128.558 87.0251 128.317 87.4255C127.142 89.097 126.221 90.5207 125.377 91.8263C122.794 95.8211 120.926 98.7103 114.659 104.213C106.328 111.527 96.0748 117.484 86.7484 118.378C79.2311 119.098 73.3521 118.251 69.1354 115.443C64.9259 112.639 62.322 107.845 61.4355 100.56C60.2892 91.1416 62.1874 80.0991 66.596 70.4259C71.0022 60.7588 77.4273 53.3218 85.7343 46.7149C94.0221 40.124 101.762 37.6334 111.219 36.7273L111.199 36.5426L111.219 36.7273C114.763 36.3874 117.38 37.0388 119.105 38.2863C120.825 39.5306 121.691 41.3907 121.691 43.5392C121.691 45.5667 120.712 48.6307 118.181 51.0177C115.661 53.3952 111.583 55.1192 105.345 54.4471L105.211 54.4326L105.126 54.5326C104.514 55.2577 103.887 56.7912 103.979 58.3656C104.025 59.1586 104.255 59.971 104.77 60.6984C105.284 61.4253 106.075 62.0545 107.222 62.4943C107.856 62.7917 110.195 63.6015 113.949 62.7843C114.992 62.7099 116.498 62.2964 118.184 61.5806C119.885 60.8584 121.787 59.8213 123.608 58.4905C127.248 55.832 130.595 51.9808 131.346 47.1041C131.839 43.9035 130.83 40.9901 129.199 38.6559C127.569 36.3244 125.311 34.5576 123.276 33.6438ZM149.244 125.623L149.378 125.253L148.971 125.32C117.569 130.498 87.4625 137.549 66.25 145.477C61.7902 147.143 58.9913 149.588 57.6867 152.392C56.3813 155.197 56.5885 158.325 58.0679 161.323L58.1688 161.528L58.3873 161.437C94.3273 146.545 112.183 142.221 138.516 136.097C143.261 134.994 147.006 131.832 148.476 127.75C148.735 127.032 148.993 126.316 149.244 125.623Z" fill="url(#paint1_linear)"/>
<defs>
<linearGradient id="paint0_linear" x1="136.951" y1="0.467816" x2="72.4194" y2="60.1708" gradientUnits="userSpaceOnUse">
<stop stop-color="#BDECF4"/>
<stop offset="1" stop-color="#98CCF9"/>
</linearGradient>
<linearGradient id="paint1_linear" x1="103.04" y1="125.548" x2="103.04" y2="161.225" gradientUnits="userSpaceOnUse">
<stop stop-color="white"/>
</linearGradient>
</defs>
</svg>
