<svg width="193" height="193" viewBox="0 0 193 193" fill="none" xmlns="http://www.w3.org/2000/svg">
<path fill-rule="evenodd" clip-rule="evenodd" d="M162.473 192.097C179.05 192.097 192.488 178.658 192.488 162.082V30.0151C192.488 13.4385 179.05 0 162.473 0H30.4062C13.8294 0 0.391113 13.4385 0.391113 30.0151V162.082C0.391113 178.658 13.8294 192.097 30.4062 192.097H162.473ZM139.477 41.7839V103.148C139.477 114.398 131.967 125.903 116.946 137.665C110.937 142.395 104.129 146.774 96.5236 150.801V41.7839H139.477ZM157.886 103.148V29.5111C157.886 27.849 157.28 26.4107 156.065 25.1964C154.851 23.9818 153.412 23.374 151.75 23.374H41.2948C39.6335 23.374 38.1954 23.9818 36.9802 25.1964C35.7662 26.4107 35.1586 27.849 35.1586 29.5111V103.148C35.1586 108.644 36.229 114.093 38.3708 119.496C40.5118 124.897 43.1648 129.691 46.3286 133.878C49.4933 138.064 53.2643 142.139 57.6431 146.103C62.0205 150.066 66.0648 153.358 69.772 155.979C73.4791 158.599 77.3466 161.075 81.3733 163.409C85.4007 165.743 88.2616 167.324 89.9548 168.155C91.6489 168.985 93.0071 169.626 94.0301 170.073C94.7979 170.456 95.6286 170.649 96.5236 170.649C97.4173 170.649 98.2489 170.456 99.0156 170.073C100.039 169.626 101.397 168.985 103.091 168.155C104.785 167.324 107.646 165.743 111.672 163.409C115.699 161.075 119.566 158.599 123.273 155.979C126.98 153.358 131.025 150.065 135.402 146.103C139.782 142.139 143.553 138.064 146.717 133.878C149.88 129.691 152.533 124.897 154.675 119.496C156.816 114.093 157.886 108.644 157.886 103.148Z" fill="url(#paint0_linear)"/>
<defs>
<linearGradient id="paint0_linear" x1="96.4395" y1="0" x2="96.4395" y2="192.097" gradientUnits="userSpaceOnUse">
<stop stop-color="#8598EB"/>
<stop offset="1" stop-color="#A5C8FF"/>
</linearGradient>
</defs>
</svg>
