<svg width="28" height="46" viewBox="0 0 28 46" fill="none" xmlns="http://www.w3.org/2000/svg">
<path d="M11.8936 18.1686C12.6399 18.1686 13.4255 18.0409 14.2504 17.7856C15.0753 17.5106 15.8903 17.1473 16.6956 16.6956C17.5205 16.2242 18.2962 15.6743 19.0229 15.0458C19.7692 14.3977 20.4173 13.7005 20.9673 12.9542C21.5368 12.1882 21.9885 11.3928 22.3224 10.5679C22.6563 9.72341 22.8232 8.87889 22.8232 8.03437C22.8232 7.68085 22.7545 7.30769 22.617 6.9149C22.4992 6.5221 22.293 6.15876 21.9984 5.82488C21.7234 5.491 21.3502 5.21604 20.8789 5C20.4075 4.76432 19.8282 4.64648 19.1408 4.64648C17.8052 4.64648 16.5286 4.96072 15.311 5.5892C14.1129 6.21768 12.9935 7.07201 11.9525 8.15221C10.9116 9.23241 9.95909 10.4992 9.09493 11.9525C8.25041 13.3863 7.52373 14.9182 6.9149 16.5483C6.3257 18.1784 5.86416 19.8576 5.53028 21.5859C5.21604 23.3142 5.05892 24.9935 5.05892 26.6236C5.05892 28.4894 5.22586 30.3061 5.55974 32.0737C5.89362 33.8216 6.4239 35.3732 7.15057 36.7283C7.89689 38.0835 8.86907 39.1735 10.0671 39.9984C11.2651 40.8036 12.7381 41.2062 14.4861 41.2062C15.7627 41.2062 16.9116 41.0196 17.9329 40.6465C18.9542 40.2733 19.8282 39.8707 20.5548 39.4386C21.2815 38.9869 21.8412 38.5745 22.234 38.2013C22.6268 37.8085 22.8429 37.6023 22.8822 37.5827C23.1375 37.1506 23.4223 36.8953 23.7365 36.8167C24.0704 36.7381 24.3846 36.7774 24.6792 36.9345C24.9935 37.0917 25.2782 37.3372 25.5336 37.671C25.7889 37.9853 25.9853 38.329 26.1228 38.7021C26.2799 39.0753 26.3486 39.4484 26.329 39.8216C26.3093 40.1948 26.1817 40.4992 25.946 40.7349C25.9067 40.7741 25.7594 40.9214 25.5041 41.1768C25.2488 41.4321 24.8854 41.7463 24.4141 42.1195C23.9427 42.4926 23.3633 42.8854 22.6759 43.2979C21.9885 43.73 21.2128 44.1227 20.3486 44.4763C19.4845 44.8494 18.5221 45.1538 17.4615 45.3895C16.4206 45.6252 15.2913 45.743 14.0737 45.743C11.9133 45.743 9.97873 45.2913 8.27005 44.3879C6.56138 43.4845 5.10802 42.2079 3.90999 40.5581C2.73159 38.8887 1.82815 36.8756 1.19967 34.5188C0.571197 32.162 0.256958 29.5303 0.256958 26.6236C0.256958 24.6596 0.463177 22.6465 0.875616 20.5843C1.28805 18.5221 1.88707 16.5188 2.67267 14.5745C3.47791 12.6105 4.45008 10.7643 5.5892 9.03601C6.72832 7.28805 8.02455 5.76596 9.47791 4.46972C10.9313 3.17349 12.5319 2.15221 14.2799 1.40589C16.0278 0.639937 17.9034 0.256958 19.9067 0.256958C20.9869 0.256958 21.9984 0.423897 22.9411 0.757776C23.8838 1.09166 24.689 1.59247 25.3568 2.26023C26.0442 2.92799 26.5843 3.76269 26.9771 4.76432C27.3699 5.74632 27.5663 6.89526 27.5663 8.21113C27.5663 9.44845 27.3208 10.6563 26.8298 11.8347C26.3584 13.0131 25.7201 14.1326 24.9149 15.1931C24.1097 16.234 23.1669 17.1964 22.0867 18.0802C21.0262 18.964 19.8969 19.73 18.6989 20.3781C17.5205 21.0065 16.3224 21.4975 15.1047 21.8511C13.8871 22.2046 12.7185 22.3813 11.599 22.3813C10.8527 22.3813 10.2144 22.1555 9.68413 21.7038C9.17349 21.2324 8.91817 20.4959 8.91817 19.4943C8.91817 19.2782 8.92799 19.0622 8.94763 18.8462C8.98691 18.6105 9.03601 18.4043 9.09493 18.2275C9.15385 18.0311 9.22259 17.874 9.30115 17.7561C9.39935 17.6383 9.49755 17.5794 9.59575 17.5794C9.69395 17.5794 9.78233 17.6088 9.86089 17.6678C9.95909 17.7267 10.0769 17.7954 10.2144 17.874C10.3715 17.9525 10.5777 18.0213 10.8331 18.0802C11.0884 18.1391 11.4419 18.1686 11.8936 18.1686Z" fill="url(#paint0_linear)"/>
<defs>
<linearGradient id="paint0_linear" x1="13.9116" y1="0.256958" x2="13.9116" y2="45.743" gradientUnits="userSpaceOnUse">
<stop stop-color="#92C3EB"/>
<stop offset="1" stop-color="#B6E2D2"/>
</linearGradient>
</defs>
</svg>
