<svg width="158" height="194" viewBox="0 0 158 194" fill="none" xmlns="http://www.w3.org/2000/svg">
<mask id="path-1-outside-1" maskUnits="userSpaceOnUse" x="0" y="0" width="158" height="194" fill="black">
<rect fill="white" width="158" height="194"/>
<path d="M138.33 83.1773C138.523 88.3581 136.818 90.8756 135.276 95.3274L132.503 96.7062C130.237 101.111 132.728 99.5025 131.105 103.004C127.563 106.15 120.37 112.845 118.067 113.458C116.384 113.422 119.206 111.472 119.575 110.711C114.838 113.962 115.773 115.592 108.527 117.571L108.317 117.097C90.4539 125.503 65.639 108.848 65.965 86.1258C65.7763 87.5668 65.4224 87.2066 65.0279 87.7856C64.1058 76.0965 70.4274 64.356 81.0894 59.5547C91.5175 54.3953 103.743 56.5096 111.207 63.4768C107.107 58.1029 98.9392 52.4053 89.2659 52.9328C79.7856 53.0872 70.9142 59.1108 67.955 65.6533C63.1001 68.7091 62.534 77.4389 60.4196 79.0386C57.5697 99.9678 65.7741 109.006 79.6548 119.645C81.8335 121.116 80.268 121.341 80.5597 122.46C75.9492 120.303 71.7291 117.044 68.2552 113.053C70.0994 115.748 72.0872 118.369 74.6583 120.427C70.3074 118.959 64.4982 109.892 62.8063 109.523C70.3009 122.943 93.2094 133.058 105.212 128.038C99.6576 128.244 92.6047 128.152 86.3688 125.846C83.742 124.497 80.1844 121.708 80.8213 121.187C97.1959 127.3 114.107 125.814 128.272 114.46C131.879 111.65 135.816 106.875 136.955 106.811C135.242 109.388 137.249 108.05 135.932 110.325C139.518 104.533 134.369 107.966 139.642 100.324L141.589 103.004C140.86 98.1923 147.561 92.3552 146.879 84.7512C148.417 82.4267 148.593 87.2559 146.963 92.604C149.225 86.6705 147.561 85.7162 148.14 80.8184C148.764 82.4653 149.594 84.213 150.016 85.9521C148.541 80.2159 151.524 76.2959 152.266 72.9614C151.533 72.6397 149.991 75.4961 149.635 68.7241C149.688 65.782 150.456 67.1823 150.75 66.4575C150.175 66.1251 148.659 63.8692 147.739 59.544C148.402 58.5254 149.523 62.1794 150.432 62.3274C149.847 58.8899 148.841 56.2673 148.798 53.6276C146.139 48.0736 147.857 54.3695 145.704 51.243C142.873 42.421 148.05 49.1951 148.402 45.1894C152.686 51.3974 155.129 61.0257 156.254 65.0121C155.397 60.1508 154.014 55.4396 152.322 50.8828C153.628 51.4339 150.222 40.8835 154.018 47.8699C149.967 32.9771 136.696 19.06 124.483 12.5325C125.974 13.8985 127.858 15.614 127.185 15.8842C121.108 12.2709 122.176 11.9857 121.305 10.4589C116.362 8.44532 116.032 10.624 112.762 10.4632C103.434 5.51394 101.637 6.03931 93.0529 2.94282L93.4432 4.76984C87.2652 2.71122 86.2445 5.5461 79.569 4.77412C79.1637 4.4589 81.7091 3.62473 83.8063 3.32237C77.832 4.11151 78.1108 2.14296 72.2652 3.53896C73.7041 2.52895 75.2309 1.85776 76.7663 1C71.8964 1.29593 65.1351 3.83488 67.2216 1.52323C59.2766 5.07005 45.1644 10.0472 37.2452 17.4732L36.9964 15.8091C33.3681 20.1644 21.173 28.817 20.2016 34.4632L19.2302 34.6883C17.3452 37.8856 16.1208 41.5075 14.624 44.7949C12.1558 49.0043 11.0043 46.416 11.356 47.0765C6.49893 56.9235 4.0822 65.1966 2 71.9857C3.48392 74.2051 2.03645 85.3495 2.59614 94.268C0.160114 138.322 33.5139 181.092 69.9728 190.965C75.3167 192.88 83.2616 192.811 90.0207 193C82.0479 190.718 81.0186 191.793 73.2473 189.084C67.644 186.442 66.4174 183.43 62.446 179.984L64.0179 182.761C56.2337 180.005 59.4911 179.351 53.1565 177.346L54.8356 175.157C52.3117 174.964 48.1515 170.906 47.015 168.653L44.253 168.762C40.9378 164.675 39.1687 161.722 39.2995 159.434L38.4074 161.025C37.3974 159.29 26.2037 145.675 32.0107 148.845C30.9321 147.863 29.4975 147.243 27.9428 144.415L29.1244 143.066C26.3345 139.47 23.9821 134.861 24.1623 133.326C25.6526 135.337 26.6862 135.715 27.7112 136.06C20.654 118.553 20.2573 135.097 14.9157 118.24L16.0436 118.15C15.1794 116.84 14.6497 115.427 13.955 114.035L14.4482 109.135C9.37027 103.268 13.0286 84.1637 13.7641 73.6883C14.268 69.4296 18.0036 64.8942 20.8406 57.7813L19.1122 57.4853C22.4189 51.7212 37.9871 34.3281 45.2009 35.2202C48.6941 30.8327 44.5061 35.203 43.822 34.1008C51.4968 26.1601 53.9092 28.4911 59.0879 27.0608C64.6698 23.7477 54.2952 28.356 56.9414 25.7977C66.5976 23.3338 63.782 20.1923 76.376 18.9421C77.7055 19.6969 73.2945 20.1086 72.188 21.0886C80.2294 17.1515 97.6398 18.05 108.954 23.2716C122.071 29.4067 136.818 47.5332 137.401 64.5876L138.064 64.7655C137.729 71.5461 139.102 79.3881 136.719 86.589L138.33 83.1773"/>
</mask>
<path d="M138.33 83.1773C138.523 88.3581 136.818 90.8756 135.276 95.3274L132.503 96.7062C130.237 101.111 132.728 99.5025 131.105 103.004C127.563 106.15 120.37 112.845 118.067 113.458C116.384 113.422 119.206 111.472 119.575 110.711C114.838 113.962 115.773 115.592 108.527 117.571L108.317 117.097C90.4539 125.503 65.639 108.848 65.965 86.1258C65.7763 87.5668 65.4224 87.2066 65.0279 87.7856C64.1058 76.0965 70.4274 64.356 81.0894 59.5547C91.5175 54.3953 103.743 56.5096 111.207 63.4768C107.107 58.1029 98.9392 52.4053 89.2659 52.9328C79.7856 53.0872 70.9142 59.1108 67.955 65.6533C63.1001 68.7091 62.534 77.4389 60.4196 79.0386C57.5697 99.9678 65.7741 109.006 79.6548 119.645C81.8335 121.116 80.268 121.341 80.5597 122.46C75.9492 120.303 71.7291 117.044 68.2552 113.053C70.0994 115.748 72.0872 118.369 74.6583 120.427C70.3074 118.959 64.4982 109.892 62.8063 109.523C70.3009 122.943 93.2094 133.058 105.212 128.038C99.6576 128.244 92.6047 128.152 86.3688 125.846C83.742 124.497 80.1844 121.708 80.8213 121.187C97.1959 127.3 114.107 125.814 128.272 114.46C131.879 111.65 135.816 106.875 136.955 106.811C135.242 109.388 137.249 108.05 135.932 110.325C139.518 104.533 134.369 107.966 139.642 100.324L141.589 103.004C140.86 98.1923 147.561 92.3552 146.879 84.7512C148.417 82.4267 148.593 87.2559 146.963 92.604C149.225 86.6705 147.561 85.7162 148.14 80.8184C148.764 82.4653 149.594 84.213 150.016 85.9521C148.541 80.2159 151.524 76.2959 152.266 72.9614C151.533 72.6397 149.991 75.4961 149.635 68.7241C149.688 65.782 150.456 67.1823 150.75 66.4575C150.175 66.1251 148.659 63.8692 147.739 59.544C148.402 58.5254 149.523 62.1794 150.432 62.3274C149.847 58.8899 148.841 56.2673 148.798 53.6276C146.139 48.0736 147.857 54.3695 145.704 51.243C142.873 42.421 148.05 49.1951 148.402 45.1894C152.686 51.3974 155.129 61.0257 156.254 65.0121C155.397 60.1508 154.014 55.4396 152.322 50.8828C153.628 51.4339 150.222 40.8835 154.018 47.8699C149.967 32.9771 136.696 19.06 124.483 12.5325C125.974 13.8985 127.858 15.614 127.185 15.8842C121.108 12.2709 122.176 11.9857 121.305 10.4589C116.362 8.44532 116.032 10.624 112.762 10.4632C103.434 5.51394 101.637 6.03931 93.0529 2.94282L93.4432 4.76984C87.2652 2.71122 86.2445 5.5461 79.569 4.77412C79.1637 4.4589 81.7091 3.62473 83.8063 3.32237C77.832 4.11151 78.1108 2.14296 72.2652 3.53896C73.7041 2.52895 75.2309 1.85776 76.7663 1C71.8964 1.29593 65.1351 3.83488 67.2216 1.52323C59.2766 5.07005 45.1644 10.0472 37.2452 17.4732L36.9964 15.8091C33.3681 20.1644 21.173 28.817 20.2016 34.4632L19.2302 34.6883C17.3452 37.8856 16.1208 41.5075 14.624 44.7949C12.1558 49.0043 11.0043 46.416 11.356 47.0765C6.49893 56.9235 4.0822 65.1966 2 71.9857C3.48392 74.2051 2.03645 85.3495 2.59614 94.268C0.160114 138.322 33.5139 181.092 69.9728 190.965C75.3167 192.88 83.2616 192.811 90.0207 193C82.0479 190.718 81.0186 191.793 73.2473 189.084C67.644 186.442 66.4174 183.43 62.446 179.984L64.0179 182.761C56.2337 180.005 59.4911 179.351 53.1565 177.346L54.8356 175.157C52.3117 174.964 48.1515 170.906 47.015 168.653L44.253 168.762C40.9378 164.675 39.1687 161.722 39.2995 159.434L38.4074 161.025C37.3974 159.29 26.2037 145.675 32.0107 148.845C30.9321 147.863 29.4975 147.243 27.9428 144.415L29.1244 143.066C26.3345 139.47 23.9821 134.861 24.1623 133.326C25.6526 135.337 26.6862 135.715 27.7112 136.06C20.654 118.553 20.2573 135.097 14.9157 118.24L16.0436 118.15C15.1794 116.84 14.6497 115.427 13.955 114.035L14.4482 109.135C9.37027 103.268 13.0286 84.1637 13.7641 73.6883C14.268 69.4296 18.0036 64.8942 20.8406 57.7813L19.1122 57.4853C22.4189 51.7212 37.9871 34.3281 45.2009 35.2202C48.6941 30.8327 44.5061 35.203 43.822 34.1008C51.4968 26.1601 53.9092 28.4911 59.0879 27.0608C64.6698 23.7477 54.2952 28.356 56.9414 25.7977C66.5976 23.3338 63.782 20.1923 76.376 18.9421C77.7055 19.6969 73.2945 20.1086 72.188 21.0886C80.2294 17.1515 97.6398 18.05 108.954 23.2716C122.071 29.4067 136.818 47.5332 137.401 64.5876L138.064 64.7655C137.729 71.5461 139.102 79.3881 136.719 86.589L138.33 83.1773" fill="url(#paint0_linear)"/>
<path d="M135.276 95.3274L135.721 96.2228L136.087 96.0408L136.221 95.6546L135.276 95.3274ZM132.503 96.7062L132.058 95.8108L131.764 95.9569L131.614 96.2486L132.503 96.7062ZM131.105 103.004L131.769 103.752L131.925 103.614L132.012 103.425L131.105 103.004ZM118.067 113.458L118.046 114.458L118.187 114.461L118.325 114.425L118.067 113.458ZM119.575 110.711L120.475 111.147L122.12 107.752L119.009 109.887L119.575 110.711ZM108.527 117.571L107.613 117.976L107.961 118.762L108.79 118.536L108.527 117.571ZM108.317 117.097L109.231 116.692L108.816 115.757L107.891 116.192L108.317 117.097ZM65.965 86.1258L66.9649 86.1401L64.9734 85.996L65.965 86.1258ZM65.0279 87.7856L64.031 87.8642L64.2544 90.6963L65.8542 88.3487L65.0279 87.7856ZM81.0894 59.5547L81.5 60.4665L81.5165 60.459L81.5328 60.451L81.0894 59.5547ZM111.207 63.4768L110.525 64.2078L112.002 62.8702L111.207 63.4768ZM89.2659 52.9328L89.2822 53.9327L89.3013 53.9324L89.3204 53.9313L89.2659 52.9328ZM67.955 65.6533L68.4877 66.4996L68.7422 66.3394L68.8661 66.0654L67.955 65.6533ZM60.4196 79.0386L59.8162 78.2411L59.4848 78.4919L59.4287 78.9037L60.4196 79.0386ZM79.6548 119.645L79.0465 120.438L79.0703 120.457L79.0952 120.474L79.6548 119.645ZM80.5597 122.46L80.1359 123.366L82.0641 124.268L81.5274 122.208L80.5597 122.46ZM68.2552 113.053L69.0094 112.396L67.4299 113.618L68.2552 113.053ZM74.6583 120.427L74.3385 121.375L75.2833 119.647L74.6583 120.427ZM62.8063 109.523L63.0193 108.546L60.8513 108.074L61.9332 110.011L62.8063 109.523ZM105.212 128.038L105.597 128.96L105.175 127.039L105.212 128.038ZM86.3688 125.846L85.9121 126.736L85.9656 126.763L86.0221 126.784L86.3688 125.846ZM80.8213 121.187L81.1711 120.25L80.6328 120.049L80.1881 120.413L80.8213 121.187ZM128.272 114.46L127.658 113.671L127.647 113.679L128.272 114.46ZM136.955 106.811L137.788 107.364L138.894 105.699L136.899 105.812L136.955 106.811ZM135.932 110.325L135.067 109.824L136.782 110.852L135.932 110.325ZM139.642 100.324L140.451 99.7361L139.621 98.5934L138.819 99.7559L139.642 100.324ZM141.589 103.004L140.78 103.592L142.578 102.854L141.589 103.004ZM146.879 84.7512L146.045 84.1996L145.852 84.4917L145.883 84.8406L146.879 84.7512ZM146.963 92.604L146.006 92.3125L147.897 92.9603L146.963 92.604ZM148.14 80.8184L149.075 80.4641L147.147 80.701L148.14 80.8184ZM150.016 85.9521L149.048 86.2012L150.988 85.7161L150.016 85.9521ZM152.266 72.9614L153.242 73.1786L153.421 72.3759L152.668 72.0456L152.266 72.9614ZM149.635 68.7241L148.635 68.7059L148.634 68.7412L148.636 68.7766L149.635 68.7241ZM150.75 66.4575L151.677 66.8331L152.003 66.0272L151.25 65.5918L150.75 66.4575ZM147.739 59.544L146.901 58.9987L146.675 59.3463L146.761 59.752L147.739 59.544ZM150.432 62.3274L150.272 63.3144L151.653 63.5392L151.418 62.1595L150.432 62.3274ZM148.798 53.6276L149.798 53.6113L149.795 53.3929L149.7 53.1958L148.798 53.6276ZM145.704 51.243L144.752 51.5485L144.797 51.6888L144.88 51.8102L145.704 51.243ZM148.402 45.1894L149.225 44.6214L147.648 42.3372L147.406 45.102L148.402 45.1894ZM156.254 65.0121L155.292 65.2839L157.239 64.8384L156.254 65.0121ZM152.322 50.8828L152.71 49.9614L150.579 49.0619L151.384 51.2308L152.322 50.8828ZM154.018 47.8699L153.139 48.3473L154.983 47.6074L154.018 47.8699ZM124.483 12.5325L124.955 11.6506L123.808 13.2697L124.483 12.5325ZM127.185 15.8842L126.674 16.7437L127.099 16.9963L127.558 16.8123L127.185 15.8842ZM121.305 10.4589L122.174 9.96355L122.003 9.66323L121.682 9.5328L121.305 10.4589ZM112.762 10.4632L112.293 11.3466L112.49 11.451L112.713 11.462L112.762 10.4632ZM93.0529 2.94282L93.3922 2.00215L91.6989 1.39132L92.075 3.15172L93.0529 2.94282ZM93.4432 4.76984L93.1271 5.71855L94.7865 6.27152L94.4211 4.56093L93.4432 4.76984ZM79.569 4.77412L78.955 5.56348L79.176 5.73534L79.4541 5.7675L79.569 4.77412ZM83.8063 3.32237L83.949 4.31214L83.6753 2.33098L83.8063 3.32237ZM72.2652 3.53896L71.6907 2.72047L72.4975 4.51161L72.2652 3.53896ZM76.7663 1L77.254 1.873L76.7056 0.00184117L76.7663 1ZM67.2216 1.52323L67.9639 2.19326L66.8139 0.610091L67.2216 1.52323ZM37.2452 17.4732L36.2562 17.621L36.5381 19.5071L37.9292 18.2027L37.2452 17.4732ZM36.9964 15.8091L37.9854 15.6613L37.6557 13.4555L36.2281 15.1691L36.9964 15.8091ZM20.2016 34.4632L20.4274 35.4374L21.0745 35.2874L21.1871 34.6327L20.2016 34.4632ZM19.2302 34.6883L19.0044 33.7142L18.5865 33.811L18.3687 34.1805L19.2302 34.6883ZM14.624 44.7949L15.4867 45.3007L15.5127 45.2562L15.5341 45.2092L14.624 44.7949ZM11.356 47.0765L12.2528 47.5188L12.4796 47.059L12.2386 46.6065L11.356 47.0765ZM2 71.9857L1.04395 71.6925L0.904671 72.1466L1.16869 72.5415L2 71.9857ZM2.59614 94.268L3.59461 94.3233L3.59787 94.2643L3.59418 94.2054L2.59614 94.268ZM69.9728 190.965L70.3102 190.024L70.2727 190.01L70.2342 190L69.9728 190.965ZM90.0207 193L89.9928 194L90.2959 192.039L90.0207 193ZM73.2473 189.084L72.8209 189.989L72.8685 190.011L72.9182 190.029L73.2473 189.084ZM62.446 179.984L63.1014 179.228L61.5758 180.476L62.446 179.984ZM64.0179 182.761L63.6842 183.703L66.2058 184.596L64.8881 182.268L64.0179 182.761ZM53.1565 177.346L52.363 176.737L51.4952 177.869L52.8548 178.299L53.1565 177.346ZM54.8356 175.157L55.6291 175.765L56.7525 174.3L54.9118 174.159L54.8356 175.157ZM47.015 168.653L47.9079 168.202L47.6182 167.628L46.9754 167.653L47.015 168.653ZM44.253 168.762L43.4764 169.392L43.792 169.781L44.2926 169.761L44.253 168.762ZM39.2995 159.434L40.2979 159.491L38.4272 158.945L39.2995 159.434ZM38.4074 161.025L37.5432 161.528L38.4238 163.041L39.2797 161.514L38.4074 161.025ZM32.0107 148.845L31.5316 149.723L32.684 148.105L32.0107 148.845ZM27.9428 144.415L27.1906 143.756L26.7291 144.282L27.0665 144.896L27.9428 144.415ZM29.1244 143.066L29.8766 143.725L30.42 143.104L29.9145 142.453L29.1244 143.066ZM24.1623 133.326L24.9657 132.731L23.4632 130.703L23.1691 133.209L24.1623 133.326ZM27.7112 136.06L27.392 137.008L29.451 137.701L28.6387 135.686L27.7112 136.06ZM14.9157 118.24L14.8361 117.243L13.5825 117.343L13.9624 118.542L14.9157 118.24ZM16.0436 118.15L16.1232 119.147L17.8102 119.012L16.8784 117.6L16.0436 118.15ZM13.955 114.035L12.96 113.935L12.931 114.223L13.0603 114.482L13.955 114.035ZM14.4482 109.135L15.4432 109.235L15.4863 108.806L15.2043 108.481L14.4482 109.135ZM13.7641 73.6883L12.771 73.5708L12.7682 73.5945L12.7666 73.6183L13.7641 73.6883ZM20.8406 57.7813L21.7694 58.1517L22.2272 57.0041L21.0094 56.7956L20.8406 57.7813ZM19.1122 57.4853L18.2448 56.9877L17.5325 58.2294L18.9435 58.471L19.1122 57.4853ZM45.2009 35.2202L45.0781 36.2126L45.6342 36.2814L45.9832 35.843L45.2009 35.2202ZM43.822 34.1008L43.103 33.4058L42.5615 33.9661L42.9723 34.6281L43.822 34.1008ZM59.0879 27.0608L59.3541 28.0247L59.4832 27.989L59.5983 27.9207L59.0879 27.0608ZM56.9414 25.7977L56.6941 24.8288L56.4371 24.8944L56.2463 25.0788L56.9414 25.7977ZM76.376 18.9421L76.8697 18.0725L76.5934 17.9156L76.2772 17.947L76.376 18.9421ZM72.188 21.0886L71.525 20.34L72.6277 21.9868L72.188 21.0886ZM108.954 23.2716L109.377 22.3658L109.373 22.3637L108.954 23.2716ZM137.401 64.5876L136.402 64.6217L136.427 65.3613L137.142 65.5533L137.401 64.5876ZM138.064 64.7655L139.062 64.8148L139.102 64.0091L138.323 63.7998L138.064 64.7655ZM136.719 86.589L135.77 86.2749L137.623 87.0159L136.719 86.589ZM137.33 83.2145C137.514 88.147 135.938 90.3605 134.331 95.0001L136.221 95.6546C137.698 91.3907 139.531 88.5692 139.329 83.14L137.33 83.2145ZM134.831 94.432L132.058 95.8108L132.948 97.6016L135.721 96.2228L134.831 94.432ZM131.614 96.2486C131.031 97.3821 130.716 98.199 130.578 98.8494C130.431 99.5495 130.496 100.023 130.589 100.421C130.672 100.779 130.709 100.867 130.692 101.089C130.675 101.328 130.58 101.758 130.198 102.584L132.012 103.425C132.441 102.499 132.644 101.818 132.687 101.235C132.731 100.637 132.59 100.195 132.537 99.9667C132.493 99.7784 132.462 99.6092 132.535 99.2626C132.619 98.8664 132.842 98.2326 133.392 97.1638L131.614 96.2486ZM130.441 102.257C128.652 103.845 125.992 106.284 123.475 108.418C122.218 109.484 121.014 110.457 119.991 111.199C119.479 111.569 119.024 111.873 118.639 112.099C118.239 112.332 117.967 112.45 117.81 112.492L118.325 114.425C118.743 114.313 119.199 114.088 119.648 113.825C120.11 113.555 120.623 113.211 121.164 112.818C122.248 112.033 123.496 111.022 124.768 109.944C127.308 107.791 130.016 105.309 131.769 103.752L130.441 102.257ZM118.089 112.458C117.931 112.455 118.04 112.425 118.207 112.542C118.313 112.616 118.424 112.738 118.488 112.909C118.547 113.071 118.54 113.21 118.527 113.287C118.506 113.409 118.463 113.439 118.529 113.343C118.581 113.269 118.665 113.166 118.787 113.034C119.04 112.76 119.333 112.485 119.654 112.163C119.804 112.014 119.958 111.854 120.091 111.7C120.213 111.559 120.369 111.365 120.475 111.147L118.675 110.275C118.688 110.248 118.675 110.281 118.579 110.392C118.493 110.491 118.38 110.609 118.239 110.75C117.981 111.009 117.604 111.366 117.316 111.679C117.167 111.84 117.013 112.02 116.885 112.204C116.772 112.368 116.609 112.633 116.555 112.955C116.525 113.132 116.522 113.361 116.612 113.603C116.705 113.855 116.871 114.047 117.06 114.18C117.393 114.413 117.782 114.452 118.046 114.458L118.089 112.458ZM119.009 109.887C117.776 110.733 116.908 111.477 116.189 112.143C115.445 112.833 114.959 113.339 114.349 113.852C113.229 114.792 111.797 115.641 108.263 116.606L108.79 118.536C112.502 117.522 114.226 116.567 115.635 115.384C116.288 114.835 116.91 114.202 117.549 113.61C118.214 112.994 119.005 112.315 120.141 111.536L119.009 109.887ZM109.441 117.166L109.231 116.692L107.403 117.503L107.613 117.976L109.441 117.166ZM107.891 116.192C99.3681 120.203 89.0827 118.272 80.8985 112.469C72.726 106.674 66.8074 97.1201 66.9649 86.1401L64.9651 86.1115C64.7966 97.8535 71.1225 107.989 79.7416 114.1C88.349 120.204 99.4024 122.397 108.742 118.002L107.891 116.192ZM64.9734 85.996C64.8862 86.6618 64.7856 86.6533 64.8642 86.5742C64.8722 86.5661 64.873 86.5672 64.8479 86.586C64.8338 86.5966 64.8197 86.6067 64.7939 86.6255C64.7709 86.6423 64.7396 86.6651 64.7062 86.6907C64.5549 86.8066 64.3756 86.9669 64.2015 87.2224L65.8542 88.3487C65.8774 88.3147 65.8903 88.303 65.9223 88.2785C65.986 88.2297 65.9444 88.2637 66.0481 88.1859C66.1096 88.1397 66.1944 88.073 66.2831 87.9837C66.6844 87.5797 66.855 87.0308 66.9565 86.2556L64.9734 85.996ZM66.0248 87.7069C65.1328 76.399 71.258 65.0787 81.5 60.4665L80.6787 58.6429C69.5969 63.6333 63.0788 75.794 64.031 87.8642L66.0248 87.7069ZM81.5328 60.451C91.5939 55.4732 103.37 57.5293 110.525 64.2078L111.89 62.7457C104.116 55.49 91.4411 53.3174 80.6459 58.6584L81.5328 60.451ZM112.002 62.8702C107.762 57.3123 99.3038 51.3839 89.2115 51.9343L89.3204 53.9313C98.5747 53.4267 106.453 58.8935 110.412 64.0833L112.002 62.8702ZM89.2496 51.9329C84.3072 52.0134 79.5447 53.6215 75.6375 56.048C71.7386 58.4693 68.6235 61.7488 67.0438 65.2412L68.8661 66.0654C70.2457 63.0154 73.0459 60.0117 76.6926 57.747C80.3309 55.4875 84.7443 54.0066 89.2822 53.9327L89.2496 51.9329ZM67.4223 64.807C64.6776 66.5346 63.23 69.7925 62.2206 72.548C61.6838 74.0133 61.3043 75.2386 60.8748 76.3381C60.6691 76.8647 60.4752 77.2972 60.2831 77.6333C60.086 77.9781 59.9263 78.1579 59.8162 78.2411L61.0229 79.8361C61.4415 79.5194 61.7619 79.0764 62.0195 78.6257C62.2821 78.1662 62.5172 77.6304 62.7377 77.0659C63.1607 75.9831 63.6227 74.535 64.0986 73.236C65.1145 70.4627 66.3775 67.8278 68.4877 66.4996L67.4223 64.807ZM59.4287 78.9037C57.9823 89.5258 59.3296 97.2465 62.888 103.685C66.4254 110.084 72.0933 115.109 79.0465 120.438L80.2631 118.851C73.3356 113.542 67.9609 108.728 64.6384 102.717C61.3369 96.7438 60.0069 89.4807 61.4104 79.1735L59.4287 78.9037ZM79.0952 120.474C79.6052 120.818 79.7874 121.021 79.8431 121.104C79.8555 121.122 79.8216 121.046 79.8377 120.972C79.8381 120.97 79.8369 120.976 79.8303 120.995C79.8235 121.015 79.8135 121.04 79.7971 121.08C79.7721 121.139 79.7075 121.285 79.6595 121.42C79.5447 121.742 79.453 122.179 79.592 122.712L81.5274 122.208C81.5205 122.182 81.5151 122.171 81.5438 122.09C81.5675 122.024 81.5888 121.979 81.6422 121.851C81.6858 121.747 81.7511 121.585 81.7921 121.397C81.8907 120.943 81.8214 120.464 81.5055 119.992C81.2328 119.584 80.7936 119.207 80.2143 118.816L79.0952 120.474ZM80.9835 121.555C76.509 119.461 72.399 116.29 69.0094 112.396L67.5009 113.709C71.0592 117.797 75.3895 121.145 80.1359 123.366L80.9835 121.555ZM67.4299 113.618C69.2859 116.33 71.3417 119.053 74.0333 121.208L75.2833 119.647C72.8327 117.685 70.9128 115.166 69.0805 112.488L67.4299 113.618ZM74.9782 119.48C74.0884 119.18 73.033 118.45 71.877 117.412C70.7382 116.389 69.582 115.142 68.4843 113.9C67.4085 112.684 66.3517 111.429 65.4961 110.499C65.0634 110.029 64.6507 109.606 64.2787 109.283C63.9503 108.997 63.5046 108.652 63.0193 108.546L62.5933 110.5C62.5309 110.487 62.6369 110.505 62.967 110.792C63.2535 111.041 63.6063 111.399 64.024 111.853C64.8695 112.772 65.8542 113.945 66.9861 115.225C68.096 116.48 69.3137 117.798 70.5406 118.9C71.7504 119.986 73.0528 120.941 74.3385 121.375L74.9782 119.48ZM61.9332 110.011C65.8211 116.972 73.6289 122.978 81.9172 126.611C90.1749 130.231 99.2206 131.628 105.597 128.96L104.826 127.115C99.2004 129.468 90.7908 128.317 82.7201 124.78C74.6799 121.255 67.2861 115.494 63.6794 109.036L61.9332 110.011ZM105.175 127.039C99.6385 127.244 92.7549 127.141 86.7156 124.908L86.0221 126.784C92.4545 129.162 99.6768 129.244 105.249 129.037L105.175 127.039ZM86.8256 124.957C85.5811 124.318 84.0936 123.323 83.0044 122.432C82.4536 121.981 82.0501 121.594 81.8306 121.32C81.7121 121.172 81.7062 121.129 81.721 121.175C81.7408 121.236 81.8301 121.653 81.4545 121.961L80.1881 120.413C79.6533 120.85 79.7145 121.468 79.8172 121.787C79.9149 122.091 80.1029 122.362 80.2694 122.57C80.6199 123.008 81.1506 123.499 81.7379 123.98C82.925 124.951 84.5297 126.026 85.9121 126.736L86.8256 124.957ZM80.4715 122.123C97.1284 128.342 114.42 126.845 128.898 115.24L127.647 113.679C113.793 124.784 97.2633 126.258 81.1711 120.25L80.4715 122.123ZM128.887 115.249C130.747 113.8 132.682 111.853 134.241 110.318C135.034 109.538 135.721 108.872 136.275 108.398C136.553 108.16 136.773 107.992 136.939 107.886C137.142 107.758 137.142 107.802 137.011 107.809L136.899 105.812C136.483 105.836 136.111 106.043 135.866 106.199C135.585 106.377 135.283 106.615 134.975 106.878C134.359 107.405 133.622 108.121 132.838 108.893C131.242 110.465 129.404 112.31 127.658 113.671L128.887 115.249ZM136.122 106.257C135.682 106.919 135.409 107.431 135.292 107.867C135.228 108.104 135.204 108.34 135.233 108.578C135.262 108.814 135.338 108.993 135.384 109.093C135.462 109.266 135.404 109.152 135.412 109.078C135.412 109.076 135.407 109.127 135.355 109.255C135.304 109.383 135.216 109.566 135.067 109.824L136.798 110.826C137.144 110.227 137.355 109.733 137.401 109.279C137.456 108.736 137.251 108.369 137.206 108.269C137.19 108.234 137.21 108.272 137.218 108.333C137.226 108.396 137.213 108.423 137.223 108.387C137.252 108.279 137.371 107.991 137.788 107.364L136.122 106.257ZM136.782 110.852C137.698 109.373 138.132 108.368 138.269 107.561C138.414 106.706 138.197 106.106 138.131 105.804C138.082 105.579 138.032 105.306 138.279 104.646C138.549 103.921 139.159 102.784 140.465 100.892L138.819 99.7559C137.488 101.685 136.764 102.985 136.405 103.946C136.022 104.973 136.047 105.637 136.177 106.232C136.291 106.752 136.36 106.857 136.297 107.226C136.226 107.644 135.959 108.382 135.082 109.799L136.782 110.852ZM138.833 100.912L140.78 103.592L142.398 102.417L140.451 99.7361L138.833 100.912ZM142.578 102.854C142.433 101.902 142.647 100.828 143.138 99.5496C143.63 98.2652 144.345 96.9108 145.112 95.3704C146.61 92.3606 148.244 88.7722 147.875 84.6619L145.883 84.8406C146.197 88.3343 144.821 91.4664 143.321 94.4791C142.589 95.9499 141.808 97.4323 141.27 98.8333C140.73 100.241 140.38 101.7 140.6 103.154L142.578 102.854ZM147.713 85.3029C147.882 85.0474 147.941 85.0417 147.865 85.0827C147.807 85.1134 147.668 85.1707 147.475 85.1469C147.274 85.1222 147.134 85.0243 147.059 84.9489C146.954 84.8425 146.986 84.7955 147.033 85.0147C147.072 85.1937 147.102 85.4611 147.109 85.8208C147.139 87.2723 146.8 89.7085 146.006 92.3125L147.919 92.8955C148.756 90.1514 149.144 87.4989 149.109 85.7799C149.1 85.3471 149.064 84.9417 148.989 84.5937C148.922 84.2861 148.793 83.8579 148.481 83.5421C148.303 83.362 148.047 83.2024 147.72 83.162C147.401 83.1226 147.123 83.2105 146.918 83.3211C146.544 83.522 146.261 83.8739 146.045 84.1996L147.713 85.3029ZM147.897 92.9603C149.073 89.876 149.248 88.0202 149.182 86.2846C149.116 84.5695 148.856 83.2817 149.133 80.9358L147.147 80.701C146.845 83.2529 147.127 84.8912 147.183 86.361C147.239 87.8104 147.115 89.3984 146.028 92.2477L147.897 92.9603ZM147.205 81.1728C147.871 82.9297 148.641 84.5278 149.045 86.1882L150.988 85.7161C150.547 83.8982 149.658 82.0009 149.075 80.4641L147.205 81.1728ZM150.985 85.703C150.307 83.0687 150.646 80.8515 151.265 78.8517C151.579 77.8375 151.959 76.8961 152.326 75.9544C152.685 75.0334 153.038 74.0967 153.242 73.1786L151.29 72.7442C151.123 73.4934 150.825 74.2971 150.462 75.2281C150.107 76.1386 149.695 77.1609 149.354 78.2605C148.665 80.4884 148.25 83.0993 149.048 86.2012L150.985 85.703ZM152.668 72.0456C152.254 71.8643 151.87 71.9465 151.668 72.0073C151.471 72.0669 151.268 72.1656 151.177 72.2078C150.857 72.355 150.951 72.2555 151.123 72.3122C151.356 72.3892 151.238 72.536 151.051 71.9115C150.88 71.3375 150.721 70.3412 150.633 68.6716L148.636 68.7766C148.726 70.493 148.894 71.6791 149.135 72.4842C149.36 73.2388 149.74 73.9614 150.495 74.211C151.188 74.4404 151.827 74.1103 152.014 74.0241C152.088 73.9898 152.133 73.9688 152.18 73.9484C152.201 73.9394 152.216 73.933 152.228 73.9284C152.234 73.9262 152.238 73.9247 152.241 73.9236C152.244 73.9226 152.246 73.9221 152.246 73.9221C152.246 73.9222 152.244 73.9227 152.24 73.9236C152.237 73.9245 152.231 73.9258 152.223 73.9273C152.208 73.93 152.183 73.9337 152.15 73.9347C152.081 73.9369 151.978 73.9271 151.864 73.8772L152.668 72.0456ZM150.635 68.7423C150.648 68.032 150.704 67.6724 150.752 67.5059C150.796 67.3497 150.777 67.5494 150.52 67.6677C150.424 67.7118 150.351 67.7151 150.366 67.7139C150.38 67.7127 150.383 67.7129 150.431 67.71C150.467 67.7079 150.531 67.7038 150.603 67.6932C150.756 67.671 150.989 67.6147 151.219 67.443C151.449 67.271 151.59 67.0474 151.677 66.8331L149.823 66.0818C149.836 66.0488 149.889 65.9399 150.021 65.8416C150.152 65.7435 150.277 65.7197 150.315 65.7141C150.33 65.7119 150.336 65.7121 150.312 65.7135C150.302 65.7142 150.245 65.717 150.198 65.7209C150.093 65.7298 149.898 65.7526 149.684 65.8508C149.192 66.0775 148.952 66.524 148.829 66.9554C148.708 67.3765 148.649 67.9451 148.635 68.7059L150.635 68.7423ZM151.25 65.5918C151.297 65.6188 151.196 65.5608 150.975 65.2565C150.778 64.9859 150.534 64.5885 150.271 64.0554C149.745 62.9911 149.162 61.4258 148.717 59.3359L146.761 59.752C147.236 61.9874 147.871 63.7126 148.477 64.9407C148.78 65.5537 149.08 66.053 149.358 66.434C149.611 66.7813 149.915 67.1299 150.249 67.3231L151.25 65.5918ZM148.577 60.0893C148.555 60.1241 148.363 60.3755 147.979 60.3646C147.696 60.3566 147.567 60.2003 147.623 60.2538C147.716 60.3415 147.877 60.5767 148.133 61.008C148.351 61.3765 148.63 61.8718 148.902 62.2605C149.041 62.4586 149.207 62.6721 149.397 62.8514C149.573 63.0169 149.868 63.2487 150.272 63.3144L150.593 61.3404C150.769 61.3691 150.831 61.4543 150.769 61.3956C150.721 61.3508 150.645 61.2625 150.54 61.1131C150.326 60.8069 150.112 60.4246 149.854 59.9884C149.632 59.6151 149.332 59.1184 149 58.8029C148.844 58.6548 148.511 58.3789 148.036 58.3654C147.461 58.3491 147.089 58.7092 146.901 58.9987L148.577 60.0893ZM151.418 62.1595C151.119 60.4013 150.708 58.8347 150.386 57.4513C150.058 56.0447 149.818 54.8174 149.798 53.6113L147.799 53.6438C147.822 55.0775 148.106 56.4814 148.438 57.9054C148.775 59.3525 149.161 60.816 149.447 62.4953L151.418 62.1595ZM149.7 53.1958C149.363 52.4907 149.086 51.9553 148.856 51.5575C148.637 51.18 148.421 50.856 148.193 50.6345C148.08 50.5248 147.893 50.3686 147.631 50.2877C147.316 50.1905 146.972 50.2281 146.681 50.4136C146.441 50.5664 146.314 50.7722 146.254 50.8797C146.189 50.9986 146.145 51.1162 146.118 51.193C146.039 51.4169 146.046 51.4272 146.01 51.5106C145.965 51.6149 146.046 51.3302 146.393 51.2092C146.822 51.06 147.082 51.3271 146.989 51.2495C146.929 51.1992 146.781 51.0444 146.528 50.6759L144.88 51.8102C145.165 52.2233 145.434 52.5556 145.703 52.7812C145.939 52.9794 146.439 53.3109 147.051 53.098C147.582 52.9132 147.789 52.4364 147.846 52.3035C147.913 52.1497 147.998 51.8776 148.005 51.857C148.021 51.8116 148.022 51.8164 148.008 51.8424C147.999 51.8571 147.929 51.9899 147.756 52.0999C147.532 52.2427 147.265 52.2678 147.041 52.1987C146.95 52.1705 146.886 52.133 146.852 52.1101C146.818 52.0869 146.8 52.0696 146.799 52.0687C146.797 52.0671 146.805 52.0745 146.822 52.0957C146.839 52.1164 146.863 52.1466 146.892 52.1886C146.952 52.2735 147.029 52.3938 147.125 52.56C147.318 52.8932 147.569 53.376 147.896 54.0594L149.7 53.1958ZM146.656 50.9375C146.309 49.855 146.093 49.0376 145.975 48.4249C145.854 47.7978 145.848 47.4494 145.872 47.2762C145.893 47.1263 145.91 47.2583 145.741 47.3612C145.629 47.4294 145.578 47.3886 145.768 47.406C145.964 47.4238 146.136 47.4662 146.479 47.5247C146.761 47.573 147.161 47.6304 147.567 47.5757C148.012 47.5157 148.491 47.3175 148.854 46.8566C149.191 46.4288 149.345 45.8786 149.398 45.2769L147.406 45.102C147.37 45.5017 147.285 45.6161 147.283 45.6189C147.283 45.6191 147.284 45.6179 147.286 45.6158C147.288 45.6137 147.291 45.6111 147.294 45.6081C147.302 45.6018 147.31 45.5965 147.318 45.5926C147.333 45.5847 147.332 45.5893 147.3 45.5936C147.216 45.6049 147.075 45.5975 146.816 45.5533C146.617 45.5193 146.248 45.4414 145.951 45.4143C145.649 45.3866 145.156 45.376 144.701 45.6527C144.189 45.9642 143.963 46.4829 143.891 47.0012C143.823 47.4961 143.875 48.0971 144.011 48.8038C144.15 49.5248 144.392 50.4256 144.752 51.5485L146.656 50.9375ZM147.579 45.7574C151.746 51.796 154.146 61.2272 155.292 65.2839L157.217 64.7404C156.111 60.8243 153.626 50.9988 149.225 44.6214L147.579 45.7574ZM157.239 64.8384C156.369 59.9053 154.967 55.1349 153.259 50.5347L151.384 51.2308C153.06 55.7442 154.425 60.3964 155.27 65.1859L157.239 64.8384ZM151.933 51.8041C152.083 51.8673 152.294 51.9244 152.542 51.8966C152.806 51.8669 153.033 51.7497 153.203 51.5883C153.493 51.3125 153.57 50.958 153.599 50.7992C153.664 50.4293 153.637 49.9674 153.599 49.5674C153.523 48.7638 153.323 47.591 153.228 46.8381C153.175 46.4159 153.151 46.1117 153.157 45.931C153.16 45.8271 153.172 45.8582 153.138 45.9467C153.101 46.0416 152.877 46.4754 152.327 46.4707C151.978 46.4678 151.807 46.2625 151.881 46.331C151.905 46.3542 151.975 46.4296 152.095 46.5979C152.332 46.9281 152.67 47.4841 153.139 48.3473L154.897 47.3925C154.417 46.5091 154.031 45.8665 153.722 45.4343C153.57 45.2214 153.412 45.0246 153.247 44.8707C153.131 44.7621 152.81 44.4747 152.344 44.4708C151.676 44.4652 151.368 44.979 151.274 45.2211C151.182 45.4568 151.163 45.7021 151.158 45.8656C151.146 46.2196 151.19 46.6626 151.244 47.0881C151.363 48.0306 151.532 48.9554 151.608 49.7567C151.647 50.1591 151.642 50.3765 151.629 50.4508C151.618 50.5141 151.631 50.3229 151.826 50.1377C151.948 50.0216 152.119 49.9315 152.319 49.909C152.503 49.8884 152.642 49.9327 152.71 49.9614L151.933 51.8041ZM154.983 47.6074C150.844 32.3922 137.352 18.2772 124.955 11.6506L124.012 13.4144C136.039 19.8429 149.09 33.5621 153.053 48.1324L154.983 47.6074ZM123.808 13.2697C124.566 13.9653 125.369 14.6996 125.904 15.2904C126.185 15.6004 126.317 15.7912 126.354 15.8701C126.379 15.9211 126.304 15.8009 126.332 15.5874C126.375 15.2632 126.603 15.0403 126.813 14.9561L127.558 16.8123C127.936 16.6605 128.252 16.3249 128.315 15.8499C128.363 15.4855 128.24 15.1762 128.159 15.0071C127.986 14.6457 127.68 14.2716 127.387 13.9482C126.775 13.2722 125.89 12.4657 125.159 11.7953L123.808 13.2697ZM127.696 15.0247C124.648 13.2122 123.536 12.3131 123.057 11.7447C122.848 11.4962 122.759 11.3094 122.667 11.0763C122.572 10.8343 122.438 10.4267 122.174 9.96355L120.437 10.9542C120.608 11.2545 120.667 11.4551 120.806 11.8089C120.949 12.1716 121.136 12.5682 121.528 13.0335C122.252 13.8927 123.645 14.943 126.674 16.7437L127.696 15.0247ZM121.682 9.5328C119.059 8.46387 117.523 8.46185 116.167 8.79521C114.823 9.12595 114.253 9.5353 112.811 9.46439L112.713 11.462C114.541 11.5519 115.771 10.9523 116.645 10.7373C117.509 10.5249 118.609 10.4403 120.928 11.385L121.682 9.5328ZM113.231 9.57982C103.827 4.59071 101.799 5.03465 93.3922 2.00215L92.7136 3.88348C101.475 7.04398 103.04 6.43716 112.293 11.3466L113.231 9.57982ZM92.075 3.15172L92.4652 4.97874L94.4211 4.56093L94.0308 2.73391L92.075 3.15172ZM93.7593 3.82112C90.4676 2.72425 88.4874 2.92938 86.5054 3.30718C84.6224 3.6661 82.8462 4.14645 79.6839 3.78074L79.4541 5.7675C82.9673 6.17378 85.0392 5.62267 86.8799 5.27181C88.6216 4.93981 90.2408 4.75681 93.1271 5.71855L93.7593 3.82112ZM80.1829 3.98477C80.3002 4.07601 80.4773 4.26972 80.5181 4.57807C80.5569 4.87118 80.4475 5.08603 80.3865 5.17962C80.2874 5.33171 80.1869 5.3694 80.2756 5.31676C80.3967 5.24484 80.6613 5.12832 81.0686 4.99105C81.8587 4.72476 82.9602 4.45469 83.949 4.31214L83.6636 2.33261C82.5552 2.49241 81.3354 2.79061 80.4298 3.09579C79.9893 3.24426 79.5624 3.4143 79.2548 3.59688C79.129 3.6715 78.8798 3.82844 78.7109 4.08766C78.615 4.23482 78.4904 4.50021 78.5354 4.84032C78.5824 5.19567 78.7871 5.43284 78.955 5.56348L80.1829 3.98477ZM83.6753 2.33098C80.834 2.70629 79.5251 2.43025 78.1412 2.21498C76.6229 1.9788 75.0987 1.83416 72.0329 2.56631L72.4975 4.51161C75.2773 3.84776 76.5365 3.9894 77.8338 4.19121C79.2655 4.41392 80.8043 4.72759 83.9372 4.31376L83.6753 2.33098ZM72.8397 4.35744C74.2269 3.38372 75.6074 2.79286 77.254 1.873L76.2786 0.126995C74.8543 0.922652 73.1812 1.67418 71.6907 2.72047L72.8397 4.35744ZM76.7056 0.00184117C74.1874 0.154861 71.153 0.89 69.2007 1.25664C68.6991 1.35084 68.274 1.42049 67.9331 1.45737C67.5665 1.49702 67.3912 1.48707 67.342 1.47734C67.3171 1.47241 67.4319 1.48715 67.5663 1.60391C67.7456 1.75978 67.84 1.9922 67.8323 2.21157C67.8266 2.37369 67.7682 2.4513 67.7927 2.4097C67.8102 2.38007 67.8587 2.30987 67.9639 2.19326L66.4793 0.853202C66.3237 1.02555 66.1805 1.20641 66.0702 1.39341C65.9669 1.56844 65.8445 1.82824 65.8335 2.1416C65.8206 2.5122 65.9683 2.86487 66.2544 3.1135C66.4954 3.32303 66.7704 3.40301 66.9538 3.4393C67.3211 3.51199 67.7549 3.4883 68.1482 3.44577C68.567 3.40046 69.0524 3.31946 69.5698 3.22228C71.694 2.82337 74.4752 2.14106 76.8269 1.99816L76.7056 0.00184117ZM66.8139 0.610091C62.9287 2.34457 57.2978 4.52814 51.7949 7.14012C46.2598 9.76741 40.6372 12.9216 36.5612 16.7437L37.9292 18.2027C41.7724 14.5988 47.1655 11.5514 52.6525 8.94691C58.1719 6.32711 63.5696 4.24871 67.6292 2.43637L66.8139 0.610091ZM38.2342 17.3253L37.9854 15.6613L36.0074 15.957L36.2562 17.621L38.2342 17.3253ZM36.2281 15.1691C35.3731 16.1954 33.983 17.5074 32.3067 19.0261C30.6533 20.5241 28.7379 22.209 26.917 23.9241C25.0942 25.6411 23.3249 27.4262 21.944 29.1548C20.5838 30.8576 19.5036 32.6222 19.2161 34.2936L21.1871 34.6327C21.3852 33.4811 22.1937 32.0468 23.5067 30.4031C24.799 28.7853 26.4874 27.0763 28.2883 25.38C30.0912 23.6818 31.9655 22.034 33.6496 20.5083C35.3107 19.0033 36.8056 17.6005 37.7647 16.4492L36.2281 15.1691ZM19.9758 33.489L19.0044 33.7142L19.456 35.6625L20.4274 35.4374L19.9758 33.489ZM18.3687 34.1805C16.4523 37.4312 15.1498 41.2269 13.7139 44.3805L15.5341 45.2092C17.0918 41.7881 18.2382 38.3401 20.0916 35.1962L18.3687 34.1805ZM13.7614 44.289C12.5474 46.3595 11.9262 46.2637 12.0018 46.2689C12.007 46.2693 12.0148 46.2715 12.0208 46.2744C12.0231 46.2755 12.0244 46.2763 12.0248 46.2766C12.0253 46.2769 12.0255 46.2771 12.0255 46.2771C12.0258 46.2774 12.0255 46.2772 12.0211 46.2728C12.0187 46.2704 12.0185 46.2702 12.0139 46.2656C12.0116 46.2633 12.0037 46.2554 11.9947 46.2467C11.9906 46.2428 11.9627 46.2155 11.9254 46.1854C11.9099 46.1728 11.8604 46.133 11.7902 46.0929C11.7554 46.0731 11.6856 46.0358 11.5905 46.0063C11.5091 45.9811 11.3057 45.9283 11.0534 45.9909C10.7415 46.0683 10.505 46.2837 10.3854 46.544C10.289 46.7538 10.2914 46.9393 10.2953 47.0139C10.3033 47.1673 10.3463 47.2821 10.3529 47.3006C10.3769 47.3676 10.404 47.419 10.4064 47.4237C10.4192 47.4487 10.4337 47.4744 10.4352 47.477C10.4454 47.4953 10.4569 47.5156 10.4733 47.5465L12.2386 46.6065C12.2111 46.5548 12.1903 46.5179 12.18 46.4995C12.1712 46.4838 12.1784 46.4962 12.1867 46.5125C12.1869 46.5128 12.2124 46.561 12.2357 46.6259C12.2419 46.6433 12.2847 46.7572 12.2926 46.91C12.2965 46.9844 12.299 47.1696 12.2026 47.3792C12.0831 47.6393 11.8467 47.8547 11.5349 47.9321C11.2829 47.9946 11.0796 47.9418 10.9985 47.9167C10.9037 47.8873 10.8341 47.8501 10.7997 47.8305C10.7302 47.7908 10.6815 47.7516 10.6671 47.7399C10.6319 47.7115 10.6068 47.6868 10.6063 47.6863C10.6024 47.6825 10.5919 47.6721 10.6098 47.69C10.6311 47.7111 10.6679 47.7472 10.7168 47.7895C10.9081 47.955 11.2945 48.2247 11.8633 48.2641C13.0437 48.346 14.2325 47.4396 15.4867 45.3007L13.7614 44.289ZM10.4591 46.6341C5.56154 56.5634 3.12403 64.9103 1.04395 71.6925L2.95605 72.2789C5.04037 65.4829 7.43631 57.2837 12.2528 47.5188L10.4591 46.6341ZM1.16869 72.5415C1.24279 72.6523 1.35166 72.9127 1.44695 73.4047C1.53832 73.8765 1.60233 74.4785 1.64196 75.204C1.72124 76.6556 1.69822 78.4987 1.64498 80.5893C1.53936 84.7363 1.31469 89.8146 1.5981 94.3307L3.59418 94.2054C3.3179 89.803 3.53712 84.8499 3.64433 80.6402C3.69751 78.5524 3.72314 76.6359 3.63898 75.0949C3.59689 74.3242 3.52615 73.6217 3.41046 73.0244C3.2987 72.4473 3.12819 71.8739 2.83131 71.4299L1.16869 72.5415ZM1.59767 94.2128C0.364902 116.507 8.18685 138.434 20.8882 156.02C33.5854 173.6 51.2182 186.922 69.7115 191.93L70.2342 190C52.2686 185.135 34.995 172.136 22.5096 154.849C10.0283 137.568 2.39135 116.084 3.59461 94.3233L1.59767 94.2128ZM69.6355 191.906C72.4392 192.911 75.8718 193.38 79.396 193.627C82.9232 193.875 86.6409 193.906 89.9928 194L90.0486 192C86.6415 191.905 83.0072 191.876 79.5361 191.632C76.0621 191.388 72.8503 190.934 70.3102 190.024L69.6355 191.906ZM90.2959 192.039C86.2454 190.879 83.9413 190.57 81.716 190.215C79.5337 189.866 77.3933 189.47 73.5764 188.14L72.9182 190.029C76.8726 191.407 79.1325 191.828 81.4008 192.19C83.6262 192.545 85.8232 192.839 89.7456 193.961L90.2959 192.039ZM73.6738 188.18C70.9984 186.918 69.3839 185.581 67.9443 184.131C66.5346 182.711 65.1149 180.975 63.1014 179.228L61.7907 180.739C63.7485 182.438 64.9279 183.931 66.5251 185.54C68.0925 187.119 69.8929 188.608 72.8209 189.989L73.6738 188.18ZM61.5758 180.476L63.1476 183.253L64.8881 182.268L63.3163 179.491L61.5758 180.476ZM64.3516 181.818C60.5496 180.472 59.5193 179.67 58.6674 178.99C58.1975 178.615 57.7045 178.206 56.9108 177.773C56.1268 177.344 55.0765 176.905 53.4583 176.393L52.8548 178.299C54.4039 178.79 55.3219 179.184 55.9519 179.528C56.5723 179.867 56.9392 180.17 57.4198 180.553C58.469 181.391 59.7021 182.294 63.6842 183.703L64.3516 181.818ZM53.9501 177.954L55.6291 175.765L54.0421 174.548L52.363 176.737L53.9501 177.954ZM54.9118 174.159C54.4989 174.128 53.919 173.922 53.2107 173.511C52.5193 173.11 51.7804 172.557 51.0663 171.927C49.6171 170.65 48.396 169.17 47.9079 168.202L46.1221 169.103C46.7706 170.389 48.1978 172.065 49.7438 173.427C50.5272 174.118 51.3726 174.757 52.2066 175.241C53.0237 175.715 53.9103 176.089 54.7594 176.154L54.9118 174.159ZM46.9754 167.653L44.2135 167.763L44.2926 169.761L47.0546 169.652L46.9754 167.653ZM45.0297 168.132C43.3847 166.104 42.1582 164.399 41.3612 162.943C40.5582 161.476 40.248 160.363 40.2979 159.491L38.3011 159.377C38.2202 160.793 38.7291 162.3 39.6068 163.903C40.4905 165.518 41.8062 167.333 43.4764 169.392L45.0297 168.132ZM38.4272 158.945L37.5352 160.536L39.2797 161.514L40.1718 159.923L38.4272 158.945ZM39.2716 160.522C38.9808 160.022 38.0332 158.771 36.9659 157.345C35.8644 155.873 34.5643 154.124 33.4789 152.532C32.9361 151.736 32.4547 150.991 32.0818 150.347C31.6985 149.686 31.4674 149.194 31.3788 148.889C31.3308 148.723 31.3596 148.726 31.3418 148.823C31.33 148.888 31.2949 149.005 31.1952 149.123C31.0908 149.247 30.963 149.316 30.8573 149.347C30.6931 149.395 30.6366 149.339 30.8163 149.395C30.9655 149.441 31.1977 149.54 31.5316 149.723L32.4898 147.967C32.0979 147.753 31.737 147.587 31.4127 147.486C31.1189 147.394 30.7084 147.307 30.2966 147.427C30.067 147.494 29.8419 147.625 29.6651 147.835C29.4931 148.04 29.4104 148.267 29.3745 148.463C29.3082 148.825 29.3816 149.182 29.4579 149.445C29.6179 149.998 29.9543 150.665 30.3511 151.35C30.7584 152.053 31.2699 152.843 31.8265 153.659C32.9399 155.292 34.2647 157.074 35.3646 158.543C36.4987 160.059 37.329 161.16 37.5432 161.528L39.2716 160.522ZM32.684 148.105C31.4491 146.981 30.2671 146.567 28.8192 143.933L27.0665 144.896C28.7279 147.919 30.4151 148.744 31.3375 149.584L32.684 148.105ZM28.695 145.073L29.8766 143.725L28.3722 142.407L27.1906 143.756L28.695 145.073ZM29.9145 142.453C28.5584 140.705 27.3065 138.707 26.4205 136.969C25.9772 136.099 25.6348 135.313 25.4163 134.669C25.1837 133.983 25.1382 133.589 25.1554 133.442L23.1691 133.209C23.0962 133.83 23.2773 134.589 23.5223 135.311C23.7813 136.075 24.1676 136.953 24.6387 137.877C25.5813 139.726 26.9005 141.831 28.3343 143.679L29.9145 142.453ZM23.3588 133.921C24.1517 134.991 24.8603 135.677 25.5495 136.145C26.2422 136.615 26.8676 136.831 27.392 137.008L28.0304 135.112C27.5299 134.944 27.1259 134.798 26.673 134.49C26.2166 134.181 25.6631 133.672 24.9657 132.731L23.3588 133.921ZM28.6387 135.686C26.8657 131.288 25.461 128.891 24.2116 127.573C23.5699 126.896 22.9534 126.486 22.3361 126.243C21.7309 126.004 21.1792 125.951 20.7664 125.911C20.3289 125.869 20.0736 125.841 19.8188 125.74C19.5923 125.651 19.3078 125.476 18.9485 125.039C18.1834 124.108 17.2031 122.148 15.8689 117.938L13.9624 118.542C15.299 122.76 16.3715 125.054 17.4036 126.309C17.9429 126.965 18.4932 127.367 19.083 127.6C19.6444 127.822 20.1868 127.864 20.5739 127.902C20.9855 127.942 21.2852 127.978 21.6035 128.104C21.9096 128.224 22.2887 128.451 22.7601 128.948C23.7368 129.979 25.0281 132.079 26.7837 136.434L28.6387 135.686ZM14.9952 119.237L16.1232 119.147L15.964 117.153L14.8361 117.243L14.9952 119.237ZM16.8784 117.6C16.0557 116.352 15.607 115.105 14.8497 113.588L13.0603 114.482C13.6925 115.748 14.3032 117.328 15.2088 118.701L16.8784 117.6ZM14.9499 114.135L15.4432 109.235L13.4532 109.035L12.96 113.935L14.9499 114.135ZM15.2043 108.481C14.1304 107.24 13.4393 105.187 13.0874 102.466C12.7392 99.7748 12.7401 96.5792 12.9246 93.1943C13.1089 89.8146 13.4737 86.2849 13.8407 82.9299C14.2063 79.5877 14.576 76.4023 14.7617 73.7584L12.7666 73.6183C12.5844 76.2121 12.2211 79.3429 11.8525 82.7124C11.4854 86.0689 11.1151 89.6462 10.9276 93.0854C10.7404 96.5194 10.7328 99.8546 11.1039 102.723C11.4712 105.562 12.227 108.097 13.6921 109.79L15.2043 108.481ZM14.7572 73.8059C14.9841 71.8885 15.9497 69.8474 17.3114 67.2727C18.649 64.7437 20.3258 61.7712 21.7694 58.1517L19.9118 57.4108C18.5184 60.9043 16.9089 63.756 15.5435 66.3376C14.2022 68.8735 13.0481 71.2294 12.771 73.5708L14.7572 73.8059ZM21.0094 56.7956L19.281 56.4997L18.9435 58.471L20.6718 58.7669L21.0094 56.7956ZM19.9796 57.9829C21.5654 55.2187 26.208 49.5056 31.3809 44.5809C33.9596 42.126 36.6318 39.9041 39.0802 38.3576C41.5832 36.7767 43.647 36.0356 45.0781 36.2126L45.3236 34.2277C43.1478 33.9587 40.5605 35.0572 38.0122 36.6667C35.4094 38.3107 32.6303 40.6301 30.0019 43.1324C24.7605 48.1223 19.9657 53.9879 18.2448 56.9877L19.9796 57.9829ZM45.9832 35.843C46.4229 35.2907 46.751 34.8647 46.9833 34.543C47.1916 34.2546 47.3891 33.9625 47.4864 33.714C47.514 33.6437 47.5552 33.5243 47.5696 33.3771C47.583 33.2392 47.585 32.9456 47.3824 32.66C47.1593 32.3453 46.8399 32.2483 46.6371 32.2274C46.4531 32.2085 46.3031 32.2414 46.2296 32.2604C46.0763 32.3001 45.9395 32.3663 45.859 32.4072C45.7646 32.4551 45.6657 32.5112 45.5736 32.565C45.1686 32.8015 44.7821 33.0508 44.4233 33.2046C44.2424 33.2821 44.1742 33.2864 44.1895 33.2859C44.2452 33.2841 44.5099 33.3128 44.6717 33.5735L42.9723 34.6281C43.1216 34.8686 43.334 35.0515 43.5864 35.1623C43.8261 35.2677 44.0616 35.2909 44.2524 35.2849C44.614 35.2735 44.9579 35.1514 45.2113 35.0428C45.7209 34.8243 46.2914 34.4619 46.5822 34.2921C46.6641 34.2442 46.7229 34.2116 46.7643 34.1905C46.8196 34.1624 46.7969 34.1795 46.7305 34.1967C46.7004 34.2045 46.587 34.2328 46.4321 34.2169C46.2585 34.199 45.9607 34.1126 45.751 33.8169C45.5619 33.5501 45.5692 33.2839 45.579 33.1828C45.5898 33.0723 45.6186 32.9988 45.6242 32.9846C45.6367 32.9527 45.6352 32.9663 45.5823 33.0507C45.5353 33.1256 45.4643 33.2304 45.3619 33.3722C45.1572 33.6556 44.8521 34.0527 44.4185 34.5973L45.9832 35.843ZM44.5411 34.7957C48.3099 30.8963 50.6802 29.63 52.6484 29.1057C53.6606 28.8361 54.603 28.7511 55.6959 28.6426C56.7769 28.5353 57.9714 28.4066 59.3541 28.0247L58.8217 26.0968C57.6151 26.4301 56.566 26.5464 55.4983 26.6524C54.4425 26.7572 53.3312 26.8541 52.1336 27.1731C49.6821 27.8261 47.0089 29.3646 43.103 33.4058L44.5411 34.7957ZM59.5983 27.9207C60.2985 27.5051 60.7915 27.1889 61.0982 26.9538C61.232 26.8512 61.4193 26.6988 61.5525 26.5103C61.6089 26.4304 61.771 26.1883 61.7635 25.8439C61.7531 25.372 61.4509 25.0665 61.1858 24.9327C60.9788 24.8282 60.7837 24.8143 60.7018 24.8105C60.5982 24.8057 60.5015 24.8125 60.4258 24.8205C60.2732 24.8366 60.1065 24.8686 59.95 24.9029C59.6338 24.9721 59.2401 25.0778 58.8574 25.1801C58.0186 25.4042 57.279 25.5943 56.9055 25.6092C56.8157 25.6128 56.8529 25.5992 56.9481 25.6306C57.0648 25.669 57.4204 25.8442 57.4909 26.2966C57.5409 26.6172 57.3882 26.8044 57.4263 26.7465C57.439 26.7271 57.4945 26.6538 57.6364 26.5167L56.2463 25.0788C56.0575 25.2614 55.8839 25.4519 55.7552 25.6477C55.6518 25.8049 55.4452 26.1586 55.5148 26.6046C55.6048 27.1823 56.0533 27.4415 56.3223 27.5301C56.5697 27.6116 56.8184 27.6143 56.9853 27.6076C57.6383 27.5815 58.6474 27.3063 59.3736 27.1123C59.7736 27.0054 60.1165 26.9138 60.378 26.8565C60.5103 26.8276 60.5926 26.814 60.6352 26.8095C60.657 26.8072 60.6444 26.81 60.6097 26.8084C60.5966 26.8078 60.4551 26.8042 60.2847 26.7182C60.0561 26.6029 59.7735 26.3239 59.7639 25.8877C59.7572 25.5788 59.9013 25.3813 59.9191 25.356C59.9752 25.2767 60.0032 25.2731 59.8813 25.3666C59.6766 25.5236 59.2728 25.7881 58.5775 26.2008L59.5983 27.9207ZM57.1886 26.7667C62.1854 25.4917 64.0243 24.0037 66.0725 22.7717C67.9979 21.6134 70.2931 20.5508 76.4748 19.9372L76.2772 17.947C69.8649 18.5835 67.2709 19.7168 65.0415 21.0579C62.935 22.3251 61.3535 23.6399 56.6941 24.8288L57.1886 26.7667ZM75.8823 19.8117C75.9149 19.8303 75.8762 19.8144 75.8186 19.7507C75.7563 19.6818 75.6377 19.5165 75.6245 19.2631C75.598 18.7559 75.99 18.5561 75.8894 18.6221C75.8662 18.6373 75.7778 18.6841 75.5822 18.7559C75.3996 18.8229 75.1743 18.8939 74.9103 18.9724C74.4058 19.1225 73.7458 19.303 73.1715 19.5001C72.6285 19.6865 71.9675 19.9481 71.525 20.34L72.851 21.8372C72.9617 21.7392 73.2671 21.5818 73.8208 21.3918C74.3432 21.2125 74.9103 21.0591 75.4807 20.8894C75.7541 20.8081 76.0282 20.7227 76.2716 20.6333C76.502 20.5487 76.7661 20.439 76.9868 20.2941C77.13 20.2001 77.6572 19.8366 77.6218 19.1587C77.6041 18.8198 77.445 18.5673 77.3018 18.409C77.1632 18.2558 77.0032 18.1483 76.8697 18.0725L75.8823 19.8117ZM72.6277 21.9868C76.421 20.1296 82.5805 19.3626 89.2869 19.744C95.9655 20.1239 103.017 21.6333 108.535 24.1796L109.373 22.3637C103.576 19.6883 96.2658 18.1377 89.4004 17.7472C82.5629 17.3583 75.9964 18.1106 71.7483 20.1905L72.6277 21.9868ZM108.53 24.1774C114.902 27.1577 121.745 33.096 127.069 40.4227C132.393 47.7494 136.119 56.3551 136.402 64.6217L138.4 64.5534C138.1 55.7656 134.161 46.7809 128.686 39.247C123.212 31.7131 116.122 25.5207 109.377 22.3658L108.53 24.1774ZM137.142 65.5533L137.804 65.7313L138.323 63.7998L137.66 63.6218L137.142 65.5533ZM137.065 64.7163C136.897 68.1251 137.156 71.924 137.159 75.5206C137.163 79.1921 136.911 82.8263 135.77 86.2749L137.668 86.9031C138.91 83.1508 139.163 79.2636 139.159 75.5187C139.156 71.6989 138.896 68.1865 139.062 64.8148L137.065 64.7163ZM137.623 87.0159L139.234 83.6041L137.425 82.7504L135.815 86.1621L137.623 87.0159Z" fill="url(#paint1_linear)" mask="url(#path-1-outside-1)"/>
<defs>
<linearGradient id="paint0_linear" x1="79.1272" y1="1" x2="79.1272" y2="193" gradientUnits="userSpaceOnUse">
<stop stop-color="#F7BAC5"/>
<stop offset="1" stop-color="#EC98BC"/>
</linearGradient>
<linearGradient id="paint1_linear" x1="79.1272" y1="1" x2="79.1272" y2="193" gradientUnits="userSpaceOnUse">
<stop stop-color="#F7BAC5"/>
<stop offset="1" stop-color="#EC98BC"/>
</linearGradient>
</defs>
</svg>
