<svg width="213" height="193" viewBox="0 0 213 193" fill="none" xmlns="http://www.w3.org/2000/svg">
<path d="M145.171 188.001H67.3272C58.5699 188.001 50.7855 183.136 46.4069 175.838L7.48519 108.211C3.1065 100.914 3.1065 91.1833 7.48519 83.8855L46.4069 16.2591C50.7855 8.96128 58.5699 4.09607 67.3272 4.09607H145.171C153.928 4.09607 161.712 8.96128 166.091 16.2591L205.013 83.8855C209.391 91.1833 209.391 100.914 205.013 108.211L166.091 175.838C162.199 183.622 153.928 188.001 145.171 188.001ZM67.3272 13.8265C61.9755 13.8265 57.1103 16.7456 54.6777 21.1243L15.756 88.7507C13.3234 93.1294 13.3234 98.9676 15.756 103.346L54.6777 170.973C57.1103 175.351 61.9755 178.27 67.3272 178.27H145.171C150.522 178.27 155.387 175.351 157.82 170.973L196.742 103.346C199.174 98.9676 199.174 93.1294 196.742 88.7507L157.82 21.1243C155.387 16.7456 150.522 13.8265 145.171 13.8265H67.3272Z" fill="url(#paint0_linear)"/>
<path fill-rule="evenodd" clip-rule="evenodd" d="M42.8747 177.913L3.95229 110.285C-1.17811 101.706 -1.17811 90.3911 3.9523 81.8112L42.8747 14.1836L42.8939 14.1516C47.9463 5.7309 57.0057 0 67.3265 0H145.17C155.491 0 164.55 5.7309 169.602 14.1516L169.622 14.1836L208.544 81.8111C213.674 90.391 213.674 101.706 208.544 110.286L169.697 177.781C164.984 187.093 155.187 192.097 145.17 192.097H67.3265C57.0057 192.097 47.9463 186.366 42.8939 177.945L42.8747 177.913ZM166.09 175.838L205.012 108.211C209.39 100.914 209.39 91.1832 205.012 83.8853L166.09 16.259C161.711 8.96118 153.927 4.09597 145.17 4.09597H67.3265C58.5691 4.09597 50.7848 8.96118 46.4061 16.259L7.48448 83.8853C3.10579 91.1832 3.10579 100.914 7.48448 108.211L46.4061 175.838C50.7848 183.136 58.5691 188.001 67.3265 188.001H145.17C153.927 188.001 162.198 183.622 166.09 175.838ZM58.2424 23.1405L19.3222 90.7645C17.595 93.8959 17.5951 98.2011 19.3222 101.332L58.2424 168.956L58.2575 168.983C59.9561 172.041 63.4383 174.174 67.3265 174.174H145.17C149.058 174.174 152.54 172.041 154.239 168.983L154.254 168.956L193.174 101.332C194.901 98.201 194.901 93.8959 193.174 90.7646L154.254 23.1405L154.239 23.1134C152.54 20.0559 149.058 17.9224 145.17 17.9224H67.3265C63.4383 17.9224 59.9561 20.0559 58.2575 23.1134L58.2424 23.1405ZM196.741 88.7506C199.174 93.1292 199.174 98.9675 196.741 103.346L157.819 170.973C155.387 175.351 150.522 178.27 145.17 178.27H67.3265C61.9748 178.27 57.1096 175.351 54.677 170.973L15.7553 103.346C13.3227 98.9675 13.3227 93.1292 15.7553 88.7506L54.677 21.1242C57.1096 16.7455 61.9748 13.8264 67.3265 13.8264H145.17C150.522 13.8264 155.387 16.7455 157.819 21.1242L196.741 88.7506Z" fill="url(#paint1_linear)"/>
<path d="M64.8914 99.9408H47.3766L45.4305 112.59H66.8374L65.3779 121.348H32.781L40.0788 71.2361H73.1622L71.7027 79.9935H50.2958L48.8362 90.6969H66.3509L64.8914 99.9408ZM100.407 106.266L117.436 71.2361H133.004L125.706 121.348H114.03L118.895 89.2374L102.84 121.348H95.0557L88.7309 89.7239L83.8657 121.348H72.1892L79.487 71.2361H94.5691L100.407 106.266ZM177.764 100.914C177.278 103.346 176.791 105.779 175.818 108.212C174.845 110.644 173.872 112.59 171.926 114.05L178.251 121.348L169.98 127.186L164.142 119.888C162.682 120.375 160.736 121.348 159.276 121.348C157.33 121.834 155.871 121.834 153.925 121.834C147.6 121.834 143.221 119.888 139.329 115.996C135.923 112.104 134.464 106.752 135.437 100.914L136.896 91.67C137.869 85.3452 140.789 79.9935 145.167 76.1013C149.546 72.2091 154.898 70.2631 161.709 70.2631C167.547 70.2631 172.412 72.2091 175.818 76.1013C179.224 79.9935 180.683 85.3452 179.71 91.1834L177.764 100.914ZM167.547 91.67C168.034 87.7778 167.547 84.8587 166.574 82.9126C165.601 80.9665 163.169 79.507 159.763 79.507C156.844 79.507 154.411 80.48 151.979 82.9126C149.546 85.3452 148.573 88.2643 148.086 91.67L146.627 100.914C146.14 104.806 146.627 107.725 147.6 109.671C149.059 112.104 151.006 113.077 154.411 113.077C157.33 113.077 159.763 112.104 161.709 109.671C163.655 107.239 165.115 104.319 165.601 100.914L167.547 91.67Z" fill="url(#paint2_linear)"/>
<path fill-rule="evenodd" clip-rule="evenodd" d="M66.2967 101.579H48.7876L47.3456 110.952H68.7769L66.7712 122.986H30.8921L38.6671 69.5978H75.1016L73.0959 81.6319H51.7312L50.7185 89.0586H68.2737L66.2967 101.579ZM48.8416 90.697L50.3011 79.9936H71.708L73.1676 71.2362H40.0842L32.7864 121.348H65.3833L66.8428 112.59H45.4359L47.382 99.9409H64.8967L66.3563 90.697H48.8416ZM79.4923 71.2362H94.5745L100.413 106.266L117.441 71.2362H133.01L125.712 121.348H114.035L118.901 89.2374L102.845 121.348H95.061L88.7362 89.724L83.871 121.348H72.1945L79.4923 71.2362ZM88.9467 99.1306L85.2766 122.986H70.3003L78.0753 69.5978H95.9624L101.185 100.93L116.416 69.5978H134.904L127.129 122.986H112.13L115.727 99.249L103.858 122.986H93.7179L88.9467 99.1306ZM169.985 127.186L164.147 119.888C163.746 120.022 163.308 120.193 162.853 120.369C161.654 120.836 160.34 121.348 159.282 121.348C157.336 121.834 155.876 121.834 153.93 121.834C147.605 121.834 143.227 119.888 139.334 115.996C135.929 112.104 134.469 106.752 135.442 100.914L136.902 91.6701C137.875 85.3453 140.794 79.9936 145.173 76.1014C149.551 72.2092 154.903 70.2631 161.714 70.2631C167.553 70.2631 172.418 72.2092 175.823 76.1014C179.229 79.9936 180.689 85.3453 179.716 91.1835L177.77 100.914C177.283 103.347 176.796 105.779 175.823 108.212C175.023 110.213 174.223 111.885 172.88 113.227C172.591 113.517 172.277 113.791 171.931 114.05L178.256 121.348L169.985 127.186ZM174.225 114.195C175.703 112.639 176.561 110.78 177.345 108.82C178.374 106.248 178.885 103.69 179.364 101.294L181.327 91.4789L181.332 91.4529C182.377 85.1809 180.817 79.3208 177.056 75.0225C173.284 70.7113 167.934 68.6248 161.714 68.6248C154.554 68.6248 148.8 70.6854 144.084 74.8768C139.409 79.0326 136.312 84.7335 135.283 91.4168C135.283 91.4182 135.283 91.4195 135.282 91.4209L133.826 100.645C133.826 100.647 133.825 100.649 133.825 100.652C132.782 106.921 134.342 112.778 138.101 117.075L138.137 117.116L138.176 117.155C142.381 121.36 147.179 123.473 153.93 123.473H153.985C155.851 123.473 157.444 123.473 159.498 122.981C160.466 122.94 161.458 122.632 162.265 122.343C162.672 122.198 163.077 122.04 163.446 121.897L163.57 121.849C163.582 121.844 163.594 121.839 163.606 121.835L169.67 129.414L180.68 121.643L174.225 114.195ZM148.092 91.6701L146.632 100.914C146.146 104.806 146.632 107.725 147.605 109.671C149.065 112.104 151.011 113.077 154.417 113.077C157.336 113.077 159.768 112.104 161.714 109.671C163.66 107.239 165.12 104.32 165.607 100.914L167.553 91.6701C168.039 87.7779 167.553 84.8588 166.58 82.9127C165.607 80.9666 163.174 79.507 159.768 79.507C156.849 79.507 154.417 80.4801 151.984 82.9127C149.551 85.3453 148.578 88.2644 148.092 91.6701ZM165.935 91.4002L163.992 100.629L163.985 100.682C163.546 103.752 162.23 106.404 160.435 108.648C158.837 110.645 156.901 111.439 154.417 111.439C152.857 111.439 151.799 111.214 151.014 110.821C150.269 110.448 149.639 109.86 149.043 108.883C148.276 107.311 147.805 104.767 148.255 101.143L149.712 91.9137L149.714 91.9018C150.175 88.674 151.061 86.1527 153.142 84.0712C155.288 81.9252 157.312 81.1454 159.768 81.1454C162.741 81.1454 164.493 82.4041 165.114 83.6454C165.895 85.2071 166.381 87.7544 165.935 91.4002Z" fill="url(#paint3_linear)"/>
<defs>
<linearGradient id="paint0_linear" x1="106.249" y1="4.09607" x2="105.781" y2="277.707" gradientUnits="userSpaceOnUse">
<stop stop-color="#A4DCA1"/>
<stop offset="1" stop-color="#D1EDAC"/>
</linearGradient>
<linearGradient id="paint1_linear" x1="106.248" y1="-1.6155e-08" x2="105.758" y2="285.799" gradientUnits="userSpaceOnUse">
<stop stop-color="#A4DCA1"/>
<stop offset="1" stop-color="#D1EDAC"/>
</linearGradient>
<linearGradient id="paint2_linear" x1="106.394" y1="70.2631" x2="106.331" y2="154.952" gradientUnits="userSpaceOnUse">
<stop stop-color="#A4DCA1"/>
<stop offset="1" stop-color="#D1EDAC"/>
</linearGradient>
<linearGradient id="paint3_linear" x1="106.271" y1="68.6248" x2="106.202" y2="159.067" gradientUnits="userSpaceOnUse">
<stop stop-color="#A4DCA1"/>
<stop offset="1" stop-color="#D1EDAC"/>
</linearGradient>
</defs>
</svg>
