<svg width="192" height="192" viewBox="0 0 192 192" fill="none" xmlns="http://www.w3.org/2000/svg">
<rect width="192" height="192" rx="10" fill="url(#paint0_linear)"/>
<path d="M26.4827 68.4138L41.685 100.497C41.8373 100.818 41.8074 101.196 41.6065 101.49L26.4827 123.586" stroke="white" stroke-width="10" stroke-linecap="round"/>
<path d="M80.5568 67.0773C84.8768 67.0773 89.3568 67.1307 93.9968 67.2373C98.6368 67.2907 102.877 67.504 106.717 67.8773L106.157 76.7573H84.9568C82.2901 76.7573 80.9568 78.1173 80.9568 80.8373V89.4773H103.197V98.1173H80.9568V108.997C80.9568 111.717 82.2901 113.077 84.9568 113.077H106.157L106.717 121.957C102.877 122.331 98.6368 122.544 93.9968 122.597C89.3568 122.651 84.8768 122.677 80.5568 122.677C77.0368 122.677 74.1834 121.691 71.9968 119.717C69.8101 117.691 68.7168 114.997 68.7168 111.637V78.1973C68.7168 74.8373 69.8101 72.144 71.9968 70.1173C74.1834 68.0907 77.0368 67.0773 80.5568 67.0773ZM136.567 66.5173C141.687 66.5173 145.713 67.0507 148.647 68.1173C151.633 69.184 153.74 71.024 154.967 73.6373C156.247 76.2507 156.887 79.904 156.887 84.5973C156.887 89.2907 156.273 92.944 155.047 95.5573C153.873 98.1707 151.9 99.984 149.127 100.997C146.407 102.011 142.753 102.544 138.167 102.597C136.353 102.544 134.54 102.464 132.727 102.357C130.967 102.251 129.26 102.117 127.607 101.957V122.517H115.447V67.3173C117.633 67.104 119.713 66.944 121.687 66.8373C123.66 66.7307 125.793 66.6507 128.087 66.5973C130.433 66.544 133.26 66.5173 136.567 66.5173ZM136.327 75.7173C134.727 75.7173 133.18 75.7173 131.687 75.7173C130.247 75.7173 128.887 75.7173 127.607 75.7173V93.3973H136.327C139.527 93.3973 141.713 92.8107 142.887 91.6373C144.06 90.464 144.647 88.1173 144.647 84.5973C144.647 81.0773 144.06 78.7307 142.887 77.5573C141.713 76.3307 139.527 75.7173 136.327 75.7173Z" fill="white"/>
<defs>
<linearGradient id="paint0_linear" x1="135.972" y1="0.46758" x2="71.4723" y2="60.1405" gradientUnits="userSpaceOnUse">
<stop stop-color="#BDECF4"/>
<stop offset="1" stop-color="#98CCF9"/>
</linearGradient>
</defs>
</svg>
