<svg width="193" height="193" viewBox="0 0 193 193" fill="none" xmlns="http://www.w3.org/2000/svg">
<path d="M0.308594 18.9725C0.308594 8.49429 8.80288 0 19.2811 0H173.433C183.911 0 192.405 8.49429 192.405 18.9725V173.124C192.405 183.602 183.911 192.097 173.433 192.097H19.2811C8.80288 192.097 0.308594 183.602 0.308594 173.124V18.9725Z" fill="url(#paint0_linear)"/>
<path fill-rule="evenodd" clip-rule="evenodd" d="M89.4381 57.8652C79.9243 59.6497 70.7321 65.6522 65.583 73.4431L63.3691 76.793L60.2117 77.4211C29.6548 83.5008 29.8152 127.744 60.4171 134.035C64.7658 134.929 130.865 135.106 135.726 134.237C162.363 129.473 161.654 90.7563 134.858 86.8219C132.719 86.5077 132.566 86.3847 132.253 84.7294C128.975 67.4191 108.154 54.3546 89.4381 57.8652Z" fill="white"/>
<defs>
<linearGradient id="paint0_linear" x1="96.357" y1="0" x2="96.357" y2="192.097" gradientUnits="userSpaceOnUse">
<stop stop-color="#92C3EB"/>
<stop offset="1" stop-color="#B6E2D2"/>
</linearGradient>
</defs>
</svg>
