<svg width="193" height="193" viewBox="0 0 193 193" fill="none" xmlns="http://www.w3.org/2000/svg">
<path d="M0.113281 31.1508C0.113281 13.9467 14.06 0 31.2641 0H161.059C178.263 0 192.21 13.9467 192.21 31.1508V160.946C192.21 178.15 178.263 192.097 161.059 192.097H31.2641C14.06 192.097 0.113281 178.15 0.113281 160.946V31.1508Z" fill="url(#paint0_linear)"/>
<path d="M96.0966 95.771C85.1556 114.889 63.0239 153.716 62.0244 156.079H131.759L96.0966 95.771Z" fill="url(#paint1_linear)"/>
<path d="M60.2026 36.0219C49.2616 55.1401 27.1298 93.9673 26.1304 96.3296H95.8648L60.2026 36.0219Z" fill="url(#paint2_linear)"/>
<path d="M95.1871 96.3258C106.128 77.2075 128.26 38.3804 129.259 36.0181L59.5249 36.0181L95.1871 96.3258Z" fill="url(#paint3_linear)"/>
<path d="M131.757 156.079C142.698 136.961 164.83 98.1334 165.829 95.7711H96.0947L131.757 156.079Z" fill="url(#paint4_linear)"/>
<path d="M61.7955 156.079C72.7364 136.961 94.8682 98.1334 95.8677 95.7711H26.1333L61.7955 156.079Z" fill="url(#paint5_linear)"/>
<defs>
<linearGradient id="paint0_linear" x1="96.1617" y1="0" x2="96.1617" y2="192.097" gradientUnits="userSpaceOnUse">
<stop stop-color="#616892"/>
<stop offset="1" stop-color="#707FA6"/>
</linearGradient>
<linearGradient id="paint1_linear" x1="96.8916" y1="95.771" x2="96.8916" y2="156.079" gradientUnits="userSpaceOnUse">
<stop stop-color="#FFA77B"/>
<stop offset="1" stop-color="#FFC57B"/>
</linearGradient>
<linearGradient id="paint2_linear" x1="60.9976" y1="36.0219" x2="60.9976" y2="96.3296" gradientUnits="userSpaceOnUse">
<stop stop-color="#FFA77B"/>
<stop offset="1" stop-color="#FFC57B"/>
</linearGradient>
<linearGradient id="paint3_linear" x1="94.3921" y1="96.3258" x2="94.3921" y2="36.0181" gradientUnits="userSpaceOnUse">
<stop stop-color="#FFA77B"/>
<stop offset="1" stop-color="#FFC57B"/>
</linearGradient>
<linearGradient id="paint4_linear" x1="130.962" y1="156.079" x2="130.962" y2="95.7711" gradientUnits="userSpaceOnUse">
<stop stop-color="#FFA77B"/>
<stop offset="1" stop-color="#FFC57B"/>
</linearGradient>
<linearGradient id="paint5_linear" x1="61.0005" y1="156.079" x2="61.0005" y2="95.7711" gradientUnits="userSpaceOnUse">
<stop stop-color="#FFA77B"/>
<stop offset="1" stop-color="#FFC57B"/>
</linearGradient>
</defs>
</svg>
