<svg width="202" height="193" viewBox="0 0 202 193" fill="none" xmlns="http://www.w3.org/2000/svg">
<path fill-rule="evenodd" clip-rule="evenodd" d="M201.573 46.0757C201.573 58.1144 196.956 69.0747 189.396 77.2826C191.359 84.7366 192.404 92.5627 192.404 100.633C192.404 151.147 151.454 192.097 100.94 192.097C50.4261 192.097 9.47643 151.147 9.47643 100.633C9.47643 92.5627 10.5216 84.7366 12.4841 77.2826C4.92414 69.0747 0.307129 58.1144 0.307129 46.0757C0.307129 20.6288 20.9359 0 46.3828 0C58.4215 0 69.3818 4.61701 77.5897 12.1769C85.0437 10.2145 92.8699 9.1693 100.94 9.1693C109.01 9.1693 116.837 10.2145 124.291 12.1769C132.498 4.61701 143.459 0 155.497 0C180.944 0 201.573 20.6288 201.573 46.0757ZM89.625 84.1578C86.676 95.1637 71.5962 100.686 55.9434 96.4915C40.2906 92.2974 29.9921 79.9753 32.9411 68.9694C35.8901 57.9635 50.9699 52.4415 66.6227 56.6357C82.2756 60.8298 92.574 73.1519 89.625 84.1578ZM168.939 68.9694C171.888 79.9753 161.59 92.2974 145.937 96.4915C130.284 100.686 115.205 95.1637 112.256 84.1578C109.306 73.1519 119.605 60.8298 135.258 56.6357C150.911 52.4415 165.99 57.9635 168.939 68.9694Z" fill="url(#paint0_linear)"/>
<path d="M100.709 178.801C120.966 178.801 137.387 162.38 137.387 142.124C137.387 121.868 120.966 105.447 100.709 105.447C80.4532 105.447 64.0322 121.868 64.0322 142.124C64.0322 162.38 80.4532 178.801 100.709 178.801Z" fill="url(#paint1_linear)"/>
<path fill-rule="evenodd" clip-rule="evenodd" d="M101.169 150.376C91.9999 150.376 73.6613 132.038 82.8306 122.868C91.9999 113.699 110.338 113.699 119.508 122.868C128.677 132.038 110.338 150.376 101.169 150.376Z" fill="url(#paint2_linear)"/>
<defs>
<linearGradient id="paint0_linear" x1="188.447" y1="10.1698" x2="53.4237" y2="219.567" gradientUnits="userSpaceOnUse">
<stop stop-color="#B58765"/>
<stop offset="1" stop-color="#D6C6BA"/>
</linearGradient>
<linearGradient id="paint1_linear" x1="132.603" y1="109.33" x2="38.4551" y2="208.565" gradientUnits="userSpaceOnUse">
<stop stop-color="#B58765"/>
<stop offset="1" stop-color="#D6C6BA"/>
</linearGradient>
<linearGradient id="paint2_linear" x1="101.169" y1="115.991" x2="101.169" y2="150.376" gradientUnits="userSpaceOnUse">
<stop stop-color="#616892"/>
<stop offset="1" stop-color="#707FA6"/>
</linearGradient>
</defs>
</svg>
