<svg width="175" height="194" viewBox="0 0 175 194" fill="none" xmlns="http://www.w3.org/2000/svg">
<path d="M35.7651 0.0032959H157.691C159.851 0.0032959 161.302 2.24933 160.438 4.25583L146.504 36.6091C146.028 37.7159 144.949 38.4314 143.758 38.4314H64.5516C62.4114 38.4314 60.9612 40.6397 61.7871 42.6409L91.4061 114.408C91.8724 115.537 92.9624 116.273 94.1706 116.273H118.858C120.99 116.273 122.44 114.08 121.63 112.081L109.451 82.0364C108.641 80.0376 110.091 77.8448 112.223 77.8448H156.259C157.527 77.8448 158.659 78.6548 159.083 79.8669L174.53 124.012C174.784 124.737 174.756 125.534 174.453 126.239L146.503 191.304C146.027 192.412 144.948 193.129 143.756 193.129H141.84C140.649 193.129 139.57 192.414 139.094 191.307L124.113 156.523C123.637 155.416 122.558 154.701 121.367 154.701H30.0025C28.7522 154.701 27.6334 153.914 27.1956 152.727L1.07892 81.9229C0.812959 81.2019 0.827022 80.4054 1.11826 79.6944L32.9976 1.87589C33.462 0.742193 34.554 0.0032959 35.7651 0.0032959Z" fill="url(#paint0_linear)"/>
<defs>
<linearGradient id="paint0_linear" x1="87.7957" y1="0.0032959" x2="87.7957" y2="193.129" gradientUnits="userSpaceOnUse">
<stop stop-color="#F7BAC5"/>
<stop offset="1" stop-color="#EC98BC"/>
</linearGradient>
</defs>
</svg>
