<svg width="165" height="193" viewBox="0 0 165 193" fill="none" xmlns="http://www.w3.org/2000/svg">
<path d="M161.078 63.5388C166.544 50.296 166.544 23.39 159.397 2.79011C157.505 -0.993545 151.829 0.267672 151.619 4.26153V5.73295C150.358 25.492 143.211 36.2124 132.491 41.4675C130.809 42.3083 128.076 42.3083 126.185 41.0471C113.572 33.0593 98.4378 28.4349 82.2522 28.4349C66.0665 28.4349 51.1421 33.2695 38.3197 41.0471C36.6381 42.0981 34.5361 42.3083 32.8545 41.4675C21.9239 37.4736 14.3566 25.492 13.0954 5.52275V4.05133C13.0954 0.0574692 7.20969 -1.20375 5.52806 2.5799C-1.61884 23.6002 -1.40864 50.5062 3.84644 63.5388C6.57908 70.0551 6.57908 77.4122 4.26684 84.1387C1.324 92.5468 -0.14742 102.006 0.0627832 111.465C1.1138 154.767 37.8993 191.763 81.4113 192.393C127.236 193.234 164.442 156.448 164.442 110.414C164.442 101.165 162.97 92.5468 160.237 84.3489C158.135 77.6224 158.346 70.0551 161.078 63.5388ZM81.2011 173.055C47.9891 172.214 20.4525 145.098 20.0321 111.675C19.1913 76.1509 48.1993 47.1429 83.5134 47.9838C116.936 48.4042 144.262 75.9407 144.893 109.363C145.523 144.677 116.725 173.475 81.2011 173.055Z" fill="url(#paint0_linear)"/>
<path d="M91.9255 103.687L77.2113 80.9852C74.8991 77.2016 70.0644 76.1505 66.2808 78.4628C63.9685 79.9342 62.4971 82.4566 62.4971 85.1893C62.4971 86.6607 62.9175 88.1321 63.7583 89.3933L73.6379 104.948C74.4787 106.21 74.0583 107.681 73.4277 108.732L57.8726 125.758C54.9298 128.911 55.14 133.956 58.293 136.899C59.7645 138.16 61.8665 138.791 63.7583 138.791C66.0706 138.791 67.9624 137.74 69.4338 136.269L80.995 122.816C82.046 121.765 83.5174 121.765 84.148 123.026L92.3459 134.797C92.7663 135.848 93.6071 136.479 94.6582 137.109C97.3908 139.001 100.964 139.001 103.697 137.32C106.009 135.848 107.481 133.326 107.481 130.593C107.481 129.122 107.06 127.65 106.219 126.389L91.9255 103.687Z" fill="url(#paint1_linear)"/>
<defs>
<linearGradient id="paint0_linear" x1="82.5041" y1="0.310547" x2="82.5041" y2="192.407" gradientUnits="userSpaceOnUse">
<stop stop-color="#8598EB"/>
<stop offset="1" stop-color="#A5C8FF"/>
</linearGradient>
<linearGradient id="paint1_linear" x1="81.6357" y1="77.2436" x2="81.6357" y2="138.791" gradientUnits="userSpaceOnUse">
<stop stop-color="#8598EB"/>
<stop offset="1" stop-color="#A5C8FF"/>
</linearGradient>
</defs>
</svg>
