<svg width="192" height="192" viewBox="0 0 192 192" fill="none" xmlns="http://www.w3.org/2000/svg">
<path d="M0.738281 27.9125C0.738281 12.6684 13.0961 0.310547 28.3402 0.310547H164.122C179.366 0.310547 191.724 12.6684 191.724 27.9125V163.694C191.724 178.938 179.366 191.296 164.122 191.296H28.3403C13.0961 191.296 0.738281 178.938 0.738281 163.694V27.9125Z" fill="url(#paint0_linear)"/>
<path d="M144.773 31.1466H96.8919C96.4393 31.1466 96.0735 31.5135 96.0735 31.9662V47.2005C96.0735 47.7132 96.4879 48.1287 96.9999 48.1287H103.565C106.22 48.1287 108.373 50.175 108.604 52.7755V63.2203V69.0394V124.464V124.857H108.602C108.618 125.438 108.595 126.009 108.539 126.571C108.533 126.653 108.522 126.734 108.512 126.815C108.474 127.144 108.432 127.471 108.368 127.791C108.333 127.973 108.284 128.151 108.24 128.33C108.182 128.569 108.134 128.812 108.061 129.046C107.628 130.434 106.943 131.722 105.997 132.856C105.962 132.896 105.919 132.933 105.885 132.973C105.596 133.308 105.293 133.635 104.957 133.941C104.619 134.249 104.26 134.536 103.883 134.803C101.205 136.704 97.5993 137.54 93.571 137.154C88.4347 136.671 83.339 134.337 79.2202 130.582C75.1022 126.827 72.5416 122.182 72.0116 117.5C71.535 113.312 72.7876 109.626 75.5361 107.12C75.5433 107.115 75.5499 107.109 75.5554 107.104C75.6617 107.008 75.7787 106.924 75.8881 106.832C77.8551 105.181 80.4192 104.18 83.3452 103.905C83.3782 103.901 83.4099 103.896 83.4412 103.893C83.7492 103.866 84.063 103.854 84.3796 103.842C84.5451 103.837 84.7086 103.825 84.8765 103.823C84.9323 103.823 84.9853 103.817 85.041 103.817C85.1408 103.817 85.2444 103.83 85.3442 103.831C85.8053 103.839 86.2699 103.858 86.7437 103.898C86.8036 103.903 86.8607 103.901 86.9223 103.907C86.966 103.911 87.0094 103.921 87.0531 103.925C89.7372 104.195 92.3948 104.998 94.9169 106.215C94.9695 106.217 95.0304 106.233 95.1065 106.275C95.8752 106.701 96.0225 106.244 96.0452 105.943V92.7632V83.0118C96.0452 82.3549 95.5893 81.774 94.9499 81.6329C81.3655 78.6374 68.0371 81.7553 58.6323 90.3335C50.4165 97.8217 46.4423 108.628 47.7299 119.978C48.879 130.089 54.0586 139.802 62.3164 147.332C70.365 154.669 80.6129 159.257 91.1839 160.255C92.6405 160.39 94.1041 160.46 95.5322 160.46C105.628 160.46 114.996 156.991 121.91 150.689C128.46 144.714 132.383 136.509 132.959 127.582L133.013 69.0394H133.018V53.3868H133.02V53.1137C133.08 50.3512 135.328 48.1287 138.1 48.1287H144.665C145.176 48.1287 145.591 47.7132 145.591 47.2005V31.9662C145.591 31.5135 145.225 31.1466 144.773 31.1466Z" fill="white"/>
<defs>
<linearGradient id="paint0_linear" x1="135.991" y1="0.775656" x2="71.8328" y2="60.1332" gradientUnits="userSpaceOnUse">
<stop stop-color="#BDECF4"/>
<stop offset="1" stop-color="#98CCF9"/>
</linearGradient>
</defs>
</svg>
