<svg width="30" height="48" viewBox="0 0 30 48" fill="none" xmlns="http://www.w3.org/2000/svg">
<path d="M23.3875 26.586C21.5118 26.586 19.8302 27.4141 18.6786 28.7179L15.7279 26.6362C16.0411 25.7768 16.2209 24.854 16.2209 23.8881C16.2209 22.9389 16.0473 22.0316 15.7444 21.1849L18.6886 19.1252C19.84 20.4225 21.5173 21.2461 23.3875 21.2461C26.8496 21.2461 29.6667 18.4393 29.6667 14.9888C29.6667 11.5382 26.8496 8.73143 23.3875 8.73143C19.9255 8.73143 17.1084 11.5382 17.1084 14.9888C17.1084 15.6064 17.202 16.2019 17.3701 16.7659L14.4239 18.8266C13.1932 17.3051 11.4212 16.2428 9.40225 15.9185V12.3801C12.2465 11.7848 14.3896 9.26646 14.3896 6.25732C14.3896 2.80681 11.5725 0 8.11047 0C4.6484 0 1.83134 2.80681 1.83134 6.25732C1.83134 9.22616 3.9189 11.7134 6.70629 12.3512V15.9356C2.90223 16.601 0 19.9094 0 23.8881C0 27.8862 2.93097 31.2067 6.76249 31.8495V35.6343C3.94659 36.2511 1.83134 38.7536 1.83134 41.7427C1.83134 45.1932 4.6484 48 8.11047 48C11.5725 48 14.3896 45.1932 14.3896 41.7427C14.3896 38.7536 12.2744 36.2511 9.45845 35.6343V31.8494C11.3978 31.5238 13.1523 30.507 14.3952 28.9882L17.3657 31.0834C17.2008 31.6423 17.1084 32.232 17.1084 32.8433C17.1084 36.2938 19.9255 39.1007 23.3875 39.1007C26.8496 39.1007 29.6667 36.2938 29.6667 32.8433C29.6667 29.3928 26.8496 26.586 23.3875 26.586V26.586ZM23.3875 11.9549C25.0664 11.9549 26.4318 13.3162 26.4318 14.9888C26.4318 16.6613 25.0664 18.0225 23.3875 18.0225C21.7087 18.0225 20.3432 16.6613 20.3432 14.9888C20.3432 13.3162 21.7087 11.9549 23.3875 11.9549V11.9549ZM5.06605 6.25732C5.06605 4.58479 6.43164 3.22359 8.11047 3.22359C9.7893 3.22359 11.1548 4.58479 11.1548 6.25732C11.1548 7.92986 9.7893 9.29106 8.11047 9.29106C6.43164 9.29106 5.06605 7.92986 5.06605 6.25732ZM11.1548 41.7427C11.1548 43.4152 9.7893 44.7764 8.11047 44.7764C6.43164 44.7764 5.06605 43.4152 5.06605 41.7427C5.06605 40.0701 6.43164 38.7089 8.11047 38.7089C9.7893 38.7089 11.1548 40.0701 11.1548 41.7427ZM8.11024 28.1192C5.76878 28.1192 3.86397 26.2213 3.86397 23.8881C3.86397 21.5548 5.76878 19.6566 8.11024 19.6566C10.4516 19.6566 12.3564 21.5548 12.3564 23.8881C12.3564 26.2213 10.4516 28.1192 8.11024 28.1192ZM23.3875 35.8772C21.7087 35.8772 20.3432 34.5159 20.3432 32.8433C20.3432 31.1708 21.7087 29.8096 23.3875 29.8096C25.0664 29.8096 26.4318 31.1708 26.4318 32.8433C26.4318 34.5159 25.0664 35.8772 23.3875 35.8772Z" fill="url(#paint0_linear)"/>
<defs>
<linearGradient id="paint0_linear" x1="14.8333" y1="0" x2="14.8333" y2="48" gradientUnits="userSpaceOnUse">
<stop stop-color="#616892"/>
<stop offset="1" stop-color="#707FA6"/>
</linearGradient>
</defs>
</svg>
