<svg width="192" height="192" viewBox="0 0 192 192" fill="none" xmlns="http://www.w3.org/2000/svg">
<rect width="192" height="192" rx="10" fill="url(#paint0_linear)"/>
<path d="M26.4827 68.4138L41.685 100.497C41.8373 100.818 41.8074 101.196 41.6065 101.49L26.4827 123.586" stroke="white" stroke-width="10" stroke-linecap="round"/>
<path d="M76.5521 67.3173V82.9173C76.5521 85.2107 76.3388 87.424 75.9121 89.5573H80.8721L94.9521 67.3173H108.152L93.7521 89.5573C93.1654 90.5173 92.5254 91.344 91.8321 92.0373C91.1388 92.6773 90.4454 93.2373 89.7521 93.7173V93.9573C90.4988 94.4373 91.2988 95.104 92.1521 95.9573C93.0054 96.8107 93.6988 97.6907 94.2321 98.5973L109.112 122.517H95.5121L80.9521 98.0373H75.9121C76.1254 98.9973 76.2854 99.9307 76.3921 100.837C76.4988 101.744 76.5521 102.624 76.5521 103.477V122.517H64.3921V67.3173H76.5521ZM136.695 66.5173C142.509 66.5173 147.122 67.3707 150.535 69.0773C154.002 70.784 156.509 73.6907 158.055 77.7973C159.602 81.904 160.375 87.6107 160.375 94.9173C160.375 102.224 159.602 107.931 158.055 112.037C156.509 116.144 154.002 119.051 150.535 120.757C147.122 122.411 142.509 123.237 136.695 123.237C132.482 123.237 128.615 123.157 125.095 122.997C121.575 122.891 118.242 122.731 115.095 122.517V67.3173C118.295 67.104 121.629 66.9173 125.095 66.7573C128.562 66.5973 132.429 66.5173 136.695 66.5173ZM136.695 75.8773C134.935 75.8773 133.255 75.8773 131.655 75.8773C130.109 75.8773 128.642 75.904 127.255 75.9573V113.797C130.135 113.851 133.282 113.877 136.695 113.877C139.469 113.877 141.629 113.344 143.175 112.277C144.722 111.157 145.815 109.211 146.455 106.437C147.149 103.664 147.495 99.824 147.495 94.9173C147.495 90.0107 147.149 86.1707 146.455 83.3973C145.815 80.624 144.722 78.6773 143.175 77.5573C141.629 76.4373 139.469 75.8773 136.695 75.8773Z" fill="white"/>
<defs>
<linearGradient id="paint0_linear" x1="96" y1="0" x2="96" y2="192" gradientUnits="userSpaceOnUse">
<stop stop-color="#8598EB"/>
<stop offset="1" stop-color="#A5C8FF"/>
</linearGradient>
</defs>
</svg>
