<svg width="215" height="193" viewBox="0 0 215 193" fill="none" xmlns="http://www.w3.org/2000/svg">
<path fill-rule="evenodd" clip-rule="evenodd" d="M70.5573 158.903L65.2747 165.5L77.2087 183.893L75.96 192.405H126.554L130.047 183.893L109.715 158.903H70.5573Z" fill="url(#paint0_linear)"/>
<path fill-rule="evenodd" clip-rule="evenodd" d="M99.0698 45.0129L80.9106 76.5709L169.485 180.633L166.952 190.172H207.575L214.94 156.321L120.152 44.9829L99.0698 45.0129Z" fill="url(#paint1_linear)"/>
<path fill-rule="evenodd" clip-rule="evenodd" d="M135.369 0.308594L109.676 21.1751L101.013 37.0531H122.522L159.459 80.7192L181.43 62.8061V51.4244L173.788 40.781L179.431 34.9581L135.369 0.308594Z" fill="url(#paint2_linear)"/>
<path fill-rule="evenodd" clip-rule="evenodd" d="M44.3336 109.209H32.2735L0.499512 148.985V190.166H34.5907L40.5937 182.452L66.911 148.883H104.94L116.646 131.21L75.4053 82.9521L44.3336 109.209Z" fill="url(#paint3_linear)"/>
<defs>
<linearGradient id="paint0_linear" x1="111.146" y1="158.984" x2="101.529" y2="176.185" gradientUnits="userSpaceOnUse">
<stop stop-color="#BDECF4"/>
<stop offset="1" stop-color="#98CCF9"/>
</linearGradient>
<linearGradient id="paint1_linear" x1="147.925" y1="44.9829" x2="147.925" y2="190.172" gradientUnits="userSpaceOnUse">
<stop stop-color="#92C3EB"/>
<stop offset="1" stop-color="#B6E2D2"/>
</linearGradient>
<linearGradient id="paint2_linear" x1="141.222" y1="0.308594" x2="140.995" y2="119.942" gradientUnits="userSpaceOnUse">
<stop stop-color="#A4DCA1"/>
<stop offset="1" stop-color="#D1EDAC"/>
</linearGradient>
<linearGradient id="paint3_linear" x1="58.5728" y1="82.9521" x2="58.5728" y2="190.166" gradientUnits="userSpaceOnUse">
<stop stop-color="#92C3EB"/>
<stop offset="1" stop-color="#B6E2D2"/>
</linearGradient>
</defs>
</svg>
