<svg width="193" height="193" viewBox="0 0 193 193" fill="none" xmlns="http://www.w3.org/2000/svg">
<path d="M0.717773 30.3438C0.717773 13.7669 14.156 0.328674 30.7329 0.328674H162.799C179.376 0.328674 192.815 13.7669 192.815 30.3438V162.41C192.815 178.987 179.376 192.425 162.799 192.425H30.7329C14.156 192.425 0.717773 178.987 0.717773 162.41V30.3438Z" fill="url(#paint0_linear)"/>
<path d="M166.693 168.429V25.1031C166.693 20.0513 162.07 16.2628 157.117 17.2549L135.366 21.6113L104.04 27.3148V170.127L157.763 176.379C162.518 176.933 166.693 173.216 166.693 168.429Z" fill="white"/>
<path d="M117.966 30.323C117.966 19.6351 137.008 18.4987 146.529 19.2665C140.632 19.2665 139.465 26.6375 139.619 30.323V101.269L126.719 96.6617L117.966 101.269V30.323Z" fill="url(#paint1_linear)"/>
<path fill-rule="evenodd" clip-rule="evenodd" d="M34.2574 27.3148C30.5618 27.3148 27.5659 30.1298 27.5659 33.6022V163.84C27.5659 167.312 30.5618 170.127 34.2574 170.127H104.04V27.3148H34.2574ZM55.8105 112.577C55.939 111.727 56.54 110.979 57.6277 110.183C58.7177 109.385 60.3714 108.487 62.7454 107.355C64.0403 106.737 65.1835 106.162 66.0816 105.684C65.9498 105.727 65.8143 105.773 65.6754 105.821C64.424 106.25 62.916 106.854 61.3477 107.547C58.2048 108.936 54.8628 110.661 52.887 112.024C50.854 113.426 49.0627 114.291 47.7377 114.513C47.0771 114.624 46.4475 114.589 45.969 114.287C45.4653 113.969 45.2505 113.435 45.2505 112.814C45.2505 112.681 45.299 112.543 45.3377 112.445C45.383 112.331 45.4464 112.197 45.523 112.049C45.6768 111.752 45.8989 111.367 46.1772 110.912C46.7348 110 47.533 108.777 48.5004 107.344C50.4361 104.474 53.0598 100.743 55.8159 96.9187C61.3172 89.2859 67.3823 81.2355 69.5496 78.9705C71.8283 76.5891 75.4639 73.9422 78.0057 72.83C80.7047 71.649 83.1122 70.9652 84.2947 70.8853C84.4481 70.8749 84.5944 70.8735 84.7264 70.886C84.8506 70.8977 85.0017 70.925 85.1372 70.9976C85.2903 71.0797 85.4429 71.2348 85.4604 71.4666C85.4752 71.662 85.3844 71.8215 85.3113 71.9209C85.1624 72.1239 84.8968 72.3314 84.5668 72.544C84.2232 72.7653 83.7622 73.0215 83.1745 73.3135C78.3285 75.7212 73.5938 80.578 68.252 88.7337C65.4937 92.9452 61.9794 98.0489 60.44 100.077L60.3928 100.139C59.3123 101.563 58.5082 102.622 57.9672 103.395C57.6927 103.787 57.4935 104.095 57.3624 104.333C57.3235 104.404 57.293 104.464 57.2692 104.515C57.2955 104.51 57.3241 104.505 57.3554 104.498C57.8291 104.402 58.5654 104.158 59.6124 103.81L59.616 103.809C65.8404 101.743 73.9658 101.243 81.0717 101.985C84.6279 102.356 87.9486 103.04 90.6638 104.004C93.3648 104.964 95.5294 106.224 96.6939 107.786C97.1746 108.431 97.5232 108.957 97.6975 109.349C97.7805 109.535 97.8542 109.754 97.8332 109.966C97.8217 110.082 97.7794 110.215 97.676 110.33C97.5716 110.447 97.4378 110.51 97.3123 110.539C97.0875 110.592 96.8425 110.55 96.6362 110.495C96.4125 110.436 96.1513 110.339 95.8572 110.212C95.2678 109.957 94.4936 109.558 93.5316 109.025C90.4157 107.297 86.0191 106.819 81.3771 107.501C76.7437 108.181 71.925 110.009 68.0003 112.822C67.0901 113.474 66.2898 113.932 65.6455 114.15C65.3251 114.259 65.004 114.322 64.7087 114.293C64.3925 114.262 64.103 114.122 63.9216 113.846C63.5794 113.326 63.6365 112.739 63.9097 112.194C64.1783 111.659 64.674 111.116 65.3174 110.592C66.6097 109.539 68.6115 108.469 71.0243 107.597C71.758 107.332 72.3736 107.083 72.8486 106.867C71.4732 107.004 69.8877 107.427 68.2407 108.092C66.1268 108.946 63.9447 110.185 62.0247 111.675C60.8601 112.58 59.903 113.283 59.1284 113.788C58.3673 114.283 57.7357 114.619 57.2325 114.74C56.9762 114.802 56.7 114.822 56.4415 114.732C56.1645 114.635 55.982 114.439 55.8765 114.209C55.777 113.993 55.7414 113.74 55.7368 113.48C55.7322 113.216 55.7598 112.913 55.8105 112.577Z" fill="white"/>
<path fill-rule="evenodd" clip-rule="evenodd" d="M103.116 27.6568C103.945 27.6568 104.617 28.3287 104.617 29.1576L104.617 168.284C104.617 169.113 103.945 169.785 103.116 169.785C102.288 169.785 101.616 169.113 101.616 168.284L101.616 29.1576C101.616 28.3287 102.288 27.6568 103.116 27.6568Z" fill="#F0F0F0"/>
<defs>
<linearGradient id="paint0_linear" x1="136.758" y1="0.79649" x2="72.226" y2="60.4995" gradientUnits="userSpaceOnUse">
<stop stop-color="#BDECF4"/>
<stop offset="1" stop-color="#98CCF9"/>
</linearGradient>
<linearGradient id="paint1_linear" x1="132.248" y1="19.0752" x2="132.248" y2="101.269" gradientUnits="userSpaceOnUse">
<stop stop-color="#F7BAC5"/>
<stop offset="1" stop-color="#EC98BC"/>
</linearGradient>
</defs>
</svg>
