<svg width="192" height="192" viewBox="0 0 192 192" fill="none" xmlns="http://www.w3.org/2000/svg">
<path d="M182 0H10C4.47715 0 0 4.47715 0 10V182C0 187.523 4.47715 192 10 192H182C187.523 192 192 187.523 192 182V10C192 4.47715 187.523 0 182 0Z" fill="url(#paint0_linear)"/>
<path fill-rule="evenodd" clip-rule="evenodd" d="M96 66.9175C82.7659 66.9175 72.0375 77.6459 72.0375 90.88C72.0375 104.114 82.7659 114.843 96 114.843C109.234 114.843 119.963 104.114 119.963 90.88C119.963 77.6459 109.234 66.9175 96 66.9175ZM65.9625 90.88C65.9625 74.2908 79.4108 60.8425 96 60.8425C112.589 60.8425 126.038 74.2908 126.038 90.88C126.038 107.469 112.589 120.918 96 120.918C79.4108 120.918 65.9625 107.469 65.9625 90.88Z" fill="white"/>
<path fill-rule="evenodd" clip-rule="evenodd" d="M36 96.9175C31.0502 96.9175 27.0375 100.93 27.0375 105.88C27.0375 110.83 31.0502 114.843 36 114.843C40.9499 114.843 44.9625 110.83 44.9625 105.88C44.9625 100.93 40.9499 96.9175 36 96.9175ZM20.9625 105.88C20.9625 97.575 27.695 90.8425 36 90.8425C44.305 90.8425 51.0375 97.575 51.0375 105.88C51.0375 114.185 44.305 120.918 36 120.918C27.695 120.918 20.9625 114.185 20.9625 105.88Z" fill="white"/>
<path fill-rule="evenodd" clip-rule="evenodd" d="M156 96.9175C151.05 96.9175 147.038 100.93 147.038 105.88C147.038 110.83 151.05 114.843 156 114.843C160.95 114.843 164.963 110.83 164.963 105.88C164.963 100.93 160.95 96.9175 156 96.9175ZM140.963 105.88C140.963 97.575 147.695 90.8425 156 90.8425C164.305 90.8425 171.037 97.575 171.037 105.88C171.037 114.185 164.305 120.918 156 120.918C147.695 120.918 140.963 114.185 140.963 105.88Z" fill="white"/>
<path fill-rule="evenodd" clip-rule="evenodd" d="M45.6117 100.303C45.0546 98.6982 45.8554 96.9347 47.4409 96.3249C54.1342 93.7504 59.9631 91.9751 66.9824 90.558C68.6497 90.2214 70.2691 91.2868 70.6598 92.9423V92.9423C71.0506 94.5978 70.0786 96.2699 68.4467 96.7496L49.5174 102.314C47.8876 102.793 46.1687 101.908 45.6117 100.303V100.303ZM121.5 92.98C121.797 91.3289 123.378 90.2268 125.022 90.5589C132.038 91.9756 137.865 93.7504 144.556 96.3236C146.122 96.9258 146.876 98.6986 146.25 100.255V100.255C145.624 101.811 143.855 102.562 142.289 101.961C135.953 99.5277 130.499 97.8695 123.948 96.5396C122.304 96.2058 121.203 94.6312 121.5 92.98V92.98Z" fill="white"/>
<path d="M96 102.88C102.627 102.88 108 97.5074 108 90.88C108 84.2526 102.627 78.88 96 78.88C89.3726 78.88 84 84.2526 84 90.88C84 97.5074 89.3726 102.88 96 102.88Z" fill="white"/>
<defs>
<linearGradient id="paint0_linear" x1="96" y1="0" x2="96" y2="192" gradientUnits="userSpaceOnUse">
<stop stop-color="#92C3EB"/>
<stop offset="1" stop-color="#B6E2D2"/>
</linearGradient>
</defs>
</svg>
