<svg width="239" height="194" viewBox="0 0 239 194" fill="none" xmlns="http://www.w3.org/2000/svg">
<path d="M237.401 1.24704C236.76 0.56649 235.941 0.206179 235.1 0.235619C232.799 0.235619 229.833 2.17754 228.245 3.26987L227.605 3.67444C224.928 5.29379 222.014 6.2095 219.041 6.36481C215.995 6.48618 213.37 6.70869 209.951 7.1436C189.696 9.75306 180.662 29.1318 171.96 47.8734C167.229 58.0685 162.335 68.6074 155.627 76.7696C154.234 78.4473 152.756 80.0115 151.203 81.4524C144.26 87.9154 135.542 92.4769 128.728 95.7336C122.189 98.8488 115.068 101.65 108.173 104.361C101.87 106.839 95.9064 109.175 90.4294 111.724C87.9583 112.867 85.8599 113.747 84.0045 114.516C79.0217 116.539 75.4163 118.086 70.1662 122.607C68.1164 124.357 66.0585 126.248 64.6568 127.664C60.4832 131.819 56.7913 136.676 53.6866 142.097C51.0134 147.103 47.9257 151.744 44.4746 155.943C43.3727 157.299 41.3958 157.966 38.4548 157.966C34.9952 157.966 30.8145 157.076 26.3746 156.135C21.9347 155.195 17.0896 154.113 13.0386 154.113C9.74107 154.113 7.22944 154.78 5.34166 156.135C5.34166 156.135 2.18186 158.442 0.836914 161.425L2.14945 162.164C4.186 163.544 6.07286 165.243 7.76417 167.221C9.51558 169.258 11.4742 170.999 13.5895 172.399C14.2707 172.723 14.8892 173.222 15.4044 173.866C14.8454 174.877 14.0352 176.182 13.1844 177.578C8.50956 185.214 5.78727 190.038 7.35097 192.668C8.09953 193.157 8.93727 193.394 9.78158 193.356C19.9821 193.356 25.451 190.048 32.3863 185.861C34.3875 184.647 36.4373 183.393 38.868 182.119C42.919 179.924 47.2779 176.425 51.8961 172.723C58.0131 167.817 64.3408 162.74 70.466 160.282C75.5131 158.361 80.7704 157.44 86.0462 157.551C92.5279 157.551 99.3498 158.634 105.929 159.686C110.839 160.474 115.91 161.284 120.893 161.708C122.83 161.85 124.62 161.921 126.37 161.921C128.7 161.929 131.029 161.777 133.346 161.466L133.897 161.223C137.397 158.543 139.034 152.788 140.614 147.225C141.634 143.644 142.493 140.428 143.854 138.385C143.936 138.283 144.025 138.191 144.122 138.112C144.186 138.068 144.259 138.052 144.332 138.066C144.404 138.081 144.47 138.126 144.519 138.193C144.533 138.245 144.533 138.302 144.519 138.355C143.709 160.11 136.684 173.916 129.595 186.195L124.782 192.496C124.782 192.496 131.41 192.496 135.185 190.675C148.959 185.537 159.362 174.21 166.929 156.146C168.794 151.509 170.46 146.752 171.92 141.895C172.05 141.49 173.249 140.742 173.127 142.835C173.127 143.452 173.062 144.14 173.022 144.858C173.022 145.283 172.973 145.718 172.957 146.153C172.754 149.187 172.147 155.599 172.147 155.599L176.4 152.757C186.658 144.666 194.565 128.342 200.561 102.945C203.064 92.3656 204.887 81.857 206.499 72.6025C208.428 61.4769 210.089 51.9393 211.993 48.2375C214.982 42.432 219.544 38.5077 223.959 34.6946C224.567 34.1788 225.167 33.6832 225.758 33.137C231.316 28.2721 236.834 22.6587 238.041 12.1906V11.9579C238.964 4.1498 238.211 2.20788 237.401 1.24704Z" fill="url(#paint0_linear)"/>
<defs>
<linearGradient id="paint0_linear" x1="119.651" y1="0.233948" x2="119.651" y2="193.36" gradientUnits="userSpaceOnUse">
<stop stop-color="#8598EB"/>
<stop offset="1" stop-color="#A5C8FF"/>
</linearGradient>
</defs>
</svg>
