<svg width="180" height="193" viewBox="0 0 180 193" fill="none" xmlns="http://www.w3.org/2000/svg">
<path d="M175.875 115.491C173.239 129.042 152.259 143.871 128.165 146.746C115.6 148.243 103.23 149.62 90.0387 149.015C68.4658 148.028 51.4432 143.871 51.4432 143.871C51.4432 145.969 51.5727 147.967 51.8318 149.835C54.6364 171.102 72.9426 172.376 90.2832 172.97C107.785 173.569 123.37 168.66 123.37 168.66L124.089 184.466C124.089 184.466 111.847 191.033 90.0387 192.24C78.0131 192.901 63.0813 191.938 45.69 187.34C7.97108 177.367 1.48429 137.203 0.491742 96.4506C0.189211 84.3509 0.375703 72.9415 0.375703 63.3992C0.375703 21.7275 27.7081 9.51292 27.7081 9.51292C41.4898 3.19034 65.1379 0.531532 89.7227 0.33075H90.3267C114.911 0.531532 138.575 3.19034 152.356 9.51292C152.356 9.51292 179.687 21.7275 179.687 63.3992C179.687 63.3992 180.03 94.1447 175.875 115.491Z" fill="url(#paint0_linear)"/>
<path d="M147.458 66.64V117.097H127.447V68.1231C127.447 57.7994 123.099 52.5594 114.401 52.5594C104.784 52.5594 99.9643 58.7754 99.9643 71.0666V97.8731H80.0709V71.0666C80.0709 58.7754 75.2501 52.5594 65.6333 52.5594C56.9356 52.5594 52.5872 57.7994 52.5872 68.1231V117.097H32.5757V66.64C32.5757 56.3277 35.2042 48.1329 40.484 42.0701C45.9285 36.0073 53.0586 32.8993 61.9097 32.8993C72.1502 32.8993 79.9051 36.8311 85.0326 44.6958L90.0171 53.0427L95.0026 44.6958C100.129 36.8311 107.884 32.8993 118.125 32.8993C126.976 32.8993 134.106 36.0073 139.551 42.0701C144.83 48.1329 147.458 56.3277 147.458 66.64Z" fill="white"/>
<defs>
<linearGradient id="paint0_linear" x1="90.0064" y1="0.33075" x2="90.0064" y2="192.428" gradientUnits="userSpaceOnUse">
<stop stop-color="#8598EB"/>
<stop offset="1" stop-color="#A5C8FF"/>
</linearGradient>
</defs>
</svg>
