<svg width="185" height="193" viewBox="0 0 185 193" fill="none" xmlns="http://www.w3.org/2000/svg">
<path d="M11.5697 10.7362V182.017H23.9845V186.127H6.80566V6.6272H23.9845V10.7362H11.5697Z" fill="url(#paint0_linear)"/>
<path fill-rule="evenodd" clip-rule="evenodd" d="M23.9834 6.62691H6.80459V186.127H23.9834V182.017H11.5687V10.7359H23.9834V6.62691ZM17.8669 17.0342H30.2816V0.328674H0.506348V192.425H30.2816V175.719H17.8669V17.0342Z" fill="url(#paint1_linear)"/>
<path d="M59.403 65.035V73.7028H59.6515C61.9799 70.4033 64.7843 67.8415 68.0697 66.0252C71.3529 64.2121 75.1165 63.3018 79.3557 63.3018C83.4284 63.3018 87.1496 64.0879 90.5161 65.6548C93.8835 67.2243 96.4406 69.9882 98.1866 73.9511C100.097 71.1452 102.695 68.668 105.981 66.5219C109.264 64.3768 113.15 63.3018 117.641 63.3018C121.049 63.3018 124.207 63.7154 127.119 64.5409C130.027 65.3665 132.522 66.6871 134.6 68.5028C136.677 70.3202 138.298 72.6934 139.464 75.6214C140.627 78.5547 141.21 82.0818 141.21 86.2105V129.052L123.502 129.051V92.7716C123.502 90.6265 123.419 88.6039 123.252 86.704C123.084 84.8067 122.629 83.1567 121.881 81.7513C121.132 80.3492 120.029 79.2337 118.576 78.4076C117.121 77.5853 115.146 77.1701 112.652 77.1701C110.158 77.1701 108.142 77.6476 106.604 78.5936C105.064 79.5444 103.86 80.7835 102.988 82.3088C102.115 83.8378 101.533 85.5704 101.242 87.5114C100.95 89.4503 100.805 91.4115 100.805 93.3925V129.052H83.0978V93.1446C83.0978 91.2463 83.0543 89.3677 82.9744 87.5114C82.8896 85.653 82.5375 83.9407 81.9127 82.3712C81.289 80.8043 80.2493 79.5444 78.7948 78.5936C77.3397 77.6476 75.1992 77.1701 72.3727 77.1701C71.5403 77.1701 70.4389 77.3561 69.0686 77.7287C67.6967 78.1001 66.3656 78.8031 65.0779 79.8333C63.7876 80.8661 62.6873 82.352 61.7727 84.2903C60.8576 86.2313 60.4008 88.7681 60.4008 91.9045V129.051L42.6938 129.052V65.035H59.403Z" fill="url(#paint2_linear)"/>
<path fill-rule="evenodd" clip-rule="evenodd" d="M59.403 65.035H42.6938V129.052L60.4008 129.051V91.9045C60.4008 88.7681 60.8576 86.2313 61.7727 84.2903C62.6873 82.352 63.7876 80.8661 65.0779 79.8333C66.3656 78.8031 67.6967 78.1001 69.0686 77.7287C70.4389 77.3561 71.5402 77.1701 72.3727 77.1701C75.1992 77.1701 77.3397 77.6476 78.7948 78.5936C80.2493 79.5444 81.289 80.8043 81.9127 82.3712C82.5375 83.9407 82.8896 85.653 82.9744 87.5114C83.0543 89.3677 83.0978 91.2463 83.0978 93.1446V129.052H100.805V93.3925C100.805 91.4115 100.95 89.4503 101.242 87.5114C101.533 85.5704 102.115 83.8378 102.988 82.3088C103.86 80.7835 105.064 79.5444 106.604 78.5936C108.142 77.6476 110.158 77.1701 112.652 77.1701C115.146 77.1701 117.121 77.5853 118.576 78.4076C120.029 79.2337 121.132 80.3492 121.881 81.7513C122.629 83.1567 123.084 84.8067 123.252 86.704C123.419 88.6039 123.502 90.6265 123.502 92.7716V129.051L141.21 129.052V86.2105C141.21 82.0818 140.627 78.5547 139.464 75.6214C138.298 72.6934 136.677 70.3202 134.6 68.5028C132.522 66.6871 130.027 65.3665 127.119 64.5409C124.207 63.7154 121.049 63.3018 117.641 63.3018C113.15 63.3018 109.264 64.3768 105.981 66.5219C103.27 68.2924 101.028 70.2881 99.2532 72.5078C98.8766 72.9788 98.521 73.46 98.1866 73.9511C97.9396 73.3906 97.6764 72.854 97.397 72.3415C95.701 69.2302 93.4072 67.0023 90.5161 65.6548C87.1496 64.0879 83.4284 63.3018 79.3557 63.3018C75.1165 63.3018 71.3529 64.2121 68.0697 66.0252C65.3855 67.5091 63.0224 69.4907 60.9776 71.9656C60.5196 72.52 60.0776 73.099 59.6515 73.7028H59.403V65.035ZM68.8315 67.4032C65.7709 69.0952 63.1406 71.4894 60.938 74.6106L60.4675 75.2773H57.8285V66.6095H44.2684V127.477L58.8262 127.477V91.9045C58.8262 88.6349 59.2994 85.8439 60.3485 83.6188C61.3356 81.5268 62.5687 79.825 64.094 78.604C65.5224 77.4612 67.044 76.6458 68.6555 76.2092C70.0803 75.8219 71.3368 75.5956 72.3727 75.5956C75.3333 75.5956 77.8296 76.0881 79.653 77.2735L79.6563 77.2756C81.3736 78.3982 82.6282 79.9112 83.3756 81.7888C84.0719 83.5381 84.4554 85.4252 84.5473 87.4396L84.5475 87.4436C84.6283 89.321 84.6724 91.2223 84.6724 93.1446V127.477H99.2308V93.3925C99.2308 91.3348 99.3807 89.295 99.6853 87.2765L101.242 87.5114L99.685 87.2784C99.6851 87.2778 99.6852 87.2772 99.6853 87.2765C100.001 85.1647 100.641 83.2436 101.62 81.5283C102.626 79.7688 104.019 78.3391 105.776 77.254L105.779 77.2524C107.641 76.1073 109.971 75.5956 112.652 75.5956C115.296 75.5956 117.572 76.0318 119.351 77.0368L119.354 77.0388C121.052 78.0039 122.373 79.3307 123.27 81.0097L123.271 81.0114C124.136 82.6372 124.638 84.4997 124.821 86.5651C124.992 88.5165 125.076 90.5865 125.076 92.7716V127.477L139.636 127.477V86.2105C139.636 82.2241 139.072 78.9054 138.002 76.2041M68.8315 67.4032C71.8532 65.7346 75.3487 64.8764 79.3557 64.8764C83.2207 64.8764 86.7122 65.6211 89.8516 67.0823C92.8169 68.4646 95.127 70.912 96.7457 74.586L97.8902 77.1838L99.488 74.8374C101.265 72.2275 103.704 69.8901 106.842 67.8401C109.834 65.8853 113.411 64.8764 117.641 64.8764C120.922 64.8764 123.933 65.2743 126.689 66.0556C129.395 66.8237 131.677 68.0399 133.564 69.6882C135.427 71.3191 136.914 73.4747 138.002 76.2041" fill="url(#paint3_linear)"/>
<path d="M173.403 182.017V10.7362H160.988V6.6272H178.168V186.127H160.988V182.017H173.403Z" fill="url(#paint4_linear)"/>
<path fill-rule="evenodd" clip-rule="evenodd" d="M160.991 186.127H178.171V6.62704H160.991V10.736H173.406V182.017H160.991V186.127ZM167.108 175.719H154.693V192.425H184.469V0.328796H154.693V17.0343H167.108V175.719Z" fill="url(#paint5_linear)"/>
<defs>
<linearGradient id="paint0_linear" x1="15.3951" y1="6.6272" x2="15.3951" y2="186.127" gradientUnits="userSpaceOnUse">
<stop stop-color="#8598EB"/>
<stop offset="1" stop-color="#A5C8FF"/>
</linearGradient>
<linearGradient id="paint1_linear" x1="15.394" y1="0.328674" x2="15.394" y2="192.425" gradientUnits="userSpaceOnUse">
<stop stop-color="#8598EB"/>
<stop offset="1" stop-color="#A5C8FF"/>
</linearGradient>
<linearGradient id="paint2_linear" x1="91.9521" y1="63.3018" x2="91.9521" y2="129.052" gradientUnits="userSpaceOnUse">
<stop stop-color="#8598EB"/>
<stop offset="1" stop-color="#A5C8FF"/>
</linearGradient>
<linearGradient id="paint3_linear" x1="91.9521" y1="63.3018" x2="91.9521" y2="129.052" gradientUnits="userSpaceOnUse">
<stop stop-color="#8598EB"/>
<stop offset="1" stop-color="#A5C8FF"/>
</linearGradient>
<linearGradient id="paint4_linear" x1="169.578" y1="6.6272" x2="169.578" y2="186.127" gradientUnits="userSpaceOnUse">
<stop stop-color="#8598EB"/>
<stop offset="1" stop-color="#A5C8FF"/>
</linearGradient>
<linearGradient id="paint5_linear" x1="169.581" y1="0.328796" x2="169.581" y2="192.425" gradientUnits="userSpaceOnUse">
<stop stop-color="#8598EB"/>
<stop offset="1" stop-color="#A5C8FF"/>
</linearGradient>
</defs>
</svg>
