<svg width="119" height="193" viewBox="0 0 119 193" fill="none" xmlns="http://www.w3.org/2000/svg">
<path d="M117.653 59.6754C111.549 49.5864 105.429 39.5073 99.2927 29.4382C96.103 24.2518 92.8095 19.0653 89.6328 13.8788C89.2309 13.2305 88.7252 12.66 88.3362 12.0636C82.4625 3.11689 70.9097 -2.86052 59.6161 2.81867C54.7447 5.16678 51.019 9.37112 49.2738 14.4896C47.5287 19.6081 47.91 25.2127 50.3323 30.0477C52.2902 33.8597 55.5188 37.0753 58.5529 40.265C67.7848 50.0674 77.3149 59.5976 86.482 69.4778C92.9231 76.3995 95.5618 86.0389 93.5442 95.276C91.5325 104.486 85.1465 112.129 76.4454 115.748C76.3945 115.769 76.3406 115.784 76.2856 115.788C75.9862 115.812 75.759 115.553 75.759 115.253V74.4282C75.759 72.4523 73.67 71.1819 71.9403 72.137C57.2113 80.2702 43.9578 90.8463 32.7502 103.423C15.3548 122.82 4.45907 146.64 0.102355 165.371C-0.391418 167.494 1.81924 169.14 3.75978 168.147L30.0921 154.679C39.2202 150.058 48.2479 145.537 57.5993 140.772C59.3576 139.876 61.4443 141.152 61.4443 143.125V178.868C61.4443 179.469 61.6496 180.053 62.0263 180.521L71.0098 191.702C72.5709 193.645 75.7072 192.541 75.7072 190.049V132.936C75.7072 131.968 76.2567 131.075 77.1075 130.613C81.4227 128.556 85.6098 126.239 89.6458 123.676C99.7894 116.571 106.318 105.384 107.514 93.0568C108.711 80.7298 104.457 68.4961 95.8696 59.5717C85.2373 48.4467 74.5402 37.3736 63.9209 26.2356C60.8349 22.9941 60.8998 18.8967 63.9209 16.0182C66.942 13.1397 71.0653 13.425 74.1771 16.6017L78.6116 21.0751C82.1384 24.8352 85.6263 28.6343 89.179 32.3556C98.1577 41.7664 107.156 51.1583 116.175 60.5312C116.552 60.9192 116.992 61.2535 117.413 61.6086C117.565 61.7368 117.782 61.7575 117.952 61.6546C118.115 61.5562 118.2 61.3662 118.156 61.181C118.035 60.665 117.866 60.161 117.653 59.6754ZM61.4077 122.139C61.4062 122.317 61.3911 122.494 61.3367 122.663C61.1334 123.292 60.6956 123.824 60.1088 124.143C54.4167 127.164 48.6726 130.108 42.9416 133.051L29.0143 140.192C26.7657 141.345 24.4107 139.018 25.6311 136.806C34.425 120.863 46.364 106.84 60.7504 95.5999C60.9884 95.414 61.4703 95.4583 61.4703 95.7603C61.4574 104.553 61.4827 113.346 61.4077 122.139Z" fill="url(#paint0_linear)"/>
<defs>
<linearGradient id="paint0_linear" x1="59.1" y1="0.596802" x2="59.1" y2="192.694" gradientUnits="userSpaceOnUse">
<stop stop-color="#F7BAC5"/>
<stop offset="1" stop-color="#EC98BC"/>
</linearGradient>
</defs>
</svg>
