<svg width="192" height="192" viewBox="0 0 192 192" fill="none" xmlns="http://www.w3.org/2000/svg">
<rect width="192" height="192" rx="10" fill="url(#paint0_linear)"/>
<path d="M26.4828 68.4138L41.6851 100.497C41.8374 100.818 41.8075 101.196 41.6067 101.49L26.4828 123.586" stroke="white" stroke-width="10" stroke-linecap="round"/>
<path d="M114.291 68.8C117.171 68.8 118.664 70.2933 118.771 73.28L120.851 124H109.571L107.731 78.16H106.291L97.4109 112.64C96.8776 115.2 95.2776 116.48 92.6109 116.48H84.9309C82.2109 116.48 80.5843 115.2 80.0509 112.64L71.0909 78.16H69.7309L68.0509 124H56.7709L58.7709 73.28C58.8776 70.2933 60.3976 68.8 63.3309 68.8H74.7709C77.3843 68.8 78.9843 70.08 79.5709 72.64L86.6909 100.48C87.0109 101.76 87.2776 103.067 87.4909 104.4C87.7043 105.68 87.9443 106.987 88.2109 108.32H89.2509C89.5176 106.987 89.7576 105.68 89.9709 104.4C90.1843 103.067 90.4509 101.733 90.7709 100.4L97.8109 72.64C98.3443 70.08 99.9709 68.8 102.691 68.8H114.291ZM152.056 68C157.176 68 161.203 68.5333 164.136 69.6C167.123 70.6667 169.229 72.5067 170.456 75.12C171.736 77.7333 172.376 81.3867 172.376 86.08C172.376 90.7733 171.763 94.4267 170.536 97.04C169.363 99.6533 167.389 101.467 164.616 102.48C161.896 103.493 158.243 104.027 153.656 104.08C151.843 104.027 150.029 103.947 148.216 103.84C146.456 103.733 144.749 103.6 143.096 103.44V124H130.936V68.8C133.123 68.5867 135.203 68.4267 137.176 68.32C139.149 68.2133 141.283 68.1333 143.576 68.08C145.923 68.0267 148.749 68 152.056 68ZM151.816 77.2C150.216 77.2 148.669 77.2 147.176 77.2C145.736 77.2 144.376 77.2 143.096 77.2V94.88H151.816C155.016 94.88 157.203 94.2933 158.376 93.12C159.549 91.9467 160.136 89.6 160.136 86.08C160.136 82.56 159.549 80.2133 158.376 79.04C157.203 77.8133 155.016 77.2 151.816 77.2Z" fill="white"/>
<defs>
<linearGradient id="paint0_linear" x1="96" y1="0" x2="96" y2="192" gradientUnits="userSpaceOnUse">
<stop stop-color="#8598EB"/>
<stop offset="1" stop-color="#A5C8FF"/>
</linearGradient>
</defs>
</svg>
