<svg width="151" height="194" viewBox="0 0 151 194" fill="none" xmlns="http://www.w3.org/2000/svg">
<path d="M75.8483 0.787598C73.8209 0.787589 71.8135 1.18906 69.9404 1.96911C68.0673 2.74915 66.3653 3.89248 64.9317 5.33382C63.4981 6.77516 62.361 8.48629 61.5851 10.3695C60.8093 12.2527 60.4099 14.2711 60.41 16.3095C60.4099 18.3479 60.8093 20.3663 61.5851 22.2495C62.361 24.1327 63.4981 25.8438 64.9317 27.2852C66.3653 28.7265 68.0673 29.8698 69.9404 30.6499C71.8135 31.4299 73.8209 31.8314 75.8483 31.8314C77.8757 31.8314 79.8834 31.4299 81.7564 30.6499C83.6295 29.8698 85.3314 28.7265 86.765 27.2851C88.1986 25.8438 89.3357 24.1327 90.1115 22.2495C90.8874 20.3663 91.2867 18.3479 91.2867 16.3095C91.2867 14.2711 90.8874 12.2527 90.1115 10.3695C89.3357 8.48631 88.1986 6.77518 86.765 5.33384C85.3314 3.8925 83.6295 2.74917 81.7564 1.96912C79.8834 1.18908 77.8757 0.787595 75.8483 0.787598ZM75.5839 42.9973C55.7642 42.9975 36.7563 50.9034 22.7416 64.9757C8.72699 79.0481 0.85362 98.1342 0.853516 118.035C0.853619 137.937 8.72699 157.023 22.7416 171.095C36.7563 185.168 55.7642 193.073 75.5839 193.074C85.3978 193.074 95.1156 191.133 104.182 187.362C113.249 183.591 121.488 178.064 128.427 171.096C135.367 164.128 140.872 155.856 144.627 146.752C148.383 137.647 150.316 127.89 150.316 118.035C150.316 108.181 148.383 98.4235 144.627 89.3193C140.872 80.2152 135.367 71.9431 128.427 64.9751C121.488 58.0072 113.249 52.4799 104.182 48.709C95.1156 44.938 85.3978 42.9972 75.5839 42.9973ZM75.4254 60.2228C82.9965 60.2228 90.4934 61.7221 97.4881 64.6351C104.483 67.5481 110.839 71.8177 116.192 77.2002C121.546 82.5828 125.792 88.9728 128.69 96.0054C131.587 103.038 133.078 110.575 133.078 118.188C133.078 125.8 131.587 133.337 128.69 140.37C125.792 147.402 121.546 153.792 116.192 159.175C110.839 164.557 104.483 168.827 97.4881 171.74C90.4934 174.653 82.9965 176.152 75.4254 176.152C60.1351 176.152 45.4711 170.045 34.6593 159.174C23.8475 148.304 17.7735 133.561 17.7736 118.188C17.7735 102.814 23.8475 88.071 34.6593 77.2006C45.4711 66.3301 60.1351 60.223 75.4254 60.2228ZM75.457 73.4984C63.7714 73.4984 52.5643 78.213 44.3013 86.6C36.0383 94.9869 31.3961 106.362 31.396 118.223C31.396 124.096 32.5356 129.912 34.7498 135.338C36.964 140.764 40.2096 145.694 44.301 149.847C48.3925 154 53.2496 157.294 58.5954 159.542C63.9411 161.789 69.6708 162.946 75.457 162.946C75.5551 162.942 75.6532 162.937 75.7513 162.932V73.5139C75.6532 73.5084 75.5551 73.5032 75.457 73.4984Z" fill="url(#paint0_linear)"/>
<defs>
<linearGradient id="paint0_linear" x1="106.701" y1="1.25587" x2="45.2788" y2="45.4261" gradientUnits="userSpaceOnUse">
<stop stop-color="#BDECF4"/>
<stop offset="1" stop-color="#98CCF9"/>
</linearGradient>
</defs>
</svg>
