<svg width="192" height="192" viewBox="0 0 192 192" fill="none" xmlns="http://www.w3.org/2000/svg">
<rect width="192" height="192" rx="10" fill="url(#paint0_linear)"/>
<path d="M26.4827 68.4138L41.685 100.497C41.8373 100.818 41.8074 101.196 41.6065 101.49L26.4827 123.586" stroke="white" stroke-width="10" stroke-linecap="round"/>
<path d="M111.345 67.3173V118.117C111.345 121.051 109.878 122.517 106.945 122.517H100.225C98.8913 122.517 97.8779 122.224 97.1846 121.637C96.5446 120.997 95.9046 120.064 95.2646 118.837L79.9846 89.7973C79.3446 88.624 78.7046 87.2907 78.0646 85.7973C77.4779 84.304 76.9713 82.864 76.5446 81.4773H75.6646C76.0379 84.464 76.2246 87.344 76.2246 90.1173V122.517H64.7046V71.7173C64.7046 68.784 66.1713 67.3173 69.1046 67.3173H75.7446C77.0246 67.3173 77.9846 67.6373 78.6246 68.2773C79.3179 68.864 79.9846 69.744 80.6246 70.9173L95.4246 99.0773C96.0646 100.304 96.7313 101.691 97.4246 103.237C98.1179 104.731 98.7846 106.251 99.4246 107.797H100.385C100.225 106.251 100.091 104.731 99.9846 103.237C99.9313 101.691 99.9046 100.144 99.9046 98.5973V67.3173H111.345ZM143.881 66.3573C146.441 66.3573 148.654 66.4373 150.521 66.5973C152.388 66.704 154.094 66.8907 155.641 67.1573C157.188 67.424 158.788 67.7707 160.441 68.1973L159.481 77.2373C157.721 77.1307 156.094 77.0507 154.601 76.9973C153.108 76.944 151.508 76.8907 149.801 76.8373C148.148 76.784 146.174 76.7573 143.881 76.7573C141.161 76.7573 139.028 77.3173 137.481 78.4373C135.934 79.504 134.841 81.344 134.201 83.9573C133.614 86.5707 133.321 90.224 133.321 94.9173C133.321 99.5573 133.614 103.211 134.201 105.877C134.841 108.491 135.934 110.331 137.481 111.397C139.028 112.464 141.161 112.997 143.881 112.997C147.561 112.997 150.654 112.971 153.161 112.917C155.668 112.811 158.148 112.597 160.601 112.277L161.641 121.237C159.081 122.037 156.468 122.597 153.801 122.917C151.134 123.291 147.828 123.477 143.881 123.477C138.174 123.477 133.588 122.571 130.121 120.757C126.708 118.891 124.254 115.877 122.761 111.717C121.268 107.557 120.521 101.957 120.521 94.9173C120.521 87.8773 121.268 82.2773 122.761 78.1173C124.254 73.9573 126.708 70.9707 130.121 69.1573C133.588 67.2907 138.174 66.3573 143.881 66.3573Z" fill="white"/>
<defs>
<linearGradient id="paint0_linear" x1="96" y1="0" x2="96" y2="192" gradientUnits="userSpaceOnUse">
<stop stop-color="#92C3EB"/>
<stop offset="1" stop-color="#B6E2D2"/>
</linearGradient>
</defs>
</svg>
