<svg width="193" height="193" viewBox="0 0 193 193" fill="none" xmlns="http://www.w3.org/2000/svg">
<path d="M0.566406 28.3594C0.566406 13.0266 12.9961 0.596802 28.329 0.596802H164.901C180.233 0.596802 192.663 13.0265 192.663 28.3594V164.931C192.663 180.264 180.233 192.694 164.901 192.694H28.329C12.9962 192.694 0.566406 180.264 0.566406 164.931V28.3594Z" fill="url(#paint0_linear)"/>
<path d="M95.2811 60.9765C79.0089 60.9765 65.2169 72.1604 60.9423 87.3134C57.2272 79.276 49.1765 73.6451 39.9035 73.6451C27.1509 73.6451 16.668 84.273 16.668 97.2018C16.668 110.131 27.1509 120.763 39.9035 120.763C49.1765 120.763 57.2272 115.129 60.9423 107.09C65.2169 122.244 79.0089 133.432 95.2811 133.432C111.433 133.432 125.155 122.413 129.539 107.43C133.322 115.286 141.273 120.763 150.415 120.763C163.167 120.763 173.655 110.131 173.655 97.2018C173.655 84.273 163.167 73.6451 150.415 73.6451C141.273 73.6451 133.322 79.1188 129.539 86.9737C125.155 71.9917 111.433 60.9765 95.2811 60.9765ZM95.2811 74.8048C107.565 74.8048 117.378 84.7484 117.378 97.2018C117.378 109.655 107.565 119.604 95.2811 119.604C82.9975 119.604 73.1894 109.655 73.1894 97.2018C73.1894 84.7484 82.9975 74.8048 95.2811 74.8048ZM39.9035 87.4735C45.2852 87.4735 49.504 91.7457 49.504 97.2018C49.504 102.658 45.2852 106.935 39.9035 106.935C34.5218 106.935 30.3078 102.658 30.3078 97.2018C30.3078 91.7457 34.5218 87.4735 39.9035 87.4735V87.4735ZM150.415 87.4735C155.796 87.4735 160.015 91.7457 160.015 97.2018C160.015 102.658 155.796 106.935 150.415 106.935C145.033 106.935 140.819 102.658 140.819 97.2018C140.819 91.7457 145.033 87.4735 150.415 87.4735V87.4735Z" fill="white"/>
<defs>
<linearGradient id="paint0_linear" x1="136.607" y1="1.06462" x2="72.0747" y2="60.7676" gradientUnits="userSpaceOnUse">
<stop stop-color="#BDECF4"/>
<stop offset="1" stop-color="#98CCF9"/>
</linearGradient>
</defs>
</svg>
