<svg width="194" height="193" viewBox="0 0 194 193" fill="none" xmlns="http://www.w3.org/2000/svg">
<path d="M0.9375 20.9994C0.9375 9.73135 10.0721 0.596802 21.3401 0.596802H172.632C183.9 0.596802 193.034 9.73136 193.034 20.9994V172.291C193.034 183.559 183.9 192.694 172.632 192.694H21.3401C10.072 192.694 0.9375 183.559 0.9375 172.291V20.9994Z" fill="url(#paint0_linear)"/>
<path fill-rule="evenodd" clip-rule="evenodd" d="M86.925 41.7529C80.2936 42.2435 74.6267 43.0904 70.3333 44.2323C69.5526 44.44 68.5147 44.7154 68.0266 44.8437C67.5385 44.9726 66.3011 45.3718 65.2763 45.731C56.0876 48.9507 48.7064 54.0223 42.8581 61.1328C41.1341 63.2287 41.2725 63.1757 39.9896 62.2368C34.4051 58.1521 25.8081 61.5279 24.2059 68.4352C23.0174 73.5594 26.0886 79.1984 30.8444 80.6233C31.9318 80.9492 32.0182 81.1443 31.6023 82.3342C31.0364 83.9537 30.3517 86.1315 30.1658 86.9036C30.0718 87.2942 29.8227 88.2921 29.612 89.1218C29.0991 91.1394 28.6297 93.1823 28.3073 94.8002C28.1613 95.5324 27.9551 96.5566 27.8495 97.0766C26.1098 105.608 33.8771 120.709 44.8995 130.225C45.7888 130.993 46.7251 131.811 46.9798 132.044C47.6766 132.679 53.3727 136.906 54.1857 137.391C54.5758 137.623 54.9351 137.865 54.9841 137.927C55.1736 138.17 60.8662 141.485 63.0131 142.603C67.2293 144.797 73.4716 147.417 76.988 148.469C85.7785 151.097 89.3367 151.673 96.7736 151.673C103.88 151.673 109.809 150.772 116.382 148.693C122.992 146.603 128.062 144.549 133.24 141.863C135.888 140.491 135.88 140.495 138.945 138.679C140.472 137.774 141.779 137.033 141.85 137.033C141.92 137.033 142.427 136.678 142.976 136.244C143.526 135.809 145.133 134.597 146.548 133.551C150.485 130.64 154.725 126.72 157.553 123.375C162.698 117.291 165.736 111.106 166.702 104.753C167.005 102.751 167.03 99.9284 166.756 98.4489C166.537 97.2655 165.225 90.8196 165.002 89.8317C164.665 88.3351 163.057 82.7066 162.695 81.7547C162.499 81.2383 162.844 80.6041 163.322 80.6041C164.669 80.6041 167.858 77.3218 168.839 74.9257C172.291 66.4944 163.219 58.4264 154.785 62.4283C154.045 62.7795 153.421 63.0402 153.397 63.0074C148.585 56.2532 141.138 50.317 133.255 46.9503C127.325 44.4178 120.988 42.9166 112.301 41.9873C109.164 41.6518 90.607 41.48 86.925 41.7529ZM36.972 64.1973C39.3575 65.2524 39.4964 65.5556 38.4131 67.3428C36.8523 69.9187 35.6027 72.3361 34.2187 75.4582C32.959 78.3005 32.4285 78.4192 29.8004 76.4466C23.315 71.5786 29.5569 60.918 36.972 64.1973ZM161.345 64.6708C167.293 66.4171 168.111 74.6806 162.609 77.4284C161.498 77.9837 161.336 77.8755 160.585 76.0792C159.518 73.5295 158.051 70.5413 156.778 68.3241C156.13 67.1937 155.598 66.1028 155.598 65.8997C155.598 64.88 159.336 64.0806 161.345 64.6708ZM74.4979 71.6772C81.3153 74.2228 81.9979 84.6485 75.5681 88.0228C68.7679 91.5911 62.0662 83.1366 65.7695 75.6614C67.4223 72.3249 71.3858 70.5155 74.4979 71.6772ZM123.284 71.7408C129.964 74.2799 130.538 84.7121 124.182 88.0769C119.179 90.7251 113.365 86.4225 113.365 80.072C113.365 74.2375 118.501 69.9233 123.284 71.7408ZM76.0208 81.2004C74.9314 82.2898 75.8945 84.3842 77.2462 83.8658C77.9637 83.5904 78.2401 82.3115 77.7514 81.5298C77.5857 81.2645 77.4457 81.0346 77.4407 81.0179C77.3376 80.7016 76.3993 80.8219 76.0208 81.2004ZM124.742 81.117C124.046 81.8133 124.039 82.9375 124.727 83.6252C125.894 84.7935 127.322 82.6414 126.283 81.2797C125.898 80.7759 125.161 80.6981 124.742 81.117ZM99.3465 89.4912C101.55 89.6973 103.478 90.1147 105.025 90.721C105.562 90.9317 106.161 91.1515 106.356 91.2096C109.59 92.1727 112.365 96.0033 111.771 98.6824C109.763 107.734 91.3432 109.882 84.0504 101.916C78.2249 95.5536 87.0973 88.3467 99.3465 89.4912ZM98.9165 109.255C99.5921 109.495 100.944 109.98 101.919 110.332C102.896 110.685 104.613 111.292 105.735 111.681C106.857 112.072 107.935 112.463 108.13 112.552C108.326 112.641 108.844 112.838 109.284 112.99C109.723 113.142 110.961 113.578 112.034 113.957C118.826 116.359 118.23 116.038 118.107 117.232C117.664 121.523 113.805 127.44 109.731 130.077C102.568 134.713 91.5757 134.626 84.5294 129.879C80.6892 127.291 77.3078 121.894 76.2533 116.669C75.9799 115.315 76.0309 115.25 77.7863 114.719C80.094 114.021 83.8149 112.873 84.5294 112.638C84.92 112.511 85.6385 112.286 86.1266 112.139C87.6309 111.687 91.2341 110.573 91.9824 110.33C92.373 110.202 93.1315 109.969 93.6681 109.811C94.2052 109.653 95.1233 109.368 95.7089 109.177C97.0975 108.725 97.4481 108.734 98.9165 109.255Z" fill="white"/>
<defs>
<linearGradient id="paint0_linear" x1="96.9859" y1="0.596802" x2="96.9859" y2="192.694" gradientUnits="userSpaceOnUse">
<stop stop-color="#92C3EB"/>
<stop offset="1" stop-color="#B6E2D2"/>
</linearGradient>
</defs>
</svg>
