<svg width="192" height="194" viewBox="0 0 192 194" fill="none" xmlns="http://www.w3.org/2000/svg">
<path fill-rule="evenodd" clip-rule="evenodd" d="M30.0099 0.787598C13.8146 0.787598 0.685791 14.0321 0.685791 30.3701V163.491C0.685791 179.829 13.8146 193.074 30.0099 193.074H161.968C178.164 193.074 191.292 179.829 191.292 163.491V30.3701C191.292 14.0321 178.164 0.787598 161.968 0.787598H30.0099ZM32.7347 63.3231C32.7347 56.0397 38.6253 50.1353 45.8916 50.1353H151.147C158.413 50.1353 164.304 56.0397 164.304 63.3231V142.45C164.304 149.733 158.413 155.637 151.147 155.637H45.8916C38.6253 155.637 32.7347 149.733 32.7347 142.45V63.3231ZM150.131 69.6928C152.071 72.7718 151.153 76.8443 148.081 78.789L101.21 108.461C99.0479 109.83 96.2906 109.819 94.1397 108.433L48.0904 78.7605C45.0343 76.7913 44.1494 72.7115 46.1141 69.6482C48.0788 66.5849 52.149 65.698 55.2051 67.6673L97.7283 95.0677L141.056 67.6389C144.128 65.6942 148.19 66.6138 150.131 69.6928Z" fill="url(#paint0_linear)"/>
<defs>
<linearGradient id="paint0_linear" x1="135.671" y1="1.25587" x2="71.1217" y2="60.4532" gradientUnits="userSpaceOnUse">
<stop stop-color="#BDECF4"/>
<stop offset="1" stop-color="#98CCF9"/>
</linearGradient>
</defs>
</svg>
