<svg width="192" height="192" viewBox="0 0 192 192" fill="none" xmlns="http://www.w3.org/2000/svg">
<rect width="192" height="192" rx="10" fill="url(#paint0_linear)"/>
<path d="M26.4827 68.4138L41.685 100.497C41.8373 100.818 41.8074 101.196 41.6065 101.49L26.4827 123.586" stroke="white" stroke-width="10" stroke-linecap="round"/>
<path d="M91.3078 68C96.1611 68 100.081 68.5067 103.068 69.52C106.108 70.48 108.321 72.16 109.708 74.56C111.148 76.9067 111.868 80.1867 111.868 84.4C111.868 88.2933 111.068 91.44 109.468 93.84C107.921 96.1867 105.174 97.6 101.228 98.08V98.48C102.668 98.8 104.188 99.5733 105.788 100.8C107.388 101.973 108.508 103.973 109.148 106.8L113.948 124H101.148L96.9078 107.12C96.3745 105.36 95.6278 104.133 94.6678 103.44C93.7611 102.747 92.4811 102.4 90.8278 102.4C87.3078 102.4 84.4011 102.373 82.1078 102.32V124H70.1078V68.8C72.2945 68.5867 74.3745 68.4267 76.3478 68.32C78.3211 68.2133 80.4811 68.1333 82.8278 68.08C85.1745 68.0267 88.0011 68 91.3078 68ZM91.0678 77.2C87.8145 77.2 84.8278 77.2 82.1078 77.2V93.2H91.0678C94.3211 93.2 96.5611 92.6667 97.7878 91.6C99.0145 90.48 99.6278 88.32 99.6278 85.12C99.6278 81.9733 99.0145 79.8667 97.7878 78.8C96.5611 77.7333 94.3211 77.2 91.0678 77.2ZM148.225 68.8C149.238 68.8 150.118 69.0933 150.865 69.68C151.665 70.2667 152.198 71.04 152.465 72L168.465 124H155.985L151.905 109.36H132.865L128.865 124H116.385L132.385 72C132.651 71.04 133.158 70.2667 133.905 69.68C134.705 69.0933 135.611 68.8 136.625 68.8H148.225ZM140.145 83.36L135.425 100.24H149.345L144.705 83.36C144.438 82.5067 144.198 81.6267 143.985 80.72C143.825 79.76 143.665 78.8533 143.505 78H141.345C141.185 78.8533 140.998 79.76 140.785 80.72C140.571 81.6267 140.358 82.5067 140.145 83.36Z" fill="white"/>
<defs>
<linearGradient id="paint0_linear" x1="96" y1="0" x2="96" y2="192" gradientUnits="userSpaceOnUse">
<stop stop-color="#92C3EB"/>
<stop offset="1" stop-color="#B6E2D2"/>
</linearGradient>
</defs>
</svg>
