<svg width="216" height="194" viewBox="0 0 216 194" fill="none" xmlns="http://www.w3.org/2000/svg">
<path d="M125.646 10.4452C123.902 7.40209 121.395 4.87528 118.377 3.11855C115.358 1.36182 111.934 0.437012 108.449 0.437012C104.964 0.437012 101.54 1.36182 98.5216 3.11855C95.503 4.87528 92.9959 7.40209 91.2521 10.4452L62.9395 59.903L70.1621 64.0839C90.015 75.6637 106.715 92.0216 118.771 111.697C130.828 131.372 137.865 153.752 139.254 176.839H119.377C118.001 157.253 111.882 138.307 101.556 121.661C91.2305 105.015 77.0135 91.1773 60.1515 81.3614L52.9289 77.195L26.5519 123.448L33.7746 127.629C42.5279 132.814 49.9974 139.939 55.6182 148.464C61.239 156.99 64.8638 166.693 66.2185 176.839H20.8172C20.2364 176.848 19.6634 176.702 19.157 176.415C18.6506 176.128 18.2289 175.711 17.935 175.205C17.6411 174.7 17.4856 174.125 17.4844 173.539C17.4832 172.953 17.6363 172.378 17.9281 171.871L30.5822 149.772C26.3079 146.138 21.4129 143.319 16.1369 141.454L3.61291 163.509C1.87131 166.554 0.955005 170.008 0.956056 173.523C0.957107 177.039 1.87548 180.492 3.6189 183.536C5.36233 186.58 7.86941 189.108 10.8883 190.865C13.9071 192.623 17.3314 193.548 20.8172 193.548H83.2928V185.201C83.2969 172.002 80.1896 158.99 74.2271 147.24C68.2647 135.49 59.6179 125.338 48.9998 117.621L58.9381 100.256C72.5461 109.755 83.6698 122.438 91.3577 137.218C99.0455 151.999 103.069 168.437 103.083 185.128V193.49H156.024V185.143C156.001 159.086 149.537 133.447 137.219 110.542C124.901 87.6379 107.117 68.1908 85.474 53.9593L105.567 18.8071C105.855 18.305 106.269 17.8881 106.767 17.5983C107.266 17.3085 107.831 17.1559 108.406 17.1559C108.981 17.1559 109.546 17.3085 110.044 17.5983C110.542 17.8881 110.956 18.305 111.244 18.8071L198.869 171.871C199.161 172.378 199.314 172.953 199.313 173.539C199.312 174.125 199.156 174.7 198.862 175.205C198.568 175.711 198.147 176.128 197.64 176.415C197.134 176.702 196.561 176.848 195.98 176.839H175.482C175.742 182.418 175.771 187.998 175.482 193.563H196.052C199.538 193.563 202.962 192.637 205.981 190.88C209 189.122 211.507 186.595 213.251 183.551C214.994 180.506 215.912 177.053 215.913 173.538C215.914 170.023 214.998 166.569 213.257 163.524L125.646 10.4452Z" fill="url(#paint0_linear)"/>
<defs>
<linearGradient id="paint0_linear" x1="108.435" y1="0.437012" x2="108.435" y2="193.563" gradientUnits="userSpaceOnUse">
<stop stop-color="#8598EB"/>
<stop offset="1" stop-color="#A5C8FF"/>
</linearGradient>
</defs>
</svg>
