<svg width="192" height="192" viewBox="0 0 192 192" fill="none" xmlns="http://www.w3.org/2000/svg">
<path d="M0.401611 28.5053C0.401611 13.2612 12.7594 0.90332 28.0036 0.90332H163.785C179.029 0.90332 191.387 13.2611 191.387 28.5053V164.287C191.387 179.531 179.029 191.889 163.785 191.889H28.0036C12.7595 191.889 0.401611 179.531 0.401611 164.287V28.5053Z" fill="url(#paint0_linear)"/>
<path d="M73.5152 86.9467L32.2345 148.619H160.553L119.769 109.328L108.828 121.264L73.5152 86.9467Z" fill="white"/>
<path d="M139.664 60.5869C139.664 69.9261 132.093 77.4971 122.754 77.4971C113.415 77.4971 105.844 69.9261 105.844 60.5869C105.844 51.2477 113.415 43.6768 122.754 43.6768C132.093 43.6768 139.664 51.2477 139.664 60.5869Z" fill="white"/>
<defs>
<linearGradient id="paint0_linear" x1="95.8942" y1="0.90332" x2="95.8942" y2="191.889" gradientUnits="userSpaceOnUse">
<stop stop-color="#FFA77B"/>
<stop offset="1" stop-color="#FFC57B"/>
</linearGradient>
</defs>
</svg>
