<svg width="193" height="193" viewBox="0 0 193 193" fill="none" xmlns="http://www.w3.org/2000/svg">
<path d="M29.3862 96.62C29.3862 59.4868 59.4887 29.3843 96.6219 29.3843C118.109 29.3843 137.242 39.4636 149.551 55.1521C148.167 56.6284 147.068 58.4167 146.373 60.4588C145.149 64.055 145.392 67.7944 146.783 71.0243L119.091 94.0243C114.366 90.9531 108.102 90.7494 103.166 93.9997C99.6824 96.1564 97.46 99.5747 96.6911 103.316L41.2497 108.436C40.0904 105.604 38.0554 103.094 35.2649 101.367C33.4184 100.293 31.4367 99.659 29.444 99.432C29.4056 98.4994 29.3862 97.562 29.3862 96.62Z" fill="url(#paint0_linear)"/>
<path d="M42.0894 116.932L97.4672 111.819C97.8101 112.666 98.2364 113.493 98.7484 114.289C102.449 120.045 109.477 122.358 115.605 120.361L130.595 141.979C128.892 144.145 127.788 146.818 127.55 149.795C127.376 151.929 127.665 154.006 128.339 155.92C118.89 160.984 108.092 163.856 96.6219 163.856C70.0213 163.856 47.0287 148.408 36.1253 125.994C37.7935 124.846 39.2415 123.333 40.3373 121.493C41.1987 120.045 41.7771 118.504 42.0894 116.932Z" fill="url(#paint1_linear)"/>
<path d="M149.445 138.222C147.698 137.239 145.72 136.591 143.585 136.377C141.493 136.21 139.464 136.471 137.593 137.089L122.611 115.482C125.954 111.279 126.785 105.494 124.61 100.539L152.293 77.5462C153.284 78.1853 154.369 78.7147 155.536 79.1122C157.599 79.8146 159.71 80.0341 161.744 79.8306C163.124 85.1972 163.858 90.8229 163.858 96.62C163.858 112.327 158.471 126.777 149.445 138.222Z" fill="url(#paint2_linear)"/>
<path fill-rule="evenodd" clip-rule="evenodd" d="M192.667 96.9517C192.667 149.998 149.665 193 96.6187 193C43.5726 193 0.570312 149.998 0.570312 96.9517C0.570312 43.9056 43.5726 0.90332 96.6187 0.90332C149.665 0.90332 192.667 43.9056 192.667 96.9517ZM96.6219 172.393C66.1984 172.393 39.9627 154.463 27.9051 128.594C25.2949 128.627 22.6365 127.975 20.2113 126.565C13.339 122.474 11.0483 113.475 15.1389 106.439C16.5763 104.024 18.6199 102.175 20.9713 100.97C20.8899 99.5301 20.8486 98.0799 20.8486 96.62C20.8486 54.7716 54.7735 20.8467 96.6219 20.8467C121.283 20.8467 143.192 32.6277 157.029 50.8687C159.595 50.2861 162.35 50.3848 165.026 51.2958C172.717 53.9138 176.807 62.2587 174.189 69.9491C173.286 72.6034 171.7 74.8289 169.694 76.4977C171.455 82.9055 172.395 89.653 172.395 96.62C172.395 114.747 166.03 131.387 155.413 144.428C156.642 146.82 157.235 149.565 157.002 152.413C156.184 160.594 149.148 166.485 140.967 165.83C138.111 165.544 135.533 164.481 133.416 162.876C122.521 168.939 109.975 172.393 96.6219 172.393Z" fill="url(#paint3_linear)"/>
<defs>
<linearGradient id="paint0_linear" x1="96.6187" y1="0.90332" x2="96.6187" y2="193" gradientUnits="userSpaceOnUse">
<stop stop-color="#92C3EB"/>
<stop offset="1" stop-color="#B6E2D2"/>
</linearGradient>
<linearGradient id="paint1_linear" x1="96.6187" y1="0.90332" x2="96.6187" y2="193" gradientUnits="userSpaceOnUse">
<stop stop-color="#92C3EB"/>
<stop offset="1" stop-color="#B6E2D2"/>
</linearGradient>
<linearGradient id="paint2_linear" x1="96.6187" y1="0.90332" x2="96.6187" y2="193" gradientUnits="userSpaceOnUse">
<stop stop-color="#92C3EB"/>
<stop offset="1" stop-color="#B6E2D2"/>
</linearGradient>
<linearGradient id="paint3_linear" x1="96.6187" y1="0.90332" x2="96.6187" y2="193" gradientUnits="userSpaceOnUse">
<stop stop-color="#92C3EB"/>
<stop offset="1" stop-color="#B6E2D2"/>
</linearGradient>
</defs>
</svg>
