<svg width="203" height="194" viewBox="0 0 203 194" fill="none" xmlns="http://www.w3.org/2000/svg">
<path fill-rule="evenodd" clip-rule="evenodd" d="M0.763257 73.5789C0.763257 33.4086 32.9759 0.874268 72.6753 0.874268H130.374C170.073 0.874268 202.286 33.4086 202.286 73.5789C202.286 113.749 170.073 146.284 130.374 146.284H128.851V182.266C128.851 186.47 126.63 190.353 123.027 192.445C119.425 194.536 114.992 194.517 111.408 192.394L40.1941 150.225L40.0195 150.113C21.0049 137.912 10.8374 123.517 5.69448 109.195C0.760237 95.4541 0.762036 82.5039 0.763221 73.9693C0.763239 73.8381 0.763257 73.708 0.763257 73.5789ZM72.6753 24.3416C45.7461 24.3416 23.9454 46.4026 23.9454 73.5789C23.9454 82.241 24.0243 91.5492 27.4819 101.178C30.7939 110.402 37.5229 120.681 52.261 130.183L105.669 161.809V122.816H130.374C157.303 122.816 179.104 100.755 179.104 73.5789C179.104 46.4026 157.303 24.3416 130.374 24.3416H72.6753Z" fill="url(#paint0_linear)"/>
<defs>
<linearGradient id="paint0_linear" x1="101.524" y1="0.874268" x2="101.524" y2="194" gradientUnits="userSpaceOnUse">
<stop stop-color="#8598EB"/>
<stop offset="1" stop-color="#A5C8FF"/>
</linearGradient>
</defs>
</svg>
