<svg width="249" height="169" viewBox="0 0 249 169" fill="none" xmlns="http://www.w3.org/2000/svg">
<path d="M57.0842 168.331C38.5116 166.721 24.3196 161.086 13.9972 151.225C3.49508 141.191 -1.01125 128.11 0.767176 112.819C2.81369 95.2231 11.1276 82.7972 25.7041 75.5481C36.9386 69.961 48.1461 67.8356 66.398 67.8313C79.3658 67.8258 90.2321 68.8937 106.805 71.7937C110.903 72.5108 114.451 73.0978 114.69 73.0983C115.036 73.0983 115.311 71.7866 116.063 66.542C117.424 57.053 117.667 53.7788 117.297 49.9778C116.865 45.5532 116.302 43.4457 114.636 40.0167C110.336 31.1698 100.128 25.7571 83.7358 23.6318C79.0479 23.024 68.2284 22.939 63.5322 23.4728C55.6643 24.3674 51.2736 25.5073 41.4818 29.1972C35.753 31.3562 35.7268 31.3629 33.4417 31.228C29.5133 30.9965 26.8315 29.2076 25.1115 25.6717C24.4031 24.2156 24.2785 23.6145 24.2785 21.6525C24.2785 18.7072 25.0412 17.1435 27.6969 14.645C33.6523 9.04191 43.6738 4.27032 53.7886 2.2216C60.2652 0.909838 63.4533 0.634078 71.9862 0.647261C80.8156 0.670427 86.4612 1.16234 94.3076 2.62976C107.358 5.07021 117.268 9.37181 124.741 15.84C126.958 17.7591 130.301 21.5365 131.734 23.7406C132.172 24.4144 132.623 24.9658 132.736 24.9658C132.85 24.9658 133.574 24.1561 134.346 23.1669C145.661 8.66584 164.718 0.457845 187.045 0.469372C202.837 0.469372 217.515 4.49565 228.457 11.8059C237.135 17.6042 244.186 26.5364 247.034 35.3417C248.669 40.3974 248.918 42.2656 248.933 49.6088C248.942 54.1779 248.817 57.2599 248.564 58.6879C246.003 73.1204 239.903 83.1191 229.317 90.2388C220.8 95.9663 210.103 99.3177 196.113 100.641C189.071 101.308 176.19 101.245 167.846 100.503C160.764 99.8737 152.068 98.7662 148.359 98.0215C145.254 97.398 134.62 95.6123 134.533 95.6997C134.494 95.7389 133.988 98.937 133.409 102.808C132.483 108.99 132.352 110.532 132.333 115.468C132.312 120.486 132.383 121.366 132.985 123.682C134.921 131.129 139.186 136.111 146.926 139.962C154.539 143.75 162.521 145.39 174.581 145.642C179.92 145.755 182.654 145.676 185.994 145.321C194.092 144.457 197.782 143.51 208.54 139.532C211.219 138.541 213.954 137.64 214.617 137.529C216.037 137.29 218.686 137.782 220.23 138.571C223.016 139.994 225.357 143.79 225.343 146.861C225.327 150.449 224.123 152.622 220.592 155.448C212.148 162.205 201.367 166.348 188.497 167.784C183.907 168.295 173.429 168.371 168.368 167.929C154.115 166.684 144.22 164.232 135.176 159.705C128.12 156.174 122.736 151.792 118.715 146.308C117.727 144.96 116.888 143.824 116.85 143.783C116.812 143.741 116.156 144.52 115.391 145.512C112.009 149.899 106.838 154.615 101.785 157.919C94.4895 162.69 84.0165 166.329 73.4191 167.777C70.2587 168.208 59.773 168.564 57.0842 168.331V168.331ZM75.2818 147.795C83.934 145.866 91.6443 141.519 97.2416 135.415C102.347 129.846 106.535 121.505 108.84 112.312C110.139 107.13 112.298 92.7072 111.82 92.4098C111.631 92.2922 110.49 92.1067 109.284 91.9969C108.078 91.8862 104.642 91.4791 101.647 91.0896C83.8586 88.7757 72.9457 87.8766 66.8278 88.2215C55.1967 88.8768 50.4551 89.8981 43.4719 93.2524C39.8944 94.9707 37.4251 96.8353 35.4714 99.2937C32.6685 102.821 30.9766 106.326 29.7974 111.05C28.9392 114.487 28.8516 123.486 29.6481 126.386C30.9899 131.27 32.5826 134.034 36.1642 137.695C41.0685 142.707 47.5335 146.051 55.5529 147.723C59.6535 148.578 59.5321 148.569 66.398 148.465C71.3799 148.389 73.2438 148.248 75.2818 147.795V147.795ZM188.623 80.1705C195.859 79.5283 200.308 78.3985 205.775 75.8155C210.321 73.667 212.964 71.4712 215.465 67.7637C219.146 62.3052 220.58 57.1396 220.543 49.4647C220.517 43.9945 220.056 41.7189 218.178 37.7917C213.983 29.0172 204.128 22.7321 191.202 20.5879C187.977 20.053 179.319 20.1479 176.013 20.7539C169.653 21.9211 164.277 24.0485 159.535 27.274C150.775 33.2333 144.729 42.2165 141.362 54.2758C140.04 59.0126 139.688 60.8307 138.509 68.9957L137.421 76.5275L138.878 76.6889C143.278 77.1796 153.2 78.3879 158.962 79.135C162.587 79.6049 167.036 80.1064 168.849 80.2495C174.089 80.6632 183.484 80.6248 188.623 80.1689V80.1705Z" fill="url(#paint0_linear)"/>
<defs>
<linearGradient id="paint0_linear" x1="124.661" y1="0.46936" x2="124.661" y2="168.405" gradientUnits="userSpaceOnUse">
<stop stop-color="#92C3EB"/>
<stop offset="1" stop-color="#B6E2D2"/>
</linearGradient>
</defs>
</svg>
