<svg width="193" height="193" viewBox="0 0 193 193" fill="none" xmlns="http://www.w3.org/2000/svg">
<path d="M192.411 96.9517C192.411 149.998 149.409 193 96.3626 193C43.3165 193 0.314209 149.998 0.314209 96.9517C0.314209 43.9056 43.3165 0.90332 96.3626 0.90332C149.409 0.90332 192.411 43.9056 192.411 96.9517Z" fill="url(#paint0_linear)"/>
<path d="M76.3698 139.579C54.0992 137.536 39.1691 127.108 34.0258 110.003C30.818 99.3363 32.7059 89.2675 39.8616 78.8793C46.3377 69.4774 54.9853 63.366 61.8132 63.366H63.6515L61.404 64.7853C53.7082 69.6452 47.6361 77.0989 44.758 85.2187C43.0689 89.9839 42.6292 99.4642 43.8465 104.868C45.9449 114.181 51.9739 121.653 60.6238 125.659C66.4923 128.377 71.8705 129.457 79.5356 129.457C92.2114 129.457 102.493 125.709 111.252 117.895L114.245 115.225L112.742 112.081C111.408 109.293 108.374 101.731 102.82 87.3505C100.634 81.6905 98.2334 77.8895 94.1706 73.6527C91.4136 70.7778 85.97 66.313 81.4367 63.2084C80.0533 62.2609 80.079 62.2543 84.0259 62.5366C99.0269 63.6097 106.639 71.5621 117.65 97.6676C119.573 102.226 120.451 104.205 120.832 105.02C120.929 105.228 121.085 105.686 121.269 105.546C121.453 105.406 122.069 104.323 122.284 103.97C122.499 103.617 122.738 103.161 123.015 102.61C123.291 102.058 123.606 101.411 123.975 100.676C126.675 95.2853 129.96 86.4253 131.152 81.3204C131.735 78.822 132.179 78.0734 133.443 77.4562C137.582 75.4348 141.275 77.3124 141.275 81.4385C141.275 88.909 136.121 103.884 130.205 113.607C129.827 114.228 129.447 114.635 129.25 115.003C129.053 115.372 128.52 116.03 128.633 116.218C128.72 116.362 128.753 116.398 128.893 116.53C129.041 116.67 129.24 116.85 129.506 117.051C131.467 118.54 136.521 120.385 139.117 120.722C142.42 121.149 146.187 119.632 148.291 117.026C153.054 111.13 154.155 100.54 151.613 85.0733C150.684 79.4245 150.688 79.3073 151.815 77.8779C154.545 74.415 157.847 75.068 160.157 79.5276C164.888 88.6584 164.143 110.976 158.726 122.398C155.718 128.742 150.496 132.235 141.786 133.731C134.818 134.927 129.819 133.398 124.057 128.308L120.569 125.226L118.928 126.862C114.667 131.113 104.816 136.315 97.5339 138.161C93.9474 139.07 85.1355 140.155 82.2953 140.037C81.364 139.999 78.6973 139.792 76.3691 139.579L76.3698 139.579Z" fill="#FEFEFE"/>
<path fill-rule="evenodd" clip-rule="evenodd" d="M81.0921 62.5757C81.2187 62.6871 81.4411 62.8414 81.7537 63.0555C86.2945 66.1652 91.7495 70.6385 94.5184 73.5258C98.5994 77.7817 101.013 81.604 103.207 87.2857C108.763 101.669 111.794 109.223 113.123 112.003L114.686 115.27L111.589 118.032C102.791 125.881 92.4595 129.646 79.7358 129.646C72.0456 129.646 66.6365 128.561 60.7365 125.828C52.0288 121.796 45.9624 114.274 43.8519 104.907C43.2384 102.184 43.0442 98.4453 43.2135 94.7955C43.3828 91.1468 43.9163 87.5654 44.7693 85.1586C47.6619 76.9982 53.762 69.5109 61.4936 64.6283L63.194 63.5545H62.0134C58.6589 63.5545 54.8315 65.0579 51.0249 67.748C47.2216 70.4358 43.4561 74.2968 40.2287 78.9822C33.1004 89.3307 31.2277 99.3437 34.4177 109.951C39.5066 126.875 54.2244 137.244 76.2393 139.359L76.5886 139.391C78.9169 139.604 81.5789 139.81 82.5042 139.849C83.9048 139.907 86.8017 139.667 89.8093 139.297C92.8137 138.927 95.9026 138.43 97.6825 137.978C101.304 137.061 105.571 135.306 109.467 133.248C113.365 131.19 116.873 128.838 118.984 126.733L120.76 124.961L124.393 128.17C127.261 130.703 129.927 132.339 132.731 133.197C135.533 134.055 138.491 134.139 141.95 133.545C146.286 132.801 149.739 131.561 152.479 129.728C155.217 127.897 157.254 125.465 158.745 122.32C161.438 116.641 162.977 108.233 163.248 100.098C163.52 91.9569 162.522 84.1332 160.179 79.6106C159.033 77.3993 157.668 76.1863 156.303 75.9164C154.955 75.6499 153.516 76.2883 152.174 77.9907C151.891 78.3506 151.693 78.6101 151.559 78.8889C151.428 79.1616 151.355 79.461 151.342 79.8983C151.317 80.7905 151.544 82.2094 152.01 85.0442C153.282 92.7869 153.645 99.3181 153.09 104.657C152.535 109.995 151.062 114.155 148.65 117.141C146.504 119.798 142.668 121.345 139.291 120.908C137.969 120.737 136.04 120.186 134.2 119.494C132.363 118.803 130.586 117.961 129.582 117.198C129.309 116.991 129.104 116.807 128.952 116.664C128.883 116.598 128.832 116.549 128.787 116.496C128.741 116.441 128.705 116.385 128.66 116.311C128.617 116.239 128.615 116.163 128.621 116.107C128.628 116.048 128.646 115.989 128.668 115.934C128.711 115.825 128.78 115.702 128.853 115.583C128.912 115.488 128.976 115.389 129.038 115.295C129.054 115.271 129.07 115.247 129.085 115.223C129.161 115.106 129.227 115.002 129.272 114.918C129.375 114.725 129.523 114.525 129.682 114.311L129.697 114.291C129.864 114.066 130.049 113.815 130.233 113.512C133.183 108.665 135.945 102.503 137.969 96.6195C139.995 90.7319 141.276 85.1434 141.276 81.4384C141.276 79.4307 140.381 78.0016 139.017 77.3082C137.649 76.6125 135.762 76.6336 133.735 77.6238C133.129 77.9194 132.735 78.2375 132.416 78.7751C132.09 79.325 131.838 80.1122 131.547 81.3611C130.351 86.4815 127.06 95.355 124.355 100.756C124.167 101.132 123.989 101.493 123.823 101.828C123.669 102.139 123.526 102.429 123.395 102.691C123.118 103.243 122.876 103.704 122.657 104.065C122.615 104.134 122.557 104.231 122.489 104.345L122.434 104.438C122.343 104.592 122.24 104.765 122.137 104.933C122.035 105.1 121.932 105.262 121.842 105.393C121.797 105.458 121.754 105.518 121.715 105.566C121.68 105.611 121.637 105.66 121.594 105.693L121.469 105.546M121.594 105.693C121.544 105.731 121.48 105.759 121.406 105.761C121.333 105.763 121.272 105.738 121.226 105.709C121.143 105.657 121.084 105.573 121.045 105.507C120.986 105.409 120.929 105.278 120.888 105.182C120.873 105.148 120.86 105.118 120.85 105.096C120.467 104.278 119.588 102.296 117.666 97.7375C112.16 84.6863 107.515 76.1998 102.387 70.8415C97.2708 65.4966 91.6677 63.258 84.2111 62.7246C83.2233 62.6539 82.4848 62.6017 81.9524 62.5776C81.6862 62.5655 81.4749 62.5606 81.3117 62.5638C81.2202 62.5655 81.148 62.5698 81.0921 62.5757M81.0006 62.4788C81.0006 62.4788 81.0008 62.4792 81.0011 62.4799ZM77.0387 139.811L77.04 139.812L76.5508 139.767C54.2185 137.718 39.2051 127.251 34.0344 110.054C30.8088 99.3288 32.7119 89.2041 39.8949 78.7762C43.1437 74.0597 46.94 70.1641 50.7865 67.4457C54.6298 64.7296 58.5401 63.1773 62.0134 63.1773H64.5095L61.7148 64.9421C54.0548 69.7794 48.0109 77.1994 45.1472 85.2786C44.3112 87.6371 43.7802 91.1784 43.6117 94.8121C43.4432 98.4446 43.6378 102.148 44.2417 104.828C46.3279 114.088 52.3195 121.51 60.9116 125.489C66.7485 128.193 72.0958 129.268 79.7358 129.268C92.3638 129.268 102.596 125.537 111.316 117.758L114.205 115.18L112.76 112.159C111.423 109.363 108.386 101.792 102.833 87.4152C100.655 81.7769 98.2679 77.9972 94.2233 73.7794C91.4782 70.917 86.046 66.4607 81.5201 63.3611C81.1823 63.1298 80.905 62.9394 80.7587 62.7941C80.7205 62.7562 80.684 62.7146 80.6568 62.6699C80.6305 62.6267 80.603 62.5643 80.6088 62.4907C80.6229 62.3154 80.7918 62.2522 80.88 62.2293C80.9868 62.2016 81.1308 62.1899 81.3036 62.1866C81.4802 62.1832 81.7018 62.1885 81.9715 62.2007C82.5107 62.2252 83.2555 62.2779 84.2411 62.3484C91.7855 62.8881 97.4887 65.1623 102.682 70.5882C107.862 76.0008 112.529 84.5432 118.036 97.5976C119.959 102.156 120.835 104.132 121.214 104.944C121.233 104.984 121.251 105.027 121.27 105.069C121.307 105.157 121.345 105.244 121.391 105.32C121.394 105.326 121.397 105.331 121.4 105.335C121.431 105.297 121.467 105.247 121.508 105.188C121.592 105.065 121.691 104.909 121.792 104.743C121.894 104.578 121.996 104.407 122.087 104.253L122.141 104.162C122.209 104.047 122.268 103.947 122.312 103.876C122.523 103.53 122.758 103.08 123.035 102.529C123.17 102.26 123.311 101.974 123.462 101.668C123.626 101.337 123.801 100.982 123.995 100.595C126.689 95.2155 129.969 86.3689 131.158 81.2796C131.45 80.0301 131.711 79.1937 132.069 78.5905C132.434 77.9748 132.893 77.61 133.552 77.2885C135.663 76.2573 137.693 76.2065 139.205 76.9758C140.723 77.7473 141.674 79.32 141.674 81.4384C141.674 85.204 140.378 90.8382 138.348 96.7363C136.317 102.639 133.545 108.826 130.578 113.701C130.384 114.019 130.19 114.282 130.023 114.508L130.02 114.512C129.852 114.739 129.718 114.92 129.628 115.088C129.574 115.189 129.5 115.305 129.424 115.421C129.408 115.446 129.392 115.471 129.375 115.496C129.314 115.59 129.253 115.683 129.198 115.773C129.127 115.888 129.072 115.988 129.041 116.066C129.031 116.092 129.025 116.111 129.021 116.126C129.02 116.133 129.019 116.138 129.018 116.143C129.053 116.2 129.075 116.232 129.099 116.261C129.128 116.295 129.163 116.33 129.233 116.397C129.378 116.533 129.572 116.708 129.831 116.904C130.788 117.63 132.518 118.456 134.347 119.143C136.174 119.83 138.069 120.369 139.344 120.535C142.573 120.952 146.27 119.466 148.333 116.912C150.684 114.001 152.143 109.918 152.693 104.62C153.244 99.3238 152.885 92.8267 151.616 85.1022C151.154 82.2883 150.918 80.8242 150.944 79.8883C150.957 79.4115 151.038 79.0605 151.196 78.7327C151.35 78.411 151.575 78.1198 151.855 77.765C153.243 76.0044 154.821 75.2379 156.384 75.5471C157.93 75.8528 159.372 77.1962 160.536 79.4445C162.924 84.0527 163.919 91.9532 163.646 100.109C163.374 108.271 161.832 116.733 159.108 122.475C157.591 125.674 155.512 128.161 152.709 130.036C149.908 131.91 146.396 133.165 142.021 133.916C138.514 134.519 135.488 134.437 132.608 133.556C129.731 132.676 127.016 131.002 124.121 128.445L120.777 125.492L119.273 126.992C117.123 129.137 113.575 131.511 109.661 133.578C105.746 135.646 101.447 137.415 97.7856 138.343C95.9791 138.801 92.8688 139.301 89.8607 139.671C86.8555 140.041 83.9264 140.285 82.4868 140.226C81.6147 140.189 79.2403 140.008 77.0387 139.811Z" fill="#E9E9EB"/>
<defs>
<linearGradient id="paint0_linear" x1="136.354" y1="1.37114" x2="71.8225" y2="61.0741" gradientUnits="userSpaceOnUse">
<stop stop-color="#BDECF4"/>
<stop offset="1" stop-color="#98CCF9"/>
</linearGradient>
</defs>
</svg>
