<svg width="192" height="192" viewBox="0 0 192 192" fill="none" xmlns="http://www.w3.org/2000/svg">
<path d="M191.685 96.3959C191.685 149.135 148.932 191.889 96.1928 191.889C43.4537 191.889 0.700195 149.135 0.700195 96.3959C0.700195 43.6568 43.4537 0.90332 96.1928 0.90332C148.932 0.90332 191.685 43.6568 191.685 96.3959Z" fill="url(#paint0_linear)"/>
<path d="M96.6016 38.7027C86.4832 38.7299 76.5474 41.3995 67.7775 46.4466C67.7035 46.488 67.6246 46.5038 67.5506 46.5465C66.1979 44.592 44.2224 35.9982 40.5331 39.8647C36.8582 43.716 41.3681 71.7399 43.411 73.5095C40.1834 80.8523 38.5112 88.7839 38.4995 96.8048C38.5304 118.381 50.4449 137.698 68.7126 147.689C84.1091 156.223 108.478 156.223 124.491 147.69C142.758 137.698 154.673 118.381 154.704 96.8048C154.689 88.7839 153.02 80.8524 149.792 73.5095C151.835 71.74 156.345 43.7161 152.67 39.8647C148.981 35.9983 127.005 44.592 125.653 46.5465C125.579 46.5037 125.5 46.488 125.426 46.4466C116.656 41.3995 106.72 38.7301 96.6016 38.7027L96.6016 38.7027ZM81.1981 117.218C85.8281 117.218 89.5814 120.971 89.5814 125.601H72.8147C72.8147 120.971 76.5681 117.218 81.1981 117.218V117.218ZM112.005 117.218C116.635 117.218 120.389 120.971 120.389 125.601H103.622C103.622 120.971 107.375 117.218 112.005 117.218V117.218Z" fill="white"/>
<defs>
<linearGradient id="paint0_linear" x1="96.1928" y1="0.90332" x2="96.1928" y2="191.889" gradientUnits="userSpaceOnUse">
<stop stop-color="#F7BAC5"/>
<stop offset="1" stop-color="#EC98BC"/>
</linearGradient>
</defs>
</svg>
