<svg width="244" height="698" viewBox="0 0 244 698" fill="none" xmlns="http://www.w3.org/2000/svg">
<rect x="1.5" y="1.5" width="241" height="181.027" rx="21.5" fill="url(#paint0_linear)" stroke="#00ABFE" stroke-width="3"/>
<path d="M48.984 140.064C47.9813 140.064 47.2133 139.803 46.68 139.28C46.1467 138.757 45.88 138 45.88 137.008V131.248C45.88 130.224 46.152 129.44 46.696 128.896C47.2507 128.341 48.0187 128.064 49 128.064H51.464C52.4453 128.064 53.192 128.341 53.704 128.896C54.216 129.451 54.472 130.235 54.472 131.248V137.008C54.472 137.989 54.2053 138.747 53.672 139.28C53.1493 139.803 52.4133 140.064 51.464 140.064H48.984ZM50.824 137.936C51.6773 137.936 52.104 137.509 52.104 136.656V131.472C52.104 130.619 51.7093 130.192 50.92 130.192H49.464C49.0693 130.192 48.7653 130.304 48.552 130.528C48.3493 130.741 48.248 131.056 48.248 131.472V136.64C48.248 137.504 48.68 137.936 49.544 137.936H50.824ZM57.9514 130.32L55.8554 130.592V129.072L58.2074 128.048H60.3194V140H57.9514V130.32ZM70.2278 134.704H74.9798V136.016H70.2278V134.704ZM80.793 128.208H85.561C86.9797 128.208 87.993 128.704 88.601 129.696C89.209 130.688 89.513 132.16 89.513 134.112C89.513 136.021 89.177 137.483 88.505 138.496C87.8437 139.499 86.8623 140 85.561 140H80.793V128.208ZM85.417 138.56C87.0703 138.56 87.897 137.077 87.897 134.112C87.897 132.992 87.8063 132.107 87.625 131.456C87.4543 130.805 87.1877 130.341 86.825 130.064C86.473 129.787 86.0037 129.648 85.417 129.648H82.409V138.56H85.417ZM94.0866 140.064C93.3826 140.064 92.7853 139.904 92.2946 139.584C91.804 139.264 91.5586 138.629 91.5586 137.68V130.672C91.5586 129.808 91.7933 129.184 92.2626 128.8C92.732 128.405 93.2973 128.208 93.9586 128.208C95.228 128.208 96.6626 128.251 98.2626 128.336L98.9826 128.368V129.696H94.4386C93.596 129.696 93.1746 130.117 93.1746 130.96V133.408L98.2626 133.504V134.752L93.1746 134.864V137.28C93.1746 137.781 93.292 138.123 93.5266 138.304C93.7613 138.475 94.076 138.56 94.4706 138.56H98.9826V139.888C97.148 140.005 95.516 140.064 94.0866 140.064ZM100.996 128.208H105.78C106.687 128.208 107.439 128.475 108.036 129.008C108.644 129.541 108.948 130.56 108.948 132.064C108.948 133.579 108.639 134.619 108.02 135.184C107.401 135.739 106.649 136.016 105.764 136.016C105.433 136.016 104.932 135.995 104.26 135.952C103.599 135.909 103.049 135.867 102.612 135.824V140H100.996V128.208ZM105.54 134.576C106.735 134.576 107.332 133.744 107.332 132.08C107.332 130.459 106.767 129.648 105.636 129.648H102.612V134.576H105.54ZM113.242 140C112.431 140 111.813 139.808 111.386 139.424C110.959 139.04 110.746 138.4 110.746 137.504V128.208H112.362V137.264C112.362 137.744 112.474 138.075 112.698 138.256C112.922 138.437 113.231 138.528 113.626 138.528H117.706V140H113.242ZM123.551 140.096C122.431 140.096 121.546 139.947 120.895 139.648C120.245 139.349 119.749 138.773 119.407 137.92C119.077 137.067 118.911 135.808 118.911 134.144C118.911 132.48 119.082 131.216 119.423 130.352C119.765 129.477 120.261 128.885 120.911 128.576C121.562 128.267 122.442 128.112 123.551 128.112C124.682 128.112 125.573 128.267 126.223 128.576C126.874 128.885 127.365 129.477 127.695 130.352C128.037 131.216 128.207 132.48 128.207 134.144C128.207 135.808 128.037 137.067 127.695 137.92C127.365 138.773 126.874 139.349 126.223 139.648C125.573 139.947 124.682 140.096 123.551 140.096ZM123.551 138.656C124.341 138.656 124.949 138.544 125.375 138.32C125.802 138.096 126.111 137.664 126.303 137.024C126.495 136.384 126.591 135.424 126.591 134.144C126.591 132.811 126.495 131.819 126.303 131.168C126.111 130.517 125.802 130.085 125.375 129.872C124.959 129.659 124.351 129.552 123.551 129.552C122.783 129.552 122.186 129.664 121.759 129.888C121.343 130.101 121.029 130.533 120.815 131.184C120.613 131.835 120.511 132.821 120.511 134.144C120.511 135.435 120.602 136.4 120.783 137.04C120.975 137.669 121.279 138.096 121.695 138.32C122.122 138.544 122.741 138.656 123.551 138.656ZM133.004 136.192L129.324 128.208H131.004L133.836 134.56L136.684 128.208H138.3L134.62 136.192V140H133.004V136.192ZM147.447 128.208H149.495L153.431 140H151.751L150.711 136.912H146.199L145.175 140H143.511L147.447 128.208ZM150.311 135.456L148.455 129.6L146.583 135.456H150.311ZM45.944 149.128H51.064C52.088 149.128 52.9307 149.411 53.592 149.976C54.2533 150.531 54.584 151.64 54.584 153.304C54.584 154.979 54.2587 156.109 53.608 156.696C52.9573 157.283 52.152 157.576 51.192 157.576C50.7333 157.576 50.2213 157.533 49.656 157.448C49.0907 157.352 48.776 157.299 48.712 157.288V161H45.944V149.128ZM50.76 155.096C51.1227 155.096 51.3893 154.957 51.56 154.68C51.7307 154.392 51.816 153.939 51.816 153.32C51.816 152.179 51.4693 151.608 50.776 151.608H48.712V155.096H50.76ZM59.0149 161.096C56.9989 161.096 55.9909 160.184 55.9909 158.36V151.976C55.9909 150.963 56.2682 150.237 56.8229 149.8C57.3882 149.352 58.0602 149.128 58.8389 149.128C60.6095 149.139 62.3375 149.213 64.0229 149.352V151.688H59.6709C59.3829 151.688 59.1589 151.757 58.9989 151.896C58.8389 152.035 58.7589 152.243 58.7589 152.52V153.832L63.2389 153.992V156.168L58.7589 156.312V157.56C58.7589 157.88 58.8335 158.12 58.9829 158.28C59.1429 158.429 59.3455 158.504 59.5909 158.504H64.0229V160.824C62.7429 160.984 61.0735 161.075 59.0149 161.096ZM65.6003 149.128H70.5923C71.6909 149.128 72.5443 149.421 73.1523 150.008C73.7709 150.584 74.0803 151.592 74.0803 153.032C74.0803 153.992 73.9256 154.712 73.6163 155.192C73.3176 155.672 72.8963 156.051 72.3523 156.328L74.4803 161H71.6643L69.8883 156.776C69.5896 156.765 69.0829 156.76 68.3683 156.76V161H65.6003V149.128ZM70.0963 154.568C70.5016 154.568 70.8056 154.456 71.0083 154.232C71.2109 153.997 71.3123 153.603 71.3123 153.048C71.3123 152.504 71.2109 152.131 71.0083 151.928C70.8056 151.715 70.5016 151.608 70.0963 151.608H68.3683V154.568H70.0963ZM79.4049 161.096C78.7435 161.096 78.0769 161.059 77.4049 160.984C76.7435 160.909 76.1515 160.803 75.6289 160.664V158.472C76.6422 158.568 77.8529 158.616 79.2609 158.616C79.8582 158.616 80.3009 158.547 80.5889 158.408C80.8769 158.259 81.0209 157.997 81.0209 157.624V157.32C81.0209 157.043 80.9302 156.829 80.7489 156.68C80.5675 156.52 80.3275 156.44 80.0289 156.44H79.1009C77.8742 156.44 76.9569 156.173 76.3489 155.64C75.7515 155.096 75.4529 154.221 75.4529 153.016V152.456C75.4529 151.304 75.7889 150.445 76.4609 149.88C77.1329 149.315 78.1195 149.032 79.4209 149.032C80.5409 149.032 81.7569 149.181 83.0689 149.48V151.656C81.5862 151.56 80.4822 151.512 79.7569 151.512C79.1915 151.512 78.7702 151.592 78.4929 151.752C78.2155 151.901 78.0769 152.184 78.0769 152.6V152.824C78.0769 153.485 78.4769 153.816 79.2769 153.816H80.3809C81.4369 153.816 82.2422 154.104 82.7969 154.68C83.3622 155.256 83.6449 156.013 83.6449 156.952V157.544C83.6449 158.493 83.4742 159.229 83.1329 159.752C82.8022 160.264 82.3329 160.616 81.7249 160.808C81.1169 161 80.3435 161.096 79.4049 161.096ZM89.9289 161.096C88.7449 161.096 87.7955 160.936 87.0809 160.616C86.3769 160.296 85.8435 159.704 85.4809 158.84C85.1182 157.965 84.9369 156.707 84.9369 155.064C84.9369 153.421 85.1182 152.163 85.4809 151.288C85.8435 150.413 86.3769 149.816 87.0809 149.496C87.7955 149.176 88.7449 149.016 89.9289 149.016C91.1129 149.016 92.0569 149.176 92.7609 149.496C93.4755 149.816 94.0142 150.413 94.3769 151.288C94.7395 152.163 94.9209 153.421 94.9209 155.064C94.9209 156.707 94.7395 157.965 94.3769 158.84C94.0142 159.704 93.4755 160.296 92.7609 160.616C92.0569 160.936 91.1129 161.096 89.9289 161.096ZM89.9289 158.616C90.5369 158.616 90.9955 158.525 91.3049 158.344C91.6142 158.152 91.8329 157.805 91.9609 157.304C92.0889 156.803 92.1529 156.056 92.1529 155.064C92.1529 154.04 92.0889 153.277 91.9609 152.776C91.8329 152.275 91.6142 151.939 91.3049 151.768C91.0062 151.587 90.5475 151.496 89.9289 151.496C89.3209 151.496 88.8622 151.587 88.5529 151.768C88.2542 151.939 88.0355 152.275 87.8969 152.776C87.7689 153.277 87.7049 154.04 87.7049 155.064C87.7049 156.056 87.7689 156.803 87.8969 157.304C88.0249 157.805 88.2435 158.152 88.5529 158.344C88.8622 158.525 89.3209 158.616 89.9289 158.616ZM96.5545 149.128H98.7465L103.291 156.312V149.128H106.059V161H103.851L99.3065 153.832V161H96.5545V149.128ZM110.729 149.128H114.185L117.801 161H114.937L114.329 158.84H110.553L109.961 161H107.113L110.729 149.128ZM113.689 156.36L112.441 151.496L111.193 156.36H113.689ZM121.888 161C120.875 161 120.128 160.765 119.648 160.296C119.168 159.827 118.928 159.075 118.928 158.04V149.128H121.696V157.576C121.696 158.205 122.006 158.52 122.624 158.52H126.224V161H121.888ZM135.233 161.096C134.572 161.096 133.905 161.059 133.233 160.984C132.572 160.909 131.98 160.803 131.457 160.664V158.472C132.47 158.568 133.681 158.616 135.089 158.616C135.686 158.616 136.129 158.547 136.417 158.408C136.705 158.259 136.849 157.997 136.849 157.624V157.32C136.849 157.043 136.758 156.829 136.577 156.68C136.396 156.52 136.156 156.44 135.857 156.44H134.929C133.702 156.44 132.785 156.173 132.177 155.64C131.58 155.096 131.281 154.221 131.281 153.016V152.456C131.281 151.304 131.617 150.445 132.289 149.88C132.961 149.315 133.948 149.032 135.249 149.032C136.369 149.032 137.585 149.181 138.897 149.48V151.656C137.414 151.56 136.31 151.512 135.585 151.512C135.02 151.512 134.598 151.592 134.321 151.752C134.044 151.901 133.905 152.184 133.905 152.6V152.824C133.905 153.485 134.305 153.816 135.105 153.816H136.209C137.265 153.816 138.07 154.104 138.625 154.68C139.19 155.256 139.473 156.013 139.473 156.952V157.544C139.473 158.493 139.302 159.229 138.961 159.752C138.63 160.264 138.161 160.616 137.553 160.808C136.945 161 136.172 161.096 135.233 161.096ZM144.093 161.096C142.077 161.096 141.069 160.184 141.069 158.36V151.976C141.069 150.963 141.346 150.237 141.901 149.8C142.466 149.352 143.138 149.128 143.917 149.128C145.688 149.139 147.416 149.213 149.101 149.352V151.688H144.749C144.461 151.688 144.237 151.757 144.077 151.896C143.917 152.035 143.837 152.243 143.837 152.52V153.832L148.317 153.992V156.168L143.837 156.312V157.56C143.837 157.88 143.912 158.12 144.061 158.28C144.221 158.429 144.424 158.504 144.669 158.504H149.101V160.824C147.821 160.984 146.152 161.075 144.093 161.096ZM150.678 149.128H155.67C156.769 149.128 157.622 149.421 158.23 150.008C158.849 150.584 159.158 151.592 159.158 153.032C159.158 153.992 159.004 154.712 158.694 155.192C158.396 155.672 157.974 156.051 157.43 156.328L159.558 161H156.742L154.966 156.776C154.668 156.765 154.161 156.76 153.446 156.76V161H150.678V149.128ZM155.174 154.568C155.58 154.568 155.884 154.456 156.086 154.232C156.289 153.997 156.39 153.603 156.39 153.048C156.39 152.504 156.289 152.131 156.086 151.928C155.884 151.715 155.58 151.608 155.174 151.608H153.446V154.568H155.174ZM160.035 149.128H162.899L165.395 158.008L167.891 149.128H170.723L167.107 161H163.651L160.035 149.128ZM174.468 161.096C172.452 161.096 171.444 160.184 171.444 158.36V151.976C171.444 150.963 171.721 150.237 172.276 149.8C172.841 149.352 173.513 149.128 174.292 149.128C176.063 149.139 177.791 149.213 179.476 149.352V151.688H175.124C174.836 151.688 174.612 151.757 174.452 151.896C174.292 152.035 174.212 152.243 174.212 152.52V153.832L178.692 153.992V156.168L174.212 156.312V157.56C174.212 157.88 174.287 158.12 174.436 158.28C174.596 158.429 174.799 158.504 175.044 158.504H179.476V160.824C178.196 160.984 176.527 161.075 174.468 161.096ZM181.053 149.128H186.045C187.144 149.128 187.997 149.421 188.605 150.008C189.224 150.584 189.533 151.592 189.533 153.032C189.533 153.992 189.379 154.712 189.069 155.192C188.771 155.672 188.349 156.051 187.805 156.328L189.933 161H187.117L185.341 156.776C185.043 156.765 184.536 156.76 183.821 156.76V161H181.053V149.128ZM185.549 154.568C185.955 154.568 186.259 154.456 186.461 154.232C186.664 153.997 186.765 153.603 186.765 153.048C186.765 152.504 186.664 152.131 186.461 151.928C186.259 151.715 185.955 151.608 185.549 151.608H183.821V154.568H185.549Z" fill="white"/>
<path d="M94.1469 42.4125C90.9853 42.4125 88.4126 44.9852 88.4126 48.1468C88.4126 51.3084 90.9853 53.8812 94.1469 53.8812C97.3086 53.8812 99.8813 51.3084 99.8813 48.1468C99.8813 44.9852 97.3086 42.4125 94.1469 42.4125ZM94.1469 51.177C92.4768 51.177 91.1167 49.8182 91.1167 48.1468C91.1167 46.4754 92.4768 45.1166 94.1469 45.1166C95.8171 45.1166 97.1771 46.4754 97.1771 48.1468C97.1771 49.8182 95.8171 51.177 94.1469 51.177Z" fill="white" stroke="white" stroke-width="0.2"/>
<path d="M143.604 47.6208C144.351 47.6208 144.956 47.0154 144.956 46.2687C144.956 45.522 144.351 44.9166 143.604 44.9166C142.857 44.9166 142.252 45.522 142.252 46.2687C142.252 47.0154 142.857 47.6208 143.604 47.6208Z" fill="white" stroke="white" stroke-width="0.2"/>
<path d="M138.596 47.6208C139.342 47.6208 139.948 47.0154 139.948 46.2687C139.948 45.522 139.342 44.9166 138.596 44.9166C137.849 44.9166 137.244 45.522 137.244 46.2687C137.244 47.0154 137.849 47.6208 138.596 47.6208Z" fill="white" stroke="white" stroke-width="0.2"/>
<path d="M146.108 51.377C146.855 51.377 147.46 50.7717 147.46 50.0249C147.46 49.2782 146.855 48.6729 146.108 48.6729C145.361 48.6729 144.756 49.2782 144.756 50.0249C144.756 50.7717 145.361 51.377 146.108 51.377Z" fill="white" stroke="white" stroke-width="0.2"/>
<path d="M141.1 51.377C141.846 51.377 142.452 50.7717 142.452 50.0249C142.452 49.2782 141.846 48.6729 141.1 48.6729C140.353 48.6729 139.748 49.2782 139.748 50.0249C139.748 50.7717 140.353 51.377 141.1 51.377Z" fill="white" stroke="white" stroke-width="0.2"/>
<path d="M133.587 47.6208C134.334 47.6208 134.939 47.0154 134.939 46.2687C134.939 45.522 134.334 44.9166 133.587 44.9166C132.841 44.9166 132.235 45.522 132.235 46.2687C132.235 47.0154 132.841 47.6208 133.587 47.6208Z" fill="white" stroke="white" stroke-width="0.2"/>
<path d="M136.091 51.377C136.838 51.377 137.444 50.7717 137.444 50.0249C137.444 49.2782 136.838 48.6729 136.091 48.6729C135.345 48.6729 134.739 49.2782 134.739 50.0249C134.739 50.7717 135.345 51.377 136.091 51.377Z" fill="white" stroke="white" stroke-width="0.2"/>
<path d="M128.579 47.6208C129.326 47.6208 129.931 47.0154 129.931 46.2687C129.931 45.522 129.326 44.9166 128.579 44.9166C127.832 44.9166 127.227 45.522 127.227 46.2687C127.227 47.0154 127.832 47.6208 128.579 47.6208Z" fill="white" stroke="white" stroke-width="0.2"/>
<path d="M131.083 51.377C131.83 51.377 132.435 50.7717 132.435 50.0249C132.435 49.2782 131.83 48.6729 131.083 48.6729C130.336 48.6729 129.731 49.2782 129.731 50.0249C129.731 50.7717 130.336 51.377 131.083 51.377Z" fill="white" stroke="white" stroke-width="0.2"/>
<path d="M123.571 47.6208C124.317 47.6208 124.923 47.0154 124.923 46.2687C124.923 45.522 124.317 44.9166 123.571 44.9166C122.824 44.9166 122.219 45.522 122.219 46.2687C122.219 47.0154 122.824 47.6208 123.571 47.6208Z" fill="white" stroke="white" stroke-width="0.2"/>
<path d="M126.075 51.377C126.822 51.377 127.427 50.7717 127.427 50.0249C127.427 49.2782 126.822 48.6729 126.075 48.6729C125.328 48.6729 124.723 49.2782 124.723 50.0249C124.723 50.7717 125.328 51.377 126.075 51.377Z" fill="white" stroke="white" stroke-width="0.2"/>
<path d="M86.7696 58.6882H86.6799C84.976 58.6406 83.6042 57.2393 83.6042 55.5241V40.7696C83.6042 39.0243 85.0243 37.6042 86.7696 37.6042H150.354C152.1 37.6042 153.521 39.0243 153.521 40.7696V55.5228C153.521 57.2681 152.1 58.6882 150.355 58.6882H86.7696ZM156.225 55.5241V40.7696C156.225 37.5328 153.592 34.9 150.355 34.9H86.7696C83.5328 34.9 80.9 37.5328 80.9 40.7696V55.5228C80.9 57.35 81.7536 58.9651 83.0653 60.0403C81.7536 61.1168 80.9 62.733 80.9 64.559V79.3123C80.9 81.1395 81.7536 82.7546 83.0652 83.8298C81.7536 84.9062 80.9 86.5225 80.9 88.3485V103.102C80.9 106.34 83.5328 108.973 86.7696 108.973H150.354C153.591 108.973 156.223 106.34 156.223 103.103V88.3485C156.223 86.5213 155.37 84.9063 154.058 83.8311C155.371 82.7558 156.225 81.1395 156.225 79.3135V64.559C156.225 62.7318 155.371 61.1168 154.059 60.0416C155.371 58.9663 156.225 57.35 156.225 55.5241ZM153.521 88.3485V103.102C153.521 104.847 152.1 106.267 150.355 106.267H86.7696C85.0243 106.268 83.6042 104.848 83.6042 103.103V88.3485C83.6042 86.6033 85.0243 85.1831 86.7696 85.1831H150.354C152.1 85.1831 153.521 86.6033 153.521 88.3485ZM153.521 64.559V79.3123C153.521 81.0575 152.1 82.4777 150.355 82.4777H86.7696H86.7695C85.0243 82.4789 83.6042 81.0588 83.6042 79.3135V64.559C83.6042 62.8138 85.0243 61.3936 86.7696 61.3936H150.354C152.1 61.3936 153.521 62.8138 153.521 64.559Z" fill="white" stroke="white" stroke-width="0.2"/>
<path d="M94.1469 77.6706C97.3086 77.6706 99.8813 75.0979 99.8813 71.9363C99.8813 68.7747 97.3086 66.2019 94.1469 66.2019C90.9853 66.2019 88.4126 68.7747 88.4126 71.9363C88.4126 75.0979 90.9853 77.6706 94.1469 77.6706ZM94.1469 68.9061C95.8171 68.9061 97.1771 70.2649 97.1771 71.9363C97.1771 73.6077 95.8171 74.9665 94.1469 74.9665C92.4768 74.9665 91.1167 73.6077 91.1167 71.9363C91.1167 70.2649 92.4768 68.9061 94.1469 68.9061Z" fill="white" stroke="white" stroke-width="0.2"/>
<path d="M143.604 71.4102C144.351 71.4102 144.956 70.8049 144.956 70.0582C144.956 69.3114 144.351 68.7061 143.604 68.7061C142.857 68.7061 142.252 69.3114 142.252 70.0582C142.252 70.8049 142.857 71.4102 143.604 71.4102Z" fill="white" stroke="white" stroke-width="0.2"/>
<path d="M138.596 71.4102C139.342 71.4102 139.948 70.8049 139.948 70.0582C139.948 69.3114 139.342 68.7061 138.596 68.7061C137.849 68.7061 137.244 69.3114 137.244 70.0582C137.244 70.8049 137.849 71.4102 138.596 71.4102Z" fill="white" stroke="white" stroke-width="0.2"/>
<path d="M146.108 75.1665C146.855 75.1665 147.46 74.5611 147.46 73.8144C147.46 73.0677 146.855 72.4623 146.108 72.4623C145.361 72.4623 144.756 73.0677 144.756 73.8144C144.756 74.5611 145.361 75.1665 146.108 75.1665Z" fill="white" stroke="white" stroke-width="0.2"/>
<path d="M141.1 75.1665C141.846 75.1665 142.452 74.5611 142.452 73.8144C142.452 73.0677 141.846 72.4623 141.1 72.4623C140.353 72.4623 139.748 73.0677 139.748 73.8144C139.748 74.5611 140.353 75.1665 141.1 75.1665Z" fill="white" stroke="white" stroke-width="0.2"/>
<path d="M133.587 71.4102C134.334 71.4102 134.939 70.8049 134.939 70.0582C134.939 69.3114 134.334 68.7061 133.587 68.7061C132.841 68.7061 132.235 69.3114 132.235 70.0582C132.235 70.8049 132.841 71.4102 133.587 71.4102Z" fill="white" stroke="white" stroke-width="0.2"/>
<path d="M136.091 75.1665C136.838 75.1665 137.444 74.5611 137.444 73.8144C137.444 73.0677 136.838 72.4623 136.091 72.4623C135.345 72.4623 134.739 73.0677 134.739 73.8144C134.739 74.5611 135.345 75.1665 136.091 75.1665Z" fill="white" stroke="white" stroke-width="0.2"/>
<path d="M128.579 71.4102C129.326 71.4102 129.931 70.8049 129.931 70.0582C129.931 69.3114 129.326 68.7061 128.579 68.7061C127.832 68.7061 127.227 69.3114 127.227 70.0582C127.227 70.8049 127.832 71.4102 128.579 71.4102Z" fill="white" stroke="white" stroke-width="0.2"/>
<path d="M131.083 75.1665C131.83 75.1665 132.435 74.5611 132.435 73.8144C132.435 73.0677 131.83 72.4623 131.083 72.4623C130.336 72.4623 129.731 73.0677 129.731 73.8144C129.731 74.5611 130.336 75.1665 131.083 75.1665Z" fill="white" stroke="white" stroke-width="0.2"/>
<path d="M123.571 71.4102C124.317 71.4102 124.923 70.8049 124.923 70.0582C124.923 69.3114 124.317 68.7061 123.571 68.7061C122.824 68.7061 122.219 69.3114 122.219 70.0582C122.219 70.8049 122.824 71.4102 123.571 71.4102Z" fill="white" stroke="white" stroke-width="0.2"/>
<path d="M126.075 75.1665C126.822 75.1665 127.427 74.5611 127.427 73.8144C127.427 73.0677 126.822 72.4623 126.075 72.4623C125.328 72.4623 124.723 73.0677 124.723 73.8144C124.723 74.5611 125.328 75.1665 126.075 75.1665Z" fill="white" stroke="white" stroke-width="0.2"/>
<path d="M94.1469 101.46C97.3086 101.46 99.8813 98.8874 99.8813 95.7258C99.8813 92.5641 97.3086 89.9914 94.1469 89.9914C90.9853 89.9914 88.4126 92.5641 88.4126 95.7258C88.4126 98.8874 90.9853 101.46 94.1469 101.46ZM94.1469 92.6956C95.8171 92.6956 97.1771 94.0544 97.1771 95.7258C97.1771 97.3971 95.8171 98.756 94.1469 98.756C92.4768 98.756 91.1167 97.3971 91.1167 95.7258C91.1167 94.0544 92.4768 92.6956 94.1469 92.6956Z" fill="white" stroke="white" stroke-width="0.2"/>
<path d="M143.604 95.1997C144.351 95.1997 144.956 94.5944 144.956 93.8477C144.956 93.1009 144.351 92.4956 143.604 92.4956C142.857 92.4956 142.252 93.1009 142.252 93.8477C142.252 94.5944 142.857 95.1997 143.604 95.1997Z" fill="white" stroke="white" stroke-width="0.2"/>
<path d="M138.596 95.1997C139.342 95.1997 139.948 94.5944 139.948 93.8477C139.948 93.1009 139.342 92.4956 138.596 92.4956C137.849 92.4956 137.244 93.1009 137.244 93.8477C137.244 94.5944 137.849 95.1997 138.596 95.1997Z" fill="white" stroke="white" stroke-width="0.2"/>
<path d="M146.108 98.9559C146.855 98.9559 147.46 98.3506 147.46 97.6039C147.46 96.8571 146.855 96.2518 146.108 96.2518C145.361 96.2518 144.756 96.8571 144.756 97.6039C144.756 98.3506 145.361 98.9559 146.108 98.9559Z" fill="white" stroke="white" stroke-width="0.2"/>
<path d="M141.1 98.9559C141.846 98.9559 142.452 98.3506 142.452 97.6039C142.452 96.8571 141.846 96.2518 141.1 96.2518C140.353 96.2518 139.748 96.8571 139.748 97.6039C139.748 98.3506 140.353 98.9559 141.1 98.9559Z" fill="white" stroke="white" stroke-width="0.2"/>
<path d="M133.587 95.1997C134.334 95.1997 134.939 94.5944 134.939 93.8477C134.939 93.1009 134.334 92.4956 133.587 92.4956C132.841 92.4956 132.235 93.1009 132.235 93.8477C132.235 94.5944 132.841 95.1997 133.587 95.1997Z" fill="white" stroke="white" stroke-width="0.2"/>
<path d="M136.091 98.9559C136.838 98.9559 137.444 98.3506 137.444 97.6039C137.444 96.8571 136.838 96.2518 136.091 96.2518C135.345 96.2518 134.739 96.8571 134.739 97.6039C134.739 98.3506 135.345 98.9559 136.091 98.9559Z" fill="white" stroke="white" stroke-width="0.2"/>
<path d="M128.579 95.1997C129.326 95.1997 129.931 94.5944 129.931 93.8477C129.931 93.1009 129.326 92.4956 128.579 92.4956C127.832 92.4956 127.227 93.1009 127.227 93.8477C127.227 94.5944 127.832 95.1997 128.579 95.1997Z" fill="white" stroke="white" stroke-width="0.2"/>
<path d="M131.083 98.9559C131.83 98.9559 132.435 98.3506 132.435 97.6039C132.435 96.8571 131.83 96.2518 131.083 96.2518C130.336 96.2518 129.731 96.8571 129.731 97.6039C129.731 98.3506 130.336 98.9559 131.083 98.9559Z" fill="white" stroke="white" stroke-width="0.2"/>
<path d="M123.571 95.1997C124.317 95.1997 124.923 94.5944 124.923 93.8477C124.923 93.1009 124.317 92.4956 123.571 92.4956C122.824 92.4956 122.219 93.1009 122.219 93.8477C122.219 94.5944 122.824 95.1997 123.571 95.1997Z" fill="white" stroke="white" stroke-width="0.2"/>
<path d="M126.075 98.9559C126.822 98.9559 127.427 98.3506 127.427 97.6039C127.427 96.8571 126.822 96.2518 126.075 96.2518C125.328 96.2518 124.723 96.8571 124.723 97.6039C124.723 98.3506 125.328 98.9559 126.075 98.9559Z" fill="white" stroke="white" stroke-width="0.2"/>
<path d="M98 208L122.5 222.357L147 208L147 219.031L122.5 233L98 218.976L98 208Z" fill="url(#paint1_linear)"/>
<path d="M96 465L120.5 479.357L145 465L145 476.031L120.5 490L96 475.976L96 465Z" fill="url(#paint2_linear)"/>
<rect x="1.5" y="258.5" width="241" height="181.027" rx="21.5" fill="url(#paint3_linear)" stroke="#00ABFE" stroke-width="3"/>
<path d="M35.4242 404.064C34.4215 404.064 33.6535 403.803 33.1202 403.28C32.5868 402.757 32.3202 402 32.3202 401.008V395.248C32.3202 394.224 32.5922 393.44 33.1362 392.896C33.6908 392.341 34.4588 392.064 35.4402 392.064H37.9042C38.8855 392.064 39.6322 392.341 40.1442 392.896C40.6562 393.451 40.9122 394.235 40.9122 395.248V401.008C40.9122 401.989 40.6455 402.747 40.1122 403.28C39.5895 403.803 38.8535 404.064 37.9042 404.064H35.4242ZM37.2642 401.936C38.1175 401.936 38.5442 401.509 38.5442 400.656V395.472C38.5442 394.619 38.1495 394.192 37.3602 394.192H35.9042C35.5095 394.192 35.2055 394.304 34.9922 394.528C34.7895 394.741 34.6882 395.056 34.6882 395.472V400.64C34.6882 401.504 35.1202 401.936 35.9842 401.936H37.2642ZM42.5355 402.096L46.4875 398.176C46.9782 397.707 47.3302 397.28 47.5435 396.896C47.7675 396.512 47.8795 396.107 47.8795 395.68C47.8795 395.232 47.7409 394.891 47.4635 394.656C47.1969 394.421 46.7542 394.304 46.1355 394.304H42.8075V392.448C43.4902 392.331 44.1195 392.24 44.6955 392.176C45.2822 392.101 45.9169 392.064 46.5995 392.064C47.9222 392.064 48.8609 392.336 49.4155 392.88C49.9702 393.413 50.2475 394.219 50.2475 395.296C50.2475 396.064 50.0929 396.752 49.7835 397.36C49.4849 397.957 49.0049 398.576 48.3435 399.216L45.6875 401.856H50.6155V404H42.5355V402.096ZM55.8242 398.704H60.5762V400.016H55.8242V398.704ZM70.2934 404.096C69.2801 404.096 68.4748 403.941 67.8774 403.632C67.2908 403.312 66.8481 402.72 66.5494 401.856C66.2508 400.981 66.1014 399.717 66.1014 398.064C66.1014 396.496 66.2561 395.28 66.5654 394.416C66.8748 393.552 67.3334 392.955 67.9414 392.624C68.5494 392.283 69.3548 392.112 70.3574 392.112C70.9121 392.112 71.5094 392.16 72.1494 392.256C72.7894 392.341 73.3548 392.448 73.8454 392.576V393.792C73.5041 393.739 73.0348 393.685 72.4374 393.632C71.8401 393.579 71.2428 393.552 70.6454 393.552C69.8881 393.552 69.3014 393.675 68.8854 393.92C68.4801 394.155 68.1814 394.597 67.9894 395.248C67.7974 395.888 67.7014 396.832 67.7014 398.08C67.7014 399.36 67.7921 400.325 67.9734 400.976C68.1548 401.616 68.4481 402.059 68.8534 402.304C69.2588 402.539 69.8508 402.656 70.6294 402.656C71.9201 402.656 72.9921 402.592 73.8454 402.464V403.696C72.7788 403.963 71.5948 404.096 70.2934 404.096ZM79.8977 404.096C78.7777 404.096 77.8923 403.947 77.2417 403.648C76.591 403.349 76.095 402.773 75.7537 401.92C75.423 401.067 75.2577 399.808 75.2577 398.144C75.2577 396.48 75.4283 395.216 75.7697 394.352C76.111 393.477 76.607 392.885 77.2577 392.576C77.9083 392.267 78.7883 392.112 79.8977 392.112C81.0283 392.112 81.919 392.267 82.5697 392.576C83.2203 392.885 83.711 393.477 84.0417 394.352C84.383 395.216 84.5537 396.48 84.5537 398.144C84.5537 399.808 84.383 401.067 84.0417 401.92C83.711 402.773 83.2203 403.349 82.5697 403.648C81.919 403.947 81.0283 404.096 79.8977 404.096ZM79.8977 402.656C80.687 402.656 81.295 402.544 81.7217 402.32C82.1483 402.096 82.4577 401.664 82.6497 401.024C82.8417 400.384 82.9377 399.424 82.9377 398.144C82.9377 396.811 82.8417 395.819 82.6497 395.168C82.4577 394.517 82.1483 394.085 81.7217 393.872C81.3057 393.659 80.6977 393.552 79.8977 393.552C79.1297 393.552 78.5323 393.664 78.1057 393.888C77.6897 394.101 77.375 394.533 77.1617 395.184C76.959 395.835 76.8577 396.821 76.8577 398.144C76.8577 399.435 76.9483 400.4 77.1297 401.04C77.3217 401.669 77.6257 402.096 78.0417 402.32C78.4683 402.544 79.087 402.656 79.8977 402.656ZM86.7685 392.208H88.0805L93.8565 401.248V392.208H95.4565V404H94.1605L88.3845 394.96V404H86.7685V392.208ZM97.7998 392.208H99.1118L104.888 401.248V392.208H106.488V404H105.192L99.4158 394.96V404H97.7998V392.208ZM111.183 404.064C110.479 404.064 109.882 403.904 109.391 403.584C108.9 403.264 108.655 402.629 108.655 401.68V394.672C108.655 393.808 108.89 393.184 109.359 392.8C109.828 392.405 110.394 392.208 111.055 392.208C112.324 392.208 113.759 392.251 115.359 392.336L116.079 392.368V393.696H111.535C110.692 393.696 110.271 394.117 110.271 394.96V397.408L115.359 397.504V398.752L110.271 398.864V401.28C110.271 401.781 110.388 402.123 110.623 402.304C110.858 402.475 111.172 402.56 111.567 402.56H116.079V403.888C114.244 404.005 112.612 404.064 111.183 404.064ZM121.997 404.096C120.983 404.096 120.178 403.941 119.581 403.632C118.994 403.312 118.551 402.72 118.253 401.856C117.954 400.981 117.805 399.717 117.805 398.064C117.805 396.496 117.959 395.28 118.269 394.416C118.578 393.552 119.037 392.955 119.645 392.624C120.253 392.283 121.058 392.112 122.061 392.112C122.615 392.112 123.213 392.16 123.853 392.256C124.493 392.341 125.058 392.448 125.549 392.576V393.792C125.207 393.739 124.738 393.685 124.141 393.632C123.543 393.579 122.946 393.552 122.349 393.552C121.591 393.552 121.005 393.675 120.589 393.92C120.183 394.155 119.885 394.597 119.693 395.248C119.501 395.888 119.405 396.832 119.405 398.08C119.405 399.36 119.495 400.325 119.677 400.976C119.858 401.616 120.151 402.059 120.557 402.304C120.962 402.539 121.554 402.656 122.333 402.656C123.623 402.656 124.695 402.592 125.549 402.464V403.696C124.482 403.963 123.298 404.096 121.997 404.096ZM130.013 393.648H126.493V392.208H135.149V393.648H131.629V404H130.013V393.648ZM144.075 392.208H146.123L150.059 404H148.379L147.339 400.912H142.827L141.803 404H140.139L144.075 392.208ZM146.939 399.456L145.083 393.6L143.211 399.456H146.939ZM159.856 404.096C158.843 404.096 158.037 403.941 157.44 403.632C156.853 403.312 156.411 402.72 156.112 401.856C155.813 400.981 155.664 399.717 155.664 398.064C155.664 396.496 155.819 395.28 156.128 394.416C156.437 393.552 156.896 392.955 157.504 392.624C158.112 392.283 158.917 392.112 159.92 392.112C160.475 392.112 161.072 392.16 161.712 392.256C162.352 392.341 162.917 392.448 163.408 392.576V393.792C163.067 393.739 162.597 393.685 162 393.632C161.403 393.579 160.805 393.552 160.208 393.552C159.451 393.552 158.864 393.675 158.448 393.92C158.043 394.155 157.744 394.597 157.552 395.248C157.36 395.888 157.264 396.832 157.264 398.08C157.264 399.36 157.355 400.325 157.536 400.976C157.717 401.616 158.011 402.059 158.416 402.304C158.821 402.539 159.413 402.656 160.192 402.656C161.483 402.656 162.555 402.592 163.408 402.464V403.696C162.341 403.963 161.157 404.096 159.856 404.096ZM167.76 404C166.95 404 166.331 403.808 165.904 403.424C165.478 403.04 165.264 402.4 165.264 401.504V392.208H166.88V401.264C166.88 401.744 166.992 402.075 167.216 402.256C167.44 402.437 167.75 402.528 168.144 402.528H172.224V404H167.76ZM173.796 392.208H175.412V404H173.796V392.208ZM180.277 404.064C179.573 404.064 178.975 403.904 178.485 403.584C177.994 403.264 177.749 402.629 177.749 401.68V394.672C177.749 393.808 177.983 393.184 178.453 392.8C178.922 392.405 179.487 392.208 180.149 392.208C181.418 392.208 182.853 392.251 184.453 392.336L185.173 392.368V393.696H180.629C179.786 393.696 179.365 394.117 179.365 394.96V397.408L184.453 397.504V398.752L179.365 398.864V401.28C179.365 401.781 179.482 402.123 179.717 402.304C179.951 402.475 180.266 402.56 180.661 402.56H185.173V403.888C183.338 404.005 181.706 404.064 180.277 404.064ZM187.362 392.208H188.674L194.45 401.248V392.208H196.05V404H194.754L188.978 394.96V404H187.362V392.208ZM200.826 393.648H197.306V392.208H205.962V393.648H202.442V404H200.826V393.648ZM207.297 404.016C207.223 404.016 207.159 403.989 207.105 403.936C207.052 403.883 207.025 403.819 207.025 403.744V402.352C207.025 402.16 207.116 402.064 207.297 402.064H208.209C208.401 402.064 208.497 402.16 208.497 402.352V403.744C208.497 403.925 208.401 404.016 208.209 404.016H207.297ZM207.297 397.376C207.223 397.376 207.159 397.349 207.105 397.296C207.052 397.243 207.025 397.179 207.025 397.104V395.712C207.025 395.52 207.116 395.424 207.297 395.424H208.209C208.401 395.424 208.497 395.52 208.497 395.712V397.104C208.497 397.285 208.401 397.376 208.209 397.376H207.297ZM30.9439 413.128H33.8079L35.4879 420.888L37.4719 413.128H39.9679L41.9359 420.888L43.6159 413.128H46.4799L43.6959 425H40.9119L38.7199 417.224L36.5119 425H33.7279L30.9439 413.128ZM52.119 425.096C50.935 425.096 49.9857 424.936 49.271 424.616C48.567 424.296 48.0337 423.704 47.671 422.84C47.3084 421.965 47.127 420.707 47.127 419.064C47.127 417.421 47.3084 416.163 47.671 415.288C48.0337 414.413 48.567 413.816 49.271 413.496C49.9857 413.176 50.935 413.016 52.119 413.016C53.303 413.016 54.247 413.176 54.951 413.496C55.6657 413.816 56.2044 414.413 56.567 415.288C56.9297 416.163 57.111 417.421 57.111 419.064C57.111 420.707 56.9297 421.965 56.567 422.84C56.2044 423.704 55.6657 424.296 54.951 424.616C54.247 424.936 53.303 425.096 52.119 425.096ZM52.119 422.616C52.727 422.616 53.1857 422.525 53.495 422.344C53.8044 422.152 54.023 421.805 54.151 421.304C54.279 420.803 54.343 420.056 54.343 419.064C54.343 418.04 54.279 417.277 54.151 416.776C54.023 416.275 53.8044 415.939 53.495 415.768C53.1964 415.587 52.7377 415.496 52.119 415.496C51.511 415.496 51.0524 415.587 50.743 415.768C50.4444 415.939 50.2257 416.275 50.087 416.776C49.959 417.277 49.895 418.04 49.895 419.064C49.895 420.056 49.959 420.803 50.087 421.304C50.215 421.805 50.4337 422.152 50.743 422.344C51.0524 422.525 51.511 422.616 52.119 422.616ZM58.6967 413.128H63.6887C64.7873 413.128 65.6407 413.421 66.2487 414.008C66.8673 414.584 67.1767 415.592 67.1767 417.032C67.1767 417.992 67.022 418.712 66.7127 419.192C66.414 419.672 65.9927 420.051 65.4487 420.328L67.5767 425H64.7607L62.9847 420.776C62.686 420.765 62.1793 420.76 61.4647 420.76V425H58.6967V413.128ZM63.1927 418.568C63.598 418.568 63.902 418.456 64.1047 418.232C64.3073 417.997 64.4087 417.603 64.4087 417.048C64.4087 416.504 64.3073 416.131 64.1047 415.928C63.902 415.715 63.598 415.608 63.1927 415.608H61.4647V418.568H63.1927ZM68.8373 413.128H71.6053V417.88H72.9973L75.1413 413.128H78.0693L75.1893 419.096L78.1973 425H75.2693L72.9973 420.36H71.6053V425H68.8373V413.128ZM83.0638 425.096C82.4025 425.096 81.7358 425.059 81.0638 424.984C80.4025 424.909 79.8105 424.803 79.2878 424.664V422.472C80.3011 422.568 81.5118 422.616 82.9198 422.616C83.5171 422.616 83.9598 422.547 84.2478 422.408C84.5358 422.259 84.6798 421.997 84.6798 421.624V421.32C84.6798 421.043 84.5891 420.829 84.4078 420.68C84.2265 420.52 83.9865 420.44 83.6878 420.44H82.7598C81.5331 420.44 80.6158 420.173 80.0078 419.64C79.4105 419.096 79.1118 418.221 79.1118 417.016V416.456C79.1118 415.304 79.4478 414.445 80.1198 413.88C80.7918 413.315 81.7785 413.032 83.0798 413.032C84.1998 413.032 85.4158 413.181 86.7278 413.48V415.656C85.2451 415.56 84.1411 415.512 83.4158 415.512C82.8505 415.512 82.4291 415.592 82.1518 415.752C81.8745 415.901 81.7358 416.184 81.7358 416.6V416.824C81.7358 417.485 82.1358 417.816 82.9358 417.816H84.0398C85.0958 417.816 85.9011 418.104 86.4558 418.68C87.0211 419.256 87.3038 420.013 87.3038 420.952V421.544C87.3038 422.493 87.1331 423.229 86.7918 423.752C86.4611 424.264 85.9918 424.616 85.3838 424.808C84.7758 425 84.0025 425.096 83.0638 425.096ZM91.3318 415.608H88.2118V413.128H97.2038V415.608H94.0838V425H91.3318V415.608ZM100.435 413.128H103.891L107.507 425H104.643L104.035 422.84H100.259L99.6669 425H96.8189L100.435 413.128ZM103.395 420.36L102.147 415.496L100.899 420.36H103.395ZM110.269 415.608H107.149V413.128H116.141V415.608H113.021V425H110.269V415.608ZM117.337 413.128H120.105V425H117.337V413.128ZM126.682 425.096C125.498 425.096 124.548 424.936 123.834 424.616C123.13 424.296 122.596 423.704 122.234 422.84C121.871 421.965 121.69 420.707 121.69 419.064C121.69 417.421 121.871 416.163 122.234 415.288C122.596 414.413 123.13 413.816 123.834 413.496C124.548 413.176 125.498 413.016 126.682 413.016C127.866 413.016 128.81 413.176 129.514 413.496C130.228 413.816 130.767 414.413 131.13 415.288C131.492 416.163 131.674 417.421 131.674 419.064C131.674 420.707 131.492 421.965 131.13 422.84C130.767 423.704 130.228 424.296 129.514 424.616C128.81 424.936 127.866 425.096 126.682 425.096ZM126.682 422.616C127.29 422.616 127.748 422.525 128.058 422.344C128.367 422.152 128.586 421.805 128.714 421.304C128.842 420.803 128.906 420.056 128.906 419.064C128.906 418.04 128.842 417.277 128.714 416.776C128.586 416.275 128.367 415.939 128.058 415.768C127.759 415.587 127.3 415.496 126.682 415.496C126.074 415.496 125.615 415.587 125.306 415.768C125.007 415.939 124.788 416.275 124.65 416.776C124.522 417.277 124.458 418.04 124.458 419.064C124.458 420.056 124.522 420.803 124.65 421.304C124.778 421.805 124.996 422.152 125.306 422.344C125.615 422.525 126.074 422.616 126.682 422.616ZM133.307 413.128H135.499L140.043 420.312V413.128H142.811V425H140.603L136.059 417.832V425H133.307V413.128ZM145.466 426.504C145.274 426.504 145.087 426.483 144.906 426.44C144.735 426.408 144.628 426.387 144.586 426.376V425.496C144.756 425.496 144.874 425.469 144.938 425.416C145.012 425.373 145.05 425.288 145.05 425.16V424.808H144.89C144.783 424.808 144.692 424.776 144.618 424.712C144.554 424.648 144.522 424.552 144.522 424.424V422.952C144.522 422.685 144.644 422.552 144.89 422.552H146.458C146.703 422.552 146.826 422.685 146.826 422.952V425.224C146.826 425.704 146.692 426.035 146.426 426.216C146.17 426.408 145.85 426.504 145.466 426.504ZM162.826 425L161.978 417.976L160.186 425H157.594L155.802 418.072L155.002 425H152.33L153.722 413.128H156.346L158.922 421.816L161.482 413.128H164.074L165.482 425H162.826ZM171.432 425.096C170.248 425.096 169.298 424.936 168.584 424.616C167.88 424.296 167.346 423.704 166.984 422.84C166.621 421.965 166.44 420.707 166.44 419.064C166.44 417.421 166.621 416.163 166.984 415.288C167.346 414.413 167.88 413.816 168.584 413.496C169.298 413.176 170.248 413.016 171.432 413.016C172.616 413.016 173.56 413.176 174.264 413.496C174.978 413.816 175.517 414.413 175.88 415.288C176.242 416.163 176.424 417.421 176.424 419.064C176.424 420.707 176.242 421.965 175.88 422.84C175.517 423.704 174.978 424.296 174.264 424.616C173.56 424.936 172.616 425.096 171.432 425.096ZM171.432 422.616C172.04 422.616 172.498 422.525 172.808 422.344C173.117 422.152 173.336 421.805 173.464 421.304C173.592 420.803 173.656 420.056 173.656 419.064C173.656 418.04 173.592 417.277 173.464 416.776C173.336 416.275 173.117 415.939 172.808 415.768C172.509 415.587 172.05 415.496 171.432 415.496C170.824 415.496 170.365 415.587 170.056 415.768C169.757 415.939 169.538 416.275 169.4 416.776C169.272 417.277 169.208 418.04 169.208 419.064C169.208 420.056 169.272 420.803 169.4 421.304C169.528 421.805 169.746 422.152 170.056 422.344C170.365 422.525 170.824 422.616 171.432 422.616ZM178.009 413.128H182.809C185.145 413.128 186.313 414.179 186.313 416.28C186.313 416.973 186.175 417.539 185.897 417.976C185.62 418.413 185.215 418.701 184.681 418.84C185.257 418.979 185.732 419.293 186.105 419.784C186.489 420.275 186.681 420.925 186.681 421.736C186.681 422.899 186.377 423.736 185.769 424.248C185.172 424.749 184.26 425 183.033 425H178.009V413.128ZM182.809 417.912C183.087 417.912 183.3 417.805 183.449 417.592C183.609 417.379 183.689 417.101 183.689 416.76C183.689 416.355 183.604 416.061 183.433 415.88C183.263 415.699 183.049 415.608 182.793 415.608H180.777V417.912H182.809ZM182.953 422.52C183.305 422.52 183.577 422.413 183.769 422.2C183.961 421.987 184.057 421.667 184.057 421.24C184.057 420.856 183.956 420.557 183.753 420.344C183.561 420.12 183.295 420.008 182.953 420.008H180.777V422.52H182.953ZM188.181 413.128H190.949V425H188.181V413.128ZM195.797 425C194.784 425 194.037 424.765 193.557 424.296C193.077 423.827 192.837 423.075 192.837 422.04V413.128H195.605V421.576C195.605 422.205 195.915 422.52 196.533 422.52H200.133V425H195.797ZM204.439 425.096C202.423 425.096 201.415 424.184 201.415 422.36V415.976C201.415 414.963 201.693 414.237 202.247 413.8C202.813 413.352 203.485 413.128 204.263 413.128C206.034 413.139 207.762 413.213 209.447 413.352V415.688H205.095C204.807 415.688 204.583 415.757 204.423 415.896C204.263 416.035 204.183 416.243 204.183 416.52V417.832L208.663 417.992V420.168L204.183 420.312V421.56C204.183 421.88 204.258 422.12 204.407 422.28C204.567 422.429 204.77 422.504 205.015 422.504H209.447V424.824C208.167 424.984 206.498 425.075 204.439 425.096Z" fill="white"/>
<path d="M173.406 338.281H188.287C189.656 338.283 190.765 339.392 190.767 340.761L190.808 350.725C190.809 350.999 190.587 351.223 190.312 351.223C190.039 351.223 189.817 351.002 189.816 350.729L189.775 340.761C189.775 339.939 189.108 339.273 188.287 339.273H173.406C172.584 339.273 171.918 339.939 171.918 340.761V363.578C171.918 364.4 172.584 365.066 173.406 365.066H188.287C189.108 365.066 189.775 364.4 189.775 363.578L189.818 352.348C189.819 352.075 190.041 351.854 190.314 351.854C190.588 351.854 190.811 352.077 190.81 352.352L190.767 363.578C190.765 364.756 189.936 365.771 188.783 366.009L185.806 366.058H175.886L172.91 366.009C171.756 365.771 170.927 364.756 170.926 363.578V340.761C170.927 339.392 172.037 338.283 173.406 338.281Z" fill="white"/>
<path d="M180.846 348.202C176.463 348.202 172.91 351.755 172.91 356.138C172.915 360.519 176.465 364.069 180.846 364.074C185.229 364.074 188.782 360.521 188.782 356.138C188.782 351.755 185.229 348.202 180.846 348.202ZM180.846 363.082C177.011 363.082 173.902 359.973 173.902 356.138C173.906 352.304 177.013 349.198 180.846 349.194C184.681 349.194 187.79 352.303 187.79 356.138C187.79 359.973 184.681 363.082 180.846 363.082Z" fill="white"/>
<path d="M180.846 350.186C177.559 350.186 174.894 352.851 174.894 356.138C174.897 359.424 177.56 362.087 180.846 362.09C184.133 362.09 186.798 359.425 186.798 356.138C186.798 352.851 184.133 350.186 180.846 350.186ZM180.846 361.098C178.107 361.098 175.886 358.877 175.886 356.138C175.889 353.4 178.108 351.181 180.846 351.178C183.586 351.178 185.806 353.398 185.806 356.138C185.806 358.877 183.586 361.098 180.846 361.098Z" fill="white"/>
<path d="M180.846 340.265C178.928 340.265 177.374 341.82 177.374 343.737C177.376 345.654 178.929 347.207 180.846 347.21C182.764 347.21 184.318 345.655 184.318 343.737C184.318 341.82 182.764 340.265 180.846 340.265ZM180.846 346.217C179.476 346.217 178.366 345.107 178.366 343.737C178.368 342.368 179.477 341.259 180.846 341.257C182.216 341.257 183.326 342.368 183.326 343.737C183.326 345.107 182.216 346.217 180.846 346.217Z" fill="white"/>
<path d="M180.846 342.249C180.024 342.249 179.358 342.916 179.358 343.737C179.358 344.559 180.024 345.225 180.846 345.225C181.668 345.225 182.334 344.559 182.334 343.737C182.334 342.916 181.668 342.249 180.846 342.249ZM180.846 344.233C180.572 344.233 180.35 344.011 180.35 343.737C180.35 343.463 180.572 343.241 180.846 343.241C181.12 343.241 181.342 343.463 181.342 343.737C181.342 344.011 181.12 344.233 180.846 344.233Z" fill="white"/>
<path d="M180.846 353.658C179.476 353.658 178.366 354.768 178.366 356.138C178.368 357.507 179.477 358.616 180.846 358.618C182.216 358.618 183.326 357.508 183.326 356.138C183.326 354.768 182.216 353.658 180.846 353.658ZM180.846 357.626C180.024 357.626 179.358 356.96 179.358 356.138C179.358 355.316 180.024 354.65 180.846 354.65C181.668 354.65 182.334 355.316 182.334 356.138C182.334 356.96 181.668 357.626 180.846 357.626Z" fill="white"/>
<path d="M145.024 364.348H144.219V344.552C144.219 342.835 142.821 341.438 141.104 341.438H119.155C118.821 341.438 118.55 341.709 118.55 342.043C118.55 342.378 118.821 342.649 119.155 342.649H141.104C142.153 342.649 143.007 343.503 143.007 344.552V364.348H107.629V344.552C107.629 343.503 108.483 342.649 109.532 342.649H116.732C117.067 342.649 117.338 342.378 117.338 342.043C117.338 341.709 117.067 341.438 116.732 341.438H109.532C107.815 341.438 106.417 342.835 106.417 344.552V364.348H105.612C105.076 364.348 104.639 364.784 104.639 365.321V366.727C104.639 368.099 105.755 369.215 107.127 369.215H118.38C118.715 369.215 118.986 368.944 118.986 368.609C118.986 368.274 118.715 368.003 118.38 368.003H107.127C106.423 368.003 105.851 367.431 105.851 366.727V365.56H144.785V366.727C144.785 367.431 144.213 368.003 143.509 368.003H120.804C120.469 368.003 120.198 368.274 120.198 368.609C120.198 368.944 120.469 369.215 120.804 369.215H143.509C144.881 369.215 145.997 368.099 145.997 366.727V365.321C145.997 364.784 145.56 364.348 145.024 364.348Z" fill="white"/>
<path d="M109.164 345.8V361.197C109.164 362.088 109.889 362.813 110.78 362.813H139.856C140.747 362.813 141.472 362.088 141.472 361.197V345.8C141.472 344.909 140.747 344.184 139.856 344.184H110.78C109.889 344.184 109.164 344.909 109.164 345.8ZM140.261 345.8V361.197C140.261 361.42 140.079 361.602 139.856 361.602H110.78C110.557 361.602 110.375 361.42 110.375 361.197V345.8C110.375 345.577 110.557 345.396 110.78 345.396H139.856C140.079 345.396 140.261 345.577 140.261 345.8Z" fill="white"/>
<path d="M63.4785 356.21C64.1777 356.21 64.8612 356.003 65.4426 355.614C66.024 355.226 66.4771 354.674 66.7447 354.028C67.0123 353.382 67.0823 352.671 66.9459 351.985C66.8095 351.299 66.4728 350.669 65.9783 350.175C65.4839 349.681 64.854 349.344 64.1682 349.207C63.4824 349.071 62.7716 349.141 62.1256 349.409C61.4796 349.676 60.9275 350.129 60.539 350.711C60.1506 351.292 59.9432 351.976 59.9432 352.675C59.9443 353.612 60.3171 354.511 60.9799 355.173C61.6426 355.836 62.5412 356.209 63.4785 356.21ZM63.4785 350.15C63.978 350.15 64.4662 350.298 64.8814 350.575C65.2967 350.853 65.6204 351.247 65.8115 351.708C66.0026 352.17 66.0526 352.678 65.9552 353.167C65.8578 353.657 65.6173 354.107 65.2641 354.46C64.9109 354.814 64.461 355.054 63.9712 355.152C63.4813 355.249 62.9736 355.199 62.5122 355.008C62.0507 354.817 61.6564 354.493 61.3789 354.078C61.1014 353.662 60.9533 353.174 60.9533 352.675C60.9541 352.005 61.2204 351.363 61.6938 350.89C62.1672 350.417 62.809 350.15 63.4785 350.15Z" fill="white"/>
<path d="M62.4684 351.16V354.19L64.9936 352.675L62.4684 351.16Z" fill="white"/>
<path d="M59.2051 358.23H67.7519C68.8789 358.23 69.962 357.793 70.7731 357.011C71.5842 356.228 72.06 355.161 72.1004 354.035C72.1408 352.909 71.7426 351.811 70.9897 350.972C70.2367 350.134 69.1878 349.62 68.0637 349.539C67.823 348.721 67.3678 347.982 66.7453 347.399C66.1227 346.817 65.3556 346.411 64.5234 346.225C63.6912 346.038 62.8244 346.078 62.0128 346.34C61.2012 346.602 60.4745 347.076 59.908 347.713C59.8683 347.715 59.8289 347.718 59.79 347.721C59.0937 347.777 58.4326 348.051 57.9 348.503C57.3673 348.955 56.9899 349.562 56.821 350.24C56.0373 350.753 55.4402 351.506 55.1185 352.386C54.7968 353.266 54.7678 354.226 55.0356 355.124C55.3035 356.021 55.854 356.809 56.6052 357.368C57.3565 357.928 58.2683 358.23 59.2051 358.23ZM57.5247 350.992C57.5881 350.955 57.6427 350.905 57.6847 350.844C57.7266 350.784 57.7549 350.715 57.7676 350.643C57.8569 350.136 58.1119 349.673 58.4927 349.326C58.8735 348.979 59.3585 348.769 59.8717 348.728C59.932 348.723 59.9943 348.72 60.0578 348.72C60.0816 348.72 60.1056 348.72 60.1296 348.721C60.2076 348.723 60.2851 348.707 60.3559 348.675C60.4267 348.642 60.4891 348.593 60.538 348.532C60.9855 347.973 61.583 347.553 62.2606 347.322C62.9382 347.09 63.6677 347.056 64.3638 347.224C65.0599 347.392 65.6937 347.755 66.191 348.27C66.6883 348.786 67.0284 349.432 67.1716 350.134C67.1948 350.248 67.2568 350.35 67.347 350.424C67.4372 350.498 67.5501 350.538 67.6666 350.538H67.7522C68.6383 350.538 69.4881 350.89 70.1147 351.517C70.7413 352.143 71.0933 352.993 71.0933 353.879C71.0933 354.765 70.7413 355.615 70.1147 356.242C69.4881 356.868 68.6383 357.22 67.7522 357.22H59.2051C58.4707 357.22 57.7567 356.978 57.1736 356.532C56.5905 356.085 56.1708 355.459 55.9795 354.75C55.7882 354.041 55.8359 353.288 56.1152 352.609C56.3945 351.93 56.8899 351.361 57.5247 350.992Z" fill="white"/>
<path d="M55.1454 366.816H71.8117C72.4142 366.815 72.9919 366.576 73.418 366.15C73.844 365.723 74.0837 365.146 74.0844 364.543V344.181C74.0837 343.621 73.861 343.084 73.465 342.688C73.0691 342.292 72.5323 342.07 71.9723 342.069H54.9847C54.4248 342.07 53.8879 342.292 53.492 342.688C53.0961 343.084 52.8733 343.621 52.8727 344.181V364.543C52.8733 365.146 53.113 365.723 53.5391 366.15C53.9651 366.576 54.5428 366.815 55.1454 366.816ZM53.8828 344.181C53.8831 343.889 53.9993 343.609 54.2059 343.402C54.4125 343.196 54.6926 343.079 54.9847 343.079H71.9723C72.2645 343.079 72.5446 343.196 72.7512 343.402C72.9577 343.609 73.0739 343.889 73.0743 344.181V361.169C73.0739 361.461 72.9577 361.741 72.7512 361.947C72.5446 362.154 72.2645 362.27 71.9723 362.271H54.9847C54.6926 362.27 54.4125 362.154 54.2059 361.947C53.9993 361.741 53.8831 361.461 53.8828 361.169V344.181ZM53.8828 362.97C54.2142 363.173 54.5957 363.281 54.9847 363.281H71.9723C72.3614 363.281 72.7429 363.173 73.0743 362.97V364.543C73.0739 364.878 72.9408 365.199 72.7041 365.436C72.4674 365.672 72.1464 365.805 71.8117 365.806H62.4684V364.291H61.4584V365.806H60.4483V364.291H59.4382V365.806H58.4281V364.291H57.418V365.806H56.408V364.291H55.3979V365.806H55.1454C54.8106 365.805 54.4897 365.672 54.253 365.436C54.0163 365.199 53.8831 364.878 53.8828 364.543V362.97Z" fill="white"/>
<path d="M70.5491 364.291H71.5592V365.301H70.5491V364.291Z" fill="white"/>
<path d="M68.5289 364.291H69.539V365.301H68.5289V364.291Z" fill="white"/>
<path d="M66.5088 364.291H67.5189V365.301H66.5088V364.291Z" fill="white"/>
<path d="M81.7863 351.665H77.4934C77.1252 351.665 76.7722 351.812 76.5118 352.072C76.2514 352.332 76.105 352.685 76.1046 353.054V368.457C76.105 368.825 76.2514 369.178 76.5118 369.439C76.7722 369.699 77.1252 369.846 77.4934 369.846H81.7863C82.1545 369.846 82.5075 369.699 82.7679 369.439C83.0282 369.178 83.1747 368.825 83.1751 368.457V353.054C83.1747 352.685 83.0282 352.332 82.7679 352.072C82.5075 351.812 82.1545 351.665 81.7863 351.665ZM78.6298 352.675H80.6499L80.6504 353.685H78.6298V352.675ZM82.165 368.457C82.1649 368.558 82.125 368.654 82.054 368.725C81.983 368.796 81.8867 368.836 81.7863 368.836H77.4934C77.393 368.836 77.2967 368.796 77.2257 368.725C77.1547 368.654 77.1147 368.558 77.1146 368.457V353.054C77.1147 352.953 77.1547 352.857 77.2257 352.786C77.2967 352.715 77.393 352.675 77.4934 352.675H77.6197V353.685C77.62 353.953 77.7265 354.209 77.9159 354.399C78.1052 354.588 78.362 354.695 78.6298 354.695H80.6499C80.9177 354.695 81.1744 354.588 81.3638 354.399C81.5532 354.209 81.6597 353.953 81.66 353.685V352.675H81.7863C81.8867 352.675 81.983 352.715 82.054 352.786C82.125 352.857 82.1649 352.953 82.165 353.054V368.457Z" fill="white"/>
<path d="M79.6398 355.878C79.2574 355.878 78.8836 355.992 78.5657 356.204C78.2477 356.417 77.9999 356.719 77.8535 357.072C77.7072 357.425 77.6689 357.814 77.7435 358.189C77.8181 358.564 78.0022 358.909 78.2726 359.179C78.4974 359.404 78.7743 359.57 79.0785 359.662C79.3828 359.754 79.7051 359.77 80.017 359.708C80.3288 359.646 80.6206 359.508 80.8663 359.306C81.1121 359.105 81.3044 358.845 81.4261 358.552C81.5477 358.258 81.5951 357.939 81.5639 357.622C81.5328 357.306 81.424 357.002 81.2474 356.738C81.0708 356.473 80.8316 356.257 80.5512 356.107C80.2708 355.957 79.9578 355.878 79.6398 355.878ZM80.2928 358.465C80.1195 358.638 79.8846 358.735 79.6398 358.735C79.395 358.735 79.1602 358.638 78.9869 358.465C78.8577 358.336 78.7697 358.171 78.7341 357.992C78.6985 357.813 78.7167 357.627 78.7866 357.458C78.8565 357.29 78.9749 357.145 79.1267 357.044C79.2786 356.942 79.4572 356.888 79.6398 356.888C79.8225 356.888 80.001 356.942 80.1529 357.044C80.3047 357.145 80.4231 357.29 80.493 357.458C80.5629 357.627 80.5812 357.813 80.5455 357.992C80.5099 358.171 80.4219 358.336 80.2928 358.465Z" fill="white"/>
<path d="M78.1247 361.766H79.1348V362.776H78.1247V361.766Z" fill="white"/>
<path d="M80.1448 361.766H81.1549V362.776H80.1448V361.766Z" fill="white"/>
<path d="M78.1247 363.786H79.1348V364.796H78.1247V363.786Z" fill="white"/>
<path d="M80.1448 363.786H81.1549V364.796H80.1448V363.786Z" fill="white"/>
<path d="M78.1247 365.806H79.1348V366.816H78.1247V365.806Z" fill="white"/>
<path d="M80.1448 365.806H81.1549V366.816H80.1448V365.806Z" fill="white"/>
<path d="M80.6499 350.604C80.6482 349.145 80.0677 347.745 79.0357 346.713C78.0037 345.681 76.6044 345.101 75.145 345.099V346.109C76.3367 346.111 77.4792 346.585 78.3219 347.427C79.1646 348.27 79.6385 349.412 79.6398 350.604H80.6499Z" fill="white"/>
<path d="M77.7169 350.604H78.727C78.726 349.654 78.3482 348.744 77.6767 348.072C77.0052 347.401 76.0947 347.023 75.145 347.022V348.032C75.8269 348.033 76.4806 348.304 76.9628 348.786C77.445 349.268 77.7162 349.922 77.7169 350.604Z" fill="white"/>
<path d="M76.2715 349.478C76.1239 349.329 75.9484 349.212 75.7551 349.132C75.5617 349.051 75.3545 349.01 75.1452 349.011V350.021C75.2217 350.021 75.2975 350.036 75.3682 350.065C75.4389 350.095 75.5032 350.138 75.5573 350.192C75.6114 350.246 75.6543 350.31 75.6836 350.381C75.7129 350.452 75.728 350.527 75.728 350.604H76.738C76.7386 350.395 76.6976 350.187 76.6176 349.994C76.5375 349.801 76.4199 349.625 76.2715 349.478Z" fill="white"/>
<path d="M174.003 309.872C173.644 310.231 173.644 310.811 174.003 311.17L174.038 311.135L174.003 311.17C174.582 311.749 175.57 311.333 175.57 310.521C175.57 310.276 175.475 310.045 175.301 309.872C174.942 309.513 174.362 309.513 174.003 309.872ZM174.003 309.872L174.038 309.907L174.003 309.872C174.003 309.872 174.003 309.872 174.003 309.872ZM172.489 308.358C172.289 308.558 172.289 308.883 172.489 309.083L172.489 309.083C172.689 309.284 173.014 309.284 173.214 309.083C174.009 308.288 175.295 308.289 176.09 309.083L176.125 309.048L172.524 308.393M172.489 308.358L172.524 308.393M172.489 308.358C172.489 308.358 172.489 308.358 172.489 308.358L172.524 308.393M172.489 308.358C173.684 307.162 175.62 307.162 176.815 308.358C177.016 308.558 177.016 308.883 176.815 309.083L176.78 309.048C176.961 308.867 176.961 308.574 176.78 308.393C175.604 307.217 173.7 307.217 172.524 308.393M171.496 307.365L171.496 307.365C173.24 305.62 176.064 305.62 177.808 307.365L177.844 307.329L177.808 307.365C178.009 307.565 178.334 307.565 178.534 307.365C178.734 307.164 178.734 306.84 178.534 306.639C177.613 305.719 176.423 305.165 175.141 305.053C174.975 303.869 174.056 302.924 172.886 302.718L172.259 298.205C172.129 297.27 171.319 296.565 170.375 296.565H164.306C163.362 296.565 162.552 297.27 162.422 298.206L162.472 298.212L162.422 298.206L162.183 299.929C162.146 300.014 162.132 300.105 162.145 300.201L161.796 302.718C160.5 302.946 159.512 304.079 159.512 305.439V315.569C159.512 316.929 160.5 318.062 161.796 318.29L162.145 320.807C162.132 320.903 162.146 320.994 162.183 321.079L162.422 322.802C162.552 323.738 163.362 324.443 164.306 324.443H170.375C171.319 324.443 172.129 323.738 172.259 322.802L172.886 318.29C174.181 318.062 175.169 316.929 175.169 315.568V313.224C175.169 312.941 174.939 312.711 174.656 312.711C174.373 312.711 174.143 312.941 174.143 313.224V315.569C174.143 316.527 173.363 317.306 172.405 317.306H162.276C161.318 317.306 160.538 316.527 160.538 315.569V305.439C160.538 304.481 161.318 303.701 162.276 303.701H169.232C169.516 303.701 169.745 303.472 169.745 303.188C169.745 302.905 169.516 302.676 169.232 302.676H162.837L163.119 300.646H165.952C166.235 300.646 166.465 300.417 166.465 300.133C166.465 299.85 166.235 299.62 165.952 299.62H163.262L163.439 298.347C163.498 297.916 163.872 297.591 164.306 297.591H170.375C170.81 297.591 171.183 297.916 171.243 298.347L171.844 302.676H171.561C171.278 302.676 171.048 302.905 171.048 303.188C171.048 303.472 171.278 303.701 171.561 303.701H172.405C173.233 303.701 173.927 304.283 174.101 305.059C172.843 305.184 171.676 305.734 170.77 306.639C170.57 306.84 170.57 307.164 170.77 307.365C170.971 307.565 171.295 307.565 171.496 307.365ZM171.243 322.661C171.183 323.092 170.81 323.417 170.375 323.417H164.306C163.872 323.417 163.498 323.092 163.439 322.661L163.262 321.387H165.952C166.235 321.387 166.465 321.158 166.465 320.875C166.465 320.591 166.235 320.362 165.952 320.362H163.119L162.837 318.332H171.844L171.243 322.661Z" fill="white" stroke="white" stroke-width="0.1"/>
<path d="M120.106 301.034C120.668 301.034 121.217 300.868 121.684 300.556C122.152 300.244 122.516 299.8 122.731 299.281C122.946 298.762 123.002 298.19 122.892 297.639C122.783 297.088 122.512 296.582 122.115 296.185C121.718 295.788 121.211 295.517 120.66 295.407C120.109 295.298 119.538 295.354 119.019 295.569C118.5 295.784 118.056 296.148 117.744 296.615C117.432 297.083 117.265 297.632 117.265 298.194C117.266 298.947 117.566 299.669 118.098 300.201C118.631 300.734 119.353 301.034 120.106 301.034ZM120.106 296.164C120.507 296.164 120.9 296.283 121.233 296.506C121.567 296.729 121.827 297.046 121.981 297.417C122.134 297.788 122.175 298.196 122.096 298.589C122.018 298.983 121.825 299.345 121.541 299.628C121.257 299.912 120.896 300.106 120.502 300.184C120.108 300.262 119.7 300.222 119.33 300.068C118.959 299.915 118.642 299.655 118.419 299.321C118.196 298.987 118.077 298.595 118.077 298.194C118.078 297.656 118.292 297.14 118.672 296.759C119.052 296.379 119.568 296.165 120.106 296.164Z" fill="white"/>
<path d="M119.294 296.976V299.411L121.324 298.194L119.294 296.976Z" fill="white"/>
<path fill-rule="evenodd" clip-rule="evenodd" d="M136.52 304.201H135.73V299.022C135.73 298.84 135.582 298.692 135.4 298.692C135.218 298.692 135.07 298.84 135.07 299.022V304.2H134.366V298.362C134.366 297.524 134.04 296.737 133.448 296.144C132.855 295.552 132.068 295.226 131.231 295.226C129.502 295.226 128.095 296.633 128.095 298.362V311.348C128.095 312.374 127.696 313.338 126.971 314.063C126.246 314.788 125.282 315.187 124.256 315.187C122.139 315.187 120.417 313.465 120.417 311.348L120.417 310.731H119.757L119.757 311.348C119.757 313.829 121.775 315.847 124.256 315.847C125.458 315.847 126.588 315.379 127.438 314.529C128.287 313.68 128.755 312.55 128.755 311.348V298.362C128.755 296.997 129.866 295.886 131.231 295.886C131.892 295.886 132.513 296.144 132.981 296.611C133.449 297.079 133.706 297.701 133.706 298.362V304.201H132.916C131.878 304.201 131.033 305.045 131.033 306.084V312.516C131.033 312.698 131.181 312.846 131.363 312.846H131.749V315.856C131.749 316.038 131.896 316.186 132.078 316.186H137.358C137.54 316.186 137.688 316.038 137.688 315.856V312.846H138.073C138.255 312.846 138.403 312.698 138.403 312.516V306.084C138.403 305.045 137.558 304.201 136.52 304.201ZM132.408 315.526H137.028H137.028V312.846H132.408V315.526ZM131.693 312.186H137.743L137.743 306.084C137.743 305.409 137.194 304.86 136.52 304.86H132.916C132.242 304.86 131.693 305.409 131.693 306.084V312.186Z" fill="white"/>
<path d="M121.121 310.731L121.121 311.348C121.121 313.077 122.527 314.483 124.256 314.483C125.094 314.483 125.882 314.157 126.473 313.565C127.066 312.973 127.392 312.186 127.392 311.348V298.362C127.392 296.245 129.114 294.523 131.231 294.523C132.256 294.523 133.22 294.922 133.945 295.647C134.524 296.225 134.896 296.955 135.022 297.756C135.051 297.936 135.219 298.059 135.4 298.03C135.58 298.002 135.703 297.833 135.674 297.653C135.526 296.713 135.09 295.858 134.412 295.18C133.562 294.331 132.432 293.863 131.231 293.863C128.75 293.863 126.732 295.881 126.732 298.362V311.348C126.732 312.009 126.474 312.631 126.007 313.099C125.54 313.566 124.918 313.824 124.256 313.824C122.891 313.824 121.78 312.713 121.78 311.348L121.78 310.731H121.121Z" fill="white"/>
<rect x="114.74" y="285.883" width="10.7321" height="24.6207" rx="3" stroke="white" stroke-width="1.5"/>
<path d="M92.3798 301.034H81.6274C81.0335 301.035 80.4641 301.271 80.0441 301.691C79.6242 302.111 79.3879 302.681 79.3873 303.275V326.572C79.3879 327.165 79.6242 327.735 80.0441 328.155C80.4641 328.575 81.0335 328.811 81.6274 328.812H92.3798C92.9737 328.811 93.5431 328.575 93.9631 328.155C94.383 327.735 94.6193 327.165 94.6199 326.572V303.275C94.6193 302.681 94.383 302.111 93.9631 301.691C93.5431 301.271 92.9737 301.035 92.3798 301.034ZM90.0413 301.931L89.7725 303.275H84.2348L83.966 301.931H90.0413ZM93.7239 326.572C93.7235 326.928 93.5817 327.27 93.3298 327.522C93.0778 327.773 92.7362 327.915 92.3798 327.916H81.6274C81.271 327.915 80.9294 327.773 80.6774 327.522C80.4254 327.27 80.2837 326.928 80.2833 326.572V303.275C80.2837 302.918 80.4254 302.577 80.6774 302.325C80.9294 302.073 81.271 301.931 81.6274 301.931H83.0521L83.4281 303.81C83.4484 303.912 83.5033 304.003 83.5834 304.069C83.6635 304.135 83.7639 304.171 83.8675 304.171H90.1397C90.2433 304.171 90.3437 304.135 90.4238 304.069C90.5039 304.003 90.5588 303.912 90.5791 303.81L90.9551 301.931H92.3798C92.7362 301.931 93.0778 302.073 93.3298 302.325C93.5817 302.577 93.7235 302.918 93.7239 303.275V326.572Z" fill="white" stroke="white" stroke-width="0.3"/>
<path d="M84.3155 326.124H81.6274C81.5086 326.124 81.3946 326.171 81.3106 326.255C81.2266 326.339 81.1794 326.453 81.1794 326.572C81.1794 326.69 81.2266 326.804 81.3106 326.888C81.3946 326.972 81.5086 327.02 81.6274 327.02H84.3155C84.4343 327.02 84.5483 326.972 84.6323 326.888C84.7163 326.804 84.7635 326.69 84.7635 326.572C84.7635 326.453 84.7163 326.339 84.6323 326.255C84.5483 326.171 84.4343 326.124 84.3155 326.124Z" fill="white" stroke="white" stroke-width="0.3"/>
<path d="M86.1076 326.124H85.6596C85.5407 326.124 85.4268 326.171 85.3428 326.255C85.2587 326.339 85.2115 326.453 85.2115 326.572C85.2115 326.69 85.2587 326.804 85.3428 326.888C85.4268 326.972 85.5407 327.02 85.6596 327.02H86.1076C86.2264 327.02 86.3404 326.972 86.4244 326.888C86.5084 326.804 86.5556 326.69 86.5556 326.572C86.5556 326.453 86.5084 326.339 86.4244 326.255C86.3404 326.171 86.2264 326.124 86.1076 326.124Z" fill="white" stroke="white" stroke-width="0.3"/>
<rect x="1.5" y="514.5" width="241" height="181.027" rx="21.5" fill="url(#paint4_linear)" stroke="#00ABFE" stroke-width="3"/>
<path d="M45.0955 656.162C44.0928 656.162 43.3248 655.901 42.7915 655.378C42.2582 654.855 41.9915 654.098 41.9915 653.106V647.346C41.9915 646.322 42.2635 645.538 42.8075 644.994C43.3622 644.439 44.1302 644.162 45.1115 644.162H47.5755C48.5568 644.162 49.3035 644.439 49.8155 644.994C50.3275 645.549 50.5835 646.333 50.5835 647.346V653.106C50.5835 654.087 50.3168 654.845 49.7835 655.378C49.2608 655.901 48.5248 656.162 47.5755 656.162H45.0955ZM46.9355 654.034C47.7888 654.034 48.2155 653.607 48.2155 652.754V647.57C48.2155 646.717 47.8208 646.29 47.0315 646.29H45.5755C45.1808 646.29 44.8768 646.402 44.6635 646.626C44.4608 646.839 44.3595 647.154 44.3595 647.57V652.738C44.3595 653.602 44.7915 654.034 45.6555 654.034H46.9355ZM56.6069 656.194C54.9322 656.194 53.4229 656.082 52.0789 655.858V653.954H55.7109C56.3829 653.954 56.8629 653.874 57.1509 653.714C57.4496 653.554 57.5989 653.266 57.5989 652.85V652.354C57.5989 651.607 57.0816 651.213 56.0469 651.17L53.1349 651.058V649.234L55.9509 649.074C56.4522 649.053 56.8309 648.962 57.0869 648.802C57.3429 648.642 57.4709 648.391 57.4709 648.05V647.65C57.4709 647.223 57.3269 646.909 57.0389 646.706C56.7509 646.503 56.2816 646.402 55.6309 646.402H52.3349V644.514C53.9562 644.258 55.3696 644.141 56.5749 644.162C57.6202 644.173 58.4202 644.429 58.9749 644.93C59.5296 645.421 59.8069 646.141 59.8069 647.09V647.97C59.8069 648.557 59.6736 649.031 59.4069 649.394C59.1402 649.746 58.7829 649.997 58.3349 650.146C58.8042 650.285 59.1936 650.578 59.5029 651.026C59.8229 651.474 59.9829 652.023 59.9829 652.674V653.282C59.9829 654.221 59.6842 654.941 59.0869 655.442C58.5002 655.943 57.6736 656.194 56.6069 656.194ZM65.3861 650.802H70.1381V652.114H65.3861V650.802ZM80.2074 656.194C78.7674 656.194 77.6687 655.917 76.9114 655.362C76.1647 654.797 75.7914 653.81 75.7914 652.402V644.306H77.4074V652.386C77.4074 653.25 77.6421 653.858 78.1114 654.21C78.5807 654.562 79.2794 654.738 80.2074 654.738C81.1461 654.738 81.8501 654.562 82.3194 654.21C82.7887 653.858 83.0234 653.25 83.0234 652.386V644.306H84.6394V652.402C84.6394 653.81 84.2607 654.797 83.5034 655.362C82.7461 655.917 81.6474 656.194 80.2074 656.194ZM90.2188 656.194C89.6748 656.194 89.0401 656.162 88.3148 656.098C87.6001 656.045 87.0348 655.97 86.6188 655.874V654.626C87.5041 654.711 88.6828 654.754 90.1548 654.754C90.9121 654.754 91.4988 654.642 91.9148 654.418C92.3308 654.183 92.5388 653.762 92.5388 653.154V652.466C92.5388 651.474 92.0108 650.978 90.9548 650.978H89.7548C88.6988 650.978 87.8988 650.749 87.3548 650.29C86.8108 649.821 86.5388 649.058 86.5388 648.002V647.346C86.5388 646.258 86.8321 645.463 87.4188 644.962C88.0161 644.461 88.9014 644.21 90.0748 644.21C90.5868 644.21 91.1734 644.247 91.8348 644.322C92.4961 644.397 93.0614 644.477 93.5308 644.562V645.81L93.1948 645.794C91.8294 645.698 90.8481 645.65 90.2508 645.65C89.5254 645.65 88.9814 645.778 88.6188 646.034C88.2561 646.29 88.0748 646.754 88.0748 647.426V647.906C88.0748 648.461 88.2188 648.855 88.5068 649.09C88.8054 649.325 89.2481 649.442 89.8348 649.442H91.1308C92.0908 649.442 92.8214 649.703 93.3228 650.226C93.8241 650.738 94.0748 651.421 94.0748 652.274V653.106C94.0748 654.269 93.7388 655.074 93.0668 655.522C92.3948 655.97 91.4454 656.194 90.2188 656.194ZM98.6513 656.162C97.9473 656.162 97.3499 656.002 96.8593 655.682C96.3686 655.362 96.1233 654.727 96.1233 653.778V646.77C96.1233 645.906 96.3579 645.282 96.8273 644.898C97.2966 644.503 97.8619 644.306 98.5233 644.306C99.7926 644.306 101.227 644.349 102.827 644.434L103.547 644.466V645.794H99.0033C98.1606 645.794 97.7393 646.215 97.7393 647.058V649.506L102.827 649.602V650.85L97.7393 650.962V653.378C97.7393 653.879 97.8566 654.221 98.0913 654.402C98.3259 654.573 98.6406 654.658 99.0353 654.658H103.547V655.986C101.713 656.103 100.081 656.162 98.6513 656.162ZM109.399 644.226H114.535C116.093 644.226 117.186 644.749 117.815 645.794C118.445 646.829 118.759 648.29 118.759 650.178C118.759 652.205 118.413 653.698 117.719 654.658C117.026 655.618 115.965 656.098 114.535 656.098H109.399V644.226ZM114.263 653.618C114.903 653.618 115.351 653.346 115.607 652.802C115.874 652.258 116.007 651.383 116.007 650.178C116.007 649.229 115.938 648.503 115.799 648.002C115.671 647.501 115.485 647.159 115.239 646.978C114.994 646.797 114.669 646.706 114.263 646.706H112.167V653.618H114.263ZM123.376 656.194C121.36 656.194 120.352 655.282 120.352 653.458V647.074C120.352 646.061 120.63 645.335 121.184 644.898C121.75 644.45 122.422 644.226 123.2 644.226C124.971 644.237 126.699 644.311 128.384 644.45V646.786H124.032C123.744 646.786 123.52 646.855 123.36 646.994C123.2 647.133 123.12 647.341 123.12 647.618V648.93L127.6 649.09V651.266L123.12 651.41V652.658C123.12 652.978 123.195 653.218 123.344 653.378C123.504 653.527 123.707 653.602 123.952 653.602H128.384V655.922C127.104 656.082 125.435 656.173 123.376 656.194ZM129.178 644.226H132.042L134.538 653.106L137.034 644.226H139.866L136.25 656.098H132.794L129.178 644.226ZM148.72 656.194C148.058 656.194 147.392 656.157 146.72 656.082C146.058 656.007 145.466 655.901 144.944 655.762V653.57C145.957 653.666 147.168 653.714 148.576 653.714C149.173 653.714 149.616 653.645 149.904 653.506C150.192 653.357 150.336 653.095 150.336 652.722V652.418C150.336 652.141 150.245 651.927 150.064 651.778C149.882 651.618 149.642 651.538 149.344 651.538H148.416C147.189 651.538 146.272 651.271 145.664 650.738C145.066 650.194 144.768 649.319 144.768 648.114V647.554C144.768 646.402 145.104 645.543 145.776 644.978C146.448 644.413 147.434 644.13 148.736 644.13C149.856 644.13 151.072 644.279 152.384 644.578V646.754C150.901 646.658 149.797 646.61 149.072 646.61C148.506 646.61 148.085 646.69 147.808 646.85C147.53 646.999 147.392 647.282 147.392 647.698V647.922C147.392 648.583 147.792 648.914 148.592 648.914H149.696C150.752 648.914 151.557 649.202 152.112 649.778C152.677 650.354 152.96 651.111 152.96 652.05V652.642C152.96 653.591 152.789 654.327 152.448 654.85C152.117 655.362 151.648 655.714 151.04 655.906C150.432 656.098 149.658 656.194 148.72 656.194ZM157.58 656.194C155.564 656.194 154.556 655.282 154.556 653.458V647.074C154.556 646.061 154.833 645.335 155.388 644.898C155.953 644.45 156.625 644.226 157.404 644.226C159.174 644.237 160.902 644.311 162.588 644.45V646.786H158.236C157.948 646.786 157.724 646.855 157.564 646.994C157.404 647.133 157.324 647.341 157.324 647.618V648.93L161.804 649.09V651.266L157.324 651.41V652.658C157.324 652.978 157.398 653.218 157.548 653.378C157.708 653.527 157.91 653.602 158.156 653.602H162.588V655.922C161.308 656.082 159.638 656.173 157.58 656.194ZM164.165 644.226H169.157C170.256 644.226 171.109 644.519 171.717 645.106C172.336 645.682 172.645 646.69 172.645 648.13C172.645 649.09 172.49 649.81 172.181 650.29C171.882 650.77 171.461 651.149 170.917 651.426L173.045 656.098H170.229L168.453 651.874C168.154 651.863 167.648 651.858 166.933 651.858V656.098H164.165V644.226ZM168.661 649.666C169.066 649.666 169.37 649.554 169.573 649.33C169.776 649.095 169.877 648.701 169.877 648.146C169.877 647.602 169.776 647.229 169.573 647.026C169.37 646.813 169.066 646.706 168.661 646.706H166.933V649.666H168.661ZM173.522 644.226H176.386L178.882 653.106L181.378 644.226H184.21L180.594 656.098H177.138L173.522 644.226ZM185.337 644.226H188.105V656.098H185.337V644.226ZM194.025 656.194C193.044 656.194 192.244 656.034 191.625 655.714C191.006 655.394 190.526 654.797 190.185 653.922C189.854 653.037 189.689 651.773 189.689 650.13C189.689 648.541 189.86 647.309 190.201 646.434C190.553 645.559 191.044 644.957 191.673 644.626C192.302 644.285 193.092 644.114 194.041 644.114C194.852 644.114 195.582 644.173 196.233 644.29C196.884 644.407 197.422 644.551 197.849 644.722V646.866C196.868 646.685 195.796 646.594 194.633 646.594C194.057 646.594 193.62 646.685 193.321 646.866C193.022 647.037 192.804 647.373 192.665 647.874C192.526 648.375 192.457 649.133 192.457 650.146C192.457 651.138 192.516 651.885 192.633 652.386C192.75 652.877 192.964 653.223 193.273 653.426C193.582 653.618 194.041 653.714 194.649 653.714C196.089 653.714 197.156 653.661 197.849 653.554V655.698C196.942 656.029 195.668 656.194 194.025 656.194ZM202.267 656.194C200.251 656.194 199.243 655.282 199.243 653.458V647.074C199.243 646.061 199.52 645.335 200.075 644.898C200.64 644.45 201.312 644.226 202.091 644.226C203.862 644.237 205.59 644.311 207.275 644.45V646.786H202.923C202.635 646.786 202.411 646.855 202.251 646.994C202.091 647.133 202.011 647.341 202.011 647.618V648.93L206.491 649.09V651.266L202.011 651.41V652.658C202.011 652.978 202.086 653.218 202.235 653.378C202.395 653.527 202.598 653.602 202.843 653.602H207.275V655.922C205.995 656.082 204.326 656.173 202.267 656.194ZM212.516 656.194C211.855 656.194 211.188 656.157 210.516 656.082C209.855 656.007 209.263 655.901 208.74 655.762V653.57C209.754 653.666 210.964 653.714 212.372 653.714C212.97 653.714 213.412 653.645 213.7 653.506C213.988 653.357 214.132 653.095 214.132 652.722V652.418C214.132 652.141 214.042 651.927 213.86 651.778C213.679 651.618 213.439 651.538 213.14 651.538H212.212C210.986 651.538 210.068 651.271 209.46 650.738C208.863 650.194 208.564 649.319 208.564 648.114V647.554C208.564 646.402 208.9 645.543 209.572 644.978C210.244 644.413 211.231 644.13 212.532 644.13C213.652 644.13 214.868 644.279 216.18 644.578V646.754C214.698 646.658 213.594 646.61 212.868 646.61C212.303 646.61 211.882 646.69 211.604 646.85C211.327 646.999 211.188 647.282 211.188 647.698V647.922C211.188 648.583 211.588 648.914 212.388 648.914H213.492C214.548 648.914 215.354 649.202 215.908 649.778C216.474 650.354 216.756 651.111 216.756 652.05V652.642C216.756 653.591 216.586 654.327 216.244 654.85C215.914 655.362 215.444 655.714 214.836 655.906C214.228 656.098 213.455 656.194 212.516 656.194ZM74.1922 666.746H70.6722V665.306H79.3282V666.746H75.8082V677.098H74.1922V666.746ZM85.0299 677.194C83.9099 677.194 83.0246 677.045 82.3739 676.746C81.7233 676.447 81.2273 675.871 80.8859 675.018C80.5553 674.165 80.3899 672.906 80.3899 671.242C80.3899 669.578 80.5606 668.314 80.9019 667.45C81.2433 666.575 81.7393 665.983 82.3899 665.674C83.0406 665.365 83.9206 665.21 85.0299 665.21C86.1606 665.21 87.0513 665.365 87.7019 665.674C88.3526 665.983 88.8433 666.575 89.1739 667.45C89.5153 668.314 89.6859 669.578 89.6859 671.242C89.6859 672.906 89.5153 674.165 89.1739 675.018C88.8433 675.871 88.3526 676.447 87.7019 676.746C87.0513 677.045 86.1606 677.194 85.0299 677.194ZM85.0299 675.754C85.8193 675.754 86.4273 675.642 86.8539 675.418C87.2806 675.194 87.5899 674.762 87.7819 674.122C87.9739 673.482 88.0699 672.522 88.0699 671.242C88.0699 669.909 87.9739 668.917 87.7819 668.266C87.5899 667.615 87.2806 667.183 86.8539 666.97C86.4379 666.757 85.8299 666.65 85.0299 666.65C84.2619 666.65 83.6646 666.762 83.2379 666.986C82.8219 667.199 82.5073 667.631 82.2939 668.282C82.0913 668.933 81.9899 669.919 81.9899 671.242C81.9899 672.533 82.0806 673.498 82.2619 674.138C82.4539 674.767 82.7579 675.194 83.1739 675.418C83.6006 675.642 84.2193 675.754 85.0299 675.754ZM99.8944 677.194C98.8811 677.194 98.0758 677.039 97.4784 676.73C96.8918 676.41 96.4491 675.818 96.1504 674.954C95.8518 674.079 95.7024 672.815 95.7024 671.162C95.7024 669.594 95.8571 668.378 96.1664 667.514C96.4758 666.65 96.9344 666.053 97.5424 665.722C98.1504 665.381 98.9558 665.21 99.9584 665.21C100.513 665.21 101.11 665.258 101.75 665.354C102.39 665.439 102.956 665.546 103.446 665.674V666.89C103.105 666.837 102.636 666.783 102.038 666.73C101.441 666.677 100.844 666.65 100.246 666.65C99.4891 666.65 98.9024 666.773 98.4864 667.018C98.0811 667.253 97.7824 667.695 97.5904 668.346C97.3984 668.986 97.3024 669.93 97.3024 671.178C97.3024 672.458 97.3931 673.423 97.5744 674.074C97.7558 674.714 98.0491 675.157 98.4544 675.402C98.8598 675.637 99.4518 675.754 100.23 675.754C101.521 675.754 102.593 675.69 103.446 675.562V676.794C102.38 677.061 101.196 677.194 99.8944 677.194ZM109.499 677.194C108.379 677.194 107.493 677.045 106.843 676.746C106.192 676.447 105.696 675.871 105.355 675.018C105.024 674.165 104.859 672.906 104.859 671.242C104.859 669.578 105.029 668.314 105.371 667.45C105.712 666.575 106.208 665.983 106.859 665.674C107.509 665.365 108.389 665.21 109.499 665.21C110.629 665.21 111.52 665.365 112.171 665.674C112.821 665.983 113.312 666.575 113.643 667.45C113.984 668.314 114.155 669.578 114.155 671.242C114.155 672.906 113.984 674.165 113.643 675.018C113.312 675.871 112.821 676.447 112.171 676.746C111.52 677.045 110.629 677.194 109.499 677.194ZM109.499 675.754C110.288 675.754 110.896 675.642 111.323 675.418C111.749 675.194 112.059 674.762 112.251 674.122C112.443 673.482 112.539 672.522 112.539 671.242C112.539 669.909 112.443 668.917 112.251 668.266C112.059 667.615 111.749 667.183 111.323 666.97C110.907 666.757 110.299 666.65 109.499 666.65C108.731 666.65 108.133 666.762 107.707 666.986C107.291 667.199 106.976 667.631 106.763 668.282C106.56 668.933 106.459 669.919 106.459 671.242C106.459 672.533 106.549 673.498 106.731 674.138C106.923 674.767 107.227 675.194 107.643 675.418C108.069 675.642 108.688 675.754 109.499 675.754ZM116.37 665.306H117.682L123.458 674.346V665.306H125.058V677.098H123.762L117.986 668.058V677.098H116.37V665.306ZM129.833 666.746H126.313V665.306H134.969V666.746H131.449V677.098H129.833V666.746ZM136.397 665.306H141.117C142.077 665.306 142.839 665.562 143.405 666.074C143.981 666.575 144.269 667.509 144.269 668.874C144.269 669.973 144.066 670.757 143.661 671.226C143.266 671.695 142.759 672.015 142.141 672.186L144.493 677.098H142.861L140.685 672.41L138.493 672.378C138.375 672.367 138.215 672.362 138.013 672.362V677.098H136.397V665.306ZM140.861 671.114C141.437 671.114 141.879 670.954 142.189 670.634C142.509 670.314 142.669 669.727 142.669 668.874C142.669 668.053 142.509 667.493 142.189 667.194C141.869 666.895 141.426 666.746 140.861 666.746H138.013V671.114H140.861ZM146.225 665.306H147.841V677.098H146.225V665.306ZM150.178 665.306H154.562C156.653 665.306 157.698 666.319 157.698 668.346C157.698 669.05 157.543 669.631 157.234 670.09C156.935 670.549 156.541 670.842 156.05 670.97C156.594 671.109 157.074 671.413 157.49 671.882C157.906 672.351 158.114 673.002 158.114 673.834C158.114 675.018 157.831 675.861 157.266 676.362C156.701 676.853 155.858 677.098 154.738 677.098H150.178V665.306ZM154.61 670.426C155.079 670.426 155.453 670.25 155.73 669.898C156.018 669.546 156.162 669.071 156.162 668.474C156.162 667.322 155.623 666.746 154.546 666.746H151.794V670.426H154.61ZM154.69 675.658C155.298 675.658 155.762 675.503 156.082 675.194C156.413 674.874 156.578 674.33 156.578 673.562C156.578 672.975 156.397 672.517 156.034 672.186C155.682 671.845 155.234 671.674 154.69 671.674H151.794V675.658H154.69ZM164.215 677.194C162.775 677.194 161.677 676.917 160.919 676.362C160.173 675.797 159.799 674.81 159.799 673.402V665.306H161.415V673.386C161.415 674.25 161.65 674.858 162.119 675.21C162.589 675.562 163.287 675.738 164.215 675.738C165.154 675.738 165.858 675.562 166.327 675.21C166.797 674.858 167.031 674.25 167.031 673.386V665.306H168.647V673.402C168.647 674.81 168.269 675.797 167.511 676.362C166.754 676.917 165.655 677.194 164.215 677.194ZM173.427 666.746H169.907V665.306H178.563V666.746H175.043V677.098H173.427V666.746ZM182.362 677.162C181.658 677.162 181.061 677.002 180.57 676.682C180.08 676.362 179.834 675.727 179.834 674.778V667.77C179.834 666.906 180.069 666.282 180.538 665.898C181.008 665.503 181.573 665.306 182.234 665.306C183.504 665.306 184.938 665.349 186.538 665.434L187.258 665.466V666.794H182.714C181.872 666.794 181.45 667.215 181.45 668.058V670.506L186.538 670.602V671.85L181.45 671.962V674.378C181.45 674.879 181.568 675.221 181.802 675.402C182.037 675.573 182.352 675.658 182.746 675.658H187.258V676.986C185.424 677.103 183.792 677.162 182.362 677.162Z" fill="white"/>
<path d="M108.479 591.069C107.521 591.069 106.743 590.291 106.743 589.333V571.972C106.743 571.014 107.521 570.236 108.479 570.236C109.437 570.236 110.215 571.014 110.215 571.972V589.333C110.215 590.291 109.437 591.069 108.479 591.069Z" fill="white"/>
<path d="M139.728 591.069C138.77 591.069 137.992 590.291 137.992 589.333V571.972C137.992 571.014 138.77 570.236 139.728 570.236C140.687 570.236 141.464 571.014 141.464 571.972V589.333C141.464 590.291 140.687 591.069 139.728 591.069Z" fill="white"/>
<path d="M125.84 591.069H122.368C119.496 591.069 117.159 588.732 117.159 585.861V575.444C117.159 572.573 119.496 570.236 122.368 570.236H125.84C128.711 570.236 131.048 572.573 131.048 575.444V585.861C131.048 588.732 128.711 591.069 125.84 591.069ZM122.368 573.708C121.413 573.708 120.631 574.486 120.631 575.444V585.861C120.631 586.819 121.413 587.597 122.368 587.597H125.84C126.795 587.597 127.576 586.819 127.576 585.861V575.444C127.576 574.486 126.795 573.708 125.84 573.708H122.368Z" fill="white"/>
<path d="M139.728 618.846C138.77 618.846 137.992 618.068 137.992 617.11V599.749C137.992 598.791 138.77 598.013 139.728 598.013C140.687 598.013 141.464 598.791 141.464 599.749V617.11C141.464 618.068 140.687 618.846 139.728 618.846Z" fill="white"/>
<path d="M115.423 618.846H111.951C109.08 618.846 106.743 616.509 106.743 613.638V603.221C106.743 600.35 109.08 598.013 111.951 598.013H115.423C118.295 598.013 120.631 600.35 120.631 603.221V613.638C120.631 616.509 118.295 618.846 115.423 618.846ZM111.951 601.485C110.996 601.485 110.215 602.263 110.215 603.221V613.638C110.215 614.596 110.996 615.374 111.951 615.374H115.423C116.378 615.374 117.159 614.596 117.159 613.638V603.221C117.159 602.263 116.378 601.485 115.423 601.485H111.951Z" fill="white"/>
<path d="M129.312 618.846C128.354 618.846 127.576 618.068 127.576 617.11V599.749C127.576 598.791 128.354 598.013 129.312 598.013C130.27 598.013 131.048 598.791 131.048 599.749V617.11C131.048 618.068 130.27 618.846 129.312 618.846Z" fill="white"/>
<path d="M101.535 598.013H99.7984C90.2257 598.013 82.4377 590.225 82.4377 580.653C82.4377 571.479 89.5868 563.948 98.604 563.333C101.007 551.334 111.718 542.459 124.104 542.459C133.829 542.459 142.787 547.938 147.204 556.5C157.697 557.601 165.769 566.493 165.769 577.18C165.769 588.031 157.624 596.94 146.825 597.902C145.95 597.979 145.027 597.284 144.943 596.326C144.86 595.368 145.565 594.527 146.52 594.444C155.513 593.645 162.297 586.222 162.297 577.18C162.297 567.99 155.134 560.393 145.988 559.886C145.346 559.851 144.78 559.465 144.509 558.886C140.836 551.018 132.829 545.931 124.104 545.931C112.941 545.931 103.35 554.247 101.795 565.271C101.673 566.125 100.941 566.764 100.076 566.764C92.1389 566.764 85.9098 572.993 85.9098 580.653C85.9098 588.312 92.1389 594.541 99.7984 594.541H101.535C102.493 594.541 103.271 595.319 103.271 596.277C103.271 597.236 102.493 598.013 101.535 598.013Z" fill="white"/>
<defs>
<linearGradient id="paint0_linear" x1="122" y1="3" x2="122" y2="181.027" gradientUnits="userSpaceOnUse">
<stop stop-color="#616892"/>
<stop offset="1" stop-color="#707FA6"/>
</linearGradient>
<linearGradient id="paint1_linear" x1="98" y1="208" x2="111.219" y2="245.314" gradientUnits="userSpaceOnUse">
<stop stop-color="#FF6E5D"/>
<stop offset="1" stop-color="#B84CB7"/>
<stop offset="1" stop-color="#FF00E6"/>
</linearGradient>
<linearGradient id="paint2_linear" x1="96" y1="465" x2="109.219" y2="502.314" gradientUnits="userSpaceOnUse">
<stop stop-color="#FF6E5D"/>
<stop offset="1" stop-color="#B84CB7"/>
<stop offset="1" stop-color="#FF00E6"/>
</linearGradient>
<linearGradient id="paint3_linear" x1="122" y1="260" x2="122" y2="438.027" gradientUnits="userSpaceOnUse">
<stop stop-color="#616892"/>
<stop offset="1" stop-color="#707FA6"/>
</linearGradient>
<linearGradient id="paint4_linear" x1="122" y1="516" x2="122" y2="694.027" gradientUnits="userSpaceOnUse">
<stop stop-color="#616892"/>
<stop offset="1" stop-color="#707FA6"/>
</linearGradient>
</defs>
</svg>
