<svg width="1371" height="288" viewBox="0 0 1371 288" fill="none" xmlns="http://www.w3.org/2000/svg">
<rect x="495.5" y="1.5" width="380" height="285" rx="21.5" fill="url(#paint0_linear)" stroke="#00ABFE" stroke-width="3"/>
<rect x="1.5" y="1.5" width="380" height="285" rx="21.5" fill="url(#paint1_linear)" stroke="#00ABFE" stroke-width="3"/>
<rect x="989.5" y="1.5" width="380" height="285" rx="21.5" fill="url(#paint2_linear)" stroke="#00ABFE" stroke-width="3"/>
<path d="M418.59 175.66L441.9 136.42L418.59 97.18H436.5L459.18 136.42L436.41 175.66H418.59Z" fill="url(#paint3_linear)"/>
<path d="M917.59 175.66L940.9 136.42L917.59 97.18H935.5L958.18 136.42L935.41 175.66H917.59Z" fill="url(#paint4_linear)"/>
<path d="M65.984 243.064C64.992 243.064 64.224 242.808 63.68 242.296C63.1467 241.773 62.88 241.011 62.88 240.008V234.248C62.88 233.213 63.1573 232.424 63.712 231.88C64.2667 231.336 65.0293 231.064 66 231.064H68.464C69.4667 231.064 70.2187 231.347 70.72 231.912C71.2213 232.467 71.472 233.245 71.472 234.248V240.008C71.472 241 71.2053 241.757 70.672 242.28C70.1493 242.803 69.4133 243.064 68.464 243.064H65.984ZM66.544 240.936H67.824C68.6773 240.936 69.104 240.509 69.104 239.656V234.472C69.104 234.003 68.9973 233.672 68.784 233.48C68.5707 233.288 68.2827 233.192 67.92 233.192H66.464C65.6533 233.192 65.248 233.619 65.248 234.472V239.64C65.248 240.099 65.36 240.429 65.584 240.632C65.808 240.835 66.128 240.936 66.544 240.936ZM74.9514 243V233.32L72.8554 233.592V232.072L75.2074 231.048H77.3194V243H74.9514ZM87.2278 239.016V237.704H91.9798V239.016H87.2278ZM97.793 243V231.208H102.561C103.542 231.208 104.321 231.443 104.897 231.912C105.473 232.381 105.884 233.059 106.129 233.944C106.385 234.819 106.513 235.875 106.513 237.112C106.513 239 106.182 240.456 105.521 241.48C104.86 242.493 103.873 243 102.561 243H97.793ZM99.409 241.56H102.417C103.292 241.56 103.921 241.165 104.305 240.376C104.7 239.587 104.897 238.499 104.897 237.112C104.897 235.981 104.806 235.096 104.625 234.456C104.454 233.805 104.188 233.341 103.825 233.064C103.462 232.787 102.993 232.648 102.417 232.648H99.409V241.56ZM111.183 243.064C110.916 243.075 110.633 243.053 110.335 243C110.036 242.957 109.748 242.861 109.471 242.712C109.204 242.552 108.985 242.312 108.815 241.992C108.644 241.672 108.559 241.235 108.559 240.68V233.672C108.559 233.043 108.681 232.547 108.927 232.184C109.172 231.821 109.481 231.571 109.855 231.432C110.228 231.283 110.612 231.208 111.007 231.208C112.041 231.219 112.959 231.24 113.759 231.272C114.559 231.304 115.3 231.336 115.983 231.368V232.696H111.439C111.044 232.696 110.735 232.797 110.511 233C110.287 233.203 110.175 233.523 110.175 233.96V236.408L115.263 236.504V237.752L110.175 237.864V240.28C110.175 240.643 110.233 240.915 110.351 241.096C110.479 241.277 110.639 241.4 110.831 241.464C111.033 241.528 111.247 241.56 111.471 241.56H115.983V242.888C115.247 242.941 114.457 242.984 113.615 243.016C112.772 243.048 111.961 243.064 111.183 243.064ZM117.996 243V231.208H122.78C123.132 231.208 123.495 231.256 123.868 231.352C124.241 231.437 124.583 231.613 124.892 231.88C125.212 232.147 125.468 232.536 125.66 233.048C125.852 233.549 125.948 234.221 125.948 235.064C125.948 235.907 125.847 236.589 125.644 237.112C125.452 237.635 125.196 238.035 124.876 238.312C124.556 238.589 124.209 238.776 123.836 238.872C123.463 238.968 123.105 239.016 122.764 239.016C122.593 239.016 122.359 239.011 122.06 239C121.772 238.989 121.468 238.973 121.148 238.952C120.828 238.931 120.529 238.909 120.252 238.888C119.975 238.867 119.761 238.845 119.612 238.824V243H117.996ZM119.612 237.576H122.54C122.881 237.576 123.185 237.501 123.452 237.352C123.729 237.203 123.943 236.947 124.092 236.584C124.252 236.211 124.332 235.709 124.332 235.08C124.332 234.451 124.252 233.96 124.092 233.608C123.943 233.256 123.74 233.011 123.484 232.872C123.228 232.723 122.945 232.648 122.636 232.648H119.612V237.576ZM130.242 243C129.485 243 128.877 242.819 128.418 242.456C127.97 242.093 127.746 241.443 127.746 240.504V231.208H129.362V240.264C129.362 240.787 129.485 241.128 129.73 241.288C129.986 241.448 130.285 241.528 130.626 241.528H134.706V243H130.242ZM140.551 243.096C139.783 243.096 139.106 243.027 138.519 242.888C137.943 242.739 137.458 242.456 137.063 242.04C136.679 241.624 136.391 241.027 136.199 240.248C136.007 239.459 135.911 238.424 135.911 237.144C135.911 235.864 136.007 234.829 136.199 234.04C136.402 233.24 136.695 232.632 137.079 232.216C137.474 231.789 137.959 231.501 138.535 231.352C139.122 231.192 139.794 231.112 140.551 231.112C141.33 231.112 142.007 231.192 142.583 231.352C143.17 231.501 143.655 231.789 144.039 232.216C144.434 232.632 144.727 233.24 144.919 234.04C145.111 234.829 145.207 235.864 145.207 237.144C145.207 238.424 145.106 239.459 144.903 240.248C144.711 241.027 144.423 241.624 144.039 242.04C143.655 242.456 143.17 242.739 142.583 242.888C142.007 243.027 141.33 243.096 140.551 243.096ZM140.551 241.656C141.106 241.656 141.575 241.603 141.959 241.496C142.354 241.379 142.669 241.165 142.903 240.856C143.149 240.536 143.325 240.077 143.431 239.48C143.538 238.883 143.591 238.104 143.591 237.144C143.591 236.141 143.538 235.336 143.431 234.728C143.325 234.109 143.149 233.645 142.903 233.336C142.669 233.027 142.354 232.819 141.959 232.712C141.575 232.605 141.106 232.552 140.551 232.552C140.029 232.552 139.575 232.605 139.191 232.712C138.807 232.819 138.493 233.027 138.247 233.336C138.002 233.645 137.815 234.109 137.687 234.728C137.57 235.336 137.511 236.141 137.511 237.144C137.511 238.104 137.559 238.883 137.655 239.48C137.762 240.077 137.933 240.536 138.167 240.856C138.402 241.165 138.711 241.379 139.095 241.496C139.49 241.603 139.975 241.656 140.551 241.656ZM150.004 243V239.192L146.324 231.208H148.004L150.836 237.56L153.684 231.208H155.3L151.62 239.192V243H150.004ZM165.257 243V231.128H170.377C170.771 231.128 171.171 231.176 171.577 231.272C171.993 231.368 172.377 231.555 172.729 231.832C173.081 232.109 173.363 232.525 173.577 233.08C173.79 233.635 173.897 234.376 173.897 235.304C173.897 236.232 173.79 236.984 173.577 237.56C173.363 238.125 173.086 238.552 172.745 238.84C172.414 239.128 172.051 239.325 171.657 239.432C171.262 239.528 170.878 239.576 170.505 239.576C170.249 239.576 169.955 239.56 169.625 239.528C169.305 239.485 169.001 239.443 168.713 239.4C168.425 239.347 168.195 239.309 168.025 239.288V243H165.257ZM168.025 237.096H170.073C170.435 237.096 170.702 236.957 170.873 236.68C171.043 236.392 171.129 235.939 171.129 235.32C171.129 234.733 171.038 234.301 170.857 234.024C170.686 233.747 170.43 233.608 170.089 233.608H168.025V237.096ZM178.327 243.096C178.061 243.096 177.757 243.069 177.415 243.016C177.074 242.963 176.743 242.851 176.423 242.68C176.103 242.499 175.837 242.227 175.623 241.864C175.41 241.491 175.303 240.989 175.303 240.36V233.976C175.303 233.229 175.447 232.653 175.735 232.248C176.034 231.832 176.402 231.544 176.839 231.384C177.277 231.213 177.714 231.128 178.151 231.128C179.421 231.139 180.455 231.165 181.255 231.208C182.055 231.251 182.749 231.299 183.335 231.352V233.688H178.983C178.375 233.688 178.071 233.965 178.071 234.52V235.832L182.551 235.992V238.168L178.071 238.312V239.56C178.071 239.912 178.151 240.157 178.311 240.296C178.471 240.435 178.669 240.504 178.903 240.504H183.335V242.824C182.866 242.877 182.343 242.925 181.767 242.968C181.191 243.011 180.605 243.037 180.007 243.048C179.41 243.069 178.85 243.085 178.327 243.096ZM184.913 243V231.128H189.905C190.566 231.128 191.158 231.24 191.681 231.464C192.214 231.688 192.63 232.083 192.929 232.648C193.238 233.213 193.393 234.008 193.393 235.032C193.393 235.725 193.313 236.291 193.153 236.728C192.993 237.155 192.779 237.491 192.513 237.736C192.246 237.981 191.963 238.179 191.665 238.328L193.793 243H190.977L189.201 238.776C188.977 238.776 188.726 238.776 188.449 238.776C188.171 238.765 187.915 238.76 187.681 238.76V243H184.913ZM187.681 236.568H189.409C189.793 236.568 190.091 236.461 190.305 236.248C190.518 236.024 190.625 235.624 190.625 235.048C190.625 234.483 190.518 234.104 190.305 233.912C190.091 233.709 189.793 233.608 189.409 233.608H187.681V236.568ZM198.717 243.096C198.056 243.096 197.389 243.059 196.717 242.984C196.056 242.899 195.464 242.792 194.941 242.664V240.472C195.443 240.525 196.029 240.563 196.701 240.584C197.373 240.605 197.997 240.616 198.573 240.616C199.139 240.616 199.571 240.547 199.869 240.408C200.179 240.269 200.333 240.008 200.333 239.624V239.32C200.333 239.032 200.237 238.813 200.045 238.664C199.864 238.515 199.629 238.44 199.341 238.44H198.413C197.219 238.44 196.312 238.179 195.693 237.656C195.075 237.133 194.765 236.253 194.765 235.016V234.456C194.765 233.293 195.101 232.435 195.773 231.88C196.456 231.315 197.443 231.032 198.733 231.032C199.427 231.032 200.093 231.08 200.733 231.176C201.373 231.272 201.923 231.373 202.381 231.48V233.656C201.891 233.624 201.341 233.592 200.733 233.56C200.125 233.528 199.571 233.512 199.069 233.512C198.557 233.512 198.147 233.581 197.837 233.72C197.539 233.859 197.389 234.152 197.389 234.6V234.824C197.389 235.485 197.789 235.816 198.589 235.816H199.693C200.419 235.816 201.021 235.955 201.501 236.232C201.992 236.499 202.355 236.872 202.589 237.352C202.835 237.821 202.957 238.355 202.957 238.952V239.544C202.957 240.525 202.781 241.272 202.429 241.784C202.088 242.296 201.597 242.643 200.957 242.824C200.317 243.005 199.571 243.096 198.717 243.096ZM209.241 243.096C208.42 243.096 207.695 243.016 207.065 242.856C206.447 242.696 205.929 242.403 205.513 241.976C205.097 241.549 204.783 240.941 204.569 240.152C204.356 239.363 204.249 238.333 204.249 237.064C204.249 235.805 204.356 234.781 204.569 233.992C204.783 233.192 205.097 232.579 205.513 232.152C205.929 231.725 206.447 231.432 207.065 231.272C207.695 231.101 208.42 231.016 209.241 231.016C210.063 231.016 210.783 231.101 211.401 231.272C212.031 231.432 212.553 231.725 212.969 232.152C213.385 232.579 213.7 233.192 213.913 233.992C214.127 234.781 214.233 235.805 214.233 237.064C214.233 238.333 214.127 239.363 213.913 240.152C213.7 240.941 213.385 241.549 212.969 241.976C212.553 242.403 212.031 242.696 211.401 242.856C210.783 243.016 210.063 243.096 209.241 243.096ZM209.241 240.616C209.817 240.616 210.265 240.525 210.585 240.344C210.916 240.152 211.145 239.805 211.273 239.304C211.401 238.792 211.465 238.045 211.465 237.064C211.465 236.307 211.428 235.693 211.353 235.224C211.289 234.755 211.172 234.397 211.001 234.152C210.841 233.896 210.617 233.725 210.329 233.64C210.041 233.544 209.679 233.496 209.241 233.496C208.815 233.496 208.457 233.544 208.169 233.64C207.881 233.725 207.652 233.896 207.481 234.152C207.321 234.397 207.204 234.755 207.129 235.224C207.055 235.693 207.017 236.307 207.017 237.064C207.017 238.045 207.081 238.792 207.209 239.304C207.337 239.805 207.561 240.152 207.881 240.344C208.201 240.525 208.655 240.616 209.241 240.616ZM215.867 243V231.128H218.059L222.603 238.312V231.128H225.371V243H223.163L218.619 235.832V243H215.867ZM226.426 243L230.042 231.128H233.498L237.114 243H234.25L233.642 240.84H229.866L229.274 243H226.426ZM230.506 238.36H233.002L231.754 233.496L230.506 238.36ZM241.201 243C240.188 243 239.441 242.771 238.961 242.312C238.481 241.853 238.241 241.096 238.241 240.04V231.128H241.009V239.576C241.009 239.917 241.089 240.163 241.249 240.312C241.42 240.451 241.649 240.52 241.937 240.52H245.537V243H241.201ZM254.546 243.096C253.884 243.096 253.218 243.059 252.546 242.984C251.884 242.899 251.292 242.792 250.77 242.664V240.472C251.271 240.525 251.858 240.563 252.53 240.584C253.202 240.605 253.826 240.616 254.402 240.616C254.967 240.616 255.399 240.547 255.698 240.408C256.007 240.269 256.162 240.008 256.162 239.624V239.32C256.162 239.032 256.066 238.813 255.874 238.664C255.692 238.515 255.458 238.44 255.17 238.44H254.242C253.047 238.44 252.14 238.179 251.522 237.656C250.903 237.133 250.594 236.253 250.594 235.016V234.456C250.594 233.293 250.93 232.435 251.602 231.88C252.284 231.315 253.271 231.032 254.562 231.032C255.255 231.032 255.922 231.08 256.562 231.176C257.202 231.272 257.751 231.373 258.21 231.48V233.656C257.719 233.624 257.17 233.592 256.562 233.56C255.954 233.528 255.399 233.512 254.898 233.512C254.386 233.512 253.975 233.581 253.666 233.72C253.367 233.859 253.218 234.152 253.218 234.6V234.824C253.218 235.485 253.618 235.816 254.418 235.816H255.522C256.247 235.816 256.85 235.955 257.33 236.232C257.82 236.499 258.183 236.872 258.418 237.352C258.663 237.821 258.786 238.355 258.786 238.952V239.544C258.786 240.525 258.61 241.272 258.258 241.784C257.916 242.296 257.426 242.643 256.786 242.824C256.146 243.005 255.399 243.096 254.546 243.096ZM263.406 243.096C263.139 243.096 262.835 243.069 262.494 243.016C262.152 242.963 261.822 242.851 261.502 242.68C261.182 242.499 260.915 242.227 260.702 241.864C260.488 241.491 260.382 240.989 260.382 240.36V233.976C260.382 233.229 260.526 232.653 260.814 232.248C261.112 231.832 261.48 231.544 261.918 231.384C262.355 231.213 262.792 231.128 263.23 231.128C264.499 231.139 265.534 231.165 266.334 231.208C267.134 231.251 267.827 231.299 268.414 231.352V233.688H264.062C263.454 233.688 263.15 233.965 263.15 234.52V235.832L267.63 235.992V238.168L263.15 238.312V239.56C263.15 239.912 263.23 240.157 263.39 240.296C263.55 240.435 263.747 240.504 263.982 240.504H268.414V242.824C267.944 242.877 267.422 242.925 266.846 242.968C266.27 243.011 265.683 243.037 265.086 243.048C264.488 243.069 263.928 243.085 263.406 243.096ZM269.991 243V231.128H274.983C275.644 231.128 276.236 231.24 276.759 231.464C277.292 231.688 277.708 232.083 278.007 232.648C278.316 233.213 278.471 234.008 278.471 235.032C278.471 235.725 278.391 236.291 278.231 236.728C278.071 237.155 277.858 237.491 277.591 237.736C277.324 237.981 277.042 238.179 276.743 238.328L278.871 243H276.055L274.279 238.776C274.055 238.776 273.804 238.776 273.527 238.776C273.25 238.765 272.994 238.76 272.759 238.76V243H269.991ZM272.759 236.568H274.487C274.871 236.568 275.17 236.461 275.383 236.248C275.596 236.024 275.703 235.624 275.703 235.048C275.703 234.483 275.596 234.104 275.383 233.912C275.17 233.709 274.871 233.608 274.487 233.608H272.759V236.568ZM282.964 243L279.348 231.128H282.212L284.708 240.008L287.204 231.128H290.036L286.42 243H282.964ZM291.163 243V231.128H293.931V243H291.163ZM299.851 243.096C299.168 243.096 298.56 243.016 298.027 242.856C297.494 242.696 297.04 242.403 296.667 241.976C296.294 241.549 296.006 240.941 295.803 240.152C295.611 239.352 295.515 238.312 295.515 237.032C295.515 235.795 295.616 234.787 295.819 234.008C296.032 233.219 296.326 232.611 296.699 232.184C297.083 231.747 297.542 231.443 298.075 231.272C298.608 231.101 299.206 231.016 299.867 231.016C300.763 231.016 301.531 231.085 302.171 231.224C302.822 231.363 303.323 231.496 303.675 231.624V233.768C303.376 233.704 302.939 233.645 302.363 233.592C301.798 233.528 301.163 233.496 300.459 233.496C300.054 233.496 299.712 233.544 299.435 233.64C299.158 233.725 298.934 233.891 298.763 234.136C298.592 234.371 298.47 234.728 298.395 235.208C298.32 235.677 298.283 236.291 298.283 237.048C298.283 238.008 298.342 238.744 298.459 239.256C298.576 239.768 298.79 240.125 299.099 240.328C299.419 240.52 299.878 240.616 300.475 240.616C301.286 240.616 301.942 240.6 302.443 240.568C302.955 240.536 303.366 240.499 303.675 240.456V242.6C303.259 242.76 302.742 242.883 302.123 242.968C301.515 243.053 300.758 243.096 299.851 243.096ZM308.093 243.096C307.826 243.096 307.522 243.069 307.181 243.016C306.84 242.963 306.509 242.851 306.189 242.68C305.869 242.499 305.602 242.227 305.389 241.864C305.176 241.491 305.069 240.989 305.069 240.36V233.976C305.069 233.229 305.213 232.653 305.501 232.248C305.8 231.832 306.168 231.544 306.605 231.384C307.042 231.213 307.48 231.128 307.917 231.128C309.186 231.139 310.221 231.165 311.021 231.208C311.821 231.251 312.514 231.299 313.101 231.352V233.688H308.749C308.141 233.688 307.837 233.965 307.837 234.52V235.832L312.317 235.992V238.168L307.837 238.312V239.56C307.837 239.912 307.917 240.157 308.077 240.296C308.237 240.435 308.434 240.504 308.669 240.504H313.101V242.824C312.632 242.877 312.109 242.925 311.533 242.968C310.957 243.011 310.37 243.037 309.773 243.048C309.176 243.069 308.616 243.085 308.093 243.096ZM318.342 243.096C317.681 243.096 317.014 243.059 316.342 242.984C315.681 242.899 315.089 242.792 314.566 242.664V240.472C315.068 240.525 315.654 240.563 316.326 240.584C316.998 240.605 317.622 240.616 318.198 240.616C318.764 240.616 319.196 240.547 319.494 240.408C319.804 240.269 319.958 240.008 319.958 239.624V239.32C319.958 239.032 319.862 238.813 319.67 238.664C319.489 238.515 319.254 238.44 318.966 238.44H318.038C316.844 238.44 315.937 238.179 315.318 237.656C314.7 237.133 314.39 236.253 314.39 235.016V234.456C314.39 233.293 314.726 232.435 315.398 231.88C316.081 231.315 317.068 231.032 318.358 231.032C319.052 231.032 319.718 231.08 320.358 231.176C320.998 231.272 321.548 231.373 322.006 231.48V233.656C321.516 233.624 320.966 233.592 320.358 233.56C319.75 233.528 319.196 233.512 318.694 233.512C318.182 233.512 317.772 233.581 317.462 233.72C317.164 233.859 317.014 234.152 317.014 234.6V234.824C317.014 235.485 317.414 235.816 318.214 235.816H319.318C320.044 235.816 320.646 235.955 321.126 236.232C321.617 236.499 321.98 236.872 322.214 237.352C322.46 237.821 322.582 238.355 322.582 238.952V239.544C322.582 240.525 322.406 241.272 322.054 241.784C321.713 242.296 321.222 242.643 320.582 242.824C319.942 243.005 319.196 243.096 318.342 243.096Z" fill="white"/>
<path d="M1041.69 233.064C1040.69 233.064 1039.92 232.803 1039.39 232.28C1038.86 231.757 1038.59 231 1038.59 230.008V224.248C1038.59 223.224 1038.86 222.44 1039.41 221.896C1039.96 221.341 1040.73 221.064 1041.71 221.064H1044.17C1045.16 221.064 1045.9 221.341 1046.41 221.896C1046.93 222.451 1047.18 223.235 1047.18 224.248V230.008C1047.18 230.989 1046.92 231.747 1046.38 232.28C1045.86 232.803 1045.12 233.064 1044.17 233.064H1041.69ZM1043.53 230.936C1044.39 230.936 1044.81 230.509 1044.81 229.656V224.472C1044.81 223.619 1044.42 223.192 1043.63 223.192H1042.17C1041.78 223.192 1041.48 223.304 1041.26 223.528C1041.06 223.741 1040.96 224.056 1040.96 224.472V229.64C1040.96 230.504 1041.39 230.936 1042.25 230.936H1043.53ZM1053.21 233.096C1051.53 233.096 1050.02 232.984 1048.68 232.76V230.856H1052.31C1052.98 230.856 1053.46 230.776 1053.75 230.616C1054.05 230.456 1054.2 230.168 1054.2 229.752V229.256C1054.2 228.509 1053.68 228.115 1052.65 228.072L1049.73 227.96V226.136L1052.55 225.976C1053.05 225.955 1053.43 225.864 1053.69 225.704C1053.94 225.544 1054.07 225.293 1054.07 224.952V224.552C1054.07 224.125 1053.93 223.811 1053.64 223.608C1053.35 223.405 1052.88 223.304 1052.23 223.304H1048.93V221.416C1050.56 221.16 1051.97 221.043 1053.17 221.064C1054.22 221.075 1055.02 221.331 1055.57 221.832C1056.13 222.323 1056.41 223.043 1056.41 223.992V224.872C1056.41 225.459 1056.27 225.933 1056.01 226.296C1055.74 226.648 1055.38 226.899 1054.93 227.048C1055.4 227.187 1055.79 227.48 1056.1 227.928C1056.42 228.376 1056.58 228.925 1056.58 229.576V230.184C1056.58 231.123 1056.28 231.843 1055.69 232.344C1055.1 232.845 1054.27 233.096 1053.21 233.096ZM1061.99 227.704H1066.74V229.016H1061.99V227.704ZM1076.81 233.096C1075.37 233.096 1074.27 232.819 1073.51 232.264C1072.76 231.699 1072.39 230.712 1072.39 229.304V221.208H1074.01V229.288C1074.01 230.152 1074.24 230.76 1074.71 231.112C1075.18 231.464 1075.88 231.64 1076.81 231.64C1077.75 231.64 1078.45 231.464 1078.92 231.112C1079.39 230.76 1079.62 230.152 1079.62 229.288V221.208H1081.24V229.304C1081.24 230.712 1080.86 231.699 1080.1 232.264C1079.35 232.819 1078.25 233.096 1076.81 233.096ZM1086.82 233.096C1086.27 233.096 1085.64 233.064 1084.91 233C1084.2 232.947 1083.63 232.872 1083.22 232.776V231.528C1084.1 231.613 1085.28 231.656 1086.75 231.656C1087.51 231.656 1088.1 231.544 1088.51 231.32C1088.93 231.085 1089.14 230.664 1089.14 230.056V229.368C1089.14 228.376 1088.61 227.88 1087.55 227.88H1086.35C1085.3 227.88 1084.5 227.651 1083.95 227.192C1083.41 226.723 1083.14 225.96 1083.14 224.904V224.248C1083.14 223.16 1083.43 222.365 1084.02 221.864C1084.62 221.363 1085.5 221.112 1086.67 221.112C1087.19 221.112 1087.77 221.149 1088.43 221.224C1089.1 221.299 1089.66 221.379 1090.13 221.464V222.712L1089.79 222.696C1088.43 222.6 1087.45 222.552 1086.85 222.552C1086.12 222.552 1085.58 222.68 1085.22 222.936C1084.86 223.192 1084.67 223.656 1084.67 224.328V224.808C1084.67 225.363 1084.82 225.757 1085.11 225.992C1085.4 226.227 1085.85 226.344 1086.43 226.344H1087.73C1088.69 226.344 1089.42 226.605 1089.92 227.128C1090.42 227.64 1090.67 228.323 1090.67 229.176V230.008C1090.67 231.171 1090.34 231.976 1089.67 232.424C1088.99 232.872 1088.04 233.096 1086.82 233.096ZM1095.25 233.064C1094.55 233.064 1093.95 232.904 1093.46 232.584C1092.97 232.264 1092.72 231.629 1092.72 230.68V223.672C1092.72 222.808 1092.96 222.184 1093.43 221.8C1093.9 221.405 1094.46 221.208 1095.12 221.208C1096.39 221.208 1097.83 221.251 1099.43 221.336L1100.15 221.368V222.696H1095.6C1094.76 222.696 1094.34 223.117 1094.34 223.96V226.408L1099.43 226.504V227.752L1094.34 227.864V230.28C1094.34 230.781 1094.46 231.123 1094.69 231.304C1094.93 231.475 1095.24 231.56 1095.63 231.56H1100.15V232.888C1098.31 233.005 1096.68 233.064 1095.25 233.064ZM1106 221.128H1111.13C1112.69 221.128 1113.79 221.651 1114.41 222.696C1115.04 223.731 1115.36 225.192 1115.36 227.08C1115.36 229.107 1115.01 230.6 1114.32 231.56C1113.63 232.52 1112.56 233 1111.13 233H1106V221.128ZM1110.86 230.52C1111.5 230.52 1111.95 230.248 1112.21 229.704C1112.47 229.16 1112.61 228.285 1112.61 227.08C1112.61 226.131 1112.54 225.405 1112.4 224.904C1112.27 224.403 1112.08 224.061 1111.84 223.88C1111.59 223.699 1111.27 223.608 1110.86 223.608H1108.77V230.52H1110.86ZM1119.98 233.096C1117.96 233.096 1116.95 232.184 1116.95 230.36V223.976C1116.95 222.963 1117.23 222.237 1117.78 221.8C1118.35 221.352 1119.02 221.128 1119.8 221.128C1121.57 221.139 1123.3 221.213 1124.98 221.352V223.688H1120.63C1120.34 223.688 1120.12 223.757 1119.96 223.896C1119.8 224.035 1119.72 224.243 1119.72 224.52V225.832L1124.2 225.992V228.168L1119.72 228.312V229.56C1119.72 229.88 1119.79 230.12 1119.94 230.28C1120.1 230.429 1120.31 230.504 1120.55 230.504H1124.98V232.824C1123.7 232.984 1122.03 233.075 1119.98 233.096ZM1125.78 221.128H1128.64L1131.14 230.008L1133.63 221.128H1136.47L1132.85 233H1129.39L1125.78 221.128ZM1145.32 233.096C1144.66 233.096 1143.99 233.059 1143.32 232.984C1142.66 232.909 1142.07 232.803 1141.54 232.664V230.472C1142.56 230.568 1143.77 230.616 1145.17 230.616C1145.77 230.616 1146.21 230.547 1146.5 230.408C1146.79 230.259 1146.93 229.997 1146.93 229.624V229.32C1146.93 229.043 1146.84 228.829 1146.66 228.68C1146.48 228.52 1146.24 228.44 1145.94 228.44H1145.01C1143.79 228.44 1142.87 228.173 1142.26 227.64C1141.67 227.096 1141.37 226.221 1141.37 225.016V224.456C1141.37 223.304 1141.7 222.445 1142.37 221.88C1143.05 221.315 1144.03 221.032 1145.33 221.032C1146.45 221.032 1147.67 221.181 1148.98 221.48V223.656C1147.5 223.56 1146.4 223.512 1145.67 223.512C1145.11 223.512 1144.68 223.592 1144.41 223.752C1144.13 223.901 1143.99 224.184 1143.99 224.6V224.824C1143.99 225.485 1144.39 225.816 1145.19 225.816H1146.29C1147.35 225.816 1148.16 226.104 1148.71 226.68C1149.28 227.256 1149.56 228.013 1149.56 228.952V229.544C1149.56 230.493 1149.39 231.229 1149.05 231.752C1148.72 232.264 1148.25 232.616 1147.64 232.808C1147.03 233 1146.26 233.096 1145.32 233.096ZM1154.18 233.096C1152.16 233.096 1151.15 232.184 1151.15 230.36V223.976C1151.15 222.963 1151.43 222.237 1151.99 221.8C1152.55 221.352 1153.22 221.128 1154 221.128C1155.77 221.139 1157.5 221.213 1159.19 221.352V223.688H1154.83C1154.55 223.688 1154.32 223.757 1154.16 223.896C1154 224.035 1153.92 224.243 1153.92 224.52V225.832L1158.4 225.992V228.168L1153.92 228.312V229.56C1153.92 229.88 1154 230.12 1154.15 230.28C1154.31 230.429 1154.51 230.504 1154.75 230.504H1159.19V232.824C1157.91 232.984 1156.24 233.075 1154.18 233.096ZM1160.76 221.128H1165.76C1166.85 221.128 1167.71 221.421 1168.32 222.008C1168.93 222.584 1169.24 223.592 1169.24 225.032C1169.24 225.992 1169.09 226.712 1168.78 227.192C1168.48 227.672 1168.06 228.051 1167.52 228.328L1169.64 233H1166.83L1165.05 228.776C1164.75 228.765 1164.25 228.76 1163.53 228.76V233H1160.76V221.128ZM1165.26 226.568C1165.67 226.568 1165.97 226.456 1166.17 226.232C1166.37 225.997 1166.48 225.603 1166.48 225.048C1166.48 224.504 1166.37 224.131 1166.17 223.928C1165.97 223.715 1165.67 223.608 1165.26 223.608H1163.53V226.568H1165.26ZM1170.12 221.128H1172.98L1175.48 230.008L1177.98 221.128H1180.81L1177.19 233H1173.74L1170.12 221.128ZM1181.94 221.128H1184.7V233H1181.94V221.128ZM1190.62 233.096C1189.64 233.096 1188.84 232.936 1188.22 232.616C1187.61 232.296 1187.13 231.699 1186.78 230.824C1186.45 229.939 1186.29 228.675 1186.29 227.032C1186.29 225.443 1186.46 224.211 1186.8 223.336C1187.15 222.461 1187.64 221.859 1188.27 221.528C1188.9 221.187 1189.69 221.016 1190.64 221.016C1191.45 221.016 1192.18 221.075 1192.83 221.192C1193.48 221.309 1194.02 221.453 1194.45 221.624V223.768C1193.47 223.587 1192.4 223.496 1191.23 223.496C1190.66 223.496 1190.22 223.587 1189.92 223.768C1189.62 223.939 1189.4 224.275 1189.26 224.776C1189.13 225.277 1189.06 226.035 1189.06 227.048C1189.06 228.04 1189.12 228.787 1189.23 229.288C1189.35 229.779 1189.56 230.125 1189.87 230.328C1190.18 230.52 1190.64 230.616 1191.25 230.616C1192.69 230.616 1193.76 230.563 1194.45 230.456V232.6C1193.54 232.931 1192.27 233.096 1190.62 233.096ZM1198.87 233.096C1196.85 233.096 1195.84 232.184 1195.84 230.36V223.976C1195.84 222.963 1196.12 222.237 1196.67 221.8C1197.24 221.352 1197.91 221.128 1198.69 221.128C1200.46 221.139 1202.19 221.213 1203.87 221.352V223.688H1199.52C1199.23 223.688 1199.01 223.757 1198.85 223.896C1198.69 224.035 1198.61 224.243 1198.61 224.52V225.832L1203.09 225.992V228.168L1198.61 228.312V229.56C1198.61 229.88 1198.69 230.12 1198.83 230.28C1198.99 230.429 1199.2 230.504 1199.44 230.504H1203.87V232.824C1202.59 232.984 1200.93 233.075 1198.87 233.096ZM1209.12 233.096C1208.45 233.096 1207.79 233.059 1207.12 232.984C1206.45 232.909 1205.86 232.803 1205.34 232.664V230.472C1206.35 230.568 1207.56 230.616 1208.97 230.616C1209.57 230.616 1210.01 230.547 1210.3 230.408C1210.59 230.259 1210.73 229.997 1210.73 229.624V229.32C1210.73 229.043 1210.64 228.829 1210.46 228.68C1210.28 228.52 1210.04 228.44 1209.74 228.44H1208.81C1207.59 228.44 1206.67 228.173 1206.06 227.64C1205.46 227.096 1205.16 226.221 1205.16 225.016V224.456C1205.16 223.304 1205.5 222.445 1206.17 221.88C1206.84 221.315 1207.83 221.032 1209.13 221.032C1210.25 221.032 1211.47 221.181 1212.78 221.48V223.656C1211.3 223.56 1210.19 223.512 1209.47 223.512C1208.9 223.512 1208.48 223.592 1208.2 223.752C1207.93 223.901 1207.79 224.184 1207.79 224.6V224.824C1207.79 225.485 1208.19 225.816 1208.99 225.816H1210.09C1211.15 225.816 1211.95 226.104 1212.51 226.68C1213.07 227.256 1213.36 228.013 1213.36 228.952V229.544C1213.36 230.493 1213.19 231.229 1212.84 231.752C1212.51 232.264 1212.04 232.616 1211.44 232.808C1210.83 233 1210.05 233.096 1209.12 233.096ZM1226.11 222.648H1222.59V221.208H1231.25V222.648H1227.73V233H1226.11V222.648ZM1236.95 233.096C1235.83 233.096 1234.94 232.947 1234.29 232.648C1233.64 232.349 1233.15 231.773 1232.81 230.92C1232.48 230.067 1232.31 228.808 1232.31 227.144C1232.31 225.48 1232.48 224.216 1232.82 223.352C1233.16 222.477 1233.66 221.885 1234.31 221.576C1234.96 221.267 1235.84 221.112 1236.95 221.112C1238.08 221.112 1238.97 221.267 1239.62 221.576C1240.27 221.885 1240.76 222.477 1241.09 223.352C1241.44 224.216 1241.61 225.48 1241.61 227.144C1241.61 228.808 1241.44 230.067 1241.09 230.92C1240.76 231.773 1240.27 232.349 1239.62 232.648C1238.97 232.947 1238.08 233.096 1236.95 233.096ZM1236.95 231.656C1237.74 231.656 1238.35 231.544 1238.77 231.32C1239.2 231.096 1239.51 230.664 1239.7 230.024C1239.89 229.384 1239.99 228.424 1239.99 227.144C1239.99 225.811 1239.89 224.819 1239.7 224.168C1239.51 223.517 1239.2 223.085 1238.77 222.872C1238.36 222.659 1237.75 222.552 1236.95 222.552C1236.18 222.552 1235.58 222.664 1235.16 222.888C1234.74 223.101 1234.43 223.533 1234.21 224.184C1234.01 224.835 1233.91 225.821 1233.91 227.144C1233.91 228.435 1234 229.4 1234.18 230.04C1234.37 230.669 1234.68 231.096 1235.09 231.32C1235.52 231.544 1236.14 231.656 1236.95 231.656ZM1251.81 233.096C1250.8 233.096 1250 232.941 1249.4 232.632C1248.81 232.312 1248.37 231.72 1248.07 230.856C1247.77 229.981 1247.62 228.717 1247.62 227.064C1247.62 225.496 1247.78 224.28 1248.09 223.416C1248.4 222.552 1248.85 221.955 1249.46 221.624C1250.07 221.283 1250.88 221.112 1251.88 221.112C1252.43 221.112 1253.03 221.16 1253.67 221.256C1254.31 221.341 1254.88 221.448 1255.37 221.576V222.792C1255.02 222.739 1254.56 222.685 1253.96 222.632C1253.36 222.579 1252.76 222.552 1252.17 222.552C1251.41 222.552 1250.82 222.675 1250.41 222.92C1250 223.155 1249.7 223.597 1249.51 224.248C1249.32 224.888 1249.22 225.832 1249.22 227.08C1249.22 228.36 1249.31 229.325 1249.49 229.976C1249.68 230.616 1249.97 231.059 1250.37 231.304C1250.78 231.539 1251.37 231.656 1252.15 231.656C1253.44 231.656 1254.51 231.592 1255.37 231.464V232.696C1254.3 232.963 1253.12 233.096 1251.81 233.096ZM1261.42 233.096C1260.3 233.096 1259.41 232.947 1258.76 232.648C1258.11 232.349 1257.62 231.773 1257.27 230.92C1256.94 230.067 1256.78 228.808 1256.78 227.144C1256.78 225.48 1256.95 224.216 1257.29 223.352C1257.63 222.477 1258.13 221.885 1258.78 221.576C1259.43 221.267 1260.31 221.112 1261.42 221.112C1262.55 221.112 1263.44 221.267 1264.09 221.576C1264.74 221.885 1265.23 222.477 1265.56 223.352C1265.9 224.216 1266.07 225.48 1266.07 227.144C1266.07 228.808 1265.9 230.067 1265.56 230.92C1265.23 231.773 1264.74 232.349 1264.09 232.648C1263.44 232.947 1262.55 233.096 1261.42 233.096ZM1261.42 231.656C1262.21 231.656 1262.82 231.544 1263.24 231.32C1263.67 231.096 1263.98 230.664 1264.17 230.024C1264.36 229.384 1264.46 228.424 1264.46 227.144C1264.46 225.811 1264.36 224.819 1264.17 224.168C1263.98 223.517 1263.67 223.085 1263.24 222.872C1262.83 222.659 1262.22 222.552 1261.42 222.552C1260.65 222.552 1260.05 222.664 1259.63 222.888C1259.21 223.101 1258.9 223.533 1258.68 224.184C1258.48 224.835 1258.38 225.821 1258.38 227.144C1258.38 228.435 1258.47 229.4 1258.65 230.04C1258.84 230.669 1259.15 231.096 1259.56 231.32C1259.99 231.544 1260.61 231.656 1261.42 231.656ZM1268.29 221.208H1269.6L1275.38 230.248V221.208H1276.98V233H1275.68L1269.91 223.96V233H1268.29V221.208ZM1281.75 222.648H1278.23V221.208H1286.89V222.648H1283.37V233H1281.75V222.648ZM1288.32 221.208H1293.04C1294 221.208 1294.76 221.464 1295.32 221.976C1295.9 222.477 1296.19 223.411 1296.19 224.776C1296.19 225.875 1295.99 226.659 1295.58 227.128C1295.19 227.597 1294.68 227.917 1294.06 228.088L1296.41 233H1294.78L1292.6 228.312L1290.41 228.28C1290.3 228.269 1290.14 228.264 1289.93 228.264V233H1288.32V221.208ZM1292.78 227.016C1293.36 227.016 1293.8 226.856 1294.11 226.536C1294.43 226.216 1294.59 225.629 1294.59 224.776C1294.59 223.955 1294.43 223.395 1294.11 223.096C1293.79 222.797 1293.35 222.648 1292.78 222.648H1289.93V227.016H1292.78ZM1298.14 221.208H1299.76V233H1298.14V221.208ZM1302.1 221.208H1306.48C1308.57 221.208 1309.62 222.221 1309.62 224.248C1309.62 224.952 1309.46 225.533 1309.15 225.992C1308.86 226.451 1308.46 226.744 1307.97 226.872C1308.51 227.011 1308.99 227.315 1309.41 227.784C1309.83 228.253 1310.03 228.904 1310.03 229.736C1310.03 230.92 1309.75 231.763 1309.19 232.264C1308.62 232.755 1307.78 233 1306.66 233H1302.1V221.208ZM1306.53 226.328C1307 226.328 1307.37 226.152 1307.65 225.8C1307.94 225.448 1308.08 224.973 1308.08 224.376C1308.08 223.224 1307.54 222.648 1306.47 222.648H1303.71V226.328H1306.53ZM1306.61 231.56C1307.22 231.56 1307.68 231.405 1308 231.096C1308.33 230.776 1308.5 230.232 1308.5 229.464C1308.5 228.877 1308.32 228.419 1307.95 228.088C1307.6 227.747 1307.15 227.576 1306.61 227.576H1303.71V231.56H1306.61ZM1316.13 233.096C1314.69 233.096 1313.6 232.819 1312.84 232.264C1312.09 231.699 1311.72 230.712 1311.72 229.304V221.208H1313.33V229.288C1313.33 230.152 1313.57 230.76 1314.04 231.112C1314.51 231.464 1315.21 231.64 1316.13 231.64C1317.07 231.64 1317.78 231.464 1318.25 231.112C1318.72 230.76 1318.95 230.152 1318.95 229.288V221.208H1320.57V229.304C1320.57 230.712 1320.19 231.699 1319.43 232.264C1318.67 232.819 1317.57 233.096 1316.13 233.096ZM1325.35 222.648H1321.83V221.208H1330.48V222.648H1326.96V233H1325.35V222.648ZM1334.28 233.064C1333.58 233.064 1332.98 232.904 1332.49 232.584C1332 232.264 1331.75 231.629 1331.75 230.68V223.672C1331.75 222.808 1331.99 222.184 1332.46 221.8C1332.93 221.405 1333.49 221.208 1334.15 221.208C1335.42 221.208 1336.86 221.251 1338.46 221.336L1339.18 221.368V222.696H1334.63C1333.79 222.696 1333.37 223.117 1333.37 223.96V226.408L1338.46 226.504V227.752L1333.37 227.864V230.28C1333.37 230.781 1333.49 231.123 1333.72 231.304C1333.96 231.475 1334.27 231.56 1334.67 231.56H1339.18V232.888C1337.34 233.005 1335.71 233.064 1334.28 233.064ZM1098.73 254.096C1097.61 254.096 1096.73 253.947 1096.07 253.648C1095.42 253.349 1094.93 252.773 1094.59 251.92C1094.26 251.067 1094.09 249.808 1094.09 248.144C1094.09 246.48 1094.26 245.216 1094.6 244.352C1094.94 243.477 1095.44 242.885 1096.09 242.576C1096.74 242.267 1097.62 242.112 1098.73 242.112C1099.86 242.112 1100.75 242.267 1101.4 242.576C1102.05 242.885 1102.54 243.477 1102.87 244.352C1103.22 245.216 1103.39 246.48 1103.39 248.144C1103.39 249.808 1103.22 251.067 1102.87 251.92C1102.54 252.773 1102.05 253.349 1101.4 253.648C1100.75 253.947 1099.86 254.096 1098.73 254.096ZM1098.73 252.656C1099.52 252.656 1100.13 252.544 1100.55 252.32C1100.98 252.096 1101.29 251.664 1101.48 251.024C1101.67 250.384 1101.77 249.424 1101.77 248.144C1101.77 246.811 1101.67 245.819 1101.48 245.168C1101.29 244.517 1100.98 244.085 1100.55 243.872C1100.14 243.659 1099.53 243.552 1098.73 243.552C1097.96 243.552 1097.37 243.664 1096.94 243.888C1096.52 244.101 1096.21 244.533 1095.99 245.184C1095.79 245.835 1095.69 246.821 1095.69 248.144C1095.69 249.435 1095.78 250.4 1095.96 251.04C1096.15 251.669 1096.46 252.096 1096.87 252.32C1097.3 252.544 1097.92 252.656 1098.73 252.656ZM1105.43 242.208H1110.15C1111.11 242.208 1111.87 242.464 1112.43 242.976C1113.01 243.477 1113.3 244.411 1113.3 245.776C1113.3 246.875 1113.1 247.659 1112.69 248.128C1112.3 248.597 1111.79 248.917 1111.17 249.088L1113.52 254H1111.89L1109.71 249.312L1107.52 249.28C1107.4 249.269 1107.24 249.264 1107.04 249.264V254H1105.43V242.208ZM1109.89 248.016C1110.47 248.016 1110.91 247.856 1111.22 247.536C1111.54 247.216 1111.7 246.629 1111.7 245.776C1111.7 244.955 1111.54 244.395 1111.22 244.096C1110.9 243.797 1110.46 243.648 1109.89 243.648H1107.04V248.016H1109.89ZM1119.52 242.208H1123.9C1125.99 242.208 1127.04 243.221 1127.04 245.248C1127.04 245.952 1126.88 246.533 1126.58 246.992C1126.28 247.451 1125.88 247.744 1125.39 247.872C1125.94 248.011 1126.42 248.315 1126.83 248.784C1127.25 249.253 1127.46 249.904 1127.46 250.736C1127.46 251.92 1127.17 252.763 1126.61 253.264C1126.04 253.755 1125.2 254 1124.08 254H1119.52V242.208ZM1123.95 247.328C1124.42 247.328 1124.79 247.152 1125.07 246.8C1125.36 246.448 1125.5 245.973 1125.5 245.376C1125.5 244.224 1124.96 243.648 1123.89 243.648H1121.14V247.328H1123.95ZM1124.03 252.56C1124.64 252.56 1125.1 252.405 1125.42 252.096C1125.75 251.776 1125.92 251.232 1125.92 250.464C1125.92 249.877 1125.74 249.419 1125.38 249.088C1125.02 248.747 1124.58 248.576 1124.03 248.576H1121.14V252.56H1124.03ZM1133.56 254.096C1132.12 254.096 1131.02 253.819 1130.26 253.264C1129.51 252.699 1129.14 251.712 1129.14 250.304V242.208H1130.76V250.288C1130.76 251.152 1130.99 251.76 1131.46 252.112C1131.93 252.464 1132.63 252.64 1133.56 252.64C1134.5 252.64 1135.2 252.464 1135.67 252.112C1136.14 251.76 1136.37 251.152 1136.37 250.288V242.208H1137.99V250.304C1137.99 251.712 1137.61 252.699 1136.85 253.264C1136.1 253.819 1135 254.096 1133.56 254.096ZM1140.16 242.208H1141.78V254H1140.16V242.208ZM1146.61 254C1145.8 254 1145.18 253.808 1144.75 253.424C1144.33 253.04 1144.11 252.4 1144.11 251.504V242.208H1145.73V251.264C1145.73 251.744 1145.84 252.075 1146.07 252.256C1146.29 252.437 1146.6 252.528 1146.99 252.528H1151.07V254H1146.61ZM1152.64 242.208H1157.41C1158.83 242.208 1159.84 242.704 1160.45 243.696C1161.06 244.688 1161.36 246.16 1161.36 248.112C1161.36 250.021 1161.03 251.483 1160.36 252.496C1159.7 253.499 1158.71 254 1157.41 254H1152.64V242.208ZM1157.27 252.56C1158.92 252.56 1159.75 251.077 1159.75 248.112C1159.75 246.992 1159.66 246.107 1159.48 245.456C1159.31 244.805 1159.04 244.341 1158.68 244.064C1158.32 243.787 1157.86 243.648 1157.27 243.648H1154.26V252.56H1157.27ZM1170.67 250.192L1166.99 242.208H1168.67L1171.5 248.56L1174.35 242.208H1175.96L1172.28 250.192V254H1170.67V250.192ZM1181.73 254.096C1180.61 254.096 1179.73 253.947 1179.07 253.648C1178.42 253.349 1177.93 252.773 1177.59 251.92C1177.26 251.067 1177.09 249.808 1177.09 248.144C1177.09 246.48 1177.26 245.216 1177.6 244.352C1177.94 243.477 1178.44 242.885 1179.09 242.576C1179.74 242.267 1180.62 242.112 1181.73 242.112C1182.86 242.112 1183.75 242.267 1184.4 242.576C1185.05 242.885 1185.54 243.477 1185.87 244.352C1186.22 245.216 1186.39 246.48 1186.39 248.144C1186.39 249.808 1186.22 251.067 1185.87 251.92C1185.54 252.773 1185.05 253.349 1184.4 253.648C1183.75 253.947 1182.86 254.096 1181.73 254.096ZM1181.73 252.656C1182.52 252.656 1183.13 252.544 1183.55 252.32C1183.98 252.096 1184.29 251.664 1184.48 251.024C1184.67 250.384 1184.77 249.424 1184.77 248.144C1184.77 246.811 1184.67 245.819 1184.48 245.168C1184.29 244.517 1183.98 244.085 1183.55 243.872C1183.14 243.659 1182.53 243.552 1181.73 243.552C1180.96 243.552 1180.37 243.664 1179.94 243.888C1179.52 244.101 1179.21 244.533 1178.99 245.184C1178.79 245.835 1178.69 246.821 1178.69 248.144C1178.69 249.435 1178.78 250.4 1178.96 251.04C1179.15 251.669 1179.46 252.096 1179.87 252.32C1180.3 252.544 1180.92 252.656 1181.73 252.656ZM1192.68 254.096C1191.24 254.096 1190.14 253.819 1189.39 253.264C1188.64 252.699 1188.27 251.712 1188.27 250.304V242.208H1189.88V250.288C1189.88 251.152 1190.12 251.76 1190.59 252.112C1191.06 252.464 1191.75 252.64 1192.68 252.64C1193.62 252.64 1194.32 252.464 1194.79 252.112C1195.26 251.76 1195.5 251.152 1195.5 250.288V242.208H1197.11V250.304C1197.11 251.712 1196.74 252.699 1195.98 253.264C1195.22 253.819 1194.12 254.096 1192.68 254.096ZM1199.29 242.208H1204.01C1204.97 242.208 1205.73 242.464 1206.29 242.976C1206.87 243.477 1207.16 244.411 1207.16 245.776C1207.16 246.875 1206.95 247.659 1206.55 248.128C1206.15 248.597 1205.65 248.917 1205.03 249.088L1207.38 254H1205.75L1203.57 249.312L1201.38 249.28C1201.26 249.269 1201.1 249.264 1200.9 249.264V254H1199.29V242.208ZM1203.75 248.016C1204.33 248.016 1204.77 247.856 1205.08 247.536C1205.4 247.216 1205.56 246.629 1205.56 245.776C1205.56 244.955 1205.4 244.395 1205.08 244.096C1204.76 243.797 1204.31 243.648 1203.75 243.648H1200.9V248.016H1203.75ZM1222 254.096C1220.88 254.096 1219.99 253.947 1219.34 253.648C1218.69 253.349 1218.19 252.773 1217.85 251.92C1217.52 251.067 1217.36 249.808 1217.36 248.144C1217.36 246.48 1217.53 245.216 1217.87 244.352C1218.21 243.477 1218.71 242.885 1219.36 242.576C1220.01 242.267 1220.89 242.112 1222 242.112C1223.13 242.112 1224.02 242.267 1224.67 242.576C1225.32 242.885 1225.81 243.477 1226.14 244.352C1226.48 245.216 1226.65 246.48 1226.65 248.144C1226.65 249.808 1226.48 251.067 1226.14 251.92C1225.81 252.773 1225.32 253.349 1224.67 253.648C1224.02 253.947 1223.13 254.096 1222 254.096ZM1222 252.656C1222.79 252.656 1223.39 252.544 1223.82 252.32C1224.25 252.096 1224.56 251.664 1224.75 251.024C1224.94 250.384 1225.04 249.424 1225.04 248.144C1225.04 246.811 1224.94 245.819 1224.75 245.168C1224.56 244.517 1224.25 244.085 1223.82 243.872C1223.4 243.659 1222.8 243.552 1222 243.552C1221.23 243.552 1220.63 243.664 1220.2 243.888C1219.79 244.101 1219.47 244.533 1219.26 245.184C1219.06 245.835 1218.96 246.821 1218.96 248.144C1218.96 249.435 1219.05 250.4 1219.23 251.04C1219.42 251.669 1219.72 252.096 1220.14 252.32C1220.57 252.544 1221.19 252.656 1222 252.656ZM1227.75 242.208H1229.42L1231.75 251.712L1234.46 242.208H1236.01L1238.68 251.712L1241.03 242.208H1242.68L1239.72 254H1238.03L1235.23 244.496L1232.41 254H1230.71L1227.75 242.208ZM1244.49 242.208H1245.8L1251.58 251.248V242.208H1253.18V254H1251.88L1246.11 244.96V254H1244.49V242.208ZM1262.85 242.208H1264.89L1268.83 254H1267.15L1266.11 250.912H1261.6L1260.57 254H1258.91L1262.85 242.208ZM1265.71 249.456L1263.85 243.6L1261.98 249.456H1265.71ZM1270.46 242.208H1275.24C1276.15 242.208 1276.9 242.475 1277.5 243.008C1278.11 243.541 1278.41 244.56 1278.41 246.064C1278.41 247.579 1278.1 248.619 1277.48 249.184C1276.86 249.739 1276.11 250.016 1275.23 250.016C1274.89 250.016 1274.39 249.995 1273.72 249.952C1273.06 249.909 1272.51 249.867 1272.07 249.824V254H1270.46V242.208ZM1275 248.576C1276.2 248.576 1276.79 247.744 1276.79 246.08C1276.79 244.459 1276.23 243.648 1275.1 243.648H1272.07V248.576H1275ZM1280.21 242.208H1284.99C1285.9 242.208 1286.65 242.475 1287.25 243.008C1287.86 243.541 1288.16 244.56 1288.16 246.064C1288.16 247.579 1287.85 248.619 1287.23 249.184C1286.61 249.739 1285.86 250.016 1284.98 250.016C1284.64 250.016 1284.14 249.995 1283.47 249.952C1282.81 249.909 1282.26 249.867 1281.82 249.824V254H1280.21V242.208ZM1284.75 248.576C1285.95 248.576 1286.54 247.744 1286.54 246.08C1286.54 244.459 1285.98 243.648 1284.85 243.648H1281.82V248.576H1284.75Z" fill="white"/>
<path d="M149.825 79.8C144.849 79.8 140.8 83.8491 140.8 88.825C140.8 93.8009 144.849 97.85 149.825 97.85C154.801 97.85 158.85 93.8009 158.85 88.825C158.85 83.8491 154.801 79.8 149.825 79.8ZM149.825 93.6833C147.147 93.6833 144.967 91.5047 144.967 88.825C144.967 86.1452 147.147 83.9666 149.825 83.9666C152.503 83.9666 154.683 86.1452 154.683 88.825C154.683 91.5047 152.503 93.6833 149.825 93.6833Z" fill="white" stroke="white" stroke-width="0.2"/>
<path d="M228.167 87.9334C229.317 87.9334 230.25 87.0006 230.25 85.85C230.25 84.6994 229.317 83.7667 228.167 83.7667C227.016 83.7667 226.083 84.6994 226.083 85.85C226.083 87.0006 227.016 87.9334 228.167 87.9334Z" fill="white" stroke="white" stroke-width="0.2"/>
<path d="M220.233 87.9334C221.384 87.9334 222.317 87.0006 222.317 85.85C222.317 84.6994 221.384 83.7667 220.233 83.7667C219.083 83.7667 218.15 84.6994 218.15 85.85C218.15 87.0006 219.083 87.9334 220.233 87.9334Z" fill="white" stroke="white" stroke-width="0.2"/>
<path d="M232.133 93.8834C233.284 93.8834 234.217 92.9506 234.217 91.8C234.217 90.6495 233.284 89.7167 232.133 89.7167C230.983 89.7167 230.05 90.6495 230.05 91.8C230.05 92.9506 230.983 93.8834 232.133 93.8834Z" fill="white" stroke="white" stroke-width="0.2"/>
<path d="M224.2 93.8834C225.351 93.8834 226.283 92.9506 226.283 91.8C226.283 90.6495 225.351 89.7167 224.2 89.7167C223.049 89.7167 222.117 90.6495 222.117 91.8C222.117 92.9506 223.049 93.8834 224.2 93.8834Z" fill="white" stroke="white" stroke-width="0.2"/>
<path d="M212.3 87.9334C213.451 87.9334 214.383 87.0006 214.383 85.85C214.383 84.6994 213.451 83.7667 212.3 83.7667C211.149 83.7667 210.217 84.6994 210.217 85.85C210.217 87.0006 211.149 87.9334 212.3 87.9334Z" fill="white" stroke="white" stroke-width="0.2"/>
<path d="M216.267 93.8834C217.417 93.8834 218.35 92.9506 218.35 91.8C218.35 90.6495 217.417 89.7167 216.267 89.7167C215.116 89.7167 214.183 90.6495 214.183 91.8C214.183 92.9506 215.116 93.8834 216.267 93.8834Z" fill="white" stroke="white" stroke-width="0.2"/>
<path d="M204.367 87.9334C205.517 87.9334 206.45 87.0006 206.45 85.85C206.45 84.6994 205.517 83.7667 204.367 83.7667C203.216 83.7667 202.283 84.6994 202.283 85.85C202.283 87.0006 203.216 87.9334 204.367 87.9334Z" fill="white" stroke="white" stroke-width="0.2"/>
<path d="M208.333 93.8834C209.484 93.8834 210.417 92.9506 210.417 91.8C210.417 90.6495 209.484 89.7167 208.333 89.7167C207.183 89.7167 206.25 90.6495 206.25 91.8C206.25 92.9506 207.183 93.8834 208.333 93.8834Z" fill="white" stroke="white" stroke-width="0.2"/>
<path d="M196.433 87.9334C197.584 87.9334 198.517 87.0006 198.517 85.85C198.517 84.6994 197.584 83.7667 196.433 83.7667C195.283 83.7667 194.35 84.6994 194.35 85.85C194.35 87.0006 195.283 87.9334 196.433 87.9334Z" fill="white" stroke="white" stroke-width="0.2"/>
<path d="M200.4 93.8834C201.551 93.8834 202.483 92.9506 202.483 91.8C202.483 90.6495 201.551 89.7167 200.4 89.7167C199.249 89.7167 198.317 90.6495 198.317 91.8C198.317 92.9506 199.249 93.8834 200.4 93.8834Z" fill="white" stroke="white" stroke-width="0.2"/>
<path d="M138.139 105.581H138.039V105.582C135.288 105.529 133.067 103.274 133.067 100.511V77.1392C133.067 74.3424 135.342 72.0667 138.139 72.0667H238.859C241.658 72.0667 243.933 74.3424 243.933 77.1392V100.509C243.933 103.306 241.658 105.581 238.861 105.581H138.139ZM248.1 100.511V77.1392C248.1 72.0443 243.956 67.9 238.861 67.9H138.139C133.044 67.9 128.9 72.0443 128.9 77.1392V100.509C128.9 103.41 130.267 105.972 132.364 107.665C130.267 109.359 128.9 111.923 128.9 114.823V138.192C128.9 141.093 130.267 143.655 132.364 145.348C130.267 147.043 128.9 149.607 128.9 152.506V175.875C128.9 180.972 133.044 185.117 138.139 185.117H238.859C243.954 185.117 248.098 180.972 248.098 175.877V152.506C248.098 149.605 246.731 147.043 244.634 145.35C246.733 143.657 248.1 141.093 248.1 138.194V114.823C248.1 111.921 246.733 109.359 244.636 107.667C246.733 105.974 248.1 103.41 248.1 100.511ZM243.933 152.506V175.875C243.933 178.672 241.658 180.948 238.861 180.948H138.139C135.342 180.95 133.067 178.674 133.067 175.877V152.506C133.067 149.709 135.342 147.433 138.139 147.433H238.859C241.658 147.433 243.933 149.709 243.933 152.506ZM243.933 114.823V138.192C243.933 140.989 241.658 143.265 238.861 143.265H138.139C135.342 143.267 133.067 140.991 133.067 138.194V114.823C133.067 112.026 135.342 109.75 138.139 109.75H238.859C241.658 109.75 243.933 112.026 243.933 114.823Z" fill="white" stroke="white" stroke-width="0.2"/>
<path d="M149.825 135.533C154.801 135.533 158.85 131.484 158.85 126.508C158.85 121.532 154.801 117.483 149.825 117.483C144.849 117.483 140.8 121.532 140.8 126.508C140.8 131.484 144.849 135.533 149.825 135.533ZM149.825 121.65C152.503 121.65 154.683 123.829 154.683 126.508C154.683 129.188 152.503 131.367 149.825 131.367C147.147 131.367 144.967 129.188 144.967 126.508C144.967 123.829 147.147 121.65 149.825 121.65Z" fill="white" stroke="white" stroke-width="0.2"/>
<path d="M228.167 125.617C229.317 125.617 230.25 124.684 230.25 123.533C230.25 122.383 229.317 121.45 228.167 121.45C227.016 121.45 226.083 122.383 226.083 123.533C226.083 124.684 227.016 125.617 228.167 125.617Z" fill="white" stroke="white" stroke-width="0.2"/>
<path d="M220.233 125.617C221.384 125.617 222.317 124.684 222.317 123.533C222.317 122.383 221.384 121.45 220.233 121.45C219.083 121.45 218.15 122.383 218.15 123.533C218.15 124.684 219.083 125.617 220.233 125.617Z" fill="white" stroke="white" stroke-width="0.2"/>
<path d="M232.133 131.567C233.284 131.567 234.217 130.634 234.217 129.483C234.217 128.333 233.284 127.4 232.133 127.4C230.983 127.4 230.05 128.333 230.05 129.483C230.05 130.634 230.983 131.567 232.133 131.567Z" fill="white" stroke="white" stroke-width="0.2"/>
<path d="M224.2 131.567C225.351 131.567 226.283 130.634 226.283 129.483C226.283 128.333 225.351 127.4 224.2 127.4C223.049 127.4 222.117 128.333 222.117 129.483C222.117 130.634 223.049 131.567 224.2 131.567Z" fill="white" stroke="white" stroke-width="0.2"/>
<path d="M212.3 125.617C213.451 125.617 214.383 124.684 214.383 123.533C214.383 122.383 213.451 121.45 212.3 121.45C211.149 121.45 210.217 122.383 210.217 123.533C210.217 124.684 211.149 125.617 212.3 125.617Z" fill="white" stroke="white" stroke-width="0.2"/>
<path d="M216.267 131.567C217.417 131.567 218.35 130.634 218.35 129.483C218.35 128.333 217.417 127.4 216.267 127.4C215.116 127.4 214.183 128.333 214.183 129.483C214.183 130.634 215.116 131.567 216.267 131.567Z" fill="white" stroke="white" stroke-width="0.2"/>
<path d="M204.367 125.617C205.517 125.617 206.45 124.684 206.45 123.533C206.45 122.383 205.517 121.45 204.367 121.45C203.216 121.45 202.283 122.383 202.283 123.533C202.283 124.684 203.216 125.617 204.367 125.617Z" fill="white" stroke="white" stroke-width="0.2"/>
<path d="M208.333 131.567C209.484 131.567 210.417 130.634 210.417 129.483C210.417 128.333 209.484 127.4 208.333 127.4C207.183 127.4 206.25 128.333 206.25 129.483C206.25 130.634 207.183 131.567 208.333 131.567Z" fill="white" stroke="white" stroke-width="0.2"/>
<path d="M196.433 125.617C197.584 125.617 198.517 124.684 198.517 123.533C198.517 122.383 197.584 121.45 196.433 121.45C195.283 121.45 194.35 122.383 194.35 123.533C194.35 124.684 195.283 125.617 196.433 125.617Z" fill="white" stroke="white" stroke-width="0.2"/>
<path d="M200.4 131.567C201.551 131.567 202.483 130.634 202.483 129.483C202.483 128.333 201.551 127.4 200.4 127.4C199.249 127.4 198.317 128.333 198.317 129.483C198.317 130.634 199.249 131.567 200.4 131.567Z" fill="white" stroke="white" stroke-width="0.2"/>
<path d="M149.825 173.217C154.801 173.217 158.85 169.168 158.85 164.192C158.85 159.216 154.801 155.167 149.825 155.167C144.849 155.167 140.8 159.216 140.8 164.192C140.8 169.168 144.849 173.217 149.825 173.217ZM149.825 159.333C152.503 159.333 154.683 161.512 154.683 164.192C154.683 166.871 152.503 169.05 149.825 169.05C147.147 169.05 144.967 166.871 144.967 164.192C144.967 161.512 147.147 159.333 149.825 159.333Z" fill="white" stroke="white" stroke-width="0.2"/>
<path d="M228.167 163.3C229.317 163.3 230.25 162.367 230.25 161.217C230.25 160.066 229.317 159.133 228.167 159.133C227.016 159.133 226.083 160.066 226.083 161.217C226.083 162.367 227.016 163.3 228.167 163.3Z" fill="white" stroke="white" stroke-width="0.2"/>
<path d="M220.233 163.3C221.384 163.3 222.317 162.367 222.317 161.217C222.317 160.066 221.384 159.133 220.233 159.133C219.083 159.133 218.15 160.066 218.15 161.217C218.15 162.367 219.083 163.3 220.233 163.3Z" fill="white" stroke="white" stroke-width="0.2"/>
<path d="M232.133 169.25C233.284 169.25 234.217 168.317 234.217 167.167C234.217 166.016 233.284 165.083 232.133 165.083C230.983 165.083 230.05 166.016 230.05 167.167C230.05 168.317 230.983 169.25 232.133 169.25Z" fill="white" stroke="white" stroke-width="0.2"/>
<path d="M224.2 169.25C225.351 169.25 226.283 168.317 226.283 167.167C226.283 166.016 225.351 165.083 224.2 165.083C223.049 165.083 222.117 166.016 222.117 167.167C222.117 168.317 223.049 169.25 224.2 169.25Z" fill="white" stroke="white" stroke-width="0.2"/>
<path d="M212.3 163.3C213.451 163.3 214.383 162.367 214.383 161.217C214.383 160.066 213.451 159.133 212.3 159.133C211.149 159.133 210.217 160.066 210.217 161.217C210.217 162.367 211.149 163.3 212.3 163.3Z" fill="white" stroke="white" stroke-width="0.2"/>
<path d="M216.267 169.25C217.417 169.25 218.35 168.317 218.35 167.167C218.35 166.016 217.417 165.083 216.267 165.083C215.116 165.083 214.183 166.016 214.183 167.167C214.183 168.317 215.116 169.25 216.267 169.25Z" fill="white" stroke="white" stroke-width="0.2"/>
<path d="M204.367 163.3C205.517 163.3 206.45 162.367 206.45 161.217C206.45 160.066 205.517 159.133 204.367 159.133C203.216 159.133 202.283 160.066 202.283 161.217C202.283 162.367 203.216 163.3 204.367 163.3Z" fill="white" stroke="white" stroke-width="0.2"/>
<path d="M208.333 169.25C209.484 169.25 210.417 168.317 210.417 167.167C210.417 166.016 209.484 165.083 208.333 165.083C207.183 165.083 206.25 166.016 206.25 167.167C206.25 168.317 207.183 169.25 208.333 169.25Z" fill="white" stroke="white" stroke-width="0.2"/>
<path d="M196.433 163.3C197.584 163.3 198.517 162.367 198.517 161.217C198.517 160.066 197.584 159.133 196.433 159.133C195.283 159.133 194.35 160.066 194.35 161.217C194.35 162.367 195.283 163.3 196.433 163.3Z" fill="white" stroke="white" stroke-width="0.2"/>
<path d="M200.4 169.25C201.551 169.25 202.483 168.317 202.483 167.167C202.483 166.016 201.551 165.083 200.4 165.083C199.249 165.083 198.317 166.016 198.317 167.167C198.317 168.317 199.249 169.25 200.4 169.25Z" fill="white" stroke="white" stroke-width="0.2"/>
<path d="M599.992 233.064C598.989 233.064 598.221 232.803 597.688 232.28C597.154 231.757 596.888 231 596.888 230.008V224.248C596.888 223.224 597.16 222.44 597.704 221.896C598.258 221.341 599.026 221.064 600.008 221.064H602.472C603.453 221.064 604.2 221.341 604.712 221.896C605.224 222.451 605.48 223.235 605.48 224.248V230.008C605.48 230.989 605.213 231.747 604.68 232.28C604.157 232.803 603.421 233.064 602.472 233.064H599.992ZM601.832 230.936C602.685 230.936 603.112 230.509 603.112 229.656V224.472C603.112 223.619 602.717 223.192 601.928 223.192H600.472C600.077 223.192 599.773 223.304 599.56 223.528C599.357 223.741 599.256 224.056 599.256 224.472V229.64C599.256 230.504 599.688 230.936 600.552 230.936H601.832ZM607.103 231.096L611.055 227.176C611.546 226.707 611.898 226.28 612.111 225.896C612.335 225.512 612.447 225.107 612.447 224.68C612.447 224.232 612.309 223.891 612.031 223.656C611.765 223.421 611.322 223.304 610.703 223.304H607.375V221.448C608.058 221.331 608.687 221.24 609.263 221.176C609.85 221.101 610.485 221.064 611.167 221.064C612.49 221.064 613.429 221.336 613.983 221.88C614.538 222.413 614.815 223.219 614.815 224.296C614.815 225.064 614.661 225.752 614.351 226.36C614.053 226.957 613.573 227.576 612.911 228.216L610.255 230.856H615.183V233H607.103V231.096ZM620.392 227.704H625.144V229.016H620.392V227.704ZM634.861 233.096C633.848 233.096 633.042 232.941 632.445 232.632C631.858 232.312 631.416 231.72 631.117 230.856C630.818 229.981 630.669 228.717 630.669 227.064C630.669 225.496 630.824 224.28 631.133 223.416C631.442 222.552 631.901 221.955 632.509 221.624C633.117 221.283 633.922 221.112 634.925 221.112C635.48 221.112 636.077 221.16 636.717 221.256C637.357 221.341 637.922 221.448 638.413 221.576V222.792C638.072 222.739 637.602 222.685 637.005 222.632C636.408 222.579 635.81 222.552 635.213 222.552C634.456 222.552 633.869 222.675 633.453 222.92C633.048 223.155 632.749 223.597 632.557 224.248C632.365 224.888 632.269 225.832 632.269 227.08C632.269 228.36 632.36 229.325 632.541 229.976C632.722 230.616 633.016 231.059 633.421 231.304C633.826 231.539 634.418 231.656 635.197 231.656C636.488 231.656 637.56 231.592 638.413 231.464V232.696C637.346 232.963 636.162 233.096 634.861 233.096ZM644.465 233.096C643.345 233.096 642.46 232.947 641.809 232.648C641.159 232.349 640.663 231.773 640.321 230.92C639.991 230.067 639.825 228.808 639.825 227.144C639.825 225.48 639.996 224.216 640.337 223.352C640.679 222.477 641.175 221.885 641.825 221.576C642.476 221.267 643.356 221.112 644.465 221.112C645.596 221.112 646.487 221.267 647.137 221.576C647.788 221.885 648.279 222.477 648.609 223.352C648.951 224.216 649.121 225.48 649.121 227.144C649.121 228.808 648.951 230.067 648.609 230.92C648.279 231.773 647.788 232.349 647.137 232.648C646.487 232.947 645.596 233.096 644.465 233.096ZM644.465 231.656C645.255 231.656 645.863 231.544 646.289 231.32C646.716 231.096 647.025 230.664 647.217 230.024C647.409 229.384 647.505 228.424 647.505 227.144C647.505 225.811 647.409 224.819 647.217 224.168C647.025 223.517 646.716 223.085 646.289 222.872C645.873 222.659 645.265 222.552 644.465 222.552C643.697 222.552 643.1 222.664 642.673 222.888C642.257 223.101 641.943 223.533 641.729 224.184C641.527 224.835 641.425 225.821 641.425 227.144C641.425 228.435 641.516 229.4 641.697 230.04C641.889 230.669 642.193 231.096 642.609 231.32C643.036 231.544 643.655 231.656 644.465 231.656ZM651.336 221.208H652.648L658.424 230.248V221.208H660.024V233H658.728L652.952 223.96V233H651.336V221.208ZM662.367 221.208H663.679L669.455 230.248V221.208H671.055V233H669.759L663.983 223.96V233H662.367V221.208ZM675.751 233.064C675.047 233.064 674.449 232.904 673.959 232.584C673.468 232.264 673.223 231.629 673.223 230.68V223.672C673.223 222.808 673.457 222.184 673.927 221.8C674.396 221.405 674.961 221.208 675.623 221.208C676.892 221.208 678.327 221.251 679.927 221.336L680.647 221.368V222.696H676.103C675.26 222.696 674.839 223.117 674.839 223.96V226.408L679.927 226.504V227.752L674.839 227.864V230.28C674.839 230.781 674.956 231.123 675.191 231.304C675.425 231.475 675.74 231.56 676.135 231.56H680.647V232.888C678.812 233.005 677.18 233.064 675.751 233.064ZM686.564 233.096C685.551 233.096 684.746 232.941 684.148 232.632C683.562 232.312 683.119 231.72 682.82 230.856C682.522 229.981 682.372 228.717 682.372 227.064C682.372 225.496 682.527 224.28 682.836 223.416C683.146 222.552 683.604 221.955 684.212 221.624C684.82 221.283 685.626 221.112 686.628 221.112C687.183 221.112 687.78 221.16 688.42 221.256C689.06 221.341 689.626 221.448 690.116 221.576V222.792C689.775 222.739 689.306 222.685 688.708 222.632C688.111 222.579 687.514 222.552 686.916 222.552C686.159 222.552 685.572 222.675 685.156 222.92C684.751 223.155 684.452 223.597 684.26 224.248C684.068 224.888 683.972 225.832 683.972 227.08C683.972 228.36 684.063 229.325 684.244 229.976C684.426 230.616 684.719 231.059 685.124 231.304C685.53 231.539 686.122 231.656 686.9 231.656C688.191 231.656 689.263 231.592 690.116 231.464V232.696C689.05 232.963 687.866 233.096 686.564 233.096ZM694.581 222.648H691.061V221.208H699.717V222.648H696.197V233H694.581V222.648ZM708.642 221.208H710.69L714.626 233H712.946L711.906 229.912H707.394L706.37 233H704.706L708.642 221.208ZM711.506 228.456L709.65 222.6L707.778 228.456H711.506ZM724.424 233.096C723.41 233.096 722.605 232.941 722.008 232.632C721.421 232.312 720.978 231.72 720.68 230.856C720.381 229.981 720.232 228.717 720.232 227.064C720.232 225.496 720.386 224.28 720.696 223.416C721.005 222.552 721.464 221.955 722.072 221.624C722.68 221.283 723.485 221.112 724.488 221.112C725.042 221.112 725.64 221.16 726.28 221.256C726.92 221.341 727.485 221.448 727.976 221.576V222.792C727.634 222.739 727.165 222.685 726.568 222.632C725.97 222.579 725.373 222.552 724.776 222.552C724.018 222.552 723.432 222.675 723.016 222.92C722.61 223.155 722.312 223.597 722.12 224.248C721.928 224.888 721.832 225.832 721.832 227.08C721.832 228.36 721.922 229.325 722.104 229.976C722.285 230.616 722.578 231.059 722.984 231.304C723.389 231.539 723.981 231.656 724.76 231.656C726.05 231.656 727.122 231.592 727.976 231.464V232.696C726.909 232.963 725.725 233.096 724.424 233.096ZM732.328 233C731.517 233 730.899 232.808 730.472 232.424C730.045 232.04 729.832 231.4 729.832 230.504V221.208H731.448V230.264C731.448 230.744 731.56 231.075 731.784 231.256C732.008 231.437 732.317 231.528 732.712 231.528H736.792V233H732.328ZM738.363 221.208H739.979V233H738.363V221.208ZM744.844 233.064C744.14 233.064 743.543 232.904 743.052 232.584C742.562 232.264 742.316 231.629 742.316 230.68V223.672C742.316 222.808 742.551 222.184 743.02 221.8C743.49 221.405 744.055 221.208 744.716 221.208C745.986 221.208 747.42 221.251 749.02 221.336L749.74 221.368V222.696H745.196C744.354 222.696 743.932 223.117 743.932 223.96V226.408L749.02 226.504V227.752L743.932 227.864V230.28C743.932 230.781 744.05 231.123 744.284 231.304C744.519 231.475 744.834 231.56 745.228 231.56H749.74V232.888C747.906 233.005 746.274 233.064 744.844 233.064ZM751.93 221.208H753.242L759.018 230.248V221.208H760.618V233H759.322L753.546 223.96V233H751.93V221.208ZM765.393 222.648H761.873V221.208H770.529V222.648H767.009V233H765.393V222.648ZM771.865 233.016C771.79 233.016 771.726 232.989 771.673 232.936C771.619 232.883 771.593 232.819 771.593 232.744V231.352C771.593 231.16 771.683 231.064 771.865 231.064H772.777C772.969 231.064 773.065 231.16 773.065 231.352V232.744C773.065 232.925 772.969 233.016 772.777 233.016H771.865ZM771.865 226.376C771.79 226.376 771.726 226.349 771.673 226.296C771.619 226.243 771.593 226.179 771.593 226.104V224.712C771.593 224.52 771.683 224.424 771.865 224.424H772.777C772.969 224.424 773.065 224.52 773.065 224.712V226.104C773.065 226.285 772.969 226.376 772.777 226.376H771.865ZM577.59 242.128H580.454L582.134 249.888L584.118 242.128H586.614L588.582 249.888L590.262 242.128H593.126L590.342 254H587.558L585.366 246.224L583.158 254H580.374L577.59 242.128ZM598.765 254.096C597.581 254.096 596.631 253.936 595.917 253.616C595.213 253.296 594.679 252.704 594.317 251.84C593.954 250.965 593.773 249.707 593.773 248.064C593.773 246.421 593.954 245.163 594.317 244.288C594.679 243.413 595.213 242.816 595.917 242.496C596.631 242.176 597.581 242.016 598.765 242.016C599.949 242.016 600.893 242.176 601.597 242.496C602.311 242.816 602.85 243.413 603.213 244.288C603.575 245.163 603.757 246.421 603.757 248.064C603.757 249.707 603.575 250.965 603.213 251.84C602.85 252.704 602.311 253.296 601.597 253.616C600.893 253.936 599.949 254.096 598.765 254.096ZM598.765 251.616C599.373 251.616 599.831 251.525 600.141 251.344C600.45 251.152 600.669 250.805 600.797 250.304C600.925 249.803 600.989 249.056 600.989 248.064C600.989 247.04 600.925 246.277 600.797 245.776C600.669 245.275 600.45 244.939 600.141 244.768C599.842 244.587 599.383 244.496 598.765 244.496C598.157 244.496 597.698 244.587 597.389 244.768C597.09 244.939 596.871 245.275 596.733 245.776C596.605 246.277 596.541 247.04 596.541 248.064C596.541 249.056 596.605 249.803 596.733 250.304C596.861 250.805 597.079 251.152 597.389 251.344C597.698 251.525 598.157 251.616 598.765 251.616ZM605.342 242.128H610.334C611.433 242.128 612.286 242.421 612.894 243.008C613.513 243.584 613.822 244.592 613.822 246.032C613.822 246.992 613.668 247.712 613.358 248.192C613.06 248.672 612.638 249.051 612.094 249.328L614.222 254H611.406L609.63 249.776C609.332 249.765 608.825 249.76 608.11 249.76V254H605.342V242.128ZM609.838 247.568C610.244 247.568 610.548 247.456 610.75 247.232C610.953 246.997 611.054 246.603 611.054 246.048C611.054 245.504 610.953 245.131 610.75 244.928C610.548 244.715 610.244 244.608 609.838 244.608H608.11V247.568H609.838ZM615.483 242.128H618.251V246.88H619.643L621.787 242.128H624.715L621.835 248.096L624.843 254H621.915L619.643 249.36H618.251V254H615.483V242.128ZM629.71 254.096C629.048 254.096 628.382 254.059 627.71 253.984C627.048 253.909 626.456 253.803 625.934 253.664V251.472C626.947 251.568 628.158 251.616 629.566 251.616C630.163 251.616 630.606 251.547 630.894 251.408C631.182 251.259 631.326 250.997 631.326 250.624V250.32C631.326 250.043 631.235 249.829 631.054 249.68C630.872 249.52 630.632 249.44 630.334 249.44H629.406C628.179 249.44 627.262 249.173 626.654 248.64C626.056 248.096 625.758 247.221 625.758 246.016V245.456C625.758 244.304 626.094 243.445 626.766 242.88C627.438 242.315 628.424 242.032 629.726 242.032C630.846 242.032 632.062 242.181 633.374 242.48V244.656C631.891 244.56 630.787 244.512 630.062 244.512C629.496 244.512 629.075 244.592 628.798 244.752C628.52 244.901 628.382 245.184 628.382 245.6V245.824C628.382 246.485 628.782 246.816 629.582 246.816H630.686C631.742 246.816 632.547 247.104 633.102 247.68C633.667 248.256 633.95 249.013 633.95 249.952V250.544C633.95 251.493 633.779 252.229 633.438 252.752C633.107 253.264 632.638 253.616 632.03 253.808C631.422 254 630.648 254.096 629.71 254.096ZM637.978 244.608H634.858V242.128H643.85V244.608H640.73V254H637.978V244.608ZM647.081 242.128H650.537L654.153 254H651.289L650.681 251.84H646.905L646.313 254H643.465L647.081 242.128ZM650.041 249.36L648.793 244.496L647.545 249.36H650.041ZM656.915 244.608H653.795V242.128H662.787V244.608H659.667V254H656.915V244.608ZM663.983 242.128H666.751V254H663.983V242.128ZM673.327 254.096C672.143 254.096 671.194 253.936 670.479 253.616C669.775 253.296 669.242 252.704 668.879 251.84C668.517 250.965 668.335 249.707 668.335 248.064C668.335 246.421 668.517 245.163 668.879 244.288C669.242 243.413 669.775 242.816 670.479 242.496C671.194 242.176 672.143 242.016 673.327 242.016C674.511 242.016 675.455 242.176 676.159 242.496C676.874 242.816 677.413 243.413 677.775 244.288C678.138 245.163 678.319 246.421 678.319 248.064C678.319 249.707 678.138 250.965 677.775 251.84C677.413 252.704 676.874 253.296 676.159 253.616C675.455 253.936 674.511 254.096 673.327 254.096ZM673.327 251.616C673.935 251.616 674.394 251.525 674.703 251.344C675.013 251.152 675.231 250.805 675.359 250.304C675.487 249.803 675.551 249.056 675.551 248.064C675.551 247.04 675.487 246.277 675.359 245.776C675.231 245.275 675.013 244.939 674.703 244.768C674.405 244.587 673.946 244.496 673.327 244.496C672.719 244.496 672.261 244.587 671.951 244.768C671.653 244.939 671.434 245.275 671.295 245.776C671.167 246.277 671.103 247.04 671.103 248.064C671.103 249.056 671.167 249.803 671.295 250.304C671.423 250.805 671.642 251.152 671.951 251.344C672.261 251.525 672.719 251.616 673.327 251.616ZM679.953 242.128H682.145L686.689 249.312V242.128H689.457V254H687.249L682.705 246.832V254H679.953V242.128ZM692.112 255.504C691.92 255.504 691.733 255.483 691.552 255.44C691.381 255.408 691.274 255.387 691.232 255.376V254.496C691.402 254.496 691.52 254.469 691.584 254.416C691.658 254.373 691.696 254.288 691.696 254.16V253.808H691.536C691.429 253.808 691.338 253.776 691.264 253.712C691.2 253.648 691.168 253.552 691.168 253.424V251.952C691.168 251.685 691.29 251.552 691.536 251.552H693.104C693.349 251.552 693.472 251.685 693.472 251.952V254.224C693.472 254.704 693.338 255.035 693.072 255.216C692.816 255.408 692.496 255.504 692.112 255.504ZM709.472 254L708.624 246.976L706.832 254H704.24L702.448 247.072L701.648 254H698.976L700.368 242.128H702.992L705.568 250.816L708.128 242.128H710.72L712.128 254H709.472ZM718.077 254.096C716.893 254.096 715.944 253.936 715.229 253.616C714.525 253.296 713.992 252.704 713.629 251.84C713.267 250.965 713.085 249.707 713.085 248.064C713.085 246.421 713.267 245.163 713.629 244.288C713.992 243.413 714.525 242.816 715.229 242.496C715.944 242.176 716.893 242.016 718.077 242.016C719.261 242.016 720.205 242.176 720.909 242.496C721.624 242.816 722.163 243.413 722.525 244.288C722.888 245.163 723.069 246.421 723.069 248.064C723.069 249.707 722.888 250.965 722.525 251.84C722.163 252.704 721.624 253.296 720.909 253.616C720.205 253.936 719.261 254.096 718.077 254.096ZM718.077 251.616C718.685 251.616 719.144 251.525 719.453 251.344C719.763 251.152 719.981 250.805 720.109 250.304C720.237 249.803 720.301 249.056 720.301 248.064C720.301 247.04 720.237 246.277 720.109 245.776C719.981 245.275 719.763 244.939 719.453 244.768C719.155 244.587 718.696 244.496 718.077 244.496C717.469 244.496 717.011 244.587 716.701 244.768C716.403 244.939 716.184 245.275 716.045 245.776C715.917 246.277 715.853 247.04 715.853 248.064C715.853 249.056 715.917 249.803 716.045 250.304C716.173 250.805 716.392 251.152 716.701 251.344C717.011 251.525 717.469 251.616 718.077 251.616ZM724.655 242.128H729.455C731.791 242.128 732.959 243.179 732.959 245.28C732.959 245.973 732.82 246.539 732.543 246.976C732.266 247.413 731.86 247.701 731.327 247.84C731.903 247.979 732.378 248.293 732.751 248.784C733.135 249.275 733.327 249.925 733.327 250.736C733.327 251.899 733.023 252.736 732.415 253.248C731.818 253.749 730.906 254 729.679 254H724.655V242.128ZM729.455 246.912C729.732 246.912 729.946 246.805 730.095 246.592C730.255 246.379 730.335 246.101 730.335 245.76C730.335 245.355 730.25 245.061 730.079 244.88C729.908 244.699 729.695 244.608 729.439 244.608H727.423V246.912H729.455ZM729.599 251.52C729.951 251.52 730.223 251.413 730.415 251.2C730.607 250.987 730.703 250.667 730.703 250.24C730.703 249.856 730.602 249.557 730.399 249.344C730.207 249.12 729.94 249.008 729.599 249.008H727.423V251.52H729.599ZM734.827 242.128H737.595V254H734.827V242.128ZM742.443 254C741.43 254 740.683 253.765 740.203 253.296C739.723 252.827 739.483 252.075 739.483 251.04V242.128H742.251V250.576C742.251 251.205 742.56 251.52 743.179 251.52H746.779V254H742.443ZM751.085 254.096C749.069 254.096 748.061 253.184 748.061 251.36V244.976C748.061 243.963 748.339 243.237 748.893 242.8C749.459 242.352 750.131 242.128 750.909 242.128C752.68 242.139 754.408 242.213 756.093 242.352V244.688H751.741C751.453 244.688 751.229 244.757 751.069 244.896C750.909 245.035 750.829 245.243 750.829 245.52V246.832L755.309 246.992V249.168L750.829 249.312V250.56C750.829 250.88 750.904 251.12 751.053 251.28C751.213 251.429 751.416 251.504 751.661 251.504H756.093V253.824C754.813 253.984 753.144 254.075 751.085 254.096ZM758.487 255.504C758.295 255.504 758.108 255.483 757.927 255.44C757.756 255.408 757.649 255.387 757.607 255.376V254.496C757.777 254.496 757.895 254.469 757.959 254.416C758.033 254.373 758.071 254.288 758.071 254.16V253.808H757.911C757.804 253.808 757.713 253.776 757.639 253.712C757.575 253.648 757.543 253.552 757.543 253.424V251.952C757.543 251.685 757.665 251.552 757.911 251.552H759.479C759.724 251.552 759.847 251.685 759.847 251.952V254.224C759.847 254.704 759.713 255.035 759.447 255.216C759.191 255.408 758.871 255.504 758.487 255.504ZM768.423 254.064C767.719 254.064 767.121 253.904 766.631 253.584C766.14 253.264 765.895 252.629 765.895 251.68V244.672C765.895 243.808 766.129 243.184 766.599 242.8C767.068 242.405 767.633 242.208 768.295 242.208C769.564 242.208 770.999 242.251 772.599 242.336L773.319 242.368V243.696H768.775C767.932 243.696 767.511 244.117 767.511 244.96V247.408L772.599 247.504V248.752L767.511 248.864V251.28C767.511 251.781 767.628 252.123 767.863 252.304C768.097 252.475 768.412 252.56 768.807 252.56H773.319V253.888C771.484 254.005 769.852 254.064 768.423 254.064ZM777.94 243.648H774.42V242.208H783.076V243.648H779.556V254H777.94V243.648ZM788.33 254.096C787.316 254.096 786.511 253.941 785.914 253.632C785.327 253.312 784.884 252.72 784.586 251.856C784.287 250.981 784.138 249.717 784.138 248.064C784.138 246.496 784.292 245.28 784.602 244.416C784.911 243.552 785.37 242.955 785.978 242.624C786.586 242.283 787.391 242.112 788.394 242.112C788.948 242.112 789.546 242.16 790.186 242.256C790.826 242.341 791.391 242.448 791.882 242.576V243.792C791.54 243.739 791.071 243.685 790.474 243.632C789.876 243.579 789.279 243.552 788.682 243.552C787.924 243.552 787.338 243.675 786.922 243.92C786.516 244.155 786.218 244.597 786.026 245.248C785.834 245.888 785.738 246.832 785.738 248.08C785.738 249.36 785.828 250.325 786.01 250.976C786.191 251.616 786.484 252.059 786.89 252.304C787.295 252.539 787.887 252.656 788.666 252.656C789.956 252.656 791.028 252.592 791.882 252.464V253.696C790.815 253.963 789.631 254.096 788.33 254.096Z" fill="white"/>
<path d="M766.929 127H790.5C792.669 127.003 794.426 128.76 794.429 130.929L794.495 146.797C794.497 147.185 794.183 147.5 793.795 147.5H793.624C793.238 147.5 792.925 147.188 792.924 146.803L792.857 130.929C792.857 129.627 791.802 128.571 790.5 128.571H766.929C765.627 128.571 764.571 129.627 764.571 130.929V167.071C764.571 168.373 765.627 169.429 766.929 169.429H790.5C791.802 169.429 792.857 168.373 792.857 167.071L792.926 149.197C792.927 148.812 793.24 148.5 793.626 148.5H793.797C794.185 148.5 794.499 148.815 794.497 149.203L794.429 167.071C794.426 168.938 793.114 170.546 791.286 170.921L786.571 171H770.857L766.143 170.921C764.315 170.546 763.002 168.938 763 167.071V130.929C763.003 128.76 764.76 127.003 766.929 127Z" fill="white"/>
<path d="M778.714 142.714C771.771 142.714 766.143 148.343 766.143 155.286C766.151 162.225 771.775 167.849 778.714 167.857C785.657 167.857 791.286 162.229 791.286 155.286C791.286 148.343 785.657 142.714 778.714 142.714ZM778.714 166.286C772.639 166.286 767.714 161.361 767.714 155.286C767.721 149.213 772.642 144.292 778.714 144.286C784.789 144.286 789.714 149.211 789.714 155.286C789.714 161.361 784.789 166.286 778.714 166.286Z" fill="white"/>
<path d="M778.714 145.857C773.507 145.857 769.286 150.078 769.286 155.286C769.291 160.491 773.509 164.709 778.714 164.714C783.922 164.714 788.143 160.493 788.143 155.286C788.143 150.078 783.922 145.857 778.714 145.857ZM778.714 163.143C774.375 163.143 770.857 159.625 770.857 155.286C770.862 150.948 774.377 147.433 778.714 147.429C783.054 147.429 786.571 150.946 786.571 155.286C786.571 159.625 783.054 163.143 778.714 163.143Z" fill="white"/>
<path d="M778.714 130.143C775.677 130.143 773.214 132.605 773.214 135.643C773.218 138.679 775.678 141.139 778.714 141.143C781.752 141.143 784.214 138.68 784.214 135.643C784.214 132.605 781.752 130.143 778.714 130.143ZM778.714 139.571C776.545 139.571 774.786 137.812 774.786 135.643C774.788 133.474 776.546 131.717 778.714 131.714C780.884 131.714 782.643 133.473 782.643 135.643C782.643 137.812 780.884 139.571 778.714 139.571Z" fill="white"/>
<path d="M778.714 133.286C777.412 133.286 776.357 134.341 776.357 135.643C776.357 136.945 777.412 138 778.714 138C780.016 138 781.071 136.945 781.071 135.643C781.071 134.341 780.016 133.286 778.714 133.286ZM778.714 136.429C778.28 136.429 777.929 136.077 777.929 135.643C777.929 135.209 778.28 134.857 778.714 134.857C779.148 134.857 779.5 135.209 779.5 135.643C779.5 136.077 779.148 136.429 778.714 136.429Z" fill="white"/>
<path d="M778.714 151.357C776.545 151.357 774.786 153.116 774.786 155.286C774.788 157.454 776.546 159.212 778.714 159.214C780.884 159.214 782.643 157.455 782.643 155.286C782.643 153.116 780.884 151.357 778.714 151.357ZM778.714 157.643C777.412 157.643 776.357 156.588 776.357 155.286C776.357 153.984 777.412 152.929 778.714 152.929C780.016 152.929 781.071 153.984 781.071 155.286C781.071 156.588 780.016 157.643 778.714 157.643Z" fill="white"/>
<path d="M721.971 168.291H720.695V136.934C720.695 134.213 718.482 132 715.761 132H680.994C680.464 132 680.034 132.43 680.034 132.96C680.034 133.49 680.464 133.919 680.994 133.919H715.761C717.423 133.919 718.776 135.272 718.776 136.934V168.291H662.736V136.934C662.736 135.272 664.088 133.919 665.75 133.919H677.156C677.686 133.919 678.115 133.49 678.115 132.96C678.115 132.43 677.686 132 677.156 132H665.75C663.03 132 660.816 134.213 660.816 136.934V168.291H659.541C658.691 168.291 658 168.982 658 169.831V172.059C658 174.232 659.768 176 661.941 176H679.766C680.296 176 680.726 175.57 680.726 175.04C680.726 174.51 680.296 174.081 679.766 174.081H661.941C660.826 174.081 659.919 173.174 659.919 172.059V170.21H721.592V172.059C721.592 173.174 720.685 174.081 719.571 174.081H683.605C683.075 174.081 682.645 174.51 682.645 175.04C682.645 175.57 683.075 176 683.605 176H719.571C721.744 176 723.511 174.232 723.511 172.059V169.831C723.511 168.982 722.82 168.291 721.971 168.291Z" fill="white"/>
<path d="M665.167 138.91V163.3C665.167 164.712 666.315 165.86 667.727 165.86H713.785C715.196 165.86 716.345 164.712 716.345 163.3V138.91C716.345 137.499 715.196 136.35 713.785 136.35H667.727C666.315 136.351 665.167 137.499 665.167 138.91ZM714.425 138.91V163.3C714.425 163.653 714.138 163.941 713.785 163.941H667.727C667.373 163.941 667.086 163.653 667.086 163.3V138.91C667.086 138.557 667.373 138.27 667.727 138.27H713.785C714.138 138.27 714.425 138.557 714.425 138.91Z" fill="white"/>
<path d="M592.8 155.4C593.908 155.4 594.99 155.072 595.911 154.456C596.832 153.841 597.55 152.966 597.974 151.943C598.398 150.92 598.508 149.794 598.292 148.708C598.076 147.621 597.543 146.623 596.76 145.84C595.977 145.057 594.979 144.524 593.893 144.308C592.806 144.092 591.68 144.202 590.657 144.626C589.634 145.05 588.759 145.768 588.144 146.689C587.528 147.61 587.2 148.692 587.2 149.8C587.202 151.285 587.792 152.708 588.842 153.758C589.892 154.808 591.315 155.398 592.8 155.4ZM592.8 145.8C593.591 145.8 594.364 146.035 595.022 146.474C595.68 146.914 596.193 147.538 596.496 148.269C596.798 149 596.877 149.804 596.723 150.58C596.569 151.356 596.188 152.069 595.628 152.628C595.069 153.188 594.356 153.569 593.58 153.723C592.804 153.878 592 153.798 591.269 153.496C590.538 153.193 589.914 152.68 589.474 152.022C589.035 151.365 588.8 150.591 588.8 149.8C588.801 148.74 589.223 147.723 589.973 146.973C590.723 146.223 591.739 145.801 592.8 145.8Z" fill="white"/>
<path d="M591.2 147.4V152.2L595.2 149.8L591.2 147.4Z" fill="white"/>
<path d="M586.031 158.6H599.569C601.354 158.6 603.07 157.907 604.355 156.668C605.64 155.428 606.393 153.739 606.457 151.955C606.521 150.171 605.891 148.431 604.698 147.103C603.505 145.775 601.844 144.961 600.063 144.833C599.682 143.537 598.961 142.367 597.975 141.444C596.989 140.52 595.773 139.878 594.455 139.583C593.137 139.288 591.764 139.351 590.478 139.765C589.193 140.18 588.041 140.931 587.144 141.941C587.081 141.944 587.019 141.948 586.957 141.953C585.854 142.042 584.807 142.475 583.963 143.191C583.12 143.907 582.522 144.87 582.254 145.943C581.013 146.756 580.067 147.949 579.557 149.342C579.048 150.736 579.002 152.257 579.426 153.679C579.851 155.101 580.723 156.348 581.912 157.235C583.102 158.121 584.547 158.6 586.031 158.6ZM583.369 147.134C583.469 147.076 583.556 146.996 583.622 146.9C583.689 146.805 583.734 146.696 583.754 146.582C583.895 145.778 584.299 145.045 584.902 144.496C585.505 143.946 586.274 143.613 587.087 143.547C587.182 143.54 587.281 143.536 587.382 143.536C587.419 143.536 587.457 143.536 587.495 143.537C587.619 143.541 587.741 143.515 587.854 143.464C587.966 143.412 588.065 143.335 588.142 143.238C588.851 142.353 589.797 141.688 590.871 141.321C591.944 140.954 593.1 140.9 594.202 141.166C595.305 141.432 596.309 142.007 597.097 142.823C597.884 143.639 598.423 144.663 598.65 145.775C598.687 145.955 598.785 146.118 598.928 146.235C599.071 146.352 599.249 146.415 599.434 146.415H599.57C600.973 146.415 602.319 146.973 603.312 147.965C604.304 148.958 604.862 150.304 604.862 151.708C604.862 153.111 604.304 154.457 603.312 155.45C602.319 156.442 600.973 157 599.57 157H586.031C584.867 157 583.736 156.617 582.813 155.909C581.889 155.202 581.224 154.21 580.921 153.087C580.618 151.964 580.694 150.772 581.136 149.696C581.579 148.62 582.363 147.72 583.369 147.134Z" fill="white"/>
<path d="M579.6 172.2H606C606.954 172.199 607.87 171.819 608.544 171.144C609.219 170.47 609.599 169.554 609.6 168.6V136.345C609.599 135.458 609.246 134.608 608.619 133.981C607.992 133.354 607.141 133.001 606.255 133H579.346C578.459 133.001 577.608 133.354 576.981 133.981C576.354 134.608 576.001 135.458 576 136.345V168.6C576.001 169.554 576.381 170.47 577.056 171.144C577.73 171.819 578.646 172.199 579.6 172.2ZM577.6 136.345C577.601 135.883 577.785 135.439 578.112 135.112C578.439 134.785 578.883 134.601 579.346 134.6H606.255C606.717 134.601 607.161 134.785 607.488 135.112C607.815 135.439 607.999 135.883 608 136.345V163.255C607.999 163.717 607.815 164.161 607.488 164.488C607.161 164.815 606.717 165 606.255 165H579.346C578.883 165 578.439 164.815 578.112 164.488C577.785 164.161 577.601 163.717 577.6 163.255V136.345ZM577.6 166.107C578.125 166.43 578.729 166.601 579.346 166.6H606.255C606.871 166.601 607.475 166.43 608 166.107V168.6C607.999 169.13 607.788 169.639 607.414 170.014C607.039 170.389 606.53 170.599 606 170.6H591.2V168.2H589.6V170.6H588V168.2H586.4V170.6H584.8V168.2H583.2V170.6H581.6V168.2H580V170.6H579.6C579.07 170.599 578.561 170.389 578.186 170.014C577.812 169.639 577.601 169.13 577.6 168.6V166.107Z" fill="white"/>
<path d="M604 168.2H605.6V169.8H604V168.2Z" fill="white"/>
<path d="M600.8 168.2H602.4V169.8H600.8V168.2Z" fill="white"/>
<path d="M597.6 168.2H599.2V169.8H597.6V168.2Z" fill="white"/>
<path d="M621.8 148.2H615C614.417 148.201 613.858 148.433 613.445 148.845C613.033 149.257 612.801 149.817 612.8 150.4V174.8C612.801 175.383 613.033 175.942 613.445 176.355C613.858 176.767 614.417 176.999 615 177H621.8C622.383 176.999 622.942 176.767 623.355 176.355C623.767 175.942 623.999 175.383 624 174.8V150.4C623.999 149.817 623.767 149.257 623.355 148.845C622.942 148.433 622.383 148.201 621.8 148.2ZM616.8 149.8H620L620.001 151.4H616.8V149.8ZM622.4 174.8C622.4 174.959 622.337 175.112 622.224 175.224C622.112 175.337 621.959 175.4 621.8 175.4H615C614.841 175.4 614.688 175.337 614.576 175.224C614.463 175.112 614.4 174.959 614.4 174.8V150.4C614.4 150.241 614.463 150.088 614.576 149.976C614.688 149.863 614.841 149.8 615 149.8H615.2V151.4C615.201 151.824 615.369 152.231 615.669 152.531C615.969 152.831 616.376 152.999 616.8 153H620C620.424 152.999 620.831 152.831 621.131 152.531C621.431 152.231 621.6 151.824 621.6 151.4V149.8H621.8C621.959 149.8 622.112 149.863 622.224 149.976C622.337 150.088 622.4 150.241 622.4 150.4V174.8Z" fill="white"/>
<path d="M618.4 154.875C617.794 154.875 617.202 155.054 616.699 155.391C616.195 155.727 615.802 156.206 615.571 156.765C615.339 157.325 615.278 157.941 615.396 158.535C615.514 159.129 615.806 159.675 616.234 160.103C616.59 160.459 617.029 160.722 617.511 160.868C617.993 161.014 618.503 161.039 618.997 160.941C619.491 160.843 619.954 160.624 620.343 160.305C620.732 159.985 621.037 159.575 621.229 159.109C621.422 158.644 621.497 158.138 621.448 157.637C621.399 157.136 621.226 156.654 620.947 156.236C620.667 155.817 620.288 155.474 619.844 155.236C619.4 154.999 618.904 154.875 618.4 154.875ZM619.434 158.972C619.16 159.246 618.788 159.399 618.4 159.399C618.012 159.399 617.64 159.246 617.366 158.972C617.161 158.767 617.022 158.506 616.965 158.223C616.909 157.939 616.938 157.645 617.049 157.377C617.159 157.11 617.347 156.882 617.587 156.721C617.828 156.56 618.111 156.474 618.4 156.474C618.689 156.474 618.972 156.56 619.213 156.721C619.453 156.882 619.641 157.11 619.751 157.377C619.862 157.645 619.891 157.939 619.835 158.223C619.778 158.506 619.639 158.767 619.434 158.972Z" fill="white"/>
<path d="M616 164.2H617.6V165.8H616V164.2Z" fill="white"/>
<path d="M619.2 164.2H620.8V165.8H619.2V164.2Z" fill="white"/>
<path d="M616 167.4H617.6V169H616V167.4Z" fill="white"/>
<path d="M619.2 167.4H620.8V169H619.2V167.4Z" fill="white"/>
<path d="M616 170.6H617.6V172.2H616V170.6Z" fill="white"/>
<path d="M619.2 170.6H620.8V172.2H619.2V170.6Z" fill="white"/>
<path d="M620 146.52C619.997 144.208 619.078 141.992 617.443 140.357C615.808 138.722 613.592 137.803 611.28 137.8V139.4C613.168 139.402 614.978 140.153 616.312 141.488C617.647 142.822 618.398 144.632 618.4 146.52H620Z" fill="white"/>
<path d="M615.354 146.52H616.954C616.952 145.016 616.354 143.573 615.29 142.51C614.227 141.446 612.784 140.848 611.28 140.846V142.446C612.36 142.447 613.396 142.877 614.16 143.641C614.923 144.404 615.353 145.44 615.354 146.52Z" fill="white"/>
<path d="M613.065 144.735C612.831 144.5 612.553 144.314 612.246 144.187C611.94 144.06 611.612 143.996 611.28 143.997V145.597C611.402 145.597 611.522 145.62 611.634 145.667C611.746 145.713 611.847 145.781 611.933 145.867C612.019 145.953 612.087 146.054 612.133 146.166C612.18 146.278 612.204 146.398 612.204 146.52H613.804C613.804 146.188 613.74 145.86 613.613 145.554C613.486 145.247 613.3 144.969 613.065 144.735Z" fill="white"/>
<path d="M771.201 80.7289L771.236 80.6936L771.201 80.7289C771.507 81.0347 772.003 81.0348 772.309 80.7289L772.273 80.6936L772.309 80.7289C772.615 80.423 772.615 79.9271 772.309 79.6211C770.426 77.7385 767.379 77.7388 765.497 79.6212C765.191 79.9271 765.191 80.423 765.497 80.7289L765.532 80.6936L765.497 80.7289C765.803 81.0347 766.299 81.0348 766.605 80.7288C767.875 79.4585 769.931 79.4588 771.201 80.7289ZM763.882 78.0066L763.847 77.9713L763.882 78.0066C766.657 75.2318 771.148 75.2313 773.923 78.0066L773.959 77.9713L773.923 78.0066C774.229 78.3125 774.725 78.3124 775.031 78.0066C775.337 77.7007 775.337 77.2048 775.031 76.8988C773.572 75.4399 771.684 74.5655 769.652 74.3926C769.398 72.5121 767.938 71.0096 766.079 70.6916L765.083 63.5228C764.879 62.0559 763.609 60.95 762.128 60.95H752.515C751.034 60.95 749.763 62.0559 749.56 63.5229L749.18 66.2572C749.122 66.3886 749.1 66.5297 749.121 66.6797L748.564 70.6917C746.515 71.0421 744.95 72.8302 744.95 74.9776V91.0225C744.95 93.1699 746.515 94.958 748.564 95.3084L749.121 99.3203C749.1 99.4702 749.122 99.6112 749.18 99.7429L749.56 102.477C749.763 103.944 751.034 105.05 752.515 105.05H762.128C763.609 105.05 764.879 103.944 765.083 102.477L766.079 95.3083C768.128 94.9579 769.692 93.1698 769.692 91.0224V87.3083C769.692 86.8757 769.342 86.525 768.909 86.525C768.477 86.525 768.126 86.8757 768.126 87.3083V91.0225C768.126 92.5565 766.878 93.8046 765.344 93.8046H749.299C747.765 93.8046 746.517 92.5565 746.517 91.0225V74.9775C746.517 73.4435 747.765 72.1954 749.299 72.1954H760.318C760.75 72.1954 761.101 71.8446 761.101 71.4121C761.101 70.9795 760.75 70.6287 760.318 70.6287H750.154L750.609 67.356H755.121C755.554 67.356 755.905 67.0053 755.905 66.5727C755.905 66.1401 755.554 65.7894 755.121 65.7894H750.826L751.111 63.7385C751.208 63.0421 751.812 62.5167 752.515 62.5167H762.128C762.831 62.5167 763.434 63.0421 763.531 63.7385L764.488 70.6287H764.007C763.574 70.6287 763.223 70.9795 763.223 71.4121C763.223 71.8446 763.574 72.1954 764.007 72.1954H765.344C766.68 72.1954 767.799 73.1425 768.065 74.4007C766.066 74.5913 764.212 75.4612 762.775 76.8988C762.469 77.2048 762.469 77.7007 762.775 78.0066C763.08 78.3124 763.576 78.3124 763.882 78.0066ZM769.91 82.0194C769.353 81.4624 768.452 81.4624 767.895 82.0194C767.338 82.5762 767.338 83.4777 767.895 84.0347C768.793 84.9325 770.328 84.2877 770.328 83.027C770.328 82.6466 770.179 82.2884 769.91 82.0194ZM763.531 102.262C763.434 102.958 762.831 103.483 762.128 103.483H752.515C751.812 103.483 751.208 102.958 751.111 102.262L750.826 100.211H755.121C755.554 100.211 755.905 99.8599 755.905 99.4273C755.905 98.9947 755.554 98.644 755.121 98.644H750.609L750.154 95.3713H764.488L763.531 102.262Z" fill="white" stroke="white" stroke-width="0.1"/>
<path d="M682.5 68C683.39 68 684.26 67.7361 685 67.2416C685.74 66.7471 686.317 66.0443 686.657 65.2221C686.998 64.3998 687.087 63.495 686.914 62.6221C686.74 61.7492 686.311 60.9474 685.682 60.318C685.053 59.6887 684.251 59.2601 683.378 59.0865C682.505 58.9128 681.6 59.0019 680.778 59.3425C679.956 59.6831 679.253 60.2599 678.758 60.9999C678.264 61.74 678 62.61 678 63.5C678.001 64.6931 678.476 65.8369 679.319 66.6805C680.163 67.5241 681.307 67.9987 682.5 68ZM682.5 60.2857C683.136 60.2857 683.757 60.4742 684.286 60.8274C684.814 61.1806 685.226 61.6826 685.47 62.2699C685.713 62.8573 685.777 63.5036 685.653 64.1271C685.528 64.7506 685.222 65.3233 684.773 65.7728C684.323 66.2224 683.751 66.5285 683.127 66.6525C682.504 66.7765 681.857 66.7129 681.27 66.4696C680.683 66.2263 680.181 65.8143 679.827 65.2858C679.474 64.7572 679.286 64.1357 679.286 63.5C679.287 62.6478 679.626 61.8308 680.228 61.2282C680.831 60.6256 681.648 60.2867 682.5 60.2857Z" fill="white"/>
<path d="M681.214 61.5714V65.4285L684.429 63.4999L681.214 61.5714Z" fill="white"/>
<path fill-rule="evenodd" clip-rule="evenodd" d="M708.5 73.0151H707.248V64.8119C707.248 64.5233 707.015 64.2894 706.726 64.2894C706.437 64.2894 706.203 64.5233 706.203 64.8119V73.0148H705.089V63.7668C705.089 62.4397 704.572 61.1922 703.634 60.254C702.695 59.3162 701.448 58.7996 700.122 58.7996C697.384 58.7996 695.156 61.0279 695.156 63.7668V84.3371C695.156 85.9615 694.523 87.4886 693.374 88.6372C692.226 89.7857 690.699 90.4183 689.074 90.4183C685.72 90.4183 682.992 87.6903 682.992 84.3371L682.992 83.3602H681.947L681.947 84.3371C681.947 88.2665 685.144 91.4635 689.074 91.4635C690.978 91.4635 692.768 90.7222 694.114 89.3762C695.46 88.0302 696.201 86.2407 696.201 84.3371V63.7668C696.201 61.6041 697.96 59.8448 700.122 59.8448C701.169 59.8448 702.154 60.2527 702.895 60.9933C703.636 61.7338 704.043 62.7189 704.043 63.7668V73.0151H702.792C701.147 73.0151 699.809 74.3533 699.809 75.9982V86.1867C699.809 86.4753 700.042 86.7093 700.331 86.7093H700.942V91.4774C700.942 91.766 701.176 92 701.465 92H709.827C710.116 92 710.35 91.766 710.35 91.4774V86.7092H710.961C711.249 86.7092 711.483 86.4753 711.483 86.1867V75.9982C711.483 74.3533 710.145 73.0151 708.5 73.0151ZM701.987 90.9548H709.304H709.305V86.7092H701.987V90.9548ZM700.854 85.6641H710.438L710.438 75.9982C710.438 74.9296 709.569 74.0602 708.5 74.0602H702.792C701.723 74.0602 700.854 74.9296 700.854 75.9982V85.6641Z" fill="white"/>
<path d="M684.107 83.3602L684.107 84.3371C684.107 87.0756 686.335 89.3035 689.074 89.3035C690.402 89.3035 691.649 88.7869 692.586 87.849C693.524 86.9109 694.041 85.6637 694.041 84.3371V63.7668C694.041 60.4132 696.769 57.6848 700.122 57.6848C701.746 57.6848 703.273 58.3174 704.422 59.466C705.339 60.3823 705.928 61.5374 706.128 62.8064C706.173 63.0914 706.44 63.2869 706.726 63.2414C707.011 63.1965 707.205 62.929 707.161 62.6439C706.926 61.1552 706.235 59.8007 705.161 58.7268C703.814 57.3809 702.025 56.6397 700.122 56.6397C696.193 56.6397 692.996 59.8369 692.996 63.7668V84.3371C692.996 85.3845 692.588 86.3693 691.847 87.1101C691.107 87.8506 690.122 88.2584 689.074 88.2584C686.911 88.2584 685.152 86.4993 685.152 84.3371L685.152 83.3602H684.107Z" fill="white"/>
<rect x="674" y="44" width="17" height="39" rx="3" stroke="white" stroke-width="1.5"/>
<path d="M638.581 68H621.548C620.608 68.0011 619.706 68.3752 619.04 69.0405C618.375 69.7057 618.001 70.6076 618 71.5484V108.452C618.001 109.392 618.375 110.294 619.04 110.96C619.706 111.625 620.608 111.999 621.548 112H638.581C639.521 111.999 640.423 111.625 641.089 110.96C641.754 110.294 642.128 109.392 642.129 108.452V71.5484C642.128 70.6076 641.754 69.7057 641.089 69.0405C640.423 68.3752 639.521 68.0011 638.581 68ZM634.876 69.4194L634.45 71.5484H625.679L625.253 69.4194H634.876ZM640.71 108.452C640.709 109.016 640.485 109.557 640.085 109.956C639.686 110.355 639.145 110.58 638.581 110.581H621.548C620.984 110.58 620.443 110.355 620.044 109.956C619.644 109.557 619.42 109.016 619.419 108.452V71.5484C619.42 70.9839 619.644 70.4428 620.044 70.0436C620.443 69.6445 620.984 69.42 621.548 69.4194H623.805L624.401 72.3972C624.433 72.5581 624.52 72.7029 624.647 72.8069C624.774 72.9109 624.933 72.9677 625.097 72.9677H635.032C635.196 72.9677 635.355 72.9109 635.482 72.8069C635.609 72.7029 635.696 72.5581 635.728 72.3972L636.324 69.4194H638.581C639.145 69.42 639.686 69.6445 640.085 70.0436C640.485 70.4428 640.709 70.9839 640.71 71.5484V108.452Z" fill="white" stroke="white" stroke-width="0.3"/>
<path d="M625.806 107.742H621.548C621.36 107.742 621.18 107.817 621.047 107.95C620.913 108.083 620.839 108.263 620.839 108.452C620.839 108.64 620.913 108.82 621.047 108.953C621.18 109.086 621.36 109.161 621.548 109.161H625.806C625.995 109.161 626.175 109.086 626.308 108.953C626.441 108.82 626.516 108.64 626.516 108.452C626.516 108.263 626.441 108.083 626.308 107.95C626.175 107.817 625.995 107.742 625.806 107.742Z" fill="white" stroke="white" stroke-width="0.3"/>
<path d="M628.645 107.742H627.935C627.747 107.742 627.567 107.817 627.434 107.95C627.301 108.083 627.226 108.263 627.226 108.452C627.226 108.64 627.301 108.82 627.434 108.953C627.567 109.086 627.747 109.161 627.935 109.161H628.645C628.833 109.161 629.014 109.086 629.147 108.953C629.28 108.82 629.355 108.64 629.355 108.452C629.355 108.263 629.28 108.083 629.147 107.95C629.014 107.817 628.833 107.742 628.645 107.742Z" fill="white" stroke="white" stroke-width="0.3"/>
<path d="M1161.25 133C1159.73 133 1158.5 131.768 1158.5 130.25V102.75C1158.5 101.232 1159.73 100 1161.25 100C1162.77 100 1164 101.232 1164 102.75V130.25C1164 131.768 1162.77 133 1161.25 133Z" fill="white"/>
<path d="M1210.75 133C1209.23 133 1208 131.768 1208 130.25V102.75C1208 101.232 1209.23 100 1210.75 100C1212.27 100 1213.5 101.232 1213.5 102.75V130.25C1213.5 131.768 1212.27 133 1210.75 133Z" fill="white"/>
<path d="M1188.75 133H1183.25C1178.7 133 1175 129.299 1175 124.75V108.25C1175 103.702 1178.7 100 1183.25 100H1188.75C1193.3 100 1197 103.702 1197 108.25V124.75C1197 129.299 1193.3 133 1188.75 133ZM1183.25 105.5C1181.74 105.5 1180.5 106.732 1180.5 108.25V124.75C1180.5 126.268 1181.74 127.5 1183.25 127.5H1188.75C1190.26 127.5 1191.5 126.268 1191.5 124.75V108.25C1191.5 106.732 1190.26 105.5 1188.75 105.5H1183.25Z" fill="white"/>
<path d="M1210.75 177C1209.23 177 1208 175.768 1208 174.25V146.75C1208 145.232 1209.23 144 1210.75 144C1212.27 144 1213.5 145.232 1213.5 146.75V174.25C1213.5 175.768 1212.27 177 1210.75 177Z" fill="white"/>
<path d="M1172.25 177H1166.75C1162.2 177 1158.5 173.299 1158.5 168.75V152.25C1158.5 147.701 1162.2 144 1166.75 144H1172.25C1176.8 144 1180.5 147.701 1180.5 152.25V168.75C1180.5 173.299 1176.8 177 1172.25 177ZM1166.75 149.5C1165.24 149.5 1164 150.732 1164 152.25V168.75C1164 170.268 1165.24 171.5 1166.75 171.5H1172.25C1173.76 171.5 1175 170.268 1175 168.75V152.25C1175 150.732 1173.76 149.5 1172.25 149.5H1166.75Z" fill="white"/>
<path d="M1194.25 177C1192.73 177 1191.5 175.768 1191.5 174.25V146.75C1191.5 145.232 1192.73 144 1194.25 144C1195.77 144 1197 145.232 1197 146.75V174.25C1197 175.768 1195.77 177 1194.25 177Z" fill="white"/>
<path d="M1150.25 144H1147.5C1132.34 144 1120 131.664 1120 116.5C1120 101.969 1131.32 90.0395 1145.61 89.066C1149.41 70.058 1166.38 56 1186 56C1201.41 56 1215.6 64.679 1222.59 78.242C1239.21 79.9855 1252 94.0711 1252 111C1252 128.188 1239.1 142.301 1221.99 143.824C1220.61 143.945 1219.14 142.845 1219.01 141.327C1218.88 139.809 1220 138.478 1221.51 138.346C1235.75 137.081 1246.5 125.322 1246.5 111C1246.5 96.4416 1235.15 84.4075 1220.67 83.6045C1219.65 83.5495 1218.75 82.939 1218.32 82.0205C1212.5 69.5575 1199.82 61.5 1186 61.5C1168.32 61.5 1153.13 74.6725 1150.66 92.135C1150.47 93.488 1149.31 94.5001 1147.94 94.5001C1135.37 94.5001 1125.5 104.367 1125.5 116.5C1125.5 128.633 1135.37 138.5 1147.5 138.5H1150.25C1151.77 138.5 1153 139.732 1153 141.25C1153 142.768 1151.77 144 1150.25 144Z" fill="white"/>
<defs>
<linearGradient id="paint0_linear" x1="685.5" y1="3" x2="685.5" y2="285" gradientUnits="userSpaceOnUse">
<stop stop-color="#616892"/>
<stop offset="1" stop-color="#707FA6"/>
</linearGradient>
<linearGradient id="paint1_linear" x1="191.5" y1="3" x2="191.5" y2="285" gradientUnits="userSpaceOnUse">
<stop stop-color="#616892"/>
<stop offset="1" stop-color="#707FA6"/>
</linearGradient>
<linearGradient id="paint2_linear" x1="1179.5" y1="3" x2="1179.5" y2="285" gradientUnits="userSpaceOnUse">
<stop stop-color="#616892"/>
<stop offset="1" stop-color="#707FA6"/>
</linearGradient>
<linearGradient id="paint3_linear" x1="414" y1="199" x2="491.507" y2="176.576" gradientUnits="userSpaceOnUse">
<stop stop-color="#FF6E5D"/>
<stop offset="1" stop-color="#B84CB7"/>
<stop offset="1" stop-color="#FF00E6"/>
</linearGradient>
<linearGradient id="paint4_linear" x1="913" y1="199" x2="990.507" y2="176.576" gradientUnits="userSpaceOnUse">
<stop stop-color="#FF6E5D"/>
<stop offset="1" stop-color="#B84CB7"/>
<stop offset="1" stop-color="#FF00E6"/>
</linearGradient>
</defs>
</svg>
