<svg width="402" height="343" viewBox="0 0 402 343" fill="none" xmlns="http://www.w3.org/2000/svg">
<path d="M254.796 164H329C340.046 164 349 172.954 349 184V275C349 286.046 340.046 295 329 295H71C59.9543 295 51 286.046 51 275V59C51 47.9543 59.9543 39 71 39H338.29" stroke="url(#paint0_linear)" stroke-opacity="0.2" stroke-width="3" stroke-linecap="round"/>
<path d="M328 15L348.464 35.4645C350.417 37.4171 350.417 40.5829 348.464 42.5355L328 63" stroke="url(#paint1_linear)" stroke-opacity="0.2" stroke-width="3" stroke-linecap="round"/>
<rect x="149.5" y="124.5" width="104" height="75" rx="2.5" fill="url(#paint2_linear)" stroke="#00ABFE" stroke-width="3"/>
<path d="M174.377 152.844L175.121 150C174.649 150 174.249 149.868 173.921 149.604C173.593 149.34 173.353 148.924 173.201 148.356L171.881 143.568H173.417L174.581 148.056C174.653 148.296 174.745 148.468 174.857 148.572C174.969 148.668 175.077 148.728 175.181 148.752C175.285 148.768 175.353 148.776 175.385 148.776L176.717 143.568H178.229L176.165 151.656L175.589 152.844H174.377ZM181.848 150.06C181.168 150.06 180.616 149.964 180.192 149.772C179.768 149.58 179.456 149.244 179.256 148.764C179.064 148.284 178.968 147.62 178.968 146.772C178.968 145.884 179.068 145.204 179.268 144.732C179.468 144.252 179.78 143.924 180.204 143.748C180.628 143.572 181.176 143.484 181.848 143.484C182.528 143.484 183.08 143.576 183.504 143.76C183.936 143.944 184.252 144.276 184.452 144.756C184.652 145.228 184.752 145.9 184.752 146.772C184.752 147.636 184.652 148.308 184.452 148.788C184.26 149.26 183.952 149.592 183.528 149.784C183.104 149.968 182.544 150.06 181.848 150.06ZM181.848 148.872C182.168 148.872 182.432 148.828 182.64 148.74C182.856 148.652 183.012 148.46 183.108 148.164C183.212 147.86 183.264 147.392 183.264 146.76C183.264 146.136 183.212 145.676 183.108 145.38C183.012 145.084 182.856 144.892 182.64 144.804C182.432 144.716 182.168 144.672 181.848 144.672C181.528 144.672 181.264 144.716 181.056 144.804C180.856 144.892 180.704 145.084 180.6 145.38C180.496 145.676 180.444 146.136 180.444 146.76C180.444 147.392 180.496 147.86 180.6 148.164C180.704 148.46 180.856 148.652 181.056 148.74C181.264 148.828 181.528 148.872 181.848 148.872ZM187.934 150.072C187.342 150.072 186.882 149.908 186.554 149.58C186.226 149.244 186.062 148.756 186.062 148.116V143.568H187.55V147.684C187.55 148.108 187.646 148.392 187.838 148.536C188.03 148.68 188.298 148.752 188.642 148.752C188.922 148.752 189.19 148.708 189.446 148.62C189.71 148.532 189.962 148.404 190.202 148.236V143.568H191.69V150H190.478L190.202 149.328C189.898 149.52 189.55 149.692 189.158 149.844C188.774 149.996 188.366 150.072 187.934 150.072ZM196.328 150V143.568H197.54L197.816 144.24C198.08 144.04 198.4 143.86 198.776 143.7C199.16 143.54 199.556 143.46 199.964 143.46C200.468 143.46 200.864 143.564 201.152 143.772C201.44 143.98 201.644 144.256 201.764 144.6C201.892 144.936 201.956 145.308 201.956 145.716V150H200.468V145.896C200.468 145.552 200.372 145.284 200.18 145.092C199.988 144.9 199.728 144.804 199.4 144.804C199.088 144.804 198.808 144.852 198.56 144.948C198.312 145.044 198.064 145.172 197.816 145.332V150H196.328ZM206.07 150.06C205.374 150.06 204.818 149.964 204.402 149.772C203.994 149.58 203.698 149.248 203.514 148.776C203.338 148.296 203.25 147.632 203.25 146.784C203.25 145.92 203.334 145.248 203.502 144.768C203.678 144.288 203.97 143.956 204.378 143.772C204.786 143.58 205.338 143.484 206.034 143.484C206.642 143.484 207.134 143.548 207.51 143.676C207.886 143.796 208.158 144.016 208.326 144.336C208.502 144.656 208.59 145.1 208.59 145.668C208.59 146.292 208.41 146.724 208.05 146.964C207.69 147.204 207.206 147.324 206.598 147.324H204.714C204.73 147.724 204.782 148.044 204.87 148.284C204.966 148.516 205.134 148.684 205.374 148.788C205.622 148.892 205.982 148.944 206.454 148.944H208.398V149.82C208.07 149.884 207.722 149.94 207.354 149.988C206.994 150.036 206.566 150.06 206.07 150.06ZM204.702 146.424H206.454C206.734 146.424 206.938 146.372 207.066 146.268C207.202 146.156 207.27 145.956 207.27 145.668C207.27 145.252 207.174 144.964 206.982 144.804C206.798 144.644 206.482 144.564 206.034 144.564C205.698 144.564 205.43 144.616 205.23 144.72C205.038 144.824 204.902 145.012 204.822 145.284C204.742 145.556 204.702 145.936 204.702 146.424ZM212.538 150.06C211.842 150.06 211.286 149.964 210.87 149.772C210.462 149.58 210.166 149.248 209.982 148.776C209.806 148.296 209.718 147.632 209.718 146.784C209.718 145.92 209.802 145.248 209.97 144.768C210.146 144.288 210.438 143.956 210.846 143.772C211.254 143.58 211.806 143.484 212.502 143.484C213.11 143.484 213.602 143.548 213.978 143.676C214.354 143.796 214.626 144.016 214.794 144.336C214.97 144.656 215.058 145.1 215.058 145.668C215.058 146.292 214.878 146.724 214.518 146.964C214.158 147.204 213.674 147.324 213.066 147.324H211.182C211.198 147.724 211.25 148.044 211.338 148.284C211.434 148.516 211.602 148.684 211.842 148.788C212.09 148.892 212.45 148.944 212.922 148.944H214.866V149.82C214.538 149.884 214.19 149.94 213.822 149.988C213.462 150.036 213.034 150.06 212.538 150.06ZM211.17 146.424H212.922C213.202 146.424 213.406 146.372 213.534 146.268C213.67 146.156 213.738 145.956 213.738 145.668C213.738 145.252 213.642 144.964 213.45 144.804C213.266 144.644 212.95 144.564 212.502 144.564C212.166 144.564 211.898 144.616 211.698 144.72C211.506 144.824 211.37 145.012 211.29 145.284C211.21 145.556 211.17 145.936 211.17 146.424ZM218.491 150.072C217.723 150.072 217.147 149.824 216.763 149.328C216.379 148.824 216.187 147.996 216.187 146.844C216.187 146.052 216.259 145.408 216.403 144.912C216.555 144.416 216.807 144.056 217.159 143.832C217.519 143.6 218.003 143.484 218.611 143.484C218.923 143.484 219.235 143.516 219.547 143.58C219.859 143.644 220.131 143.72 220.363 143.808V140.844H221.851V150H220.615L220.363 149.376C220.163 149.552 219.883 149.712 219.523 149.856C219.171 150 218.827 150.072 218.491 150.072ZM218.983 148.872C219.271 148.872 219.531 148.828 219.763 148.74C219.995 148.644 220.195 148.548 220.363 148.452V144.876C220.163 144.804 219.959 144.74 219.751 144.684C219.543 144.628 219.315 144.6 219.067 144.6C218.731 144.6 218.459 144.664 218.251 144.792C218.051 144.912 217.903 145.128 217.807 145.44C217.711 145.752 217.663 146.196 217.663 146.772C217.663 147.308 217.707 147.728 217.795 148.032C217.883 148.336 218.023 148.552 218.215 148.68C218.407 148.808 218.663 148.872 218.983 148.872ZM227.813 150.072C227.333 150.072 226.941 149.928 226.637 149.64C226.333 149.352 226.181 148.956 226.181 148.452V147.912C226.181 147.416 226.349 147.012 226.685 146.7C227.029 146.388 227.553 146.232 228.257 146.232H230.093V145.668C230.093 145.444 230.053 145.256 229.973 145.104C229.901 144.952 229.757 144.84 229.541 144.768C229.325 144.688 229.009 144.648 228.593 144.648H226.649V143.784C226.953 143.704 227.301 143.636 227.693 143.58C228.093 143.516 228.569 143.484 229.121 143.484C229.921 143.476 230.529 143.628 230.945 143.94C231.369 144.244 231.581 144.788 231.581 145.572V150H230.417L230.165 149.304C230.101 149.36 229.949 149.452 229.709 149.58C229.477 149.7 229.193 149.812 228.857 149.916C228.521 150.02 228.173 150.072 227.813 150.072ZM228.533 149.028C228.709 149.028 228.913 149 229.145 148.944C229.385 148.88 229.597 148.816 229.781 148.752C229.965 148.68 230.069 148.636 230.093 148.62V146.94L228.701 147.012C228.333 147.044 228.065 147.14 227.897 147.3C227.737 147.46 227.657 147.672 227.657 147.936V148.2C227.657 148.504 227.745 148.716 227.921 148.836C228.105 148.956 228.309 149.02 228.533 149.028ZM162.442 166V160.768H161.506V159.808L162.442 159.568V159.028C162.442 158.26 162.594 157.692 162.898 157.324C163.202 156.956 163.73 156.772 164.482 156.772C164.754 156.772 164.998 156.792 165.214 156.832C165.438 156.864 165.626 156.896 165.778 156.928V157.984H164.758C164.43 157.984 164.21 158.064 164.098 158.224C163.986 158.384 163.93 158.628 163.93 158.956V159.568H165.694V160.768H163.93V166H162.442ZM169.255 166.06C168.559 166.06 168.003 165.964 167.587 165.772C167.179 165.58 166.883 165.248 166.699 164.776C166.523 164.296 166.435 163.632 166.435 162.784C166.435 161.92 166.519 161.248 166.687 160.768C166.863 160.288 167.155 159.956 167.563 159.772C167.971 159.58 168.523 159.484 169.219 159.484C169.827 159.484 170.319 159.548 170.695 159.676C171.071 159.796 171.343 160.016 171.511 160.336C171.687 160.656 171.775 161.1 171.775 161.668C171.775 162.292 171.595 162.724 171.235 162.964C170.875 163.204 170.391 163.324 169.783 163.324H167.899C167.915 163.724 167.967 164.044 168.055 164.284C168.151 164.516 168.319 164.684 168.559 164.788C168.807 164.892 169.167 164.944 169.639 164.944H171.583V165.82C171.255 165.884 170.907 165.94 170.539 165.988C170.179 166.036 169.751 166.06 169.255 166.06ZM167.887 162.424H169.639C169.919 162.424 170.123 162.372 170.251 162.268C170.387 162.156 170.455 161.956 170.455 161.668C170.455 161.252 170.359 160.964 170.167 160.804C169.983 160.644 169.667 160.564 169.219 160.564C168.883 160.564 168.615 160.616 168.415 160.72C168.223 160.824 168.087 161.012 168.007 161.284C167.927 161.556 167.887 161.936 167.887 162.424ZM174.428 166.072C173.948 166.072 173.556 165.928 173.252 165.64C172.948 165.352 172.796 164.956 172.796 164.452V163.912C172.796 163.416 172.964 163.012 173.3 162.7C173.644 162.388 174.168 162.232 174.872 162.232H176.708V161.668C176.708 161.444 176.668 161.256 176.588 161.104C176.516 160.952 176.372 160.84 176.156 160.768C175.94 160.688 175.624 160.648 175.208 160.648H173.264V159.784C173.568 159.704 173.916 159.636 174.308 159.58C174.708 159.516 175.184 159.484 175.736 159.484C176.536 159.476 177.144 159.628 177.56 159.94C177.984 160.244 178.196 160.788 178.196 161.572V166H177.032L176.78 165.304C176.716 165.36 176.564 165.452 176.324 165.58C176.092 165.7 175.808 165.812 175.472 165.916C175.136 166.02 174.788 166.072 174.428 166.072ZM175.148 165.028C175.324 165.028 175.528 165 175.76 164.944C176 164.88 176.212 164.816 176.396 164.752C176.58 164.68 176.684 164.636 176.708 164.62V162.94L175.316 163.012C174.948 163.044 174.68 163.14 174.512 163.3C174.352 163.46 174.272 163.672 174.272 163.936V164.2C174.272 164.504 174.36 164.716 174.536 164.836C174.72 164.956 174.924 165.02 175.148 165.028ZM182.01 166C181.314 166 180.806 165.836 180.486 165.508C180.166 165.18 180.018 164.608 180.042 163.792L180.09 160.768H179.082V159.808L180.138 159.568L180.354 157.768H181.518V159.568H183.15V160.768H181.518V163.78C181.518 164.06 181.554 164.272 181.626 164.416C181.698 164.56 181.794 164.664 181.914 164.728C182.034 164.784 182.154 164.816 182.274 164.824L183.078 164.908V166H182.01ZM186.1 166.072C185.508 166.072 185.048 165.908 184.72 165.58C184.392 165.244 184.228 164.756 184.228 164.116V159.568H185.716V163.684C185.716 164.108 185.812 164.392 186.004 164.536C186.196 164.68 186.464 164.752 186.808 164.752C187.088 164.752 187.356 164.708 187.612 164.62C187.876 164.532 188.128 164.404 188.368 164.236V159.568H189.856V166H188.644L188.368 165.328C188.064 165.52 187.716 165.692 187.324 165.844C186.94 165.996 186.532 166.072 186.1 166.072ZM191.354 166V159.568H192.506L192.842 160.6C193.098 160.288 193.382 160.024 193.694 159.808C194.014 159.592 194.386 159.484 194.81 159.484C194.898 159.484 194.99 159.492 195.086 159.508C195.182 159.516 195.27 159.532 195.35 159.556V161.068C195.238 161.06 195.118 161.052 194.99 161.044C194.862 161.028 194.738 161.02 194.618 161.02C194.234 161.02 193.906 161.084 193.634 161.212C193.362 161.34 193.098 161.536 192.842 161.8V166H191.354ZM199.009 166.06C198.313 166.06 197.757 165.964 197.341 165.772C196.933 165.58 196.637 165.248 196.453 164.776C196.277 164.296 196.189 163.632 196.189 162.784C196.189 161.92 196.273 161.248 196.441 160.768C196.617 160.288 196.909 159.956 197.317 159.772C197.725 159.58 198.277 159.484 198.973 159.484C199.581 159.484 200.073 159.548 200.449 159.676C200.825 159.796 201.097 160.016 201.265 160.336C201.441 160.656 201.529 161.1 201.529 161.668C201.529 162.292 201.349 162.724 200.989 162.964C200.629 163.204 200.145 163.324 199.537 163.324H197.653C197.669 163.724 197.721 164.044 197.809 164.284C197.905 164.516 198.073 164.684 198.313 164.788C198.561 164.892 198.921 164.944 199.393 164.944H201.337V165.82C201.009 165.884 200.661 165.94 200.293 165.988C199.933 166.036 199.505 166.06 199.009 166.06ZM197.641 162.424H199.393C199.673 162.424 199.877 162.372 200.005 162.268C200.141 162.156 200.209 161.956 200.209 161.668C200.209 161.252 200.113 160.964 199.921 160.804C199.737 160.644 199.421 160.564 198.973 160.564C198.637 160.564 198.369 160.616 198.169 160.72C197.977 160.824 197.841 161.012 197.761 161.284C197.681 161.556 197.641 161.936 197.641 162.424ZM206.41 166V160.768H205.474V159.808L206.41 159.568V159.028C206.41 158.26 206.562 157.692 206.866 157.324C207.17 156.956 207.698 156.772 208.45 156.772C208.722 156.772 208.966 156.792 209.182 156.832C209.406 156.864 209.594 156.896 209.746 156.928V157.984H208.726C208.398 157.984 208.178 158.064 208.066 158.224C207.954 158.384 207.898 158.628 207.898 158.956V159.568H209.662V160.768H207.898V166H206.41ZM210.596 166V159.568H211.748L212.084 160.6C212.34 160.288 212.624 160.024 212.936 159.808C213.256 159.592 213.628 159.484 214.052 159.484C214.14 159.484 214.232 159.492 214.328 159.508C214.424 159.516 214.512 159.532 214.592 159.556V161.068C214.48 161.06 214.36 161.052 214.232 161.044C214.104 161.028 213.98 161.02 213.86 161.02C213.476 161.02 213.148 161.084 212.876 161.212C212.604 161.34 212.34 161.536 212.084 161.8V166H210.596ZM218.311 166.06C217.631 166.06 217.079 165.964 216.655 165.772C216.231 165.58 215.919 165.244 215.719 164.764C215.527 164.284 215.431 163.62 215.431 162.772C215.431 161.884 215.531 161.204 215.731 160.732C215.931 160.252 216.243 159.924 216.667 159.748C217.091 159.572 217.639 159.484 218.311 159.484C218.991 159.484 219.543 159.576 219.967 159.76C220.399 159.944 220.715 160.276 220.915 160.756C221.115 161.228 221.215 161.9 221.215 162.772C221.215 163.636 221.115 164.308 220.915 164.788C220.723 165.26 220.415 165.592 219.991 165.784C219.567 165.968 219.007 166.06 218.311 166.06ZM218.311 164.872C218.631 164.872 218.895 164.828 219.103 164.74C219.319 164.652 219.475 164.46 219.571 164.164C219.675 163.86 219.727 163.392 219.727 162.76C219.727 162.136 219.675 161.676 219.571 161.38C219.475 161.084 219.319 160.892 219.103 160.804C218.895 160.716 218.631 160.672 218.311 160.672C217.991 160.672 217.727 160.716 217.519 160.804C217.319 160.892 217.167 161.084 217.063 161.38C216.959 161.676 216.907 162.136 216.907 162.76C216.907 163.392 216.959 163.86 217.063 164.164C217.167 164.46 217.319 164.652 217.519 164.74C217.727 164.828 217.991 164.872 218.311 164.872ZM222.537 166V159.568H223.749L224.025 160.24C224.321 160.032 224.645 159.852 224.997 159.7C225.357 159.54 225.781 159.46 226.269 159.46C226.669 159.46 227.005 159.548 227.277 159.724C227.549 159.9 227.757 160.12 227.901 160.384C228.085 160.248 228.309 160.108 228.573 159.964C228.837 159.82 229.113 159.7 229.401 159.604C229.697 159.508 229.989 159.46 230.277 159.46C230.773 159.46 231.169 159.56 231.465 159.76C231.761 159.952 231.973 160.224 232.101 160.576C232.237 160.92 232.305 161.32 232.305 161.776V166H230.817V161.896C230.817 161.552 230.721 161.284 230.529 161.092C230.337 160.9 230.077 160.804 229.749 160.804C229.461 160.804 229.169 160.86 228.873 160.972C228.585 161.084 228.321 161.22 228.081 161.38C228.137 161.564 228.165 161.748 228.165 161.932V166H226.677V161.896C226.677 161.552 226.581 161.284 226.389 161.092C226.197 160.9 225.937 160.804 225.609 160.804C225.297 160.804 225.017 160.852 224.769 160.948C224.521 161.044 224.273 161.172 224.025 161.332V166H222.537ZM238.248 166.072C237.768 166.072 237.376 165.928 237.072 165.64C236.768 165.352 236.616 164.956 236.616 164.452V163.912C236.616 163.416 236.784 163.012 237.12 162.7C237.464 162.388 237.988 162.232 238.692 162.232H240.528V161.668C240.528 161.444 240.488 161.256 240.408 161.104C240.336 160.952 240.192 160.84 239.976 160.768C239.76 160.688 239.444 160.648 239.028 160.648H237.084V159.784C237.388 159.704 237.736 159.636 238.128 159.58C238.528 159.516 239.004 159.484 239.556 159.484C240.356 159.476 240.964 159.628 241.38 159.94C241.804 160.244 242.016 160.788 242.016 161.572V166H240.852L240.6 165.304C240.536 165.36 240.384 165.452 240.144 165.58C239.912 165.7 239.628 165.812 239.292 165.916C238.956 166.02 238.608 166.072 238.248 166.072ZM238.968 165.028C239.144 165.028 239.348 165 239.58 164.944C239.82 164.88 240.032 164.816 240.216 164.752C240.4 164.68 240.504 164.636 240.528 164.62V162.94L239.136 163.012C238.768 163.044 238.5 163.14 238.332 163.3C238.172 163.46 238.092 163.672 238.092 163.936V164.2C238.092 164.504 238.18 164.716 238.356 164.836C238.54 164.956 238.744 165.02 238.968 165.028ZM185.29 182.072C185.042 182.072 184.754 182.06 184.426 182.036C184.106 182.02 183.798 181.996 183.502 181.964C183.206 181.924 182.974 181.876 182.806 181.82V180.944H185.578C185.874 180.944 186.102 180.904 186.262 180.824C186.43 180.744 186.514 180.56 186.514 180.272V180.044C186.514 179.844 186.446 179.688 186.31 179.576C186.174 179.456 185.946 179.396 185.626 179.396H184.654C184.278 179.396 183.942 179.344 183.646 179.24C183.358 179.136 183.13 178.96 182.962 178.712C182.794 178.464 182.71 178.128 182.71 177.704V177.344C182.71 176.736 182.89 176.28 183.25 175.976C183.618 175.664 184.262 175.508 185.182 175.508C185.43 175.508 185.702 175.52 185.998 175.544C186.302 175.568 186.59 175.6 186.862 175.64C187.134 175.68 187.35 175.72 187.51 175.76V176.636H184.894C184.598 176.636 184.37 176.688 184.21 176.792C184.058 176.888 183.982 177.072 183.982 177.344V177.572C183.982 177.836 184.062 178.008 184.222 178.088C184.39 178.16 184.626 178.196 184.93 178.196H185.926C186.558 178.196 187.026 178.344 187.33 178.64C187.634 178.928 187.786 179.332 187.786 179.852V180.38C187.786 181.028 187.566 181.472 187.126 181.712C186.686 181.952 186.074 182.072 185.29 182.072ZM191.65 182.06C190.954 182.06 190.398 181.964 189.982 181.772C189.574 181.58 189.278 181.248 189.094 180.776C188.918 180.296 188.83 179.632 188.83 178.784C188.83 177.92 188.914 177.248 189.082 176.768C189.258 176.288 189.55 175.956 189.958 175.772C190.366 175.58 190.918 175.484 191.614 175.484C192.222 175.484 192.714 175.548 193.09 175.676C193.466 175.796 193.738 176.016 193.906 176.336C194.082 176.656 194.17 177.1 194.17 177.668C194.17 178.292 193.99 178.724 193.63 178.964C193.27 179.204 192.786 179.324 192.178 179.324H190.294C190.31 179.724 190.362 180.044 190.45 180.284C190.546 180.516 190.714 180.684 190.954 180.788C191.202 180.892 191.562 180.944 192.034 180.944H193.978V181.82C193.65 181.884 193.302 181.94 192.934 181.988C192.574 182.036 192.146 182.06 191.65 182.06ZM190.282 178.424H192.034C192.314 178.424 192.518 178.372 192.646 178.268C192.782 178.156 192.85 177.956 192.85 177.668C192.85 177.252 192.754 176.964 192.562 176.804C192.378 176.644 192.062 176.564 191.614 176.564C191.278 176.564 191.01 176.616 190.81 176.72C190.618 176.824 190.482 177.012 190.402 177.284C190.322 177.556 190.282 177.936 190.282 178.424ZM195.49 182V175.568H196.642L196.978 176.6C197.234 176.288 197.518 176.024 197.83 175.808C198.15 175.592 198.522 175.484 198.946 175.484C199.034 175.484 199.126 175.492 199.222 175.508C199.318 175.516 199.406 175.532 199.486 175.556V177.068C199.374 177.06 199.254 177.052 199.126 177.044C198.998 177.028 198.874 177.02 198.754 177.02C198.37 177.02 198.042 177.084 197.77 177.212C197.498 177.34 197.234 177.536 196.978 177.8V182H195.49ZM202.186 182L199.942 175.568H201.466L203.074 180.62L204.718 175.568H206.23L203.89 182H202.186ZM207.354 174.548C207.202 174.548 207.126 174.476 207.126 174.332V173.24C207.126 173.08 207.202 173 207.354 173H208.482C208.626 173 208.698 173.08 208.698 173.24V174.332C208.698 174.476 208.626 174.548 208.482 174.548H207.354ZM207.162 182V175.568H208.65V182H207.162ZM212.634 182.072C212.122 182.072 211.666 181.98 211.266 181.796C210.866 181.604 210.55 181.272 210.318 180.8C210.094 180.328 209.982 179.664 209.982 178.808C209.982 177.928 210.086 177.248 210.294 176.768C210.51 176.288 210.818 175.956 211.218 175.772C211.626 175.58 212.11 175.484 212.67 175.484C213.038 175.484 213.402 175.504 213.762 175.544C214.122 175.576 214.49 175.64 214.866 175.736V176.588H213.114C212.73 176.588 212.414 176.648 212.166 176.768C211.926 176.888 211.746 177.108 211.626 177.428C211.514 177.748 211.458 178.208 211.458 178.808C211.458 179.4 211.518 179.848 211.638 180.152C211.758 180.456 211.938 180.664 212.178 180.776C212.426 180.888 212.742 180.944 213.126 180.944H214.962V181.784C214.666 181.864 214.306 181.932 213.882 181.988C213.466 182.044 213.05 182.072 212.634 182.072ZM218.685 182.06C217.989 182.06 217.433 181.964 217.017 181.772C216.609 181.58 216.313 181.248 216.129 180.776C215.953 180.296 215.865 179.632 215.865 178.784C215.865 177.92 215.949 177.248 216.117 176.768C216.293 176.288 216.585 175.956 216.993 175.772C217.401 175.58 217.953 175.484 218.649 175.484C219.257 175.484 219.749 175.548 220.125 175.676C220.501 175.796 220.773 176.016 220.941 176.336C221.117 176.656 221.205 177.1 221.205 177.668C221.205 178.292 221.025 178.724 220.665 178.964C220.305 179.204 219.821 179.324 219.213 179.324H217.329C217.345 179.724 217.397 180.044 217.485 180.284C217.581 180.516 217.749 180.684 217.989 180.788C218.237 180.892 218.597 180.944 219.069 180.944H221.013V181.82C220.685 181.884 220.337 181.94 219.969 181.988C219.609 182.036 219.181 182.06 218.685 182.06ZM217.317 178.424H219.069C219.349 178.424 219.553 178.372 219.681 178.268C219.817 178.156 219.885 177.956 219.885 177.668C219.885 177.252 219.789 176.964 219.597 176.804C219.413 176.644 219.097 176.564 218.649 176.564C218.313 176.564 218.045 176.616 217.845 176.72C217.653 176.824 217.517 177.012 217.437 177.284C217.357 177.556 217.317 177.936 217.317 178.424Z" fill="white"/>
<rect x="296.5" y="188.5" width="104" height="75" rx="2.5" fill="url(#paint3_linear)" stroke="#00ABFE" stroke-width="3"/>
<path d="M323.997 222.072C323.485 222.072 323.029 221.98 322.629 221.796C322.229 221.604 321.913 221.272 321.681 220.8C321.457 220.328 321.345 219.664 321.345 218.808C321.345 217.928 321.449 217.248 321.657 216.768C321.873 216.288 322.181 215.956 322.581 215.772C322.989 215.58 323.473 215.484 324.033 215.484C324.401 215.484 324.765 215.504 325.125 215.544C325.485 215.576 325.853 215.64 326.229 215.736V216.588H324.477C324.093 216.588 323.777 216.648 323.529 216.768C323.289 216.888 323.109 217.108 322.989 217.428C322.877 217.748 322.821 218.208 322.821 218.808C322.821 219.4 322.881 219.848 323.001 220.152C323.121 220.456 323.301 220.664 323.541 220.776C323.789 220.888 324.105 220.944 324.489 220.944H326.325V221.784C326.029 221.864 325.669 221.932 325.245 221.988C324.829 222.044 324.413 222.072 323.997 222.072ZM327.42 222V215.568H328.572L328.908 216.6C329.164 216.288 329.448 216.024 329.76 215.808C330.08 215.592 330.452 215.484 330.876 215.484C330.964 215.484 331.056 215.492 331.152 215.508C331.248 215.516 331.336 215.532 331.416 215.556V217.068C331.304 217.06 331.184 217.052 331.056 217.044C330.928 217.028 330.804 217.02 330.684 217.02C330.3 217.02 329.972 217.084 329.7 217.212C329.428 217.34 329.164 217.536 328.908 217.8V222H327.42ZM335.075 222.06C334.379 222.06 333.823 221.964 333.407 221.772C332.999 221.58 332.703 221.248 332.519 220.776C332.343 220.296 332.255 219.632 332.255 218.784C332.255 217.92 332.339 217.248 332.507 216.768C332.683 216.288 332.975 215.956 333.383 215.772C333.791 215.58 334.343 215.484 335.039 215.484C335.647 215.484 336.139 215.548 336.515 215.676C336.891 215.796 337.163 216.016 337.331 216.336C337.507 216.656 337.595 217.1 337.595 217.668C337.595 218.292 337.415 218.724 337.055 218.964C336.695 219.204 336.211 219.324 335.603 219.324H333.719C333.735 219.724 333.787 220.044 333.875 220.284C333.971 220.516 334.139 220.684 334.379 220.788C334.627 220.892 334.987 220.944 335.459 220.944H337.403V221.82C337.075 221.884 336.727 221.94 336.359 221.988C335.999 222.036 335.571 222.06 335.075 222.06ZM333.707 218.424H335.459C335.739 218.424 335.943 218.372 336.071 218.268C336.207 218.156 336.275 217.956 336.275 217.668C336.275 217.252 336.179 216.964 335.987 216.804C335.803 216.644 335.487 216.564 335.039 216.564C334.703 216.564 334.435 216.616 334.235 216.72C334.043 216.824 333.907 217.012 333.827 217.284C333.747 217.556 333.707 217.936 333.707 218.424ZM340.248 222.072C339.768 222.072 339.376 221.928 339.072 221.64C338.768 221.352 338.616 220.956 338.616 220.452V219.912C338.616 219.416 338.784 219.012 339.12 218.7C339.464 218.388 339.988 218.232 340.692 218.232H342.528V217.668C342.528 217.444 342.488 217.256 342.408 217.104C342.336 216.952 342.192 216.84 341.976 216.768C341.76 216.688 341.444 216.648 341.028 216.648H339.084V215.784C339.388 215.704 339.736 215.636 340.128 215.58C340.528 215.516 341.004 215.484 341.556 215.484C342.356 215.476 342.964 215.628 343.38 215.94C343.804 216.244 344.016 216.788 344.016 217.572V222H342.852L342.6 221.304C342.536 221.36 342.384 221.452 342.144 221.58C341.912 221.7 341.628 221.812 341.292 221.916C340.956 222.02 340.608 222.072 340.248 222.072ZM340.968 221.028C341.144 221.028 341.348 221 341.58 220.944C341.82 220.88 342.032 220.816 342.216 220.752C342.4 220.68 342.504 220.636 342.528 220.62V218.94L341.136 219.012C340.768 219.044 340.5 219.14 340.332 219.3C340.172 219.46 340.092 219.672 340.092 219.936V220.2C340.092 220.504 340.18 220.716 340.356 220.836C340.54 220.956 340.744 221.02 340.968 221.028ZM347.83 222C347.134 222 346.626 221.836 346.306 221.508C345.986 221.18 345.838 220.608 345.862 219.792L345.91 216.768H344.902V215.808L345.958 215.568L346.174 213.768H347.338V215.568H348.97V216.768H347.338V219.78C347.338 220.06 347.374 220.272 347.446 220.416C347.518 220.56 347.614 220.664 347.734 220.728C347.854 220.784 347.974 220.816 348.094 220.824L348.898 220.908V222H347.83ZM352.689 222.06C351.993 222.06 351.437 221.964 351.021 221.772C350.613 221.58 350.317 221.248 350.133 220.776C349.957 220.296 349.869 219.632 349.869 218.784C349.869 217.92 349.953 217.248 350.121 216.768C350.297 216.288 350.589 215.956 350.997 215.772C351.405 215.58 351.957 215.484 352.653 215.484C353.261 215.484 353.753 215.548 354.129 215.676C354.505 215.796 354.777 216.016 354.945 216.336C355.121 216.656 355.209 217.1 355.209 217.668C355.209 218.292 355.029 218.724 354.669 218.964C354.309 219.204 353.825 219.324 353.217 219.324H351.333C351.349 219.724 351.401 220.044 351.489 220.284C351.585 220.516 351.753 220.684 351.993 220.788C352.241 220.892 352.601 220.944 353.073 220.944H355.017V221.82C354.689 221.884 354.341 221.94 353.973 221.988C353.613 222.036 353.185 222.06 352.689 222.06ZM351.321 218.424H353.073C353.353 218.424 353.557 218.372 353.685 218.268C353.821 218.156 353.889 217.956 353.889 217.668C353.889 217.252 353.793 216.964 353.601 216.804C353.417 216.644 353.101 216.564 352.653 216.564C352.317 216.564 352.049 216.616 351.849 216.72C351.657 216.824 351.521 217.012 351.441 217.284C351.361 217.556 351.321 217.936 351.321 218.424ZM359.67 224.844V215.568H360.906L361.158 216.204C361.382 216.028 361.658 215.864 361.986 215.712C362.322 215.56 362.678 215.484 363.054 215.484C363.598 215.484 364.038 215.624 364.374 215.904C364.71 216.184 364.954 216.572 365.106 217.068C365.266 217.564 365.346 218.136 365.346 218.784C365.346 219.84 365.174 220.656 364.83 221.232C364.494 221.8 363.902 222.084 363.054 222.084C362.734 222.084 362.406 222.044 362.07 221.964C361.742 221.876 361.438 221.752 361.158 221.592V224.844H359.67ZM362.586 220.86C362.818 220.86 363.03 220.8 363.222 220.68C363.414 220.56 363.566 220.352 363.678 220.056C363.798 219.752 363.858 219.328 363.858 218.784C363.858 218.256 363.802 217.84 363.69 217.536C363.578 217.232 363.426 217.016 363.234 216.888C363.042 216.752 362.83 216.684 362.598 216.684C362.302 216.684 362.03 216.732 361.782 216.828C361.542 216.916 361.334 217.008 361.158 217.104V220.464C361.358 220.584 361.582 220.68 361.83 220.752C362.086 220.824 362.338 220.86 362.586 220.86ZM368.526 222.072C367.934 222.072 367.474 221.908 367.146 221.58C366.818 221.244 366.654 220.756 366.654 220.116V215.568H368.142V219.684C368.142 220.108 368.238 220.392 368.43 220.536C368.622 220.68 368.89 220.752 369.234 220.752C369.514 220.752 369.782 220.708 370.038 220.62C370.302 220.532 370.554 220.404 370.794 220.236V215.568H372.282V222H371.07L370.794 221.328C370.49 221.52 370.142 221.692 369.75 221.844C369.366 221.996 368.958 222.072 368.526 222.072ZM375.687 222.024C375.055 222.024 374.579 221.864 374.259 221.544C373.939 221.216 373.779 220.676 373.779 219.924V212.844H375.267V219.72C375.267 220.152 375.331 220.444 375.459 220.596C375.587 220.748 375.775 220.84 376.023 220.872L376.563 220.944V222.024H375.687ZM379.355 222.024C378.723 222.024 378.247 221.864 377.927 221.544C377.607 221.216 377.447 220.676 377.447 219.924V212.844H378.935V219.72C378.935 220.152 378.999 220.444 379.127 220.596C379.255 220.748 379.443 220.84 379.691 220.872L380.231 220.944V222.024H379.355ZM328.434 238V231.568H329.586L329.922 232.6C330.178 232.288 330.462 232.024 330.774 231.808C331.094 231.592 331.466 231.484 331.89 231.484C331.978 231.484 332.07 231.492 332.166 231.508C332.262 231.516 332.35 231.532 332.43 231.556V233.068C332.318 233.06 332.198 233.052 332.07 233.044C331.942 233.028 331.818 233.02 331.698 233.02C331.314 233.02 330.986 233.084 330.714 233.212C330.442 233.34 330.178 233.536 329.922 233.8V238H328.434ZM336.089 238.06C335.393 238.06 334.837 237.964 334.421 237.772C334.013 237.58 333.717 237.248 333.533 236.776C333.357 236.296 333.269 235.632 333.269 234.784C333.269 233.92 333.353 233.248 333.521 232.768C333.697 232.288 333.989 231.956 334.397 231.772C334.805 231.58 335.357 231.484 336.053 231.484C336.661 231.484 337.153 231.548 337.529 231.676C337.905 231.796 338.177 232.016 338.345 232.336C338.521 232.656 338.609 233.1 338.609 233.668C338.609 234.292 338.429 234.724 338.069 234.964C337.709 235.204 337.225 235.324 336.617 235.324H334.733C334.749 235.724 334.801 236.044 334.889 236.284C334.985 236.516 335.153 236.684 335.393 236.788C335.641 236.892 336.001 236.944 336.473 236.944H338.417V237.82C338.089 237.884 337.741 237.94 337.373 237.988C337.013 238.036 336.585 238.06 336.089 238.06ZM334.721 234.424H336.473C336.753 234.424 336.957 234.372 337.085 234.268C337.221 234.156 337.289 233.956 337.289 233.668C337.289 233.252 337.193 232.964 337.001 232.804C336.817 232.644 336.501 232.564 336.053 232.564C335.717 232.564 335.449 232.616 335.249 232.72C335.057 232.824 334.921 233.012 334.841 233.284C334.761 233.556 334.721 233.936 334.721 234.424ZM343.914 240.844V237.376C343.658 237.568 343.362 237.732 343.026 237.868C342.698 238.004 342.374 238.072 342.054 238.072C341.19 238.072 340.586 237.804 340.242 237.268C339.906 236.732 339.738 235.904 339.738 234.784C339.738 233.592 339.934 232.744 340.326 232.24C340.718 231.736 341.334 231.484 342.174 231.484C342.742 231.484 343.322 231.508 343.914 231.556C344.506 231.604 345.002 231.652 345.402 231.7V240.844H343.914ZM342.474 236.872C342.714 236.872 342.962 236.832 343.218 236.752C343.474 236.672 343.706 236.572 343.914 236.452V232.6H342.606C342.078 232.6 341.714 232.784 341.514 233.152C341.314 233.512 341.214 234.04 341.214 234.736C341.214 235.28 341.254 235.708 341.334 236.02C341.422 236.332 341.558 236.552 341.742 236.68C341.926 236.808 342.17 236.872 342.474 236.872ZM348.751 238.072C348.159 238.072 347.699 237.908 347.371 237.58C347.043 237.244 346.879 236.756 346.879 236.116V231.568H348.367V235.684C348.367 236.108 348.463 236.392 348.655 236.536C348.847 236.68 349.115 236.752 349.459 236.752C349.739 236.752 350.007 236.708 350.263 236.62C350.527 236.532 350.779 236.404 351.019 236.236V231.568H352.507V238H351.295L351.019 237.328C350.715 237.52 350.367 237.692 349.975 237.844C349.591 237.996 349.183 238.072 348.751 238.072ZM356.632 238.06C355.936 238.06 355.38 237.964 354.964 237.772C354.556 237.58 354.26 237.248 354.076 236.776C353.9 236.296 353.812 235.632 353.812 234.784C353.812 233.92 353.896 233.248 354.064 232.768C354.24 232.288 354.532 231.956 354.94 231.772C355.348 231.58 355.9 231.484 356.596 231.484C357.204 231.484 357.696 231.548 358.072 231.676C358.448 231.796 358.72 232.016 358.888 232.336C359.064 232.656 359.152 233.1 359.152 233.668C359.152 234.292 358.972 234.724 358.612 234.964C358.252 235.204 357.768 235.324 357.16 235.324H355.276C355.292 235.724 355.344 236.044 355.432 236.284C355.528 236.516 355.696 236.684 355.936 236.788C356.184 236.892 356.544 236.944 357.016 236.944H358.96V237.82C358.632 237.884 358.284 237.94 357.916 237.988C357.556 238.036 357.128 238.06 356.632 238.06ZM355.264 234.424H357.016C357.296 234.424 357.5 234.372 357.628 234.268C357.764 234.156 357.832 233.956 357.832 233.668C357.832 233.252 357.736 232.964 357.544 232.804C357.36 232.644 357.044 232.564 356.596 232.564C356.26 232.564 355.992 232.616 355.792 232.72C355.6 232.824 355.464 233.012 355.384 233.284C355.304 233.556 355.264 233.936 355.264 234.424ZM362.777 238.072C362.529 238.072 362.241 238.06 361.913 238.036C361.593 238.02 361.285 237.996 360.989 237.964C360.693 237.924 360.461 237.876 360.293 237.82V236.944H363.065C363.361 236.944 363.589 236.904 363.749 236.824C363.917 236.744 364.001 236.56 364.001 236.272V236.044C364.001 235.844 363.933 235.688 363.797 235.576C363.661 235.456 363.433 235.396 363.113 235.396H362.141C361.765 235.396 361.429 235.344 361.133 235.24C360.845 235.136 360.617 234.96 360.449 234.712C360.281 234.464 360.197 234.128 360.197 233.704V233.344C360.197 232.736 360.377 232.28 360.737 231.976C361.105 231.664 361.749 231.508 362.669 231.508C362.917 231.508 363.189 231.52 363.485 231.544C363.789 231.568 364.077 231.6 364.349 231.64C364.621 231.68 364.837 231.72 364.997 231.76V232.636H362.381C362.085 232.636 361.857 232.688 361.697 232.792C361.545 232.888 361.469 233.072 361.469 233.344V233.572C361.469 233.836 361.549 234.008 361.709 234.088C361.877 234.16 362.113 234.196 362.417 234.196H363.413C364.045 234.196 364.513 234.344 364.817 234.64C365.121 234.928 365.273 235.332 365.273 235.852V236.38C365.273 237.028 365.053 237.472 364.613 237.712C364.173 237.952 363.561 238.072 362.777 238.072ZM368.848 238C368.152 238 367.644 237.836 367.324 237.508C367.004 237.18 366.856 236.608 366.88 235.792L366.928 232.768H365.92V231.808L366.976 231.568L367.192 229.768H368.356V231.568H369.988V232.768H368.356V235.78C368.356 236.06 368.392 236.272 368.464 236.416C368.536 236.56 368.632 236.664 368.752 236.728C368.872 236.784 368.992 236.816 369.112 236.824L369.916 236.908V238H368.848Z" fill="white"/>
<rect x="149.5" y="1.5" width="104" height="75" rx="2.5" fill="url(#paint4_linear)" stroke="#00ABFE" stroke-width="3"/>
<path d="M179.484 27.072C179.236 27.072 178.948 27.06 178.62 27.036C178.3 27.02 177.992 26.996 177.696 26.964C177.4 26.924 177.168 26.876 177 26.82V25.944H179.772C180.068 25.944 180.296 25.904 180.456 25.824C180.624 25.744 180.708 25.56 180.708 25.272V25.044C180.708 24.844 180.64 24.688 180.504 24.576C180.368 24.456 180.14 24.396 179.82 24.396H178.848C178.472 24.396 178.136 24.344 177.84 24.24C177.552 24.136 177.324 23.96 177.156 23.712C176.988 23.464 176.904 23.128 176.904 22.704V22.344C176.904 21.736 177.084 21.28 177.444 20.976C177.812 20.664 178.456 20.508 179.376 20.508C179.624 20.508 179.896 20.52 180.192 20.544C180.496 20.568 180.784 20.6 181.056 20.64C181.328 20.68 181.544 20.72 181.704 20.76V21.636H179.088C178.792 21.636 178.564 21.688 178.404 21.792C178.252 21.888 178.176 22.072 178.176 22.344V22.572C178.176 22.836 178.256 23.008 178.416 23.088C178.584 23.16 178.82 23.196 179.124 23.196H180.12C180.752 23.196 181.22 23.344 181.524 23.64C181.828 23.928 181.98 24.332 181.98 24.852V25.38C181.98 26.028 181.76 26.472 181.32 26.712C180.88 26.952 180.268 27.072 179.484 27.072ZM185.903 27.06C185.223 27.06 184.671 26.964 184.247 26.772C183.823 26.58 183.511 26.244 183.311 25.764C183.119 25.284 183.023 24.62 183.023 23.772C183.023 22.884 183.123 22.204 183.323 21.732C183.523 21.252 183.835 20.924 184.259 20.748C184.683 20.572 185.231 20.484 185.903 20.484C186.583 20.484 187.135 20.576 187.559 20.76C187.991 20.944 188.307 21.276 188.507 21.756C188.707 22.228 188.807 22.9 188.807 23.772C188.807 24.636 188.707 25.308 188.507 25.788C188.315 26.26 188.007 26.592 187.583 26.784C187.159 26.968 186.599 27.06 185.903 27.06ZM185.903 25.872C186.223 25.872 186.487 25.828 186.695 25.74C186.911 25.652 187.067 25.46 187.163 25.164C187.267 24.86 187.319 24.392 187.319 23.76C187.319 23.136 187.267 22.676 187.163 22.38C187.067 22.084 186.911 21.892 186.695 21.804C186.487 21.716 186.223 21.672 185.903 21.672C185.583 21.672 185.319 21.716 185.111 21.804C184.911 21.892 184.759 22.084 184.655 22.38C184.551 22.676 184.499 23.136 184.499 23.76C184.499 24.392 184.551 24.86 184.655 25.164C184.759 25.46 184.911 25.652 185.111 25.74C185.319 25.828 185.583 25.872 185.903 25.872ZM190.129 27V20.568H191.341L191.617 21.24C191.913 21.032 192.237 20.852 192.589 20.7C192.949 20.54 193.373 20.46 193.861 20.46C194.261 20.46 194.597 20.548 194.869 20.724C195.141 20.9 195.349 21.12 195.493 21.384C195.677 21.248 195.901 21.108 196.165 20.964C196.429 20.82 196.705 20.7 196.993 20.604C197.289 20.508 197.581 20.46 197.869 20.46C198.365 20.46 198.761 20.56 199.057 20.76C199.353 20.952 199.565 21.224 199.693 21.576C199.829 21.92 199.897 22.32 199.897 22.776V27H198.409V22.896C198.409 22.552 198.313 22.284 198.121 22.092C197.929 21.9 197.669 21.804 197.341 21.804C197.053 21.804 196.761 21.86 196.465 21.972C196.177 22.084 195.913 22.22 195.673 22.38C195.729 22.564 195.757 22.748 195.757 22.932V27H194.269V22.896C194.269 22.552 194.173 22.284 193.981 22.092C193.789 21.9 193.529 21.804 193.201 21.804C192.889 21.804 192.609 21.852 192.361 21.948C192.113 22.044 191.865 22.172 191.617 22.332V27H190.129ZM203.995 27.06C203.299 27.06 202.743 26.964 202.327 26.772C201.919 26.58 201.623 26.248 201.439 25.776C201.263 25.296 201.175 24.632 201.175 23.784C201.175 22.92 201.259 22.248 201.427 21.768C201.603 21.288 201.895 20.956 202.303 20.772C202.711 20.58 203.263 20.484 203.959 20.484C204.567 20.484 205.059 20.548 205.435 20.676C205.811 20.796 206.083 21.016 206.251 21.336C206.427 21.656 206.515 22.1 206.515 22.668C206.515 23.292 206.335 23.724 205.975 23.964C205.615 24.204 205.131 24.324 204.523 24.324H202.639C202.655 24.724 202.707 25.044 202.795 25.284C202.891 25.516 203.059 25.684 203.299 25.788C203.547 25.892 203.907 25.944 204.379 25.944H206.323V26.82C205.995 26.884 205.647 26.94 205.279 26.988C204.919 27.036 204.491 27.06 203.995 27.06ZM202.627 23.424H204.379C204.659 23.424 204.863 23.372 204.991 23.268C205.127 23.156 205.195 22.956 205.195 22.668C205.195 22.252 205.099 21.964 204.907 21.804C204.723 21.644 204.407 21.564 203.959 21.564C203.623 21.564 203.355 21.616 203.155 21.72C202.963 21.824 202.827 22.012 202.747 22.284C202.667 22.556 202.627 22.936 202.627 23.424ZM210.524 27.06C209.844 27.06 209.292 26.964 208.868 26.772C208.444 26.58 208.132 26.244 207.932 25.764C207.74 25.284 207.644 24.62 207.644 23.772C207.644 22.884 207.744 22.204 207.944 21.732C208.144 21.252 208.456 20.924 208.88 20.748C209.304 20.572 209.852 20.484 210.524 20.484C211.204 20.484 211.756 20.576 212.18 20.76C212.612 20.944 212.928 21.276 213.128 21.756C213.328 22.228 213.428 22.9 213.428 23.772C213.428 24.636 213.328 25.308 213.128 25.788C212.936 26.26 212.628 26.592 212.204 26.784C211.78 26.968 211.22 27.06 210.524 27.06ZM210.524 25.872C210.844 25.872 211.108 25.828 211.316 25.74C211.532 25.652 211.688 25.46 211.784 25.164C211.888 24.86 211.94 24.392 211.94 23.76C211.94 23.136 211.888 22.676 211.784 22.38C211.688 22.084 211.532 21.892 211.316 21.804C211.108 21.716 210.844 21.672 210.524 21.672C210.204 21.672 209.94 21.716 209.732 21.804C209.532 21.892 209.38 22.084 209.276 22.38C209.172 22.676 209.12 23.136 209.12 23.76C209.12 24.392 209.172 24.86 209.276 25.164C209.38 25.46 209.532 25.652 209.732 25.74C209.94 25.828 210.204 25.872 210.524 25.872ZM214.75 27V20.568H215.962L216.238 21.24C216.502 21.04 216.822 20.86 217.198 20.7C217.582 20.54 217.978 20.46 218.386 20.46C218.89 20.46 219.286 20.564 219.574 20.772C219.862 20.98 220.066 21.256 220.186 21.6C220.314 21.936 220.378 22.308 220.378 22.716V27H218.89V22.896C218.89 22.552 218.794 22.284 218.602 22.092C218.41 21.9 218.15 21.804 217.822 21.804C217.51 21.804 217.23 21.852 216.982 21.948C216.734 22.044 216.486 22.172 216.238 22.332V27H214.75ZM224.491 27.06C223.795 27.06 223.239 26.964 222.823 26.772C222.415 26.58 222.119 26.248 221.935 25.776C221.759 25.296 221.671 24.632 221.671 23.784C221.671 22.92 221.755 22.248 221.923 21.768C222.099 21.288 222.391 20.956 222.799 20.772C223.207 20.58 223.759 20.484 224.455 20.484C225.063 20.484 225.555 20.548 225.931 20.676C226.307 20.796 226.579 21.016 226.747 21.336C226.923 21.656 227.011 22.1 227.011 22.668C227.011 23.292 226.831 23.724 226.471 23.964C226.111 24.204 225.627 24.324 225.019 24.324H223.135C223.151 24.724 223.203 25.044 223.291 25.284C223.387 25.516 223.555 25.684 223.795 25.788C224.043 25.892 224.403 25.944 224.875 25.944H226.819V26.82C226.491 26.884 226.143 26.94 225.775 26.988C225.415 27.036 224.987 27.06 224.491 27.06ZM223.123 23.424H224.875C225.155 23.424 225.359 23.372 225.487 23.268C225.623 23.156 225.691 22.956 225.691 22.668C225.691 22.252 225.595 21.964 225.403 21.804C225.219 21.644 224.903 21.564 224.455 21.564C224.119 21.564 223.851 21.616 223.651 21.72C223.459 21.824 223.323 22.012 223.243 22.284C223.163 22.556 223.123 22.936 223.123 23.424ZM167.589 43.072C167.341 43.072 167.053 43.06 166.725 43.036C166.405 43.02 166.097 42.996 165.801 42.964C165.505 42.924 165.273 42.876 165.105 42.82V41.944H167.877C168.173 41.944 168.401 41.904 168.561 41.824C168.729 41.744 168.813 41.56 168.813 41.272V41.044C168.813 40.844 168.745 40.688 168.609 40.576C168.473 40.456 168.245 40.396 167.925 40.396H166.953C166.577 40.396 166.241 40.344 165.945 40.24C165.657 40.136 165.429 39.96 165.261 39.712C165.093 39.464 165.009 39.128 165.009 38.704V38.344C165.009 37.736 165.189 37.28 165.549 36.976C165.917 36.664 166.561 36.508 167.481 36.508C167.729 36.508 168.001 36.52 168.297 36.544C168.601 36.568 168.889 36.6 169.161 36.64C169.433 36.68 169.649 36.72 169.809 36.76V37.636H167.193C166.897 37.636 166.669 37.688 166.509 37.792C166.357 37.888 166.281 38.072 166.281 38.344V38.572C166.281 38.836 166.361 39.008 166.521 39.088C166.689 39.16 166.925 39.196 167.229 39.196H168.225C168.857 39.196 169.325 39.344 169.629 39.64C169.933 39.928 170.085 40.332 170.085 40.852V41.38C170.085 42.028 169.865 42.472 169.425 42.712C168.985 42.952 168.373 43.072 167.589 43.072ZM171.32 45.844V36.568H172.556L172.808 37.204C173.032 37.028 173.308 36.864 173.636 36.712C173.972 36.56 174.328 36.484 174.704 36.484C175.248 36.484 175.688 36.624 176.024 36.904C176.36 37.184 176.604 37.572 176.756 38.068C176.916 38.564 176.996 39.136 176.996 39.784C176.996 40.84 176.824 41.656 176.48 42.232C176.144 42.8 175.552 43.084 174.704 43.084C174.384 43.084 174.056 43.044 173.72 42.964C173.392 42.876 173.088 42.752 172.808 42.592V45.844H171.32ZM174.236 41.86C174.468 41.86 174.68 41.8 174.872 41.68C175.064 41.56 175.216 41.352 175.328 41.056C175.448 40.752 175.508 40.328 175.508 39.784C175.508 39.256 175.452 38.84 175.34 38.536C175.228 38.232 175.076 38.016 174.884 37.888C174.692 37.752 174.48 37.684 174.248 37.684C173.952 37.684 173.68 37.732 173.432 37.828C173.192 37.916 172.984 38.008 172.808 38.104V41.464C173.008 41.584 173.232 41.68 173.48 41.752C173.736 41.824 173.988 41.86 174.236 41.86ZM181.005 43.06C180.325 43.06 179.773 42.964 179.349 42.772C178.925 42.58 178.613 42.244 178.413 41.764C178.221 41.284 178.125 40.62 178.125 39.772C178.125 38.884 178.225 38.204 178.425 37.732C178.625 37.252 178.937 36.924 179.361 36.748C179.785 36.572 180.333 36.484 181.005 36.484C181.685 36.484 182.237 36.576 182.661 36.76C183.093 36.944 183.409 37.276 183.609 37.756C183.809 38.228 183.909 38.9 183.909 39.772C183.909 40.636 183.809 41.308 183.609 41.788C183.417 42.26 183.109 42.592 182.685 42.784C182.261 42.968 181.701 43.06 181.005 43.06ZM181.005 41.872C181.325 41.872 181.589 41.828 181.797 41.74C182.013 41.652 182.169 41.46 182.265 41.164C182.369 40.86 182.421 40.392 182.421 39.76C182.421 39.136 182.369 38.676 182.265 38.38C182.169 38.084 182.013 37.892 181.797 37.804C181.589 37.716 181.325 37.672 181.005 37.672C180.685 37.672 180.421 37.716 180.213 37.804C180.013 37.892 179.861 38.084 179.757 38.38C179.653 38.676 179.601 39.136 179.601 39.76C179.601 40.392 179.653 40.86 179.757 41.164C179.861 41.46 180.013 41.652 180.213 41.74C180.421 41.828 180.685 41.872 181.005 41.872ZM185.231 43V36.568H186.443L186.719 37.24C186.983 37.04 187.303 36.86 187.679 36.7C188.063 36.54 188.459 36.46 188.867 36.46C189.371 36.46 189.767 36.564 190.055 36.772C190.343 36.98 190.547 37.256 190.667 37.6C190.795 37.936 190.859 38.308 190.859 38.716V43H189.371V38.896C189.371 38.552 189.275 38.284 189.083 38.092C188.891 37.9 188.631 37.804 188.303 37.804C187.991 37.804 187.711 37.852 187.463 37.948C187.215 38.044 186.967 38.172 186.719 38.332V43H185.231ZM194.648 43.072C194.4 43.072 194.112 43.06 193.784 43.036C193.464 43.02 193.156 42.996 192.86 42.964C192.564 42.924 192.332 42.876 192.164 42.82V41.944H194.936C195.232 41.944 195.46 41.904 195.62 41.824C195.788 41.744 195.872 41.56 195.872 41.272V41.044C195.872 40.844 195.804 40.688 195.668 40.576C195.532 40.456 195.304 40.396 194.984 40.396H194.012C193.636 40.396 193.3 40.344 193.004 40.24C192.716 40.136 192.488 39.96 192.32 39.712C192.152 39.464 192.068 39.128 192.068 38.704V38.344C192.068 37.736 192.248 37.28 192.608 36.976C192.976 36.664 193.62 36.508 194.54 36.508C194.788 36.508 195.06 36.52 195.356 36.544C195.66 36.568 195.948 36.6 196.22 36.64C196.492 36.68 196.708 36.72 196.868 36.76V37.636H194.252C193.956 37.636 193.728 37.688 193.568 37.792C193.416 37.888 193.34 38.072 193.34 38.344V38.572C193.34 38.836 193.42 39.008 193.58 39.088C193.748 39.16 193.984 39.196 194.288 39.196H195.284C195.916 39.196 196.384 39.344 196.688 39.64C196.992 39.928 197.144 40.332 197.144 40.852V41.38C197.144 42.028 196.924 42.472 196.484 42.712C196.044 42.952 195.432 43.072 194.648 43.072ZM201.067 43.06C200.387 43.06 199.835 42.964 199.411 42.772C198.987 42.58 198.675 42.244 198.475 41.764C198.283 41.284 198.187 40.62 198.187 39.772C198.187 38.884 198.287 38.204 198.487 37.732C198.687 37.252 198.999 36.924 199.423 36.748C199.847 36.572 200.395 36.484 201.067 36.484C201.747 36.484 202.299 36.576 202.723 36.76C203.155 36.944 203.471 37.276 203.671 37.756C203.871 38.228 203.971 38.9 203.971 39.772C203.971 40.636 203.871 41.308 203.671 41.788C203.479 42.26 203.171 42.592 202.747 42.784C202.323 42.968 201.763 43.06 201.067 43.06ZM201.067 41.872C201.387 41.872 201.651 41.828 201.859 41.74C202.075 41.652 202.231 41.46 202.327 41.164C202.431 40.86 202.483 40.392 202.483 39.76C202.483 39.136 202.431 38.676 202.327 38.38C202.231 38.084 202.075 37.892 201.859 37.804C201.651 37.716 201.387 37.672 201.067 37.672C200.747 37.672 200.483 37.716 200.275 37.804C200.075 37.892 199.923 38.084 199.819 38.38C199.715 38.676 199.663 39.136 199.663 39.76C199.663 40.392 199.715 40.86 199.819 41.164C199.923 41.46 200.075 41.652 200.275 41.74C200.483 41.828 200.747 41.872 201.067 41.872ZM205.293 43V36.568H206.445L206.781 37.6C207.037 37.288 207.321 37.024 207.633 36.808C207.953 36.592 208.325 36.484 208.749 36.484C208.837 36.484 208.929 36.492 209.025 36.508C209.121 36.516 209.209 36.532 209.289 36.556V38.068C209.177 38.06 209.057 38.052 208.929 38.044C208.801 38.028 208.677 38.02 208.557 38.02C208.173 38.02 207.845 38.084 207.573 38.212C207.301 38.34 207.037 38.536 206.781 38.8V43H205.293ZM212.624 43.072C212.376 43.072 212.088 43.06 211.76 43.036C211.44 43.02 211.132 42.996 210.836 42.964C210.54 42.924 210.308 42.876 210.14 42.82V41.944H212.912C213.208 41.944 213.436 41.904 213.596 41.824C213.764 41.744 213.848 41.56 213.848 41.272V41.044C213.848 40.844 213.78 40.688 213.644 40.576C213.508 40.456 213.28 40.396 212.96 40.396H211.988C211.612 40.396 211.276 40.344 210.98 40.24C210.692 40.136 210.464 39.96 210.296 39.712C210.128 39.464 210.044 39.128 210.044 38.704V38.344C210.044 37.736 210.224 37.28 210.584 36.976C210.952 36.664 211.596 36.508 212.516 36.508C212.764 36.508 213.036 36.52 213.332 36.544C213.636 36.568 213.924 36.6 214.196 36.64C214.468 36.68 214.684 36.72 214.844 36.76V37.636H212.228C211.932 37.636 211.704 37.688 211.544 37.792C211.392 37.888 211.316 38.072 211.316 38.344V38.572C211.316 38.836 211.396 39.008 211.556 39.088C211.724 39.16 211.96 39.196 212.264 39.196H213.26C213.892 39.196 214.36 39.344 214.664 39.64C214.968 39.928 215.12 40.332 215.12 40.852V41.38C215.12 42.028 214.9 42.472 214.46 42.712C214.02 42.952 213.408 43.072 212.624 43.072ZM221.836 43C221.14 43 220.632 42.836 220.312 42.508C219.992 42.18 219.844 41.608 219.868 40.792L219.916 37.768H218.908V36.808L219.964 36.568L220.18 34.768H221.344V36.568H222.976V37.768H221.344V40.78C221.344 41.06 221.38 41.272 221.452 41.416C221.524 41.56 221.62 41.664 221.74 41.728C221.86 41.784 221.98 41.816 222.1 41.824L222.904 41.908V43H221.836ZM224.067 43V33.856H225.555V37.24C225.803 37.048 226.123 36.872 226.515 36.712C226.907 36.544 227.307 36.46 227.715 36.46C228.187 36.46 228.567 36.56 228.855 36.76C229.151 36.952 229.363 37.216 229.491 37.552C229.627 37.888 229.695 38.272 229.695 38.704V43H228.207V38.884C228.207 38.548 228.107 38.284 227.907 38.092C227.715 37.9 227.459 37.804 227.139 37.804C226.827 37.804 226.547 37.852 226.299 37.948C226.051 38.044 225.803 38.172 225.555 38.332V43H224.067ZM231.372 35.548C231.22 35.548 231.144 35.476 231.144 35.332V34.24C231.144 34.08 231.22 34 231.372 34H232.5C232.644 34 232.716 34.08 232.716 34.24V35.332C232.716 35.476 232.644 35.548 232.5 35.548H231.372ZM231.18 43V36.568H232.668V43H231.18ZM236.496 43.072C236.248 43.072 235.96 43.06 235.632 43.036C235.312 43.02 235.004 42.996 234.708 42.964C234.412 42.924 234.18 42.876 234.012 42.82V41.944H236.784C237.08 41.944 237.308 41.904 237.468 41.824C237.636 41.744 237.72 41.56 237.72 41.272V41.044C237.72 40.844 237.652 40.688 237.516 40.576C237.38 40.456 237.152 40.396 236.832 40.396H235.86C235.484 40.396 235.148 40.344 234.852 40.24C234.564 40.136 234.336 39.96 234.168 39.712C234 39.464 233.916 39.128 233.916 38.704V38.344C233.916 37.736 234.096 37.28 234.456 36.976C234.824 36.664 235.468 36.508 236.388 36.508C236.636 36.508 236.908 36.52 237.204 36.544C237.508 36.568 237.796 36.6 238.068 36.64C238.34 36.68 238.556 36.72 238.716 36.76V37.636H236.1C235.804 37.636 235.576 37.688 235.416 37.792C235.264 37.888 235.188 38.072 235.188 38.344V38.572C235.188 38.836 235.268 39.008 235.428 39.088C235.596 39.16 235.832 39.196 236.136 39.196H237.132C237.764 39.196 238.232 39.344 238.536 39.64C238.84 39.928 238.992 40.332 238.992 40.852V41.38C238.992 42.028 238.772 42.472 238.332 42.712C237.892 42.952 237.28 43.072 236.496 43.072ZM182.762 59V53.768H181.826V52.808L182.762 52.568V52.028C182.762 51.26 182.914 50.692 183.218 50.324C183.522 49.956 184.05 49.772 184.802 49.772C185.074 49.772 185.318 49.792 185.534 49.832C185.758 49.864 185.946 49.896 186.098 49.928V50.984H185.078C184.75 50.984 184.53 51.064 184.418 51.224C184.306 51.384 184.25 51.628 184.25 51.956V52.568H186.014V53.768H184.25V59H182.762ZM189.575 59.06C188.879 59.06 188.323 58.964 187.907 58.772C187.499 58.58 187.203 58.248 187.019 57.776C186.843 57.296 186.755 56.632 186.755 55.784C186.755 54.92 186.839 54.248 187.007 53.768C187.183 53.288 187.475 52.956 187.883 52.772C188.291 52.58 188.843 52.484 189.539 52.484C190.147 52.484 190.639 52.548 191.015 52.676C191.391 52.796 191.663 53.016 191.831 53.336C192.007 53.656 192.095 54.1 192.095 54.668C192.095 55.292 191.915 55.724 191.555 55.964C191.195 56.204 190.711 56.324 190.103 56.324H188.219C188.235 56.724 188.287 57.044 188.375 57.284C188.471 57.516 188.639 57.684 188.879 57.788C189.127 57.892 189.487 57.944 189.959 57.944H191.903V58.82C191.575 58.884 191.227 58.94 190.859 58.988C190.499 59.036 190.071 59.06 189.575 59.06ZM188.207 55.424H189.959C190.239 55.424 190.443 55.372 190.571 55.268C190.707 55.156 190.775 54.956 190.775 54.668C190.775 54.252 190.679 53.964 190.487 53.804C190.303 53.644 189.987 53.564 189.539 53.564C189.203 53.564 188.935 53.616 188.735 53.72C188.543 53.824 188.407 54.012 188.327 54.284C188.247 54.556 188.207 54.936 188.207 55.424ZM194.748 59.072C194.268 59.072 193.876 58.928 193.572 58.64C193.268 58.352 193.116 57.956 193.116 57.452V56.912C193.116 56.416 193.284 56.012 193.62 55.7C193.964 55.388 194.488 55.232 195.192 55.232H197.028V54.668C197.028 54.444 196.988 54.256 196.908 54.104C196.836 53.952 196.692 53.84 196.476 53.768C196.26 53.688 195.944 53.648 195.528 53.648H193.584V52.784C193.888 52.704 194.236 52.636 194.628 52.58C195.028 52.516 195.504 52.484 196.056 52.484C196.856 52.476 197.464 52.628 197.88 52.94C198.304 53.244 198.516 53.788 198.516 54.572V59H197.352L197.1 58.304C197.036 58.36 196.884 58.452 196.644 58.58C196.412 58.7 196.128 58.812 195.792 58.916C195.456 59.02 195.108 59.072 194.748 59.072ZM195.468 58.028C195.644 58.028 195.848 58 196.08 57.944C196.32 57.88 196.532 57.816 196.716 57.752C196.9 57.68 197.004 57.636 197.028 57.62V55.94L195.636 56.012C195.268 56.044 195 56.14 194.832 56.3C194.672 56.46 194.592 56.672 194.592 56.936V57.2C194.592 57.504 194.68 57.716 194.856 57.836C195.04 57.956 195.244 58.02 195.468 58.028ZM202.33 59C201.634 59 201.126 58.836 200.806 58.508C200.486 58.18 200.338 57.608 200.362 56.792L200.41 53.768H199.402V52.808L200.458 52.568L200.674 50.768H201.838V52.568H203.47V53.768H201.838V56.78C201.838 57.06 201.874 57.272 201.946 57.416C202.018 57.56 202.114 57.664 202.234 57.728C202.354 57.784 202.474 57.816 202.594 57.824L203.398 57.908V59H202.33ZM206.421 59.072C205.829 59.072 205.369 58.908 205.041 58.58C204.713 58.244 204.549 57.756 204.549 57.116V52.568H206.037V56.684C206.037 57.108 206.133 57.392 206.325 57.536C206.517 57.68 206.785 57.752 207.129 57.752C207.409 57.752 207.677 57.708 207.933 57.62C208.197 57.532 208.449 57.404 208.689 57.236V52.568H210.177V59H208.965L208.689 58.328C208.385 58.52 208.037 58.692 207.645 58.844C207.261 58.996 206.853 59.072 206.421 59.072ZM211.674 59V52.568H212.826L213.162 53.6C213.418 53.288 213.702 53.024 214.014 52.808C214.334 52.592 214.706 52.484 215.13 52.484C215.218 52.484 215.31 52.492 215.406 52.508C215.502 52.516 215.59 52.532 215.67 52.556V54.068C215.558 54.06 215.438 54.052 215.31 54.044C215.182 54.028 215.058 54.02 214.938 54.02C214.554 54.02 214.226 54.084 213.954 54.212C213.682 54.34 213.418 54.536 213.162 54.8V59H211.674ZM219.329 59.06C218.633 59.06 218.077 58.964 217.661 58.772C217.253 58.58 216.957 58.248 216.773 57.776C216.597 57.296 216.509 56.632 216.509 55.784C216.509 54.92 216.593 54.248 216.761 53.768C216.937 53.288 217.229 52.956 217.637 52.772C218.045 52.58 218.597 52.484 219.293 52.484C219.901 52.484 220.393 52.548 220.769 52.676C221.145 52.796 221.417 53.016 221.585 53.336C221.761 53.656 221.849 54.1 221.849 54.668C221.849 55.292 221.669 55.724 221.309 55.964C220.949 56.204 220.465 56.324 219.857 56.324H217.973C217.989 56.724 218.041 57.044 218.129 57.284C218.225 57.516 218.393 57.684 218.633 57.788C218.881 57.892 219.241 57.944 219.713 57.944H221.657V58.82C221.329 58.884 220.981 58.94 220.613 58.988C220.253 59.036 219.825 59.06 219.329 59.06ZM217.961 55.424H219.713C219.993 55.424 220.197 55.372 220.325 55.268C220.461 55.156 220.529 54.956 220.529 54.668C220.529 54.252 220.433 53.964 220.241 53.804C220.057 53.644 219.741 53.564 219.293 53.564C218.957 53.564 218.689 53.616 218.489 53.72C218.297 53.824 218.161 54.012 218.081 54.284C218.001 54.556 217.961 54.936 217.961 55.424Z" fill="white"/>
<rect x="149.5" y="266.5" width="104" height="75" rx="2.5" fill="url(#paint5_linear)" stroke="#00ABFE" stroke-width="3"/>
<path d="M182.762 292V286.768H181.826V285.808L182.762 285.568V285.028C182.762 284.26 182.914 283.692 183.218 283.324C183.522 282.956 184.05 282.772 184.802 282.772C185.074 282.772 185.318 282.792 185.534 282.832C185.758 282.864 185.946 282.896 186.098 282.928V283.984H185.078C184.75 283.984 184.53 284.064 184.418 284.224C184.306 284.384 184.25 284.628 184.25 284.956V285.568H186.014V286.768H184.25V292H182.762ZM189.575 292.06C188.879 292.06 188.323 291.964 187.907 291.772C187.499 291.58 187.203 291.248 187.019 290.776C186.843 290.296 186.755 289.632 186.755 288.784C186.755 287.92 186.839 287.248 187.007 286.768C187.183 286.288 187.475 285.956 187.883 285.772C188.291 285.58 188.843 285.484 189.539 285.484C190.147 285.484 190.639 285.548 191.015 285.676C191.391 285.796 191.663 286.016 191.831 286.336C192.007 286.656 192.095 287.1 192.095 287.668C192.095 288.292 191.915 288.724 191.555 288.964C191.195 289.204 190.711 289.324 190.103 289.324H188.219C188.235 289.724 188.287 290.044 188.375 290.284C188.471 290.516 188.639 290.684 188.879 290.788C189.127 290.892 189.487 290.944 189.959 290.944H191.903V291.82C191.575 291.884 191.227 291.94 190.859 291.988C190.499 292.036 190.071 292.06 189.575 292.06ZM188.207 288.424H189.959C190.239 288.424 190.443 288.372 190.571 288.268C190.707 288.156 190.775 287.956 190.775 287.668C190.775 287.252 190.679 286.964 190.487 286.804C190.303 286.644 189.987 286.564 189.539 286.564C189.203 286.564 188.935 286.616 188.735 286.72C188.543 286.824 188.407 287.012 188.327 287.284C188.247 287.556 188.207 287.936 188.207 288.424ZM194.748 292.072C194.268 292.072 193.876 291.928 193.572 291.64C193.268 291.352 193.116 290.956 193.116 290.452V289.912C193.116 289.416 193.284 289.012 193.62 288.7C193.964 288.388 194.488 288.232 195.192 288.232H197.028V287.668C197.028 287.444 196.988 287.256 196.908 287.104C196.836 286.952 196.692 286.84 196.476 286.768C196.26 286.688 195.944 286.648 195.528 286.648H193.584V285.784C193.888 285.704 194.236 285.636 194.628 285.58C195.028 285.516 195.504 285.484 196.056 285.484C196.856 285.476 197.464 285.628 197.88 285.94C198.304 286.244 198.516 286.788 198.516 287.572V292H197.352L197.1 291.304C197.036 291.36 196.884 291.452 196.644 291.58C196.412 291.7 196.128 291.812 195.792 291.916C195.456 292.02 195.108 292.072 194.748 292.072ZM195.468 291.028C195.644 291.028 195.848 291 196.08 290.944C196.32 290.88 196.532 290.816 196.716 290.752C196.9 290.68 197.004 290.636 197.028 290.62V288.94L195.636 289.012C195.268 289.044 195 289.14 194.832 289.3C194.672 289.46 194.592 289.672 194.592 289.936V290.2C194.592 290.504 194.68 290.716 194.856 290.836C195.04 290.956 195.244 291.02 195.468 291.028ZM202.33 292C201.634 292 201.126 291.836 200.806 291.508C200.486 291.18 200.338 290.608 200.362 289.792L200.41 286.768H199.402V285.808L200.458 285.568L200.674 283.768H201.838V285.568H203.47V286.768H201.838V289.78C201.838 290.06 201.874 290.272 201.946 290.416C202.018 290.56 202.114 290.664 202.234 290.728C202.354 290.784 202.474 290.816 202.594 290.824L203.398 290.908V292H202.33ZM206.421 292.072C205.829 292.072 205.369 291.908 205.041 291.58C204.713 291.244 204.549 290.756 204.549 290.116V285.568H206.037V289.684C206.037 290.108 206.133 290.392 206.325 290.536C206.517 290.68 206.785 290.752 207.129 290.752C207.409 290.752 207.677 290.708 207.933 290.62C208.197 290.532 208.449 290.404 208.689 290.236V285.568H210.177V292H208.965L208.689 291.328C208.385 291.52 208.037 291.692 207.645 291.844C207.261 291.996 206.853 292.072 206.421 292.072ZM211.674 292V285.568H212.826L213.162 286.6C213.418 286.288 213.702 286.024 214.014 285.808C214.334 285.592 214.706 285.484 215.13 285.484C215.218 285.484 215.31 285.492 215.406 285.508C215.502 285.516 215.59 285.532 215.67 285.556V287.068C215.558 287.06 215.438 287.052 215.31 287.044C215.182 287.028 215.058 287.02 214.938 287.02C214.554 287.02 214.226 287.084 213.954 287.212C213.682 287.34 213.418 287.536 213.162 287.8V292H211.674ZM219.329 292.06C218.633 292.06 218.077 291.964 217.661 291.772C217.253 291.58 216.957 291.248 216.773 290.776C216.597 290.296 216.509 289.632 216.509 288.784C216.509 287.92 216.593 287.248 216.761 286.768C216.937 286.288 217.229 285.956 217.637 285.772C218.045 285.58 218.597 285.484 219.293 285.484C219.901 285.484 220.393 285.548 220.769 285.676C221.145 285.796 221.417 286.016 221.585 286.336C221.761 286.656 221.849 287.1 221.849 287.668C221.849 288.292 221.669 288.724 221.309 288.964C220.949 289.204 220.465 289.324 219.857 289.324H217.973C217.989 289.724 218.041 290.044 218.129 290.284C218.225 290.516 218.393 290.684 218.633 290.788C218.881 290.892 219.241 290.944 219.713 290.944H221.657V291.82C221.329 291.884 220.981 291.94 220.613 291.988C220.253 292.036 219.825 292.06 219.329 292.06ZM217.961 288.424H219.713C219.993 288.424 220.197 288.372 220.325 288.268C220.461 288.156 220.529 287.956 220.529 287.668C220.529 287.252 220.433 286.964 220.241 286.804C220.057 286.644 219.741 286.564 219.293 286.564C218.957 286.564 218.689 286.616 218.489 286.72C218.297 286.824 218.161 287.012 218.081 287.284C218.001 287.556 217.961 287.936 217.961 288.424ZM179.115 308.072C178.635 308.072 178.243 307.928 177.939 307.64C177.635 307.352 177.483 306.956 177.483 306.452V305.912C177.483 305.416 177.651 305.012 177.987 304.7C178.331 304.388 178.855 304.232 179.559 304.232H181.395V303.668C181.395 303.444 181.355 303.256 181.275 303.104C181.203 302.952 181.059 302.84 180.843 302.768C180.627 302.688 180.311 302.648 179.895 302.648H177.951V301.784C178.255 301.704 178.603 301.636 178.995 301.58C179.395 301.516 179.871 301.484 180.423 301.484C181.223 301.476 181.831 301.628 182.247 301.94C182.671 302.244 182.883 302.788 182.883 303.572V308H181.719L181.467 307.304C181.403 307.36 181.251 307.452 181.011 307.58C180.779 307.7 180.495 307.812 180.159 307.916C179.823 308.02 179.475 308.072 179.115 308.072ZM179.835 307.028C180.011 307.028 180.215 307 180.447 306.944C180.687 306.88 180.899 306.816 181.083 306.752C181.267 306.68 181.371 306.636 181.395 306.62V304.94L180.003 305.012C179.635 305.044 179.367 305.14 179.199 305.3C179.039 305.46 178.959 305.672 178.959 305.936V306.2C178.959 306.504 179.047 306.716 179.223 306.836C179.407 306.956 179.611 307.02 179.835 307.028ZM186.026 308L183.782 301.568H185.306L186.914 306.62L188.558 301.568H190.07L187.73 308H186.026ZM192.1 308.072C191.62 308.072 191.228 307.928 190.924 307.64C190.62 307.352 190.468 306.956 190.468 306.452V305.912C190.468 305.416 190.636 305.012 190.972 304.7C191.316 304.388 191.84 304.232 192.544 304.232H194.38V303.668C194.38 303.444 194.34 303.256 194.26 303.104C194.188 302.952 194.044 302.84 193.828 302.768C193.612 302.688 193.296 302.648 192.88 302.648H190.936V301.784C191.24 301.704 191.588 301.636 191.98 301.58C192.38 301.516 192.856 301.484 193.408 301.484C194.208 301.476 194.816 301.628 195.232 301.94C195.656 302.244 195.868 302.788 195.868 303.572V308H194.704L194.452 307.304C194.388 307.36 194.236 307.452 193.996 307.58C193.764 307.7 193.48 307.812 193.144 307.916C192.808 308.02 192.46 308.072 192.1 308.072ZM192.82 307.028C192.996 307.028 193.2 307 193.432 306.944C193.672 306.88 193.884 306.816 194.068 306.752C194.252 306.68 194.356 306.636 194.38 306.62V304.94L192.988 305.012C192.62 305.044 192.352 305.14 192.184 305.3C192.024 305.46 191.944 305.672 191.944 305.936V306.2C191.944 306.504 192.032 306.716 192.208 306.836C192.392 306.956 192.596 307.02 192.82 307.028ZM197.534 300.548C197.382 300.548 197.306 300.476 197.306 300.332V299.24C197.306 299.08 197.382 299 197.534 299H198.662C198.806 299 198.878 299.08 198.878 299.24V300.332C198.878 300.476 198.806 300.548 198.662 300.548H197.534ZM197.342 308V301.568H198.83V308H197.342ZM202.262 308.024C201.63 308.024 201.154 307.864 200.834 307.544C200.514 307.216 200.354 306.676 200.354 305.924V298.844H201.842V305.72C201.842 306.152 201.906 306.444 202.034 306.596C202.162 306.748 202.35 306.84 202.598 306.872L203.138 306.944V308.024H202.262ZM205.354 308.072C204.874 308.072 204.482 307.928 204.178 307.64C203.874 307.352 203.722 306.956 203.722 306.452V305.912C203.722 305.416 203.89 305.012 204.226 304.7C204.57 304.388 205.094 304.232 205.798 304.232H207.634V303.668C207.634 303.444 207.594 303.256 207.514 303.104C207.442 302.952 207.298 302.84 207.082 302.768C206.866 302.688 206.55 302.648 206.134 302.648H204.19V301.784C204.494 301.704 204.842 301.636 205.234 301.58C205.634 301.516 206.11 301.484 206.662 301.484C207.462 301.476 208.07 301.628 208.486 301.94C208.91 302.244 209.122 302.788 209.122 303.572V308H207.958L207.706 307.304C207.642 307.36 207.49 307.452 207.25 307.58C207.018 307.7 206.734 307.812 206.398 307.916C206.062 308.02 205.714 308.072 205.354 308.072ZM206.074 307.028C206.25 307.028 206.454 307 206.686 306.944C206.926 306.88 207.138 306.816 207.322 306.752C207.506 306.68 207.61 306.636 207.634 306.62V304.94L206.242 305.012C205.874 305.044 205.606 305.14 205.438 305.3C205.278 305.46 205.198 305.672 205.198 305.936V306.2C205.198 306.504 205.286 306.716 205.462 306.836C205.646 306.956 205.85 307.02 206.074 307.028ZM214.052 308.072C213.62 308.072 213.244 308 212.924 307.856C212.604 307.712 212.324 307.552 212.084 307.376L211.832 308H210.596V298.844H212.084V302.06C212.356 301.908 212.664 301.776 213.008 301.664C213.36 301.544 213.684 301.484 213.98 301.484C214.788 301.484 215.372 301.744 215.732 302.264C216.092 302.776 216.272 303.636 216.272 304.844C216.272 305.9 216.092 306.704 215.732 307.256C215.38 307.8 214.82 308.072 214.052 308.072ZM213.512 306.86C213.904 306.86 214.212 306.704 214.436 306.392C214.668 306.08 214.784 305.54 214.784 304.772C214.784 304.172 214.728 303.724 214.616 303.428C214.504 303.124 214.352 302.924 214.16 302.828C213.968 302.732 213.752 302.684 213.512 302.684C213.24 302.684 212.984 302.728 212.744 302.816C212.512 302.896 212.292 302.992 212.084 303.104V306.464C212.268 306.56 212.476 306.652 212.708 306.74C212.94 306.82 213.208 306.86 213.512 306.86ZM219.5 308.024C218.868 308.024 218.392 307.864 218.072 307.544C217.752 307.216 217.592 306.676 217.592 305.924V298.844H219.08V305.72C219.08 306.152 219.144 306.444 219.272 306.596C219.4 306.748 219.588 306.84 219.836 306.872L220.376 306.944V308.024H219.5ZM223.888 308.06C223.192 308.06 222.636 307.964 222.22 307.772C221.812 307.58 221.516 307.248 221.332 306.776C221.156 306.296 221.068 305.632 221.068 304.784C221.068 303.92 221.152 303.248 221.32 302.768C221.496 302.288 221.788 301.956 222.196 301.772C222.604 301.58 223.156 301.484 223.852 301.484C224.46 301.484 224.952 301.548 225.328 301.676C225.704 301.796 225.976 302.016 226.144 302.336C226.32 302.656 226.408 303.1 226.408 303.668C226.408 304.292 226.228 304.724 225.868 304.964C225.508 305.204 225.024 305.324 224.416 305.324H222.532C222.548 305.724 222.6 306.044 222.688 306.284C222.784 306.516 222.952 306.684 223.192 306.788C223.44 306.892 223.8 306.944 224.272 306.944H226.216V307.82C225.888 307.884 225.54 307.94 225.172 307.988C224.812 308.036 224.384 308.06 223.888 308.06ZM222.52 304.424H224.272C224.552 304.424 224.756 304.372 224.884 304.268C225.02 304.156 225.088 303.956 225.088 303.668C225.088 303.252 224.992 302.964 224.8 302.804C224.616 302.644 224.3 302.564 223.852 302.564C223.516 302.564 223.248 302.616 223.048 302.72C222.856 302.824 222.72 303.012 222.64 303.284C222.56 303.556 222.52 303.936 222.52 304.424ZM179.719 324C179.023 324 178.515 323.836 178.195 323.508C177.875 323.18 177.727 322.608 177.751 321.792L177.799 318.768H176.791V317.808L177.847 317.568L178.063 315.768H179.227V317.568H180.859V318.768H179.227V321.78C179.227 322.06 179.263 322.272 179.335 322.416C179.407 322.56 179.503 322.664 179.623 322.728C179.743 322.784 179.863 322.816 179.983 322.824L180.787 322.908V324H179.719ZM184.637 324.06C183.957 324.06 183.405 323.964 182.981 323.772C182.557 323.58 182.245 323.244 182.045 322.764C181.853 322.284 181.757 321.62 181.757 320.772C181.757 319.884 181.857 319.204 182.057 318.732C182.257 318.252 182.569 317.924 182.993 317.748C183.417 317.572 183.965 317.484 184.637 317.484C185.317 317.484 185.869 317.576 186.293 317.76C186.725 317.944 187.041 318.276 187.241 318.756C187.441 319.228 187.541 319.9 187.541 320.772C187.541 321.636 187.441 322.308 187.241 322.788C187.049 323.26 186.741 323.592 186.317 323.784C185.893 323.968 185.333 324.06 184.637 324.06ZM184.637 322.872C184.957 322.872 185.221 322.828 185.429 322.74C185.645 322.652 185.801 322.46 185.897 322.164C186.001 321.86 186.053 321.392 186.053 320.76C186.053 320.136 186.001 319.676 185.897 319.38C185.801 319.084 185.645 318.892 185.429 318.804C185.221 318.716 184.957 318.672 184.637 318.672C184.317 318.672 184.053 318.716 183.845 318.804C183.645 318.892 183.493 319.084 183.389 319.38C183.285 319.676 183.233 320.136 183.233 320.76C183.233 321.392 183.285 321.86 183.389 322.164C183.493 322.46 183.645 322.652 183.845 322.74C184.053 322.828 184.317 322.872 184.637 322.872ZM194.692 324.06C194.012 324.06 193.46 323.964 193.036 323.772C192.612 323.58 192.3 323.244 192.1 322.764C191.908 322.284 191.812 321.62 191.812 320.772C191.812 319.884 191.912 319.204 192.112 318.732C192.312 318.252 192.624 317.924 193.048 317.748C193.472 317.572 194.02 317.484 194.692 317.484C195.372 317.484 195.924 317.576 196.348 317.76C196.78 317.944 197.096 318.276 197.296 318.756C197.496 319.228 197.596 319.9 197.596 320.772C197.596 321.636 197.496 322.308 197.296 322.788C197.104 323.26 196.796 323.592 196.372 323.784C195.948 323.968 195.388 324.06 194.692 324.06ZM194.692 322.872C195.012 322.872 195.276 322.828 195.484 322.74C195.7 322.652 195.856 322.46 195.952 322.164C196.056 321.86 196.108 321.392 196.108 320.76C196.108 320.136 196.056 319.676 195.952 319.38C195.856 319.084 195.7 318.892 195.484 318.804C195.276 318.716 195.012 318.672 194.692 318.672C194.372 318.672 194.108 318.716 193.9 318.804C193.7 318.892 193.548 319.084 193.444 319.38C193.34 319.676 193.288 320.136 193.288 320.76C193.288 321.392 193.34 321.86 193.444 322.164C193.548 322.46 193.7 322.652 193.9 322.74C194.108 322.828 194.372 322.872 194.692 322.872ZM201.258 324C200.562 324 200.054 323.836 199.734 323.508C199.414 323.18 199.266 322.608 199.29 321.792L199.338 318.768H198.33V317.808L199.386 317.568L199.602 315.768H200.766V317.568H202.398V318.768H200.766V321.78C200.766 322.06 200.802 322.272 200.874 322.416C200.946 322.56 201.042 322.664 201.162 322.728C201.282 322.784 201.402 322.816 201.522 322.824L202.326 322.908V324H201.258ZM203.488 324V314.856H204.976V318.24C205.224 318.048 205.544 317.872 205.936 317.712C206.328 317.544 206.728 317.46 207.136 317.46C207.608 317.46 207.988 317.56 208.276 317.76C208.572 317.952 208.784 318.216 208.912 318.552C209.048 318.888 209.116 319.272 209.116 319.704V324H207.628V319.884C207.628 319.548 207.528 319.284 207.328 319.092C207.136 318.9 206.88 318.804 206.56 318.804C206.248 318.804 205.968 318.852 205.72 318.948C205.472 319.044 205.224 319.172 204.976 319.332V324H203.488ZM213.23 324.06C212.534 324.06 211.978 323.964 211.562 323.772C211.154 323.58 210.858 323.248 210.674 322.776C210.498 322.296 210.41 321.632 210.41 320.784C210.41 319.92 210.494 319.248 210.662 318.768C210.838 318.288 211.13 317.956 211.538 317.772C211.946 317.58 212.498 317.484 213.194 317.484C213.802 317.484 214.294 317.548 214.67 317.676C215.046 317.796 215.318 318.016 215.486 318.336C215.662 318.656 215.75 319.1 215.75 319.668C215.75 320.292 215.57 320.724 215.21 320.964C214.85 321.204 214.366 321.324 213.758 321.324H211.874C211.89 321.724 211.942 322.044 212.03 322.284C212.126 322.516 212.294 322.684 212.534 322.788C212.782 322.892 213.142 322.944 213.614 322.944H215.558V323.82C215.23 323.884 214.882 323.94 214.514 323.988C214.154 324.036 213.726 324.06 213.23 324.06ZM211.862 320.424H213.614C213.894 320.424 214.098 320.372 214.226 320.268C214.362 320.156 214.43 319.956 214.43 319.668C214.43 319.252 214.334 318.964 214.142 318.804C213.958 318.644 213.642 318.564 213.194 318.564C212.858 318.564 212.59 318.616 212.39 318.72C212.198 318.824 212.062 319.012 211.982 319.284C211.902 319.556 211.862 319.936 211.862 320.424ZM217.07 324V317.568H218.222L218.558 318.6C218.814 318.288 219.098 318.024 219.41 317.808C219.73 317.592 220.102 317.484 220.526 317.484C220.614 317.484 220.706 317.492 220.802 317.508C220.898 317.516 220.986 317.532 221.066 317.556V319.068C220.954 319.06 220.834 319.052 220.706 319.044C220.578 319.028 220.454 319.02 220.334 319.02C219.95 319.02 219.622 319.084 219.35 319.212C219.078 319.34 218.814 319.536 218.558 319.8V324H217.07ZM224.402 324.072C224.154 324.072 223.866 324.06 223.538 324.036C223.218 324.02 222.91 323.996 222.614 323.964C222.318 323.924 222.086 323.876 221.918 323.82V322.944H224.69C224.986 322.944 225.214 322.904 225.374 322.824C225.542 322.744 225.626 322.56 225.626 322.272V322.044C225.626 321.844 225.558 321.688 225.422 321.576C225.286 321.456 225.058 321.396 224.738 321.396H223.766C223.39 321.396 223.054 321.344 222.758 321.24C222.47 321.136 222.242 320.96 222.074 320.712C221.906 320.464 221.822 320.128 221.822 319.704V319.344C221.822 318.736 222.002 318.28 222.362 317.976C222.73 317.664 223.374 317.508 224.294 317.508C224.542 317.508 224.814 317.52 225.11 317.544C225.414 317.568 225.702 317.6 225.974 317.64C226.246 317.68 226.462 317.72 226.622 317.76V318.636H224.006C223.71 318.636 223.482 318.688 223.322 318.792C223.17 318.888 223.094 319.072 223.094 319.344V319.572C223.094 319.836 223.174 320.008 223.334 320.088C223.502 320.16 223.738 320.196 224.042 320.196H225.038C225.67 320.196 226.138 320.344 226.442 320.64C226.746 320.928 226.898 321.332 226.898 321.852V322.38C226.898 323.028 226.678 323.472 226.238 323.712C225.798 323.952 225.186 324.072 224.402 324.072Z" fill="white"/>
<rect x="1.5" y="124.5" width="104" height="75" rx="2.5" fill="url(#paint6_linear)" stroke="#00ABFE" stroke-width="3"/>
<path d="M21.1408 150V143.568H22.3528L22.6288 144.24C22.8928 144.04 23.2128 143.86 23.5888 143.7C23.9728 143.54 24.3688 143.46 24.7768 143.46C25.2808 143.46 25.6768 143.564 25.9648 143.772C26.2528 143.98 26.4568 144.256 26.5768 144.6C26.7048 144.936 26.7688 145.308 26.7688 145.716V150H25.2808V145.896C25.2808 145.552 25.1848 145.284 24.9928 145.092C24.8008 144.9 24.5408 144.804 24.2128 144.804C23.9008 144.804 23.6208 144.852 23.3728 144.948C23.1248 145.044 22.8768 145.172 22.6288 145.332V150H21.1408ZM30.882 150.06C30.186 150.06 29.63 149.964 29.214 149.772C28.806 149.58 28.51 149.248 28.326 148.776C28.15 148.296 28.062 147.632 28.062 146.784C28.062 145.92 28.146 145.248 28.314 144.768C28.49 144.288 28.782 143.956 29.19 143.772C29.598 143.58 30.15 143.484 30.846 143.484C31.454 143.484 31.946 143.548 32.322 143.676C32.698 143.796 32.97 144.016 33.138 144.336C33.314 144.656 33.402 145.1 33.402 145.668C33.402 146.292 33.222 146.724 32.862 146.964C32.502 147.204 32.018 147.324 31.41 147.324H29.526C29.542 147.724 29.594 148.044 29.682 148.284C29.778 148.516 29.946 148.684 30.186 148.788C30.434 148.892 30.794 148.944 31.266 148.944H33.21V149.82C32.882 149.884 32.534 149.94 32.166 149.988C31.806 150.036 31.378 150.06 30.882 150.06ZM29.514 146.424H31.266C31.546 146.424 31.75 146.372 31.878 146.268C32.014 146.156 32.082 145.956 32.082 145.668C32.082 145.252 31.986 144.964 31.794 144.804C31.61 144.644 31.294 144.564 30.846 144.564C30.51 144.564 30.242 144.616 30.042 144.72C29.85 144.824 29.714 145.012 29.634 145.284C29.554 145.556 29.514 145.936 29.514 146.424ZM35.8176 150L34.0296 143.568H35.5536L36.7656 148.62L38.1576 143.568H39.4056L40.7976 148.62L41.9376 143.568H43.4616L41.6976 150H40.0536L38.7576 145.644L37.4256 150H35.8176ZM47.9631 150V144.768H47.0271V143.808L47.9631 143.568V143.028C47.9631 142.26 48.1151 141.692 48.4191 141.324C48.7231 140.956 49.2511 140.772 50.0031 140.772C50.2751 140.772 50.5191 140.792 50.7351 140.832C50.9591 140.864 51.1471 140.896 51.2991 140.928V141.984H50.2791C49.9511 141.984 49.7311 142.064 49.6191 142.224C49.5071 142.384 49.4511 142.628 49.4511 142.956V143.568H51.2151V144.768H49.4511V150H47.9631ZM54.7766 150.06C54.0806 150.06 53.5246 149.964 53.1086 149.772C52.7006 149.58 52.4046 149.248 52.2206 148.776C52.0446 148.296 51.9566 147.632 51.9566 146.784C51.9566 145.92 52.0406 145.248 52.2086 144.768C52.3846 144.288 52.6766 143.956 53.0846 143.772C53.4926 143.58 54.0446 143.484 54.7406 143.484C55.3486 143.484 55.8406 143.548 56.2166 143.676C56.5926 143.796 56.8646 144.016 57.0326 144.336C57.2086 144.656 57.2966 145.1 57.2966 145.668C57.2966 146.292 57.1166 146.724 56.7566 146.964C56.3966 147.204 55.9126 147.324 55.3046 147.324H53.4206C53.4366 147.724 53.4886 148.044 53.5766 148.284C53.6726 148.516 53.8406 148.684 54.0806 148.788C54.3286 148.892 54.6886 148.944 55.1606 148.944H57.1046V149.82C56.7766 149.884 56.4286 149.94 56.0606 149.988C55.7006 150.036 55.2726 150.06 54.7766 150.06ZM53.4086 146.424H55.1606C55.4406 146.424 55.6446 146.372 55.7726 146.268C55.9086 146.156 55.9766 145.956 55.9766 145.668C55.9766 145.252 55.8806 144.964 55.6886 144.804C55.5046 144.644 55.1886 144.564 54.7406 144.564C54.4046 144.564 54.1366 144.616 53.9366 144.72C53.7446 144.824 53.6086 145.012 53.5286 145.284C53.4486 145.556 53.4086 145.936 53.4086 146.424ZM59.9493 150.072C59.4693 150.072 59.0773 149.928 58.7733 149.64C58.4693 149.352 58.3173 148.956 58.3173 148.452V147.912C58.3173 147.416 58.4853 147.012 58.8213 146.7C59.1653 146.388 59.6893 146.232 60.3933 146.232H62.2293V145.668C62.2293 145.444 62.1893 145.256 62.1093 145.104C62.0373 144.952 61.8933 144.84 61.6773 144.768C61.4613 144.688 61.1453 144.648 60.7293 144.648H58.7853V143.784C59.0893 143.704 59.4373 143.636 59.8293 143.58C60.2293 143.516 60.7053 143.484 61.2573 143.484C62.0573 143.476 62.6653 143.628 63.0813 143.94C63.5053 144.244 63.7173 144.788 63.7173 145.572V150H62.5533L62.3013 149.304C62.2373 149.36 62.0853 149.452 61.8453 149.58C61.6133 149.7 61.3293 149.812 60.9933 149.916C60.6573 150.02 60.3093 150.072 59.9493 150.072ZM60.6693 149.028C60.8453 149.028 61.0493 149 61.2813 148.944C61.5213 148.88 61.7333 148.816 61.9173 148.752C62.1013 148.68 62.2053 148.636 62.2293 148.62V146.94L60.8373 147.012C60.4693 147.044 60.2013 147.14 60.0333 147.3C59.8733 147.46 59.7933 147.672 59.7933 147.936V148.2C59.7933 148.504 59.8813 148.716 60.0573 148.836C60.2413 148.956 60.4453 149.02 60.6693 149.028ZM67.5315 150C66.8355 150 66.3275 149.836 66.0075 149.508C65.6875 149.18 65.5395 148.608 65.5635 147.792L65.6115 144.768H64.6035V143.808L65.6595 143.568L65.8755 141.768H67.0395V143.568H68.6715V144.768H67.0395V147.78C67.0395 148.06 67.0755 148.272 67.1475 148.416C67.2195 148.56 67.3155 148.664 67.4355 148.728C67.5555 148.784 67.6755 148.816 67.7955 148.824L68.5995 148.908V150H67.5315ZM71.6219 150.072C71.0299 150.072 70.5699 149.908 70.2419 149.58C69.9139 149.244 69.7499 148.756 69.7499 148.116V143.568H71.2379V147.684C71.2379 148.108 71.3339 148.392 71.5259 148.536C71.7179 148.68 71.9859 148.752 72.3299 148.752C72.6099 148.752 72.8779 148.708 73.1339 148.62C73.3979 148.532 73.6499 148.404 73.8899 148.236V143.568H75.3779V150H74.1659L73.8899 149.328C73.5859 149.52 73.2379 149.692 72.8459 149.844C72.4619 149.996 72.0539 150.072 71.6219 150.072ZM76.8751 150V143.568H78.0271L78.3631 144.6C78.6191 144.288 78.9031 144.024 79.2151 143.808C79.5351 143.592 79.9071 143.484 80.3311 143.484C80.4191 143.484 80.5111 143.492 80.6071 143.508C80.7031 143.516 80.7911 143.532 80.8711 143.556V145.068C80.7591 145.06 80.6391 145.052 80.5111 145.044C80.3831 145.028 80.2591 145.02 80.1391 145.02C79.7551 145.02 79.4271 145.084 79.1551 145.212C78.8831 145.34 78.6191 145.536 78.3631 145.8V150H76.8751ZM84.5305 150.06C83.8345 150.06 83.2785 149.964 82.8625 149.772C82.4545 149.58 82.1585 149.248 81.9745 148.776C81.7985 148.296 81.7105 147.632 81.7105 146.784C81.7105 145.92 81.7945 145.248 81.9625 144.768C82.1385 144.288 82.4305 143.956 82.8385 143.772C83.2465 143.58 83.7985 143.484 84.4945 143.484C85.1025 143.484 85.5945 143.548 85.9705 143.676C86.3465 143.796 86.6185 144.016 86.7865 144.336C86.9625 144.656 87.0505 145.1 87.0505 145.668C87.0505 146.292 86.8705 146.724 86.5105 146.964C86.1505 147.204 85.6665 147.324 85.0585 147.324H83.1745C83.1905 147.724 83.2425 148.044 83.3305 148.284C83.4265 148.516 83.5945 148.684 83.8345 148.788C84.0825 148.892 84.4425 148.944 84.9145 148.944H86.8585V149.82C86.5305 149.884 86.1825 149.94 85.8145 149.988C85.4545 150.036 85.0265 150.06 84.5305 150.06ZM83.1625 146.424H84.9145C85.1945 146.424 85.3985 146.372 85.5265 146.268C85.6625 146.156 85.7305 145.956 85.7305 145.668C85.7305 145.252 85.6345 144.964 85.4425 144.804C85.2585 144.644 84.9425 144.564 84.4945 144.564C84.1585 144.564 83.8905 144.616 83.6905 144.72C83.4985 144.824 83.3625 145.012 83.2825 145.284C83.2025 145.556 83.1625 145.936 83.1625 146.424ZM25.0607 168.844V159.568H26.2967L26.5487 160.204C26.7727 160.028 27.0487 159.864 27.3767 159.712C27.7127 159.56 28.0687 159.484 28.4447 159.484C28.9887 159.484 29.4287 159.624 29.7647 159.904C30.1007 160.184 30.3447 160.572 30.4967 161.068C30.6567 161.564 30.7367 162.136 30.7367 162.784C30.7367 163.84 30.5647 164.656 30.2207 165.232C29.8847 165.8 29.2927 166.084 28.4447 166.084C28.1247 166.084 27.7967 166.044 27.4607 165.964C27.1327 165.876 26.8287 165.752 26.5487 165.592V168.844H25.0607ZM27.9767 164.86C28.2087 164.86 28.4207 164.8 28.6127 164.68C28.8047 164.56 28.9567 164.352 29.0687 164.056C29.1887 163.752 29.2487 163.328 29.2487 162.784C29.2487 162.256 29.1927 161.84 29.0807 161.536C28.9687 161.232 28.8167 161.016 28.6247 160.888C28.4327 160.752 28.2207 160.684 27.9887 160.684C27.6927 160.684 27.4207 160.732 27.1727 160.828C26.9327 160.916 26.7247 161.008 26.5487 161.104V164.464C26.7487 164.584 26.9727 164.68 27.2207 164.752C27.4767 164.824 27.7287 164.86 27.9767 164.86ZM34.7448 166.06C34.0648 166.06 33.5128 165.964 33.0888 165.772C32.6648 165.58 32.3528 165.244 32.1528 164.764C31.9608 164.284 31.8648 163.62 31.8648 162.772C31.8648 161.884 31.9648 161.204 32.1648 160.732C32.3648 160.252 32.6768 159.924 33.1008 159.748C33.5248 159.572 34.0728 159.484 34.7448 159.484C35.4248 159.484 35.9768 159.576 36.4008 159.76C36.8328 159.944 37.1488 160.276 37.3488 160.756C37.5488 161.228 37.6488 161.9 37.6488 162.772C37.6488 163.636 37.5488 164.308 37.3488 164.788C37.1568 165.26 36.8488 165.592 36.4248 165.784C36.0008 165.968 35.4408 166.06 34.7448 166.06ZM34.7448 164.872C35.0648 164.872 35.3288 164.828 35.5368 164.74C35.7528 164.652 35.9088 164.46 36.0048 164.164C36.1088 163.86 36.1608 163.392 36.1608 162.76C36.1608 162.136 36.1088 161.676 36.0048 161.38C35.9088 161.084 35.7528 160.892 35.5368 160.804C35.3288 160.716 35.0648 160.672 34.7448 160.672C34.4248 160.672 34.1608 160.716 33.9528 160.804C33.7528 160.892 33.6008 161.084 33.4968 161.38C33.3928 161.676 33.3408 162.136 33.3408 162.76C33.3408 163.392 33.3928 163.86 33.4968 164.164C33.6008 164.46 33.7528 164.652 33.9528 164.74C34.1608 164.828 34.4248 164.872 34.7448 164.872ZM41.2748 166.072C41.0268 166.072 40.7388 166.06 40.4108 166.036C40.0908 166.02 39.7828 165.996 39.4868 165.964C39.1908 165.924 38.9588 165.876 38.7908 165.82V164.944H41.5628C41.8588 164.944 42.0868 164.904 42.2468 164.824C42.4148 164.744 42.4988 164.56 42.4988 164.272V164.044C42.4988 163.844 42.4308 163.688 42.2948 163.576C42.1588 163.456 41.9308 163.396 41.6108 163.396H40.6388C40.2628 163.396 39.9268 163.344 39.6308 163.24C39.3428 163.136 39.1148 162.96 38.9468 162.712C38.7788 162.464 38.6948 162.128 38.6948 161.704V161.344C38.6948 160.736 38.8748 160.28 39.2348 159.976C39.6028 159.664 40.2468 159.508 41.1668 159.508C41.4148 159.508 41.6868 159.52 41.9828 159.544C42.2868 159.568 42.5748 159.6 42.8468 159.64C43.1188 159.68 43.3348 159.72 43.4948 159.76V160.636H40.8788C40.5828 160.636 40.3548 160.688 40.1948 160.792C40.0428 160.888 39.9668 161.072 39.9668 161.344V161.572C39.9668 161.836 40.0468 162.008 40.2068 162.088C40.3748 162.16 40.6108 162.196 40.9148 162.196H41.9108C42.5428 162.196 43.0108 162.344 43.3148 162.64C43.6188 162.928 43.7708 163.332 43.7708 163.852V164.38C43.7708 165.028 43.5508 165.472 43.1108 165.712C42.6708 165.952 42.0588 166.072 41.2748 166.072ZM47.31 166.072C47.062 166.072 46.774 166.06 46.446 166.036C46.126 166.02 45.818 165.996 45.522 165.964C45.226 165.924 44.994 165.876 44.826 165.82V164.944H47.598C47.894 164.944 48.122 164.904 48.282 164.824C48.45 164.744 48.534 164.56 48.534 164.272V164.044C48.534 163.844 48.466 163.688 48.33 163.576C48.194 163.456 47.966 163.396 47.646 163.396H46.674C46.298 163.396 45.962 163.344 45.666 163.24C45.378 163.136 45.15 162.96 44.982 162.712C44.814 162.464 44.73 162.128 44.73 161.704V161.344C44.73 160.736 44.91 160.28 45.27 159.976C45.638 159.664 46.282 159.508 47.202 159.508C47.45 159.508 47.722 159.52 48.018 159.544C48.322 159.568 48.61 159.6 48.882 159.64C49.154 159.68 49.37 159.72 49.53 159.76V160.636H46.914C46.618 160.636 46.39 160.688 46.23 160.792C46.078 160.888 46.002 161.072 46.002 161.344V161.572C46.002 161.836 46.082 162.008 46.242 162.088C46.41 162.16 46.646 162.196 46.95 162.196H47.946C48.578 162.196 49.046 162.344 49.35 162.64C49.654 162.928 49.806 163.332 49.806 163.852V164.38C49.806 165.028 49.586 165.472 49.146 165.712C48.706 165.952 48.094 166.072 47.31 166.072ZM51.2332 158.548C51.0812 158.548 51.0052 158.476 51.0052 158.332V157.24C51.0052 157.08 51.0812 157 51.2332 157H52.3612C52.5052 157 52.5772 157.08 52.5772 157.24V158.332C52.5772 158.476 52.5052 158.548 52.3612 158.548H51.2332ZM51.0412 166V159.568H52.5292V166H51.0412ZM57.5089 166.072C57.0769 166.072 56.7009 166 56.3809 165.856C56.0609 165.712 55.7809 165.552 55.5409 165.376L55.2889 166H54.0529V156.844H55.5409V160.06C55.8129 159.908 56.1209 159.776 56.4649 159.664C56.8169 159.544 57.1409 159.484 57.4369 159.484C58.2449 159.484 58.8289 159.744 59.1889 160.264C59.5489 160.776 59.7289 161.636 59.7289 162.844C59.7289 163.9 59.5489 164.704 59.1889 165.256C58.8369 165.8 58.2769 166.072 57.5089 166.072ZM56.9689 164.86C57.3609 164.86 57.6689 164.704 57.8929 164.392C58.1249 164.08 58.2409 163.54 58.2409 162.772C58.2409 162.172 58.1849 161.724 58.0729 161.428C57.9609 161.124 57.8089 160.924 57.6169 160.828C57.4249 160.732 57.2089 160.684 56.9689 160.684C56.6969 160.684 56.4409 160.728 56.2009 160.816C55.9689 160.896 55.7489 160.992 55.5409 161.104V164.464C55.7249 164.56 55.9329 164.652 56.1649 164.74C56.3969 164.82 56.6649 164.86 56.9689 164.86ZM62.957 166.024C62.325 166.024 61.849 165.864 61.529 165.544C61.209 165.216 61.049 164.676 61.049 163.924V156.844H62.537V163.72C62.537 164.152 62.601 164.444 62.729 164.596C62.857 164.748 63.045 164.84 63.293 164.872L63.833 164.944V166.024H62.957ZM67.3449 166.06C66.6489 166.06 66.0929 165.964 65.6769 165.772C65.2689 165.58 64.9729 165.248 64.7889 164.776C64.6129 164.296 64.5249 163.632 64.5249 162.784C64.5249 161.92 64.6089 161.248 64.7769 160.768C64.9529 160.288 65.2449 159.956 65.6529 159.772C66.0609 159.58 66.6129 159.484 67.3089 159.484C67.9169 159.484 68.4089 159.548 68.7849 159.676C69.1609 159.796 69.4329 160.016 69.6009 160.336C69.7769 160.656 69.8649 161.1 69.8649 161.668C69.8649 162.292 69.6849 162.724 69.3249 162.964C68.9649 163.204 68.4809 163.324 67.8729 163.324H65.9889C66.0049 163.724 66.0569 164.044 66.1449 164.284C66.2409 164.516 66.4089 164.684 66.6489 164.788C66.8969 164.892 67.2569 164.944 67.7289 164.944H69.6729V165.82C69.3449 165.884 68.9969 165.94 68.6289 165.988C68.2689 166.036 67.8409 166.06 67.3449 166.06ZM65.9769 162.424H67.7289C68.0089 162.424 68.2129 162.372 68.3409 162.268C68.4769 162.156 68.5449 161.956 68.5449 161.668C68.5449 161.252 68.4489 160.964 68.2569 160.804C68.0729 160.644 67.7569 160.564 67.3089 160.564C66.9729 160.564 66.7049 160.616 66.5049 160.72C66.3129 160.824 66.1769 161.012 66.0969 161.284C66.0169 161.556 65.9769 161.936 65.9769 162.424ZM74.5183 158.548C74.3663 158.548 74.2903 158.476 74.2903 158.332V157.24C74.2903 157.08 74.3663 157 74.5183 157H75.6463C75.7903 157 75.8623 157.08 75.8623 157.24V158.332C75.8623 158.476 75.7903 158.548 75.6463 158.548H74.5183ZM74.3263 166V159.568H75.8143V166H74.3263ZM77.338 166V159.568H78.55L78.826 160.24C79.09 160.04 79.41 159.86 79.786 159.7C80.17 159.54 80.566 159.46 80.974 159.46C81.478 159.46 81.874 159.564 82.162 159.772C82.45 159.98 82.654 160.256 82.774 160.6C82.902 160.936 82.966 161.308 82.966 161.716V166H81.478V161.896C81.478 161.552 81.382 161.284 81.19 161.092C80.998 160.9 80.738 160.804 80.41 160.804C80.098 160.804 79.818 160.852 79.57 160.948C79.322 161.044 79.074 161.172 78.826 161.332V166H77.338ZM21.0573 182.06C20.3773 182.06 19.8253 181.964 19.4013 181.772C18.9773 181.58 18.6653 181.244 18.4653 180.764C18.2733 180.284 18.1773 179.62 18.1773 178.772C18.1773 177.884 18.2773 177.204 18.4773 176.732C18.6773 176.252 18.9893 175.924 19.4133 175.748C19.8373 175.572 20.3853 175.484 21.0573 175.484C21.7373 175.484 22.2893 175.576 22.7133 175.76C23.1453 175.944 23.4613 176.276 23.6613 176.756C23.8613 177.228 23.9613 177.9 23.9613 178.772C23.9613 179.636 23.8613 180.308 23.6613 180.788C23.4693 181.26 23.1613 181.592 22.7373 181.784C22.3133 181.968 21.7533 182.06 21.0573 182.06ZM21.0573 180.872C21.3773 180.872 21.6413 180.828 21.8493 180.74C22.0653 180.652 22.2213 180.46 22.3173 180.164C22.4213 179.86 22.4733 179.392 22.4733 178.76C22.4733 178.136 22.4213 177.676 22.3173 177.38C22.2213 177.084 22.0653 176.892 21.8493 176.804C21.6413 176.716 21.3773 176.672 21.0573 176.672C20.7373 176.672 20.4733 176.716 20.2653 176.804C20.0653 176.892 19.9133 177.084 19.8093 177.38C19.7053 177.676 19.6533 178.136 19.6533 178.76C19.6533 179.392 19.7053 179.86 19.8093 180.164C19.9133 180.46 20.0653 180.652 20.2653 180.74C20.4733 180.828 20.7373 180.872 21.0573 180.872ZM27.6233 182C26.9273 182 26.4193 181.836 26.0993 181.508C25.7793 181.18 25.6313 180.608 25.6553 179.792L25.7033 176.768H24.6953V175.808L25.7513 175.568L25.9673 173.768H27.1313V175.568H28.7633V176.768H27.1313V179.78C27.1313 180.06 27.1673 180.272 27.2393 180.416C27.3113 180.56 27.4073 180.664 27.5273 180.728C27.6473 180.784 27.7673 180.816 27.8873 180.824L28.6913 180.908V182H27.6233ZM29.8537 182V172.856H31.3417V176.24C31.5897 176.048 31.9097 175.872 32.3017 175.712C32.6937 175.544 33.0937 175.46 33.5017 175.46C33.9737 175.46 34.3537 175.56 34.6417 175.76C34.9377 175.952 35.1497 176.216 35.2777 176.552C35.4137 176.888 35.4817 177.272 35.4817 177.704V182H33.9937V177.884C33.9937 177.548 33.8937 177.284 33.6937 177.092C33.5017 176.9 33.2457 176.804 32.9257 176.804C32.6137 176.804 32.3337 176.852 32.0857 176.948C31.8377 177.044 31.5897 177.172 31.3417 177.332V182H29.8537ZM39.5949 182.06C38.8989 182.06 38.3429 181.964 37.9269 181.772C37.5189 181.58 37.2229 181.248 37.0389 180.776C36.8629 180.296 36.7749 179.632 36.7749 178.784C36.7749 177.92 36.8589 177.248 37.0269 176.768C37.2029 176.288 37.4949 175.956 37.9029 175.772C38.3109 175.58 38.8629 175.484 39.5589 175.484C40.1669 175.484 40.6589 175.548 41.0349 175.676C41.4109 175.796 41.6829 176.016 41.8509 176.336C42.0269 176.656 42.1149 177.1 42.1149 177.668C42.1149 178.292 41.9349 178.724 41.5749 178.964C41.2149 179.204 40.7309 179.324 40.1229 179.324H38.2389C38.2549 179.724 38.3069 180.044 38.3949 180.284C38.4909 180.516 38.6589 180.684 38.8989 180.788C39.1469 180.892 39.5069 180.944 39.9789 180.944H41.9229V181.82C41.5949 181.884 41.2469 181.94 40.8789 181.988C40.5189 182.036 40.0909 182.06 39.5949 182.06ZM38.2269 178.424H39.9789C40.2589 178.424 40.4629 178.372 40.5909 178.268C40.7269 178.156 40.7949 177.956 40.7949 177.668C40.7949 177.252 40.6989 176.964 40.5069 176.804C40.3229 176.644 40.0069 176.564 39.5589 176.564C39.2229 176.564 38.9549 176.616 38.7549 176.72C38.5629 176.824 38.4269 177.012 38.3469 177.284C38.2669 177.556 38.2269 177.936 38.2269 178.424ZM43.4357 182V175.568H44.5877L44.9237 176.6C45.1797 176.288 45.4637 176.024 45.7757 175.808C46.0957 175.592 46.4677 175.484 46.8917 175.484C46.9797 175.484 47.0717 175.492 47.1677 175.508C47.2637 175.516 47.3517 175.532 47.4317 175.556V177.068C47.3197 177.06 47.1997 177.052 47.0717 177.044C46.9437 177.028 46.8197 177.02 46.6997 177.02C46.3157 177.02 45.9877 177.084 45.7157 177.212C45.4437 177.34 45.1797 177.536 44.9237 177.8V182H43.4357ZM53.9077 182.072C53.6597 182.072 53.3717 182.06 53.0437 182.036C52.7237 182.02 52.4157 181.996 52.1197 181.964C51.8237 181.924 51.5917 181.876 51.4237 181.82V180.944H54.1957C54.4917 180.944 54.7197 180.904 54.8797 180.824C55.0477 180.744 55.1317 180.56 55.1317 180.272V180.044C55.1317 179.844 55.0637 179.688 54.9277 179.576C54.7917 179.456 54.5637 179.396 54.2437 179.396H53.2717C52.8957 179.396 52.5597 179.344 52.2637 179.24C51.9757 179.136 51.7477 178.96 51.5797 178.712C51.4117 178.464 51.3277 178.128 51.3277 177.704V177.344C51.3277 176.736 51.5077 176.28 51.8677 175.976C52.2357 175.664 52.8797 175.508 53.7997 175.508C54.0477 175.508 54.3197 175.52 54.6157 175.544C54.9197 175.568 55.2077 175.6 55.4797 175.64C55.7517 175.68 55.9677 175.72 56.1277 175.76V176.636H53.5117C53.2157 176.636 52.9877 176.688 52.8277 176.792C52.6757 176.888 52.5997 177.072 52.5997 177.344V177.572C52.5997 177.836 52.6797 178.008 52.8397 178.088C53.0077 178.16 53.2437 178.196 53.5477 178.196H54.5437C55.1757 178.196 55.6437 178.344 55.9477 178.64C56.2517 178.928 56.4037 179.332 56.4037 179.852V180.38C56.4037 181.028 56.1837 181.472 55.7437 181.712C55.3037 181.952 54.6917 182.072 53.9077 182.072ZM60.2668 182.06C59.5708 182.06 59.0148 181.964 58.5988 181.772C58.1908 181.58 57.8948 181.248 57.7108 180.776C57.5348 180.296 57.4468 179.632 57.4468 178.784C57.4468 177.92 57.5308 177.248 57.6988 176.768C57.8748 176.288 58.1668 175.956 58.5748 175.772C58.9828 175.58 59.5348 175.484 60.2308 175.484C60.8388 175.484 61.3308 175.548 61.7068 175.676C62.0828 175.796 62.3548 176.016 62.5228 176.336C62.6988 176.656 62.7868 177.1 62.7868 177.668C62.7868 178.292 62.6068 178.724 62.2468 178.964C61.8868 179.204 61.4028 179.324 60.7948 179.324H58.9108C58.9268 179.724 58.9788 180.044 59.0668 180.284C59.1628 180.516 59.3308 180.684 59.5708 180.788C59.8188 180.892 60.1788 180.944 60.6508 180.944H62.5948V181.82C62.2668 181.884 61.9188 181.94 61.5508 181.988C61.1908 182.036 60.7628 182.06 60.2668 182.06ZM58.8988 178.424H60.6508C60.9308 178.424 61.1348 178.372 61.2628 178.268C61.3988 178.156 61.4668 177.956 61.4668 177.668C61.4668 177.252 61.3708 176.964 61.1788 176.804C60.9948 176.644 60.6788 176.564 60.2308 176.564C59.8948 176.564 59.6268 176.616 59.4268 176.72C59.2348 176.824 59.0988 177.012 59.0188 177.284C58.9388 177.556 58.8988 177.936 58.8988 178.424ZM64.1076 182V175.568H65.2596L65.5956 176.6C65.8516 176.288 66.1356 176.024 66.4476 175.808C66.7676 175.592 67.1396 175.484 67.5636 175.484C67.6516 175.484 67.7436 175.492 67.8396 175.508C67.9356 175.516 68.0236 175.532 68.1036 175.556V177.068C67.9916 177.06 67.8716 177.052 67.7436 177.044C67.6156 177.028 67.4916 177.02 67.3716 177.02C66.9876 177.02 66.6596 177.084 66.3876 177.212C66.1156 177.34 65.8516 177.536 65.5956 177.8V182H64.1076ZM70.8029 182L68.5589 175.568H70.0829L71.6909 180.62L73.3349 175.568H74.8469L72.5069 182H70.8029ZM75.9714 174.548C75.8194 174.548 75.7434 174.476 75.7434 174.332V173.24C75.7434 173.08 75.8194 173 75.9714 173H77.0994C77.2434 173 77.3154 173.08 77.3154 173.24V174.332C77.3154 174.476 77.2434 174.548 77.0994 174.548H75.9714ZM75.7794 182V175.568H77.2674V182H75.7794ZM81.2512 182.072C80.7392 182.072 80.2832 181.98 79.8832 181.796C79.4832 181.604 79.1672 181.272 78.9352 180.8C78.7112 180.328 78.5992 179.664 78.5992 178.808C78.5992 177.928 78.7032 177.248 78.9112 176.768C79.1272 176.288 79.4352 175.956 79.8352 175.772C80.2432 175.58 80.7272 175.484 81.2872 175.484C81.6552 175.484 82.0192 175.504 82.3792 175.544C82.7392 175.576 83.1072 175.64 83.4832 175.736V176.588H81.7312C81.3472 176.588 81.0312 176.648 80.7832 176.768C80.5432 176.888 80.3632 177.108 80.2432 177.428C80.1312 177.748 80.0752 178.208 80.0752 178.808C80.0752 179.4 80.1352 179.848 80.2552 180.152C80.3752 180.456 80.5552 180.664 80.7952 180.776C81.0432 180.888 81.3592 180.944 81.7432 180.944H83.5792V181.784C83.2832 181.864 82.9232 181.932 82.4992 181.988C82.0832 182.044 81.6672 182.072 81.2512 182.072ZM87.302 182.06C86.606 182.06 86.05 181.964 85.634 181.772C85.226 181.58 84.93 181.248 84.746 180.776C84.57 180.296 84.482 179.632 84.482 178.784C84.482 177.92 84.566 177.248 84.734 176.768C84.91 176.288 85.202 175.956 85.61 175.772C86.018 175.58 86.57 175.484 87.266 175.484C87.874 175.484 88.366 175.548 88.742 175.676C89.118 175.796 89.39 176.016 89.558 176.336C89.734 176.656 89.822 177.1 89.822 177.668C89.822 178.292 89.642 178.724 89.282 178.964C88.922 179.204 88.438 179.324 87.83 179.324H85.946C85.962 179.724 86.014 180.044 86.102 180.284C86.198 180.516 86.366 180.684 86.606 180.788C86.854 180.892 87.214 180.944 87.686 180.944H89.63V181.82C89.302 181.884 88.954 181.94 88.586 181.988C88.226 182.036 87.798 182.06 87.302 182.06ZM85.934 178.424H87.686C87.966 178.424 88.17 178.372 88.298 178.268C88.434 178.156 88.502 177.956 88.502 177.668C88.502 177.252 88.406 176.964 88.214 176.804C88.03 176.644 87.714 176.564 87.266 176.564C86.93 176.564 86.662 176.616 86.462 176.72C86.27 176.824 86.134 177.012 86.054 177.284C85.974 177.556 85.934 177.936 85.934 178.424Z" fill="white"/>
<defs>
<linearGradient id="paint0_linear" x1="200" y1="39" x2="200" y2="295" gradientUnits="userSpaceOnUse">
<stop stop-color="#616892"/>
<stop offset="1" stop-color="#707FA6"/>
</linearGradient>
<linearGradient id="paint1_linear" x1="340" y1="15" x2="340" y2="63" gradientUnits="userSpaceOnUse">
<stop stop-color="#616892"/>
<stop offset="1" stop-color="#707FA6"/>
</linearGradient>
<linearGradient id="paint2_linear" x1="148" y1="201" x2="242.242" y2="111.231" gradientUnits="userSpaceOnUse">
<stop stop-color="#FF6E5D"/>
<stop offset="1" stop-color="#B84CB7"/>
<stop offset="1" stop-color="#FF00E6"/>
</linearGradient>
<linearGradient id="paint3_linear" x1="295" y1="265" x2="389.242" y2="175.231" gradientUnits="userSpaceOnUse">
<stop stop-color="#FF6E5D"/>
<stop offset="1" stop-color="#B84CB7"/>
<stop offset="1" stop-color="#FF00E6"/>
</linearGradient>
<linearGradient id="paint4_linear" x1="148" y1="78" x2="242.242" y2="-11.7685" gradientUnits="userSpaceOnUse">
<stop stop-color="#FF6E5D"/>
<stop offset="1" stop-color="#B84CB7"/>
<stop offset="1" stop-color="#FF00E6"/>
</linearGradient>
<linearGradient id="paint5_linear" x1="148" y1="343" x2="242.242" y2="253.231" gradientUnits="userSpaceOnUse">
<stop stop-color="#FF6E5D"/>
<stop offset="1" stop-color="#B84CB7"/>
<stop offset="1" stop-color="#FF00E6"/>
</linearGradient>
<linearGradient id="paint6_linear" x1="0" y1="201" x2="94.2422" y2="111.231" gradientUnits="userSpaceOnUse">
<stop stop-color="#FF6E5D"/>
<stop offset="1" stop-color="#B84CB7"/>
<stop offset="1" stop-color="#FF00E6"/>
</linearGradient>
</defs>
</svg>
